<?xml version="1.0" encoding="UTF-8" standalone="no"?>
<!-- Created with Inkscape (http://www.inkscape.org/) -->

<svg
   xmlns:dc="http://purl.org/dc/elements/1.1/"
   xmlns:cc="http://creativecommons.org/ns#"
   xmlns:rdf="http://www.w3.org/1999/02/22-rdf-syntax-ns#"
   xmlns:svg="http://www.w3.org/2000/svg"
   xmlns="http://www.w3.org/2000/svg"
   xmlns:xlink="http://www.w3.org/1999/xlink"
   xmlns:sodipodi="http://sodipodi.sourceforge.net/DTD/sodipodi-0.dtd"
   xmlns:inkscape="http://www.inkscape.org/namespaces/inkscape"
   id="svg14997"
   version="1.1"
   inkscape:version="0.91 r13725"
   width="24"
   height="24"
   sodipodi:docname="amarok.svgz"
   style="display:inline">
  <metadata
     id="metadata15003">
    <rdf:RDF>
      <cc:Work
         rdf:about="">
        <dc:format>image/svg+xml</dc:format>
        <dc:type
           rdf:resource="http://purl.org/dc/dcmitype/StillImage" />
        <dc:title></dc:title>
      </cc:Work>
    </rdf:RDF>
  </metadata>
  <defs
     id="defs15001">
    <linearGradient
       inkscape:collect="always"
       id="linearGradient16282">
      <stop
         style="stop-color:#ffffff;stop-opacity:1;"
         offset="0"
         id="stop16284" />
      <stop
         style="stop-color:#ffffff;stop-opacity:0;"
         offset="1"
         id="stop16286" />
    </linearGradient>
    <linearGradient
       id="linearGradient16121">
      <stop
         style="stop-color:#ffffff;stop-opacity:0.74100721;"
         offset="0"
         id="stop16123" />
      <stop
         style="stop-color:#ffffff;stop-opacity:0.35251799;"
         offset="1"
         id="stop16125" />
    </linearGradient>
    <linearGradient
       id="linearGradient16018">
      <stop
         style="stop-color:#000000;stop-opacity:0.60431653;"
         offset="0"
         id="stop16020" />
      <stop
         style="stop-color:#1c1c1c;stop-opacity:0.68345326;"
         offset="1"
         id="stop16022" />
    </linearGradient>
    <linearGradient
       id="linearGradient16006">
      <stop
         style="stop-color:#ffffff;stop-opacity:0.92086333;"
         offset="0"
         id="stop16008" />
      <stop
         id="stop16016"
         offset="0.25"
         style="stop-color:#ffffff;stop-opacity:0.88489211;" />
      <stop
         id="stop16014"
         offset="0.5"
         style="stop-color:#ffffff;stop-opacity:0.39215687;" />
      <stop
         style="stop-color:#ffffff;stop-opacity:0.89928055;"
         offset="1"
         id="stop16010" />
    </linearGradient>
    <radialGradient
       inkscape:collect="always"
       xlink:href="#linearGradient16006"
       id="radialGradient16012"
       cx="8.0929317"
       cy="18.634663"
       fx="8.0929317"
       fy="18.634663"
       r="10"
       gradientUnits="userSpaceOnUse"
       gradientTransform="matrix(1.4118279,-0.66865338,0.59646688,1.2594097,-10.697853,3.8693936)" />
    <radialGradient
       inkscape:collect="always"
       xlink:href="#linearGradient16018"
       id="radialGradient16026"
       gradientUnits="userSpaceOnUse"
       gradientTransform="matrix(1.1483777,0,0,1.0770556,-1.8851085,-0.93472956)"
       cx="10.375946"
       cy="11.722908"
       fx="10.375946"
       fy="11.722908"
       r="1.5801342" />
    <radialGradient
       inkscape:collect="always"
       xlink:href="#linearGradient16121"
       id="radialGradient16165"
       gradientUnits="userSpaceOnUse"
       gradientTransform="matrix(1.6893634,0,0,1.5844424,-7.5723401,-7.3267349)"
       cx="10.51272"
       cy="12.597894"
       fx="10.51272"
       fy="12.597894"
       r="1.5801342" />
    <radialGradient
       inkscape:collect="always"
       xlink:href="#linearGradient16282"
       id="radialGradient16288"
       cx="12.691099"
       cy="15.125654"
       fx="12.691099"
       fy="15.125654"
       r="5.2774868"
       gradientTransform="matrix(0.9325197,-0.3611191,0.26116649,0.67441157,-6.6750667,6.4920295)"
       gradientUnits="userSpaceOnUse" />
  </defs>
  <sodipodi:namedview
     pagecolor="#999999"
     bordercolor="#666666"
     borderopacity="0.15294118"
     objecttolerance="10"
     gridtolerance="10"
     guidetolerance="10"
     inkscape:pageopacity="1"
     inkscape:pageshadow="2"
     inkscape:window-width="1920"
     inkscape:window-height="1046"
     id="namedview14999"
     showgrid="true"
     inkscape:showpageshadow="false"
     inkscape:snap-bbox="true"
     inkscape:zoom="16"
     inkscape:cx="7.480585"
     inkscape:cy="10.223725"
     inkscape:window-x="0"
     inkscape:window-y="34"
     inkscape:window-maximized="1"
     inkscape:current-layer="layer3"
     showguides="true"
     inkscape:guide-bbox="true">
    <inkscape:grid
       type="xygrid"
       id="grid15007"
       empspacing="4"
       visible="true"
       enabled="true"
       snapvisiblegridlinesonly="true"
       dotted="true" />
  </sodipodi:namedview>
  <g
     inkscape:groupmode="layer"
     id="layer3"
     inkscape:label="Icon"
     style="display:inline">
    <g
       id="amarok">
      <rect
         y="0"
         x="0"
         height="24"
         width="24"
         id="rect16227"
         style="fill:#ffffff;fill-opacity:0;stroke:none" />
      <path
         id="path15858"
         d="M 12,1.03125 C 5.9529254,1.03125 1.03125,5.9529254 1.03125,12 1.03125,18.047074 5.9529253,22.96875 12,22.96875 18.047074,22.96875 22.96875,18.047074 22.96875,12 22.96875,5.9529253 18.047074,1.03125 12,1.03125 z M 12,2 C 17.522847,2 22,6.4771525 22,12 22,17.522847 17.522847,22 12,22 6.4771525,22 2,17.522847 2,12 2,6.4771525 6.4771525,2 12,2 z m 0,1 C 7.0294373,3 3,7.0294373 3,12 3,13.944339 3.6079752,15.747273 4.65625,17.21875 5.130042,16.839284 5.8752306,16.102634 5.71875,15.375 5.5093259,14.401178 3.4390571,13.976085 3.5,13.28125 3.535065,12.881455 4.5568168,12.35222 5.03125,12.21875 5.8652239,11.984132 6.4657512,11.998223 7.0625,11.53125 8.2559976,10.597308 8.9941229,9.6384848 10.59375,9.25 11.906981,8.9310693 11.646597,9.6434882 12.5,9.09375 13.148433,8.676048 15.678828,6.11911 16.34375,6.25 17.0087,6.3808901 17,7.03125 17,8.03125 c 0,1 -2.010558,2.355252 -1.34375,2.96875 0.112084,0.103123 0.928215,-0.01007 1.40625,-0.125 0.478034,-0.11489 0.706295,-0.53611 1.125,-0.09375 0.335032,0.353957 0.151178,1.063973 -0.875,1.78125 -0.961178,0.671845 -2.25408,0.830089 -2.71875,2.40625 -0.531259,1.80203 0.03381,4.554388 0.28125,5.5625 C 18.439798,19.33403 21,15.968123 21,12 21,7.0294373 16.970563,3 12,3 z m 0,0.96875 c 1.598679,0 3.000842,0.5749114 4.25,1.375 C 16.01893,5.357116 15.777012,5.371516 15.625,5.4375 15.404942,5.533021 15.199742,5.6477413 15,5.78125 c -0.399485,0.2670174 -0.807692,0.5892187 -1.21875,0.9375 -0.411058,0.3482813 -0.791572,0.7082925 -1.125,1 -0.333428,0.2917075 -0.662697,0.5465227 -0.6875,0.5625 C 11.90793,8.320427 11.89216,8.334788 11.875,8.34375 11.629892,8.273357 11.09761,8.1370072 10.375,8.3125 8.4861846,8.7712169 7.5613573,9.9262572 6.46875,10.78125 c -0.3405579,0.266496 -0.7269236,0.229766 -1.6875,0.5 C 4.5375997,11.3498 4.2824915,11.497992 4.03125,11.625 4.2361778,7.3634405 7.6861994,3.96875 12,3.96875 z m 5.84375,2.59375 c 1.33111,1.4321948 2.1875,3.3204851 2.1875,5.4375 0,3.119568 -1.823003,5.731544 -4.40625,7.0625 -0.204805,-1.232285 -0.39064,-2.805451 -0.09375,-3.8125 0.165822,-0.562468 0.366337,-0.754739 0.75,-1 0.383663,-0.245261 0.975084,-0.473814 1.59375,-0.90625 0.613974,-0.429155 1.04511,-0.881911 1.28125,-1.4375 0.23614,-0.555589 0.201002,-1.304773 -0.25,-1.78125 C 18.718495,9.9266381 18.446733,9.7329619 18.125,9.65625 17.803267,9.579538 17.501372,9.64688 17.3125,9.71875 c -0.102019,0.038822 -0.06218,0.034007 -0.125,0.0625 0.110091,-0.1447615 0.20586,-0.2714556 0.3125,-0.4375 0.221936,-0.3455663 0.46875,-0.7374597 0.46875,-1.3125 0,-0.4971964 0.01323,-0.9496988 -0.125,-1.46875 z"
         style="fill:#000000;fill-opacity:0.39215686;stroke:none"
         inkscape:connector-curvature="0" />
      <path
         id="path15048"
         d="M 12,2 C 6.4771525,2 2,6.4771525 2,12 2,17.522847 6.4771525,22 12,22 17.522847,22 22,17.522847 22,12 22,6.4771525 17.522847,2 12,2 z m 0,1 c 4.970563,0 9,4.0294373 9,9 0,3.968123 -2.560202,7.33403 -6.125,8.53125 -0.24744,-1.008112 -0.812509,-3.76047 -0.28125,-5.5625 0.46467,-1.576161 1.757572,-1.734405 2.71875,-2.40625 1.026178,-0.717277 1.210032,-1.427293 0.875,-1.78125 C 17.768795,10.33889 17.540534,10.76011 17.0625,10.875 16.584465,10.989934 15.768334,11.103123 15.65625,11 14.989442,10.386502 17,9.03125 17,8.03125 17,7.03125 17.0087,6.3808901 16.34375,6.25 15.678828,6.11911 13.148433,8.676048 12.5,9.09375 11.646597,9.6434882 11.906981,8.9310693 10.59375,9.25 8.9941229,9.6384848 8.2559976,10.597308 7.0625,11.53125 6.4657512,11.998223 5.8652239,11.984132 5.03125,12.21875 4.5568168,12.35222 3.535065,12.881455 3.5,13.28125 3.4390571,13.976085 5.5093259,14.401178 5.71875,15.375 5.8752306,16.102634 5.130042,16.839284 4.65625,17.21875 3.6079752,15.747273 3,13.944339 3,12 3,7.0294373 7.0294373,3 12,3 z"
         style="fill:url(#radialGradient16012);fill-opacity:1;stroke:none"
         inkscape:connector-curvature="0" />
      <path
         style="fill:url(#radialGradient16288);fill-opacity:1;stroke:none"
         d="M 12.84375,8.8125 C 12.730557,8.9049493 12.57196,9.0473953 12.5,9.09375 11.646597,9.6434882 11.906981,8.9310693 10.59375,9.25 8.9941229,9.6384848 8.2559976,10.597308 7.0625,11.53125 6.4657512,11.998223 5.8652239,11.984132 5.03125,12.21875 4.7680189,12.292804 4.3381963,12.490737 4,12.71875 3.9634206,13.149798 4.0346932,13.592749 4.1875,14 c 0.00347,0.0092 -0.00357,0.02204 0,0.03125 0.6052695,0.369312 1.4043179,0.753516 1.53125,1.34375 0.01956,0.09095 0.037576,0.190729 0.03125,0.28125 1.2552957,0.634028 3.0222762,0.669063 4.75,0 2.717992,-1.052545 4.292466,-3.471809 3.53125,-5.4375 C 13.806523,9.6384376 13.371803,9.1646074 12.84375,8.8125 z"
         id="path16280"
         inkscape:connector-curvature="0" />
      <path
         d="m 11.53125,9.46875 c -0.210959,-0.00814 -0.446737,0.00387 -0.6875,0.0625 C 10.365077,9.647825 9.8100102,9.8864348 9.3125,10.25 c -0.5306991,0.387818 -0.8939523,0.923953 -1.125,1.4375 -0.1155238,0.256773 -0.2011327,0.525926 -0.21875,0.78125 -0.00881,0.127662 0.00915,0.257037 0.0625,0.40625 0.053346,0.149213 0.1653579,0.321129 0.34375,0.40625 0.1669375,0.07966 0.4570997,0.112281 0.65625,0.03125 0.1991503,-0.08103 0.2726944,-0.186227 0.375,-0.28125 0.2046113,-0.190047 0.4509478,-0.442021 1.03125,-0.78125 0.578739,-0.338315 1.118314,-0.553311 1.53125,-0.875 0.206468,-0.160844 0.407171,-0.371782 0.46875,-0.6875 0.06158,-0.315718 -0.04,-0.636534 -0.21875,-0.90625 -0.207982,-0.3138317 -0.476541,-0.3043578 -0.6875,-0.3125 z"
         id="path16163"
         style="fill:url(#radialGradient16165);fill-opacity:1;stroke:none;display:inline"
         inkscape:original="M 10.96875 10.03125 C 10.554634 10.132103 10.058944 10.339137 9.625 10.65625 C 8.7571126 11.290475 8.2148306 12.631695 8.59375 12.8125 C 8.9726694 12.993305 8.9446175 12.539055 10.1875 11.8125 C 11.403663 11.101565 12.329047 10.889087 11.78125 10.0625 C 11.701937 9.9428217 11.382866 9.9303973 10.96875 10.03125 z "
         inkscape:radius="0.50652927"
         sodipodi:type="inkscape:offset" />
      <path
         sodipodi:nodetypes="zsssz"
         inkscape:connector-curvature="0"
         id="path15823"
         d="M 8.5927686,12.827942 C 8.2138492,12.647137 8.74989,11.290428 9.6177774,10.656203 10.485665,10.021976 11.628871,9.8160005 11.787498,10.055357 c 0.547797,0.826587 -0.388007,1.040573 -1.60417,1.751508 -1.2428825,0.726555 -1.21164,1.201882 -1.5905594,1.021077 z"
         style="fill:url(#radialGradient16026);fill-opacity:1;stroke:none" />
      <path
         sodipodi:nodetypes="cssscsssssssssccsssscssssssssssccssssssssssccssscc"
         inkscape:connector-curvature="0"
         id="path15048-0"
         d="m 14.875,20.53125 c -0.24744,-1.008112 -0.812509,-3.76047 -0.28125,-5.5625 0.46467,-1.576161 1.757572,-1.734405 2.71875,-2.40625 1.026178,-0.717277 1.210032,-1.427293 0.875,-1.78125 C 17.768795,10.33889 17.540534,10.76011 17.0625,10.875 16.584465,10.989934 15.768334,11.103123 15.65625,11 14.989442,10.386502 17,9.03125 17,8.03125 17,7.03125 17.0087,6.3808901 16.34375,6.25 15.678828,6.11911 13.148433,8.676048 12.5,9.09375 11.646597,9.6434882 11.906981,8.9310693 10.59375,9.25 8.9941229,9.6384848 8.2559976,10.597308 7.0625,11.53125 6.4657512,11.998223 5.8652239,11.984132 5.03125,12.21875 4.5568168,12.35222 3.535065,12.881455 3.5,13.28125 c -0.060943,0.694835 2.0093259,1.119928 2.21875,2.09375 0.1564806,0.727634 -0.588708,1.464284 -1.0625,1.84375 l 0.40625,0.5 C 5.3290358,17.505278 5.6564569,17.182427 5.9375,16.78125 6.2185431,16.380073 6.4747018,15.858925 6.34375,15.25 6.2482677,14.806007 5.9668899,14.485542 5.6875,14.25 5.4081101,14.014458 5.1156093,13.847157 4.84375,13.6875 4.5964026,13.542239 4.3818209,13.411048 4.25,13.3125 c 0.056884,-0.04472 0.109393,-0.0763 0.1875,-0.125 0.2644989,-0.164909 0.6088093,-0.30403 0.75,-0.34375 0.7512683,-0.211351 1.4858894,-0.214562 2.25,-0.8125 C 8.6969062,11.045733 9.3392908,10.217604 10.75,9.875 11.3108,9.7388044 11.309056,9.7686666 11.53125,9.84375 11.642347,9.881292 11.869425,9.9716174 12.125,9.9375 12.380575,9.903383 12.59035,9.7882329 12.84375,9.625 13.095556,9.4627939 13.345191,9.2369772 13.6875,8.9375 c 0.342309,-0.2994772 0.734895,-0.669472 1.125,-1 0.390105,-0.330528 0.791186,-0.6415148 1.09375,-0.84375 0.141196,-0.094376 0.264497,-0.1510396 0.34375,-0.1875 -0.0063,-1.175e-4 0.06242,-0.013531 0.03125,0 -6.59e-4,0.00271 0.0095,-0.019214 0.03125,0.0625 0.04352,0.1634288 0.0625,0.5606624 0.0625,1.0625 0,0.037661 -0.06933,0.2361029 -0.21875,0.46875 C 16.006835,8.7326471 15.779004,9.0021569 15.5625,9.28125 15.345996,9.5603431 15.144106,9.8391727 15,10.1875 c -0.07205,0.174164 -0.115542,0.352832 -0.09375,0.59375 0.02179,0.240918 0.127992,0.517743 0.3125,0.6875 0.176254,0.162163 0.285827,0.17031 0.375,0.1875 0.08917,0.01719 0.177381,0.02972 0.25,0.03125 0.145239,0.003 0.281893,-0.01457 0.4375,-0.03125 0.311215,-0.03336 0.664759,-0.09067 0.9375,-0.15625 0.258546,-0.06214 0.327522,-0.12533 0.4375,-0.1875 -0.0741,0.15647 -0.290199,0.419202 -0.71875,0.71875 -0.390388,0.272873 -0.921593,0.505247 -1.5,0.875 -0.578407,0.369753 -1.161714,0.939534 -1.4375,1.875 -0.615212,2.086799 -0.0078,4.855725 0.25,5.90625 z"
         style="fill:#ffffff;fill-opacity:1;stroke:none;display:inline" />
    </g>
  </g>
</svg>
