<?xml version="1.0" encoding="UTF-8" standalone="no"?>
<!-- Created with Inkscape (http://www.inkscape.org/) -->

<svg
   xmlns:dc="http://purl.org/dc/elements/1.1/"
   xmlns:cc="http://creativecommons.org/ns#"
   xmlns:rdf="http://www.w3.org/1999/02/22-rdf-syntax-ns#"
   xmlns:svg="http://www.w3.org/2000/svg"
   xmlns="http://www.w3.org/2000/svg"
   xmlns:xlink="http://www.w3.org/1999/xlink"
   xmlns:sodipodi="http://sodipodi.sourceforge.net/DTD/sodipodi-0.dtd"
   xmlns:inkscape="http://www.inkscape.org/namespaces/inkscape"
   width="24"
   height="24"
   id="svg3434"
   version="1.1"
   inkscape:version="0.91 r13725"
   sodipodi:docname="device.svgz">
  <defs
     id="defs3436">
    <linearGradient
       id="linearGradient4425">
      <stop
         style="stop-color:#ffffff;stop-opacity:0.33620688;"
         offset="0"
         id="stop4427" />
      <stop
         id="stop4433"
         offset="0.5"
         style="stop-color:#ffffff;stop-opacity:1;" />
      <stop
         style="stop-color:#ffffff;stop-opacity:0.37068966;"
         offset="1"
         id="stop4429" />
    </linearGradient>
    <linearGradient
       id="linearGradient4391">
      <stop
         style="stop-color:#ffffff;stop-opacity:1;"
         offset="0"
         id="stop4393" />
      <stop
         id="stop4401"
         offset="0.70021862"
         style="stop-color:#ffffff;stop-opacity:0.87931037;" />
      <stop
         id="stop4399"
         offset="0.76645595"
         style="stop-color:#ffffff;stop-opacity:0.49803922;" />
      <stop
         style="stop-color:#ffffff;stop-opacity:1;"
         offset="1"
         id="stop4395" />
    </linearGradient>
    <linearGradient
       inkscape:collect="always"
       xlink:href="#linearGradient4425"
       id="linearGradient4431"
       x1="2.53125"
       y1="11.875"
       x2="21.8125"
       y2="11.875"
       gradientUnits="userSpaceOnUse" />
    <linearGradient
       inkscape:collect="always"
       xlink:href="#linearGradient4391"
       id="linearGradient4397"
       x1="1.5625"
       y1="11.5"
       x2="21.969252"
       y2="11.5"
       gradientUnits="userSpaceOnUse" />
    <radialGradient
       inkscape:collect="always"
       xlink:href="#linearGradient4407"
       id="radialGradient4413"
       cx="15.328376"
       cy="18.72982"
       fx="15.328376"
       fy="18.72982"
       r="10.203376"
       gradientTransform="matrix(0.2991245,0,0,0.263759,10.743283,10.434841)"
       gradientUnits="userSpaceOnUse" />
    <linearGradient
       inkscape:collect="always"
       id="linearGradient4407">
      <stop
         style="stop-color:#ffffff;stop-opacity:1;"
         offset="0"
         id="stop4409" />
      <stop
         style="stop-color:#ffffff;stop-opacity:0;"
         offset="1"
         id="stop4411" />
    </linearGradient>
    <radialGradient
       inkscape:collect="always"
       xlink:href="#linearGradient4407"
       id="radialGradient4417"
       gradientUnits="userSpaceOnUse"
       gradientTransform="matrix(0.2991245,0,0,0.263759,10.743283,10.434841)"
       cx="8.6421967"
       cy="-11.837857"
       fx="8.6421967"
       fy="-11.837857"
       r="10.203376" />
  </defs>
  <sodipodi:namedview
     id="base"
     pagecolor="#999999"
     bordercolor="#666666"
     borderopacity="1.0"
     inkscape:pageopacity="1"
     inkscape:pageshadow="2"
     inkscape:zoom="22.627418"
     inkscape:cx="2.5958787"
     inkscape:cy="11.723256"
     inkscape:document-units="px"
     inkscape:current-layer="device-notifier"
     showgrid="true"
     inkscape:snap-global="true"
     inkscape:window-width="1920"
     inkscape:window-height="1046"
     inkscape:window-x="0"
     inkscape:window-y="34"
     inkscape:window-maximized="1">
    <inkscape:grid
       type="xygrid"
       id="grid3564"
       empspacing="5"
       visible="true"
       enabled="true"
       snapvisiblegridlinesonly="true" />
  </sodipodi:namedview>
  <metadata
     id="metadata3439">
    <rdf:RDF>
      <cc:Work
         rdf:about="">
        <dc:format>image/svg+xml</dc:format>
        <dc:type
           rdf:resource="http://purl.org/dc/dcmitype/StillImage" />
        <dc:title></dc:title>
      </cc:Work>
    </rdf:RDF>
  </metadata>
  <g
     inkscape:label="Camada 1"
     inkscape:groupmode="layer"
     id="device-notifier"
     transform="translate(0,-1028.3622)">
    <g
       style="display:inline"
       id="test"
       transform="translate(0,1028.3622)">
      <rect
         y="0"
         x="0"
         height="24"
         width="24"
         id="rect16227"
         style="fill:#ffffff;fill-opacity:0;stroke:none" />
      <g
         transform="matrix(0.97913769,0,0,1.008596,0.47983317,-1037.1791)"
         id="g4447">
        <path
           inkscape:connector-curvature="0"
           id="path3597"
           transform="translate(0,1028.3622)"
           d="m 12,0.96875 c -4.6576599,0 -8.6366332,2.9393 -10.1875,7.0625 a 1.0268884,1.0268884 0 0 0 0.0625,0.875 c -0.8051378,0.6028673 -1.34396679,1.556499 -1.34375,2.625 -1.969e-4,0.970464 0.44098964,1.839782 1.125,2.4375 a 1.0268884,1.0268884 0 0 0 -0.125,0.84375 C 2.8117406,19.4002 7.011022,22.78125 12,22.78125 c 5.675614,0 10.350129,-4.386 10.84375,-9.9375 a 1.0268884,1.0268884 0 0 0 -0.125,-0.625 c 0.08315,-0.120083 0.187443,-0.281122 0.1875,-0.28125 8.3e-5,-1.87e-4 0.09376,-0.437269 0.09375,-0.4375 -9e-6,-2.31e-4 -0.0624,-0.312225 -0.0625,-0.3125 -1.01e-4,-2.75e-4 -0.09356,-0.187182 -0.09375,-0.1875 -3.83e-4,-6.36e-4 -0.093,-0.121455 -0.125,-0.15625 -0.032,-0.0348 -0.04244,-0.07589 -0.0625,-0.09375 -0.03068,-0.02731 -0.04076,-0.01924 -0.0625,-0.03125 a 1.0268884,1.0268884 0 0 0 0.125,-0.65625 C 21.849873,4.9173 17.381687,0.96875 12,0.96875 Z M 12,2 c 4.882711,0 8.931882,3.5592159 9.71875,8.21875 -0.235746,-0.12254 -0.477991,-0.2374183 -0.75,-0.375 C 20.76343,9.7398995 20.751964,9.7232712 20.5625,9.625 19.560948,5.8212722 16.118225,3 12,3 8.3852219,3 5.2586808,5.1492897 3.875,8.25 c -0.03146,-0.00107 -0.061874,0 -0.09375,0 -0.3477775,0 -0.6862488,0.053096 -1,0.15625 C 4.1860335,4.6712732 7.775153,2 12,2 Z m 0,2.03125 c 3.326743,0 6.139422,2.055729 7.28125,4.96875 a 1.0307635,1.0307635 0 0 0 -1.3125,0.96875 l -4.3125,0 c 1.28599,-0.091404 2.375266,-1.108003 2.375,-2.4375 C 16.031528,6.1408091 14.890163,5 13.5,5 12.726947,5 12.113462,5.4163065 11.65625,5.96875 l -0.28125,0 C 10.715005,5.96875 10.223515,6.2447393 9.8125,6.5 9.4014847,6.7552607 9.0728013,7.0141711 8.84375,7.21875 8.3559107,7.6544705 7.9603846,8.1610247 7.5625,8.59375 7.1022254,9.09439 6.6581162,9.3206318 6.21875,9.5625 5.8543323,9.1069096 5.3965756,8.7331958 4.875,8.5 6.128902,5.8453164 8.8514757,4.03125 12,4.03125 Z m 1.5,2 c 0.819277,0 1.500164,0.6807 1.5,1.5 C 15.000164,8.35045 14.319277,9 13.5,9 12.850602,9 12.294625,8.5810581 12.09375,8 L 11.6875,8 C 11.088334,8 10.656549,8.28645 10.3125,8.59375 9.9684499,8.90105 9.490967,9.4714 9.0625,9.9375 8.7369706,10.291544 8.3359771,10.659677 7.875,11 L 19,11 19,10 c 0,0 3.013861,1.49475 2.96875,1.53125 C 21.92364,11.56805 19,13 19,13 l 0,-1 -8.59375,0 c 0.199243,0.140875 0.381517,0.30883 0.53125,0.46875 0.763173,0.815 1.442526,1.88595 2.34375,2.40625 0.190733,0.1105 0.579334,0.125 0.75,0.125 l 0,-1 2.96875,0 0,1 0,1 0,0.96875 -2.96875,0 0,-0.96875 C 13.687966,16 13.240877,15.9577 12.96875,15.8125 11.783242,15.1798 11.002907,13.81775 10.3125,13.03125 9.623179,12.24605 8.7439926,12 7.53125,12 l -1.5625,0 c -0.2186048,1.001538 -1.1203545,1.75 -2.1875,1.75 -1.2312067,0 -2.2189998,-0.98755 -2.21875,-2.21875 -2.498e-4,-1.2312 0.9875433,-2.25 2.21875,-2.25 1.0307224,0 1.9012707,0.706048 2.15625,1.65625 C 6.8961478,10.707703 7.6356378,10.017472 8.3125,9.28125 8.7285671,8.82875 9.121135,8.3663 9.53125,8 9.941368,7.6337 10.728167,7 11.375,7 l 0.75,0 C 12.335708,6.4374016 12.863856,6.03125 13.5,6.03125 Z M 11.65625,9.0625 c 0.422074,0.504087 0.968474,0.8495657 1.65625,0.90625 l -2.875,0 C 10.633496,9.7529733 10.893336,9.4702709 11,9.375 11.247566,9.1538774 11.411558,9.0727038 11.65625,9.0625 Z M 21.8125,12.75 c -0.447431,5.032058 -4.664493,9 -9.8125,9 -4.5258588,0 -8.3085178,-3.062023 -9.46875,-7.21875 0.3424564,0.145907 0.7050449,0.231134 1.09375,0.25 C 4.8310216,18.250746 8.1197297,20.75 12,20.75 c 4.409132,0 8.059676,-3.223692 8.75,-7.4375 0.09283,-0.04558 0.09292,-0.04719 0.1875,-0.09375 0.323375,-0.15919 0.613518,-0.33197 0.875,-0.46875 z m -15.34375,0.28125 1.0625,0 c 1.0733374,0 1.5269019,0.148598 2,0.6875 0.555223,0.6325 1.375675,2.166462 2.9375,3 0.207285,0.110602 0.347052,0.04807 0.53125,0.09375 l 0,0.15625 A 1.0307635,1.0307635 0 0 0 14.03125,18 l 2.875,0 C 15.563823,19.070834 13.856181,19.71875 12,19.71875 c -3.3637586,0 -6.1915065,-2.131391 -7.3125,-5.09375 0.7606617,-0.27247 1.3689062,-0.87348 1.78125,-1.59375 z m 6.4375,0 0.78125,0 A 1.0307635,1.0307635 0 0 0 13.21875,13.375 c -0.09611,-0.0947 -0.209997,-0.230249 -0.3125,-0.34375 z m 4.46875,0 0.59375,0 a 1.0307635,1.0307635 0 0 0 1.5,0.90625 c 0,0 0.114774,-0.05752 0.125,-0.0625 -0.296257,1.130204 -0.835227,2.161458 -1.5625,3.03125 l 0,-0.90625 0,-1 0,-1 A 1.0307635,1.0307635 0 0 0 17.375,13.03125 Z"
           style="fill:#000000;fill-opacity:0.39215687;fill-rule:nonzero;stroke:none" />
        <path
           inkscape:connector-curvature="0"
           transform="translate(0,1028.3622)"
           id="path3371"
           d="M 12,2 C 7.775153,2 4.1860335,4.6712732 2.78125,8.40625 3.0950012,8.3030961 3.4334725,8.25 3.78125,8.25 3.813126,8.25 3.84354,8.24893 3.875,8.25 5.2586808,5.1492897 8.3852219,3 12,3 c 4.118225,0 7.560948,2.8212722 8.5625,6.625 0.189464,0.098271 0.20093,0.1148995 0.40625,0.21875 0.272009,0.1375817 0.514254,0.25246 0.75,0.375 C 20.931882,5.5592159 16.882711,2 12,2 Z m 9.8125,10.75 c -0.261482,0.13678 -0.551625,0.30956 -0.875,0.46875 C 20.84292,13.26531 20.84283,13.26692 20.75,13.3125 20.059676,17.526308 16.409132,20.75 12,20.75 8.1197297,20.75 4.8310216,18.250746 3.625,14.78125 3.2362949,14.762384 2.8737064,14.677157 2.53125,14.53125 3.6914822,18.687977 7.4741412,21.75 12,21.75 c 5.148007,0 9.365069,-3.967942 9.8125,-9 z"
           style="fill:url(#linearGradient4431);fill-opacity:1;stroke:none" />
        <path
           inkscape:connector-curvature="0"
           id="rect3379"
           transform="translate(0,1028.3622)"
           d="m 13.5,6.03125 c -0.636144,0 -1.164292,0.4061516 -1.375,0.96875 l -0.75,0 C 10.728167,7 9.941368,7.6337 9.53125,8 9.121135,8.3663 8.7285671,8.82875 8.3125,9.28125 7.6356378,10.017472 6.8961478,10.707703 5.9375,10.9375 5.6825207,9.987298 4.8119724,9.28125 3.78125,9.28125 c -1.2312067,0 -2.2189998,1.0188 -2.21875,2.25 -2.498e-4,1.2312 0.9875433,2.21875 2.21875,2.21875 1.0671455,0 1.9688952,-0.748462 2.1875,-1.75 l 1.5625,0 c 1.2127426,0 2.091929,0.24605 2.78125,1.03125 0.690407,0.7865 1.470742,2.14855 2.65625,2.78125 C 13.240877,15.9577 13.687966,16 14.03125,16 l 0,0.96875 2.96875,0 L 17,16 l 0,-1 0,-1 -2.96875,0 0,1 c -0.170666,0 -0.559267,-0.0145 -0.75,-0.125 C 12.380026,14.3547 11.700673,13.28375 10.9375,12.46875 10.787767,12.30883 10.605493,12.140875 10.40625,12 L 19,12 l 0,1 c 0,0 2.92364,-1.43195 2.96875,-1.46875 C 22.013861,11.49475 19,10 19,10 l 0,1 -11.125,0 C 8.3359771,10.659677 8.7369706,10.291544 9.0625,9.9375 9.490967,9.4714 9.9684499,8.90105 10.3125,8.59375 10.656549,8.28645 11.088334,8 11.6875,8 l 0.40625,0 c 0.200875,0.5810581 0.756852,1 1.40625,1 0.819277,0 1.500164,-0.64955 1.5,-1.46875 1.64e-4,-0.8193 -0.680723,-1.5 -1.5,-1.5 z"
           style="fill:url(#linearGradient4397);fill-opacity:1;fill-rule:nonzero;stroke:none" />
        <path
           inkscape:connector-curvature="0"
           style="fill:url(#radialGradient4413);fill-opacity:1;fill-rule:nonzero;stroke:none"
           d="m 13.5,6.03125 c -0.636144,0 -1.164292,0.4061516 -1.375,0.96875 l -0.75,0 C 10.728167,7 9.941368,7.6337 9.53125,8 9.121135,8.3663 8.7285671,8.82875 8.3125,9.28125 7.6356378,10.017472 6.8961478,10.707703 5.9375,10.9375 5.6825207,9.987298 4.8119724,9.28125 3.78125,9.28125 c -1.2312067,0 -2.2189998,1.0188 -2.21875,2.25 -2.498e-4,1.2312 0.9875433,2.21875 2.21875,2.21875 1.0671455,0 1.9688952,-0.748462 2.1875,-1.75 l 1.5625,0 c 1.2127426,0 2.091929,0.24605 2.78125,1.03125 0.690407,0.7865 1.470742,2.14855 2.65625,2.78125 C 13.240877,15.9577 13.687966,16 14.03125,16 l 0,0.96875 2.96875,0 L 17,16 l 0,-1 0,-1 -2.96875,0 0,1 c -0.170666,0 -0.559267,-0.0145 -0.75,-0.125 C 12.380026,14.3547 11.700673,13.28375 10.9375,12.46875 10.787767,12.30883 10.605493,12.140875 10.40625,12 L 19,12 l 0,1 c 0,0 2.92364,-1.43195 2.96875,-1.46875 C 22.013861,11.49475 19,10 19,10 l 0,1 -11.125,0 C 8.3359771,10.659677 8.7369706,10.291544 9.0625,9.9375 9.490967,9.4714 9.9684499,8.90105 10.3125,8.59375 10.656549,8.28645 11.088334,8 11.6875,8 l 0.40625,0 c 0.200875,0.5810581 0.756852,1 1.40625,1 0.819277,0 1.500164,-0.64955 1.5,-1.46875 1.64e-4,-0.8193 -0.680723,-1.5 -1.5,-1.5 z"
           transform="translate(0,1028.3622)"
           id="path4403" />
        <path
           inkscape:connector-curvature="0"
           id="path4415"
           transform="translate(0,1028.3622)"
           d="m 13.5,6.03125 c -0.636144,0 -1.164292,0.4061516 -1.375,0.96875 l -0.75,0 C 10.728167,7 9.941368,7.6337 9.53125,8 9.121135,8.3663 8.7285671,8.82875 8.3125,9.28125 7.6356378,10.017472 6.8961478,10.707703 5.9375,10.9375 5.6825207,9.987298 4.8119724,9.28125 3.78125,9.28125 c -1.2312067,0 -2.2189998,1.0188 -2.21875,2.25 -2.498e-4,1.2312 0.9875433,2.21875 2.21875,2.21875 1.0671455,0 1.9688952,-0.748462 2.1875,-1.75 l 1.5625,0 c 1.2127426,0 2.091929,0.24605 2.78125,1.03125 0.690407,0.7865 1.470742,2.14855 2.65625,2.78125 C 13.240877,15.9577 13.687966,16 14.03125,16 l 0,0.96875 2.96875,0 L 17,16 l 0,-1 0,-1 -2.96875,0 0,1 c -0.170666,0 -0.559267,-0.0145 -0.75,-0.125 C 12.380026,14.3547 11.700673,13.28375 10.9375,12.46875 10.787767,12.30883 10.605493,12.140875 10.40625,12 L 19,12 l 0,1 c 0,0 2.92364,-1.43195 2.96875,-1.46875 C 22.013861,11.49475 19,10 19,10 l 0,1 -11.125,0 C 8.3359771,10.659677 8.7369706,10.291544 9.0625,9.9375 9.490967,9.4714 9.9684499,8.90105 10.3125,8.59375 10.656549,8.28645 11.088334,8 11.6875,8 l 0.40625,0 c 0.200875,0.5810581 0.756852,1 1.40625,1 0.819277,0 1.500164,-0.64955 1.5,-1.46875 1.64e-4,-0.8193 -0.680723,-1.5 -1.5,-1.5 z"
           style="fill:url(#radialGradient4417);fill-opacity:1;fill-rule:nonzero;stroke:none" />
        <path
           inkscape:connector-curvature="0"
           style="fill:#ffffff;fill-opacity:1;fill-rule:nonzero;stroke:none"
           d="m 13.5,6.03125 c -0.636144,0 -1.164292,0.4061516 -1.375,0.96875 l -0.75,0 C 10.728167,7 9.941368,7.6337 9.53125,8 9.121135,8.3663 8.7285671,8.82875 8.3125,9.28125 7.6356378,10.017472 6.8961478,10.707703 5.9375,10.9375 5.6825207,9.987298 4.8119724,9.28125 3.78125,9.28125 c -1.2312067,0 -2.2189998,1.0188 -2.21875,2.25 -2.498e-4,1.2312 0.9875433,2.21875 2.21875,2.21875 1.0671455,0 1.9688952,-0.748462 2.1875,-1.75 l 1.5625,0 c 1.2127426,0 2.091929,0.24605 2.78125,1.03125 0.690407,0.7865 1.470742,2.14855 2.65625,2.78125 C 13.240877,15.9577 13.687966,16 14.03125,16 l 0,0.96875 2.96875,0 L 17,16 l 0,-1 0,-1 -2.96875,0 0,1 c -0.170666,0 -0.559267,-0.0145 -0.75,-0.125 C 12.380026,14.3547 11.700673,13.28375 10.9375,12.46875 10.787767,12.30883 10.605493,12.140875 10.40625,12 L 19,12 l 0,1 c 0,0 2.92364,-1.43195 2.96875,-1.46875 C 22.013861,11.49475 19,10 19,10 l 0,1 -11.125,0 C 8.3359771,10.659677 8.7369706,10.291544 9.0625,9.9375 9.490967,9.4714 9.9684499,8.90105 10.3125,8.59375 10.656549,8.28645 11.088334,8 11.6875,8 l 0.40625,0 c 0.200875,0.5810581 0.756852,1 1.40625,1 0.819277,0 1.500164,-0.64955 1.5,-1.46875 1.64e-4,-0.8193 -0.680723,-1.5 -1.5,-1.5 z"
           transform="translate(0,1028.3622)"
           id="path4419" />
      </g>
    </g>
  </g>
</svg>
