<?xml version="1.0" encoding="UTF-8" standalone="no"?>
<!-- Created with Inkscape (http://www.inkscape.org/) -->

<svg
   xmlns:dc="http://purl.org/dc/elements/1.1/"
   xmlns:cc="http://creativecommons.org/ns#"
   xmlns:rdf="http://www.w3.org/1999/02/22-rdf-syntax-ns#"
   xmlns:svg="http://www.w3.org/2000/svg"
   xmlns="http://www.w3.org/2000/svg"
   xmlns:xlink="http://www.w3.org/1999/xlink"
   xmlns:sodipodi="http://sodipodi.sourceforge.net/DTD/sodipodi-0.dtd"
   xmlns:inkscape="http://www.inkscape.org/namespaces/inkscape"
   id="svg14997"
   version="1.1"
   inkscape:version="0.91 r13725"
   width="24"
   height="24"
   sodipodi:docname="kdeconnect.svgz"
   style="display:inline">
  <metadata
     id="metadata15003">
    <rdf:RDF>
      <cc:Work
         rdf:about="">
        <dc:format>image/svg+xml</dc:format>
        <dc:type
           rdf:resource="http://purl.org/dc/dcmitype/StillImage" />
        <dc:title />
      </cc:Work>
    </rdf:RDF>
  </metadata>
  <defs
     id="defs15001">
    <linearGradient
       id="linearGradient4124">
      <stop
         id="stop4126"
         offset="0"
         style="stop-color:#ffffff;stop-opacity:0.78431374;" />
      <stop
         style="stop-color:#ffffff;stop-opacity:0.58823532;"
         offset="0.185378"
         id="stop4128" />
      <stop
         style="stop-color:#ffffff;stop-opacity:0.88489211;"
         offset="0.44680852"
         id="stop4130" />
      <stop
         style="stop-color:#ffffff;stop-opacity:0.78431374;"
         offset="0.76861703"
         id="stop4132" />
      <stop
         id="stop4134"
         offset="1"
         style="stop-color:#ffffff;stop-opacity:0.89928055;" />
    </linearGradient>
    <linearGradient
       id="linearGradient16121">
      <stop
         style="stop-color:#ffffff;stop-opacity:0.15107913;"
         offset="0"
         id="stop16123" />
      <stop
         style="stop-color:#ffffff;stop-opacity:0.77697843;"
         offset="1"
         id="stop16125" />
    </linearGradient>
    <linearGradient
       id="linearGradient16006-3-9">
      <stop
         id="stop16016-1-7"
         offset="0"
         style="stop-color:#ffffff;stop-opacity:0.9285714;" />
      <stop
         id="stop16014-1-2"
         offset="0.5"
         style="stop-color:#ffffff;stop-opacity:0.58823532;" />
      <stop
         style="stop-color:#ffffff;stop-opacity:0.91208792;"
         offset="1"
         id="stop3998" />
    </linearGradient>
    <linearGradient
       inkscape:collect="always"
       xlink:href="#linearGradient16121"
       id="linearGradient4264"
       x1="13"
       y1="0"
       x2="13"
       y2="22"
       gradientUnits="userSpaceOnUse"
       gradientTransform="matrix(1,0,0,-1,0,24)" />
    <linearGradient
       inkscape:collect="always"
       xlink:href="#linearGradient16006-3-9"
       id="linearGradient4287"
       x1="12"
       y1="22"
       x2="12"
       y2="20"
       gradientUnits="userSpaceOnUse" />
    <linearGradient
       inkscape:collect="always"
       xlink:href="#linearGradient4124"
       id="linearGradient4303"
       x1="12"
       y1="18"
       x2="12"
       y2="3"
       gradientUnits="userSpaceOnUse" />
    <linearGradient
       id="linearGradient4082-8">
      <stop
         style="stop-color:#282828;stop-opacity:0.60217983;"
         offset="0"
         id="stop4084-8" />
      <stop
         id="stop3846"
         offset="0.64731497"
         style="stop-color:#1e1e1e;stop-opacity:0.78610355;" />
      <stop
         style="stop-color:#141414;stop-opacity:0.68627453;"
         offset="1"
         id="stop4090-8" />
    </linearGradient>
    <linearGradient
       inkscape:collect="always"
       xlink:href="#linearGradient4082-8"
       id="linearGradient4183"
       x1="13"
       y1="12"
       x2="13"
       y2="3"
       gradientUnits="userSpaceOnUse" />
    <linearGradient
       inkscape:collect="always"
       xlink:href="#linearGradient4082-8"
       id="linearGradient4191"
       x1="11"
       y1="18"
       x2="11"
       y2="9"
       gradientUnits="userSpaceOnUse" />
  </defs>
  <sodipodi:namedview
     pagecolor="#c4cbff"
     bordercolor="#666666"
     borderopacity="0.15294118"
     objecttolerance="10"
     gridtolerance="10"
     guidetolerance="10"
     inkscape:pageopacity="1"
     inkscape:pageshadow="2"
     inkscape:window-width="1920"
     inkscape:window-height="917"
     id="namedview14999"
     showgrid="true"
     inkscape:showpageshadow="true"
     inkscape:snap-bbox="true"
     inkscape:zoom="8"
     inkscape:cx="-27.332491"
     inkscape:cy="13.71027"
     inkscape:window-x="0"
     inkscape:window-y="0"
     inkscape:window-maximized="1"
     inkscape:current-layer="layer3"
     showguides="true"
     inkscape:guide-bbox="true"
     borderlayer="true"
     showborder="true"
     inkscape:object-nodes="true">
    <inkscape:grid
       type="xygrid"
       id="grid15007"
       empspacing="4"
       visible="true"
       enabled="true"
       snapvisiblegridlinesonly="true"
       dotted="true" />
  </sodipodi:namedview>
  <g
     inkscape:groupmode="layer"
     id="layer3"
     inkscape:label="Icon"
     style="display:inline">
    <g
       id="kdeconnect">
      <rect
         y="0"
         x="0"
         height="24"
         width="24"
         id="rect11043"
         style="fill:none;stroke:none" />
      <rect
         style="fill:url(#linearGradient4303);fill-opacity:1;stroke:none"
         id="rect4295"
         width="10"
         height="15"
         x="7"
         y="3" />
      <path
         style="opacity:1;fill:url(#linearGradient4183);fill-opacity:1;stroke:none;stroke-width:0.1;stroke-linecap:square;stroke-linejoin:miter;stroke-miterlimit:4;stroke-dasharray:none;stroke-dashoffset:0;stroke-opacity:1"
         d="m 12.5,3.5 -0.277344,1.1074219 c -0.252122,0.0672 -0.494401,0.166996 -0.720703,0.296875 L 10.525391,4.3183594 9.8183594,5.0253906 10.404297,6.0019531 c -0.131391,0.226716 -0.232511,0.4696683 -0.300781,0.7226563 L 9,7 9,8 10.107422,8.2773438 c 0.0672,0.2521222 0.166996,0.4944012 0.296875,0.7207032 l -0.5859376,0.976562 0.7070316,0.707032 0.976562,-0.585938 c 0.226716,0.131391 0.469668,0.232511 0.722656,0.300781 L 12.5,11.5 l 1,0 0.277344,-1.107422 c 0.252122,-0.0672 0.494401,-0.166996 0.720703,-0.296875 l 0.976562,0.585938 0.707032,-0.707032 -0.585938,-0.976562 C 15.727094,8.771331 15.828214,8.528379 15.896484,8.2753906 L 17,8 17,7 15.892578,6.7226562 C 15.825378,6.4705343 15.725582,6.2282551 15.595703,6.0019531 L 16.181641,5.0253906 15.474609,4.3183594 14.498047,4.9042969 C 14.271331,4.7729059 14.028379,4.6717856 13.775391,4.6035156 L 13.5,3.5 l -1,0 z m 0.597656,2.0019531 A 2.0067127,2 0 0 1 15,7.2695312 L 14.998,7.7519531 A 2.0067127,2 0 0 1 12.875,9.496094 2.0067127,2 0 0 1 11,7.4882812 a 2.0067127,2 0 0 1 1.896484,-1.984375 2.0067127,2 0 0 1 0.201172,-0.00195 z"
         id="rect4403"
         inkscape:connector-curvature="0" />
      <path
         inkscape:connector-curvature="0"
         style="fill:#000000;fill-opacity:0.39215686;fill-rule:evenodd;stroke:none;stroke-width:1px;stroke-linecap:butt;stroke-linejoin:miter;stroke-opacity:1"
         d="M 6,23 A 1,1 0 0 1 5,22 L 5,2 A 1,1 0 0 1 6,1 l 12,0 a 1,1 0 0 1 1,1 l 0,20 a 1,1 0 0 1 -1,1 L 6,23 Z m 6,-1 a 1,1 0 0 0 1,-1 1,1 0 0 0 -1,-1 1,1 0 0 0 -1,1 1,1 0 0 0 1,1 z M 6,19 18,19 18,2 6,2 6,19 Z"
         id="rect4171" />
      <path
         style="fill:url(#linearGradient4264);fill-opacity:1;stroke:none"
         d="M 6,19 6,2 18,2 18,19 Z M 7,18 17,18 17,3 7,3 Z"
         id="rect4253"
         inkscape:connector-curvature="0"
         sodipodi:nodetypes="cccccccccc" />
      <path
         style="fill:url(#linearGradient4287);fill-opacity:1;stroke:none"
         id="path4279"
         sodipodi:type="arc"
         sodipodi:cx="12"
         sodipodi:cy="21"
         sodipodi:rx="1"
         sodipodi:ry="1"
         sodipodi:start="0"
         sodipodi:end="6.2021528"
         d="m 13,21 a 1,1 0 0 1 -0.979743,0.999795 1,1 0 0 1 -1.019436,-0.95929 1,1 0 0 1 0.938442,-1.038659 1,1 0 0 1 1.057456,0.91721 L 12,21 Z" />
      <path
         inkscape:connector-curvature="0"
         style="display:inline;opacity:1;fill:url(#linearGradient4191);fill-opacity:1;stroke:none;stroke-width:0.1;stroke-linecap:square;stroke-linejoin:miter;stroke-miterlimit:4;stroke-dasharray:none;stroke-dashoffset:0;stroke-opacity:1"
         d="m 10.5,9.5 -0.277344,1.107422 c -0.252122,0.0672 -0.494401,0.166996 -0.720703,0.296875 l -0.976562,-0.585938 -0.7070316,0.707032 0.5859375,0.976562 c -0.131391,0.226716 -0.2325113,0.469668 -0.3007813,0.722656 L 7,13 l 0,1 1.1074219,0.277344 c 0.0672,0.252122 0.166996,0.494401 0.296875,0.720703 l -0.5859375,0.976562 0.7070316,0.707032 0.976562,-0.585938 c 0.226716,0.131391 0.469668,0.232511 0.722656,0.300781 L 10.5,17.5 l 1,0 0.277344,-1.107422 c 0.252122,-0.0672 0.494401,-0.166996 0.720703,-0.296875 l 0.976562,0.585938 0.707032,-0.707032 -0.585938,-0.976562 c 0.131391,-0.226716 0.232511,-0.469668 0.300781,-0.722656 L 15,14 15,13 13.892578,12.722656 c -0.0672,-0.252122 -0.166996,-0.494401 -0.296875,-0.720703 l 0.585938,-0.976562 -0.707032,-0.707032 -0.976562,0.585938 C 12.271331,10.772906 12.028379,10.671786 11.775391,10.603516 L 11.5,9.5 l -1,0 z m 0.597656,2.001953 A 2.0067127,2 0 0 1 13,13.269531 l -0.002,0.482422 A 2.0067127,2 0 0 1 10.875,15.496094 2.0067127,2 0 0 1 9,13.488281 a 2.0067127,2 0 0 1 1.896484,-1.984375 2.0067127,2 0 0 1 0.201172,-0.002 z"
         id="rect4403-5" />
    </g>
  </g>
</svg>
