<?xml version="1.0" encoding="UTF-8" standalone="no"?>
<!-- Created with Inkscape (http://www.inkscape.org/) -->

<svg
   xmlns:dc="http://purl.org/dc/elements/1.1/"
   xmlns:cc="http://creativecommons.org/ns#"
   xmlns:rdf="http://www.w3.org/1999/02/22-rdf-syntax-ns#"
   xmlns:svg="http://www.w3.org/2000/svg"
   xmlns="http://www.w3.org/2000/svg"
   xmlns:xlink="http://www.w3.org/1999/xlink"
   xmlns:sodipodi="http://sodipodi.sourceforge.net/DTD/sodipodi-0.dtd"
   xmlns:inkscape="http://www.inkscape.org/namespaces/inkscape"
   id="svg14997"
   version="1.1"
   inkscape:version="0.91 r13725"
   width="24"
   height="24"
   sodipodi:docname="kget.svgz"
   style="display:inline">
  <metadata
     id="metadata15003">
    <rdf:RDF>
      <cc:Work
         rdf:about="">
        <dc:format>image/svg+xml</dc:format>
        <dc:type
           rdf:resource="http://purl.org/dc/dcmitype/StillImage" />
        <dc:title></dc:title>
      </cc:Work>
    </rdf:RDF>
  </metadata>
  <defs
     id="defs15001">
    <linearGradient
       id="linearGradient4124">
      <stop
         id="stop4126"
         offset="0"
         style="stop-color:#ffffff;stop-opacity:0.78431374;" />
      <stop
         style="stop-color:#ffffff;stop-opacity:0.58823532;"
         offset="0.185378"
         id="stop4128" />
      <stop
         style="stop-color:#ffffff;stop-opacity:0.88489211;"
         offset="0.44680852"
         id="stop4130" />
      <stop
         style="stop-color:#ffffff;stop-opacity:0.78431374;"
         offset="0.76861703"
         id="stop4132" />
      <stop
         id="stop4134"
         offset="1"
         style="stop-color:#ffffff;stop-opacity:0.89928055;" />
    </linearGradient>
    <linearGradient
       id="linearGradient4000">
      <stop
         id="stop4002"
         offset="0"
         style="stop-color:#ffffff;stop-opacity:0.60762942;" />
      <stop
         id="stop4010"
         offset="1"
         style="stop-color:#ffffff;stop-opacity:0.29411766;" />
    </linearGradient>
    <linearGradient
       id="linearGradient16121">
      <stop
         style="stop-color:#ffffff;stop-opacity:0.15107913;"
         offset="0"
         id="stop16123" />
      <stop
         style="stop-color:#ffffff;stop-opacity:0.77697843;"
         offset="1"
         id="stop16125" />
    </linearGradient>
    <linearGradient
       id="linearGradient16006-3-9">
      <stop
         id="stop16016-1-7"
         offset="0"
         style="stop-color:#ffffff;stop-opacity:0.9285714;" />
      <stop
         id="stop16014-1-2"
         offset="0.5"
         style="stop-color:#ffffff;stop-opacity:0.58823532;" />
      <stop
         style="stop-color:#ffffff;stop-opacity:0.91208792;"
         offset="1"
         id="stop3998" />
    </linearGradient>
    <linearGradient
       inkscape:collect="always"
       xlink:href="#linearGradient4124"
       id="linearGradient5956"
       x1="14.198953"
       y1="0.86910993"
       x2="19.162304"
       y2="11.581152"
       gradientUnits="userSpaceOnUse" />
    <linearGradient
       inkscape:collect="always"
       xlink:href="#linearGradient16121"
       id="linearGradient6057"
       gradientUnits="userSpaceOnUse"
       x1="14.198953"
       y1="0.86910993"
       x2="14.324608"
       y2="14" />
    <linearGradient
       inkscape:collect="always"
       xlink:href="#linearGradient16006-3-9"
       id="linearGradient3852"
       x1="3"
       y1="18"
       x2="19"
       y2="6"
       gradientUnits="userSpaceOnUse" />
    <linearGradient
       inkscape:collect="always"
       xlink:href="#linearGradient4000"
       id="linearGradient5123"
       gradientUnits="userSpaceOnUse"
       x1="19"
       y1="22"
       x2="19"
       y2="18" />
  </defs>
  <sodipodi:namedview
     pagecolor="#999999"
     bordercolor="#666666"
     borderopacity="0.15294118"
     objecttolerance="10"
     gridtolerance="10"
     guidetolerance="10"
     inkscape:pageopacity="1"
     inkscape:pageshadow="2"
     inkscape:window-width="1920"
     inkscape:window-height="1046"
     id="namedview14999"
     showgrid="false"
     inkscape:showpageshadow="false"
     inkscape:snap-bbox="true"
     inkscape:zoom="32"
     inkscape:cx="12.881078"
     inkscape:cy="11.483638"
     inkscape:window-x="0"
     inkscape:window-y="34"
     inkscape:window-maximized="1"
     inkscape:current-layer="layer3"
     showguides="true"
     inkscape:guide-bbox="true">
    <inkscape:grid
       type="xygrid"
       id="grid15007"
       empspacing="4"
       visible="true"
       enabled="true"
       snapvisiblegridlinesonly="true"
       dotted="true" />
  </sodipodi:namedview>
  <g
     inkscape:groupmode="layer"
     id="layer3"
     inkscape:label="Icon"
     style="display:inline">
    <g
       id="kget">
      <path
         style="fill:#000000;fill-opacity:0.39215686;stroke:none;display:inline"
         d="M 8.8125,1.03125 A 0.97391938,0.97391938 0 0 0 8.03125,2 l 0,3.03125 -3.03125,0 a 0.97391938,0.97391938 0 0 0 -0.96875,0.8125 l -2,12 a 0.97391938,0.97391938 0 0 0 0,0.15625 l 0,3 a 0.97391938,0.97391938 0 0 0 0.28125,0.6875 l 1,1 A 0.97391938,0.97391938 0 0 0 4,22.96875 l 16,0 a 0.97391938,0.97391938 0 0 0 0.6875,-0.28125 l 1,-1 A 0.97391938,0.97391938 0 0 0 21.96875,21 l 0,-3 a 0.97391938,0.97391938 0 0 0 0,-0.15625 l -2,-12 A 0.97391938,0.97391938 0 0 0 19,5.03125 l -3.03125,0 0,-3.03125 A 0.97391938,0.97391938 0 0 0 15,1.03125 l -6,0 a 0.97391938,0.97391938 0 0 0 -0.1875,0 z M 9,2 l 6,0 0,4 4,0 2,12 0,3 -1,1 L 4,22 3,21 3,18 5,6 9,6 9,2 z"
         id="path5204"
         inkscape:connector-curvature="0" />
      <path
         style="fill:url(#linearGradient5123);fill-opacity:1;stroke:none;display:inline"
         d="m 3,18 0,3 1,1 16,0 1,-1 0,-3 z"
         id="path4554"
         inkscape:connector-curvature="0" />
      <path
         style="fill:url(#linearGradient3852);fill-opacity:1;stroke:none"
         d="M 5,6 3,18 21,18 19,6 15,6 15,8 18,8 12,14 6,8 9,8 9,6 5,6 z"
         id="path3059"
         inkscape:connector-curvature="0" />
      <rect
         y="0"
         x="0"
         height="24"
         width="24"
         id="rect11043"
         style="fill:none;stroke:none" />
      <rect
         style="fill:#000000;fill-opacity:0.39215687;stroke:none"
         id="rect6061"
         width="18"
         height="1"
         x="3"
         y="18" />
      <path
         style="font-size:medium;font-style:normal;font-variant:normal;font-weight:normal;font-stretch:normal;text-indent:0;text-align:start;text-decoration:none;line-height:normal;letter-spacing:normal;word-spacing:normal;text-transform:none;direction:ltr;block-progression:tb;writing-mode:lr-tb;text-anchor:start;baseline-shift:baseline;color:#000000;fill:#000000;fill-opacity:0.19607843;stroke:none;stroke-width:1;marker:none;visibility:visible;display:inline;overflow:visible;enable-background:accumulate;font-family:Sans;-inkscape-font-specification:Sans"
         d="m 7.21875,10.59375 c -0.057442,0.02741 -0.1316278,0.03407 -0.1875,0.0625 -1.3024003,0.662764 -2.21875,1.661248 -2.21875,2.875 0,1.213752 0.9163497,2.180986 2.21875,2.84375 1.3024002,0.662765 3.044198,1.0625 4.96875,1.0625 1.924553,0 3.66635,-0.399735 4.96875,-1.0625 1.3024,-0.662764 2.21875,-1.629998 2.21875,-2.84375 0,-1.213752 -0.91635,-2.212236 -2.21875,-2.875 -0.05587,-0.02843 -0.129962,-0.03509 -0.1875,-0.0625 L 16.0625,11.3125 c 0.179928,0.07339 0.37022,0.136805 0.53125,0.21875 1.145698,0.583023 1.71875,1.312746 1.71875,2 0,0.687255 -0.573052,1.416978 -1.71875,2 C 15.448052,16.114273 13.81112,16.5 12,16.5 c -1.811119,0 -3.4480519,-0.385727 -4.59375,-0.96875 -1.145698,-0.583022 -1.71875,-1.312745 -1.71875,-2 0,-0.687254 0.573052,-1.416977 1.71875,-2 C 7.5672801,11.44931 7.7585027,11.385886 7.9375,11.3125 L 7.21875,10.59375 z"
         id="path4014"
         inkscape:connector-curvature="0" />
      <path
         style="fill:#000000;fill-opacity:0.39215686;stroke:none;display:inline"
         d="m 8.03125,6 0,1.03125 -2.03125,0 A 0.97391938,0.97391938 0 0 0 5.3125,8.6875 l 6,6 a 0.97391938,0.97391938 0 0 0 1.375,0 l 6,-6 A 0.97391938,0.97391938 0 0 0 18,7.03125 l -2.03125,0 L 15.96875,6 15,6 15,8 18,8 12,14 6,8 9,8 9,6 8.03125,6 z"
         id="path5865"
         inkscape:connector-curvature="0" />
      <path
         style="fill:url(#linearGradient5956);fill-opacity:1;stroke:none"
         d="m 9,2 0,6 -3,0 6,6 6,-6 -3,0 0,-6 z"
         id="path3456"
         inkscape:connector-curvature="0" />
      <path
         style="display:inline;fill:url(#linearGradient6057);fill-opacity:1;stroke:none"
         d="m 9,2 0,6 -3,0 6,6 6,-6 -3,0 0,-6 -6,0 z m 1,1 4,0 0,5 a 1.0053361,1.0053361 0 0 0 1,1 L 15.5625,9 12,12.5625 8.4375,9 9,9 a 1.0053361,1.0053361 0 0 0 1,-1 l 0,-5 z"
         id="path3456-0"
         inkscape:connector-curvature="0" />
      <rect
         style="fill:none;stroke:none"
         id="rect4038"
         width="16"
         height="1"
         x="4"
         y="20" />
    </g>
  </g>
</svg>
