<?xml version="1.0" encoding="UTF-8" standalone="no"?>
<!-- Created with Inkscape (http://www.inkscape.org/) -->

<svg
   xmlns:dc="http://purl.org/dc/elements/1.1/"
   xmlns:cc="http://creativecommons.org/ns#"
   xmlns:rdf="http://www.w3.org/1999/02/22-rdf-syntax-ns#"
   xmlns:svg="http://www.w3.org/2000/svg"
   xmlns="http://www.w3.org/2000/svg"
   xmlns:xlink="http://www.w3.org/1999/xlink"
   xmlns:sodipodi="http://sodipodi.sourceforge.net/DTD/sodipodi-0.dtd"
   xmlns:inkscape="http://www.inkscape.org/namespaces/inkscape"
   width="24"
   height="24"
   id="svg2"
   version="1.1"
   inkscape:version="0.91 r13725"
   sodipodi:docname="klipper.svgz"
   inkscape:export-filename="/mnt/win_d/klipper.png"
   inkscape:export-xdpi="90"
   inkscape:export-ydpi="90">
  <sodipodi:namedview
     id="base"
     pagecolor="#999999"
     bordercolor="#666666"
     borderopacity="1.0"
     inkscape:pageopacity="1"
     inkscape:pageshadow="2"
     inkscape:zoom="31.999999"
     inkscape:cx="2.3994617"
     inkscape:cy="11.732768"
     inkscape:document-units="px"
     inkscape:current-layer="klipper"
     showgrid="true"
     inkscape:window-width="1920"
     inkscape:window-height="1046"
     inkscape:window-x="0"
     inkscape:window-y="34"
     inkscape:window-maximized="1"
     inkscape:snap-grids="false"
     showguides="true"
     inkscape:guide-bbox="true"
     inkscape:snap-bbox="true"
     inkscape:object-paths="true">
    <inkscape:grid
       snapvisiblegridlinesonly="true"
       enabled="true"
       visible="true"
       empspacing="5"
       id="grid2818"
       type="xygrid" />
  </sodipodi:namedview>
  <defs
     id="defs4">
    <linearGradient
       id="linearGradient3961">
      <stop
         style="stop-color:#ffffff;stop-opacity:1;"
         offset="0"
         id="stop3963" />
      <stop
         id="stop3965"
         offset="0.36726895"
         style="stop-color:#ffffff;stop-opacity:0.78431374;" />
      <stop
         style="stop-color:#ffffff;stop-opacity:0.39215687;"
         offset="0.58105558"
         id="stop3967" />
      <stop
         style="stop-color:#ffffff;stop-opacity:1;"
         offset="1"
         id="stop3969" />
    </linearGradient>
    <linearGradient
       inkscape:collect="always"
       xlink:href="#linearGradient3961"
       id="linearGradient4029"
       gradientUnits="userSpaceOnUse"
       gradientTransform="translate(1.5249373,-1.2117)"
       x1="-2.4283907"
       y1="1030.3032"
       x2="7.5120316"
       y2="1030.3032" />
    <linearGradient
       inkscape:collect="always"
       xlink:href="#linearGradient3961"
       id="linearGradient4034"
       gradientUnits="userSpaceOnUse"
       gradientTransform="translate(1.5249369,-1.2075667)"
       x1="-2.4283907"
       y1="1030.3032"
       x2="7.5120316"
       y2="1030.3032" />
  </defs>
  <metadata
     id="metadata7">
    <rdf:RDF>
      <cc:Work
         rdf:about="">
        <dc:format>image/svg+xml</dc:format>
        <dc:type
           rdf:resource="http://purl.org/dc/dcmitype/StillImage" />
        <dc:title></dc:title>
      </cc:Work>
    </rdf:RDF>
  </metadata>
  <g
     transform="translate(8.4852817,-1016.6949)"
     id="klipper"
     inkscape:groupmode="layer"
     inkscape:label="Layer 1">
    <g
       id="g4038">
      <rect
         style="fill:none;stroke:none"
         id="rect2815"
         width="24"
         height="24"
         x="-8.4852819"
         y="1016.6949" />
      <g
         id="g4244"
         transform="matrix(1.1309266,0,0,1.161256,-1.0963173,-166.35517)">
        <path
           id="path2816"
           d="m 0.25392097,1020.5956 -0.02772,0.017 c -0.83977297,0.5983 -1.72346797,1.4887 -1.51766397,2.5898 0.207295,0.9035 0.86522297,1.6334 1.27556497,2.4564 0.798222,1.3808 1.60721503,2.7565 2.41034403,4.1348 -0.35885,0.6155 -0.672958,1.4588 -1.55499303,1.3723 -1.38301597,-0.048 -2.67805497,0.7903 -3.30089297,1.9646 -0.715652,1.2492 -0.684708,3.057 0.563127,3.986 1.042388,0.7916 2.56044597,0.5307 3.518461,-0.2594 1.002098,-0.7274 1.308004,-1.9522 1.796029,-3.0042 0.215084,-0.3865 0.432365,-0.7724 0.650577,-1.1575 0.218213,0.3851 0.434429,0.771 0.649514,1.1575 0.488026,1.052 0.794994,2.2768 1.7970948,3.0042 0.958014,0.7901 2.476072,1.051 3.5184622,0.2594 1.247833,-0.929 1.278781,-2.7368 0.563125,-3.986 -0.6228382,-1.1743 -1.9178782,-2.0117 -3.3008922,-1.9646 -0.881789,0.087 -1.197332,-0.7556 -1.5560588,-1.3712 0.8033588,-1.3788 1.6129478,-2.7546 2.4114118,-4.1359 0.41034,-0.823 1.067199,-1.5529 1.274494,-2.4564 0.205809,-1.1011 -0.676824,-1.9915 -1.516596,-2.5898 l -0.02774,-0.017 c -1.271006,2.13 -2.5426448,4.2592 -3.8128248,6.3897 -1.270176,-2.1305 -2.541818,-4.2597 -3.81282403,-6.3897 z m 0.222906,12.2564 c 0.157408,0 0.318688,0.025 0.482066,0.096 0.33891203,0.2055 0.43437503,0.6323 0.42447803,0.9941 -0.03515,0.939 -0.78954303,1.948 -1.80029303,2.0142 -0.89853897,-0.089 -0.94574197,-1.2152 -0.63564697,-1.8395 0.250813,-0.5888 0.84728197,-1.2446 1.52939597,-1.265 z m 7.17983983,0 c 0.682111,0.021 1.278581,0.6762 1.529397,1.265 0.310092,0.6243 0.262891,1.7515 -0.635652,1.8395 -1.010747,-0.066 -1.765138,-1.0752 -1.800292,-2.0142 -0.0099,-0.3618 0.08451,-0.7886 0.423411,-0.9941 0.16338,-0.071 0.325725,-0.1007 0.483136,-0.096 z"
           style="fill:url(#linearGradient4034);fill-opacity:1;stroke:none"
           inkscape:connector-curvature="0" />
        <path
           style="fill:#000000;fill-opacity:0.39215686;stroke:none"
           d="m 0.1709683,1019.6324 c -0.021206,0.01 -0.042058,0.02 -0.0625,0.031 -0.1585032,0.024 -0.310563,0.09 -0.4375,0.1875 -0.021613,0.015 -0.040742,0.047 -0.0625,0.063 -0.010416,-10e-5 -0.020834,-10e-5 -0.03125,0 l -0.03125,0.031 c -0.4369545,0.321 -0.8867478,0.7241 -1.25,1.25 -0.395089,0.572 -0.6554872,1.3556 -0.5,2.1875 -1.709e-4,0.01 -1.709e-4,0.021 0,0.031 0.2762789,1.2042 1.0057158,2.0097 1.34375,2.6876 0.010173,0.011 0.020594,0.021 0.03125,0.031 0.714266,1.2356 1.4435394,2.4454 2.15625,3.6563 -0.066283,0.1131 -0.1695623,0.2857 -0.21875,0.3437 -0.1151834,0.1358 -0.026593,0.1065 -0.15625,0.094 -0.020826,-7e-4 -0.041674,-7e-4 -0.0625,0 -1.7742195,-0.062 -3.3563052,0.9637 -4.15625,2.4375 -0.00366,0.01 0.00363,0.024 0,0.031 -0.4494395,0.7971 -0.6886164,1.7245 -0.59375,2.6563 0.09593,0.942 0.5460912,1.8908 1.40625,2.5312 1.4746146,1.1198 3.3988264,0.7665 4.65625,-0.25 0.01063,-0.01 0.02072,-0.023 0.03125,-0.031 1.107885,-0.8249 1.490185,-1.9481 1.84375,-2.8438 0.353543,0.8957 0.735835,2.0188 1.84375,2.8438 0.01053,0.01 0.02062,0.023 0.03125,0.031 1.257423,1.0165 3.181634,1.3698 4.6562497,0.25 0.860157,-0.6404 1.310319,-1.5892 1.40625,-2.5312 0.09487,-0.9318 -0.144307,-1.8592 -0.59375,-2.6563 -0.0036,-0.01 0.0037,-0.024 0,-0.031 -0.800038,-1.4739 -2.3827997,-2.498 -4.1562497,-2.4375 -0.02083,-7e-4 -0.04167,-7e-4 -0.0625,0 -0.130411,0.013 -0.0164,0.039 -0.125,-0.094 -0.04638,-0.056 -0.153954,-0.2293 -0.21875,-0.3437 0.710581,-1.2167 1.415562,-2.4289 2.125,-3.6563 0.01066,-0.01 0.02108,-0.021 0.03125,-0.031 0.329401,-0.6607 1.0940517,-1.4629 1.3749997,-2.6876 1.71e-4,-0.01 1.71e-4,-0.021 0,-0.031 0.157091,-0.8405 -0.127657,-1.6495 -0.5312497,-2.2188 -0.370651,-0.5228 -0.816276,-0.9009 -1.25,-1.2187 l -0.03125,-0.031 c -0.02998,-0.023 -0.0613,-0.043 -0.09375,-0.063 -0.421342,-0.3349 -1.126186,-0.2096 -1.40625,0.25 -0.999522,1.6749 -2.001991,3.3538 -3,5.0313 -0.998008,-1.6775 -2.000478,-3.3564 -3,-5.0313 -0.1809006,-0.3099 -0.5487281,-0.5002 -0.90625,-0.4687 z m 0.0625,0.9687 0.03125,0 c 1.271006,2.13 3.8125,6.3751 3.8125,6.3751 l 1.656314,2.8079 -1.310249,-3.388 c 1.15501,-1.9346 2.31085,-3.8584 3.466435,-5.795 l 0.03125,0 c 0.839772,0.5983 1.705809,1.4927 1.5,2.5938 -0.207295,0.9035 -0.87091,1.6457 -1.28125,2.4688 -0.798464,1.3813 -1.602891,2.7462 -2.40625,4.125 0.358727,0.6156 0.680711,1.462 1.5625,1.375 1.383014,-0.047 2.689662,0.7944 3.3124997,1.9687 0.715656,1.2492 0.685333,3.0397 -0.5625,3.9688 -1.0423897,0.7916 -2.5732357,0.5401 -3.5312497,-0.25 -1.002101,-0.7274 -1.324474,-1.9481 -1.8125,-3 -0.215085,-0.3866 -0.625,-1.1563 -0.625,-1.1563 l -1.684092,-2.9104 1.399776,3.4092 c -0.124976,0.2188 -0.249726,0.4378 -0.371934,0.6575 -0.488025,1.0519 -0.810402,2.2726 -1.8125,3 -0.958015,0.7901 -2.457612,1.0416 -3.5,0.25 -1.247835,-0.9291 -1.278152,-2.7196 -0.5625,-3.9688 0.622838,-1.1743 1.898234,-2.0167 3.28125,-1.9687 0.882035,0.086 1.20365,-0.7595 1.5625,-1.375 -0.803129,-1.3784 -1.608028,-2.7443 -2.40625,-4.125 -0.410342,-0.8231 -1.073955,-1.5653 -1.28125,-2.4688 -0.205804,-1.1011 0.691477,-1.9955 1.53125,-2.5938 z m 0.25,12.2501 c -0.682114,0.02 -1.280437,0.6924 -1.53125,1.2812 -0.310095,0.6243 -0.273539,1.7235 0.625,1.8125 1.01075,-0.066 1.77735,-1.061 1.8125,-2 0.0099,-0.3618 -0.098588,-0.7945 -0.4375,-1 -0.163378,-0.071 -0.311342,-0.094 -0.46875,-0.094 z m 7.1875,0 c -0.157411,0 -0.33662,0.023 -0.5,0.094 -0.338901,0.2055 -0.41615,0.6382 -0.40625,1 0.03515,0.939 0.770503,1.934 1.78125,2 0.898543,-0.088 0.935092,-1.1882 0.625,-1.8125 -0.250816,-0.5888 -0.817889,-1.2602 -1.5,-1.2812 z m -7.21875,0.9687 c -0.00645,0.01 0.00173,0.031 0,0.094 -0.008773,0.2344 -0.1312062,0.5609 -0.3125,0.7812 -0.1147191,0.1394 -0.2494393,0.1644 -0.375,0.2188 0.00258,-0.1284 0.00124,-0.2834 0.03125,-0.3438 0.011176,-0.02 0.021602,-0.041 0.03125,-0.063 0.069591,-0.1634 0.2238468,-0.3926 0.375,-0.5312 0.1176798,-0.108 0.1961074,-0.1439 0.25,-0.1563 z"
           id="path3950"
           sodipodi:nodetypes="csssccssssscsssssscsscsscsssssscsssssccsscscccccccccccccccccccccccccccccccssccssccccsscsssc"
           inkscape:connector-curvature="0" />
        <circle
           style="fill:#ffffff;fill-opacity:1;stroke:none"
           id="path3971"
           transform="translate(-8.9051264,1016.9489)"
           cx="12.926796"
           cy="13.282913"
           r="0.6408155" />
        <path
           id="path3994"
           d="m 0.2334683,1020.6011 c -0.213099,0.1519 -0.4253086,0.3115 -0.625,0.5 -0.1989975,0.1852 -0.3794668,0.3758 -0.53125,0.5938 -0.0693982,0.1001 -0.1022697,0.2058 -0.15625,0.3125 -0.016659,0.032 -0.047487,0.061 -0.0625,0.094 -0.036055,0.081 -0.068423,0.166 -0.09375,0.25 -0.0066,0.021 -0.02539,0.041 -0.03125,0.063 -0.023472,0.089 -0.021438,0.189 -0.03125,0.2813 -0.013201,0.1242 -0.014925,0.2446 0,0.375 0.1056721,-0.8563 0.831912,-1.5642 1.53125,-2.0625 l 0.03125,0 c 1.271006,2.13 2.542324,4.2445 3.8125,6.375 0.03849,-0.065 0.08651,-0.123 0.125,-0.1875 l -0.125,-0.2187 c 0,0 -2.541494,-4.2451 -3.8125,-6.3751 l -0.03125,0 z m 7.65625,0 c -1.155585,1.9366 -2.31374,3.8467 -3.46875,5.7813 l 0.09375,0.25 c 1.121932,-1.8786 2.252555,-3.744 3.375,-5.625 l 0.03125,0 c 0.699337,0.4983 1.394577,1.2062 1.5,2.0625 0.01494,-0.1304 0.01234,-0.2508 0,-0.375 -0.00917,-0.092 -0.00877,-0.1925 -0.03125,-0.2813 -0.00817,-0.031 -0.021555,-0.063 -0.03125,-0.094 -0.139771,-0.4574 -0.450774,-0.8715 -0.8125,-1.2188 -0.01076,-0.01 -0.0204,-0.021 -0.03125,-0.031 -0.187818,-0.1769 -0.391834,-0.3249 -0.59375,-0.4688 l -0.03125,0 z m -5.625,9.4063 c -0.05018,0.091 -0.10331,0.189 -0.15625,0.2813 -0.0302,0.053 -0.06178,0.105 -0.09375,0.1562 -0.06635,0.1059 -0.140776,0.1893 -0.21875,0.2813 -0.02505,0.029 -0.03586,0.066 -0.0625,0.094 -0.03645,0.038 -0.08521,0.061 -0.125,0.094 -0.02182,0.018 -0.03956,0.046 -0.0625,0.063 -0.048481,0.034 -0.1022653,0.068 -0.15625,0.094 -0.019523,0.01 -0.042182,0.023 -0.0625,0.031 -0.030817,0.012 -0.061034,0.022 -0.09375,0.031 -0.044219,0.013 -0.077009,0.025 -0.125,0.031 -0.085894,0.012 -0.1820211,0.01 -0.28125,0 -1.037262,-0.036 -2.0012062,0.4261 -2.6875,1.1562 -0.1143823,0.1217 -0.2465671,0.2397 -0.34375,0.375 -0.097183,0.1353 -0.1721452,0.2907 -0.25,0.4375 -0.083244,0.1453 -0.1562554,0.3099 -0.21875,0.4688 -0.00349,0.01 0.00342,0.022 0,0.031 -0.065224,0.1703 -0.1171005,0.3522 -0.15625,0.5313 -0.03915,0.179 -0.082517,0.349 -0.09375,0.5312 -0.00787,0.1308 -0.0072,0.2766 0,0.4063 0.033589,-0.5498 0.2003805,-1.0941 0.46875,-1.5625 0.622838,-1.1743 1.898234,-2.0168 3.28125,-1.9688 0.882035,0.087 1.20365,-0.7595 1.5625,-1.375 -0.03783,-0.065 -0.087146,-0.1226 -0.125,-0.1875 z m 3.59375,0 c -0.03787,0.065 -0.08716,0.1226 -0.125,0.1875 0.358727,0.6156 0.680711,1.462 1.5625,1.375 1.383014,-0.047 2.689662,0.7945 3.3124997,1.9688 0.268371,0.4684 0.403911,1.0127 0.4375,1.5625 0.0094,-0.1696 0.01324,-0.3603 0,-0.5313 -0.01069,-0.1381 -0.03684,-0.2702 -0.0625,-0.4062 -0.007,-0.032 -0.02341,-0.062 -0.03125,-0.094 -0.0096,-0.044 -0.01999,-0.081 -0.03125,-0.125 -0.03214,-0.113 -0.05106,-0.2349 -0.09375,-0.3437 -0.05956,-0.1589 -0.135505,-0.3235 -0.21875,-0.4688 -0.6228377,-1.1743 -1.9294857,-2.0158 -3.3124997,-1.9687 -0.0992,0.01 -0.195369,0.012 -0.28125,0 -0.01121,0 -0.02025,0 -0.03125,0 -0.03473,-0.01 -0.06104,-0.022 -0.09375,-0.031 -0.05557,-0.016 -0.106142,-0.038 -0.15625,-0.063 -0.01296,-0.01 -0.01863,-0.024 -0.03125,-0.031 -0.0629,-0.034 -0.132256,-0.08 -0.1875,-0.125 -0.0398,-0.033 -0.08854,-0.056 -0.125,-0.094 -0.02659,-0.027 -0.0375,-0.064 -0.0625,-0.094 -0.07799,-0.092 -0.152388,-0.1754 -0.21875,-0.2813 -0.02446,-0.039 -0.0391,-0.085 -0.0625,-0.125 -0.06137,-0.1052 -0.130073,-0.2078 -0.1875,-0.3125 z m 0.90625,4.0625 c -0.01275,0.094 -0.0025,0.1908 0,0.2813 0.03515,0.939 0.770503,1.934 1.78125,2 0.673907,-0.066 0.887926,-0.6967 0.8125,-1.2813 -0.0058,0.053 -0.01965,0.1052 -0.03125,0.1563 -0.01265,0.053 -0.01199,0.1068 -0.03125,0.1562 -0.01448,0.04 -0.04357,0.088 -0.0625,0.125 -0.02851,0.052 -0.05617,0.1117 -0.09375,0.1563 -0.0089,0.011 -0.02172,0.02 -0.03125,0.031 -0.06059,0.065 -0.135977,0.1132 -0.21875,0.1563 -0.09573,0.051 -0.213218,0.081 -0.34375,0.094 -0.116099,-0.01 -0.235562,-0.032 -0.34375,-0.063 -0.009,0 -0.02229,0 -0.03125,0 -0.03273,-0.01 -0.06184,-0.019 -0.09375,-0.031 -0.179808,-0.067 -0.349777,-0.162 -0.5,-0.2813 -0.01138,-0.01 -0.02006,-0.022 -0.03125,-0.031 -0.07637,-0.064 -0.151986,-0.144 -0.21875,-0.2188 -0.01504,-0.017 -0.01672,-0.045 -0.03125,-0.063 -0.06352,-0.076 -0.134362,-0.1353 -0.1875,-0.2187 -0.01277,-0.02 -0.01909,-0.043 -0.03125,-0.063 -0.04628,-0.078 -0.0883,-0.1676 -0.125,-0.25 -0.01407,-0.031 -0.01862,-0.062 -0.03125,-0.094 -0.02913,-0.073 -0.07268,-0.1432 -0.09375,-0.2187 -0.0081,-0.029 0.0068,-0.064 0,-0.094 -0.01051,-0.044 -0.02368,-0.08 -0.03125,-0.125 -0.007,-0.041 -0.0269,-0.084 -0.03125,-0.125 z m -5.40625,0.125 c -0.013367,0.077 -0.040323,0.1433 -0.0625,0.2188 -0.021167,0.072 -0.033772,0.1485 -0.0625,0.2187 -0.016167,0.041 -0.04397,0.085 -0.0625,0.125 -0.053185,0.1106 -0.1169417,0.2111 -0.1875,0.3125 -0.044534,0.064 -0.074162,0.1285 -0.125,0.1875 -0.020828,0.025 -0.040622,0.039 -0.0625,0.063 -0.065285,0.07 -0.1449475,0.1581 -0.21875,0.2188 -0.011139,0.01 -0.019926,0.022 -0.03125,0.031 -0.084201,0.066 -0.1564762,0.1051 -0.25,0.1563 -0.019039,0.011 -0.043081,0.021 -0.0625,0.031 -0.020224,0.01 -0.041903,0.022 -0.0625,0.031 -0.082217,0.039 -0.1618917,0.068 -0.25,0.094 -0.1089185,0.031 -0.2276503,0.055 -0.34375,0.063 -0.130531,-0.013 -0.2480208,-0.043 -0.34375,-0.094 -0.0901636,-0.048 -0.1567376,-0.1136 -0.21875,-0.1875 -0.0666569,-0.08 -0.1189546,-0.1809 -0.15625,-0.2813 -0.017962,-0.048 -0.050785,-0.1047 -0.0625,-0.1562 -0.025011,0.5351 0.1675158,1.0641 0.78125,1.125 1.01075,-0.066 1.77735,-1.061 1.8125,-2 0.00139,-0.051 -0.022029,-0.1033 -0.03125,-0.1563 z"
           style="fill:url(#linearGradient4029);fill-opacity:1;stroke:none"
           inkscape:connector-curvature="0" />
        <path
           style="fill:#000000;fill-opacity:0.39215686;stroke:none"
           d="m 3.4209637,1030.4017 c -0.013406,0.052 -0.03125,0.1005 -0.03125,0.1563 0,0.3539 0.271089,0.6562 0.6250047,0.6562 0.3539156,0 0.6562549,-0.3023 0.6562549,-0.6562 0,-0.055 -0.018378,-0.1056 -0.03125,-0.1563 -0.059754,0.292 -0.3153284,0.5 -0.6250047,0.5 -0.3089953,0 -0.533261,-0.2089 -0.5937545,-0.5 z"
           id="path4017"
           inkscape:connector-curvature="0" />
      </g>
    </g>
  </g>
</svg>
