<?xml version="1.0" encoding="UTF-8" standalone="no"?>
<!-- Created with Inkscape (http://www.inkscape.org/) -->

<svg
   xmlns:dc="http://purl.org/dc/elements/1.1/"
   xmlns:cc="http://creativecommons.org/ns#"
   xmlns:rdf="http://www.w3.org/1999/02/22-rdf-syntax-ns#"
   xmlns:svg="http://www.w3.org/2000/svg"
   xmlns="http://www.w3.org/2000/svg"
   xmlns:xlink="http://www.w3.org/1999/xlink"
   xmlns:sodipodi="http://sodipodi.sourceforge.net/DTD/sodipodi-0.dtd"
   xmlns:inkscape="http://www.inkscape.org/namespaces/inkscape"
   width="24"
   height="24"
   id="svg1307"
   sodipodi:version="0.32"
   inkscape:version="0.91 r13725"
   version="1.0"
   sodipodi:docname="konv_message.svgz">
  <defs
     id="defs1309">
    <linearGradient
       id="linearGradient4082">
      <stop
         style="stop-color:#ffffff;stop-opacity:1;"
         offset="0"
         id="stop4084" />
      <stop
         id="stop4086"
         offset="0.67448568"
         style="stop-color:#e5e5e5;stop-opacity:1;" />
      <stop
         id="stop4088"
         offset="0.67448568"
         style="stop-color:#d3d3d3;stop-opacity:1;" />
      <stop
         style="stop-color:#ffffff;stop-opacity:1;"
         offset="1"
         id="stop4090" />
    </linearGradient>
    <linearGradient
       id="linearGradient3952">
      <stop
         style="stop-color:#ffad9c;stop-opacity:0.91366905;"
         offset="0"
         id="stop3954" />
      <stop
         id="stop3960"
         offset="0.5"
         style="stop-color:#ff4923;stop-opacity:0.9137255;" />
      <stop
         style="stop-color:#bf2000;stop-opacity:0.9137255;"
         offset="0.75"
         id="stop3962" />
      <stop
         style="stop-color:#ff6b4b;stop-opacity:0.9137255;"
         offset="1"
         id="stop3956" />
    </linearGradient>
    <radialGradient
       inkscape:collect="always"
       xlink:href="#linearGradient3952"
       id="radialGradient3958"
       cx="8.9466743"
       cy="110.68961"
       fx="8.9466743"
       fy="110.68961"
       r="10"
       gradientTransform="matrix(1.643958,0,0,1.1982826,-5.7612829,-21.313401)"
       gradientUnits="userSpaceOnUse" />
    <radialGradient
       inkscape:collect="always"
       xlink:href="#linearGradient4082"
       id="radialGradient4080"
       gradientUnits="userSpaceOnUse"
       gradientTransform="matrix(0.40421546,0.01319,-2.674854e-4,0.20438145,-9.6836604,104.22893)"
       cx="53.058922"
       cy="26.622444"
       fx="53.058922"
       fy="26.622444"
       r="39.596578" />
    <linearGradient
       id="linearGradient3952-9">
      <stop
         style="stop-color:#ffffff;stop-opacity:0.63309354;"
         offset="0"
         id="stop3954-7" />
      <stop
         id="stop3960-3"
         offset="0.5"
         style="stop-color:#ffffff;stop-opacity:0.16546762;" />
      <stop
         style="stop-color:#ffffff;stop-opacity:0.1294964;"
         offset="0.75"
         id="stop3962-6" />
      <stop
         style="stop-color:#ffffff;stop-opacity:0.33812949;"
         offset="1"
         id="stop3956-1" />
    </linearGradient>
    <radialGradient
       r="10"
       fy="110.68961"
       fx="8.9466743"
       cy="110.68961"
       cx="8.9466743"
       gradientTransform="matrix(1.643958,0,0,1.1982826,-5.7612829,-125.3134)"
       gradientUnits="userSpaceOnUse"
       id="radialGradient3054"
       xlink:href="#linearGradient3952-9"
       inkscape:collect="always" />
    <linearGradient
       id="linearGradient4082-7">
      <stop
         style="stop-color:#000000;stop-opacity:0.2086331;"
         offset="0"
         id="stop4084-0" />
      <stop
         id="stop4086-8"
         offset="0.60124201"
         style="stop-color:#000000;stop-opacity:0.07194245;" />
      <stop
         id="stop4088-6"
         offset="0.67448568"
         style="stop-color:#000000;stop-opacity:0.2086331;" />
      <stop
         style="stop-color:#000000;stop-opacity:0.35251799;"
         offset="1"
         id="stop4090-2" />
    </linearGradient>
    <radialGradient
       inkscape:collect="always"
       xlink:href="#linearGradient4082-7"
       id="radialGradient3961"
       gradientUnits="userSpaceOnUse"
       gradientTransform="matrix(0.40421546,0.01319,-2.674854e-4,0.20438145,-9.6836599,104.22893)"
       cx="53.058922"
       cy="26.622444"
       fx="53.058922"
       fy="26.622444"
       r="39.596577" />
  </defs>
  <sodipodi:namedview
     id="base"
     pagecolor="#999999"
     bordercolor="#666666"
     borderopacity="1.0"
     inkscape:pageopacity="1"
     inkscape:pageshadow="2"
     inkscape:zoom="16"
     inkscape:cx="9.448099"
     inkscape:cy="4.9811619"
     inkscape:current-layer="layer1"
     showgrid="true"
     inkscape:document-units="px"
     inkscape:grid-bbox="true"
     guidetolerance="0.1px"
     showguides="true"
     inkscape:guide-bbox="true"
     inkscape:window-width="1920"
     inkscape:window-height="1046"
     inkscape:window-x="0"
     inkscape:window-y="34"
     inkscape:snap-nodes="false"
     inkscape:snap-bbox="true"
     inkscape:window-maximized="1"
     inkscape:snap-global="true">
    <inkscape:grid
       type="xygrid"
       id="grid3109"
       empspacing="4"
       visible="true"
       enabled="true"
       snapvisiblegridlinesonly="true" />
  </sodipodi:namedview>
  <metadata
     id="metadata1312">
    <rdf:RDF>
      <cc:Work
         rdf:about="">
        <dc:format>image/svg+xml</dc:format>
        <dc:type
           rdf:resource="http://purl.org/dc/dcmitype/StillImage" />
        <cc:license
           rdf:resource="http://creativecommons.org/licenses/GPL/2.0/" />
        <dc:contributor>
          <cc:Agent>
            <dc:title>Oxygen team</dc:title>
          </cc:Agent>
        </dc:contributor>
        <dc:title></dc:title>
      </cc:Work>
      <cc:License
         rdf:about="http://creativecommons.org/licenses/LGPL/2.1/">
        <cc:permits
           rdf:resource="http://web.resource.org/cc/Reproduction" />
        <cc:permits
           rdf:resource="http://web.resource.org/cc/Distribution" />
        <cc:requires
           rdf:resource="http://web.resource.org/cc/Notice" />
        <cc:permits
           rdf:resource="http://web.resource.org/cc/DerivativeWorks" />
        <cc:requires
           rdf:resource="http://web.resource.org/cc/ShareAlike" />
        <cc:requires
           rdf:resource="http://web.resource.org/cc/SourceCode" />
      </cc:License>
    </rdf:RDF>
  </metadata>
  <g
     id="layer1"
     inkscape:label="Layer 1"
     inkscape:groupmode="layer"
     transform="translate(0,-104)">
    <g
       id="konv_message">
      <rect
         transform="translate(0,104)"
         y="0"
         x="0"
         height="24"
         width="24"
         id="rect4094"
         style="opacity:1;fill:#ffffff;stroke:none;fill-opacity:0" />
      <g
         id="g4211"
         transform="matrix(0.99394534,0,0,1.0311488,0.00605466,-2.9666671)">
        <path
           inkscape:connector-curvature="0"
           style="fill:#000000;fill-opacity:0.39215686;fill-rule:nonzero;stroke:none"
           d="m 12.05348,105.6875 c -0.273924,0.0123 -0.5346,0.0303 -0.8125,0.0625 -5.8719318,0.67949 -10.3535026,5.43607 -9.7812503,10.78125 0.1948748,1.82024 1.0704663,3.38475 2.21875,4.71875 -0.409035,0.69845 -0.9218242,1.17504 -1.75,1.28125 a 1.0539464,1.0539464 0 0 0 -0.25,2.03125 c 2.4617232,0.91833 5.0540038,0.41539 6.96875,-0.125 1.4596533,0.41679 3.0299023,0.5632 4.6562503,0.375 5.871933,-0.67948 10.353503,-5.43608 9.78125,-10.78125 -0.464905,-4.34246 -4.145814,-7.54032 -8.625,-8.21875 -0.767423,-0.11624 -1.584477,-0.16185 -2.40625,-0.125 z m 0.0625,1.03125 c 0.747849,-0.0362 1.481133,0.018 2.1875,0.125 4.08123,0.61815 7.310478,3.49902 7.71875,7.3125 0.502486,4.69351 -3.464734,9.00256 -8.84375,9.625 -1.597912,0.18491 -3.136313,0.0353 -4.5312503,-0.40625 -1.8392796,0.54289 -4.3844408,1.01167 -6.59375,0.1875 1.3975074,-0.17922 2.340802,-1.0885 2.875,-2.34375 -1.3231287,-1.26814 -2.2061561,-2.94351 -2.40625,-4.8125 -0.5024858,-4.69352 3.4647319,-9.00255 8.8437503,-9.625 0.252142,-0.0292 0.500717,-0.0504 0.75,-0.0625 z"
           id="path4034" />
        <path
           style="fill:url(#radialGradient3958);fill-opacity:1;fill-rule:nonzero;stroke:none"
           d="m 14.239953,106.84082 c -0.941823,-0.14266 -1.931023,-0.16517 -2.939589,-0.0484 -5.3790181,0.62245 -9.3319573,4.93286 -8.8294715,9.62638 0.2000939,1.86899 1.0775837,3.51937 2.4007124,4.78751 -0.534198,1.25525 -1.4740976,2.16249 -2.871605,2.34171 2.2093092,0.82417 4.7486396,0.37119 6.5879192,-0.1717 1.3949373,0.44159 2.9352519,0.60435 4.5331639,0.41944 5.379016,-0.62244 9.338402,-4.93779 8.835916,-9.6313 -0.408272,-3.81348 -3.635816,-6.70543 -7.717046,-7.32358 z"
           id="path1969"
           inkscape:connector-curvature="0" />
        <path
           d="m 16.34375,109.83789 a 0.81848562,0.81848562 0 0 0 -0.291016,0.0527 l -5.599609,2.13477 -3.515625,0 c -0.5839936,-2e-5 -0.9968533,0.38078 -1.2519531,0.78906 -0.5433359,0.30305 -0.9411308,0.82242 -0.9414063,1.4668 l 0,1.6875 c -2.733e-4,0.64504 0.3979446,1.16375 0.9414063,1.4668 0.2551397,0.40873 0.6680487,0.78904 1.2519531,0.78906 l 0.2441406,0 0,1.05664 c -3.806e-4,0.88941 0.6129212,1.78706 1.5996094,1.78711 l 0.4375,0 c 0.986768,5e-5 1.59923,-0.89855 1.599609,-1.78711 l 0,-0.92578 5.205079,2.21094 a 0.81848562,0.81848562 0 0 0 0.320312,0.0644 c 0.921834,6e-5 1.567989,-0.86046 1.568359,-1.72461 l 0,-1.11523 c 0.975911,-0.38589 1.624504,-1.42558 1.625,-2.57227 4.19e-4,-1.14732 -0.648874,-2.18636 -1.625,-2.57227 l 0,-1.05273 c 3.7e-4,-0.86498 -0.60618,-1.75581 -1.568359,-1.75586 z"
           id="path3959"
           style="fill:url(#radialGradient3961);fill-opacity:1;fill-rule:nonzero;stroke:none"
           inkscape:original="M 16.34375 110.65625 L 10.6875 112.8125 C 10.6539 112.8255 10.62944 112.82685 10.59375 112.84375 L 6.9375 112.84375 C 6.6438155 112.84374 6.4146053 113.05166 6.28125 113.34375 C 5.8822019 113.38715 5.5627139 113.78095 5.5625 114.28125 L 5.5625 115.96875 C 5.562288 116.46905 5.8822373 116.86282 6.28125 116.90625 C 6.4143559 117.19836 6.6438139 117.40624 6.9375 117.40625 L 8 117.40625 L 8 119.28125 C 7.9997734 119.81069 8.3488935 120.24998 8.78125 120.25 L 9.21875 120.25 C 9.651104 120.25002 9.9997738 119.8107 10 119.28125 L 10 117.40625 L 10.6875 117.40625 C 10.70909 117.41835 10.72838 117.4255 10.75 117.4375 L 16.34375 119.8125 C 16.765285 119.81253 17.093527 119.42602 17.09375 118.90625 L 17.09375 117.15625 L 17.125 117.15625 C 17.998751 117.15629 18.718287 116.28871 18.71875 115.21875 C 18.71914 114.14879 17.99875 113.28129 17.125 113.28125 L 17.09375 113.28125 L 17.09375 111.59375 C 17.093972 111.07399 16.765285 110.65627 16.34375 110.65625 z "
           inkscape:radius="0.81840378"
           sodipodi:type="inkscape:offset" />
        <path
           inkscape:connector-curvature="0"
           style="fill:url(#radialGradient4080);fill-opacity:1;fill-rule:nonzero;stroke:none"
           d="m 16.337068,110.648 -5.643614,2.16193 c -0.0336,0.013 -0.06442,0.0291 -0.10011,0.046 l -3.6408531,-1.9e-4 c -0.2936845,-1e-5 -0.5487326,0.1809 -0.6820879,0.47299 -0.3990481,0.0434 -0.7133466,0.44191 -0.7135605,0.94221 l -7.283e-4,1.70064 c -2.12e-4,0.5003 0.3137405,0.89885 0.7127532,0.94228 0.1331059,0.29211 0.3879822,0.4903 0.6816683,0.49031 l 1.0572239,6e-5 -8.072e-4,1.8845 c -2.266e-4,0.52944 0.3492036,0.95759 0.7815601,0.95761 l 0.4227722,1e-5 c 0.432354,2e-5 0.7821533,-0.42808 0.7823795,-0.95753 l 8.073e-4,-1.88449 0.7006445,3e-5 c 0.02159,0.0121 0.04092,0.0263 0.06254,0.0383 l 5.575482,2.38271 c 0.421535,3e-5 0.76338,-0.41478 0.763603,-0.93455 l 0.0012,-1.72891 0.02529,0 c 0.873751,4e-5 1.580658,-0.86512 1.581121,-1.93508 l 7.1e-5,-0.003 c 3.9e-4,-1.06996 -0.705783,-1.93521 -1.579533,-1.93525 l -0.02528,0 3.27e-4,-1.69817 c 2.22e-4,-0.51976 -0.341266,-0.94226 -0.762801,-0.94228 z"
           id="rect2909"
           sodipodi:nodetypes="ccccccccccccccccccccccccccc" />
        <path
           id="path1969-2"
           transform="translate(0,104)"
           d="m 12.0625,2.71875 c -0.249283,0.012081 -0.497858,0.033307 -0.75,0.0625 -5.3790181,0.62245 -9.3462358,4.93148 -8.84375,9.625 0.2000939,1.86899 1.0831213,3.54436 2.40625,4.8125 C 4.340802,18.474 3.3975074,19.38328 2,19.5625 c 2.2093092,0.82417 4.7544704,0.35539 6.59375,-0.1875 1.3949373,0.44159 2.933338,0.59116 4.53125,0.40625 5.379016,-0.62244 9.346236,-4.93149 8.84375,-9.625 C 21.560478,6.34277 18.33123,3.4619 14.25,2.84375 13.543633,2.736755 12.810349,2.6825058 12.0625,2.71875 Z m 0.03125,0.9375 c 0.689828,-0.02821 1.379272,0.02624 2.03125,0.125 3.726731,0.56446 6.548427,3.12649 6.90625,6.46875 0.440338,4.11301 -3.060075,8.02212 -8,8.59375 -1.472141,0.17036 -2.892498,0.02506 -4.15625,-0.375 a 0.93885565,0.93885565 0 0 0 -0.5625,0 c -1.0560298,0.3117 -2.3028047,0.49056 -3.5625,0.5 0.3794872,-0.4276 0.7752976,-0.847 1,-1.375 a 0.93885565,0.93885565 0 0 0 -0.21875,-1.0625 c -1.1755721,-1.12672 -1.9497045,-2.58139 -2.125,-4.21875 -0.4403378,-4.11302 3.0600693,-8.02211 8,-8.59375 0.229196,-0.026535 0.457557,-0.053097 0.6875,-0.0625 z"
           style="fill:url(#radialGradient3054);fill-opacity:1;fill-rule:nonzero;stroke:none"
           inkscape:connector-curvature="0" />
      </g>
    </g>
  </g>
</svg>
