<?xml version="1.0" encoding="UTF-8" standalone="no"?>
<!-- Created with Inkscape (http://www.inkscape.org/) -->

<svg
   xmlns:dc="http://purl.org/dc/elements/1.1/"
   xmlns:cc="http://creativecommons.org/ns#"
   xmlns:rdf="http://www.w3.org/1999/02/22-rdf-syntax-ns#"
   xmlns:svg="http://www.w3.org/2000/svg"
   xmlns="http://www.w3.org/2000/svg"
   xmlns:xlink="http://www.w3.org/1999/xlink"
   xmlns:sodipodi="http://sodipodi.sourceforge.net/DTD/sodipodi-0.dtd"
   xmlns:inkscape="http://www.inkscape.org/namespaces/inkscape"
   id="svg14997"
   version="1.1"
   inkscape:version="0.91 r13725"
   width="24"
   height="24"
   sodipodi:docname="korgac.svgz">
  <metadata
     id="metadata15003">
    <rdf:RDF>
      <cc:Work
         rdf:about="">
        <dc:format>image/svg+xml</dc:format>
        <dc:type
           rdf:resource="http://purl.org/dc/dcmitype/StillImage" />
        <dc:title></dc:title>
      </cc:Work>
    </rdf:RDF>
  </metadata>
  <defs
     id="defs15001">
    <linearGradient
       id="linearGradient3877">
      <stop
         style="stop-color:#ffffff;stop-opacity:0.8561151;"
         offset="0"
         id="stop3879" />
      <stop
         style="stop-color:#ffffff;stop-opacity:0;"
         offset="1"
         id="stop3881" />
    </linearGradient>
    <linearGradient
       id="linearGradient16121">
      <stop
         style="stop-color:#ffffff;stop-opacity:0.74100721;"
         offset="0"
         id="stop16123" />
      <stop
         style="stop-color:#ffffff;stop-opacity:0.61151081;"
         offset="1"
         id="stop16125" />
    </linearGradient>
    <linearGradient
       id="linearGradient16006">
      <stop
         id="stop3915"
         offset="0"
         style="stop-color:#ffffff;stop-opacity:1;" />
      <stop
         id="stop3895"
         offset="0.12995452"
         style="stop-color:#ffffff;stop-opacity:0.94964027;" />
      <stop
         id="stop16014"
         offset="0.53266597"
         style="stop-color:#ffffff;stop-opacity:0.39215687;" />
      <stop
         style="stop-color:#ffffff;stop-opacity:0.96402878;"
         offset="1"
         id="stop16010" />
    </linearGradient>
    <linearGradient
       id="linearGradient16018-7">
      <stop
         style="stop-color:#000000;stop-opacity:0.69064748;"
         offset="0"
         id="stop16020-4" />
      <stop
         style="stop-color:#000000;stop-opacity:0.48920864;"
         offset="1"
         id="stop16022-3" />
    </linearGradient>
    <radialGradient
       inkscape:collect="always"
       xlink:href="#linearGradient16006"
       id="radialGradient6247"
       cx="8.3723621"
       cy="9.7446938"
       fx="8.3723621"
       fy="9.7446938"
       r="9.7842484"
       gradientTransform="matrix(1.4883361,0.31302742,-0.43944909,2.2490562,2.1126929,-15.827125)"
       gradientUnits="userSpaceOnUse" />
    <linearGradient
       id="linearGradient16006-6">
      <stop
         style="stop-color:#ffffff;stop-opacity:0.92086333;"
         offset="0"
         id="stop16008-3" />
      <stop
         id="stop16016-0"
         offset="0.25"
         style="stop-color:#ffffff;stop-opacity:0.88489211;" />
      <stop
         id="stop16014-1"
         offset="0.5"
         style="stop-color:#d7d7d7;stop-opacity:0.92156863;" />
      <stop
         style="stop-color:#ffffff;stop-opacity:0.89928055;"
         offset="1"
         id="stop16010-4" />
    </linearGradient>
    <radialGradient
       inkscape:collect="always"
       xlink:href="#linearGradient16006-6"
       id="radialGradient6296"
       cx="12.092206"
       cy="16.943794"
       fx="12.092206"
       fy="16.943794"
       r="2"
       gradientTransform="matrix(1.6539031,-0.89117539,0.79750005,1.5931281,-21.702904,2.4907457)"
       gradientUnits="userSpaceOnUse" />
    <radialGradient
       inkscape:collect="always"
       xlink:href="#linearGradient16121"
       id="radialGradient7802"
       gradientUnits="userSpaceOnUse"
       gradientTransform="matrix(1.5651947,-0.24223806,0.35518928,2.4703532,-7.1002414,-13.104734)"
       cx="7.6595116"
       cy="10.169191"
       fx="7.6595116"
       fy="10.169191"
       r="9.7842484" />
    <radialGradient
       inkscape:collect="always"
       xlink:href="#linearGradient16018-7"
       id="radialGradient3939"
       gradientUnits="userSpaceOnUse"
       gradientTransform="matrix(1.6539031,-0.89117539,0.79750005,1.5931281,-21.702904,3.0161188)"
       cx="12.092206"
       cy="16.943794"
       fx="12.092206"
       fy="16.943794"
       r="2" />
    <radialGradient
       inkscape:collect="always"
       xlink:href="#linearGradient3877"
       id="radialGradient4693"
       cx="13.853403"
       cy="14.874346"
       fx="13.853403"
       fy="14.874346"
       r="2.0418849"
       gradientTransform="matrix(1.9455911,-0.2391939,0.40612117,3.5557422,-15.998922,-33.882293)"
       gradientUnits="userSpaceOnUse" />
  </defs>
  <sodipodi:namedview
     pagecolor="#999999"
     bordercolor="#666666"
     borderopacity="0.15294118"
     objecttolerance="10"
     gridtolerance="10"
     guidetolerance="10"
     inkscape:pageopacity="1"
     inkscape:pageshadow="2"
     inkscape:window-width="1920"
     inkscape:window-height="1046"
     id="namedview14999"
     showgrid="false"
     inkscape:showpageshadow="false"
     inkscape:snap-bbox="true"
     inkscape:zoom="25.662084"
     inkscape:cx="0.070144354"
     inkscape:cy="7.44563"
     inkscape:window-x="0"
     inkscape:window-y="34"
     inkscape:window-maximized="1"
     inkscape:current-layer="layer3"
     showguides="true"
     inkscape:guide-bbox="true"
     inkscape:snap-nodes="true">
    <inkscape:grid
       type="xygrid"
       id="grid15007"
       empspacing="4"
       visible="true"
       enabled="true"
       snapvisiblegridlinesonly="true"
       dotted="true" />
  </sodipodi:namedview>
  <g
     inkscape:groupmode="layer"
     id="layer3"
     inkscape:label="Icon"
     style="display:inline">
    <g
       id="korgac"
       transform="translate(0,-1)">
      <path
         id="path3161"
         style="display:inline;fill:#000000;fill-opacity:0.39215686;stroke:none"
         d="m 12,3.1492537 c 1.173984,0 1.04688,1.2612694 1.297613,1.3134329 0.631218,0.1313215 2.825163,0.9175832 4.430873,3.7104477 1.60571,2.7928647 0.785033,7.9711357 2.626875,9.5880597 1.841847,1.616923 1.846655,2.116961 1.04442,2.889552 -0.802232,0.772589 -4.169206,2.2 -9.399781,2.2 -5.2305771,0 -8.5975469,-1.427411 -9.3997813,-2.2 C 1.7979849,19.878155 1.8027938,19.378117 3.6446388,17.761194 5.4864837,16.144273 4.6658028,10.965999 6.2715137,8.1731343 7.8772246,5.3802698 10.07117,4.5940081 10.702387,4.4626866 10.953122,4.4105233 10.826015,3.1492537 12,3.1492537 Z M 12,2 C 11.02865,2 10.251271,2.741324 10.006107,3.280597 9.93775,3.4309573 9.9130363,3.5055765 9.8795106,3.6089552 8.7327074,3.9757969 6.8742527,4.8822778 5.3220409,7.5820896 4.3213248,9.3226676 4.1527994,11.43697 3.9294807,13.262687 c -0.2233188,1.825716 -0.6015649,3.25095 -1.0127711,3.61194 -0.9637664,0.846073 -1.5544275,1.390011 -1.8356475,2.298507 -0.14061005,0.454248 -0.0915312,1.008598 0.094947,1.411941 0.1864782,0.403342 0.4197707,0.68359 0.664631,0.919403 0.7197987,0.693199 1.8150892,1.15935 3.5130495,1.641791 C 7.0516503,23.628709 9.2870802,24 12,24 c 2.712919,0 4.948349,-0.371291 6.64631,-0.853731 1.697961,-0.482441 2.79325,-0.948589 3.51305,-1.641791 0.24486,-0.235813 0.478152,-0.516062 0.664631,-0.919403 0.186478,-0.403342 0.235557,-0.957693 0.09495,-1.411941 C 22.637721,18.264638 22.04706,17.7207 21.083293,16.874627 20.672086,16.513635 20.293841,15.088403 20.070522,13.262687 19.8472,11.43697 19.678674,9.3226665 18.677959,7.5820896 17.125748,4.8822777 15.267294,3.9757969 14.120489,3.6089552 14.086967,3.5055765 14.062245,3.4309573 13.993893,3.280597 13.74873,2.7413241 12.971349,2 12,2 Z"
         inkscape:connector-curvature="0" />
      <path
         inkscape:connector-curvature="0"
         id="path6167"
         d="m 12,18.155224 c -0.607563,0 -1.198052,0.0067 -1.772349,0.03284 -0.160006,0.3007 -0.2531931,0.650133 -0.2531931,1.01791 0,1.160622 0.9068671,2.101493 2.0255421,2.101493 1.118676,0 2.025542,-0.940871 2.025542,-2.101493 0,-0.367777 -0.09319,-0.71721 -0.253193,-1.01791 C 13.198052,18.161917 12.607563,18.155224 12,18.155224 Z"
         style="fill:url(#radialGradient6296);fill-opacity:1;stroke:none" />
      <path
         id="path6362"
         style="display:inline;fill:url(#radialGradient3939);fill-opacity:1;stroke:none"
         d="m 12,18.155224 c 0.607563,0 1.198052,0.0067 1.772349,0.03284 0.160008,0.3007 0.253193,0.650133 0.253193,1.01791 0,1.160622 -0.906866,2.101493 -2.025542,2.101493 -1.118675,0 -2.0255421,-0.940871 -2.0255421,-2.101493 0,-0.367777 0.093185,-0.71721 0.2531931,-1.01791 0.574297,-0.02611 1.164786,-0.03284 1.772349,-0.03284 z m 0,-0.525373 c -5.034042,0 -9.1149395,0.940871 -9.1149395,2.101492 0,0.561131 4.0808975,2.101493 9.1149395,2.101493 5.034042,0 9.114939,-1.540362 9.114939,-2.101493 0,-1.160621 -4.080897,-2.101492 -9.114939,-2.101492 z"
         inkscape:connector-curvature="0" />
      <path
         id="path4628-8"
         d="m 12,3.1492537 c -1.173985,0 -1.046878,1.2612694 -1.297613,1.3134329 -0.631217,0.1313215 -2.8251624,0.9175832 -4.4308733,3.7104477 -1.6057109,2.7928647 -0.78503,7.9711387 -2.6268749,9.5880597 -1.841845,1.616923 -1.8466539,2.116961 -1.0444201,2.889552 0.8022344,0.772589 4.1692042,2.2 9.3997813,2.2 5.230575,0 8.597549,-1.427411 9.399781,-2.2 0.802235,-0.772591 0.797427,-1.272629 -1.04442,-2.889552 C 18.513519,16.14427 19.334196,10.965999 17.728486,8.1731343 16.122776,5.3802698 13.928831,4.5940081 13.297613,4.4626866 13.04688,4.4105233 13.173984,3.1492537 12,3.1492537 Z m 0,14.4805973 c 5.034042,0 9.114939,0.940871 9.114939,2.101492 0,0.561131 -4.080897,2.101493 -9.114939,2.101493 -5.034042,0 -9.1149395,-1.540362 -9.1149395,-2.101493 0,-1.160621 4.0808975,-2.101492 9.1149395,-2.101492 z"
         style="fill:url(#radialGradient6247);fill-opacity:1;stroke:none"
         inkscape:connector-curvature="0" />
      <rect
         y="1"
         x="0"
         height="24"
         width="24"
         id="rect6487"
         style="fill:none;stroke:none" />
      <path
         style="display:inline;fill:url(#radialGradient7802);fill-opacity:1;stroke:none"
         d="M 20.355361,17.761194 C 18.513519,16.14427 19.334196,10.965999 17.728486,8.1731343 16.122776,5.3802698 13.928831,4.5940081 13.297613,4.4626866 13.04688,4.4105233 13.173984,3.1492537 12,3.1492537 c -1.173985,0 -1.046878,1.2612694 -1.297613,1.3134329 C 10.07117,4.5940081 7.8772246,5.3802698 6.2715137,8.1731343 4.6658028,10.965999 5.4864837,16.144273 3.6446388,17.761194 l 1.0444201,-0.06567 C 5.449748,16.569709 5.6409314,15.058218 5.8284264,13.525373 6.0559173,11.665547 6.2716141,9.7558398 6.9361447,8.6 8.414969,6.0278334 10.475782,5.3308127 10.860633,5.2507463 c 0.334028,-0.069492 0.523047,-0.3242244 0.601332,-0.4597015 0.07829,-0.1354772 0.09973,-0.2145834 0.126597,-0.2955224 0.05374,-0.161878 0.08799,-0.2762799 0.126596,-0.361194 C 11.792362,3.9645001 11.681716,3.9701493 12,3.9701493 c 0.318287,0 0.207634,-0.00565 0.284842,0.1641791 0.03861,0.084914 0.07286,0.1993166 0.126596,0.361194 0.02687,0.080939 0.04831,0.1600459 0.126597,0.2955224 0.07829,0.1354765 0.267302,0.3902085 0.601332,0.4597015 0.384852,0.080067 2.445665,0.7770873 3.924488,3.3492537 0.664531,1.1558398 0.880227,3.065548 1.107719,4.925373 0.187495,1.532845 0.378679,3.044336 1.139367,4.170149 z"
         id="path4628-8-6"
         inkscape:connector-curvature="0"
         sodipodi:nodetypes="csssssccssssssssssssscc" />
      <path
         style="fill:url(#radialGradient4693);fill-opacity:1;stroke:none"
         d="m 16.177681,8.4358209 c -2.194047,0.2697394 -3.622893,3.7394371 -3.16491,7.7492541 0.05854,0.512487 0.142824,1.001923 0.253193,1.477612 3.637473,0.117745 6.595089,0.707614 7.532485,1.510447 0.06157,-0.272053 0.08599,-0.562619 0.126596,-0.853731 C 20.739283,18.136554 20.607155,17.98224 20.355361,17.761194 18.692827,16.301681 19.206412,11.949035 18.139925,9.0597015 17.52291,8.5884325 16.850521,8.3531008 16.177681,8.4358209 Z m 4.304277,11.8208951 c -0.940893,0.483161 -2.892817,1.040413 -5.348698,1.346269 0.311988,0.365779 0.633575,0.696034 0.981122,0.919403 1.580665,-0.256928 2.819979,-0.637789 3.734594,-1.01791 0.240238,-0.364209 0.459467,-0.777228 0.632982,-1.247762 z"
         id="path4685"
         inkscape:connector-curvature="0" />
    </g>
  </g>
</svg>
