<?xml version="1.0" encoding="UTF-8" standalone="no"?>
<!-- Created with Inkscape (http://www.inkscape.org/) -->

<svg
   xmlns:dc="http://purl.org/dc/elements/1.1/"
   xmlns:cc="http://creativecommons.org/ns#"
   xmlns:rdf="http://www.w3.org/1999/02/22-rdf-syntax-ns#"
   xmlns:svg="http://www.w3.org/2000/svg"
   xmlns="http://www.w3.org/2000/svg"
   xmlns:xlink="http://www.w3.org/1999/xlink"
   xmlns:sodipodi="http://sodipodi.sourceforge.net/DTD/sodipodi-0.dtd"
   xmlns:inkscape="http://www.inkscape.org/namespaces/inkscape"
   width="96"
   height="24"
   id="svg2"
   version="1.1"
   inkscape:version="0.91 r13725"
   sodipodi:docname="kpackagekit.svgz"
   inkscape:export-filename="/mnt/win_d/klipper.png"
   inkscape:export-xdpi="90"
   inkscape:export-ydpi="90">
  <sodipodi:namedview
     id="base"
     pagecolor="#999999"
     bordercolor="#666666"
     borderopacity="1.0"
     inkscape:pageopacity="1"
     inkscape:pageshadow="2"
     inkscape:zoom="11.313708"
     inkscape:cx="55.233182"
     inkscape:cy="-2.5688336"
     inkscape:document-units="px"
     inkscape:current-layer="kpackagekit"
     showgrid="true"
     inkscape:window-width="1920"
     inkscape:window-height="1046"
     inkscape:window-x="0"
     inkscape:window-y="34"
     inkscape:window-maximized="1"
     inkscape:snap-grids="true"
     showguides="true"
     inkscape:guide-bbox="true"
     inkscape:snap-bbox="true"
     inkscape:object-paths="true"
     inkscape:snap-page="true"
     inkscape:snap-global="false"
     fit-margin-top="0"
     fit-margin-left="0"
     fit-margin-right="0"
     fit-margin-bottom="0">
    <inkscape:grid
       snapvisiblegridlinesonly="true"
       enabled="true"
       visible="true"
       empspacing="5"
       id="grid2818"
       type="xygrid"
       originx="2.442749e-07"
       originy="-1.4746094e-05" />
  </sodipodi:namedview>
  <defs
     id="defs4">
    <linearGradient
       inkscape:collect="always"
       id="linearGradient4075">
      <stop
         style="stop-color:#ffffff;stop-opacity:1;"
         offset="0"
         id="stop4077" />
      <stop
         style="stop-color:#ffffff;stop-opacity:0;"
         offset="1"
         id="stop4079" />
    </linearGradient>
    <radialGradient
       cx="538.77338"
       cy="651.10352"
       r="126.0234"
       id="XMLID_15_"
       gradientUnits="userSpaceOnUse"
       gradientTransform="translate(-484,-674)">
      <stop
         id="stop137"
         style="stop-color:#eaacac;stop-opacity:1;"
         offset="0" />
      <stop
         id="stop139"
         style="stop-color:#a42a2a;stop-opacity:1;"
         offset="1" />
      <stop
         id="stop141"
         style="stop-color:#e85151;stop-opacity:1;"
         offset="1" />
    </radialGradient>
    <linearGradient
       id="linearGradient3802">
      <stop
         id="stop3804"
         offset="0"
         style="stop-color:#ffffff;stop-opacity:1;" />
      <stop
         style="stop-color:#ffffff;stop-opacity:0.78431374;"
         offset="0.5"
         id="stop3818" />
      <stop
         id="stop3820"
         offset="0.75"
         style="stop-color:#ffffff;stop-opacity:0.39215687;" />
      <stop
         id="stop3806"
         offset="1"
         style="stop-color:#ffffff;stop-opacity:1;" />
    </linearGradient>
    <linearGradient
       inkscape:collect="always"
       xlink:href="#linearGradient3802"
       id="linearGradient3902"
       x1="2"
       y1="12"
       x2="22"
       y2="12"
       gradientUnits="userSpaceOnUse"
       gradientTransform="matrix(1.0028487,0,0,1.0028626,-8.5194694,1016.6607)" />
    <linearGradient
       inkscape:collect="always"
       xlink:href="#linearGradient3802"
       id="linearGradient3980"
       gradientUnits="userSpaceOnUse"
       gradientTransform="matrix(1.0028485,0,0,1.0028489,46.48053,1016.6607)"
       x1="2"
       y1="12"
       x2="22"
       y2="12" />
    <linearGradient
       inkscape:collect="always"
       xlink:href="#linearGradient3802"
       id="linearGradient4042"
       gradientUnits="userSpaceOnUse"
       gradientTransform="matrix(1.0028536,0,0,1.0028626,72.480524,1016.6607)"
       x1="2"
       y1="12"
       x2="22"
       y2="12" />
    <linearGradient
       inkscape:collect="always"
       xlink:href="#linearGradient3802"
       id="linearGradient4072"
       gradientUnits="userSpaceOnUse"
       gradientTransform="matrix(1.002849,0,0,1.0028489,18.480531,1016.6597)"
       x1="2"
       y1="12"
       x2="22"
       y2="12" />
    <linearGradient
       inkscape:collect="always"
       xlink:href="#linearGradient4075"
       id="linearGradient4081"
       x1="31.059769"
       y1="1023.6609"
       x2="31.059769"
       y2="1036.5634"
       gradientUnits="userSpaceOnUse"
       gradientTransform="matrix(1.002849,0,0,1.0028489,-0.08693722,-2.9002856)" />
    <radialGradient
       inkscape:collect="always"
       xlink:href="#XMLID_15_"
       id="radialGradient4131"
       gradientUnits="userSpaceOnUse"
       cx="66.5"
       cy="10.5"
       fx="66.5"
       fy="10.250001"
       r="0.5"
       gradientTransform="matrix(3.321947,0,0,3.3219483,-162.39475,993.8458)" />
  </defs>
  <metadata
     id="metadata7">
    <rdf:RDF>
      <cc:Work
         rdf:about="">
        <dc:format>image/svg+xml</dc:format>
        <dc:type
           rdf:resource="http://purl.org/dc/dcmitype/StillImage" />
        <dc:title></dc:title>
      </cc:Work>
    </rdf:RDF>
  </metadata>
  <g
     transform="translate(8.4852819,-1016.6949)"
     id="kpackagekit"
     inkscape:groupmode="layer"
     inkscape:label="Layer 1">
    <g
       id="kpackagekit-inactive">
      <path
         id="path3908"
         d="m 3.5147157,1017.6949 c -0.3725333,0 -0.6988613,0.074 -0.9401708,0.094 a 0.95606429,0.95607744 0 0 0 -0.8461536,0.7521 l -0.2820512,1.4729 c -0.1573236,0.039 -0.3181403,0.047 -0.47008537,0.094 l -1.00284877,-1.0969 a 0.95606429,0.95607744 0 0 0 -1.12820486,-0.2507 c -0.5614155,0.2638 -1.0848526,0.5815 -1.5982902,0.9401 a 0.95606429,0.95607744 0 0 0 -0.3760683,1.097 l 0.4700854,1.4101 c -0.1056226,0.1009 -0.2126866,0.2079 -0.3133902,0.3135 l -1.4102562,-0.4701 a 0.95606429,0.95607744 0 0 0 -1.0968658,0.3762 c -0.3586529,0.5134 -0.6763688,1.0368 -0.9401707,1.5982 a 0.95606429,0.95607744 0 0 0 0.2507122,1.1283 l 1.0968658,1.0029 c -0.046824,0.1519 -0.054692,0.3127 -0.094017,0.47 l -1.4729341,0.2821 a 0.95606429,0.95607744 0 0 0 -0.7521366,0.8461 c -0.020051,0.2413 -0.094017,0.5677 -0.094017,0.9402 0,0.3725 0.073966,0.6989 0.094017,0.9402 a 0.95606429,0.95607744 0 0 0 0.7521366,0.8462 l 1.4729341,0.282 c 0.039325,0.1573 0.047193,0.3181 0.094017,0.4701 l -1.0968658,1.0029 a 0.95606429,0.95607744 0 0 0 -0.2507122,1.1283 c 0.2638021,0.5613 0.581518,1.0847 0.9401707,1.5981 a 0.95606429,0.95607744 0 0 0 1.0968658,0.3762 l 1.4102562,-0.4701 c 0.1007035,0.1056 0.2077677,0.2126 0.3133902,0.3135 l -0.4700854,1.4101 a 0.95606429,0.95607744 0 0 0 0.3760683,1.097 c 0.5134367,0.3586 1.0368736,0.6763 1.5982902,0.9401 a 0.95606429,0.95607744 0 0 0 1.12820486,-0.2507 l 1.00284877,-1.0969 c 0.15194507,0.047 0.31276187,0.054 0.47008537,0.094 l 0.2820512,1.4729 a 0.95606429,0.95607744 0 0 0 0.8461536,0.7521 c 0.2413095,0.02 0.5676375,0.094 0.9401708,0.094 0.3725402,0 0.6988752,-0.074 0.9401707,-0.094 a 0.95606429,0.95607744 0 0 0 0.8461536,-0.7521 l 0.2820512,-1.4729 c 0.1573249,-0.039 0.3181398,-0.047 0.4700854,-0.094 l 1.0028487,1.0969 a 0.95606429,0.95607744 0 0 0 1.1282049,0.2507 c 0.5614178,-0.2638 1.0848537,-0.5815 1.5982902,-0.9401 a 0.95606429,0.95607744 0 0 0 0.3760686,-1.097 l -0.4700857,-1.4101 c 0.1056221,-0.1009 0.2126872,-0.2079 0.3133907,-0.3135 l 1.410255,0.4701 a 0.95606429,0.95607744 0 0 0 1.096866,-0.3762 c 0.358652,-0.5134 0.676369,-1.0368 0.940171,-1.5981 a 0.95606429,0.95607744 0 0 0 -0.250712,-1.1283 l -1.096866,-1.0029 c 0.04682,-0.152 0.05469,-0.3128 0.09402,-0.4701 l 1.472934,-0.282 a 0.95606429,0.95607744 0 0 0 0.752136,-0.8462 c 0.02005,-0.2413 0.09402,-0.5677 0.09402,-0.9402 0,-0.3725 -0.07397,-0.6989 -0.09402,-0.9402 a 0.95606429,0.95607744 0 0 0 -0.752136,-0.8461 l -1.472934,-0.2821 c -0.03932,-0.1573 -0.04719,-0.3181 -0.09402,-0.47 l 1.096866,-1.0029 a 0.95606429,0.95607744 0 0 0 0.250712,-1.1283 c -0.263802,-0.5614 -0.581519,-1.0848 -0.940171,-1.5982 a 0.95606429,0.95607744 0 0 0 -1.096866,-0.3762 l -1.410255,0.4701 c -0.1007045,-0.1056 -0.2077686,-0.2126 -0.3133907,-0.3135 l 0.4700857,-1.4101 a 0.95606429,0.95607744 0 0 0 -0.3760686,-1.097 c -0.5134375,-0.3586 -1.0368744,-0.6763 -1.5982902,-0.9401 a 0.95606429,0.95607744 0 0 0 -1.1282049,0.2507 l -1.0028487,1.0969 c -0.1519446,-0.047 -0.3127615,-0.054 -0.4700854,-0.094 L 5.30104,1018.541 a 0.95606429,0.95607744 0 0 0 -0.8461536,-0.7521 c -0.2413095,-0.02 -0.5676375,-0.094 -0.9401707,-0.094 z m 0,0.9716 c 0.2834531,0 0.5686554,0.04 0.8461536,0.062 l 0.4074073,2.037 c 0.5537169,0.087 1.0882514,0.2449 1.5982902,0.4387 l 1.4102561,-1.567 c 0.517841,0.2434 1.0080957,0.5215 1.4729341,0.8463 l -0.6581195,1.9743 c 0.4207562,0.3435 0.8161434,0.7388 1.1595439,1.1596 l 1.9743576,-0.6582 c 0.324705,0.4649 0.602828,0.9551 0.846154,1.4731 l -1.566951,1.4102 c 0.193907,0.51 0.351996,1.0446 0.438746,1.5983 l 2.037037,0.4075 c 0.02306,0.2775 0.06268,0.5627 0.06268,0.8461 0,0.2834 -0.03962,0.5686 -0.06268,0.8462 l -2.037037,0.4074 c -0.08675,0.5537 -0.244839,1.0883 -0.438746,1.5984 l 1.566951,1.4101 c -0.243326,0.518 -0.521449,1.0082 -0.846154,1.4731 l -1.9743576,-0.6582 c -0.3434005,0.4208 -0.7387877,0.8161 -1.1595439,1.1596 l 0.6581195,1.9743 c -0.4648384,0.3248 -0.9550931,0.6029 -1.4729341,0.8463 l -1.4102561,-1.567 c -0.5100388,0.1938 -1.0445733,0.3519 -1.5982902,0.4387 l -0.4074073,2.037 c -0.2774982,0.023 -0.5627005,0.062 -0.8461536,0.062 -0.2834532,0 -0.5686555,-0.039 -0.8461537,-0.062 l -0.4074073,-2.037 c -0.5537169,-0.087 -1.0882519,-0.2449 -1.59829021,-0.4387 l -1.41025608,1.567 c -0.51784061,-0.2434 -1.00809581,-0.5215 -1.47293411,-0.8463 l 0.6581195,-1.9743 c -0.4207566,-0.3435 -0.8161439,-0.7388 -1.1595439,-1.1596 l -1.9743585,0.6582 c -0.3247047,-0.4649 -0.6028271,-0.9551 -0.8461536,-1.4731 l 1.5669512,-1.4101 c -0.1939064,-0.5101 -0.3519964,-1.0447 -0.4387464,-1.5984 l -2.0370366,-0.4074 c -0.023058,-0.2776 -0.062678,-0.5628 -0.062678,-0.8462 0,-0.2834 0.03962,-0.5686 0.062678,-0.8461 l 2.0370366,-0.4075 c 0.08675,-0.5537 0.24484,-1.0883 0.4387464,-1.5983 l -1.5669512,-1.4102 c 0.2433265,-0.518 0.5214489,-1.0082 0.8461536,-1.4731 l 1.9743585,0.6582 c 0.3434,-0.4208 0.7387873,-0.8161 1.1595439,-1.1596 l -0.6581195,-1.9743 c 0.4648383,-0.3248 0.9550935,-0.6029 1.47293411,-0.8463 l 1.41025608,1.567 c 0.51003831,-0.1938 1.04457331,-0.3519 1.59829021,-0.4387 l 0.4074073,-2.037 c 0.2774982,-0.023 0.5627005,-0.062 0.8461537,-0.062 z m 0,4.0115 c -3.32315262,0 -6.0170926,2.6939 -6.0170926,6.0171 0,3.3232 2.69393998,6.0171 6.0170926,6.0171 3.323153,0 6.0170925,-2.6939 6.0170925,-6.0171 0,-3.3232 -2.6939395,-6.0171 -6.0170925,-6.0171 z m 0,0.9714 c 2.8065103,0 5.0455828,2.2391 5.0455828,5.0457 0,2.8066 -2.2390725,5.0457 -5.0455828,5.0457 -2.80651032,0 -5.0455829,-2.2391 -5.0455829,-5.0457 0,-2.8066 2.23907268,-5.0457 5.0455829,-5.0457 z"
         style="fill:#000000;fill-opacity:0.39215686;stroke:none"
         inkscape:connector-curvature="0" />
      <rect
         style="fill:none;stroke:none"
         id="rect2815"
         width="24"
         height="24"
         x="-8.4852819"
         y="1016.6949" />
      <path
         id="path3879"
         d="m 3.5147157,1018.6665 c -0.2834532,0 -0.5686555,0.04 -0.8461537,0.062 l -0.4074073,2.037 c -0.5537169,0.087 -1.0882519,0.2449 -1.59829021,0.4387 l -1.41025608,-1.567 c -0.51784061,0.2434 -1.00809581,0.5215 -1.47293411,0.8463 l 0.6581195,1.9743 c -0.4207566,0.3435 -0.8161439,0.7388 -1.1595439,1.1596 l -1.9743585,-0.6582 c -0.3247047,0.4649 -0.6028271,0.9551 -0.8461536,1.4731 l 1.5669512,1.4102 c -0.1939064,0.51 -0.3519964,1.0446 -0.4387464,1.5983 l -2.0370366,0.4075 c -0.023058,0.2775 -0.062678,0.5627 -0.062678,0.8461 0,0.2834 0.03962,0.5686 0.062678,0.8462 l 2.0370366,0.4074 c 0.08675,0.5537 0.24484,1.0883 0.4387464,1.5984 l -1.5669512,1.4101 c 0.2433265,0.518 0.5214489,1.0082 0.8461536,1.4731 l 1.9743585,-0.6582 c 0.3434,0.4208 0.7387873,0.8161 1.1595439,1.1596 l -0.6581195,1.9743 c 0.4648383,0.3248 0.9550935,0.6029 1.47293411,0.8463 l 1.41025608,-1.567 c 0.51003831,0.1938 1.04457331,0.3519 1.59829021,0.4387 l 0.4074073,2.037 c 0.2774982,0.023 0.5627005,0.062 0.8461537,0.062 0.2834531,0 0.5686554,-0.039 0.8461536,-0.062 l 0.4074073,-2.037 c 0.5537169,-0.087 1.0882514,-0.2449 1.5982902,-0.4387 l 1.4102561,1.567 c 0.517841,-0.2434 1.0080957,-0.5215 1.4729341,-0.8463 l -0.6581195,-1.9743 c 0.4207562,-0.3435 0.8161434,-0.7388 1.1595439,-1.1596 l 1.9743576,0.6582 c 0.324705,-0.4649 0.602828,-0.9551 0.846154,-1.4731 l -1.566951,-1.4101 c 0.193907,-0.5101 0.351996,-1.0447 0.438746,-1.5984 l 2.037037,-0.4074 c 0.02306,-0.2776 0.06268,-0.5628 0.06268,-0.8462 0,-0.2834 -0.03962,-0.5686 -0.06268,-0.8461 l -2.037037,-0.4075 c -0.08675,-0.5537 -0.244839,-1.0883 -0.438746,-1.5983 l 1.566951,-1.4102 c -0.243326,-0.518 -0.521449,-1.0082 -0.846154,-1.4731 l -1.9743576,0.6582 c -0.3434005,-0.4208 -0.7387877,-0.8161 -1.1595439,-1.1596 l 0.6581195,-1.9743 c -0.4648384,-0.3248 -0.9550931,-0.6029 -1.4729341,-0.8463 l -1.4102561,1.567 c -0.5100388,-0.1938 -1.0445733,-0.3519 -1.5982902,-0.4387 l -0.4074073,-2.037 c -0.2774982,-0.023 -0.5627005,-0.062 -0.8461536,-0.062 z m 0,4.0115 c 3.323153,0 6.0170925,2.6939 6.0170925,6.0171 0,3.3232 -2.6939395,6.0171 -6.0170925,6.0171 -3.32315262,0 -6.0170926,-2.6939 -6.0170926,-6.0171 0,-3.3232 2.69393998,-6.0171 6.0170926,-6.0171 z"
         style="opacity:0.72769949;fill:url(#linearGradient3902);fill-opacity:1;stroke:none"
         inkscape:connector-curvature="0" />
    </g>
    <g
       id="kpackagekit-updates"
       transform="translate(-3.0000007,0)">
      <g
         id="g4050">
        <path
           style="fill:#000000;fill-opacity:0.39215686;stroke:none"
           d="m 30.514718,1017.6939 c -0.372533,0 -0.698861,0.074 -0.940171,0.094 -0.402112,0.037 -0.761757,0.3572 -0.846154,0.7521 l -0.282051,1.473 c -0.157323,0.039 -0.31814,0.047 -0.470086,0.094 l -1.002849,-1.0967 c -0.267476,-0.3157 -0.752247,-0.4234 -1.128205,-0.2508 -0.561415,0.2639 -1.084853,0.5816 -1.59829,0.9402 -0.345293,0.2307 -0.507169,0.7028 -0.376069,1.0968 l 0.470086,1.4103 c -0.105622,0.1008 -0.212686,0.2078 -0.31339,0.3134 l -1.410257,-0.4701 c -0.394034,-0.1312 -0.866182,0.031 -1.096866,0.376 -0.358653,0.5135 -0.676368,1.0369 -0.940171,1.5984 -0.172589,0.3759 -0.06486,0.8607 0.250712,1.1282 l 1.096866,1.0029 c -0.04682,0.1519 -0.05469,0.3126 -0.09402,0.47 l -1.472934,0.2821 c -0.394927,0.084 -0.714605,0.4439 -0.752137,0.8461 -0.02005,0.2413 -0.09402,0.5676 -0.09402,0.9402 0,0.3725 0.07397,0.6988 0.09402,0.9401 0.0375,0.4022 0.357181,0.7618 0.752137,0.8462 l 1.472934,0.282 c 0.03932,0.1574 0.04719,0.3181 0.09402,0.4701 l -1.096866,1.0029 c -0.315574,0.2675 -0.423301,0.7523 -0.250712,1.1282 0.263803,0.5614 0.581518,1.0848 0.940171,1.5983 0.230684,0.3452 0.702832,0.5072 1.096866,0.376 l 1.410257,-0.47 c 0.100704,0.1056 0.207768,0.2126 0.31339,0.3134 l -0.470086,1.4102 c -0.131148,0.394 0.03074,0.8662 0.376069,1.0969 0.513436,0.3586 1.036873,0.6763 1.59829,0.9402 0.375958,0.1726 0.860729,0.065 1.128205,-0.2508 l 1.002849,-1.0968 c 0.151946,0.047 0.312763,0.054 0.470086,0.094 l 0.282051,1.4729 c 0.0844,0.3949 0.444042,0.7146 0.846154,0.7521 0.24131,0.02 0.567638,0.094 0.940171,0.094 0.37254,0 0.698875,-0.074 0.940171,-0.094 0.402112,-0.037 0.761757,-0.3572 0.846154,-0.7521 l 0.282051,-1.4729 c 0.157325,-0.039 0.31814,-0.047 0.470086,-0.094 l 1.002849,1.0968 c 0.267476,0.3157 0.752247,0.4234 1.128205,0.2508 0.561418,-0.2639 1.084854,-0.5816 1.59829,-0.9402 0.345334,-0.2307 0.507217,-0.7029 0.376069,-1.0969 l -0.470086,-1.4102 c 0.105622,-0.1008 0.212687,-0.2078 0.31339,-0.3134 l 1.410257,0.47 c 0.394034,0.1312 0.866182,-0.031 1.096866,-0.376 0.358652,-0.5135 0.676368,-1.0369 0.940171,-1.5983 0.172589,-0.3759 0.06486,-0.8607 -0.250712,-1.1282 l -1.096866,-1.0029 c 0.04682,-0.152 0.0547,-0.3127 0.09402,-0.4701 l 1.472934,-0.282 c 0.394956,-0.084 0.714645,-0.444 0.752137,-0.8462 0.02005,-0.2413 0.09402,-0.5676 0.09402,-0.9401 0,-0.3726 -0.07397,-0.6989 -0.09402,-0.9402 -0.03753,-0.4022 -0.35721,-0.7617 -0.752137,-0.8461 l -1.472934,-0.2821 c -0.03932,-0.1574 -0.04719,-0.3181 -0.09402,-0.47 l 1.096866,-1.0029 c 0.315574,-0.2675 0.423301,-0.7523 0.250712,-1.1282 -0.263803,-0.5615 -0.581519,-1.0849 -0.940171,-1.5984 -0.230684,-0.3452 -0.702832,-0.5072 -1.096866,-0.376 l -1.410257,0.4701 c -0.100704,-0.1056 -0.207768,-0.2126 -0.31339,-0.3134 l 0.470086,-1.4103 c 0.1311,-0.394 -0.03078,-0.8661 -0.376069,-1.0968 -0.513437,-0.3586 -1.036874,-0.6763 -1.59829,-0.9402 -0.375958,-0.1726 -0.860729,-0.065 -1.128205,0.2508 l -1.002849,1.0967 c -0.151945,-0.047 -0.312762,-0.054 -0.470086,-0.094 l -0.282051,-1.473 c -0.0844,-0.3949 -0.444042,-0.7146 -0.846154,-0.7521 -0.24131,-0.02 -0.567638,-0.094 -0.940171,-0.094 z m 0,0.9714 c 0.283453,0 0.568655,0.039 0.846154,0.063 l 0.407407,2.0371 c 0.553717,0.087 1.088252,0.245 1.598291,0.4388 l 1.410256,-1.567 c 0.517841,0.2434 1.008096,0.5214 1.472935,0.8461 l -0.65812,1.9744 c 0.420756,0.3435 0.816144,0.7388 1.159544,1.1596 l 1.974359,-0.6582 c 0.324705,0.465 0.602828,0.9551 0.846154,1.4729 l -1.566952,1.4104 c 0.193907,0.5099 0.351996,1.0445 0.438747,1.5981 l 2.037037,0.4076 c 0.02305,0.2775 0.06268,0.5627 0.06268,0.846 0,0.2834 -0.03962,0.5686 -0.06268,0.8462 l -2.037037,0.4075 c -0.08675,0.5536 -0.24484,1.0882 -0.438747,1.5982 l 1.566952,1.4103 c -0.243326,0.5178 -0.521449,1.008 -0.846154,1.473 l -1.974359,-0.6583 c -0.3434,0.4208 -0.738788,0.8162 -1.159544,1.1597 l 0.65812,1.9743 c -0.464839,0.3247 -0.955094,0.6028 -1.472935,0.8462 l -1.410256,-1.567 c -0.510039,0.1938 -1.044574,0.352 -1.598291,0.4388 l -0.407407,2.037 c -0.277499,0.023 -0.562701,0.063 -0.846154,0.063 -0.283453,0 -0.568655,-0.039 -0.846154,-0.063 l -0.407407,-2.037 c -0.553717,-0.087 -1.088252,-0.245 -1.598291,-0.4388 l -1.410256,1.567 c -0.51784,-0.2434 -1.008096,-0.5215 -1.472935,-0.8462 l 0.65812,-1.9743 c -0.420756,-0.3435 -0.816144,-0.7389 -1.159544,-1.1597 l -1.974359,0.6583 c -0.324705,-0.465 -0.602827,-0.9552 -0.846154,-1.473 l 1.566952,-1.4103 c -0.193906,-0.51 -0.351996,-1.0446 -0.438747,-1.5982 l -2.037037,-0.4075 c -0.02305,-0.2776 -0.06268,-0.5628 -0.06268,-0.8462 0,-0.2833 0.03962,-0.5685 0.06268,-0.846 l 2.037037,-0.4076 c 0.08675,-0.5536 0.244841,-1.0882 0.438747,-1.5981 l -1.566952,-1.4104 c 0.243327,-0.5178 0.521449,-1.0079 0.846154,-1.4729 l 1.974359,0.6582 c 0.3434,-0.4208 0.738788,-0.8161 1.159544,-1.1596 l -0.65812,-1.9744 c 0.464839,-0.3247 0.955095,-0.6027 1.472935,-0.8461 l 1.410256,1.567 c 0.510039,-0.1938 1.044574,-0.352 1.598291,-0.4388 l 0.407407,-2.0371 c 0.277499,-0.023 0.562701,-0.063 0.846154,-0.063 z m 0,4.0114 c -3.323153,0 -6.017094,2.694 -6.017094,6.0171 0,0.6681 0.112401,1.3114 0.31339,1.9118 -8e-5,0.01 -8e-5,0.021 0,0.031 -0.523459,0.8426 -0.292616,2.0691 0.501425,2.6638 l 4.011396,3.0085 c 0.684002,0.5047 1.697764,0.5047 2.381766,0 l 4.011396,-3.0085 c 0.784058,-0.6037 1.000156,-1.8283 0.470086,-2.6638 8e-5,-0.01 8e-5,-0.021 0,-0.031 0.202988,-0.6031 0.344729,-1.2402 0.344729,-1.9118 0,-3.3231 -2.69394,-6.0171 -6.017094,-6.0171 z m 0,0.9716 c 2.806511,0 5.045584,2.2391 5.045584,5.0455 0,0.421 -0.06157,0.8325 -0.156695,1.2224 -0.270804,-0.1385 -0.573422,-0.2142 -0.877493,-0.2195 l 0,-2.0057 c -1.05e-4,-1.0502 -0.955547,-1.9742 -2.005699,-1.9743 l -4.011396,0 c -0.06263,0 -0.125402,0 -0.188034,0 -0.985968,0.093 -1.821934,1.0154 -1.817664,2.0057 l 1e-6,1.9743 c -0.304071,0.01 -0.606689,0.081 -0.877493,0.2195 -0.09512,-0.3899 -0.156695,-0.8014 -0.156695,-1.2224 0,-2.8064 2.239073,-5.0455 5.045584,-5.0455 z m -2.193732,3.0712 c 0.03132,0 0.0627,0 0.09402,0 0.03132,0 0.0627,0 0.09402,0 l 4.011396,0 c 0.508651,10e-5 1.002771,0.4942 1.002848,1.0029 l 0,3.0085 1.002849,0 c 0.819401,-0.018 1.256446,1.2705 0.595442,1.755 l -4.011396,3.0086 c -0.337641,0.2618 -0.853243,0.2618 -1.190884,0 l -4.011396,-3.0086 c -0.661004,-0.4845 -0.223959,-1.7727 0.595442,-1.755 l 1.002849,0 0.03134,-3.0399 c -0.0084,-0.4517 0.340259,-0.8841 0.783477,-0.9715 z"
           id="path3928"
           inkscape:connector-curvature="0"
           sodipodi:nodetypes="sccccccccccccccccccsccccccccccccccccccsccccccccccccccccccsccccccccccccccccccssccccccccccccsccccccccccccsccccccccccccsccccccccccccsssccccccccsssscccccccccssccccccccccccccc" />
        <rect
           y="1016.6949"
           x="18.514719"
           height="24"
           width="24"
           id="rect3930"
           style="fill:none;stroke:none" />
        <path
           id="path4070"
           d="m 30.514718,1018.6653 c -0.283453,0 -0.568655,0.038 -0.846154,0.062 l -0.407407,2.0371 c -0.553717,0.087 -1.088252,0.245 -1.598291,0.4388 l -1.410256,-1.567 c -0.51784,0.2434 -1.008096,0.5214 -1.472935,0.8461 l 0.65812,1.9744 c -0.420756,0.3435 -0.816144,0.7389 -1.159544,1.1596 l -1.974359,-0.6582 c -0.324705,0.465 -0.602827,0.9551 -0.846154,1.473 l 1.566952,1.4103 c -0.193906,0.5099 -0.351996,1.0445 -0.438747,1.5982 l -2.037037,0.4075 c -0.02305,0.2775 -0.06268,0.5628 -0.06268,0.8461 0,0.2834 0.03962,0.5685 0.06268,0.8461 l 2.037037,0.4076 c 0.08675,0.5536 0.244841,1.0881 0.438747,1.5981 l -1.566952,1.4104 c 0.243327,0.5178 0.521449,1.0079 0.846154,1.4729 l 1.974359,-0.6582 c 0.3434,0.4208 0.738788,0.8161 1.159544,1.1596 l -0.65812,1.9744 c 0.464839,0.3246 0.955095,0.6027 1.472935,0.8461 l 1.410256,-1.567 c 0.510039,0.1938 1.044574,0.352 1.598291,0.4388 l 0.407407,2.0371 c 0.277499,0.023 0.562701,0.062 0.846154,0.062 0.283453,0 0.568655,-0.039 0.846154,-0.062 l 0.407407,-2.0371 c 0.553717,-0.087 1.088252,-0.245 1.598291,-0.4388 l 1.410256,1.567 c 0.517841,-0.2434 1.008096,-0.5215 1.472935,-0.8461 l -0.65812,-1.9744 c 0.420756,-0.3435 0.816144,-0.7388 1.159544,-1.1596 l 1.974359,0.6582 c 0.324705,-0.465 0.602828,-0.9551 0.846154,-1.4729 l -1.566952,-1.4104 c 0.193907,-0.51 0.351996,-1.0445 0.438747,-1.5981 l 2.037037,-0.4076 c 0.02305,-0.2776 0.06268,-0.5627 0.06268,-0.8461 0,-0.2833 -0.03962,-0.5686 -0.06268,-0.8461 l -2.037037,-0.4075 c -0.08675,-0.5537 -0.24484,-1.0883 -0.438747,-1.5982 l 1.566952,-1.4103 c -0.243326,-0.5179 -0.521449,-1.008 -0.846154,-1.473 l -1.974359,0.6582 c -0.3434,-0.4207 -0.738788,-0.8161 -1.159544,-1.1596 l 0.65812,-1.9744 c -0.464839,-0.3247 -0.955094,-0.6027 -1.472935,-0.8461 l -1.410256,1.567 c -0.510039,-0.1938 -1.044574,-0.352 -1.598291,-0.4388 l -0.407407,-2.0371 c -0.277499,-0.023 -0.562701,-0.062 -0.846154,-0.062 z m 0,4.0114 c 3.323154,0 6.017094,2.6941 6.017094,6.0172 0,0.6715 -0.141741,1.3086 -0.344729,1.9117 8e-5,0.01 8e-5,0.021 0,0.031 0.53007,0.8355 0.313972,2.06 -0.470086,2.6637 l -4.011396,3.0085 c -0.684002,0.5047 -1.697764,0.5047 -2.381766,0 l -4.011396,-3.0085 c -0.794041,-0.5947 -1.024884,-1.8211 -0.501425,-2.6637 -0.0032,-0.01 0.0031,-0.022 0,-0.031 -0.200989,-0.6004 -0.31339,-1.2437 -0.31339,-1.9117 0,-3.3231 2.693941,-6.0172 6.017094,-6.0172 z"
           style="fill:url(#linearGradient4072);fill-opacity:1;stroke:none"
           inkscape:connector-curvature="0" />
        <path
           id="path3932"
           d="m 28.320986,1026.7195 c -0.443217,0.087 -0.791941,0.5198 -0.783476,0.9715 l -0.03134,3.0399 -1.002847,0 c -0.819401,-0.018 -1.256444,1.2705 -0.59544,1.755 l 4.011396,3.0086 c 0.337641,0.2618 0.853243,0.2618 1.190884,0 l 4.011396,-3.0086 c 0.661004,-0.4845 0.223959,-1.7727 -0.595442,-1.755 l -1.00285,0 0,-3.0085 c -7.7e-5,-0.5087 -0.494197,-1.0028 -1.002848,-1.0029 l -4.011396,0 c -0.03132,0 -0.0627,0 -0.09402,0 -0.03132,0 -0.0627,0 -0.09402,0 z"
           style="fill:url(#linearGradient4081);fill-opacity:1;stroke:none"
           inkscape:connector-curvature="0" />
      </g>
    </g>
    <g
       id="kpackagekit-important">
      <g
         id="g4055"
         transform="translate(-6.9999988,0)">
        <path
           sodipodi:nodetypes="sccccccccccccccccccsccccccccccccccccccsccccccccccccccccccsccccccccccccccccccssccccccccccccsccccccccccccsccccccccccccsccccccccccccsssccccccccsssscccccccccssccccccccccccccc"
           inkscape:connector-curvature="0"
           id="path3974"
           d="m 58.514711,1017.6949 c -0.372533,0 -0.698861,0.074 -0.94017,0.094 -0.402112,0.037 -0.761757,0.3572 -0.846154,0.7521 l -0.282051,1.473 c -0.157323,0.039 -0.31814,0.047 -0.470086,0.094 l -1.002848,-1.0967 c -0.267476,-0.3157 -0.752247,-0.4234 -1.128204,-0.2508 -0.561415,0.2639 -1.084853,0.5816 -1.59829,0.9402 -0.345292,0.2307 -0.507168,0.7028 -0.376068,1.0968 l 0.470085,1.4103 c -0.105622,0.1008 -0.212686,0.2078 -0.313389,0.3134 l -1.410257,-0.4701 c -0.394033,-0.1312 -0.866181,0.031 -1.096865,0.376 -0.358653,0.5135 -0.676368,1.0369 -0.940171,1.5984 -0.172588,0.3759 -0.06486,0.8607 0.250712,1.1282 l 1.096866,1.0029 c -0.04682,0.1519 -0.0547,0.3126 -0.09402,0.47 l -1.472933,0.2821 c -0.394927,0.084 -0.714605,0.4439 -0.752137,0.8461 -0.02005,0.2413 -0.09402,0.5676 -0.09402,0.9402 0,0.3725 0.07397,0.6988 0.09402,0.9401 0.0375,0.4022 0.357181,0.7618 0.752137,0.8462 l 1.472933,0.282 c 0.03932,0.1574 0.04719,0.3181 0.09402,0.4701 l -1.096866,1.0029 c -0.315574,0.2675 -0.4233,0.7523 -0.250712,1.1282 0.263803,0.5614 0.581518,1.0848 0.940171,1.5983 0.230684,0.3452 0.702832,0.5072 1.096865,0.376 l 1.410257,-0.47 c 0.100703,0.1056 0.207767,0.2126 0.313389,0.3134 l -0.470085,1.4102 c -0.131148,0.394 0.03074,0.8662 0.376068,1.0969 0.513436,0.3586 1.036873,0.6763 1.59829,0.9402 0.375957,0.1726 0.860728,0.065 1.128204,-0.2508 l 1.002848,-1.0968 c 0.151946,0.047 0.312763,0.054 0.470086,0.094 l 0.282051,1.4729 c 0.0844,0.3949 0.444042,0.7146 0.846154,0.7521 0.241309,0.02 0.567637,0.094 0.94017,0.094 0.37254,0 0.698875,-0.074 0.94017,-0.094 0.402112,-0.037 0.761757,-0.3572 0.846154,-0.7521 l 0.282051,-1.4729 c 0.157325,-0.039 0.31814,-0.047 0.470086,-0.094 l 1.002848,1.0968 c 0.267476,0.3157 0.752247,0.4234 1.128204,0.2508 0.561418,-0.2639 1.084854,-0.5816 1.59829,-0.9402 0.345333,-0.2307 0.507216,-0.7029 0.376068,-1.0969 l -0.470085,-1.4102 c 0.105622,-0.1008 0.212687,-0.2078 0.313389,-0.3134 l 1.410257,0.47 c 0.394033,0.1312 0.866181,-0.031 1.096865,-0.376 0.358652,-0.5135 0.676368,-1.0369 0.940171,-1.5983 0.172588,-0.3759 0.06486,-0.8607 -0.250712,-1.1282 l -1.096866,-1.0029 c 0.04682,-0.152 0.05469,-0.3127 0.09402,-0.4701 l 1.472933,-0.282 c 0.394956,-0.084 0.714645,-0.444 0.752137,-0.8462 0.02005,-0.2413 0.09402,-0.5676 0.09402,-0.9401 0,-0.3726 -0.07397,-0.6989 -0.09402,-0.9402 -0.03753,-0.4022 -0.35721,-0.7617 -0.752137,-0.8461 l -1.472933,-0.2821 c -0.03932,-0.1574 -0.04719,-0.3181 -0.09402,-0.47 l 1.096866,-1.0029 c 0.315574,-0.2675 0.4233,-0.7523 0.250712,-1.1282 -0.263803,-0.5615 -0.581519,-1.0849 -0.940171,-1.5984 -0.230684,-0.3452 -0.702832,-0.5072 -1.096865,-0.376 l -1.410257,0.4701 c -0.100703,-0.1056 -0.207767,-0.2126 -0.313389,-0.3134 l 0.470085,-1.4103 c 0.1311,-0.394 -0.03078,-0.8661 -0.376068,-1.0968 -0.513437,-0.3586 -1.036874,-0.6763 -1.59829,-0.9402 -0.375957,-0.1726 -0.860728,-0.065 -1.128204,0.2508 l -1.002848,1.0967 c -0.151945,-0.047 -0.312762,-0.054 -0.470086,-0.094 l -0.282051,-1.473 c -0.0844,-0.3949 -0.444042,-0.7146 -0.846154,-0.7521 -0.241309,-0.02 -0.567637,-0.094 -0.94017,-0.094 z m 0,0.9714 c 0.283453,0 0.568655,0.039 0.846154,0.063 l 0.407406,2.0371 c 0.553717,0.087 1.088252,0.245 1.59829,0.4388 l 1.410256,-1.567 c 0.51784,0.2434 1.008095,0.5214 1.472934,0.8461 l -0.65812,1.9744 c 0.420756,0.3435 0.816144,0.7388 1.159544,1.1596 l 1.974358,-0.6582 c 0.324704,0.465 0.602827,0.9551 0.846153,1.4729 l -1.566951,1.4104 c 0.193907,0.5099 0.351996,1.0445 0.438747,1.5981 l 2.037036,0.4076 c 0.02305,0.2775 0.06268,0.5627 0.06268,0.846 0,0.2834 -0.03962,0.5686 -0.06268,0.8462 l -2.037036,0.4075 c -0.08675,0.5536 -0.24484,1.0882 -0.438747,1.5982 l 1.566951,1.4103 c -0.243326,0.5178 -0.521449,1.008 -0.846153,1.473 l -1.974358,-0.6583 c -0.3434,0.4208 -0.738788,0.8162 -1.159544,1.1597 l 0.65812,1.9743 c -0.464839,0.3247 -0.955094,0.6028 -1.472934,0.8462 l -1.410256,-1.567 c -0.510038,0.1938 -1.044573,0.352 -1.59829,0.4388 l -0.407406,2.037 c -0.277499,0.023 -0.562701,0.063 -0.846154,0.063 -0.283453,0 -0.568655,-0.039 -0.846154,-0.063 l -0.407406,-2.037 c -0.553717,-0.087 -1.088252,-0.245 -1.59829,-0.4388 l -1.410256,1.567 c -0.517839,-0.2434 -1.008095,-0.5215 -1.472934,-0.8462 l 0.65812,-1.9743 c -0.420756,-0.3435 -0.816144,-0.7389 -1.159544,-1.1597 l -1.974358,0.6583 c -0.324704,-0.465 -0.602826,-0.9552 -0.846153,-1.473 l 1.566951,-1.4103 c -0.193906,-0.51 -0.351996,-1.0446 -0.438747,-1.5982 l -2.037036,-0.4075 c -0.02305,-0.2776 -0.06268,-0.5628 -0.06268,-0.8462 0,-0.2833 0.03962,-0.5685 0.06268,-0.846 l 2.037036,-0.4076 c 0.08675,-0.5536 0.244841,-1.0882 0.438747,-1.5981 l -1.566951,-1.4104 c 0.243327,-0.5178 0.521449,-1.0079 0.846153,-1.4729 l 1.974358,0.6582 c 0.3434,-0.4208 0.738788,-0.8161 1.159544,-1.1596 l -0.65812,-1.9744 c 0.464839,-0.3247 0.955095,-0.6027 1.472934,-0.8461 l 1.410256,1.567 c 0.510038,-0.1938 1.044573,-0.352 1.59829,-0.4388 l 0.407406,-2.0371 c 0.277499,-0.023 0.562701,-0.063 0.846154,-0.063 z m 0,4.0114 c -3.323151,0 -6.017091,2.694 -6.017091,6.0171 0,0.6681 0.112401,1.3114 0.31339,1.9118 -8e-5,0.01 -8e-5,0.021 0,0.031 -0.523459,0.8426 -0.292616,2.0691 0.501425,2.6638 l 4.011394,3.0085 c 0.684001,0.5047 1.697763,0.5047 2.381764,0 l 4.011394,-3.0085 c 0.784058,-0.6037 1.000156,-1.8283 0.470086,-2.6638 8e-5,-0.01 8e-5,-0.021 0,-0.031 0.202988,-0.6031 0.344729,-1.2402 0.344729,-1.9118 0,-3.3231 -2.693939,-6.0171 -6.017091,-6.0171 z m 0,0.9716 c 2.806509,0 5.045581,2.2391 5.045581,5.0455 0,0.421 -0.06158,0.8325 -0.156695,1.2224 -0.270804,-0.1385 -0.573421,-0.2142 -0.877492,-0.2195 l 0,-3.0086 c -1.05e-4,-1.0501 -0.955547,-1.9742 -2.005698,-1.9743 l -4.011394,0 c -0.06263,0 -0.125402,0 -0.188034,0 -0.985967,0.093 -1.821933,1.0155 -1.817663,2.0057 l 1e-6,2.9772 c -0.304071,0.01 -0.606688,0.081 -0.877492,0.2195 -0.09512,-0.3899 -0.156695,-0.8014 -0.156695,-1.2224 0,-2.8064 2.239072,-5.0455 5.045581,-5.0455 z m -2.193731,2.0684 c 0.03132,0 0.0627,0 0.09402,0 0.03132,0 0.0627,0 0.09402,0 l 4.011394,0 c 0.508651,10e-5 1.00277,0.4942 1.002847,1.0028 l 0,4.0114 1.002849,0 c 0.8194,-0.018 1.256445,1.2705 0.595441,1.755 l -4.011393,3.0086 c -0.337641,0.2618 -0.853243,0.2618 -1.190884,0 l -4.011393,-3.0086 c -0.661004,-0.4845 -0.223959,-1.7727 0.595441,-1.755 l 1.002849,0 0.03134,-4.0428 c -0.0084,-0.4516 0.340258,-0.884 0.783476,-0.9714 z"
           style="fill:#000000;fill-opacity:0.39215686;stroke:none" />
        <rect
           style="fill:none;stroke:none"
           id="rect3976"
           width="24"
           height="24"
           x="46.514717"
           y="1016.6949" />
        <path
           style="fill:url(#linearGradient3980);fill-opacity:1;stroke:none"
           d="m 58.514711,1018.6663 c -0.283453,0 -0.568655,0.039 -0.846154,0.063 l -0.407406,2.0371 c -0.553717,0.087 -1.088252,0.245 -1.59829,0.4388 l -1.410256,-1.567 c -0.517839,0.2434 -1.008095,0.5214 -1.472934,0.8461 l 0.65812,1.9744 c -0.420756,0.3435 -0.816144,0.7388 -1.159544,1.1596 l -1.974358,-0.6582 c -0.324704,0.465 -0.602826,0.9551 -0.846153,1.4729 l 1.566951,1.4104 c -0.193906,0.5099 -0.351996,1.0445 -0.438747,1.5981 l -2.037036,0.4076 c -0.02305,0.2775 -0.06268,0.5627 -0.06268,0.846 0,0.2834 0.03962,0.5686 0.06268,0.8462 l 2.037036,0.4075 c 0.08675,0.5536 0.244841,1.0882 0.438747,1.5982 l -1.566951,1.4103 c 0.243327,0.5178 0.521449,1.008 0.846153,1.473 l 1.974358,-0.6583 c 0.3434,0.4208 0.738788,0.8162 1.159544,1.1597 l -0.65812,1.9743 c 0.464839,0.3247 0.955095,0.6028 1.472934,0.8462 l 1.410256,-1.567 c 0.510038,0.1938 1.044573,0.352 1.59829,0.4388 l 0.407406,2.037 c 0.277499,0.023 0.562701,0.063 0.846154,0.063 0.283453,0 0.568655,-0.039 0.846154,-0.063 l 0.407406,-2.037 c 0.553717,-0.087 1.088252,-0.245 1.59829,-0.4388 l 1.410256,1.567 c 0.51784,-0.2434 1.008095,-0.5215 1.472934,-0.8462 l -0.65812,-1.9743 c 0.420756,-0.3435 0.816144,-0.7389 1.159544,-1.1597 l 1.974358,0.6583 c 0.324704,-0.465 0.602827,-0.9552 0.846153,-1.473 l -1.566951,-1.4103 c 0.193907,-0.51 0.351996,-1.0446 0.438747,-1.5982 l 2.037036,-0.4075 c 0.02305,-0.2776 0.06268,-0.5628 0.06268,-0.8462 0,-0.2833 -0.03962,-0.5685 -0.06268,-0.846 l -2.037036,-0.4076 c -0.08675,-0.5536 -0.24484,-1.0882 -0.438747,-1.5981 l 1.566951,-1.4104 c -0.243326,-0.5178 -0.521449,-1.0079 -0.846153,-1.4729 l -1.974358,0.6582 c -0.3434,-0.4208 -0.738788,-0.8161 -1.159544,-1.1596 l 0.65812,-1.9744 c -0.464839,-0.3247 -0.955094,-0.6027 -1.472934,-0.8461 l -1.410256,1.567 c -0.510038,-0.1938 -1.044573,-0.352 -1.59829,-0.4388 l -0.407406,-2.0371 c -0.277499,-0.023 -0.562701,-0.063 -0.846154,-0.063 z m 0,4.0114 c 3.323152,0 6.017091,2.694 6.017091,6.0171 0,0.6716 -0.141741,1.3087 -0.344729,1.9118 8e-5,0.01 8e-5,0.021 0,0.031 0.53007,0.8355 0.313972,2.0601 -0.470086,2.6638 l -4.011394,3.0085 c -0.684001,0.5047 -1.697763,0.5047 -2.381764,0 l -4.011394,-3.0085 c -0.794041,-0.5947 -1.024884,-1.8212 -0.501425,-2.6638 -0.0032,-0.01 0.0031,-0.022 0,-0.031 -0.200989,-0.6004 -0.31339,-1.2437 -0.31339,-1.9118 0,-3.3231 2.69394,-6.0171 6.017091,-6.0171 z m -2.193731,3.04 c -0.443217,0.087 -0.79194,0.5198 -0.783475,0.9714 l -0.03134,4.0428 -1.002847,0 c -0.8194,-0.018 -1.256443,1.2705 -0.595439,1.755 l 4.011393,3.0086 c 0.337641,0.2618 0.853243,0.2618 1.190884,0 l 4.011393,-3.0086 c 0.661004,-0.4845 0.223959,-1.7727 -0.595441,-1.755 l -1.00285,0 0,-4.0114 c -7.7e-5,-0.5086 -0.494196,-1.0027 -1.002847,-1.0028 l -4.011394,0 c -0.03132,0 -0.0627,0 -0.09402,0 -0.03132,0 -0.0627,0 -0.09402,0 z"
           id="path3982"
           inkscape:connector-curvature="0"
           sodipodi:nodetypes="sccccccccccccsccccccccccccsccccccccccccsccccccccccccsssccccccccssccccccccccccccc" />
        <ellipse
           style="fill:url(#radialGradient4131);fill-opacity:1;stroke:none"
           id="path4102"
           cx="58.514717"
           cy="1028.7263"
           rx="1.6609734"
           ry="1.6609741" />
      </g>
    </g>
    <g
       id="kpackagekit-security"
       transform="translate(-8.9999988,0)">
      <g
         id="g4061">
        <path
           style="fill:#000000;fill-opacity:0.39215686;stroke:none"
           d="m 84.514767,1017.6949 c -0.372535,0 -0.698864,0.074 -0.940175,0.094 a 0.95606887,0.95607744 0 0 0 -0.846158,0.7521 l -0.282052,1.4729 c -0.157324,0.039 -0.318142,0.047 -0.470088,0.094 l -1.002854,-1.0969 a 0.95606887,0.95607744 0 0 0 -1.12821,-0.2507 c -0.561417,0.2637 -1.084858,0.5814 -1.598298,0.9401 a 0.95606887,0.95607744 0 0 0 -0.37607,1.097 l 0.470088,1.4101 c -0.105623,0.1008 -0.212687,0.2078 -0.313392,0.3135 l -1.410263,-0.4701 a 0.95606887,0.95607744 0 0 0 -1.096871,0.3762 c -0.358654,0.5134 -0.676371,1.0367 -0.940175,1.5982 a 0.95606887,0.95607744 0 0 0 0.250713,1.1283 l 1.096871,1.0029 c -0.04682,0.1519 -0.0547,0.3127 -0.09402,0.47 l -1.472941,0.2821 a 0.95606887,0.95607744 0 0 0 -0.75214,0.8461 c -0.02005,0.2413 -0.09402,0.5677 -0.09402,0.9402 0,0.3725 0.07397,0.6989 0.09402,0.9402 a 0.95606887,0.95607744 0 0 0 0.75214,0.8462 l 1.472941,0.282 c 0.03932,0.1573 0.04719,0.3181 0.09402,0.4701 l -1.096871,1.0029 a 0.95606887,0.95607744 0 0 0 -0.250713,1.1283 c 0.263804,0.5613 0.581521,1.0847 0.940175,1.5981 a 0.95606887,0.95607744 0 0 0 1.096871,0.3762 l 1.410263,-0.4701 c 0.100705,0.1056 0.207769,0.2126 0.313392,0.3135 l -0.470088,1.4101 a 0.95606887,0.95607744 0 0 0 0.37607,1.097 c 0.51344,0.3586 1.03688,0.6763 1.598298,0.9401 a 0.95606887,0.95607744 0 0 0 1.12821,-0.2507 l 1.002854,-1.0969 c 0.151946,0.047 0.312764,0.054 0.470088,0.094 l 0.282052,1.4729 a 0.95606887,0.95607744 0 0 0 0.846158,0.7521 c 0.241311,0.02 0.56764,0.094 0.940175,0.094 0.372542,0 0.698879,-0.074 0.940175,-0.094 a 0.95606887,0.95607744 0 0 0 0.846158,-0.7521 l 0.282053,-1.4729 c 0.157325,-0.039 0.318141,-0.047 0.470087,-0.094 l 1.002854,1.0969 a 0.95606887,0.95607744 0 0 0 1.12821,0.2507 c 0.561421,-0.2638 1.084859,-0.5815 1.598298,-0.9401 a 0.95606887,0.95607744 0 0 0 0.37607,-1.097 l -0.470088,-1.4101 c 0.105623,-0.1009 0.212689,-0.2079 0.313392,-0.3135 l 1.410263,0.4701 a 0.95606887,0.95607744 0 0 0 1.096871,-0.3762 c 0.358651,-0.5134 0.676375,-1.0368 0.940175,-1.5981 a 0.95606887,0.95607744 0 0 0 -0.250713,-1.1283 l -1.096871,-1.0029 c 0.04683,-0.152 0.05465,-0.3128 0.09397,-0.4701 l 1.472941,-0.282 a 0.95606887,0.95607744 0 0 0 0.752141,-0.8462 c 0.02006,-0.2413 0.09397,-0.5677 0.09397,-0.9402 0,-0.3725 -0.07401,-0.6989 -0.09397,-0.9402 a 0.95606887,0.95607744 0 0 0 -0.752141,-0.8461 l -1.472891,-0.2821 c -0.03931,-0.1573 -0.04723,-0.3181 -0.09397,-0.47 l 1.096871,-1.0029 a 0.95606887,0.95607744 0 0 0 0.250714,-1.1283 c -0.263851,-0.5615 -0.581575,-1.0848 -0.940226,-1.5982 a 0.95606887,0.95607744 0 0 0 -1.096871,-0.3762 l -1.410263,0.4701 c -0.100704,-0.1057 -0.207769,-0.2127 -0.313392,-0.3135 l 0.470088,-1.4101 a 0.95606887,0.95607744 0 0 0 -0.37607,-1.097 c -0.51344,-0.3587 -1.036879,-0.6764 -1.598298,-0.9401 a 0.95606887,0.95607744 0 0 0 -1.12821,0.2507 l -1.002854,1.0969 c -0.151945,-0.047 -0.312763,-0.054 -0.470087,-0.094 L 86.3011,1018.541 a 0.95606887,0.95607744 0 0 0 -0.846158,-0.7521 c -0.24131,-0.02 -0.56764,-0.094 -0.940175,-0.094 z m 0,0.9716 c 0.283455,0 0.568658,0.04 0.846158,0.062 l 0.407409,2.037 c 0.55372,0.086 1.088257,0.2448 1.598298,0.4387 l 1.410263,-1.567 c 0.517843,0.2433 1.0081,0.5215 1.472941,0.8463 l -0.658123,1.9743 c 0.420759,0.3434 0.816148,0.7388 1.15955,1.1596 l 1.974368,-0.6582 c 0.324704,0.4648 0.602825,0.9551 0.846157,1.4731 l -1.566958,1.4102 c 0.193912,0.5099 0.352001,1.0446 0.438748,1.5983 l 2.037047,0.4075 c 0.02305,0.2774 0.06268,0.5627 0.06268,0.8461 0,0.2834 -0.03961,0.5685 -0.06268,0.8462 l -2.037047,0.4074 c -0.08675,0.5537 -0.244836,1.0883 -0.438748,1.5984 l 1.566958,1.4101 c -0.243332,0.518 -0.521453,1.0082 -0.846157,1.4731 l -1.974368,-0.6582 c -0.343402,0.4208 -0.738791,0.8161 -1.15955,1.1596 l 0.658123,1.9743 c -0.464841,0.3248 -0.955098,0.6029 -1.472941,0.8463 l -0.940175,-1.0656 c 0.949921,-0.1529 1.692315,-0.9871 1.692315,-1.9745 l 0,-2.6951 c 0.633623,-0.9531 1.002854,-2.0918 1.002854,-3.322 0,-3.3232 -2.693953,-6.0171 -6.017122,-6.0171 -3.323168,0 -6.017121,2.6939 -6.017121,6.0171 0,1.2302 0.36923,2.3689 1.002853,3.322 l 0,2.6951 c 0,0.9874 0.742395,1.8216 1.692316,1.9745 l -0.940176,1.0656 c -0.517842,-0.2434 -1.0081,-0.5215 -1.472941,-0.8463 l 0.658123,-1.9743 c -0.420758,-0.3435 -0.816147,-0.7388 -1.15955,-1.1596 l -1.974367,0.6582 c -0.324706,-0.4649 -0.60283,-0.9551 -0.846158,-1.4731 l 1.566959,-1.4101 c -0.193907,-0.5101 -0.351998,-1.0447 -0.438749,-1.5984 l -2.037046,-0.4074 c -0.02306,-0.2777 -0.06268,-0.5628 -0.06268,-0.8462 0,-0.2834 0.03962,-0.5687 0.06268,-0.8461 l 2.037046,-0.4075 c 0.08675,-0.5537 0.244842,-1.0884 0.438749,-1.5983 l -1.566959,-1.4102 c 0.243328,-0.518 0.521452,-1.0083 0.846158,-1.4731 l 1.974367,0.6582 c 0.343403,-0.4208 0.738792,-0.8162 1.15955,-1.1596 l -0.658123,-1.9743 c 0.464841,-0.3248 0.955099,-0.603 1.472941,-0.8463 l 1.410263,1.567 c 0.510042,-0.1939 1.044579,-0.352 1.598298,-0.4387 l 0.407409,-2.037 c 0.2775,-0.023 0.562704,-0.062 0.846158,-0.062 z m 0,4.9829 c 2.806524,0 5.045607,2.2391 5.045607,5.0457 0,0.4561 -0.07696,0.8973 -0.188035,1.3163 -0.177835,-0.3603 -0.490642,-0.6494 -0.846158,-0.8776 l 0,-0.4387 c 0,-2.2023 -1.809163,-4.0114 -4.011414,-4.0114 -2.20225,0 -4.011414,1.8091 -4.011414,4.0114 l 0,0.4387 c -0.355516,0.2282 -0.668323,0.5173 -0.846158,0.8776 -0.111078,-0.419 -0.188035,-0.8602 -0.188035,-1.3163 0,-2.8066 2.239084,-5.0457 5.045607,-5.0457 z m 0,2.0371 c 1.6616,0 3.008561,1.3469 3.008561,3.0086 l 0,1.0029 c 0.555555,0 1.002853,0.4473 1.002853,1.0028 l 0,4.0114 c 0,0.5557 -0.447298,1.003 -1.002853,1.003 l -6.017122,0 c -0.555554,0 -1.002853,-0.4473 -1.002853,-1.003 l 0,-4.0114 c 0,-0.5555 0.447299,-1.0028 1.002853,-1.0028 l 0,-1.0029 c 0,-1.6617 1.346961,-3.0086 3.008561,-3.0086 z m 0,1.0029 c -1.107722,0 -2.005707,0.8979 -2.005707,2.0057 l 0,1.0029 4.011414,0 0,-1.0029 c 0,-1.1078 -0.897986,-2.0057 -2.005707,-2.0057 z m 0,1.0028 c 0.567057,0 1.002854,0.4359 1.002854,1.0029 l -2.005707,0 c 0,-0.567 0.435795,-1.0029 1.002853,-1.0029 z m -1.222228,9.0258 2.444456,0 -0.37607,1.943 c -0.2775,0.023 -0.562703,0.062 -0.846158,0.062 -0.283454,0 -0.568658,-0.038 -0.846158,-0.062 l -0.37607,-1.943 z"
           id="path4009"
           inkscape:connector-curvature="0" />
        <rect
           style="fill:none;stroke:none"
           id="rect4011"
           width="24"
           height="24"
           x="72.514717"
           y="1016.6949" />
        <path
           style="fill:url(#linearGradient4042);fill-opacity:1;stroke:none"
           d="m 84.514767,1018.6665 c -0.283454,0 -0.568658,0.04 -0.846158,0.062 l -0.407409,2.037 c -0.553719,0.086 -1.088256,0.2448 -1.598298,0.4387 l -1.410263,-1.567 c -0.517842,0.2433 -1.0081,0.5215 -1.472941,0.8463 l 0.658123,1.9743 c -0.420758,0.3434 -0.816147,0.7388 -1.15955,1.1596 l -1.974367,-0.6582 c -0.324706,0.4648 -0.60283,0.9551 -0.846158,1.4731 l 1.566959,1.4102 c -0.193907,0.5099 -0.351998,1.0446 -0.438749,1.5983 l -2.037046,0.4075 c -0.02306,0.2774 -0.06268,0.5627 -0.06268,0.8461 0,0.2834 0.03962,0.5685 0.06268,0.8462 l 2.037046,0.4074 c 0.08675,0.5537 0.244842,1.0883 0.438749,1.5984 l -1.566959,1.4101 c 0.243328,0.518 0.521452,1.0082 0.846158,1.4731 l 1.974367,-0.6582 c 0.343403,0.4208 0.738792,0.8161 1.15955,1.1596 l -0.658123,1.9743 c 0.464841,0.3248 0.955099,0.6029 1.472941,0.8463 l 0.940176,-1.0656 c -0.949921,-0.1529 -1.692316,-0.9871 -1.692316,-1.9745 l 0,-2.6951 c -0.633623,-0.9531 -1.002853,-2.0918 -1.002853,-3.322 0,-3.3232 2.693953,-6.0171 6.017121,-6.0171 3.323169,0 6.017122,2.6939 6.017122,6.0171 0,1.2302 -0.369231,2.3689 -1.002854,3.322 l 0,2.6951 c 0,0.9874 -0.742394,1.8216 -1.692315,1.9745 l 0.940175,1.0656 c 0.517843,-0.2434 1.0081,-0.5215 1.472941,-0.8463 l -0.658123,-1.9743 c 0.420759,-0.3435 0.816148,-0.7388 1.15955,-1.1596 l 1.974368,0.6582 c 0.324704,-0.4649 0.602825,-0.9551 0.846157,-1.4731 l -1.566958,-1.4101 c 0.193912,-0.5101 0.352001,-1.0447 0.438748,-1.5984 l 2.037047,-0.4074 c 0.02305,-0.2777 0.06268,-0.5628 0.06268,-0.8462 0,-0.2834 -0.03961,-0.5687 -0.06268,-0.8461 l -2.037047,-0.4075 c -0.08675,-0.5537 -0.244836,-1.0884 -0.438748,-1.5983 l 1.566958,-1.4102 c -0.243332,-0.518 -0.521453,-1.0083 -0.846157,-1.4731 l -1.974368,0.6582 c -0.343402,-0.4208 -0.738791,-0.8162 -1.15955,-1.1596 l 0.658123,-1.9743 c -0.464841,-0.3248 -0.955098,-0.603 -1.472941,-0.8463 l -1.410263,1.567 c -0.510041,-0.1939 -1.044578,-0.352 -1.598298,-0.4387 l -0.407409,-2.037 c -0.2775,-0.023 -0.562703,-0.062 -0.846158,-0.062 z m 0,7.02 c -1.6616,0 -3.008561,1.3469 -3.008561,3.0086 l 0,1.0029 c -0.555554,0 -1.002853,0.4473 -1.002853,1.0028 l 0,4.0114 c 0,0.5557 0.447299,1.003 1.002853,1.003 l 6.017122,0 c 0.555555,0 1.002853,-0.4473 1.002853,-1.003 l 0,-4.0114 c 0,-0.5555 -0.447298,-1.0028 -1.002853,-1.0028 l 0,-1.0029 c 0,-1.6617 -1.346961,-3.0086 -3.008561,-3.0086 z m 0,1.0029 c 1.107721,0 2.005707,0.8979 2.005707,2.0057 l 0,1.0029 -4.011414,0 0,-1.0029 c 0,-1.1078 0.897985,-2.0057 2.005707,-2.0057 z m -1.222228,10.0286 0.37607,1.943 c 0.2775,0.023 0.562704,0.062 0.846158,0.062 0.283455,0 0.568658,-0.038 0.846158,-0.062 l 0.37607,-1.943 -2.444456,0 z"
           id="path4013"
           inkscape:connector-curvature="0" />
      </g>
    </g>
  </g>
</svg>
