<?xml version="1.0" encoding="UTF-8" standalone="no"?>
<!-- Created with Inkscape (http://www.inkscape.org/) -->

<svg
   xmlns:dc="http://purl.org/dc/elements/1.1/"
   xmlns:cc="http://creativecommons.org/ns#"
   xmlns:rdf="http://www.w3.org/1999/02/22-rdf-syntax-ns#"
   xmlns:svg="http://www.w3.org/2000/svg"
   xmlns="http://www.w3.org/2000/svg"
   xmlns:xlink="http://www.w3.org/1999/xlink"
   xmlns:sodipodi="http://sodipodi.sourceforge.net/DTD/sodipodi-0.dtd"
   xmlns:inkscape="http://www.inkscape.org/namespaces/inkscape"
   id="svg2"
   sodipodi:version="0.32"
   inkscape:version="0.91 r13725"
   width="24"
   height="24"
   sodipodi:docname="nepomuk.svgz"
   inkscape:output_extension="org.inkscape.output.svg.inkscape"
   version="1.0"
   inkscape:export-filename="/home/pinheiro/pics/oxygen/scalable/apps/nepomuk.png"
   inkscape:export-xdpi="180"
   inkscape:export-ydpi="180">
  <sodipodi:namedview
     inkscape:window-height="1046"
     inkscape:window-width="1920"
     inkscape:pageshadow="2"
     inkscape:pageopacity="0.74117647"
     guidetolerance="10.0"
     gridtolerance="1"
     objecttolerance="10.0"
     borderopacity="1.0"
     bordercolor="#666666"
     pagecolor="#bbbbbb"
     id="base"
     showgrid="true"
     inkscape:zoom="16"
     inkscape:cx="5.862725"
     inkscape:cy="11.986331"
     inkscape:window-x="0"
     inkscape:window-y="34"
     inkscape:current-layer="svg2"
     inkscape:snap-center="true"
     inkscape:snap-intersection-line-segments="true"
     inkscape:object-paths="true"
     inkscape:object-nodes="true"
     showguides="true"
     inkscape:guide-bbox="true"
     inkscape:window-maximized="1">
    <inkscape:grid
       snapvisiblegridlinesonly="true"
       empspacing="5"
       visible="true"
       enabled="true"
       id="grid5325"
       type="xygrid" />
  </sodipodi:namedview>
  <metadata
     id="metadata7">
    <rdf:RDF>
      <cc:Work
         rdf:about="">
        <dc:format>image/svg+xml</dc:format>
        <dc:type
           rdf:resource="http://purl.org/dc/dcmitype/StillImage" />
        <dc:title></dc:title>
      </cc:Work>
    </rdf:RDF>
  </metadata>
  <defs
     id="defs5">
    <linearGradient
       id="linearGradient3813">
      <stop
         style="stop-color:#ffffff;stop-opacity:1;"
         offset="0"
         id="stop3815" />
      <stop
         id="stop3817"
         offset="0.5"
         style="stop-color:#ffffff;stop-opacity:0.78431374;" />
      <stop
         style="stop-color:#ffffff;stop-opacity:0.39215687;"
         offset="0.75"
         id="stop3819" />
      <stop
         style="stop-color:#ffffff;stop-opacity:1;"
         offset="1"
         id="stop3821" />
    </linearGradient>
    <linearGradient
       inkscape:collect="always"
       xlink:href="#linearGradient3813"
       id="linearGradient3877"
       x1="6.2161241"
       y1="11.85625"
       x2="18.680017"
       y2="11.85625"
       gradientUnits="userSpaceOnUse"
       gradientTransform="matrix(1.0585997,0,0,1.0127888,-1.1786999,-0.01082687)" />
    <linearGradient
       inkscape:collect="always"
       xlink:href="#linearGradient3813"
       id="linearGradient3890"
       gradientUnits="userSpaceOnUse"
       gradientTransform="matrix(1.0585997,0,0,1.0127888,-1.1593015,-0.01082687)"
       x1="15.679517"
       y1="0.65822995"
       x2="15.679517"
       y2="22.124218" />
  </defs>
  <rect
     inkscape:export-ydpi="90"
     inkscape:export-xdpi="90"
     y="-1709"
     x="2915"
     height="166"
     width="410"
     id="rect4325"
     style="fill:#ffffff;fill-opacity:1;fill-rule:nonzero;stroke:none" />
  <g
     id="nepomuk">
    <g
       id="g3892">
      <path
         id="path3618"
         d="m 10.201247,1.0019619 c -2.1138981,0.054998 -4.0549934,1.3674498 -4.7636984,3.3865127 -0.909226,2.5903365 0.5669876,5.428148 3.2750429,6.2982814 0.345701,0.111077 0.676948,0.152711 0.959356,0.189897 a 1.0475074,1.0021765 0 0 0 0.03308,0.03165 c 0.109374,0.0087 0.113688,-0.006 0.132325,0 0.156647,0.05034 0.3451645,0.256059 0.3969745,0.411446 a 1.0475074,1.0021765 0 0 0 0.03308,0.09495 c 0.05019,0.109356 0.06335,0.199343 0,0.379795 -0.0153,0.04359 -0.01617,0.06719 -0.03308,0.09495 -0.01504,0.02467 -0.04325,0.03762 -0.06616,0.0633 a 1.0475074,1.0021765 0 0 0 0,0.03165 l 0,0.03165 c -1.0354285,0.921583 -1.7289242,2.158 -1.9517921,3.544761 -0.00379,0.02361 -0.029564,0.03961 -0.033081,0.0633 -0.00594,0.01982 -0.023793,0.0048 -0.033081,0.03165 -0.1002949,0.290304 -0.4360436,0.450875 -0.7608685,0.348146 -0.047809,-0.01512 -0.073307,-0.02496 -0.132325,-0.0633 -0.3409959,-0.217264 -0.6927729,-0.348326 -0.9924373,-0.443099 -2.0928049,-0.661867 -4.3704693,0.437055 -5.06143,2.437024 -0.6931499,2.00629 0.4442549,4.208952 2.5472556,4.874046 1.9706333,0.623226 4.0940037,-0.327968 4.9291051,-2.088877 a 1.0475074,1.0021765 0 0 0 0,-0.03165 c 0.1088378,-0.259243 0.4475907,-0.415572 0.7608687,-0.316496 0.105627,0.0334 0.188765,0.07222 0.26465,0.158248 a 1.0475074,1.0021765 0 0 0 0,0.03165 c 1.1694915,1.267351 2.8871805,2.088877 4.7967795,2.088877 3.536119,0 6.450842,-2.78846 6.450842,-6.171682 0,-1.246925 -0.433783,-2.399465 -1.091682,-3.354863 -0.06744,-0.112624 -0.08634,-0.209734 -0.06616,-0.348146 0.02312,-0.158641 0.06916,-0.225856 0.06616,-0.221548 l 0.297731,-0.348146 c 0.131334,-0.151935 0.259704,-0.208366 0.330813,-0.221548 1.265179,-0.248416 2.293241,-1.243112 2.481093,-2.5319723 0.234909,-1.6117231 -0.964943,-3.0988632 -2.646498,-3.3232133 -1.687347,-0.2251224 -3.269361,0.9041632 -3.506612,2.531972 -0.03954,0.2713385 -0.05894,0.5733884 0,0.9178399 0.004,0.02376 -0.0049,0.039175 0,0.063299 0.0011,0.026798 0.0043,0.064819 0,0.094949 -0.0124,0.085074 -0.03298,0.1351157 -0.06616,0.1898984 -0.0069,0.011414 -0.02536,0.020874 -0.03308,0.03165 L 16.453607,10.30696 c -0.01168,0.01336 -0.02134,0.01952 -0.03308,0.03165 -0.135787,0.140273 -0.297906,0.203674 -0.463137,0.189898 -0.01471,-0.0041 -0.01357,0.0045 -0.03308,0 -0.0056,-0.0013 0.006,-0.03035 0,-0.03165 -0.01016,-0.0022 -0.02284,0.0021 -0.03308,0 -0.365514,-0.07706 -0.75857,-0.144089 -1.157843,-0.158249 a 1.0475074,1.0021765 0 0 0 -0.03308,0 c -0.07408,-0.006 -0.07635,0.0032 -0.09924,0 -0.01527,-0.0021 -0.08182,-0.0051 -0.06616,0 -0.176951,-0.05686 -0.302648,-0.197872 -0.363893,-0.3797954 a 1.0475074,1.0021765 0 0 0 -0.03308,-0.094949 C 14.074964,9.7278 14.061484,9.5759718 14.104854,9.4524187 c 0.002,-0.00567 0.0248,-0.048887 0.03308,-0.063299 0.02745,-0.02775 0.03952,-0.066591 0.06616,-0.094949 C 14.67517,8.7929318 15.03592,8.199504 15.262694,7.5534399 16.168844,4.9717974 14.731841,2.126271 12.020732,1.2551591 11.397625,1.0549474 10.77125,0.98713117 10.201264,1.0019619 Z m 0.03308,1.0127889 c 0.472641,-0.012298 0.981496,0.03757 1.455574,0.1898979 2.16722,0.6963536 3.308138,2.9587742 2.580337,5.0322944 -0.197511,0.562699 -0.492872,1.0511162 -0.893193,1.455884 -0.108058,0.1342028 -0.205157,0.2735996 -0.26465,0.4430951 -0.135305,0.3854846 -0.09343,0.7944989 0.06616,1.1393878 0.15385,0.456997 0.513659,0.848323 1.025519,1.012789 0.126497,0.04065 0.269654,0.05296 0.396975,0.0633 0.02131,2.79e-4 0.04492,-5.19e-4 0.06616,0 0.02121,9.12e-4 0.01193,-1.42e-4 0.03308,0 0.33621,0.01192 0.67479,0.05821 0.992438,0.126599 0.02741,0.005 0.0713,0.0279 0.09924,0.03165 0.579959,0.07738 1.105514,-0.169122 1.455575,-0.569693 l 0.330813,-0.411446 c 0.138313,-0.193088 0.228594,-0.417239 0.264649,-0.6646424 0.02083,-0.1428888 0.01877,-0.274999 0,-0.4114459 -0.04215,-0.2086649 -0.03237,-0.4424952 0,-0.6646427 0.157935,-1.0836081 1.216193,-1.8285374 2.348769,-1.6774315 1.132573,0.151106 1.911241,1.1318664 1.753305,2.2154756 -0.12441,0.8535879 -0.81894,1.5134579 -1.654062,1.6774319 -0.375158,0.06954 -0.68662,0.292447 -0.926274,0.569694 l -0.363894,0.411445 c -0.131065,0.18872 -0.196677,0.425227 -0.231569,0.664643 -0.05199,0.356678 0.02468,0.690893 0.198488,0.981139 0.576735,0.818252 0.926274,1.786969 0.926274,2.848469 0,2.836017 -2.428074,5.158893 -5.392242,5.158893 -1.602858,0 -3.018141,-0.673647 -4.00283,-1.740731 C 10.310993,19.683708 10.068104,19.515967 9.7711815,19.422061 8.9471122,19.161445 8.0392651,19.54813 7.7201453,20.308251 7.0999645,21.615975 5.5382918,22.319897 4.0812086,21.859084 2.521419,21.365786 1.6799887,19.743372 2.1955778,18.251024 c 0.515587,-1.492353 2.1783931,-2.297326 3.7381804,-1.80403 0.2595844,0.0821 0.5106597,0.178157 0.7277873,0.316496 0.1224848,0.07957 0.2494992,0.143259 0.3969749,0.189898 0.8572021,0.271099 1.8007746,-0.160996 2.0841181,-0.981139 0.02354,-0.06813 0.05271,-0.152901 0.06616,-0.221547 0.179941,-1.211466 0.783791,-2.284414 1.6871425,-3.070016 0.01199,-0.01042 0.021,-0.02131 0.03308,-0.03165 0.01006,-0.01065 0.02345,-0.02075 0.03308,-0.03165 0.131503,-0.147399 0.229367,-0.311632 0.297731,-0.506394 0.134735,-0.383834 0.124748,-0.763832 -0.03308,-1.107738 -0.15299,-0.45884 -0.545175,-0.87947 -1.0586,-1.0444384 C 10.040232,9.9177166 9.9329925,9.9057456 9.8042595,9.8955166 9.5512025,9.8621935 9.2943575,9.8179043 9.0433905,9.7372655 6.8761859,9.0409111 5.7021656,6.7784924 6.4299858,4.7049711 6.998595,3.0850338 8.5463219,2.0586685 10.234328,2.0147508 Z M 9.9696775,3.3123864 C 8.9557588,3.4464309 8.0347187,4.1259885 7.687072,5.1164165 7.1980736,6.5095448 7.9842957,8.0034235 9.4403775,8.4712795 10.896458,8.9391356 12.491072,8.1869775 12.98007,6.793848 13.469067,5.4007185 12.682846,3.9068411 11.226764,3.438985 10.953749,3.3512654 10.673366,3.3182302 10.399733,3.3123864 c -0.148219,-0.00316 -0.28521,-0.019149 -0.4300555,0 z m 0.3969745,1.0127889 c 0.201544,0.0043 0.386212,0.017325 0.5293,0.063299 0.926065,0.2975555 1.400884,1.2079708 1.091681,2.0888769 C 11.681175,7.3504331 10.687316,7.8161524 9.7711895,7.52179 8.8451263,7.2242347 8.3703065,6.3138167 8.6795103,5.432913 8.9274238,4.7266197 9.6246395,4.3093654 10.366653,4.3251753 Z m 9.461235,3.5764105 c -0.558365,0.033958 -1.044499,0.4621158 -1.124762,1.0127888 -0.09173,0.6293409 0.367744,1.2098784 1.025518,1.2976364 0.657784,0.08776 1.264614,-0.3517975 1.356331,-0.9811399 0.09173,-0.6293409 -0.367736,-1.2098785 -1.025518,-1.2976357 -0.08222,-0.010941 -0.151804,-0.036481 -0.231569,-0.03165 z m 0.06616,1.0127888 c -0.190851,0.011559 -0.189557,-0.029627 0.03308,0 0.09806,0.013082 0.14581,0.097368 0.132325,0.1898979 -0.01367,0.093815 -0.101806,0.1394985 -0.198488,0.1265986 -0.09805,-0.013085 -0.14581,-0.097369 -0.132325,-0.1898979 0.01062,-0.072875 0.124911,-0.1241358 0.165406,-0.1265986 z m -5.392242,3.9562064 c -2.095667,0 -3.771262,1.602998 -3.771262,3.608061 0,2.005061 1.675595,3.639709 3.771262,3.639709 2.095668,0 3.804341,-1.634648 3.804343,-3.639709 0,-2.005063 -1.708675,-3.60806 -3.804343,-3.608061 z m 0,1.012789 c 1.537396,1e-6 2.745743,1.134873 2.745743,2.595272 -10e-7,1.460399 -1.21937,2.626921 -2.745743,2.626921 -1.526372,0 -2.712662,-1.155978 -2.712662,-2.626921 0,-1.470944 1.175268,-2.595272 2.712662,-2.595272 z m -9.5604781,3.513111 c -0.9278047,0.03892 -1.6988398,0.739645 -1.7533058,1.645782 -0.058095,0.966542 0.7100053,1.780088 1.7202246,1.83568 1.0102205,0.05558 1.893692,-0.679241 1.9517933,-1.645782 0.058094,-0.966546 -0.7100075,-1.780098 -1.7202246,-1.83568 -0.06314,-0.0034 -0.1366388,-0.0026 -0.1984875,0 z m 0.033081,1.012789 c 0.034563,-0.0015 0.091534,-4.2e-4 0.099244,0 0.4557343,0.02508 0.7535701,0.330629 0.7277873,0.759592 -0.024904,0.414282 -0.3800176,0.720886 -0.827031,0.696292 -0.4557485,-0.02508 -0.7535703,-0.330635 -0.7277874,-0.759591 0.023715,-0.394539 0.3242524,-0.679366 0.7277874,-0.696293 z"
         style="fill:#000000;fill-opacity:0.39215686;fill-rule:evenodd;stroke:none"
         inkscape:connector-curvature="0" />
      <path
         id="path3256"
         d="M 10.249869,2.0061883 C 8.5618632,2.0501059 7.0042161,3.0877876 6.4356069,4.7077248 5.7077866,6.7812462 6.8748015,9.0292357 9.0420195,9.7255901 c 0.250967,0.080638 0.504498,0.1390088 0.757555,0.1723306 0.128733,0.010229 0.2535055,0.034931 0.3814255,0.07603 0.513425,0.1649683 0.885337,0.5548693 1.038327,1.0137093 0.157829,0.343906 0.187707,0.741386 0.05297,1.12522 -0.06837,0.194762 -0.170458,0.369592 -0.301961,0.516991 -0.0096,0.0109 -0.02176,0.01977 -0.03179,0.03041 -0.01208,0.01034 -0.02509,0.01999 -0.03708,0.03041 -0.9033515,0.785602 -1.5258815,1.860074 -1.7058225,3.071539 -0.01346,0.06865 -0.03473,0.13968 -0.05827,0.20781 -0.2833433,0.820144 -1.208852,1.264536 -2.0660541,0.993438 C 6.9238436,16.916838 6.791187,16.850435 6.6687022,16.770873 l -0.0053,0 C 6.4462721,16.632533 6.2078082,16.51844 5.9482238,16.436344 4.3884364,15.943048 2.702525,16.753465 2.186938,18.245818 c -0.5155891,1.492349 0.331449,3.105374 1.8912387,3.598672 1.4570832,0.460813 3.024559,-0.212843 3.6447398,-1.520567 0.3191198,-0.760121 1.2102026,-1.162819 2.034272,-0.902203 0.2969225,0.09391 0.5430925,0.258277 0.7310675,0.471375 0.98469,1.067085 2.42331,1.738513 4.026167,1.738513 2.964169,0 5.366457,-2.303493 5.366457,-5.13951 0,-1.0615 -0.339747,-2.045477 -0.916482,-2.86373 -0.173809,-0.290246 -0.253296,-0.631689 -0.201311,-0.988367 0.03489,-0.239416 0.123221,-0.460055 0.254286,-0.648775 l 0.333747,-0.430827 c 0.239654,-0.277246 0.573111,-0.472792 0.948269,-0.542334 l 0.0053,-0.0051 c 0.835122,-0.163974 1.512545,-0.819034 1.636956,-1.672622 0.157935,-1.0836091 -0.631524,-2.0841249 -1.764098,-2.2352309 -1.132575,-0.151106 -2.1836,0.6042193 -2.341534,1.6878274 -0.03237,0.2221475 -0.02625,0.4451777 0.0159,0.6538426 0.01877,0.1364469 0.02083,0.2727339 0,0.4156227 -0.03606,0.2474032 -0.131863,0.4759602 -0.270176,0.6690482 l -0.323155,0.42069 c -0.350061,0.400571 -0.898068,0.62478 -1.478026,0.547403 -0.02795,-0.0037 -0.05736,-0.01023 -0.08476,-0.0152 -0.317648,-0.06839 -0.643844,-0.109722 -0.980053,-0.121646 -0.02115,-1.41e-4 -0.04237,-0.0042 -0.06358,-0.0051 -0.02125,-5.2e-4 -0.04227,2.78e-4 -0.06358,0 -0.127321,-0.01034 -0.254929,-0.03538 -0.381426,-0.07603 -0.51186,-0.164386 -0.879181,-0.546496 -1.03303,-1.003493 C 13.014536,9.933188 12.980567,9.5332929 13.115867,9.1478083 13.175357,8.9783128 13.267393,8.8207737 13.37545,8.6865709 13.775771,8.2818031 14.089122,7.7895266 14.286634,7.2268276 15.014432,5.1533074 13.84742,2.9053167 11.6802,2.2089631 11.206122,2.056636 10.722494,1.9939241 10.249852,2.006222 Z m 0.15363,1.2924802 c 0.273634,0.00584 0.548111,0.049131 0.821126,0.1368509 1.456081,0.4678561 2.242499,1.977456 1.753502,3.3705855 C 12.489129,8.1992344 10.911313,8.9516509 9.4552335,8.4837948 7.999151,8.0159389 7.2127322,6.5063377 7.7017306,5.1132094 8.0990411,3.9812916 9.2177525,3.2734042 10.403499,3.2986685 Z m 9.41911,4.6123799 c 0.07977,-0.00483 0.156172,-8.336e-4 0.238392,0.010108 0.657782,0.087757 1.119456,0.6682074 1.027732,1.2975485 -0.09172,0.6293424 -0.698399,1.0659901 -1.356184,0.9782311 -0.657774,-0.08776 -1.119455,-0.6682084 -1.027733,-1.2975497 0.08026,-0.550673 0.559428,-0.9544094 1.117793,-0.9883673 z m -5.308181,4.9519746 c 2.095667,10e-7 3.793073,1.624018 3.793073,3.629081 -3e-6,2.005061 -1.697406,3.634152 -3.793073,3.634152 -2.095667,0 -3.798371,-1.629091 -3.798371,-3.634152 0,-2.005063 1.702704,-3.629081 3.798371,-3.629081 z m -9.5727402,4.526214 c 0.061849,-0.0026 0.122277,0.0016 0.1854169,0.0051 1.010217,0.05558 1.7851061,0.883478 1.7270121,1.850024 -0.058101,0.966541 -0.9234001,1.702858 -1.9336205,1.647278 -1.0102193,-0.05559 -1.7851074,-0.883478 -1.7270122,-1.85002 0.054466,-0.906137 0.820399,-1.613434 1.7482037,-1.652351 z"
         style="fill:url(#linearGradient3877);fill-opacity:1;fill-rule:evenodd;stroke:none"
         inkscape:transform-center-x="2.5757623"
         inkscape:transform-center-y="-4.3993055"
         inkscape:connector-curvature="0" />
      <path
         style="fill:url(#linearGradient3890);fill-opacity:1;fill-rule:evenodd;stroke:none"
         d="M 10.255572,2.0147508 C 8.567565,2.0586683 7.0198381,3.0850338 6.4512293,4.7049711 6.3261356,5.0613576 6.2704279,5.4231288 6.2527418,5.7810592 6.2862528,5.5197882 6.3602522,5.2806578 6.4512293,5.0214676 7.0198381,3.4015303 8.567565,2.3435152 10.255572,2.2995976 c 0.472641,-0.012298 0.981496,0.06922 1.455574,0.2215476 1.603779,0.5153132 2.666138,1.8712774 2.811906,3.3865126 C 14.500302,4.2719747 13.423111,2.7547235 11.711146,2.2046487 11.237068,2.0523215 10.728213,2.0024529 10.255572,2.0147508 Z M 7.5759915,6.2241543 C 7.5573875,7.3524133 8.2842043,8.409458 9.4616225,8.787776 10.917703,9.2556318 12.512317,8.503474 13.001315,7.1103445 13.096825,6.8382489 13.130926,6.5598058 13.13364,6.2874536 13.11119,6.4629723 13.06244,6.6197069 13.001315,6.793848 12.512317,8.1869775 10.917703,8.9391356 9.4616225,8.4712795 8.3915399,8.1274495 7.6822919,7.2335377 7.5759915,6.2241543 Z M 19.782969,7.0786949 c -0.962069,0.058159 -1.780519,0.760924 -1.918712,1.7090811 -0.0242,0.1660608 -0.05088,0.3457165 -0.03308,0.5063944 0.0029,-0.066824 0.02331,-0.1228138 0.03308,-0.1898979 0.157935,-1.0836081 1.216193,-1.8601871 2.348769,-1.7090811 0.991001,0.1322177 1.692519,0.9161754 1.753305,1.8356797 0.09621,-1.0439904 -0.656125,-1.9741426 -1.753305,-2.1205266 -0.141572,-0.018889 -0.292619,-0.039959 -0.430057,-0.03165 z m -1.025518,2.0572273 c -0.005,0.023507 -0.02957,0.039205 -0.03308,0.063299 -0.09172,0.6293409 0.367744,1.2098788 1.025518,1.2976368 0.657784,0.08776 1.264614,-0.351798 1.356331,-0.9811403 0.01316,-0.09025 -0.02453,-0.1662686 -0.03308,-0.2531972 -0.112682,0.6058376 -0.680723,1.0352125 -1.32325,0.9494905 -0.575135,-0.07673 -0.955984,-0.5426806 -0.992437,-1.0760891 z m -5.689974,0.6013433 c -0.04005,0.2912645 0.01263,0.5958735 0.132325,0.8545415 0.15385,0.456996 0.513659,0.816673 1.025519,0.981139 0.126497,0.04065 0.269654,0.08461 0.396975,0.09495 0.02131,2.78e-4 0.01183,-5.2e-4 0.03308,0 0.02121,9.11e-4 0.04501,-1.42e-4 0.06616,0 0.33621,0.01192 0.67479,0.05821 0.992438,0.126598 0.02741,0.005 0.0713,-0.0037 0.09924,0 0.579959,0.07738 1.105514,-0.137473 1.455575,-0.538044 l 0.330812,-0.411445 c 0.138314,-0.193088 0.228595,-0.41724 0.26465,-0.664643 0.01488,-0.102063 0.0062,-0.2187055 0,-0.3164964 -0.03606,0.2474034 -0.126336,0.4715544 -0.26465,0.6646424 l -0.330812,0.411446 c -0.350061,0.400571 -0.875616,0.64707 -1.455575,0.569693 -0.02795,-0.0037 -0.07184,-0.02668 -0.09924,-0.03165 -0.317648,-0.06839 -0.656228,-0.114675 -0.992438,-0.126599 -0.02115,-1.42e-4 -0.04495,9.12e-4 -0.06616,0 -0.02125,-5.19e-4 -0.01177,2.79e-4 -0.03308,0 -0.127321,-0.01034 -0.270478,-0.02265 -0.396975,-0.0633 -0.51186,-0.164466 -0.871669,-0.555792 -1.025519,-1.012789 -0.0798,-0.172444 -0.120797,-0.3467737 -0.132325,-0.5380445 z m -1.720224,1.9622785 c -0.0075,0.138489 -0.01769,0.273359 -0.06616,0.411446 -0.06836,0.194762 -0.166229,0.358995 -0.297731,0.506394 -0.0096,0.0109 -0.02306,0.02101 -0.03308,0.03165 -0.01208,0.01034 -0.02109,0.02123 -0.03308,0.03165 -0.903352,0.785602 -1.5072025,1.85855 -1.6871435,3.070016 -0.01345,0.06865 -0.04263,0.153417 -0.06616,0.221547 C 8.8805544,16.79239 7.9369821,17.224485 7.0797799,16.953386 6.9323042,16.906747 6.8052903,16.843051 6.682805,16.763488 6.4656777,16.625149 6.2146022,16.529089 5.9550176,16.446992 c -1.5597874,-0.493296 -3.2225935,0.311677 -3.7381803,1.80403 -0.098451,0.284961 -0.1287162,0.569415 -0.132325,0.854541 0.023136,-0.187892 0.067876,-0.383151 0.132325,-0.569694 0.5155868,-1.492354 2.1783929,-2.297326 3.7381803,-1.80403 0.2595846,0.0821 0.5106601,0.209806 0.7277874,0.348146 0.1224853,0.07956 0.2494992,0.143259 0.3969749,0.189898 0.8572022,0.271098 1.8007745,-0.160996 2.0841186,-0.981139 0.02353,-0.06813 0.05271,-0.152901 0.06616,-0.221548 0.179941,-1.211465 0.7837915,-2.284414 1.6871435,-3.070016 0.01199,-0.01042 0.021,-0.02131 0.03308,-0.03165 0.01006,-0.01064 0.02345,-0.02075 0.03308,-0.03165 0.131502,-0.1474 0.229367,-0.311632 0.297731,-0.506395 0.08447,-0.240634 0.10206,-0.493144 0.06616,-0.727942 z m -9.2627477,7.406019 c -0.00139,0.109472 -0.044753,0.208762 -0.033081,0.316496 6.838e-4,-0.10389 0.020196,-0.211855 0.033081,-0.316496 z M 18.790532,13.155428 c 4.58e-4,0.277053 0.06047,0.560752 0.198488,0.791242 0.553812,0.78573 0.900496,1.708611 0.926274,2.72187 0.0023,-0.06181 0,-0.127555 0,-0.189898 0,-1.0615 -0.349539,-2.030217 -0.926274,-2.848469 -0.0869,-0.145122 -0.163388,-0.308519 -0.198488,-0.474745 z M 10.75179,16.63689 c -0.0024,0.05349 0,0.104171 0,0.158248 0,2.005062 1.675595,3.63971 3.771262,3.63971 2.095668,0 3.804341,-1.634648 3.804343,-3.63971 0,-0.05407 0.0024,-0.104751 0,-0.158248 -0.08468,1.933446 -1.762874,3.481461 -3.804343,3.481461 -2.041468,0 -3.686322,-1.548015 -3.771262,-3.481461 z m -7.5094412,2.626921 c -0.00363,0.0312 -0.031175,0.06324 -0.033081,0.09495 -0.058095,0.966542 0.710005,1.780088 1.7202246,1.83568 1.0102197,0.05558 1.8936974,-0.679241 1.9517933,-1.645782 0.00465,-0.07725 -0.027389,-0.146398 -0.033081,-0.221548 C 6.7383983,20.243607 5.904355,20.931579 4.9294926,20.877944 4.0000082,20.826794 3.3078851,20.128995 3.2423493,19.263812 Z"
         id="path3881"
         inkscape:connector-curvature="0" />
    </g>
    <rect
       y="0"
       x="0"
       height="24"
       width="24"
       id="rect3897"
       style="fill:#000000;fill-opacity:0;stroke:none" />
  </g>
</svg>
