<?xml version="1.0" encoding="UTF-8" standalone="no"?>
<!-- Created with Inkscape (http://www.inkscape.org/) -->

<svg
   xmlns:dc="http://purl.org/dc/elements/1.1/"
   xmlns:cc="http://creativecommons.org/ns#"
   xmlns:rdf="http://www.w3.org/1999/02/22-rdf-syntax-ns#"
   xmlns:svg="http://www.w3.org/2000/svg"
   xmlns="http://www.w3.org/2000/svg"
   xmlns:xlink="http://www.w3.org/1999/xlink"
   xmlns:sodipodi="http://sodipodi.sourceforge.net/DTD/sodipodi-0.dtd"
   xmlns:inkscape="http://www.inkscape.org/namespaces/inkscape"
   id="svg14997"
   version="1.1"
   inkscape:version="0.91 r13725"
   width="24"
   height="24"
   sodipodi:docname="printer.svgz">
  <metadata
     id="metadata15003">
    <rdf:RDF>
      <cc:Work
         rdf:about="">
        <dc:format>image/svg+xml</dc:format>
        <dc:type
           rdf:resource="http://purl.org/dc/dcmitype/StillImage" />
        <dc:title></dc:title>
      </cc:Work>
    </rdf:RDF>
  </metadata>
  <defs
     id="defs15001">
    <linearGradient
       id="linearGradient3890">
      <stop
         id="stop3892"
         offset="0"
         style="stop-color:#000000;stop-opacity:0.71223021;" />
      <stop
         id="stop3896"
         offset="1"
         style="stop-color:#3c3c3c;stop-opacity:0.71372551;" />
    </linearGradient>
    <linearGradient
       id="linearGradient11010">
      <stop
         id="stop11012"
         offset="0"
         style="stop-color:#ededed;stop-opacity:0.92086333;" />
      <stop
         style="stop-color:#d8d8d8;stop-opacity:0.88489211;"
         offset="0.25"
         id="stop11014" />
      <stop
         style="stop-color:#dbdbdb;stop-opacity:0.71703297;"
         offset="0.5"
         id="stop11016" />
      <stop
         id="stop11018"
         offset="1"
         style="stop-color:#d5d5d5;stop-opacity:0.89928055;" />
    </linearGradient>
    <linearGradient
       id="linearGradient10924">
      <stop
         style="stop-color:#ffffff;stop-opacity:1;"
         offset="0"
         id="stop10926" />
      <stop
         style="stop-color:#ededed;stop-opacity:1;"
         offset="1"
         id="stop10928" />
    </linearGradient>
    <linearGradient
       id="linearGradient10880">
      <stop
         id="stop10882"
         offset="0"
         style="stop-color:#1f1f1f;stop-opacity:0.73381293;" />
      <stop
         style="stop-color:#353535;stop-opacity:0.79856116;"
         offset="0.5"
         id="stop10884" />
      <stop
         id="stop10886"
         offset="1"
         style="stop-color:#8a8a8a;stop-opacity:0.70503598;" />
    </linearGradient>
    <linearGradient
       id="linearGradient16006">
      <stop
         style="stop-color:#ffffff;stop-opacity:0.92086333;"
         offset="0"
         id="stop16008" />
      <stop
         id="stop16016"
         offset="0.25"
         style="stop-color:#ffffff;stop-opacity:0.88489211;" />
      <stop
         id="stop16014"
         offset="0.5"
         style="stop-color:#ffffff;stop-opacity:0.39215687;" />
      <stop
         style="stop-color:#ffffff;stop-opacity:0.89928055;"
         offset="1"
         id="stop16010" />
    </linearGradient>
    <radialGradient
       inkscape:collect="always"
       xlink:href="#linearGradient10924"
       id="radialGradient11091"
       gradientUnits="userSpaceOnUse"
       gradientTransform="matrix(1.408377,0.01615548,-0.01230969,0.78841108,-4.3193969,1.0827559)"
       cx="11.573418"
       cy="3.5066421"
       fx="11.573418"
       fy="3.5066421"
       r="5" />
    <radialGradient
       inkscape:collect="always"
       xlink:href="#linearGradient10924"
       id="radialGradient11103"
       gradientUnits="userSpaceOnUse"
       gradientTransform="matrix(1,0,0,0.41666667,0,10.791667)"
       cx="12.188481"
       cy="16.012041"
       fx="12.188481"
       fy="16.012041"
       r="6" />
    <radialGradient
       inkscape:collect="always"
       xlink:href="#linearGradient3890"
       id="radialGradient11106"
       gradientUnits="userSpaceOnUse"
       gradientTransform="matrix(1.4406491,0.09838776,-0.14631419,2.142415,-2.8736046,-20.0305)"
       cx="10.857632"
       cy="16.845716"
       fx="10.857632"
       fy="16.845716"
       r="6" />
    <radialGradient
       inkscape:collect="always"
       xlink:href="#linearGradient11010"
       id="radialGradient11109"
       gradientUnits="userSpaceOnUse"
       gradientTransform="matrix(2.1044957,0.51428068,-0.16176254,0.66195089,-4.7077548,-1.5025153)"
       cx="7.6955943"
       cy="11.785413"
       fx="7.6955943"
       fy="11.785413"
       r="10" />
    <radialGradient
       inkscape:collect="always"
       xlink:href="#linearGradient10880"
       id="radialGradient3877"
       cx="11.186728"
       cy="9.336751"
       fx="11.186728"
       fy="9.336751"
       r="7"
       gradientTransform="matrix(1.4662124,-0.79103147,0.57142824,1.0591681,-10.737404,8.959865)"
       gradientUnits="userSpaceOnUse" />
    <radialGradient
       inkscape:collect="always"
       xlink:href="#linearGradient16006"
       id="radialGradient3922"
       cx="11.153491"
       cy="13.811987"
       fx="11.153491"
       fy="13.811987"
       r="10"
       gradientTransform="matrix(1.9071357,-0.60887349,0.38886562,1.218019,-15.390917,4.3814153)"
       gradientUnits="userSpaceOnUse" />
    <linearGradient
       inkscape:collect="always"
       xlink:href="#linearGradient3890"
       id="linearGradient3901"
       x1="16"
       y1="13"
       x2="16"
       y2="10"
       gradientUnits="userSpaceOnUse" />
  </defs>
  <sodipodi:namedview
     pagecolor="#999999"
     bordercolor="#666666"
     borderopacity="0.15294118"
     objecttolerance="10"
     gridtolerance="10"
     guidetolerance="10"
     inkscape:pageopacity="1"
     inkscape:pageshadow="2"
     inkscape:window-width="1920"
     inkscape:window-height="1046"
     id="namedview14999"
     showgrid="true"
     inkscape:showpageshadow="false"
     inkscape:snap-bbox="true"
     inkscape:zoom="22.627417"
     inkscape:cx="16.146925"
     inkscape:cy="8.0371505"
     inkscape:window-x="0"
     inkscape:window-y="34"
     inkscape:window-maximized="1"
     inkscape:current-layer="printer"
     showguides="true"
     inkscape:guide-bbox="true">
    <inkscape:grid
       type="xygrid"
       id="grid15007"
       empspacing="4"
       visible="true"
       enabled="true"
       snapvisiblegridlinesonly="true"
       dotted="true" />
  </sodipodi:namedview>
  <g
     inkscape:groupmode="layer"
     id="layer3"
     inkscape:label="Icon"
     style="display:inline">
    <g
       id="printer">
      <path
         style="fill:#000000;fill-opacity:0.39215686;stroke:none;display:inline"
         d="M 6.8125,2 A 1.0053361,1.0053361 0 0 0 6,3 L 6,7 3,7 A 1.0053361,1.0053361 0 0 0 2.09375,7.5625 l -1,2 A 1.0053361,1.0053361 0 0 0 1,10 l 0,7 a 1.0053361,1.0053361 0 0 0 0.28125,0.71875 l 1,1 A 1.0053361,1.0053361 0 0 0 3,19 L 5.34375,19 5,20.8125 A 1.0053361,1.0053361 0 0 0 6,22 l 12,0 a 1.0053361,1.0053361 0 0 0 1,-1.1875 L 18.65625,19 21,19 a 1.0053361,1.0053361 0 0 0 0.71875,-0.28125 l 1,-1 A 1.0053361,1.0053361 0 0 0 23,17 l 0,-7 A 1.0053361,1.0053361 0 0 0 22.90625,9.5625 l -1,-2 A 1.0053361,1.0053361 0 0 0 21,7 L 18,7 18,3 A 1.0053361,1.0053361 0 0 0 17,2 L 7,2 A 1.0053361,1.0053361 0 0 0 6.8125,2 z M 7,3 l 10,0 0,5 4,0 1,2 0,7 -1,1 -3.59375,0 L 18,21 6,21 6.59375,18 3,18 2,17 2,10 3,8 7,8 7,3 z"
         id="path4021"
         inkscape:connector-curvature="0" />
      <path
         style="fill:url(#radialGradient3922);fill-opacity:1;stroke:none"
         d="m 2,10 0,7 1,1 18,0 1,-1 0,-7 z"
         id="path3914"
         inkscape:connector-curvature="0" />
      <path
         sodipodi:nodetypes="ccccc"
         inkscape:connector-curvature="0"
         id="path9986"
         d="m 2,10 1,-2 18,0 1,2 z"
         style="fill:url(#radialGradient11109);fill-opacity:1;stroke:none" />
      <path
         inkscape:connector-curvature="0"
         id="path10852"
         d="m 5,18 0,-3 1,-1 12,0 1,1 0,3 z"
         style="fill:url(#radialGradient11106);fill-opacity:1;stroke:none"
         sodipodi:nodetypes="ccccccc" />
      <path
         inkscape:connector-curvature="0"
         id="path10758"
         d="m 6,21 1,-5 10,0 1,5 z"
         style="fill:url(#radialGradient11103);fill-opacity:1;stroke:none" />
      <rect
         y="0"
         x="0"
         height="24"
         width="24"
         id="rect11043"
         style="fill:none;stroke:none" />
      <path
         style="fill:url(#radialGradient3877);fill-opacity:1;stroke:none"
         d="M 6,8 5,10 19,10 18,8 z"
         id="path3867"
         inkscape:connector-curvature="0" />
      <path
         inkscape:connector-curvature="0"
         id="path10762"
         d="M 7,3 7,9 17,9 17,3 z"
         style="fill:url(#radialGradient11091);fill-opacity:1;stroke:none" />
      <path
         style="fill:url(#linearGradient3901);fill-opacity:1;stroke:none"
         d="m 5,10 0,2 1,1 12,0 1,-1 0,-2 z"
         id="path3902"
         inkscape:connector-curvature="0"
         sodipodi:nodetypes="ccccccc" />
      <path
         style="fill:#ffffff;fill-opacity:0.431694;stroke:none"
         d="m 2,10 0,1 3,0 0,-1 -3,0 z m 17,0 0,1 3,0 0,-1 -3,0 z"
         id="rect4121"
         inkscape:connector-curvature="0" />
      <rect
         style="fill:#ffffff;fill-opacity:0.0744681;stroke:none"
         id="rect3914"
         width="14"
         height="1"
         x="5"
         y="10" />
    </g>
  </g>
</svg>
