<?xml version="1.0" encoding="UTF-8" standalone="no"?>
<!-- Created with Inkscape (http://www.inkscape.org/) -->

<svg
   xmlns:dc="http://purl.org/dc/elements/1.1/"
   xmlns:cc="http://creativecommons.org/ns#"
   xmlns:rdf="http://www.w3.org/1999/02/22-rdf-syntax-ns#"
   xmlns:svg="http://www.w3.org/2000/svg"
   xmlns="http://www.w3.org/2000/svg"
   xmlns:xlink="http://www.w3.org/1999/xlink"
   xmlns:sodipodi="http://sodipodi.sourceforge.net/DTD/sodipodi-0.dtd"
   xmlns:inkscape="http://www.inkscape.org/namespaces/inkscape"
   id="svg14997"
   version="1.1"
   inkscape:version="0.91 r13725"
   width="72"
   height="24"
   sodipodi:docname="quassel.svgz">
  <metadata
     id="metadata15003">
    <rdf:RDF>
      <cc:Work
         rdf:about="">
        <dc:format>image/svg+xml</dc:format>
        <dc:type
           rdf:resource="http://purl.org/dc/dcmitype/StillImage" />
        <dc:title></dc:title>
      </cc:Work>
    </rdf:RDF>
  </metadata>
  <defs
     id="defs15001">
    <linearGradient
       id="linearGradient7027">
      <stop
         style="stop-color:#ff6c4d;stop-opacity:0.9137255;"
         offset="0"
         id="stop7031" />
      <stop
         id="stop7033"
         offset="0.75"
         style="stop-color:#e82700;stop-opacity:0.9137255;" />
      <stop
         id="stop7035"
         offset="1"
         style="stop-color:#bf2200;stop-opacity:0.9137255;" />
    </linearGradient>
    <linearGradient
       id="linearGradient6756">
      <stop
         style="stop-color:#ed2900;stop-opacity:0.91366905;"
         offset="0"
         id="stop6758" />
      <stop
         id="stop6760"
         offset="0.29411766"
         style="stop-color:#ff5937;stop-opacity:0.9137255;" />
      <stop
         style="stop-color:#f12800;stop-opacity:0.9137255;"
         offset="0.75"
         id="stop6762" />
      <stop
         style="stop-color:#ff3105;stop-opacity:0.9137255;"
         offset="1"
         id="stop6764" />
    </linearGradient>
    <linearGradient
       id="linearGradient16006-70">
      <stop
         id="stop3915-5"
         offset="0"
         style="stop-color:#ffffff;stop-opacity:1;" />
      <stop
         id="stop3895-1"
         offset="0.12995452"
         style="stop-color:#ffffff;stop-opacity:0.94964027;" />
      <stop
         id="stop16014-10"
         offset="0.53266597"
         style="stop-color:#ffffff;stop-opacity:0.39215687;" />
      <stop
         style="stop-color:#ffffff;stop-opacity:0.96402878;"
         offset="1"
         id="stop16010-3" />
    </linearGradient>
    <linearGradient
       id="linearGradient16006-70-8">
      <stop
         id="stop3915-5-1"
         offset="0"
         style="stop-color:#ffffff;stop-opacity:0.58823532;" />
      <stop
         id="stop3895-1-6"
         offset="0.12995452"
         style="stop-color:#ffffff;stop-opacity:1;" />
      <stop
         style="stop-color:#ffffff;stop-opacity:0.58823532;"
         offset="1"
         id="stop16010-3-9" />
    </linearGradient>
    <radialGradient
       inkscape:collect="always"
       xlink:href="#linearGradient16006-70"
       id="radialGradient4866"
       gradientUnits="userSpaceOnUse"
       gradientTransform="matrix(1.2844565,-0.01501783,0.01501783,1.2844565,-3.5936925,-1.2332645)"
       cx="12.042423"
       cy="14.89196"
       fx="12.042423"
       fy="14.89196"
       r="10.5" />
    <linearGradient
       id="linearGradient16006-70-29">
      <stop
         id="stop3915-5-0"
         offset="0"
         style="stop-color:#ffffff;stop-opacity:1;" />
      <stop
         id="stop3895-1-3"
         offset="0.12995452"
         style="stop-color:#ffffff;stop-opacity:0.94964027;" />
      <stop
         id="stop16014-10-0"
         offset="0.53266597"
         style="stop-color:#ffffff;stop-opacity:0.39215687;" />
      <stop
         style="stop-color:#ffffff;stop-opacity:0.96402878;"
         offset="1"
         id="stop16010-3-3" />
    </linearGradient>
    <radialGradient
       inkscape:collect="always"
       xlink:href="#linearGradient16006-70-29"
       id="radialGradient5283"
       cx="12.840557"
       cy="13.439815"
       fx="12.840557"
       fy="13.439815"
       r="4.1314058"
       gradientUnits="userSpaceOnUse"
       gradientTransform="matrix(1.4286712,0,0,1.4286712,-5.747131,-6.2580494)" />
    <linearGradient
       id="linearGradient16006-70-8-0-5">
      <stop
         id="stop3915-5-1-2-99"
         offset="0"
         style="stop-color:#ffffff;stop-opacity:0.19607843;" />
      <stop
         id="stop3895-1-6-4-1"
         offset="0.72549021"
         style="stop-color:#ffffff;stop-opacity:0.27450982;" />
      <stop
         style="stop-color:#ffffff;stop-opacity:0.19607843;"
         offset="1"
         id="stop16010-3-9-9-6" />
    </linearGradient>
    <linearGradient
       inkscape:collect="always"
       xlink:href="#linearGradient16006-70-8"
       id="linearGradient6291"
       gradientUnits="userSpaceOnUse"
       x1="4.3775868"
       y1="7"
       x2="20"
       y2="4"
       gradientTransform="translate(0,1)" />
    <linearGradient
       id="linearGradient3952">
      <stop
         id="stop3954"
         offset="0"
         style="stop-color:#ffad9c;stop-opacity:0.91366905;" />
      <stop
         style="stop-color:#ff4923;stop-opacity:0.9137255;"
         offset="0.5"
         id="stop3960" />
      <stop
         id="stop3962"
         offset="0.75"
         style="stop-color:#ff2f05;stop-opacity:0.9137255;" />
      <stop
         id="stop3956"
         offset="1"
         style="stop-color:#ffbcad;stop-opacity:0.9137255;" />
    </linearGradient>
    <radialGradient
       inkscape:collect="always"
       xlink:href="#linearGradient16006-70-8-0-5"
       id="radialGradient7539"
       gradientUnits="userSpaceOnUse"
       gradientTransform="matrix(1,0,0,0.63839286,0,5.6162109)"
       cx="-93"
       cy="13.752803"
       fx="-93"
       fy="13.752803"
       r="7" />
    <radialGradient
       inkscape:collect="always"
       xlink:href="#linearGradient3952"
       id="radialGradient4866-71"
       gradientUnits="userSpaceOnUse"
       gradientTransform="matrix(1.2844565,-0.01501783,0.01501783,1.2844565,-3.5936925,-1.2332645)"
       cx="12.103274"
       cy="9.6874046"
       fx="12.103274"
       fy="9.6874046"
       r="10.5" />
    <linearGradient
       inkscape:collect="always"
       xlink:href="#linearGradient6756"
       id="linearGradient6291-2"
       gradientUnits="userSpaceOnUse"
       x1="4.3775868"
       y1="7"
       x2="20"
       y2="4"
       gradientTransform="translate(0,1)" />
    <radialGradient
       inkscape:collect="always"
       xlink:href="#linearGradient16006-70-29-05"
       id="radialGradient5283-1"
       cx="12.840557"
       cy="13.439815"
       fx="12.840557"
       fy="13.439815"
       r="4.1314058"
       gradientUnits="userSpaceOnUse"
       gradientTransform="matrix(1.4286712,0,0,1.4286712,-5.747131,-6.2580494)" />
    <linearGradient
       id="linearGradient16006-70-29-05">
      <stop
         id="stop3915-5-0-7"
         offset="0"
         style="stop-color:#ffffff;stop-opacity:1;" />
      <stop
         id="stop3895-1-3-42"
         offset="0.12995452"
         style="stop-color:#ffffff;stop-opacity:0.94964027;" />
      <stop
         id="stop16014-10-0-0"
         offset="0.53266597"
         style="stop-color:#ffffff;stop-opacity:0.39215687;" />
      <stop
         style="stop-color:#ffffff;stop-opacity:0.96402878;"
         offset="1"
         id="stop16010-3-3-0" />
    </linearGradient>
    <radialGradient
       inkscape:collect="always"
       xlink:href="#linearGradient7027"
       id="radialGradient7664"
       gradientUnits="userSpaceOnUse"
       gradientTransform="matrix(0.54946499,-0.47306176,0.41652129,0.48379279,58.123796,-36.213452)"
       cx="-94.369072"
       cy="10.769191"
       fx="-94.369072"
       fy="10.769191"
       r="7" />
    <radialGradient
       inkscape:collect="always"
       xlink:href="#linearGradient16006-70-3"
       id="radialGradient4866-3"
       gradientUnits="userSpaceOnUse"
       gradientTransform="matrix(1.2844565,-0.01501783,0.01501783,1.2844565,-3.5936925,-1.2332645)"
       cx="12.042423"
       cy="14.89196"
       fx="12.042423"
       fy="14.89196"
       r="10.5" />
    <linearGradient
       id="linearGradient16006-70-3">
      <stop
         id="stop3915-5-9"
         offset="0"
         style="stop-color:#ffffff;stop-opacity:1;" />
      <stop
         id="stop3895-1-7"
         offset="0.12995452"
         style="stop-color:#ffffff;stop-opacity:0.94964027;" />
      <stop
         id="stop16014-10-5"
         offset="0.53266597"
         style="stop-color:#ffffff;stop-opacity:0.39215687;" />
      <stop
         style="stop-color:#ffffff;stop-opacity:0.96402878;"
         offset="1"
         id="stop16010-3-4" />
    </linearGradient>
    <linearGradient
       inkscape:collect="always"
       xlink:href="#linearGradient16006-70-8-9"
       id="linearGradient6291-4"
       gradientUnits="userSpaceOnUse"
       x1="4.3775868"
       y1="7"
       x2="20"
       y2="4"
       gradientTransform="translate(0,1)" />
    <linearGradient
       id="linearGradient16006-70-8-9">
      <stop
         id="stop3915-5-1-6"
         offset="0"
         style="stop-color:#ffffff;stop-opacity:0.58823532;" />
      <stop
         id="stop3895-1-6-7"
         offset="0.12995452"
         style="stop-color:#ffffff;stop-opacity:1;" />
      <stop
         style="stop-color:#ffffff;stop-opacity:0.58823532;"
         offset="1"
         id="stop16010-3-9-2" />
    </linearGradient>
    <radialGradient
       inkscape:collect="always"
       xlink:href="#linearGradient16006-70-8-0-5"
       id="radialGradient3906"
       cx="13.941654"
       cy="15.562485"
       fx="13.941654"
       fy="15.562485"
       r="7"
       gradientTransform="matrix(1.5450739,0,0,1.0001594,-6.5408864,-0.00246607)"
       gradientUnits="userSpaceOnUse" />
    <radialGradient
       r="7"
       fy="13.582804"
       fx="15.222783"
       cy="13.582804"
       cx="15.222783"
       gradientTransform="matrix(1.8913508,0.50678589,-0.34787899,1.298302,-7.0039507,-10.380525)"
       gradientUnits="userSpaceOnUse"
       id="radialGradient3924"
       xlink:href="#linearGradient16006-70-8-0-5"
       inkscape:collect="always" />
  </defs>
  <sodipodi:namedview
     pagecolor="#999999"
     bordercolor="#666666"
     borderopacity="0.15294118"
     objecttolerance="10"
     gridtolerance="10"
     guidetolerance="10"
     inkscape:pageopacity="1"
     inkscape:pageshadow="2"
     inkscape:window-width="1920"
     inkscape:window-height="1046"
     id="namedview14999"
     showgrid="true"
     inkscape:showpageshadow="false"
     inkscape:snap-bbox="false"
     inkscape:zoom="16"
     inkscape:cx="33.502367"
     inkscape:cy="11.529279"
     inkscape:window-x="0"
     inkscape:window-y="34"
     inkscape:window-maximized="1"
     inkscape:current-layer="layer3"
     showguides="true"
     inkscape:guide-bbox="true"
     inkscape:snap-nodes="true"
     inkscape:snap-global="false"
     inkscape:snap-grids="true"
     inkscape:object-nodes="true"
     inkscape:snap-smooth-nodes="true">
    <inkscape:grid
       type="xygrid"
       id="grid15007"
       empspacing="4"
       visible="true"
       enabled="true"
       snapvisiblegridlinesonly="true"
       dotted="true" />
  </sodipodi:namedview>
  <g
     inkscape:groupmode="layer"
     id="layer3"
     inkscape:label="Icon"
     style="display:inline">
    <g
       id="quassel"
       transform="translate(24,-1)">
      <path
         style="fill:url(#radialGradient7539);fill-opacity:1;stroke:none"
         d="M -97.71875,11.0625 C -97.89465,11.676256 -98,12.329717 -98,13 c 0,3.865993 3.134007,7 7,7 3.865993,0 7,-3.134007 7,-7 0,-0.670283 -0.10535,-1.323744 -0.28125,-1.9375 -0.345408,0.622376 -0.782132,1.188252 -1.28125,1.6875 0.278709,0.589271 0.46875,1.244841 0.46875,1.9375 0,2.511284 -2.05122,4.5625 -4.5625,4.5625 -2.51128,0 -4.5625,-2.051216 -4.5625,-4.5625 0,-0.129627 0.02054,-0.248044 0.03125,-0.375 -1.500463,-0.678439 -2.736574,-1.818108 -3.53125,-3.25 z"
         transform="translate(103,1)"
         id="path7113"
         inkscape:connector-curvature="0" />
      <path
         style="display:inline;fill:#000000;fill-opacity:0.39153436;stroke:none"
         d="m 13.34375,11.125 c -2.511284,0 -4.5625,2.051216 -4.5625,4.5625 0,2.511284 2.051216,4.5625 4.5625,4.5625 2.511284,0 4.5625,-2.051216 4.5625,-4.5625 0,-2.511284 -2.051216,-4.5625 -4.5625,-4.5625 z m 0,1.03125 c 1.950777,0 3.53125,1.580473 3.53125,3.53125 0,1.950777 -1.580473,3.53125 -3.53125,3.53125 -1.950777,0 -3.53125,-1.580473 -3.53125,-3.53125 0,-1.950777 1.580473,-3.53125 3.53125,-3.53125 z"
         id="path5375"
         inkscape:connector-curvature="0" />
      <rect
         y="1"
         x="0"
         height="24"
         width="24"
         id="rect6487"
         style="fill:none;stroke:none" />
      <path
         style="display:inline;fill:url(#radialGradient4866);fill-opacity:1;fill-rule:evenodd;stroke:none"
         d="m 12,5 c -4.9705627,0 -9,4.0294373 -9,9 0,4.970563 4.0294373,9 9,9 4.970563,0 9,-4.029437 9,-9 0,-4.9705627 -4.029437,-9 -9,-9 z m 0,2 c 3.865993,0 7,3.134007 7,7 0,3.865993 -3.134007,7 -7,7 C 8.1340068,21 5,17.865993 5,14 5,10.134007 8.1340068,7 12,7 Z"
         id="path3916-0"
         inkscape:connector-curvature="0" />
      <path
         style="display:inline;fill:url(#linearGradient6291);fill-opacity:1;fill-rule:evenodd;stroke:none"
         d="M 12,3 C 8.0270614,3 4.7179316,5.8912829 4.09375,9.6875 5.6216521,6.8949884 8.5923959,5 12,5 15.407604,5 18.378348,6.8949884 19.90625,9.6875 19.282068,5.8912829 15.972938,3 12,3 Z"
         id="path3916-0-3"
         inkscape:connector-curvature="0" />
      <circle
         style="fill:url(#radialGradient5283);fill-opacity:1;stroke:none"
         id="path5275"
         transform="matrix(0.85496182,0,0,0.85496182,2.0966388,3.5899231)"
         cx="13.151117"
         cy="14.160316"
         r="4.1314058" />
      <path
         style="display:inline;fill:#000000;fill-opacity:0.31216933;stroke:none"
         d="M 5.125,12.84375 C 5.0562697,13.220645 5,13.603723 5,14 c 0,3.865993 3.1340068,7 7,7 3.865993,0 7,-3.134007 7,-7 0,-0.396277 -0.05627,-0.779355 -0.125,-1.15625 -0.09693,1.305629 -0.463037,2.51022 -1.03125,3.5625 -0.351793,2.166644 -2.237259,3.84375 -4.5,3.84375 -0.300385,0 -0.591049,-0.03752 -0.875,-0.09375 -0.01,-0.002 -0.0213,0.002 -0.03125,0 C 12.294821,20.1665 12.144893,20.1875 12,20.1875 c -3.6106455,0 -6.5696158,-3.230348 -6.875,-7.34375 z"
         id="path4886-2"
         inkscape:connector-curvature="0" />
      <path
         style="display:inline;fill:#000000;fill-opacity:0.23809521;fill-rule:evenodd;stroke:none"
         d="M 12,4.28125 C 8.8411131,4.28125 6.0360949,5.9476714 4.375,8.5 4.2480267,8.8853523 4.1609696,9.2786766 4.09375,9.6875 4.1779777,9.5335589 4.2821714,9.398319 4.375,9.25 4.4516356,9.1273542 4.5114647,8.9935939 4.59375,8.875 4.7208823,8.6922656 4.8599755,8.5162811 5,8.34375 5.1576426,8.1489341 5.3269175,7.962145 5.5,7.78125 5.7146641,7.5568964 5.9507944,7.3574823 6.1875,7.15625 6.220908,7.1278323 6.247424,7.0904364 6.28125,7.0625 6.314889,7.0347387 6.3409534,6.9960294 6.375,6.96875 6.4854022,6.880238 6.6041751,6.8020857 6.71875,6.71875 6.8401816,6.630459 6.9678387,6.5510103 7.09375,6.46875 7.2982631,6.3350699 7.5031622,6.2108113 7.71875,6.09375 7.9449433,5.9708744 8.1688693,5.85352 8.40625,5.75 8.4365877,5.7367749 8.4694899,5.7316497 8.5,5.71875 8.8166897,5.5848015 9.1347629,5.4724984 9.46875,5.375 9.5508253,5.3510598 9.635728,5.334149 9.71875,5.3125 10.051237,5.2256172 10.403695,5.1423865 10.75,5.09375 11.162701,5.0357887 11.571318,5 12,5 c 0.428682,0 0.837299,0.035789 1.25,0.09375 0.346305,0.048636 0.698763,0.1318672 1.03125,0.21875 0.08204,0.021438 0.168889,0.038822 0.25,0.0625 0.293014,0.085468 0.563873,0.1988908 0.84375,0.3125 0.310968,0.1262761 0.613734,0.2473456 0.90625,0.40625 0.215588,0.1170613 0.420487,0.2413199 0.625,0.375 0.125925,0.082311 0.253555,0.1616673 0.375,0.25 0.185162,0.1346287 0.357127,0.2894718 0.53125,0.4375 0.236706,0.2012323 0.472836,0.4006464 0.6875,0.625 0.171888,0.1793536 0.343326,0.3694547 0.5,0.5625 0.140024,0.1725311 0.279118,0.3485156 0.40625,0.53125 0.08323,0.119629 0.141294,0.2512434 0.21875,0.375 0.09175,0.1468429 0.19789,0.2851452 0.28125,0.4375 C 19.83903,9.2786766 19.751973,8.8853523 19.625,8.5 17.963905,5.9476714 15.158887,4.28125 12,4.28125 Z"
         id="path3916-0-1"
         inkscape:connector-curvature="0" />
      <path
         id="path7448"
         style="display:inline;fill:#000000;fill-opacity:0.39215686;stroke:none"
         d="m 12,3 c 3.97294,0 7.28207,2.8912829 7.90625,6.6875 C 20.60705,10.968336 21,12.437041 21,14 21,18.970563 16.97056,23 12,23 7.02944,23 3,18.970563 3,14 3,12.437041 3.39295,10.968336 4.09375,9.6875 4.71793,5.8912829 8.02706,3 12,3 Z M 12,1.96875 C 7.649888,1.96875 4.041391,5.0753571 3.1875,9.1875 3.162241,9.3091417 3.082788,9.4078572 3.0625,9.53125 2.38568,10.884657 1.96875,12.391697 1.96875,14 c 0,5.534051 4.497202,10.03125 10.03125,10.03125 5.534048,0 10.03125,-4.497199 10.03125,-10.03125 0,-1.608303 -0.416927,-3.115343 -1.09375,-4.46875 C 20.921058,9.4312522 20.863463,9.3488544 20.84375,9.25 20.832783,9.2296169 20.823606,9.2077979 20.8125,9.1875 19.958609,5.0753571 16.350112,1.96875 12,1.96875 Z"
         inkscape:connector-curvature="0" />
      <path
         style="display:inline;fill:#000000;fill-opacity:0.23529412;stroke:none"
         d="m -96.5,10.875 -1.21875,0.1875 c 0.794678,1.431892 2.030788,2.571561 3.53125,3.25 0.03196,-0.378815 0.130432,-0.746472 0.25,-1.09375 -1.041864,-0.549644 -1.922513,-1.355264 -2.5625,-2.34375 z m 11,0 c -0.202997,0.313538 -0.439378,0.597612 -0.6875,0.875 0.256705,0.3031 0.453451,0.637297 0.625,1 0.499118,-0.499248 0.935841,-1.065124 1.28125,-1.6875 L -85.5,10.875 Z"
         transform="translate(103,1)"
         id="path7473"
         inkscape:connector-curvature="0" />
      <path
         style="display:inline;fill:#000000;fill-opacity:0.39215686;stroke:none"
         d="m -91,6 c -3.195708,0 -5.880112,2.1362911 -6.71875,5.0625 L -96.5,10.875 c 0.857694,-2.2296486 2.954727,-3.84375 5.5,-3.84375 2.545273,0 4.642306,1.6141014 5.5,3.84375 l 1.21875,0.1875 C -85.119888,8.1362911 -87.804292,6 -91,6 Z"
         id="path7336"
         transform="translate(103,1)"
         inkscape:connector-curvature="0" />
    </g>
    <g
       style="display:inline"
       id="quassel-message"
       transform="translate(48,-1)"
       inkscape:label="#quassel-message">
      <path
         inkscape:connector-curvature="0"
         id="path7448-4"
         style="display:inline;fill:#000000;fill-opacity:0.39215686;stroke:none"
         d="m 12,3 c 3.97294,0 7.28207,2.8912829 7.90625,6.6875 C 20.60705,10.968336 21,12.437041 21,14 21,18.970563 16.97056,23 12,23 7.02944,23 3,18.970563 3,14 3,12.437041 3.39295,10.968336 4.09375,9.6875 4.71793,5.8912829 8.02706,3 12,3 Z M 12,1.96875 C 7.649888,1.96875 4.041391,5.0753571 3.1875,9.1875 3.162241,9.3091417 3.082788,9.4078572 3.0625,9.53125 2.38568,10.884657 1.96875,12.391697 1.96875,14 c 0,5.534051 4.497202,10.03125 10.03125,10.03125 5.534048,0 10.03125,-4.497199 10.03125,-10.03125 0,-1.608303 -0.416927,-3.115343 -1.09375,-4.46875 C 20.921058,9.4312522 20.863463,9.3488544 20.84375,9.25 20.832783,9.2296169 20.823606,9.2077979 20.8125,9.1875 19.958609,5.0753571 16.350112,1.96875 12,1.96875 Z" />
      <path
         style="fill:url(#radialGradient7664);fill-opacity:1;stroke:none"
         d="M 5.15625,10.5 A 0.56156451,0.56156451 0 0 0 4.75,10.90625 C 4.561378,11.564396 4.4375,12.270881 4.4375,13 c 0,4.169455 3.3930453,7.5625 7.5625,7.5625 4.169455,0 7.5625,-3.393045 7.5625,-7.5625 0,-0.729119 -0.123878,-1.435604 -0.3125,-2.09375 a 0.56156451,0.56156451 0 0 0 -0.71875,-0.375 c 0.06572,0.174724 0.135599,0.350156 0.1875,0.53125 -0.345409,0.622376 -0.782132,1.188252 -1.28125,1.6875 0.278709,0.589271 0.46875,1.244841 0.46875,1.9375 0,2.511284 -2.051216,4.5625 -4.5625,4.5625 -2.511284,0 -4.5625,-2.051216 -4.5625,-4.5625 0,-0.129627 0.020538,-0.248044 0.03125,-0.375 C 7.312038,13.634061 6.075928,12.494392 5.28125,11.0625 5.3341791,10.877818 5.432702,10.709301 5.5,10.53125 A 0.56156451,0.56156451 0 0 0 5.21875,10.5 a 0.56156451,0.56156451 0 0 0 -0.0625,0 z"
         transform="translate(0,1)"
         id="path7662"
         inkscape:connector-curvature="0" />
      <path
         style="display:inline;fill:#000000;fill-opacity:0.39153436;stroke:none"
         d="m 13.34375,11.125 c -2.511284,0 -4.5625,2.051216 -4.5625,4.5625 0,2.511284 2.051216,4.5625 4.5625,4.5625 2.511284,0 4.5625,-2.051216 4.5625,-4.5625 0,-2.511284 -2.051216,-4.5625 -4.5625,-4.5625 z m 0,1.03125 c 1.950777,0 3.53125,1.580473 3.53125,3.53125 0,1.950777 -1.580473,3.53125 -3.53125,3.53125 -1.950777,0 -3.53125,-1.580473 -3.53125,-3.53125 0,-1.950777 1.580473,-3.53125 3.53125,-3.53125 z"
         id="path5375-9"
         inkscape:connector-curvature="0" />
      <rect
         y="1"
         x="0"
         height="24"
         width="24"
         id="rect6487-0"
         style="fill:none;stroke:none" />
      <path
         style="display:inline;fill:url(#radialGradient4866-71);fill-opacity:1;fill-rule:evenodd;stroke:none"
         d="m 12,5 c -4.9705627,0 -9,4.0294373 -9,9 0,4.970563 4.0294373,9 9,9 4.970563,0 9,-4.029437 9,-9 0,-4.9705627 -4.029437,-9 -9,-9 z m 0,2 c 3.865993,0 7,3.134007 7,7 0,3.865993 -3.134007,7 -7,7 C 8.1340068,21 5,17.865993 5,14 5,10.134007 8.1340068,7 12,7 Z"
         id="path3916-0-4"
         inkscape:connector-curvature="0" />
      <path
         style="display:inline;fill:url(#linearGradient6291-2);fill-opacity:1;fill-rule:evenodd;stroke:none"
         d="M 12,3 C 8.0270614,3 4.7179316,5.8912829 4.09375,9.6875 5.6216521,6.8949884 8.5923959,5 12,5 15.407604,5 18.378348,6.8949884 19.90625,9.6875 19.282068,5.8912829 15.972938,3 12,3 Z"
         id="path3916-0-3-3"
         inkscape:connector-curvature="0" />
      <circle
         style="fill:url(#radialGradient5283-1);fill-opacity:1;stroke:none"
         id="path5275-3"
         transform="matrix(0.85496182,0,0,0.85496182,2.0966388,3.5899231)"
         cx="13.151117"
         cy="14.160316"
         r="4.1314058" />
      <path
         style="display:inline;fill:#ffffff;fill-opacity:0.4425287;fill-rule:evenodd;stroke:none"
         d="M 12,4.28125 C 8.8411131,4.28125 6.0360949,5.9476714 4.375,8.5 4.2480267,8.8853523 4.1609696,9.2786766 4.09375,9.6875 4.1779777,9.5335589 4.2821714,9.398319 4.375,9.25 4.4516356,9.1273542 4.5114647,8.9935939 4.59375,8.875 4.7208823,8.6922656 4.8599755,8.5162811 5,8.34375 5.1576426,8.1489341 5.3269175,7.962145 5.5,7.78125 5.7146641,7.5568964 5.9507944,7.3574823 6.1875,7.15625 6.220908,7.1278323 6.247424,7.0904364 6.28125,7.0625 6.314889,7.0347387 6.3409534,6.9960294 6.375,6.96875 6.4854022,6.880238 6.6041751,6.8020857 6.71875,6.71875 6.8401816,6.630459 6.9678387,6.5510103 7.09375,6.46875 7.2982631,6.3350699 7.5031622,6.2108113 7.71875,6.09375 7.9449433,5.9708744 8.1688693,5.85352 8.40625,5.75 8.4365877,5.7367749 8.4694899,5.7316497 8.5,5.71875 8.8166897,5.5848015 9.1347629,5.4724984 9.46875,5.375 9.5508253,5.3510598 9.635728,5.334149 9.71875,5.3125 10.051237,5.2256172 10.403695,5.1423865 10.75,5.09375 11.162701,5.0357887 11.571318,5 12,5 c 0.428682,0 0.837299,0.035789 1.25,0.09375 0.346305,0.048636 0.698763,0.1318672 1.03125,0.21875 0.08204,0.021438 0.168889,0.038822 0.25,0.0625 0.293014,0.085468 0.563873,0.1988908 0.84375,0.3125 0.310968,0.1262761 0.613734,0.2473456 0.90625,0.40625 0.215588,0.1170613 0.420487,0.2413199 0.625,0.375 0.125925,0.082311 0.253555,0.1616673 0.375,0.25 0.185162,0.1346287 0.357127,0.2894718 0.53125,0.4375 0.236706,0.2012323 0.472836,0.4006464 0.6875,0.625 0.171888,0.1793536 0.343326,0.3694547 0.5,0.5625 0.140024,0.1725311 0.279118,0.3485156 0.40625,0.53125 0.08323,0.119629 0.141294,0.2512434 0.21875,0.375 0.09175,0.1468429 0.19789,0.2851452 0.28125,0.4375 C 19.83903,9.2786766 19.751973,8.8853523 19.625,8.5 17.963905,5.9476714 15.158887,4.28125 12,4.28125 Z"
         id="path3916-0-1-2"
         inkscape:connector-curvature="0" />
      <path
         inkscape:connector-curvature="0"
         style="display:inline;fill:#000000;fill-opacity:0.23529412;stroke:none"
         d="m -96.5,10.875 -1.21875,0.1875 c 0.794678,1.431892 2.030788,2.571561 3.53125,3.25 0.03196,-0.378815 0.130432,-0.746472 0.25,-1.09375 -1.041864,-0.549644 -1.922513,-1.355264 -2.5625,-2.34375 z m 11,0 c -0.202997,0.313538 -0.439378,0.597612 -0.6875,0.875 0.256705,0.3031 0.453451,0.637297 0.625,1 0.499118,-0.499248 0.935841,-1.065124 1.28125,-1.6875 L -85.5,10.875 Z"
         transform="translate(103,1)"
         id="path7473-5" />
      <path
         inkscape:connector-curvature="0"
         style="display:inline;fill:#000000;fill-opacity:0.39215686;stroke:none"
         d="m -91,6 c -3.195708,0 -5.880112,2.1362911 -6.71875,5.0625 L -96.5,10.875 c 0.857694,-2.2296486 2.954727,-3.84375 5.5,-3.84375 2.545273,0 4.642306,1.6141014 5.5,3.84375 l 1.21875,0.1875 C -85.119888,8.1362911 -87.804292,6 -91,6 Z"
         id="path7336-3"
         transform="translate(103,1)" />
    </g>
    <g
       style="display:inline"
       id="quassel-inactive"
       transform="translate(0,-1)">
      <rect
         y="1"
         x="0"
         height="24"
         width="24"
         id="rect6487-04"
         style="fill:none;stroke:none" />
      <path
         style="display:inline;fill:url(#radialGradient4866-3);fill-opacity:1;fill-rule:evenodd;stroke:none"
         d="m 12,5 c -4.9705627,0 -9,4.0294373 -9,9 0,4.970563 4.0294373,9 9,9 4.970563,0 9,-4.029437 9,-9 0,-4.9705627 -4.029437,-9 -9,-9 z m 0,2 c 3.865993,0 7,3.134007 7,7 0,3.865993 -3.134007,7 -7,7 C 8.1340068,21 5,17.865993 5,14 5,10.134007 8.1340068,7 12,7 Z"
         id="path3916-0-11"
         inkscape:connector-curvature="0" />
      <path
         style="display:inline;fill:url(#linearGradient6291-4);fill-opacity:1;fill-rule:evenodd;stroke:none"
         d="M 12,3 C 8.0270614,3 4.7179316,5.8912829 4.09375,9.6875 5.6216521,6.8949884 8.5923959,5 12,5 15.407604,5 18.378348,6.8949884 19.90625,9.6875 19.282068,5.8912829 15.972938,3 12,3 Z"
         id="path3916-0-3-8"
         inkscape:connector-curvature="0" />
      <path
         style="display:inline;fill:#000000;fill-opacity:0.23809521;fill-rule:evenodd;stroke:none"
         d="M 12,4.28125 C 8.8411131,4.28125 6.0360949,5.9476714 4.375,8.5 4.2480267,8.8853523 4.1609696,9.2786766 4.09375,9.6875 4.1779777,9.5335589 4.2821714,9.398319 4.375,9.25 4.4516356,9.1273542 4.5114647,8.9935939 4.59375,8.875 4.7208823,8.6922656 4.8599755,8.5162811 5,8.34375 5.1576426,8.1489341 5.3269175,7.962145 5.5,7.78125 5.7146641,7.5568964 5.9507944,7.3574823 6.1875,7.15625 6.220908,7.1278323 6.247424,7.0904364 6.28125,7.0625 6.314889,7.0347387 6.3409534,6.9960294 6.375,6.96875 6.4854022,6.880238 6.6041751,6.8020857 6.71875,6.71875 6.8401816,6.630459 6.9678387,6.5510103 7.09375,6.46875 7.2982631,6.3350699 7.5031622,6.2108113 7.71875,6.09375 7.9449433,5.9708744 8.1688693,5.85352 8.40625,5.75 8.4365877,5.7367749 8.4694899,5.7316497 8.5,5.71875 8.8166897,5.5848015 9.1347629,5.4724984 9.46875,5.375 9.5508253,5.3510598 9.635728,5.334149 9.71875,5.3125 10.051237,5.2256172 10.403695,5.1423865 10.75,5.09375 11.162701,5.0357887 11.571318,5 12,5 c 0.428682,0 0.837299,0.035789 1.25,0.09375 0.346305,0.048636 0.698763,0.1318672 1.03125,0.21875 0.08204,0.021438 0.168889,0.038822 0.25,0.0625 0.293014,0.085468 0.563873,0.1988908 0.84375,0.3125 0.310968,0.1262761 0.613734,0.2473456 0.90625,0.40625 0.215588,0.1170613 0.420487,0.2413199 0.625,0.375 0.125925,0.082311 0.253555,0.1616673 0.375,0.25 0.185162,0.1346287 0.357127,0.2894718 0.53125,0.4375 0.236706,0.2012323 0.472836,0.4006464 0.6875,0.625 0.171888,0.1793536 0.343326,0.3694547 0.5,0.5625 0.140024,0.1725311 0.279118,0.3485156 0.40625,0.53125 0.08323,0.119629 0.141294,0.2512434 0.21875,0.375 0.09175,0.1468429 0.19789,0.2851452 0.28125,0.4375 C 19.83903,9.2786766 19.751973,8.8853523 19.625,8.5 17.963905,5.9476714 15.158887,4.28125 12,4.28125 Z"
         id="path3916-0-1-3"
         inkscape:connector-curvature="0" />
      <path
         style="fill:url(#radialGradient3906);fill-opacity:1;fill-rule:evenodd;stroke:none"
         d="M 5.3125,10.9375 C 5.1136031,11.586776 5,12.28557 5,13 c 0,3.865993 3.1340068,7 7,7 3.865993,0 7,-3.134007 7,-7 0,-0.71443 -0.113603,-1.413224 -0.3125,-2.0625 -1.426756,2.192928 -3.87628,3.65625 -6.6875,3.65625 -2.8112199,0 -5.2607443,-1.463322 -6.6875,-3.65625 z"
         transform="translate(0,1)"
         id="path3101"
         inkscape:connector-curvature="0" />
      <path
         inkscape:connector-curvature="0"
         style="display:inline;fill:url(#radialGradient3924);fill-opacity:1;fill-rule:evenodd;stroke:none"
         d="M 5.3125,11.9375 C 5.1136031,12.586776 5,13.28557 5,14 c 0,3.865993 3.1340068,7 7,7 3.865993,0 7,-3.134007 7,-7 0,-0.71443 -0.113603,-1.413224 -0.3125,-2.0625 -1.426756,2.192928 -3.87628,3.65625 -6.6875,3.65625 -2.8112199,0 -5.2607443,-1.463322 -6.6875,-3.65625 z"
         id="path3101-2" />
      <path
         id="path4203"
         style="display:inline;fill:#000000;fill-opacity:0.39215686;fill-rule:evenodd;stroke:none"
         d="m 12,3 c 3.972938,0 7.282068,2.8912829 7.90625,6.6875 C 20.60705,10.968336 21,12.437041 21,14 21,18.970563 16.970563,23 12,23 7.0294373,23 3,18.970563 3,14 3,12.437041 3.3929503,10.968336 4.09375,9.6875 4.7179316,5.8912829 8.0270614,3 12,3 Z m 0,-0.96875 c -4.3254098,0 -7.9130359,3.0952358 -8.75,7.1875 C 3.2270689,9.3308697 3.1436804,9.4176376 3.125,9.53125 2.4449411,10.881185 2.03125,12.392639 2.03125,14 c 0,5.495203 4.4735475,9.96875 9.96875,9.96875 5.495203,0 9.96875,-4.473547 9.96875,-9.96875 0,-1.607361 -0.413691,-3.118815 -1.09375,-4.46875 C 20.85632,9.4176376 20.772931,9.3308697 20.75,9.21875 19.913035,5.1264859 16.325409,2.03125 12,2.03125 Z"
         inkscape:connector-curvature="0" />
      <path
         style="display:inline;fill:#000000;fill-opacity:0.39215686;fill-rule:evenodd;stroke:none"
         d="m 7.71875,6.09375 c -0.2140817,0.1162961 -0.4218567,0.2422826 -0.625,0.375 0.2045131,-0.1336801 0.4094122,-0.2579387 0.625,-0.375 z"
         id="path4201"
         inkscape:connector-curvature="0" />
      <path
         style="display:inline;fill:#000000;fill-opacity:0.39215686;fill-rule:evenodd;stroke:none"
         d="m 16.28125,6.09375 c 0.214082,0.1162961 0.421857,0.2422826 0.625,0.375 -0.204513,-0.1336801 -0.409412,-0.2579387 -0.625,-0.375 z"
         id="path4199"
         inkscape:connector-curvature="0" />
      <path
         style="display:inline;fill:#000000;fill-opacity:0.23529412;fill-rule:evenodd;stroke:none"
         d="M 18.6875,10.9375 17.53125,10.75 C 16.248921,12.455494 14.297726,13.625 12,13.625 9.7022739,13.625 7.7510791,12.455494 6.46875,10.75 L 5.3125,10.9375 c 1.4267557,2.192928 3.8762801,3.65625 6.6875,3.65625 2.81122,0 5.260744,-1.463322 6.6875,-3.65625 z"
         id="path4212"
         transform="translate(0,1)"
         inkscape:connector-curvature="0" />
      <path
         style="display:inline;fill:#000000;fill-opacity:0.39215686;fill-rule:evenodd;stroke:none"
         d="M 12,6 C 8.848437,6 6.1898931,8.073353 5.3125,10.9375 L 6.46875,10.75 C 7.362673,8.5477229 9.4623972,6.96875 12,6.96875 c 2.537603,0 4.637327,1.5789729 5.53125,3.78125 l 1.15625,0.1875 C 17.810107,8.073353 15.151563,6 12,6 Z"
         id="path4195"
         transform="translate(0,1)"
         inkscape:connector-curvature="0" />
      <path
         style="display:inline;fill:#000000;fill-opacity:0.39215686;fill-rule:evenodd;stroke:none"
         d="M 5.09375,12.9375 C 5.0404871,13.282662 5,13.642785 5,14 5,13.637563 5.0406392,13.285091 5.09375,12.9375 Z"
         id="path4193"
         inkscape:connector-curvature="0" />
      <path
         style="display:inline;fill:#000000;fill-opacity:0.39215686;fill-rule:evenodd;stroke:none"
         d="M 18.90625,12.9375 C 18.959361,13.285091 19,13.637563 19,14 19,13.642785 18.95951,13.282662 18.90625,12.9375 Z"
         id="path4109"
         inkscape:connector-curvature="0" />
      <path
         style="display:inline;fill:#000000;fill-opacity:0.31372549;fill-rule:evenodd;stroke:none"
         d="M 5.0625,12.1875 C 5.0309274,12.453943 5,12.727106 5,13 c 0,3.865993 3.1340068,7 7,7 3.865993,0 7,-3.134007 7,-7 0,-0.272894 -0.03093,-0.546057 -0.0625,-0.8125 C 18.838673,15.966517 15.769123,19 12,19 8.2308764,19 5.161327,15.966517 5.0625,12.1875 Z"
         transform="translate(0,1)"
         id="path3101-2-4"
         inkscape:connector-curvature="0" />
    </g>
  </g>
</svg>
