<?xml version="1.0" encoding="UTF-8" standalone="no"?>
<!-- Created with Inkscape (http://www.inkscape.org/) -->

<svg
   xmlns:dc="http://purl.org/dc/elements/1.1/"
   xmlns:cc="http://creativecommons.org/ns#"
   xmlns:rdf="http://www.w3.org/1999/02/22-rdf-syntax-ns#"
   xmlns:svg="http://www.w3.org/2000/svg"
   xmlns="http://www.w3.org/2000/svg"
   xmlns:xlink="http://www.w3.org/1999/xlink"
   xmlns:sodipodi="http://sodipodi.sourceforge.net/DTD/sodipodi-0.dtd"
   xmlns:inkscape="http://www.inkscape.org/namespaces/inkscape"
   width="66"
   height="22"
   id="svg7538"
   version="1.1"
   inkscape:version="0.91 r13725"
   sodipodi:docname="slc.svgz"
   inkscape:export-filename="/home/diau/git/kdegit/playground/plasma-mobile/artwork/desktoptheme/air-mobile/icons/slc.png"
   inkscape:export-xdpi="78.671318"
   inkscape:export-ydpi="78.671318">
  <sodipodi:namedview
     id="base"
     pagecolor="#999999"
     bordercolor="#666666"
     borderopacity="1.0"
     inkscape:pageopacity="1"
     inkscape:pageshadow="2"
     inkscape:zoom="16.000001"
     inkscape:cx="30.091461"
     inkscape:cy="10.264931"
     inkscape:document-units="px"
     inkscape:current-layer="layer1"
     showgrid="true"
     inkscape:window-width="1920"
     inkscape:window-height="1046"
     inkscape:window-x="0"
     inkscape:window-y="34"
     inkscape:window-maximized="1"
     gridtolerance="10"
     inkscape:object-paths="true"
     inkscape:object-nodes="true"
     inkscape:snap-smooth-nodes="true"
     inkscape:snap-global="true"
     inkscape:snap-bbox="true"
     showguides="true"
     inkscape:guide-bbox="true"
     fit-margin-top="0"
     fit-margin-left="0"
     fit-margin-right="0"
     fit-margin-bottom="0">
    <inkscape:grid
       id="grid7639"
       type="xygrid"
       empspacing="5"
       visible="true"
       enabled="true"
       snapvisiblegridlinesonly="true"
       originx="0"
       originy="-1.7382813e-05" />
  </sodipodi:namedview>
  <defs
     id="defs7540">
    <linearGradient
       id="linearGradient3851">
      <stop
         id="stop3853"
         offset="0"
         style="stop-color:#ffffff;stop-opacity:1" />
      <stop
         style="stop-color:#ffffff;stop-opacity:0.78431374;"
         offset="0.47000003"
         id="stop3855" />
      <stop
         id="stop3857"
         offset="0.75125003"
         style="stop-color:#ffffff;stop-opacity:0.28346458;" />
      <stop
         id="stop3859"
         offset="1"
         style="stop-color:#ffffff;stop-opacity:1;" />
    </linearGradient>
    <linearGradient
       id="linearGradient2916">
      <stop
         offset="0"
         style="stop-color:#ffffff;stop-opacity:1"
         id="stop2918" />
      <stop
         offset="1"
         style="stop-color:#ffffff;stop-opacity:0"
         id="stop2920" />
    </linearGradient>
    <linearGradient
       id="linearGradient3291">
      <stop
         offset="0"
         style="stop-color:#000000;stop-opacity:1"
         id="stop3293" />
      <stop
         offset="1"
         style="stop-color:#000000;stop-opacity:0"
         id="stop3295" />
    </linearGradient>
    <linearGradient
       id="linearGradient4249">
      <stop
         style="stop-color:#ffffff;stop-opacity:1;"
         offset="0"
         id="stop4251" />
      <stop
         id="stop4253"
         offset="0.47000003"
         style="stop-color:#ffffff;stop-opacity:0.78431374;" />
      <stop
         style="stop-color:#ffffff;stop-opacity:0.28346458;"
         offset="0.75125003"
         id="stop4255" />
      <stop
         style="stop-color:#ffffff;stop-opacity:1;"
         offset="1"
         id="stop4257" />
    </linearGradient>
    <linearGradient
       inkscape:collect="always"
       xlink:href="#linearGradient4249"
       id="linearGradient3977"
       gradientUnits="userSpaceOnUse"
       gradientTransform="matrix(0.37702257,0.20532666,-0.20378285,0.3798788,-1.1428571,615.50124)"
       x1="485.75998"
       y1="860.09186"
       x2="485.75998"
       y2="865.3877" />
    <linearGradient
       inkscape:collect="always"
       xlink:href="#linearGradient4249"
       id="linearGradient3979"
       gradientUnits="userSpaceOnUse"
       gradientTransform="matrix(0.37702257,-0.20532666,-0.20378285,-0.3798788,-1.7779331,1468.8641)"
       x1="485.75998"
       y1="865.3877"
       x2="485.75998"
       y2="860.09186" />
    <linearGradient
       inkscape:collect="always"
       xlink:href="#linearGradient4249"
       id="linearGradient3981"
       gradientUnits="userSpaceOnUse"
       x1="5"
       y1="-19.5"
       x2="20"
       y2="-19.5" />
    <linearGradient
       inkscape:collect="always"
       xlink:href="#linearGradient2916"
       id="linearGradient3983"
       gradientUnits="userSpaceOnUse"
       x1="12.5"
       y1="-27"
       x2="12.5"
       y2="-12" />
    <linearGradient
       inkscape:collect="always"
       xlink:href="#linearGradient4249"
       id="linearGradient3985"
       gradientUnits="userSpaceOnUse"
       x1="5"
       y1="-19.5"
       x2="20"
       y2="-19.5" />
    <linearGradient
       inkscape:collect="always"
       xlink:href="#linearGradient2916"
       id="linearGradient3987"
       gradientUnits="userSpaceOnUse"
       x1="12.5"
       y1="-27"
       x2="12.5"
       y2="-12" />
    <linearGradient
       inkscape:collect="always"
       xlink:href="#linearGradient4249"
       id="linearGradient3989"
       gradientUnits="userSpaceOnUse"
       x1="5"
       y1="-19.5"
       x2="20"
       y2="-19.5" />
    <linearGradient
       inkscape:collect="always"
       xlink:href="#linearGradient2916"
       id="linearGradient3991"
       gradientUnits="userSpaceOnUse"
       x1="12.5"
       y1="-27"
       x2="12.5"
       y2="-12" />
    <linearGradient
       inkscape:collect="always"
       xlink:href="#linearGradient4249"
       id="linearGradient4031"
       x1="35"
       y1="1031.3622"
       x2="35"
       y2="1033.3622"
       gradientUnits="userSpaceOnUse"
       gradientTransform="matrix(0.83333333,0,0,1,5.9999993,1.0000174)" />
    <linearGradient
       inkscape:collect="always"
       xlink:href="#linearGradient4249"
       id="linearGradient4055"
       x1="34"
       y1="42.5"
       x2="36"
       y2="42.5"
       gradientUnits="userSpaceOnUse" />
    <linearGradient
       inkscape:collect="always"
       xlink:href="#linearGradient4249"
       id="linearGradient4070"
       gradientUnits="userSpaceOnUse"
       x1="30"
       y1="1036.8622"
       x2="40"
       y2="1036.8622"
       gradientTransform="matrix(0.83333333,0,0,0.85714286,5.8333333,148.62317)" />
    <linearGradient
       inkscape:collect="always"
       xlink:href="#linearGradient4249"
       id="linearGradient4072"
       gradientUnits="userSpaceOnUse"
       x1="35"
       y1="1039.3622"
       x2="35"
       y2="1042.3622"
       gradientTransform="matrix(0.83333333,0,0,1,5.8333333,0)" />
    <linearGradient
       inkscape:collect="always"
       xlink:href="#linearGradient3291"
       id="linearGradient4094"
       gradientUnits="userSpaceOnUse"
       gradientTransform="matrix(0.83333333,0,0,0.85714286,5.8333333,148.62317)"
       x1="35"
       y1="1033.3622"
       x2="35"
       y2="1035.6956" />
    <linearGradient
       inkscape:collect="always"
       xlink:href="#linearGradient3291"
       id="linearGradient4098"
       gradientUnits="userSpaceOnUse"
       x1="35"
       y1="38"
       x2="35"
       y2="42" />
    <linearGradient
       inkscape:collect="always"
       id="linearGradient2231">
      <stop
         style="stop-color:#000000;stop-opacity:1;"
         offset="0"
         id="stop2233" />
      <stop
         style="stop-color:#000000;stop-opacity:0;"
         offset="1"
         id="stop2235" />
    </linearGradient>
    <linearGradient
       inkscape:collect="always"
       id="linearGradient2341">
      <stop
         style="stop-color:#ffffff;stop-opacity:1;"
         offset="0"
         id="stop2343" />
      <stop
         style="stop-color:#ffffff;stop-opacity:0;"
         offset="1"
         id="stop2345" />
    </linearGradient>
    <linearGradient
       inkscape:collect="always"
       id="linearGradient3920">
      <stop
         style="stop-color:#ffffff;stop-opacity:1;"
         offset="0"
         id="stop3922" />
      <stop
         style="stop-color:#ffffff;stop-opacity:0;"
         offset="1"
         id="stop3924" />
    </linearGradient>
    <linearGradient
       id="linearGradient3291-4">
      <stop
         style="stop-color:#000000;stop-opacity:1;"
         offset="0"
         id="stop3293-6" />
      <stop
         style="stop-color:#000000;stop-opacity:0;"
         offset="1"
         id="stop3295-6" />
    </linearGradient>
    <linearGradient
       inkscape:collect="always"
       xlink:href="#linearGradient2231"
       id="linearGradient3862"
       gradientUnits="userSpaceOnUse"
       gradientTransform="matrix(0.1505702,0,0,0.16534678,1.3324422,1007.3142)"
       x1="61.962692"
       y1="28.706591"
       x2="104.65211"
       y2="4.5699611" />
    <linearGradient
       inkscape:collect="always"
       xlink:href="#linearGradient2231"
       id="linearGradient3865"
       gradientUnits="userSpaceOnUse"
       gradientTransform="matrix(0.1505702,0,0,0.16534678,1.3324422,1007.3142)"
       x1="61.962692"
       y1="28.706591"
       x2="104.65211"
       y2="4.5699611" />
    <radialGradient
       inkscape:collect="always"
       xlink:href="#linearGradient2341"
       id="radialGradient3868"
       gradientUnits="userSpaceOnUse"
       gradientTransform="matrix(-0.18080228,-0.17536118,0.04350515,-0.04869247,30.428583,1022.9798)"
       cx="66.450279"
       cy="21.283276"
       fx="66.450279"
       fy="21.283276"
       r="26.231684" />
    <radialGradient
       inkscape:collect="always"
       xlink:href="#linearGradient2341"
       id="radialGradient3871"
       gradientUnits="userSpaceOnUse"
       gradientTransform="matrix(-0.32654068,-0.03114009,0.0056174,-0.06351714,29.696209,1013.1456)"
       cx="59.546715"
       cy="28.174582"
       fx="59.546715"
       fy="28.174582"
       r="26.231684" />
    <linearGradient
       inkscape:collect="always"
       xlink:href="#linearGradient3920"
       id="linearGradient3874"
       gradientUnits="userSpaceOnUse"
       gradientTransform="matrix(0.18168222,0,0,0.17810362,-0.49245721,1007.0352)"
       x1="55.403236"
       y1="-10.92763"
       x2="38.105381"
       y2="73.298271" />
    <linearGradient
       inkscape:collect="always"
       xlink:href="#linearGradient3920"
       id="linearGradient3877"
       gradientUnits="userSpaceOnUse"
       gradientTransform="matrix(0.18168222,0,0,0.17810362,-0.49245721,1007.0352)"
       x1="55.403236"
       y1="-10.92763"
       x2="38.105381"
       y2="73.298271" />
    <linearGradient
       inkscape:collect="always"
       xlink:href="#linearGradient3920"
       id="linearGradient3880"
       gradientUnits="userSpaceOnUse"
       gradientTransform="matrix(0.18168222,0,0,0.17810362,-0.49245721,1007.0352)"
       x1="55.403236"
       y1="-10.92763"
       x2="51.263126"
       y2="75.70253" />
    <linearGradient
       inkscape:collect="always"
       xlink:href="#linearGradient3291-4"
       id="linearGradient3883"
       gradientUnits="userSpaceOnUse"
       gradientTransform="matrix(0.15657735,0,0,0.16258946,0.94115621,1007.6292)"
       x1="121.72159"
       y1="59.862431"
       x2="51.468773"
       y2="59.862431" />
    <linearGradient
       inkscape:collect="always"
       xlink:href="#linearGradient3851"
       id="linearGradient3886"
       gradientUnits="userSpaceOnUse"
       gradientTransform="matrix(0.97346194,0,0,1.0051318,-1.6582551,-4.5004934)"
       x1="13"
       y1="1033.7258"
       x2="13"
       y2="1009.2151" />
  </defs>
  <metadata
     id="metadata7543">
    <rdf:RDF>
      <cc:Work
         rdf:about="">
        <dc:format>image/svg+xml</dc:format>
        <dc:type
           rdf:resource="http://purl.org/dc/dcmitype/StillImage" />
        <dc:title></dc:title>
      </cc:Work>
    </rdf:RDF>
  </metadata>
  <g
     id="layer1"
     inkscape:groupmode="layer"
     inkscape:label="Layer 1"
     transform="translate(0,-1030.3622)">
    <g
       id="slc-share">
      <rect
         ry="0"
         y="1030.3622"
         x="0"
         height="22"
         width="22"
         id="rect3123"
         style="opacity:0;fill:#000000;fill-opacity:0.39215686;fill-rule:nonzero;stroke:none" />
      <g
         transform="matrix(1.0099668,0,0,1.007874,0.40033223,-8.6878913)"
         id="g3966">
        <path
           inkscape:connector-curvature="0"
           style="fill:url(#linearGradient3977);fill-opacity:1;fill-rule:nonzero;stroke:none"
           d="m 7.7767858,1042.5369 c -0.1672127,0.7864 -0.6111694,1.4689 -1.2321429,1.9297 l 5.6116071,3.0497 c 0.04288,-0.8184 0.374644,-1.5585 0.910714,-2.1051 l -5.2901782,-2.8743 z"
           id="rect3916" />
        <path
           inkscape:connector-curvature="0"
           style="fill:url(#linearGradient3979);fill-opacity:1;fill-rule:nonzero;stroke:none"
           d="m 12.169643,1036.478 -5.4107144,2.9552 c 0.5746205,0.5075 0.9693339,1.2082 1.0714286,2.0107 l 5.4374998,-2.9553 c -0.583795,-0.5033 -0.988923,-1.206 -1.098214,-2.0106 z"
           id="rect3929" />
        <circle
           style="fill:url(#linearGradient3981);fill-opacity:1;fill-rule:nonzero;stroke:none"
           id="path3100"
           transform="matrix(0.42857143,0,0,0.43181818,-0.71428558,1050.2827)"
           cx="12.5"
           cy="-19.5"
           r="7.5" />
        <circle
           transform="matrix(0.42857143,0,0,0.43181818,-0.71428558,1050.2827)"
           id="path3878"
           style="opacity:0.419048;fill:url(#linearGradient3983);fill-opacity:1;fill-rule:nonzero;stroke:none"
           cx="12.5"
           cy="-19.5"
           r="7.5" />
        <circle
           transform="matrix(0.42857143,0,0,0.43181818,10.000001,1044.4531)"
           id="path3896"
           style="fill:url(#linearGradient3985);fill-opacity:1;fill-rule:nonzero;stroke:none"
           cx="12.5"
           cy="-19.5"
           r="7.5" />
        <circle
           style="opacity:0.419048;fill:url(#linearGradient3987);fill-opacity:1;fill-rule:nonzero;stroke:none"
           id="path3898"
           transform="matrix(0.42857143,0,0,0.43181818,10.000001,1044.4531)"
           cx="12.5"
           cy="-19.5"
           r="7.5" />
        <circle
           style="fill:url(#linearGradient3989);fill-opacity:1;fill-rule:nonzero;stroke:none"
           id="path3906"
           transform="matrix(0.42857143,0,0,0.43181818,10.000001,1056.1122)"
           cx="12.5"
           cy="-19.5"
           r="7.5" />
        <circle
           transform="matrix(0.42857143,0,0,0.43181818,10.000001,1056.1122)"
           id="path3908"
           style="opacity:0.419048;fill:url(#linearGradient3991);fill-opacity:1;fill-rule:nonzero;stroke:none"
           cx="12.5"
           cy="-19.5"
           r="7.5" />
        <path
           style="color:#000000;font-style:normal;font-variant:normal;font-weight:normal;font-stretch:normal;font-size:medium;line-height:normal;font-family:Sans;-inkscape-font-specification:Sans;text-indent:0;text-align:start;text-decoration:none;text-decoration-line:none;letter-spacing:normal;word-spacing:normal;text-transform:none;direction:ltr;block-progression:tb;writing-mode:lr-tb;baseline-shift:baseline;text-anchor:start;display:inline;overflow:visible;visibility:visible;fill:#000000;fill-opacity:0.39215686;fill-rule:nonzero;stroke:none;stroke-width:0.82999998;marker:none;enable-background:accumulate"
           d="m 15.34375,27.5625 c -2.237873,0 -4.03125,1.84405 -4.03125,4.09375 0,0.021 -3.58e-4,0.0405 0,0.0625 l -4.46875,2.4375 c -0.6414799,-0.4271 -1.362849,-0.75 -2.1875,-0.75 -2.2378847,0 -4.0625,1.84405 -4.0625,4.09375 0,2.2497 1.8246264,4.0625 4.0625,4.0625 0.7236438,0 1.3756738,-0.2254 1.96875,-0.5625 l 4.75,2.5625 c 0.136372,2.127 1.81953,3.84375 3.96875,3.84375 2.237873,0 4.0625,-1.84395 4.0625,-4.09375 0,-2.2497 -1.824627,-4.09375 -4.0625,-4.09375 -0.926099,0 -1.726378,0.38085 -2.40625,0.90625 L 8.65625,37.8125 C 8.66452,37.7043 8.6875,37.6092 8.6875,37.5 c 0,-0.011 1.536e-4,-0.02025 0,-0.03125 L 13.21875,35 c 0.629206,0.4068 1.321063,0.75 2.125,0.75 2.237873,0 4.0625,-1.84395 4.0625,-4.09375 0,-2.2497 -1.824627,-4.09375 -4.0625,-4.09375 z m 0,0.875 c 1.775201,0 3.21875,1.430101 3.21875,3.21875 0,1.788649 -1.443549,3.25 -3.21875,3.25 -0.95652,0 -1.786195,-0.425651 -2.375,-1.09375 0.09822,0.110844 0.200232,0.215712 0.3125,0.3125 l -5.4375,2.96875 C 7.83429,37.01942 7.805352,36.948158 7.78125,36.875 c 0.038964,0.201545 0.0625,0.41197 0.0625,0.625 0,0.376202 -0.070439,0.726601 -0.1875,1.0625 0.042782,-0.124749 0.097131,-0.243933 0.125,-0.375 l 5.28125,2.875 c 0.583853,-0.603793 1.378508,-0.96875 2.28125,-0.96875 1.775201,0 3.21875,1.461351 3.21875,3.25 0,1.788649 -1.443549,3.21875 -3.21875,3.21875 -1.775201,0 -3.1875,-1.430101 -3.1875,-3.21875 0,-0.191928 0.03072,-0.379744 0.0625,-0.5625 -0.02297,0.123933 -0.05572,0.245648 -0.0625,0.375 l -5.625,-3.0625 C 6.0067873,40.500284 5.3708403,40.75 4.65625,40.75 2.881049,40.75 1.4375,39.288649 1.4375,37.5 c 0,-1.788649 1.443549,-3.25 3.21875,-3.25 0.8087527,0 1.5288196,0.315678 2.09375,0.8125 l 5.40625,-2.9375 0,-0.46875 c 0,-1.788649 1.412299,-3.21875 3.1875,-3.21875 z"
           transform="translate(0,1004.3622)"
           id="rect3914"
           inkscape:connector-curvature="0"
           sodipodi:nodetypes="ssccsssccsssccsccssssssccccscccsssscccssscccs" />
      </g>
    </g>
    <g
       id="slc-connect"
       transform="translate(-2,0)">
      <rect
         ry="0"
         rx="1"
         y="1030.3622"
         x="24"
         height="22"
         width="22"
         id="rect4100"
         style="opacity:0;fill:#000000;fill-opacity:0.39215686;fill-rule:nonzero;stroke:none" />
      <rect
         rx="1"
         ry="0.98895144"
         y="1032.3622"
         x="31"
         height="2.0000174"
         width="8"
         id="rect4006"
         style="fill:url(#linearGradient4031);fill-opacity:1;fill-rule:nonzero;stroke:none" />
      <rect
         rx="0.99999994"
         style="fill:url(#linearGradient4072);fill-opacity:1;fill-rule:nonzero;stroke:none"
         id="rect4011"
         width="10"
         height="2"
         x="30"
         y="1040.3622"
         ry="1" />
      <path
         sodipodi:nodetypes="ccccc"
         inkscape:connector-curvature="0"
         id="rect4013"
         d="m 32,1034.3622 6,0 1,6 -8,0 z"
         style="fill:url(#linearGradient4070);fill-opacity:1;fill-rule:nonzero;stroke:none" />
      <path
         sodipodi:nodetypes="cccccc"
         inkscape:connector-curvature="0"
         id="rect4019"
         d="m 34,38 2,0 0,3 -1,6 -1,-6 z"
         style="fill:url(#linearGradient4055);fill-opacity:1;fill-rule:nonzero;stroke:none"
         transform="translate(0,1004.3622)" />
      <path
         id="rect4074"
         transform="translate(0,1004.3622)"
         d="m 32,27 c -1.098069,0 -2,0.9094 -2,2 0,0.6552 0.376944,1.16465 0.875,1.53125 L 30.0625,35.375 C 29.466045,35.7242 29,36.27 29,37 c 0,1.0907 0.909297,2 2,2 l 2,0 0,2 a 1.0001,1.0001 0 0 0 0,0.15625 l 1,6 a 1.0001,1.0001 0 0 0 2,0 l 1,-6 A 1.0001,1.0001 0 0 0 37,41 l 0,-2 2,0 c 1.090703,0 2,-0.9093 2,-2 0,-0.73 -0.466045,-1.2758 -1.0625,-1.625 L 39.125,30.53125 C 39.623056,30.16465 40,29.6552 40,29 40,27.9094 39.098069,27 38,27 l -6,0 z m 0,1 6,0 c 0.554,0 1,0.452121 1,1 0,0.547879 -0.446,1 -1,1 l 1,6 c 0.554,0 1,0.446 1,1 0,0.554 -0.446,1 -1,1 l -3,0 0,3 -1,6 -1,-6 0,-3 -3,0 c -0.554,0 -1,-0.446 -1,-1 0,-0.554 0.446,-1 1,-1 l 1,-6 c -0.554,0 -1,-0.452121 -1,-1 0,-0.547879 0.446,-1 1,-1 z"
         style="color:#000000;font-style:normal;font-variant:normal;font-weight:normal;font-stretch:normal;font-size:medium;line-height:normal;font-family:Sans;-inkscape-font-specification:Sans;text-indent:0;text-align:start;text-decoration:none;text-decoration-line:none;letter-spacing:normal;word-spacing:normal;text-transform:none;direction:ltr;block-progression:tb;writing-mode:lr-tb;baseline-shift:baseline;text-anchor:start;display:inline;overflow:visible;visibility:visible;fill:#000000;fill-opacity:0.39215686;fill-rule:nonzero;stroke:none;stroke-width:2;marker:none;enable-background:accumulate"
         inkscape:connector-curvature="0" />
      <path
         style="opacity:0.3;fill:url(#linearGradient4094);fill-opacity:1;fill-rule:nonzero;stroke:none"
         d="m 32,1034.3622 6,0 1,6 -8,0 z"
         id="path4092"
         inkscape:connector-curvature="0"
         sodipodi:nodetypes="ccccc" />
      <path
         transform="translate(0,1004.3622)"
         style="opacity:0.27619048;fill:url(#linearGradient4098);fill-opacity:1;fill-rule:nonzero;stroke:none"
         d="m 34,38 2,0 0,3 -1,6 -1,-6 z"
         id="path4096"
         inkscape:connector-curvature="0"
         sodipodi:nodetypes="cccccc" />
    </g>
    <g
       id="slc-like"
       transform="translate(44,24.000017)">
      <rect
         y="1006.3622"
         x="0"
         height="22"
         width="22"
         id="rect4791"
         style="opacity:0;fill:#000000;fill-opacity:0.39215686;fill-rule:nonzero;stroke:none" />
      <path
         id="path2279"
         transform="translate(0,1004.3622)"
         d="M 6.9375,3 C 6.3470985,3 5.7507408,3.10095 5.15625,3.28125 3.4222207,3.80785 2.1200632,5.02205 1.5,6.53125 0.87993682,8.04035 0.87832652,9.7333 1.28125,11.4375 c 1.0497421,4.44 4.3905285,8.4771 8.625,11.125 0.11734,0.073 0.225036,0.14755 0.34375,0.21875 0.04978,0.032 0.02025,0.0255 0.09375,0.0625 0.04594,0.023 0.187213,0.09375 0.1875,0.09375 2.87e-4,2e-4 0.249724,0.0625 0.25,0.0625 l 0.375,0 c 2.58e-4,-10e-5 0.468518,-0.1249 0.46875,-0.125 6e-5,-10e-5 0.08116,-0.06175 0.125,-0.09375 0.110561,-0.067 0.232651,-0.14875 0.34375,-0.21875 10e-6,0 -0.0013,-0.02925 0,-0.03125 3.647274,-2.3032 7.544832,-6.52515 8.625,-11.09375 C 21.121673,9.7333 21.120062,8.04045 20.5,6.53125 19.879937,5.02205 18.577783,3.80775 16.84375,3.28125 15.139332,2.76365 13.454723,3.0122 12.1875,3.8125 11.708068,4.1153 11.364289,4.55165 11,4.96875 9.9864705,3.81825 8.6282532,2.9882 6.9375,3 Z M 6.65625,3.96875 C 8.8014659,3.95375 10.33448,5.4836 11,7.4375 11.807811,5.066 13.906254,3.33625 16.8125,4.21875 c 2.967368,0.9011 3.780466,3.5812 3.03125,6.75 C 18.828084,15.26465 14.941884,19.7617 11,22.125 6.928942,19.6842 3.1719144,15.26465 2.15625,10.96875 c -0.7492202,-3.1688 0.063873,-5.8489 3.03125,-6.75 0.5119212,-0.1556 1.0100907,-0.25 1.46875,-0.25 z"
         style="color:#000000;font-style:normal;font-variant:normal;font-weight:normal;font-stretch:normal;font-size:medium;line-height:normal;font-family:Sans;-inkscape-font-specification:Sans;text-indent:0;text-align:start;text-decoration:none;text-decoration-line:none;letter-spacing:normal;word-spacing:normal;text-transform:none;direction:ltr;block-progression:tb;writing-mode:lr-tb;baseline-shift:baseline;text-anchor:start;display:inline;overflow:visible;visibility:visible;fill:#000000;fill-opacity:0.39215686;stroke:none;stroke-width:3.27651048;marker:none;enable-background:accumulate"
         inkscape:connector-curvature="0" />
      <path
         style="fill:#ffffff;fill-opacity:0.75688076;fill-rule:nonzero;stroke:none"
         d="m 8.9953809,1007.8568 0,-0.4621 0,0.4621 z"
         id="path2276"
         sodipodi:nodetypes="ccc"
         inkscape:connector-curvature="0" />
      <path
         sodipodi:nodetypes="cssccsccsscc"
         id="path2245"
         d="m 6.651337,1008.3397 c -0.4586593,0 -0.9455002,0.077 -1.4574214,0.2326 -2.9673768,0.9011 -3.8005367,3.5935 -3.0513165,6.7623 1.0156644,4.2959 4.7391671,8.6842 8.8490409,11.1482 l 0,0.016 c 0.0016,0 0.0034,-0.011 0.0051,-0.011 0.0016,0 0.0034,0.011 0.0051,0.011 l 0,-0.016 c 3.953229,-2.3702 7.833376,-6.8523 8.849042,-11.1482 0.749216,-3.1688 -0.08395,-5.8612 -3.051318,-6.7623 -2.906246,-0.8825 -4.995027,0.8651 -5.802838,3.2366 -0.66552,-1.9539 -2.200203,-3.4842 -4.3454189,-3.4692 z"
         style="fill:url(#linearGradient3886);fill-opacity:1;fill-rule:evenodd;stroke:none"
         inkscape:connector-curvature="0" />
      <path
         sodipodi:nodetypes="cssccsccsscc"
         style="opacity:0.28095242;fill:url(#linearGradient3883);fill-opacity:1;fill-rule:evenodd;stroke:none"
         d="m 6.651337,1008.3397 c -0.4586593,0 -0.9455002,0.077 -1.4574214,0.2326 -2.9673768,0.9011 -3.8005367,3.5935 -3.0513165,6.7623 1.0156644,4.2959 4.7779829,8.7074 8.8490409,11.1482 l 0,0.016 c 0.0016,0 0.0034,-0.011 0.0051,-0.011 0.0016,0 0.0034,0.011 0.0051,0.011 l 0,-0.016 c 3.941884,-2.3633 7.833376,-6.8523 8.849042,-11.1482 0.749216,-3.1688 -0.08395,-5.8612 -3.051318,-6.7623 -2.906246,-0.8825 -4.995027,0.8651 -5.802838,3.2366 -0.66552,-1.9539 -2.200203,-3.4842 -4.3454189,-3.4692 z"
         id="path2369"
         inkscape:connector-curvature="0" />
      <path
         id="path2294"
         d="m 6.5198272,1008.3405 c -0.4204246,0.015 -0.8614886,0.092 -1.3254171,0.2337 -2.6891858,0.8166 -3.6238358,3.1034 -3.2181318,5.8838 3.442029,5.3767 9.1880407,8.6347 13.1200757,8.0633 2.110958,-2.3185 4.161377,-4.6737 4.754995,-7.1843 0.749219,-3.1689 -0.08573,-5.8617 -3.053099,-6.7628 -2.906246,-0.8825 -4.994108,0.8649 -5.801919,3.2365 -0.665519,-1.9539 -2.2023568,-3.4853 -4.3475727,-3.4702 -0.042998,0 -0.085441,0 -0.1289311,0 z"
         style="opacity:0.1762295;fill:url(#linearGradient3880);fill-opacity:1;fill-rule:evenodd;stroke:none"
         inkscape:connector-curvature="0" />
      <path
         id="path2317"
         d="m 6.4630967,1008.3405 c -0.4025654,0.02 -0.8265042,0.1 -1.2686866,0.2337 -2.6891858,0.8166 -3.6238358,3.1034 -3.2181318,5.8838 1.4947361,2.3349 3.4247461,4.2695 5.4512262,5.6652 0.4213776,-3.8163 1.5685158,-6.7379 3.2903345,-9.0035 -0.7670087,-1.6128 -2.1836371,-2.7925 -4.0690807,-2.7792 -0.042998,0 -0.085441,0 -0.1289311,0 -0.019712,0 -0.036933,0 -0.056734,0 z m 11.5264813,0.752 c -5.334687,2.4704 -7.208181,6.9267 -8.055643,12.4635 1.833499,0.8334 3.634989,1.1872 5.162419,0.9653 2.110958,-2.3185 4.161377,-4.6737 4.754995,-7.1843 0.637105,-2.6947 0.129314,-5.0473 -1.861771,-6.2445 z"
         style="opacity:0.295082;fill:url(#linearGradient3877);fill-opacity:1;fill-rule:evenodd;stroke:none"
         inkscape:connector-curvature="0" />
      <path
         sodipodi:nodetypes="csccsscccsc"
         style="opacity:0.24590167;fill:url(#linearGradient3874);fill-opacity:1;fill-rule:evenodd;stroke:none"
         d="m 6.4630967,1008.3405 c -0.4025654,0.02 -0.8265042,0.1 -1.2686866,0.2337 -2.6891858,0.8166 -3.6238358,3.1034 -3.2181318,5.8838 4.0516819,6.9137 6.8024203,-1.3939 8.5242397,-3.6594 -0.7670104,-1.6128 -1.9663161,-2.4714 -3.8517597,-2.4581 -0.042998,0 -0.085441,0 -0.1289311,0 -0.019712,0 -0.036933,0 -0.056734,0 z m 11.9611213,0.9661 c -5.334685,2.4704 -9.715669,14.901 -3.327864,13.2147 2.110958,-2.3185 4.161377,-4.6737 4.754995,-7.1843 0.637105,-2.6947 0.183646,-4.9939 -1.427131,-6.0304 z"
         id="path2333"
         inkscape:connector-curvature="0" />
      <path
         sodipodi:nodetypes="cscsc"
         id="path2339"
         d="m 10.962101,1011.5313 c -0.953936,-2.2901 -2.9276848,-3.5011 -4.6973179,-3.3305 -1.1838407,0.1141 -2.6653203,0.9724 -3.5172523,1.8974 0.9162797,-0.6995 2.2739759,-1.4473 3.4189453,-1.4935 2.5696432,-0.1029 4.2556579,1.9208 4.7956249,2.9266 z"
         style="fill:url(#radialGradient3871);fill-opacity:1;fill-rule:evenodd;stroke:none"
         inkscape:connector-curvature="0" />
      <path
         style="fill:url(#radialGradient3868);fill-opacity:1;fill-rule:evenodd;stroke:none"
         d="m 20.207907,1012.7661 c -0.31976,-2.3992 -1.927762,-4.0713 -3.706543,-4.3977 -1.189964,-0.2184 -2.871113,0.1762 -3.953584,0.8056 1.085015,-0.4015 2.615256,-0.7267 3.74895,-0.4557 2.544015,0.6095 3.652243,2.9609 3.911177,4.0478 z"
         id="path2353"
         sodipodi:nodetypes="cscsc"
         inkscape:connector-curvature="0" />
      <path
         sodipodi:nodetypes="ccc"
         id="path1348"
         d="m 11.014754,1011.4279 c 0.634396,-1.5158 1.569303,-2.7415 3.390165,-3.1123 -1.559798,0.7543 -2.547503,1.8854 -3.390165,3.1123 z"
         style="opacity:0.22950822;fill:url(#linearGradient3865);fill-opacity:1;fill-rule:evenodd;stroke:none"
         inkscape:connector-curvature="0" />
      <path
         style="opacity:0.22950822;fill:url(#linearGradient3862);fill-opacity:1;fill-rule:evenodd;stroke:none"
         d="m 10.987632,1011.7628 c 0.05807,-1.4114 1.596425,-2.8084 3.390166,-3.3281 -1.559798,0.7543 -2.845838,2.3471 -3.390166,3.3281 z"
         id="path2241"
         sodipodi:nodetypes="ccc"
         inkscape:connector-curvature="0" />
    </g>
  </g>
</svg>
