<?xml version="1.0" encoding="UTF-8" standalone="no"?>
<!-- Generator: Adobe Illustrator 12.0.0, SVG Export Plug-In . SVG Version: 6.00 Build 51448)  -->

<svg
   xmlns:ns="http://ns.adobe.com/SaveForWeb/1.0/"
   xmlns:dc="http://purl.org/dc/elements/1.1/"
   xmlns:cc="http://creativecommons.org/ns#"
   xmlns:rdf="http://www.w3.org/1999/02/22-rdf-syntax-ns#"
   xmlns:svg="http://www.w3.org/2000/svg"
   xmlns="http://www.w3.org/2000/svg"
   xmlns:xlink="http://www.w3.org/1999/xlink"
   xmlns:sodipodi="http://sodipodi.sourceforge.net/DTD/sodipodi-0.dtd"
   xmlns:inkscape="http://www.inkscape.org/namespaces/inkscape"
   version="1.1"
   id="Layer_1"
   width="54"
   height="24"
   viewBox="0 0 54 24"
   overflow="visible"
   enable-background="new 0 0 128 128"
   xml:space="preserve"
   sodipodi:version="0.32"
   inkscape:version="0.91 r13725"
   sodipodi:docname="view.svgz"
   inkscape:output_extension="org.inkscape.output.svgz.inkscape"
   inkscape:export-filename="/Users/david/Desktop/sandbox/document-new2.png"
   inkscape:export-xdpi="22.5"
   inkscape:export-ydpi="22.5"
   style="overflow:visible"><defs
     id="defs105"><linearGradient
       id="linearGradient3802-3"><stop
         id="stop3804-85"
         offset="0"
         style="stop-color:#ffffff;stop-opacity:1;" /><stop
         style="stop-color:#ffffff;stop-opacity:0.78431374;"
         offset="0.5"
         id="stop3818-00" /><stop
         id="stop3820-25"
         offset="0.75"
         style="stop-color:#ffffff;stop-opacity:0.39215687;" /><stop
         id="stop3806-9"
         offset="1"
         style="stop-color:#ffffff;stop-opacity:1;" /></linearGradient><linearGradient
       inkscape:collect="always"
       xlink:href="#linearGradient3802-3"
       id="linearGradient4419"
       x1="8.5410156"
       y1="14.229492"
       x2="19"
       y2="14.229492"
       gradientUnits="userSpaceOnUse" /><linearGradient
       inkscape:collect="always"
       xlink:href="#linearGradient3802-3"
       id="linearGradient4427"
       x1="8.5410156"
       y1="14.229492"
       x2="23.458984"
       y2="14.229492"
       gradientUnits="userSpaceOnUse" /><linearGradient
       inkscape:collect="always"
       xlink:href="#linearGradient3802-3"
       id="linearGradient4579"
       x1="42.605843"
       y1="9.4570208"
       x2="47.490234"
       y2="22.458984"
       gradientUnits="userSpaceOnUse"
       gradientTransform="translate(1,0)" /></defs><sodipodi:namedview
     inkscape:window-height="1215"
     inkscape:window-width="1627"
     inkscape:pageshadow="2"
     inkscape:pageopacity="0.0"
     guidetolerance="10.0"
     gridtolerance="10.0"
     objecttolerance="10.0"
     borderopacity="1.0"
     bordercolor="#666666"
     pagecolor="#ffffff"
     id="base"
     inkscape:zoom="16"
     inkscape:cx="42.617639"
     inkscape:cy="15.18077"
     inkscape:window-x="929"
     inkscape:window-y="0"
     inkscape:current-layer="Layer_1"
     showgrid="true"
     showguides="false"
     inkscape:guide-bbox="true"
     inkscape:window-maximized="0"
     inkscape:snap-global="true"
     inkscape:snap-bbox="true"
     inkscape:bbox-paths="true"
     inkscape:bbox-nodes="true"
     inkscape:snap-bbox-edge-midpoints="true"
     inkscape:snap-bbox-midpoints="true"
     inkscape:object-paths="true"
     fit-margin-top="0"
     fit-margin-left="0"
     fit-margin-right="0"
     fit-margin-bottom="0"><inkscape:grid
       type="xygrid"
       id="grid2406"
       spacingx="1"
       spacingy="1"
       empspacing="5"
       originx="-5"
       originy="-101.00002" /></sodipodi:namedview><metadata
     id="metadata3"><ns:sfw><ns:slices><ns:slice
           y="0"
           x="0"
           height="128"
           width="128"
           sliceID="1316743234" /></ns:slices><ns:sliceSourceBounds
         y="0"
         x="0"
         height="128"
         width="128"
         bottomLeftOrigin="true" /><ns:optimizationSettings><ns:targetSettings
           targetSettingsID="0"
           fileFormat="PNG24Format"><ns:PNG24Format
             transparency="true"
             filtered="false"
             matteColor="#FFFFFF"
             noMatteColor="false"
             interlaced="false" /></ns:targetSettings><ns:targetSettings
           targetSettingsID="1696735251"
           fileFormat="PNG24Format"><ns:PNG24Format
             transparency="true"
             filtered="false"
             matteColor="#FFFFFF"
             noMatteColor="false"
             interlaced="false" /></ns:targetSettings></ns:optimizationSettings></ns:sfw><rdf:RDF><cc:Work
         rdf:about=""><dc:format>image/svg+xml</dc:format><dc:type
           rdf:resource="http://purl.org/dc/dcmitype/StillImage" /><dc:title></dc:title></cc:Work></rdf:RDF></metadata><radialGradient
     id="XMLID_7_"
     cx="102"
     cy="112.3047"
     r="139.5585"
     gradientUnits="userSpaceOnUse"><stop
       offset="0"
       style="stop-color:#00537D"
       id="stop16" /><stop
       offset="0.0151"
       style="stop-color:#186389"
       id="stop18" /><stop
       offset="0.0558"
       style="stop-color:#558CA8"
       id="stop20" /><stop
       offset="0.0964"
       style="stop-color:#89AFC3"
       id="stop22" /><stop
       offset="0.1357"
       style="stop-color:#B3CCD8"
       id="stop24" /><stop
       offset="0.1737"
       style="stop-color:#D4E2E9"
       id="stop26" /><stop
       offset="0.2099"
       style="stop-color:#ECF2F5"
       id="stop28" /><stop
       offset="0.2435"
       style="stop-color:#FAFCFD"
       id="stop30" /><stop
       offset="0.2722"
       style="stop-color:#FFFFFF"
       id="stop32" /></radialGradient><radialGradient
     id="XMLID_8_"
     cx="102"
     cy="112.3047"
     r="139.55859"
     gradientUnits="userSpaceOnUse"><stop
       offset="0"
       style="stop-color:#535557"
       id="stop37" /><stop
       offset="0.11366145"
       style="stop-color:#898A8C"
       id="stop41" /><stop
       offset="0.20296688"
       style="stop-color:#ECECEC"
       id="stop47" /><stop
       offset="0.2363"
       style="stop-color:#FAFAFA"
       id="stop49" /><stop
       offset="0.2722"
       style="stop-color:#FFFFFF"
       id="stop51" /><stop
       offset="0.5313"
       style="stop-color:#FAFAFA"
       id="stop53" /><stop
       offset="0.8449"
       style="stop-color:#EBECEC"
       id="stop55" /><stop
       offset="1"
       style="stop-color:#E1E2E3"
       id="stop57" /></radialGradient><linearGradient
     id="XMLID_9_"
     gradientUnits="userSpaceOnUse"
     x1="94.343803"
     y1="102.3447"
     x2="86.535599"
     y2="94.536598"><stop
       offset="0"
       style="stop-color:#FFFFFF"
       id="stop62" /><stop
       offset="1"
       style="stop-color:#555753"
       id="stop64" /></linearGradient><linearGradient
     id="XMLID_10_"
     gradientUnits="userSpaceOnUse"
     x1="95"
     y1="103"
     x2="86.586502"
     y2="94.586502"><stop
       offset="0"
       style="stop-color:#FFFFFF"
       id="stop69" /><stop
       offset="1"
       style="stop-color:#555753"
       id="stop71" /></linearGradient><linearGradient
     id="XMLID_11_"
     gradientUnits="userSpaceOnUse"
     x1="95"
     y1="103"
     x2="87.292999"
     y2="95.292999"><stop
       offset="0"
       style="stop-color:#FFFFFF"
       id="stop76" /><stop
       offset="1"
       style="stop-color:#393B38"
       id="stop78" /></linearGradient><linearGradient
     id="XMLID_12_"
     gradientUnits="userSpaceOnUse"
     x1="96"
     y1="104"
     x2="88.000198"
     y2="96.000198"><stop
       offset="0"
       style="stop-color:#888A85"
       id="stop83" /><stop
       offset="0.0072"
       style="stop-color:#8C8E89"
       id="stop85" /><stop
       offset="0.0673"
       style="stop-color:#ABACA9"
       id="stop87" /><stop
       offset="0.1347"
       style="stop-color:#C5C6C4"
       id="stop89" /><stop
       offset="0.2115"
       style="stop-color:#DBDBDA"
       id="stop91" /><stop
       offset="0.3012"
       style="stop-color:#EBEBEB"
       id="stop93" /><stop
       offset="0.4122"
       style="stop-color:#F7F7F6"
       id="stop95" /><stop
       offset="0.5679"
       style="stop-color:#FDFDFD"
       id="stop97" /><stop
       offset="1"
       style="stop-color:#FFFFFF"
       id="stop99" /></linearGradient><g
     id="view-refresh"
     transform="translate(-5,-2.9999826)"><rect
       y="2.9999826"
       x="5"
       height="24"
       width="24"
       id="rect4374"
       style="opacity:0.8;fill:#000000;fill-opacity:0;stroke:none" /><path
       id="path4398"
       d="m 15,6 0,1.6171875 A 7.4586466,7.4586466 0 0 0 8.5410156,15 7.4586466,7.4586466 0 0 0 16,22.458984 7.4586466,7.4586466 0 0 0 23.458984,15 L 21.59375,15 A 5.593985,5.593985 0 0 1 16,20.59375 5.593985,5.593985 0 0 1 10.40625,15 5.593985,5.593985 0 0 1 15,9.5 L 15,11 19,8.5 15,6 Z"
       style="opacity:1;fill:url(#linearGradient4427);fill-opacity:1;fill-rule:nonzero;stroke:none;stroke-width:2;stroke-linecap:round;stroke-linejoin:round;stroke-miterlimit:4;stroke-dasharray:none;stroke-dashoffset:0;stroke-opacity:1"
       inkscape:connector-curvature="0" /><path
       sodipodi:nodetypes="cccccccccc"
       inkscape:connector-curvature="0"
       style="opacity:1;fill:url(#linearGradient4419);fill-opacity:1;fill-rule:nonzero;stroke:none;stroke-width:2;stroke-linecap:round;stroke-linejoin:round;stroke-miterlimit:4;stroke-dasharray:none;stroke-dashoffset:0;stroke-opacity:1"
       d="m 15,6 0,1.6171875 C 11.303937,8.1170684 8.5452861,11.270289 8.5410156,15 8.5408292,19.11956 11.88044,22.459171 16,22.458984 L 16,20.59375 C 12.910711,20.59362 10.40638,18.089289 10.40625,15 10.408103,12.297779 12.341326,9.9831712 15,9.5 l 0,1.5 4,-2.5 z"
       id="path4411" /><path
       id="path4450"
       d="M 14.958984,5 A 1.0001,1.0001 0 0 0 14,6 l 0,0.9101562 C 10.282051,7.8373731 7.5454905,11.089887 7.5410156,14.998047 a 1.0001,1.0001 0 0 0 0,0.002 C 7.5408048,19.659986 11.339967,23.459195 16,23.458984 20.660032,23.459195 24.459195,19.660032 24.458984,15 a 1.0001,1.0001 0 0 0 -1,-1 l -1.865234,0 a 1.0001,1.0001 0 0 0 -1,1 C 20.593643,17.548879 18.548879,19.593643 16,19.59375 13.451121,19.593643 11.406357,17.548879 11.40625,15 11.407479,13.208056 12.457592,11.675924 14,10.921875 L 14,11 a 1.0001,1.0001 0 0 0 1.529297,0.847656 l 4,-2.4999998 a 1.0001,1.0001 0 0 0 0,-1.6953124 l -4,-2.5 A 1.0001,1.0001 0 0 0 14.958984,5 Z M 15,6 19,8.5 15,11 15,9.5 A 5.593985,5.593985 0 0 0 10.40625,15 5.593985,5.593985 0 0 0 16,20.59375 5.593985,5.593985 0 0 0 21.59375,15 l 1.865234,0 A 7.4586466,7.4586466 0 0 1 16,22.458984 7.4586466,7.4586466 0 0 1 8.5410156,15 7.4586466,7.4586466 0 0 1 15,7.6171875 L 15,6 Z"
       style="color:#000000;font-style:normal;font-variant:normal;font-weight:normal;font-stretch:normal;font-size:medium;line-height:normal;font-family:sans-serif;text-indent:0;text-align:start;text-decoration:none;text-decoration-line:none;text-decoration-style:solid;text-decoration-color:#000000;letter-spacing:normal;word-spacing:normal;text-transform:none;direction:ltr;block-progression:tb;writing-mode:lr-tb;baseline-shift:baseline;text-anchor:start;white-space:normal;clip-rule:nonzero;display:inline;overflow:visible;visibility:visible;opacity:1;isolation:auto;mix-blend-mode:normal;color-interpolation:sRGB;color-interpolation-filters:linearRGB;solid-color:#000000;solid-opacity:1;fill:#000000;fill-opacity:0.40784314;fill-rule:nonzero;stroke:none;stroke-width:2;stroke-linecap:round;stroke-linejoin:round;stroke-miterlimit:4;stroke-dasharray:none;stroke-dashoffset:0;stroke-opacity:1;color-rendering:auto;image-rendering:auto;shape-rendering:auto;text-rendering:auto;enable-background:accumulate"
       inkscape:connector-curvature="0" /></g><g
     id="view-history"
     transform="translate(-5,-2.9999826)"><path
       inkscape:connector-curvature="0"
       id="path4568"
       d="m 47.970703,4.9804688 a 1.0204037,1.0204037 0 0 0 -0.511719,0.1542968 l -4,2.5 a 1.0204037,1.0204037 0 0 0 0,1.7304688 l 4,2.4999996 A 1.0204037,1.0204037 0 0 0 49.019531,11 l 0,-0.05078 C 50.540749,11.704825 51.573002,13.225883 51.574219,15 51.574112,17.537907 49.537907,19.574112 47,19.574219 c -1.800666,-7.6e-5 -3.306246,-1.053271 -4.052734,-2.554688 l 4.052734,0 c 1.101599,0 2.019531,-0.917932 2.019531,-2.019531 0,-1.101599 -0.917932,-2.019531 -2.019531,-2.019531 -0.707305,0 -1.232011,0.437285 -1.59375,1 l -4,0 -1.40625,0 -0.458984,0 A 1.0204037,1.0204037 0 0 0 38.521484,15 C 38.521273,19.671005 42.328995,23.478727 47,23.478516 51.671005,23.478727 55.478727,19.671005 55.478516,15 a 1.0204037,1.0204037 0 0 0 0,-0.002 C 55.474036,11.086135 52.73818,7.8295148 49.019531,6.8945312 L 49.019531,6 A 1.0204037,1.0204037 0 0 0 47.970703,4.9804688 Z M 48,6 48,7.6171875 C 51.696063,8.1170686 54.454713,11.270289 54.458984,15 54.45917,19.11956 51.11956,22.45917 47,22.458984 42.88044,22.45917 39.54083,19.11956 39.541016,15 L 40,15 41.40625,15 46,15 c 0,-0.554 0.446,-1 1,-1 0.554,0 1,0.446 1,1 0,0.554 -0.446,1 -1,1 l -5.5,0 c 0.47222,2.611258 2.752665,4.593634 5.5,4.59375 C 50.089289,20.59362 52.59362,18.089289 52.59375,15 52.591897,12.297779 50.658674,9.9831712 48,9.5 L 48,11 44,8.5 48,6 Z"
       style="opacity:1;fill:#000000;fill-opacity:0.39215686;fill-rule:nonzero;stroke:none;stroke-width:2;stroke-linecap:round;stroke-linejoin:round;stroke-miterlimit:4;stroke-dasharray:none;stroke-dashoffset:0;stroke-opacity:1" /><rect
       y="2.9999826"
       x="35"
       height="24"
       width="24"
       id="rect4524"
       style="opacity:0.8;fill:#000000;fill-opacity:0;stroke:none" /><path
       inkscape:connector-curvature="0"
       id="rect4557"
       d="m 48,6 -4,2.5 4,2.5 0,-1.5 c 2.658674,0.4831712 4.591897,2.797779 4.59375,5.5 C 52.59362,18.089289 50.089289,20.59362 47,20.59375 44.252665,20.593634 41.97222,18.611258 41.5,16 l 5.5,0 c 0.554,0 1,-0.446 1,-1 0,-0.554 -0.446,-1 -1,-1 -0.554,0 -1,0.446 -1,1 L 41.40625,15 40,15 39.541016,15 C 39.54083,19.11956 42.88044,22.45917 47,22.458984 51.11956,22.45917 54.45917,19.11956 54.458984,15 54.454713,11.270289 51.696063,8.1170686 48,7.6171875 L 48,6 Z"
       style="opacity:1;fill:url(#linearGradient4579);fill-opacity:1;fill-rule:nonzero;stroke:none;stroke-width:2;stroke-linecap:round;stroke-linejoin:round;stroke-miterlimit:4;stroke-dasharray:none;stroke-dashoffset:0;stroke-opacity:1" /></g></svg>