<?xml version="1.0" encoding="UTF-8" standalone="no"?>
<!-- Created with Inkscape (http://www.inkscape.org/) -->

<svg
   xmlns:dc="http://purl.org/dc/elements/1.1/"
   xmlns:cc="http://creativecommons.org/ns#"
   xmlns:rdf="http://www.w3.org/1999/02/22-rdf-syntax-ns#"
   xmlns:svg="http://www.w3.org/2000/svg"
   xmlns="http://www.w3.org/2000/svg"
   xmlns:xlink="http://www.w3.org/1999/xlink"
   xmlns:sodipodi="http://sodipodi.sourceforge.net/DTD/sodipodi-0.dtd"
   xmlns:inkscape="http://www.inkscape.org/namespaces/inkscape"
   version="1.0"
   width="48"
   height="24"
   id="svg3727"
   sodipodi:version="0.32"
   inkscape:version="0.91 r13725"
   sodipodi:docname="wallet.svgz"
   inkscape:output_extension="org.inkscape.output.svgz.inkscape">
  <sodipodi:namedview
     inkscape:window-height="1046"
     inkscape:window-width="1920"
     inkscape:pageshadow="2"
     inkscape:pageopacity="1"
     guidetolerance="10.0"
     gridtolerance="10"
     objecttolerance="10.0"
     borderopacity="1.0"
     bordercolor="#666666"
     pagecolor="#a2a2a2"
     id="base"
     showgrid="true"
     inkscape:zoom="5.6568543"
     inkscape:cx="10.790161"
     inkscape:cy="29.02224"
     inkscape:window-x="0"
     inkscape:window-y="34"
     inkscape:current-layer="svg3727"
     inkscape:window-maximized="1"
     inkscape:snap-global="true"
     fit-margin-top="0"
     fit-margin-left="0"
     fit-margin-right="0"
     fit-margin-bottom="0">
    <inkscape:grid
       id="grid2629"
       type="xygrid"
       empspacing="5"
       visible="true"
       enabled="true"
       snapvisiblegridlinesonly="true"
       originx="-31"
       originy="-93" />
  </sodipodi:namedview>
  <metadata
     id="metadata244">
    <rdf:RDF>
      <cc:Work
         rdf:about="">
        <dc:format>image/svg+xml</dc:format>
        <dc:type
           rdf:resource="http://purl.org/dc/dcmitype/StillImage" />
        <dc:title></dc:title>
      </cc:Work>
    </rdf:RDF>
  </metadata>
  <defs
     id="defs3729">
    <linearGradient
       id="linearGradient4249">
      <stop
         id="stop4251"
         offset="0"
         style="stop-color:#ffffff;stop-opacity:1;" />
      <stop
         style="stop-color:#ffffff;stop-opacity:0.78431374;"
         offset="0.47000003"
         id="stop4253" />
      <stop
         id="stop4255"
         offset="0.75125003"
         style="stop-color:#ffffff;stop-opacity:0.51724136;" />
      <stop
         id="stop4257"
         offset="1"
         style="stop-color:#ffffff;stop-opacity:1;" />
    </linearGradient>
    <linearGradient
       inkscape:collect="always"
       xlink:href="#linearGradient4249"
       id="linearGradient3977"
       gradientUnits="userSpaceOnUse"
       x1="75"
       y1="98"
       x2="75"
       y2="110.125" />
    <linearGradient
       inkscape:collect="always"
       xlink:href="#linearGradient4249"
       id="linearGradient3979"
       gradientUnits="userSpaceOnUse"
       x1="42"
       y1="97"
       x2="42"
       y2="114" />
  </defs>
  <g
     id="wallet-open"
     transform="translate(-31,-94)">
    <rect
       y="94"
       x="31"
       height="24"
       width="24"
       id="rect3939"
       style="opacity:0.7;fill:#000000;fill-opacity:0;stroke:none" />
    <path
       id="path3930"
       d="m 34.6875,96.006415 c -0.6875,0 -1.492188,0.145788 -1.78125,0.312404 -0.282756,0.170246 -0.455347,0.389197 -0.59375,0.68729 l -0.15625,0.374886 c -0.01901,0.100722 -0.09375,0.176679 -0.09375,0.281164 l 0,10.996641 c 0,0.52483 0.273019,0.95887 0.53125,1.18714 0.201257,0.1779 0.384877,0.23526 0.5625,0.3124 l 0,0.0312 10.875,6.59174 0.0625,0.0312 0.03125,0 0.0625,0.0312 0.03125,0.0312 0.03125,0.0312 c 0.163877,0.0642 0.388121,0.11933 0.65625,0.0937 0.268129,-0.0256 0.566836,-0.19826 0.75,-0.40612 C 46.022578,116.17814 46,115.8548 46,115.59418 l 0,-5.59204 6.4375,0 c 0.872664,0 1.625,-0.7524 1.625,-1.6245 l 0,-10.715481 c 0,-0.872105 -0.692389,-1.655744 -1.625,-1.655744 l -17.75,0 z m -1,0.999694 18.75,0 c 0.34697,0 0.625,0.305827 0.625,0.65605 l 0,10.715481 c 0,0.35022 -0.27803,0.6248 -0.625,0.6248 l -7.4375,0 0,6.59174 c 0,0.32546 -0.09786,0.48345 -0.375,0.37489 l -0.0625,-0.0312 -10.875,-6.62298 c -0.25747,-0.096 -0.625,-0.31299 -0.625,-0.65605 l 0,-10.996641 c 0,-0.350223 0.27803,-0.65605 0.625,-0.65605 z m 1.375,0.999695 9.5625,5.966926 c 0.31377,0.14651 0.375,0.68757 0.375,1.03094 l 0,2.99908 6.625,0 c 0.22709,0 0.4375,-0.18464 0.4375,-0.40613 l 0,-9.15345 c 0,-0.221482 -0.21041,-0.437366 -0.4375,-0.437366 l -16.5625,0 z m -1,0.999695 0,8.997251 c -0.0034,0.1506 0.0391,0.23648 0.125,0.28116 l 9.875,6.12313 0,-9.37213 -10,-6.029411 z m 4.5,0 12.5,0 0,7.997561 -5.0625,0 0,-1.99939 c 0,-0.24329 -0.02766,-0.53805 -0.125,-0.87474 -0.08789,-0.304 -0.302744,-0.69569 -0.75,-0.96845 l 0.03125,-0.0625 -6.59375,-4.092501 z m -3.5,1.780701 8,4.81104 0,7.0291 -8,-4.96723 0,-6.87291 z"
       style="color:#000000;font-style:normal;font-variant:normal;font-weight:normal;font-stretch:normal;font-size:medium;line-height:normal;font-family:'Bitstream Vera Sans';-inkscape-font-specification:'Bitstream Vera Sans';text-indent:0;text-align:start;text-decoration:none;text-decoration-line:none;letter-spacing:normal;word-spacing:normal;text-transform:none;direction:ltr;block-progression:tb;writing-mode:lr-tb;text-anchor:start;display:inline;overflow:visible;visibility:visible;fill:#000000;fill-opacity:0.39215686;fill-rule:nonzero;stroke:none;stroke-width:2;marker:none;enable-background:accumulate"
       inkscape:connector-curvature="0" />
    <path
       sodipodi:nodetypes="ccccccccccccccccccccccccccccccc"
       id="path2825"
       d="m 33.67455,97 c -0.34697,0 -0.6213,0.3048 -0.6213,0.65513 l 0,11.01067 c 0,0.34316 0.36383,0.55912 0.6213,0.65513 l 10.89057,6.61369 0.0621,0.0313 C 44.90436,116.07452 45,115.91712 45,115.59156 L 45,109 l 7.426,0.009 c 0.34697,0 0.6213,-0.2736 0.6213,-0.62393 l 0,-10.7299 c 0,-0.35033 -0.27433,-0.65513 -0.6213,-0.65513 l -18.75148,0 0,-5e-5 3e-5,-5e-5 0,6e-5 z m 1.3787,1 16.56509,0 c 0.22709,0 0.43491,0.2135 0.43491,0.43505 l 0,9.17006 c 0,0.22155 -0.20782,0.40556 -0.43491,0.40556 L 45,108 l 0,-3 c 0,-0.34347 -0.0738,-0.89659 -0.38757,-1.04314 L 35.05325,98 Z m -1,1 10,6.01755 0,9.38847 -9.85054,-6.11458 c -0.0859,-0.0447 -0.15871,-0.13012 -0.15533,-0.28077 L 34.05325,99 Z"
       style="fill:url(#linearGradient3979);fill-opacity:1"
       inkscape:connector-curvature="0" />
  </g>
  <rect
     ry="0.21213204"
     y="60"
     x="44"
     height="24"
     width="24"
     id="rect3847"
     style="fill:#5222bd;fill-opacity:0;stroke:none" />
  <g
     id="wallet-closed"
     transform="translate(-41,-94)">
    <rect
       style="opacity:0.7;fill:#000000;fill-opacity:0;stroke:none"
       id="rect3941"
       width="24"
       height="24"
       x="65"
       y="94" />
    <path
       id="path3955"
       d="M 67.53125,96 C 66.698648,96 66,96.698648 66,97.53125 l 0,11.9375 C 66,110.30135 66.698648,111 67.53125,111 l 17.9375,0 C 86.301352,111 87,110.30135 87,109.46875 L 87,107 l 0.46875,0 C 88.301352,107 89,106.30135 89,105.46875 l 0,-3.9375 C 89,100.69865 88.301352,100 87.46875,100 L 87,100 87,97.53125 C 87,96.698648 86.301352,96 85.46875,96 l -17.9375,0 z m 0,1 17.9375,0 C 85.76255,97 86,97.23745 86,97.53125 L 86,101 l 1.46875,0 C 87.76255,101 88,101.23745 88,101.53125 l 0,3.9375 C 88,105.76255 87.76255,106 87.46875,106 L 86,106 l 0,3.46875 C 86,109.76255 85.76255,110 85.46875,110 l -17.9375,0 C 67.23745,110 67,109.76255 67,109.46875 l 0,-11.9375 C 67,97.23745 67.23745,97 67.53125,97 Z m 0.90625,1 C 68.19266,98 68,98.19266 68,98.4375 l 0,10.125 C 68,108.80734 68.19266,109 68.4375,109 l 16.125,0 C 84.80734,109 85,108.80734 85,108.5625 L 85,106 81.53125,106 C 81.23745,106 81,105.76255 81,105.46875 l 0,-3.9375 C 81,101.23745 81.23745,101 81.53125,101 L 85,101 85,98.4375 C 85,98.19266 84.80734,98 84.5625,98 l -16.125,0 z M 69,99 l 15,0 0,1 -2.46875,0 C 80.698648,100 80,100.69865 80,101.53125 l 0,3.9375 C 80,106.30135 80.698648,107 81.53125,107 L 84,107 l 0,1 -15,0 0,-9 z m 13.4375,3 C 82.19266,102 82,102.19266 82,102.4375 l 0,2.125 C 82,104.80734 82.19266,105 82.4375,105 l 4.125,0 C 86.80734,105 87,104.80734 87,104.5625 l 0,-2.125 C 87,102.19266 86.80734,102 86.5625,102 l -4.125,0 z m 0.78125,1 0.5625,0 C 83.903668,103 84,103.09633 84,103.21875 l 0,0.5625 C 84,103.90367 83.903668,104 83.78125,104 l -0.5625,0 C 83.096332,104 83,103.90367 83,103.78125 l 0,-0.5625 C 83,103.09633 83.096332,103 83.21875,103 Z m 1.6875,0 1.09375,0 0,1 -1.09375,0 C 84.924177,103.92018 85,103.86463 85,103.78125 l 0,-0.5625 C 85,103.13535 84.92418,103.07982 84.90625,103 Z"
       style="color:#000000;font-style:normal;font-variant:normal;font-weight:normal;font-stretch:normal;font-size:medium;line-height:normal;font-family:'Bitstream Vera Sans';-inkscape-font-specification:'Bitstream Vera Sans';text-indent:0;text-align:start;text-decoration:none;text-decoration-line:none;letter-spacing:normal;word-spacing:normal;text-transform:none;direction:ltr;block-progression:tb;writing-mode:lr-tb;text-anchor:start;display:inline;overflow:visible;visibility:visible;fill:#000000;fill-opacity:0.39215686;fill-rule:nonzero;stroke:none;stroke-width:2;marker:none;enable-background:accumulate"
       inkscape:connector-curvature="0" />
    <path
       id="rect2827"
       d="M 67.53125,97 C 67.23745,97 67,97.23745 67,97.53125 l 0,11.9375 C 67,109.76255 67.23745,110 67.53125,110 l 17.9375,0 C 85.76255,110 86,109.76255 86,109.46875 L 86,106 l 1.46875,0 C 87.76255,106 88,105.76255 88,105.46875 l 0,-3.9375 C 88,101.23745 87.76255,101 87.46875,101 L 86,101 86,97.53125 C 86,97.23745 85.76255,97 85.46875,97 l -17.9375,0 z m 0.90625,1 16.125,0 C 84.80734,98 85,98.19266 85,98.4375 L 85,101 81.53125,101 C 81.23745,101 81,101.23745 81,101.53125 l 0,3.9375 C 81,105.76255 81.23745,106 81.53125,106 L 85,106 l 0,2.5625 C 85,108.80734 84.80734,109 84.5625,109 l -16.125,0 C 68.19266,109 68,108.80734 68,108.5625 l 0,-10.125 C 68,98.19266 68.19266,98 68.4375,98 Z m 14,4 4.125,0 C 86.80734,102 87,102.19266 87,102.4375 l 0,2.125 C 87,104.80734 86.80734,105 86.5625,105 l -4.125,0 C 82.19266,105 82,104.80734 82,104.5625 l 0,-2.125 C 82,102.19266 82.19266,102 82.4375,102 Z m 0.78125,1 C 83.096332,103 83,103.09633 83,103.21875 l 0,0.5625 C 83,103.90367 83.096332,104 83.21875,104 l 0.5625,0 C 83.903668,104 84,103.90367 84,103.78125 l 0,-0.5625 C 84,103.09633 83.903668,103 83.78125,103 l -0.5625,0 z"
       style="fill:url(#linearGradient3977);fill-opacity:1;stroke:none"
       inkscape:connector-curvature="0" />
  </g>
</svg>
