<?xml version="1.0" encoding="UTF-8" standalone="no"?>
<!-- Created with Inkscape (http://www.inkscape.org/) -->

<svg
   xmlns:dc="http://purl.org/dc/elements/1.1/"
   xmlns:cc="http://creativecommons.org/ns#"
   xmlns:rdf="http://www.w3.org/1999/02/22-rdf-syntax-ns#"
   xmlns:svg="http://www.w3.org/2000/svg"
   xmlns="http://www.w3.org/2000/svg"
   xmlns:sodipodi="http://sodipodi.sourceforge.net/DTD/sodipodi-0.dtd"
   xmlns:inkscape="http://www.inkscape.org/namespaces/inkscape"
   width="136"
   height="136"
   viewBox="0 0 35.983333 35.983334"
   id="svg2"
   version="1.1"
   inkscape:version="0.92.5 (2060ec1f9f, 2020-04-08)"
   sodipodi:docname="busywidget.svgz">
  <defs
     id="defs4">
    <style
       type="text/css"
       id="current-color-scheme">
      .ColorScheme-Text {
        color:#31363b;
        stop-color:#31363b;
      }
      .ColorScheme-Background {
        color:#eff0f1;
        stop-color:#eff0f1;
      }
      .ColorScheme-Highlight {
        color:#3daee9;
        stop-color:#3daee9;
      }
      .ColorScheme-ViewText {
        color:#31363b;
        stop-color:#31363b;
      }
      .ColorScheme-ViewBackground {
        color:#fcfcfc;
        stop-color:#fcfcfc;
      }
      .ColorScheme-ViewHover {
        color:#93cee9;
        stop-color:#93cee9;
      }
      .ColorScheme-ViewFocus{
        color:#3daee9;
        stop-color:#3daee9;
      }
      .ColorScheme-ButtonText {
        color:#31363b;
        stop-color:#31363b;
      }
      .ColorScheme-ButtonBackground {
        color:#eff0f1;
        stop-color:#eff0f1;
      }
      .ColorScheme-ButtonHover {
        color:#93cee9;
        stop-color:#93cee9;
      }
      .ColorScheme-ButtonFocus{
        color:#3daee9;
        stop-color:#3daee9;
      }
      </style>
  </defs>
  <sodipodi:namedview
     id="base"
     pagecolor="#ffffff"
     bordercolor="#c90303"
     borderopacity="1"
     inkscape:pageopacity="0"
     inkscape:pageshadow="2"
     inkscape:zoom="5.4632354"
     inkscape:cx="186.91665"
     inkscape:cy="25.042129"
     inkscape:document-units="px"
     inkscape:current-layer="layer1"
     showgrid="true"
     units="px"
     inkscape:showpageshadow="false"
     borderlayer="true"
     inkscape:window-width="1920"
     inkscape:window-height="1007"
     inkscape:window-x="0"
     inkscape:window-y="0"
     inkscape:window-maximized="1"
     fit-margin-top="0"
     fit-margin-left="0"
     fit-margin-right="0"
     fit-margin-bottom="0">
    <inkscape:grid
       type="xygrid"
       id="grid4160"
       empspacing="2"
       originx="0"
       originy="0"
       visible="true"
       enabled="true"
       snapvisiblegridlinesonly="true"
       spacingx="1"
       spacingy="1" />
    <sodipodi:guide
       position="-5.8455811e-08,35.983344"
       orientation="136.00001,0"
       id="guide4155"
       inkscape:locked="false" />
    <sodipodi:guide
       position="-5.8455811e-08,6.6152344e-06"
       orientation="0,136"
       id="guide4157"
       inkscape:locked="false" />
    <sodipodi:guide
       position="35.983333,6.6152344e-06"
       orientation="-136.00001,0"
       id="guide4159"
       inkscape:locked="false" />
    <sodipodi:guide
       position="35.983333,35.983344"
       orientation="0,-136"
       id="guide4161"
       inkscape:locked="false" />
    <sodipodi:guide
       position="1.1488343e-09,17.991675"
       orientation="68.000007,0"
       id="guide4165"
       inkscape:locked="false" />
    <sodipodi:guide
       position="1.1488343e-09,6.6152344e-06"
       orientation="0,67.999998"
       id="guide4167"
       inkscape:locked="false" />
    <sodipodi:guide
       position="17.991666,6.6152344e-06"
       orientation="-68.000007,0"
       id="guide4169"
       inkscape:locked="false" />
    <sodipodi:guide
       position="17.991666,17.991675"
       orientation="0,-67.999998"
       id="guide4171"
       inkscape:locked="false" />
    <sodipodi:guide
       position="1.8520831,34.131232"
       orientation="122.00003,0"
       id="guide4199"
       inkscape:locked="false" />
    <sodipodi:guide
       position="1.8520831,1.8520574"
       orientation="0,121.99999"
       id="guide4201"
       inkscape:locked="false" />
    <sodipodi:guide
       position="34.131248,1.8520574"
       orientation="-122.00003,0"
       id="guide4203"
       inkscape:locked="false" />
    <sodipodi:guide
       position="34.131248,34.131232"
       orientation="0,-121.99999"
       id="guide4205"
       inkscape:locked="false" />
  </sodipodi:namedview>
  <metadata
     id="metadata7">
    <rdf:RDF>
      <cc:Work
         rdf:about="">
        <dc:format>image/svg+xml</dc:format>
        <dc:type
           rdf:resource="http://purl.org/dc/dcmitype/StillImage" />
        <dc:title />
      </cc:Work>
    </rdf:RDF>
  </metadata>
  <g
     inkscape:label="Capa 1"
     inkscape:groupmode="layer"
     id="layer1"
     transform="translate(0.52916664,-249.37498)">
    <g
       id="stopped">
      <rect
         style="opacity:1;fill:none;fill-opacity:1;stroke:none;stroke-width:0.02645833;stroke-linecap:square;stroke-linejoin:miter;stroke-miterlimit:4;stroke-dasharray:none;stroke-dashoffset:0;stroke-opacity:1"
         id="rect4234"
         width="35.983334"
         height="35.983334"
         x="-42.862503"
         y="249.37497" />
      <ellipse
         ry="1.3229166"
         rx="1.322917"
         cy="38.364582"
         cx="267.36664"
         id="ellipse4238"
         style="opacity:0.9;fill:#da4453;fill-opacity:1;stroke:none;stroke-width:0.01322917;stroke-linecap:square;stroke-linejoin:miter;stroke-miterlimit:4;stroke-dasharray:none;stroke-dashoffset:0;stroke-opacity:1"
         transform="rotate(90)"
         d="m 268.68956,38.364582 c 0,0.730627 -0.59229,1.322917 -1.32292,1.322917 -0.73063,0 -1.32292,-0.59229 -1.32292,-1.322917 0,-0.730627 0.59229,-1.322917 1.32292,-1.322917 0.73063,0 1.32292,0.59229 1.32292,1.322917 z" />
      <ellipse
         transform="rotate(90)"
         style="opacity:0.9;fill:#da4453;fill-opacity:1;stroke:none;stroke-width:0.01058334;stroke-linecap:square;stroke-linejoin:miter;stroke-miterlimit:4;stroke-dasharray:none;stroke-dashoffset:0;stroke-opacity:1"
         id="ellipse4261"
         cx="267.36664"
         cy="11.377067"
         rx="1.0583339"
         ry="1.0583336"
         d="m 268.42497,11.377067 c 0,0.584501 -0.47383,1.058333 -1.05833,1.058333 -0.5845,0 -1.05834,-0.473832 -1.05834,-1.058333 0,-0.584502 0.47384,-1.058334 1.05834,-1.058334 0.5845,0 1.05833,0.473832 1.05833,1.058334 z" />
      <ellipse
         ry="2.1166663"
         rx="2.116667"
         cy="24.870825"
         cx="267.36664"
         id="ellipse4263"
         style="opacity:0.9;fill:#da4453;fill-opacity:1;stroke:none;stroke-width:0.02116666;stroke-linecap:square;stroke-linejoin:miter;stroke-miterlimit:4;stroke-dasharray:none;stroke-dashoffset:0;stroke-opacity:1"
         transform="rotate(90)"
         d="m 269.48331,24.870825 c 0,1.169002 -0.94767,2.116666 -2.11667,2.116666 -1.169,0 -2.11667,-0.947664 -2.11667,-2.116666 0,-1.169003 0.94767,-2.116667 2.11667,-2.116667 1.169,0 2.11667,0.947664 2.11667,2.116667 z" />
    </g>
    <rect
       style="fill:#0000ff;fill-opacity:1;fill-rule:nonzero;stroke:none;stroke-width:0.26458335"
       id="hint-rotation-angle"
       width="3.7041671"
       height="3.7041693"
       x="-0.52916706"
       y="285.35831" />
    <g
       id="busywidget"
       transform="translate(-36.777084)">
      <rect
         style="fill:none;stroke:none"
         id="rect3016"
         width="35.983334"
         height="35.983334"
         x="36.247917"
         y="249.37498" />
      <path
         class="ColorScheme-ButtonFocus"
         d="m 54.239579,252.55041 c -1.250543,0.007 -2.495143,0.1722 -3.704169,0.4921 v 1.93529 c -0.8449,0.2527 -1.661835,0.5908 -2.4381,1.00926 l -1.370963,-1.37102 c -2.161292,1.27435 -3.963589,3.07664 -5.237918,5.23796 l 1.370971,1.37095 c -0.41972,0.77609 -0.75908,1.59306 -1.012872,2.4381 h -1.9425 c -0.31598,1.20946 -0.47768,2.45413 -0.48111,3.70419 0.0077,1.25055 0.17227,2.49515 0.49196,3.70412 h 1.935276 c 0.25263,0.8449 0.5908,1.66187 1.009239,2.4381 l -0.40516,0.4053 -0.965839,0.96586 c 1.274322,2.16125 3.076626,3.96361 5.237932,5.23789 l 0.965824,-0.96586 0.40516,-0.4053 c 0.776118,0.4193 1.593053,0.75908 2.4381,1.01283 v 1.9425 c 1.209488,0.3164 2.454088,0.4774 3.704169,0.4809 1.250081,-0.006 2.494681,-0.1652 3.704169,-0.4809 v -1.9425 c 0.845047,-0.2534 1.661982,-0.5929 2.4381,-1.01283 l 1.370964,1.37095 c 2.161309,-1.27428 3.963606,-3.07664 5.237928,-5.23789 l -1.370985,-1.37102 c 0.41846,-0.77623 0.756637,-1.5932 1.009239,-2.4381 h 1.935297 c 0.31969,-1.20897 0.48454,-2.45357 0.49196,-3.70412 -0.0036,-1.25006 -0.1652,-2.49473 -0.48111,-3.70419 h -1.9425 c -0.25375,-0.84504 -0.59318,-1.66201 -1.012872,-2.4381 l 0.40516,-0.4053 0.965839,-0.96579 c -1.274322,-2.16132 -3.07664,-3.96361 -5.237928,-5.23796 l -1.356502,1.35653 -0.0147,0.014 c -0.776286,-0.4186 -1.593221,-0.75663 -2.438121,-1.00926 v -1.93529 c -1.209026,-0.3199 -2.453626,-0.4844 -3.704169,-0.4921 z m 0,1.85206 c 0.62027,0.001 1.240078,0.049 1.852081,0.1414 v 1.87019 c 1.649396,0.2828 3.213623,0.9345 4.575942,1.90638 l 0.11949,-0.119 1.208284,-1.20827 c 0.995193,0.74207 1.877914,1.62204 2.622581,2.61534 l -1.327739,1.32769 c 0.96845,1.36437 1.616384,2.92978 1.895404,4.57961 h 1.880991 c 0.08946,0.6132 0.1365,1.23074 0.13741,1.85206 -0.002,0.6202 -0.0504,1.24005 -0.14112,1.85206 h -1.870176 c -0.2828,1.64941 -0.934451,3.21363 -1.906331,4.57597 l 0.11928,0.1197 1.208277,1.20827 c -0.74207,0.99526 -1.622068,1.87796 -2.615336,2.62262 l -1.327746,-1.32776 c -1.364447,0.96845 -2.929899,1.61644 -4.579659,1.89546 v 1.88097 c -0.61313,0.0896 -1.230803,0.1365 -1.852088,0.1372 -0.62125,-9.1e-4 -1.23893,-0.049 -1.852081,-0.1372 v -1.88097 c -1.64976,-0.2793 -3.215219,-0.92701 -4.579575,-1.89553 l -1.327738,1.32776 c -0.993251,-0.74466 -1.873249,-1.62736 -2.615326,-2.62262 l 1.208284,-1.20827 0.11942,-0.119 c -0.97188,-1.3622 -1.623552,-2.92642 -1.906331,-4.57583 h -1.870176 c -0.09037,-0.6118 -0.13888,-1.23179 -0.14112,-1.85213 9.24e-4,-0.6216 0.0483,-1.23893 0.13741,-1.85206 h 1.881012 c 0.27902,-1.64976 0.926947,-3.21524 1.895495,-4.57954 l -1.327739,-1.32776 c 0.744667,-0.99323 1.627388,-1.87327 2.622585,-2.61534 l 1.208283,1.20827 0.11949,0.119 c 1.36234,-0.97188 2.926574,-1.62351 4.575963,-1.90631 v -1.87019 c 0.61201,-0.0903 1.231804,-0.1386 1.852081,-0.1414 z"
         id="path5"
         inkscape:connector-curvature="0"
         style="fill:currentColor;fill-opacity:1;stroke:none" />
    </g>
    <g
       id="22-22-busywidget">
      <rect
         y="279.53748"
         x="51.329166"
         height="5.8208337"
         width="5.8208337"
         id="rect3007"
         style="fill:none;stroke:none" />
      <path
         class="ColorScheme-ButtonFocus"
         d="m 53.84271,280.06665 v 0.43717 c -0.248425,0.0513 -0.484716,0.1497 -0.696085,0.28991 l -0.310057,-0.31005 -0.561206,0.5612 0.310059,0.31005 c -0.139694,0.2115 -0.237569,0.44777 -0.288353,0.6961 h -0.438734 v 0.79374 h 0.437181 c 0.05126,0.24842 0.14967,0.48472 0.289906,0.69608 l -0.310059,0.31005 0.561206,0.56122 0.310057,-0.31005 c 0.211484,0.13965 0.447772,0.23755 0.696085,0.28834 v 0.43874 h 0.793748 v -0.43717 c 0.248425,-0.0513 0.484717,-0.14971 0.696085,-0.28991 l 0.310057,0.31005 0.561206,-0.56122 -0.310059,-0.31005 c 0.139695,-0.21148 0.23757,-0.44775 0.288353,-0.69608 h 0.438734 v -0.79374 h -0.437181 c -0.05126,-0.24844 -0.14967,-0.48473 -0.289906,-0.6961 l 0.310059,-0.31005 -0.561206,-0.5612 -0.310057,0.31005 c -0.211487,-0.13965 -0.447771,-0.23755 -0.696085,-0.28835 v -0.43873 z m 0.396874,0.79375 c 0.429013,0 0.839763,0.17364 1.13869,0.48137 0.28781,0.29628 0.44881,0.69307 0.44881,1.10612 0,0.42903 -0.17364,0.83977 -0.481365,1.1387 -0.296283,0.2878 -0.693075,0.44881 -1.106135,0.44881 -0.429013,0 -0.839762,-0.17365 -1.13869,-0.48137 -0.287809,-0.29628 -0.44881,-0.69308 -0.44881,-1.10614 0,-0.42901 0.173641,-0.83975 0.481365,-1.13868 0.296284,-0.28782 0.693076,-0.44881 1.106135,-0.44881 z"
         id="path5-3"
         inkscape:connector-curvature="0"
         style="fill:currentColor;fill-opacity:1;stroke:none" />
    </g>
    <g
       id="16-16-busywidget">
      <rect
         style="fill:none;stroke:none"
         id="rect3792"
         width="4.2333336"
         height="4.2333336"
         x="58.472801"
         y="281.12497" />
      <path
         class="ColorScheme-ButtonFocus"
         d="m 60.280903,281.38956 v 0.34003 c -0.193218,0.0399 -0.377001,0.11643 -0.541398,0.22548 l -0.241156,-0.24115 -0.436493,0.4365 0.241157,0.24115 c -0.108652,0.16448 -0.184777,0.34826 -0.224276,0.5414 H 58.7375 v 0.61735 h 0.34003 c 0.03986,0.19323 0.11641,0.37701 0.225483,0.54141 l -0.241157,0.24115 0.436493,0.43649 0.241156,-0.24115 c 0.164487,0.10862 0.348266,0.18477 0.541398,0.22427 v 0.34124 h 0.617361 v -0.34003 c 0.193218,-0.0399 0.377001,-0.11643 0.541398,-0.22548 l 0.241156,0.24115 0.436493,-0.43649 -0.241157,-0.24115 c 0.108652,-0.16449 0.184777,-0.34827 0.224276,-0.54141 h 0.341237 v -0.61735 h -0.34003 c -0.03987,-0.19322 -0.11641,-0.37701 -0.225483,-0.5414 l 0.241157,-0.24115 -0.436493,-0.4365 -0.241156,0.24115 c -0.164489,-0.10862 -0.348266,-0.18477 -0.541398,-0.22427 v -0.34124 z m 0.30868,0.61737 c 0.333678,0 0.653149,0.13505 0.885649,0.37439 0.223851,0.23044 0.349073,0.53906 0.349073,0.86033 0,0.33367 -0.135053,0.65314 -0.374395,0.88565 -0.230442,0.22385 -0.539058,0.34906 -0.860327,0.34906 -0.333677,0 -0.653149,-0.13505 -0.885648,-0.37439 -0.223852,-0.23044 -0.349073,-0.53906 -0.349073,-0.86032 0,-0.33368 0.135053,-0.65315 0.374395,-0.88566 0.230442,-0.22384 0.539058,-0.34906 0.860326,-0.34906 z"
         id="path5-6"
         inkscape:connector-curvature="0"
         style="fill:currentColor;fill-opacity:1;stroke:none" />
    </g>
  </g>
</svg>
