<?xml version="1.0" encoding="UTF-8" standalone="no"?>
<svg xmlns="http://www.w3.org/2000/svg" xmlns:xlink="http://www.w3.org/1999/xlink" width="56" height="56" viewBox="0 0 56 56" id="svg1" version="1.1">
  <style id="current-color-scheme" type="text/css">
    .ColorScheme-Highlight {
        color:#ddb323;
    }
  </style>
  <defs>
    <linearGradient id="line">
      <stop offset="0"   class="ColorScheme-Highlight" style="stop-color:currentColor;stop-opacity:0.87450981" />
      <stop offset="0.5" class="ColorScheme-Highlight" style="stop-color:currentColor;stop-opacity:0.627451" />
      <stop offset="1"   class="ColorScheme-Highlight" style="stop-color:currentColor;stop-opacity:0" />
    </linearGradient>
    <radialGradient id="rad" cx="0" cy="0" r="1" xlink:href="#line" />
  </defs>
  <rect id="hint-glow-radius" width="5" height="5" x="0" y="0" style="fill:#ff6600" />
  <rect id="hint-tile-center" width="5" height="5" x="0" y="6" style="fill:#ff6600" />

  <g id="top" transform="translate(22,10)">
    <rect style="fill:url(#line)" height="12" width="12" transform="rotate(-90 6 6)" />
  </g>
  <g id="left" transform="translate(10,22)">
    <rect style="fill:url(#line)" height="12" width="12" transform="rotate(180 6 6)" />
  </g>
  <g id="right" transform="translate(34,22)">
    <rect style="fill:url(#line)" height="12" width="12" />
  </g>
  <g id="bottom" transform="translate(22,34)">
    <rect style="fill:url(#line)" height="12" width="12" transform="rotate(90 6 6)" />
  </g>

  <g transform="translate(22,22)" id="center">
    <rect height="12" width="12" class="ColorScheme-Highlight" style="fill:currentColor;fill-opacity:0.8745098" />
  </g>

  <g id="topright" transform="translate(34,10)">
    <rect style="fill:url(#rad)" height="12" width="12" transform="rotate(-90 6 6)" />
  </g>
  <g id="bottomright" transform="translate(34,34)">
    <rect style="fill:url(#rad)" height="12" width="12" />
  </g>
  <g id="bottomleft" transform="translate(10,34)">
    <rect style="fill:url(#rad)" height="12" width="12" transform="rotate(90 6 6)" />
  </g>
  <g id="topleft" transform="translate(10,10)">
    <rect style="fill:url(#rad)" height="12" width="12" transform="rotate(180 6 6)" />
  </g>
</svg>
