<?xml version="1.0" encoding="UTF-8" standalone="no"?>
<svg xmlns:svg="http://www.w3.org/2000/svg" xmlns="http://www.w3.org/2000/svg" xmlns:sodipodi="http://sodipodi.sourceforge.net/DTD/sodipodi-0.dtd" xmlns:inkscape="http://www.inkscape.org/namespaces/inkscape" inkscape:version="1.1-dev (73b0fd04cb, 2020-05-06)" sodipodi:docname="menuitem.svg" version="1.1" viewBox="0 0 112 34" id="svg2" width="112" height="34">
   <defs id="defs319" />
   <sodipodi:namedview inkscape:window-maximized="1" inkscape:window-y="0" inkscape:window-x="0" inkscape:cy="-20.551177" inkscape:cx="4.4621643" inkscape:zoom="4.0000002" inkscape:current-layer="svg2" showgrid="true" id="namedview317" inkscape:window-height="1016" inkscape:window-width="1920" inkscape:pageshadow="2" inkscape:pageopacity="0" guidetolerance="10" gridtolerance="10" objecttolerance="10" borderopacity="1" bordercolor="#666666" pagecolor="#ffffff" inkscape:snap-text-baseline="true" inkscape:snap-smooth-nodes="true" fit-margin-top="0" fit-margin-left="0" fit-margin-right="0" fit-margin-bottom="0">
      <inkscape:grid empspacing="2" id="grid1136" type="xygrid" originx="0" originy="0" />
   </sodipodi:namedview>
   <style id="current-color-scheme" type="text/css">
        .ColorScheme-ButtonBackground {
            color:#eff0f1;
            stop-color:#eff0f1;
        }
        .ColorScheme-ButtonHover {
            color:#93cee9;
            stop-color:#93cee9;
        }
        .ColorScheme-ButtonFocus{
            color:#3daee9;
            stop-color:#3daee9;
        }
    </style>
   <g transform="translate(-174,-62)" id="normal-center">
      <path id="path34" fill-rule="evenodd" fill="transparent" d="m 180,68 h 22 v 22 h -22 z" />
   </g>
   <g fill-rule="evenodd" transform="translate(0,4)" id="normal-bottomleft">
      <path fill="transparent" d="m 0,28 c 0,1.108 0.892,2 2,2 v -2 z" id="rect833-7-3" />
   </g>
   <g fill-rule="evenodd" transform="translate(2,4)" id="normal-bottom">
      <path fill="transparent" d="m -26,-30 h 22 v 2 h -22 z" transform="scale(-1)" id="rect829-6" />
   </g>
   <g fill-rule="evenodd" transform="matrix(1,0,0,-1,0,30)" id="normal-topleft">
      <path fill="transparent" d="m 0,28 c 0,1.108 0.892,2 2,2 v -2 z" id="rect833-7-3-1" />
   </g>
   <g fill-rule="evenodd" transform="matrix(1,0,0,-1,2,30)" id="normal-top">
      <path fill="transparent" d="m -26,-30 h 22 v 2 h -22 z" transform="scale(-1)" id="rect829-6-0" />
   </g>
   <g fill-rule="evenodd" transform="matrix(0,1,1,0,4,0)" id="normal-topright">
      <path fill="transparent" d="m 0,28 c 0,1.108 0.892,2 2,2 v -2 z" id="rect833-7-3-6" />
   </g>
   <g fill-rule="evenodd" transform="matrix(0,1,1,0,4,2)" id="normal-right">
      <path fill="transparent" d="m -26,-30 h 22 v 2 h -22 z" transform="scale(-1)" id="rect829-6-26" />
   </g>
   <g fill-rule="evenodd" transform="matrix(-1,0,0,1,34,4)" id="normal-bottomright">
      <path fill="transparent" d="m 0,28 c 0,1.108 0.892,2 2,2 v -2 z" id="rect833-7-3-7" />
   </g>
   <g fill-rule="evenodd" transform="rotate(90,14,16)" id="normal-left">
      <path fill="transparent" d="m -26,-30 h 22 v 2 h -22 z" transform="scale(-1)" id="rect829-6-26-0" />
   </g>
   <path fill-rule="evenodd" fill="#ff00ff" d="m 16,0 h 2 v 6 h -2 z" id="normal-hint-top-margin" style="fill:#ed333b;stroke-width:0.999996" />
   <path fill-rule="evenodd" fill="#ff00ff" d="m 16,28 h 2 v 6 h -2 z" id="normal-hint-bottom-margin" style="fill:#ed333b;stroke-width:0.999996" />
   <path fill-rule="evenodd" fill="#ff00ff" d="m 0,16 h 6 v 2 H 0 Z" id="normal-hint-left-margin" style="fill:#ed333b;stroke-width:0.999996" />
   <path fill-rule="evenodd" fill="#ff00ff" d="m 28,16 h 6 v 2 h -6 z" id="normal-hint-right-margin" style="fill:#ed333b;stroke-width:0.999996" />
   <g transform="translate(-72,-138)" id="hover-center">
      <path id="path208" fill-rule="evenodd" fill="currentColor" class="ColorScheme-ButtonFocus" d="m 118,144 h 22 v 22 h -22 z" />
   </g>
   <g fill-rule="evenodd" transform="translate(40,4)" id="hover-bottomleft">
      <path sodipodi:nodetypes="ccccc" fill="currentColor" class="ColorScheme-ButtonFocus" d="m 0,28 v 2 h 2 v -2 z" id="rect833-7-3-55-1-3" />
   </g>
   <g fill-rule="evenodd" transform="translate(42,4)" id="hover-bottom">
      <path fill="currentColor" class="ColorScheme-ButtonFocus" d="m -26,-30 h 22 v 2 h -22 z" transform="scale(-1)" id="rect829-6-5-1-9" />
   </g>
   <g fill-rule="evenodd" transform="matrix(1,0,0,-1,40,30)" id="hover-topleft">
      <path sodipodi:nodetypes="ccccc" fill="currentColor" class="ColorScheme-ButtonFocus" d="m 0,28 v 2 h 2 v -2 z" id="rect833-7-3-1-3-9-6" />
   </g>
   <g fill-rule="evenodd" transform="matrix(1,0,0,-1,42,30)" id="hover-top">
      <path fill="currentColor" class="ColorScheme-ButtonFocus" d="m -26,-30 h 22 v 2 h -22 z" transform="scale(-1)" id="rect829-6-0-5-6-4" />
   </g>
   <g fill-rule="evenodd" transform="matrix(0,1,1,0,44,0)" id="hover-topright">
      <path sodipodi:nodetypes="ccccc" fill="currentColor" class="ColorScheme-ButtonFocus" d="m 0,28 v 2 h 2 v -2 z" id="rect833-7-3-6-4-6-4" />
   </g>
   <g fill-rule="evenodd" transform="matrix(0,1,1,0,44,2)" id="hover-right">
      <path fill="currentColor" class="ColorScheme-ButtonFocus" d="m -26,-30 h 22 v 2 h -22 z" transform="scale(-1)" id="rect829-6-26-4-3-8" />
   </g>
   <g fill-rule="evenodd" transform="matrix(-1,0,0,1,74,4)" id="hover-bottomright">
      <path sodipodi:nodetypes="ccccccc" fill="currentColor" class="ColorScheme-ButtonFocus" d="m 0,28 v 2 H 2 V 29 28 H 1 Z" id="rect833-7-3-7-7-8-2" />
   </g>
   <g fill-rule="evenodd" transform="rotate(90,34,36)" id="hover-left">
      <path fill="currentColor" class="ColorScheme-ButtonFocus" d="m -26,-30 h 22 v 2 h -22 z" transform="scale(-1)" id="rect829-6-26-0-8-9-6" />
   </g>
   <path fill-rule="evenodd" fill="#ff00ff" d="m 56,0 h 2 v 6 h -2 z" id="hover-hint-top-margin" style="fill:#ed333b;stroke-width:0.999996" />
   <path fill-rule="evenodd" fill="#ff00ff" d="m 56,28 h 2 v 6 h -2 z" id="hover-hint-bottom-margin" style="fill:#ed333b;stroke-width:0.999996" />
   <path fill-rule="evenodd" fill="#ff00ff" d="m 40,16 h 6 v 2 h -6 z" id="hover-hint-left-margin" style="fill:#ed333b;stroke-width:0.999996" />
   <path fill-rule="evenodd" fill="#ff00ff" d="m 68,16 h 6 v 2 h -6 z" id="hover-hint-right-margin" style="fill:#ed333b;stroke-width:0.999996" />
   <g id="pressed-center" transform="translate(-34,-138)">
      <path d="m 118,144 h 22 v 22 h -22 z" class="ColorScheme-ButtonFocus" fill="currentColor" fill-rule="evenodd" id="path208-6" />
   </g>
   <g id="pressed-bottomleft" transform="translate(78,4)" fill-rule="evenodd">
      <path id="rect833-7-3-55-1-3-5" d="m 0,28 v 2 h 2 v -2 z" class="ColorScheme-ButtonFocus" fill="currentColor" sodipodi:nodetypes="ccccc" />
   </g>
   <g id="pressed-bottom" transform="translate(80,4)" fill-rule="evenodd">
      <path id="rect829-6-5-1-9-5" transform="scale(-1)" d="m -26,-30 h 22 v 2 h -22 z" class="ColorScheme-ButtonFocus" fill="currentColor" />
   </g>
   <g id="pressed-topleft" transform="matrix(1,0,0,-1,78,30)" fill-rule="evenodd">
      <path id="rect833-7-3-1-3-9-6-2" d="m 0,28 v 2 h 2 v -2 z" class="ColorScheme-ButtonFocus" fill="currentColor" sodipodi:nodetypes="ccccc" />
   </g>
   <g id="pressed-top" transform="matrix(1,0,0,-1,80,30)" fill-rule="evenodd">
      <path id="rect829-6-0-5-6-4-1" transform="scale(-1)" d="m -26,-30 h 22 v 2 h -22 z" class="ColorScheme-ButtonFocus" fill="currentColor" />
   </g>
   <g id="pressed-topright" transform="matrix(0,1,1,0,82,0)" fill-rule="evenodd">
      <path id="rect833-7-3-6-4-6-4-7" d="m 0,28 v 2 h 2 v -2 z" class="ColorScheme-ButtonFocus" fill="currentColor" sodipodi:nodetypes="ccccc" />
   </g>
   <g id="pressed-right" transform="matrix(0,1,1,0,82,2)" fill-rule="evenodd">
      <path id="rect829-6-26-4-3-8-9" transform="scale(-1)" d="m -26,-30 h 22 v 2 h -22 z" class="ColorScheme-ButtonFocus" fill="currentColor" />
   </g>
   <g id="pressed-bottomright" transform="matrix(-1,0,0,1,112,4)" fill-rule="evenodd">
      <path id="rect833-7-3-7-7-8-2-6" d="m 0,28 v 2 H 2 V 29 28 H 1 Z" class="ColorScheme-ButtonFocus" fill="currentColor" sodipodi:nodetypes="ccccccc" />
   </g>
   <g id="pressed-left" transform="rotate(90,53,55)" fill-rule="evenodd">
      <path id="rect829-6-26-0-8-9-6-6" transform="scale(-1)" d="m -26,-30 h 22 v 2 h -22 z" class="ColorScheme-ButtonFocus" fill="currentColor" />
   </g>
   <path style="fill:#ed333b;stroke-width:0.999996" id="pressed-hint-top-margin" d="m 94,0 h 2 v 6 h -2 z" fill="#ff00ff" fill-rule="evenodd" />
   <path style="fill:#ed333b;stroke-width:0.999996" id="pressed-hint-bottom-margin" d="m 94,28 h 2 v 6 h -2 z" fill="#ff00ff" fill-rule="evenodd" />
   <path style="fill:#ed333b;stroke-width:0.999996" id="pressed-hint-left-margin" d="m 78,16 h 6 v 2 h -6 z" fill="#ff00ff" fill-rule="evenodd" />
   <path style="fill:#ed333b;stroke-width:0.999996" id="pressed-hint-right-margin" d="m 106,16 h 6 v 2 h -6 z" fill="#ff00ff" fill-rule="evenodd" />
</svg>
