<svg id="svg2" version="1.1" viewBox="0 0 173 56.000004" xmlns="http://www.w3.org/2000/svg" xmlns:xlink="http://www.w3.org/1999/xlink">
    <defs id="defs4">
        <style id="current-color-scheme" type="text/css">.ColorScheme-Text {
        color:#31363b;
        stop-color:#31363b;
      }
      .ColorScheme-Background {
        color:#eff0f1;
        stop-color:#eff0f1;
      }
      .ColorScheme-Highlight {
        color:#3daee9;
        stop-color:#3daee9;
      }
      .ColorScheme-ViewText {
        color:#31363b;
        stop-color:#31363b;
      }
      .ColorScheme-ViewBackground {
        color:#fcfcfc;
        stop-color:#fcfcfc;
      }
      .ColorScheme-ViewHover {
        color:#93cee9;
        stop-color:#93cee9;
      }
      .ColorScheme-ViewFocus{
        color:#3daee9;
        stop-color:#3daee9;
      }
      .ColorScheme-ButtonText {
        color:#31363b;
        stop-color:#31363b;
      }
      .ColorScheme-ButtonBackground {
        color:#eff0f1;
        stop-color:#eff0f1;
      }
      .ColorScheme-ButtonHover {
        color:#93cee9;
        stop-color:#93cee9;
      }
      .ColorScheme-ButtonFocus{
        color:#3daee9;
        stop-color:#3daee9;
      }</style>
        <linearGradient id="linearGradient4950" x1="55" x2="63" y1="932.36218" y2="932.36218" gradientUnits="userSpaceOnUse">
            <stop id="stop1060" stop-opacity=".3" offset="0"/>
            <stop id="stop1091" stop-opacity=".06" offset=".62480551"/>
            <stop id="stop1062" stop-opacity="0" offset="1"/>
        </linearGradient>
        <linearGradient id="linearGradient4948" x1="-15" x2="-7" y1="932.36218" y2="932.36218" gradientUnits="userSpaceOnUse">
            <stop id="stop1084" stop-opacity=".3" offset="0"/>
            <stop id="stop1107" stop-opacity=".06" offset=".63005114"/>
            <stop id="stop1086" stop-opacity="0" offset="1"/>
        </linearGradient>
        <linearGradient id="linearGradient4942" x1="51" x2="51" y1="47.999981" y2="55.999981" gradientTransform="translate(58)" gradientUnits="userSpaceOnUse">
            <stop id="stop1114" stop-opacity=".3" offset="0"/>
            <stop id="stop1097" stop-opacity=".06" offset=".61744702"/>
            <stop id="stop1116" stop-opacity="0" offset="1"/>
        </linearGradient>
        <radialGradient id="radialGradient4944" cx="54.249981" cy="945.11224" r="6" gradientTransform="matrix(-8.2303024e-6,1.3333332,-1.333321,-8.2302289e-6,1373.1386,-24.325538)" gradientUnits="userSpaceOnUse">
            <stop id="stop1120" stop-opacity=".3" offset="0"/>
            <stop id="stop1095" stop-opacity=".06" offset=".62755448"/>
            <stop id="stop1122" stop-opacity="0" offset="1"/>
        </radialGradient>
        <linearGradient id="linearGradient4946" x1="55" x2="63" y1="43.999981" y2="43.999981" gradientUnits="userSpaceOnUse">
            <stop id="stop4272" stop-opacity=".3" offset="0"/>
            <stop id="stop1093" stop-opacity=".06" offset=".62618655"/>
            <stop id="stop4274" stop-opacity="0" offset="1"/>
        </linearGradient>
        <linearGradient id="linearGradient4936" x1="19" x2="19" y1="47.999977" y2="55.999981" gradientTransform="translate(58)" gradientUnits="userSpaceOnUse">
            <stop id="stop1102" stop-opacity=".3" offset="0"/>
            <stop id="stop1101" stop-opacity=".06" offset=".62849575"/>
            <stop id="stop1104" stop-opacity="0" offset="1"/>
        </linearGradient>
        <radialGradient id="radialGradient4938" cx="7.6428633" cy="950.36188" r="6" gradientTransform="matrix(-1.3333331,-1.2763442e-5,1.2763442e-5,-1.3333332,83.178352,1315.1492)" gradientUnits="userSpaceOnUse">
            <stop id="stop1096" stop-opacity=".3" offset="0"/>
            <stop id="stop1103" stop-opacity=".06" offset=".62710482"/>
            <stop id="stop1098" stop-opacity="0" offset="1"/>
        </radialGradient>
        <linearGradient id="linearGradient4940" x1="15" x2="7" y1="43.999981" y2="43.999981" gradientUnits="userSpaceOnUse" xlink:href="#linearGradient1082"/>
        <linearGradient id="linearGradient1082">
            <stop id="stop1078" stop-opacity=".3" offset="0"/>
            <stop id="stop1109" stop-opacity=".06" offset=".62590796"/>
            <stop id="stop1080" stop-opacity="0" offset="1"/>
        </linearGradient>
        <linearGradient id="linearGradient4934" x1="952.36218" x2="960.36218" y1="-35" y2="-35" gradientUnits="userSpaceOnUse">
            <stop id="stop1108" stop-opacity=".3" offset="0"/>
            <stop id="stop1099" stop-opacity=".06" offset=".62711179"/>
            <stop id="stop1110" stop-opacity="0" offset="1"/>
        </linearGradient>
        <linearGradient id="linearGradient4928" x1="55" x2="63" y1="11.99998" y2="11.99998" gradientUnits="userSpaceOnUse">
            <stop id="stop1054" stop-opacity=".3" offset="0"/>
            <stop id="stop1089" stop-opacity=".06" offset=".62066227"/>
            <stop id="stop1056" stop-opacity="0" offset="1"/>
        </linearGradient>
        <radialGradient id="radialGradient4930" cx="53.892849" cy="911.76221" r="6" gradientTransform="matrix(1.3333337,7.9263054e-6,-7.7052181e-6,1.3333363,41.149874,-1207.6861)" gradientUnits="userSpaceOnUse">
            <stop id="stop1048" stop-opacity=".3" offset="0"/>
            <stop id="stop1087" stop-opacity=".06" offset=".62635893"/>
            <stop id="stop1050" stop-opacity="0" offset="1"/>
        </radialGradient>
        <linearGradient id="linearGradient3056" x1="51" x2="51" y1="7.9999795" y2="-2.0185304e-5" gradientTransform="translate(58)" gradientUnits="userSpaceOnUse">
            <stop id="stop1042" stop-opacity=".3" offset="0"/>
            <stop id="stop1085" stop-opacity=".06" offset=".62083668"/>
            <stop id="stop1044" stop-opacity="0" offset="1"/>
        </linearGradient>
        <linearGradient id="linearGradient4922" x1="15" x2="7" y1="11.99998" y2="11.99998" gradientUnits="userSpaceOnUse" xlink:href="#linearGradient1082"/>
        <radialGradient id="radialGradient4924" cx="22.200001" cy="913.9693" r="6" gradientTransform="matrix(8.5676352e-6,-1.3333332,1.3333393,8.5676761e-6,-1145.6314,37.592148)" gradientUnits="userSpaceOnUse">
            <stop id="stop1072" stop-opacity=".3" offset="0"/>
            <stop id="stop1111" stop-opacity=".06" offset=".62452108"/>
            <stop id="stop1074" stop-opacity="0" offset="1"/>
        </radialGradient>
        <linearGradient id="linearGradient4926" x1="19" x2="19" y1="7.9999795" y2="-2.0185304e-5" gradientTransform="translate(58)" gradientUnits="userSpaceOnUse">
            <stop id="stop1066" stop-opacity=".3" offset="0"/>
            <stop id="stop1113" stop-opacity=".06" offset=".61807454"/>
            <stop id="stop1068" stop-opacity="0" offset="1"/>
        </linearGradient>
        <linearGradient id="linearGradient3054" x1="-912.36218" x2="-904.36218" y1="-35" y2="-35" gradientUnits="userSpaceOnUse">
            <stop id="stop1036" stop-opacity=".3" offset="0"/>
            <stop id="stop1083" stop-opacity=".06" offset=".61945844"/>
            <stop id="stop1038" stop-opacity="0" offset="1"/>
        </linearGradient>
    </defs>
    <g id="layer1" transform="translate(0,-904.36218)">
        <rect id="hint-tile-center" y="904.36218" width="5" height="5" fill="#f60"/>
        <g id="top">
            <rect id="rect4152" class="ColorScheme-Background" transform="matrix(0,-1,-1,0,0,0)" x="-916.36218" y="-50.999985" width="6" height="32" fill="currentColor" opacity=".9"/>
        </g>
        <g id="bottom">
            <rect id="rect4148" class="ColorScheme-Background" transform="rotate(90)" x="948.36218" y="-50.999985" width="6" height="32" fill="currentColor" opacity=".9"/>
        </g>
        <g id="left">
            <rect id="rect4144" class="ColorScheme-Background" transform="scale(-1,1)" x="-19.000004" y="916.36218" width="5.9999995" height="32" fill="currentColor" opacity=".9"/>
        </g>
        <g id="right">
            <rect id="rect4140" class="ColorScheme-Background" x="50.999985" y="916.36218" width="5.9999995" height="32" fill="currentColor" opacity=".9"/>
        </g>
        <g id="center">
            <rect id="rect4401" x="19.000004" y="916.36218" width="32" height="32" fill="none"/>
            <rect id="rect4138" class="ColorScheme-Background" x="19.000004" y="916.36218" width="32" height="32" fill="currentColor" opacity=".9"/>
        </g>
        <g id="shadow-top" transform="translate(56.99998,1.7432666e-5)">
            <rect id="rect4820" transform="matrix(0,-1,-1,0,0,0)" x="-916.36218" y="-50.999985" width="6" height="32" fill="none"/>
            <rect id="rect4822" transform="matrix(0,-1,-1,0,0,0)" x="-910.36218" y="-50.999985" width="6" height="32" fill="url(#linearGradient3054)" opacity=".9"/>
            <rect id="rect4824" transform="matrix(0,-1,-1,0,0,0)" x="-911.36218" y="-50.999985" width=".99997741" height="32" fill="none"/>
        </g>
        <g id="shadow-topleft" transform="translate(56.99998,1.7432666e-5)">
            <path id="path4828" transform="translate(0,904.36218)" d="m7 9v3h6v-4 1z" fill="url(#linearGradient4922)" fill-rule="evenodd" opacity=".9"/>
            <path id="path4830" transform="translate(-58,904.36218)" d="m65 0v9h6c0-2 1-3 3-3v-6z" fill="url(#radialGradient4924)" fill-rule="evenodd" opacity=".9"/>
            <path id="path4832" transform="translate(-58,904.36218)" d="m74 0v6h-1 4v-6h-4z" fill="url(#linearGradient4926)" fill-rule="evenodd" opacity=".9"/>
            <rect id="rect4834" transform="scale(-1,1)" x="-19.000004" y="910.36218" width="5.9999919" height="6.0000224" ry=".9999752" fill="none"/>
            <rect id="rect4836" transform="scale(-1,1)" x="-19.000004" y="910.36218" width="2.0000038" height="5.9999752" ry="0" fill="none"/>
            <rect id="rect4838" transform="scale(-1,1)" x="-18" y="914.36218" width="4.9999924" height="2.0000248" fill="none"/>
        </g>
        <g id="shadow-topright" transform="translate(56.99998,1.7432666e-5)">
            <path id="path4842" transform="translate(0,904.36218)" d="m57 9v-1 4h6v-4 1z" fill="url(#linearGradient4928)" fill-rule="evenodd" opacity=".9"/>
            <path id="path4844" transform="translate(-58,904.36218)" d="m112 0v6c2 0 3 1 3 3h6v-9z" fill="url(#radialGradient4930)" fill-rule="evenodd" opacity=".9"/>
            <path id="path4846" transform="translate(-58,904.36218)" d="m109 0v6h4-1v-6h1z" fill="url(#linearGradient3056)" fill-rule="evenodd" opacity=".9"/>
            <rect id="rect4848" x="50.999985" y="910.36218" width="5.9999957" height="6.0000224" ry=".9999752" fill="none"/>
            <rect id="rect4850" x="50.999985" y="910.36218" width="2.0000153" height="5.9999752" ry="0" fill="none"/>
            <rect id="rect4852" x="52" y="914.36218" width="4.9999809" height="2.0000248" fill="none"/>
        </g>
        <g id="shadow-bottom" transform="translate(56.99998,1.7432666e-5)">
            <rect id="rect4856" transform="rotate(90)" x="948.36218" y="-50.999985" width="6" height="32" fill="none"/>
            <rect id="rect4858" transform="rotate(90)" x="954.36218" y="-50.999985" width="6" height="32" fill="url(#linearGradient4934)" opacity=".9"/>
            <rect id="rect4860" transform="rotate(90)" x="953.36218" y="-50.999985" width="1.0000226" height="31.999971" fill="none"/>
        </g>
        <g id="shadow-bottomleft" transform="translate(56.99998,1.7432666e-5)">
            <path id="path4864" transform="translate(-58,904.36218)" d="m74 50v6h-1 4v-6h-4z" fill="url(#linearGradient4936)" fill-rule="evenodd" opacity=".9"/>
            <path id="path4866" transform="translate(-58,904.36218)" d="m65 47v9h9v-6c-2 0-3-1-3-3z" fill="url(#radialGradient4938)" fill-rule="evenodd" opacity=".9"/>
            <path id="path4868" transform="translate(0,904.36218)" d="m7 44v4-1h6v1-4z" fill="url(#linearGradient4940)" fill-rule="evenodd" opacity=".9"/>
            <rect id="rect4870" transform="scale(-1)" x="-19.000004" y="-954.36188" width="5.9999957" height="5.999999" ry=".99971962" fill="none"/>
            <rect id="rect4872" transform="scale(-1)" x="-19.000004" y="-954.36218" width="2.0000038" height="6.0000248" ry="0" fill="none"/>
            <rect id="rect4874" transform="scale(-1)" x="-18" y="-950.36218" width="4.9999714" height="2.0000362" fill="none"/>
        </g>
        <g id="shadow-bottomright" transform="translate(56.99998,1.7432666e-5)">
            <path id="path4878" transform="translate(-58,904.36218)" d="m109 50v6h4-1v-6h1z" fill="url(#linearGradient4942)" fill-rule="evenodd" opacity=".9"/>
            <path id="path4880" transform="translate(-58,904.36218)" d="m115 47c0 2-1 3-3 3v6h9v-9z" fill="url(#radialGradient4944)" fill-rule="evenodd" opacity=".9"/>
            <path id="path4882" transform="translate(0,904.36218)" d="m57 44v4-1h6v1-4z" fill="url(#linearGradient4946)" fill-rule="evenodd" opacity=".9"/>
            <rect id="rect4884" transform="scale(1,-1)" x="50.999985" y="-954.36188" width="5.9999957" height="5.999999" ry=".99971962" fill="none"/>
            <rect id="rect4886" transform="scale(1,-1)" x="50.999985" y="-954.36218" width="2.0000153" height="6.0000248" ry="0" fill="none"/>
            <rect id="rect4888" transform="scale(1,-1)" x="52" y="-950.36218" width="4.9999847" height="2.0000362" fill="none"/>
        </g>
        <g id="shadow-left" transform="translate(56.99998,1.7432666e-5)">
            <rect id="rect4892" transform="scale(-1,1)" x="-19.000004" y="916.36218" width="5.9999995" height="32" fill="none"/>
            <rect id="rect4894" transform="scale(-1,1)" x="-13.000002" y="916.36218" width="5.9999995" height="32" fill="url(#linearGradient4948)" opacity=".9"/>
            <rect id="rect4896" transform="scale(-1,1)" x="-14.000002" y="916.36218" width="1.0000019" height="32.000023" fill="none"/>
        </g>
        <g id="shadow-right" transform="translate(56.99998,1.7432666e-5)">
            <rect id="rect4900" x="50.999985" y="916.36218" width="5.9999995" height="32" fill="none"/>
            <rect id="rect4902" x="56.999985" y="916.36218" width="5.9999995" height="32" fill="url(#linearGradient4950)" opacity=".9"/>
            <rect id="rect4904" x="55.999985" y="916.36218" width="1" height="32.000023" fill="none"/>
        </g>
        <g id="shadow-center" transform="translate(56.99998,1.7432666e-5)" fill="none">
            <rect id="rect4908" x="19.000004" y="916.36218" width="32" height="32"/>
            <rect id="rect4910" x="19.000004" y="916.36218" width="32" height="32"/>
        </g>
        <rect id="shadow-hint-top-margin" x="90" y="904.36218" width="3.9999998" height="5.9999771" fill="#f0f"/>
        <rect id="shadow-hint-bottom-margin" x="90" y="954.36224" width="3.9999998" height="6.0000229" fill="#f0f"/>
        <rect id="shadow-hint-right-margin" transform="rotate(90)" x="930.36224" y="-120.00001" width="3.9999769" height="5.9999771" fill="#f0f"/>
        <rect id="shadow-hint-left-margin" transform="rotate(90)" x="930.36224" y="-69.999985" width="4.0000229" height="6" fill="#f0f"/>
        <rect y="904.36218" x="97" height="5.9999771" width="4" id="shadow-hint-top-inset" style="fill:#00ff00;fill-opacity:1;stroke:none"/>
        <rect style="fill:#00ff00;fill-opacity:1;stroke:none" id="shadow-hint-bottom-inset" width="4" height="6.0000229" x="97" y="954.36218"/>
        <rect transform="matrix(0,1,-1,0,0,0)" style="fill:#00ff00;fill-opacity:1;stroke:none" id="shadow-hint-right-inset" width="3.9999769" height="5.9999771" x="936.36218" y="-119.99998"/>
        <rect transform="matrix(0,1,-1,0,0,0)" y="-70" x="936.36218" height="6" width="4.0000229" id="shadow-hint-left-inset" style="fill:#00ff00;fill-opacity:1;stroke:none"/>
        <rect id="mask-top" x="132" y="910.61218" width="27.499992" height="8.2499981" style="paint-order:normal"/>
        <rect id="mask-center" x="132" y="918.86218" width="27.499992" height="27.499992" style="paint-order:normal"/>
        <rect id="mask-bottom" transform="scale(1,-1)" x="132" y="-954.6123" width="27.499992" height="8.2499981" style="paint-order:normal"/>
        <rect id="mask-left" transform="rotate(90)" x="918.86218" y="-132" width="27.499992" height="8.2499981" style="paint-order:normal"/>
        <rect id="mask-right" transform="rotate(90)" x="918.86218" y="-167.74998" width="27.499992" height="8.2499981" style="paint-order:normal"/>
        <path id="mask-bottomright" class="ColorScheme-Background" d="m159.49999 954.61234v-8.25016h8.25016v4.12508c0 2.75005-1.37503 4.12508-4.12508 4.12508h-2.75005z"/>
        <path id="mask-bottomleft" class="ColorScheme-Background" d="m132 954.61232v-8.25016h-8.25016v4.12508c0 2.75005 1.37503 4.12508 4.12508 4.12508h2.75005z"/>
        <path id="mask-topleft" class="ColorScheme-Background" d="m132.00016 910.61204v8.25016h-8.25016v-4.12508c0-2.75005 1.37503-4.12508 4.12508-4.12508h2.75005z"/>
        <path id="mask-topright" class="ColorScheme-Background" d="m159.49998 910.61204v8.25016h8.25016v-4.12508c0-2.75005-1.37503-4.12508-4.12508-4.12508h-2.75005z"/>
        <g id="topleft" transform="translate(0,-2.0185303e-5)">
            <path id="rect4159" class="ColorScheme-Background" transform="translate(0,904.36218)" d="m16 6c-2 0-3 1-3 3v3h6v-6h-1 1z" fill="currentColor" opacity=".9"/>
        </g>
        <g id="topright" transform="translate(0,-2.0185303e-5)">
            <path id="rect4177" class="ColorScheme-Background" transform="translate(0,904.36218)" d="m51 6v6h6v-3c0-2-1-3-3-3h-2z" fill="currentColor" opacity=".9"/>
        </g>
        <g id="bottomleft" transform="translate(0,-2.0185303e-5)">
            <path id="path5048" class="ColorScheme-Background" d="m19 954.36218v-6h-6v3c0 2 1 3 3 3h2z" fill="currentColor" opacity=".9"/>
        </g>
        <g id="bottomright" transform="translate(0,-2.0185303e-5)">
            <path id="rect4177-6" class="ColorScheme-Background" d="m51 954.36218v-6h6v3c0 2-1 3-3 3h-2z" fill="currentColor" opacity=".9"/>
        </g>
        <rect style="fill:#00ff00;fill-opacity:1;stroke:none" id="hint-top-inset" width="4" height="0.000001" x="33" y="904.36218"/>
        <rect y="954.36218" x="33" height="0.000001" width="4" id="hint-bottom-inset" style="fill:#00ff00;fill-opacity:1;stroke:none"/>
        <rect y="-63" x="930.36218" height="0.000001" width="4" id="hint-right-inset" style="fill:#00ff00;fill-opacity:1;stroke:none" transform="matrix(0,1,-1,0,0,0)"/>
        <rect style="fill:#00ff00;fill-opacity:1;stroke:none" id="hint-left-inset" width="4" height="0.000001" x="930.36218" y="-13.000004" transform="matrix(0,1,-1,0,0,0)"/>
        <rect id="thick-hint-top-margin" x="34" y="910.36218" width="4.0000019" height="8.0000048" fill="#f0f"/>
        <rect id="thick-hint-bottom-margin" x="30" y="946.36218" width="4" height="8.0001907" fill="#f0f"/>
        <rect id="thick-hint-right-margin" transform="rotate(90)" x="932.36218" y="-56.999985" width="3.9999771" height="7.9999847" fill="#f0f"/>
        <rect id="thick-hint-left-margin" transform="rotate(90)" x="928.36218" y="-21" width="4.0000229" height="8.0000076" fill="#f0f"/>
        <rect id="hint-bottom-margin" x="34" y="950.36218" width="4" height="4.0002136" fill="#800080"/>
        <rect id="hint-right-margin" transform="rotate(90)" x="928.36218" y="-56.999985" width="3.9999771" height="3.9999847" fill="#800080"/>
        <rect id="hint-left-margin" transform="rotate(90)" x="932.36218" y="-17" width="4.0000229" height="4.0000076" fill="#800080"/>
        <rect id="hint-top-margin" x="30" y="910.36218" width="4.0000019" height="3.9999795" fill="#800080"/>
        <rect id="thick-center" y="960.36218" width="2" height="2"/>
    </g>
</svg>
