<?xml version="1.0" encoding="UTF-8" standalone="no"?>
<svg
   xmlns:dc="http://purl.org/dc/elements/1.1/"
   xmlns:cc="http://creativecommons.org/ns#"
   xmlns:rdf="http://www.w3.org/1999/02/22-rdf-syntax-ns#"
   xmlns:svg="http://www.w3.org/2000/svg"
   xmlns="http://www.w3.org/2000/svg"
   xmlns:sodipodi="http://sodipodi.sourceforge.net/DTD/sodipodi-0.dtd"
   xmlns:inkscape="http://www.inkscape.org/namespaces/inkscape"
   id="svg2"
   viewBox="0 0 173 56.000004"
   version="1.1"
   sodipodi:docname="plasmoidheading.svg"
   inkscape:version="0.92.5 (2060ec1f9f, 2020-04-08)">
  <metadata
     id="metadata43">
    <rdf:RDF>
      <cc:Work
         rdf:about="">
        <dc:format>image/svg+xml</dc:format>
        <dc:type
           rdf:resource="http://purl.org/dc/dcmitype/StillImage" />
      </cc:Work>
    </rdf:RDF>
  </metadata>
  <defs
     id="defs41">
    <linearGradient
       id="linearGradient3828-0">
      <stop
         id="stop3830-7"
         offset="0"
         style="stop-color:#232629;stop-opacity:0.239" />
      <stop
         style="stop-color:#1a1c1e;stop-opacity:0.239"
         offset="0.33000001"
         id="stop3836-9" />
      <stop
         style="stop-color:#111314;stop-opacity:0.098"
         offset="0.66000003"
         id="stop3832-0" />
      <stop
         id="stop3834-0"
         offset="1"
         style="stop-color:#000000;stop-opacity:0;" />
    </linearGradient>
  </defs>
  <sodipodi:namedview
     pagecolor="#ffffff"
     bordercolor="#666666"
     borderopacity="1"
     objecttolerance="10"
     gridtolerance="10"
     guidetolerance="10"
     inkscape:pageopacity="0"
     inkscape:pageshadow="2"
     inkscape:window-width="1920"
     inkscape:window-height="997"
     id="namedview39"
     showgrid="true"
     inkscape:zoom="9.3179191"
     inkscape:cx="40.636823"
     inkscape:cy="41.47156"
     inkscape:window-x="0"
     inkscape:window-y="0"
     inkscape:window-maximized="1"
     inkscape:current-layer="svg2">
    <inkscape:grid
       type="xygrid"
       id="grid4580" />
  </sodipodi:namedview>
  <style
     id="current-color-scheme"
     type="text/css">.ColorScheme-Text {
            color:#232629;
        }
        .ColorScheme-Background {
            color:#eff0f1;
        }</style>
  <path
     id="hint-stretch-borders"
     d="m-7-7h5v5h-5z"
     opacity=".6" />
  <path
     id="header-center"
     class="ColorScheme-Background"
     d="m19 12h32v32h-32z"
     fill="currentColor"
     opacity=".75" />
  <path
     id="header-right"
     class="ColorScheme-Background"
     d="m51 12h6v32h-6z"
     fill="currentColor"
     opacity=".75" />
  <path
     id="header-top"
     class="ColorScheme-Background"
     transform="rotate(-90)"
     d="m-12 19h6v32h-6z"
     fill="currentColor"
     opacity=".75" />
  <g
     id="header-bottom">
    <path
       id="rect3152"
       class="ColorScheme-Background"
       fill="currentColor"
       opacity=".75"
       transform="rotate(90)"
       d="m44-51h6v32h-6z" />
    <path
       id="rect3154"
       class="ColorScheme-Text"
       fill="currentColor"
       transform="rotate(90)"
       d="m49-51h1v32h-1z"
       opacity=".15" />
  </g>
  <path
     id="header-left"
     class="ColorScheme-Background"
     transform="scale(-1)"
     d="m-19-44h6v32h-6z"
     fill="currentColor"
     opacity=".75" />
  <g
     id="header-bottomright">
    <path
       id="path3176"
       class="ColorScheme-Background"
       fill="currentColor"
       opacity=".75"
       d="m57 44h-6v6h6v-5z" />
    <path
       id="path3178"
       class="ColorScheme-Text"
       fill="currentColor"
       d="m57 49h-6v1h6c0-1-2e-5 0 0-1z"
       fill-rule="evenodd"
       opacity=".15" />
  </g>
  <g
     id="header-bottomleft">
    <path
       id="path3182"
       class="ColorScheme-Background"
       fill="currentColor"
       opacity=".75"
       d="m19 50v-6h-6v6c6 4e-5 0 0 4 0h1z" />
    <path
       id="path3184"
       class="ColorScheme-Text"
       fill="currentColor"
       d="m19 50v-1h-4l-2-2e-5v1l2 2e-5h1z"
       fill-rule="evenodd"
       opacity=".15" />
  </g>
  <path
     id="footer-center"
     class="ColorScheme-Background"
     transform="scale(1 -1)"
     d="m67-44h32v32h-32z"
     fill="currentColor"
     opacity=".75" />
  <path
     id="footer-right"
     class="ColorScheme-Background"
     transform="scale(1 -1)"
     d="m99-44h6v32h-6z"
     fill="currentColor"
     opacity=".75" />
  <path
     id="footer-bottom"
     class="ColorScheme-Background"
     transform="matrix(0 1 1 0 0 0)"
     d="m44 67h6v32h-6z"
     fill="currentColor"
     opacity=".75" />
  <g
     id="footer-top">
    <path
       id="rect3152-0"
       class="ColorScheme-Background"
       fill="currentColor"
       opacity=".75"
       transform="matrix(0 -1 -1 0 0 0)"
       d="m-12-99h6v32h-6z" />
    <path
       id="rect3154-9"
       class="ColorScheme-Text"
       fill="currentColor"
       transform="matrix(0 -1 -1 0 0 0)"
       d="m-7-99h1v32h-1z"
       opacity=".15" />
  </g>
  <path
     id="footer-left"
     class="ColorScheme-Background"
     transform="scale(-1 1)"
     d="m-67 12h6v32h-6z"
     fill="currentColor"
     opacity=".75" />
  <g
     id="footer-topright">
    <path
       id="path3176-6"
       class="ColorScheme-Background"
       fill="currentColor"
       opacity=".75"
       d="m105 12h-6v-6h6v5z" />
    <path
       id="path3178-2"
       class="ColorScheme-Text"
       fill="currentColor"
       d="m105 7h-6v-1h6c0 1-2e-5 0 0 1z"
       fill-rule="evenodd"
       opacity=".15" />
  </g>
  <g
     id="footer-topleft">
    <path
       id="path3182-1"
       class="ColorScheme-Background"
       fill="currentColor"
       opacity=".75"
       d="m67 6v6h-6v-6c6-4e-5 0 0 4 0h1z" />
    <path
       id="path3184-8"
       class="ColorScheme-Text"
       fill="currentColor"
       d="m67 6v1h-4l-2 2e-5v-1l2-2e-5h1z"
       fill-rule="evenodd"
       opacity=".15" />
  </g>
  <path
     id="footer-bottomleft"
     class="ColorScheme-Background"
     d="m64 50c-2 0-3-1-3-3v-3h6v6h-1 1z"
     fill="currentColor"
     opacity=".75" />
  <path
     id="footer-bottomright"
     class="ColorScheme-Background"
     d="m99 50v-6h6v3c0 2-1 3-3 3h-2z"
     fill="currentColor"
     opacity=".75" />
  <path
     id="hint-top-margin"
     d="m33 12h4v6h-4z"
     fill="#f0f" />
  <path
     id="hint-bottom-margin"
     d="m33 38h4v6h-4z"
     fill="#f0f" />
  <path
     id="hint-right-margin"
     transform="rotate(90)"
     d="m26-51h4v6h-4z"
     fill="#f0f" />
  <path
     id="hint-left-margin"
     transform="rotate(90)"
     d="m26-25h4v6h-4z"
     fill="#f0f" />
  <path
     class="ColorScheme-Background"
     style="fill:currentColor;stroke-width:2"
     d="m 17,6.0000038 c -2.182709,0.0672 -3.932783,1.8173 -4,4.0000002 v 2 h 6 V 6.0000038 Z"
     id="header-topleft"
     inkscape:connector-curvature="0"
     sodipodi:nodetypes="cccccc"
     opacity=".75" />
  <path
     sodipodi:nodetypes="cccccc"
     inkscape:connector-curvature="0"
     id="header-topright"
     d="m 53,6.0000039 c 2.182709,0.0672 3.932783,1.8172999 4,4.0000001 v 2 H 51 V 6.0000039 Z"
     style="opacity:0.75;fill:currentColor;stroke-width:2"
     class="ColorScheme-Background" />
</svg>
