<svg id="svg2" viewBox="0 0 173 56.000004" xmlns="http://www.w3.org/2000/svg">
    <style id="current-color-scheme" type="text/css">.ColorScheme-Text {
            color:#232629;
        }
        .ColorScheme-Background {
            color:#eff0f1;
        }</style>
    <path id="hint-stretch-borders" d="m-7-7h5v5h-5z" opacity=".6"/>
    <path id="header-center" class="ColorScheme-Background" d="m19 12h32v32h-32z" fill="currentColor" opacity=".75"/>
    <path id="header-right" class="ColorScheme-Background" d="m51 12h6v32h-6z" fill="currentColor" opacity=".75"/>
    <path id="header-top" class="ColorScheme-Background" d="m19 6h32v6h-32z" fill="currentColor" opacity=".75"/>
    <g id="header-bottom">
        <path id="rect3152" class="ColorScheme-Background" fill="currentColor" transform="rotate(90)" d="m44-51h6v32h-6z" opacity=".75"/>
        <path id="rect3154" class="ColorScheme-Text" fill="currentColor" transform="rotate(90)" d="m49-51h1v32h-1z" opacity=".15"/>
    </g>
    <path id="header-left" class="ColorScheme-Background" transform="scale(-1)" d="m-19-44h6v32h-6z" fill="currentColor" opacity=".75"/>
    <g id="header-bottomright">
        <path id="path3176" class="ColorScheme-Background"  fill="currentColor" d="m57 44h-6v6h6v-5z" opacity=".75"/>
        <path id="path3178" class="ColorScheme-Text" fill="currentColor" d="m57 49h-6v1h6c0-1-2e-5 0 0-1z" fill-rule="evenodd" opacity=".15"/>
    </g>
    <g id="header-bottomleft">
        <path id="path3182" class="ColorScheme-Background" fill="currentColor" d="m19 50v-6h-6v6c6 4e-5 0 0 4 0h1z" opacity=".75"/>
        <path id="path3184" class="ColorScheme-Text" fill="currentColor" d="m19 50v-1h-4l-2-2e-5v1l2 2e-5h1z" fill-rule="evenodd" opacity=".15"/>
    </g>
    <path id="header-topleft" class="ColorScheme-Background" d="m13 6h6v6h-6z" fill="currentColor" opacity=".75"/>
    <path id="header-topright" class="ColorScheme-Background" d="m51 6h6v6h-6z" fill="currentColor" opacity=".75"/>
    <path id="footer-center" class="ColorScheme-Background" transform="scale(1 -1)" d="m67-44h32v32h-32z" fill="currentColor" opacity=".75"/>
    <path id="footer-right" class="ColorScheme-Background" transform="scale(1 -1)" d="m99-44h6v32h-6z" fill="currentColor" opacity=".75"/>
    <path id="footer-bottom" class="ColorScheme-Background" transform="matrix(0 1 1 0 0 0)" d="m44 67h6v32h-6z" fill="currentColor" opacity=".75"/>
    <g id="footer-top">
        <path id="rect3152-0" class="ColorScheme-Background" fill="currentColor" transform="matrix(0 -1 -1 0 0 0)" d="m-12-99h6v32h-6z" opacity=".75"/>
        <path id="rect3154-9" class="ColorScheme-Text" fill="currentColor" transform="matrix(0 -1 -1 0 0 0)" d="m-7-99h1v32h-1z" opacity=".15"/>
    </g>
    <path id="footer-left" class="ColorScheme-Background" transform="scale(-1 1)" d="m-67 12h6v32h-6z" fill="currentColor" opacity=".75"/>
    <g id="footer-topright">
        <path id="path3176-6" class="ColorScheme-Background" fill="currentColor" d="m105 12h-6v-6h6v5z" opacity=".75"/>
        <path id="path3178-2" class="ColorScheme-Text" fill="currentColor" d="m105 7h-6v-1h6c0 1-2e-5 0 0 1z" fill-rule="evenodd" opacity=".15"/>
    </g>
    <g id="footer-topleft">
        <path id="path3182-1" class="ColorScheme-Background" fill="currentColor" d="m67 6v6h-6v-6c6-4e-5 0 0 4 0h1z" opacity=".75"/>
        <path id="path3184-8" class="ColorScheme-Text" fill="currentColor" d="m67 6v1h-4l-2 2e-5v-1l2-2e-5h1z" fill-rule="evenodd" opacity=".15"/>
    </g>
    <path id="footer-bottomleft" class="ColorScheme-Background" d="m61 44h6v6h-6z" fill="currentColor" opacity=".75"/>
    <path id="footer-bottomright" class="ColorScheme-Background" d="m99 44h6v6h-6z" fill="currentColor" opacity=".75"/>
    <path id="hint-top-margin" d="m33 12h4v6h-4z" fill="#f0f"/>
    <path id="hint-bottom-margin" d="m33 38h4v6h-4z" fill="#f0f"/>
    <path id="hint-right-margin" transform="rotate(90)" d="m26-51h4v6h-4z" fill="#f0f"/>
    <path id="hint-left-margin" transform="rotate(90)" d="m26-25h4v6h-4z" fill="#f0f"/>
</svg>
