<?xml version="1.0" encoding="UTF-8" standalone="no"?>
<svg
   id="svg2"
   version="1.1"
   viewBox="0 0 173 56.000004"
   sodipodi:docname="plasmoidheading.svg"
   inkscape:version="1.2.1 (9c6d41e410, 2022-07-14)"
   xmlns:inkscape="http://www.inkscape.org/namespaces/inkscape"
   xmlns:sodipodi="http://sodipodi.sourceforge.net/DTD/sodipodi-0.dtd"
   xmlns="http://www.w3.org/2000/svg"
   xmlns:svg="http://www.w3.org/2000/svg">
  <defs
     id="defs50" />
  <sodipodi:namedview
     id="namedview48"
     pagecolor="#ffffff"
     bordercolor="#666666"
     borderopacity="1.0"
     inkscape:pageshadow="2"
     inkscape:pageopacity="0.0"
     inkscape:pagecheckerboard="0"
     showgrid="true"
     inkscape:zoom="82.421139"
     inkscape:cx="106.73839"
     inkscape:cy="47.34829"
     inkscape:window-width="1920"
     inkscape:window-height="1127"
     inkscape:window-x="0"
     inkscape:window-y="0"
     inkscape:window-maximized="1"
     inkscape:current-layer="svg2"
     inkscape:blackoutopacity="0.0"
     inkscape:showpageshadow="2"
     inkscape:deskcolor="#d1d1d1">
    <inkscape:grid
       type="xygrid"
       id="grid4266" />
  </sodipodi:namedview>
  <style
     id="current-color-scheme"
     type="text/css">
        .ColorScheme-Text {
            color:#232629;
        }
        .ColorScheme-Background {
            color:#eff0f1;
        }
        .ColorScheme-ViewBackground {
            color:#ffffff;
        }
    </style>
  <path
     id="hint-stretch-borders"
     d="m-7-7h5v5h-5z"
     opacity=".6" />
  <g
     id="header-topleft">
    <path
       id="path1780"
       class="ColorScheme-Background"
       fill="currentColor"
       d="m 13,12 h 6 V 6 c -4,0 -6,2 -6,6 z"
       opacity="0.75"
       sodipodi:nodetypes="cccc" />
  </g>
  <g
     id="header-top">
    <path
       id="path1066"
       class="ColorScheme-Background"
       transform="rotate(-90)"
       d="m-12 19h6v32h-6z"
       fill="currentColor"
       opacity=".75" />
  </g>
  <g
     id="header-topright">
    <path
       id="path1785"
       class="ColorScheme-Background"
       fill="currentColor"
       d="m 51,6 v 6 h 6 C 57,8 55,6 51,6 Z"
       opacity="0.75"
       sodipodi:nodetypes="cccc" />
  </g>
  <path
     id="header-left"
     class="ColorScheme-Background"
     transform="scale(-1)"
     d="m-19-44h6v32h-6z"
     fill="currentColor"
     opacity=".75" />
  <path
     id="header-center"
     class="ColorScheme-Background"
     d="m19 12h32v32h-32z"
     fill="currentColor"
     opacity=".75" />
  <path
     id="header-right"
     class="ColorScheme-Background"
     d="m51 12h6v32h-6z"
     fill="currentColor"
     opacity=".75" />
  <g
     id="header-bottomleft"
     fill="currentColor">
    <path
       id="path3182"
       class="ColorScheme-Background"
       d="m 19,50 v -6 h -6 v 6 z"
       opacity="0.75"
       fill="currentColor"
       sodipodi:nodetypes="ccccc" />
    <path
       id="path3184"
       class="ColorScheme-Text"
       d="m19 50v-1h-4l-2-2e-5v1l2 2e-5h1z"
       fill-rule="evenodd"
       opacity=".15"
       fill="currentColor" />
  </g>
  <g
     id="header-bottom"
     fill="currentColor">
    <path
       id="rect3152"
       class="ColorScheme-Background"
       transform="rotate(90)"
       d="m44-51h6v32h-6z"
       opacity=".75"
       fill="currentColor" />
    <path
       id="rect3154"
       class="ColorScheme-Text"
       transform="rotate(90)"
       d="m49-51h1v32h-1z"
       opacity=".15"
       fill="currentColor" />
  </g>
  <g
     id="header-bottomright"
     fill="currentColor">
    <path
       id="path3176"
       class="ColorScheme-Background"
       d="m 57,44 h -6 v 6 h 6 z"
       opacity="0.75"
       fill="currentColor"
       sodipodi:nodetypes="ccccc" />
    <path
       id="path3178"
       class="ColorScheme-Text"
       d="m57 49h-6v1h6c0-1-2e-5 0 0-1z"
       fill-rule="evenodd"
       opacity=".15"
       fill="currentColor" />
  </g>
  <g
     id="footer-topleft"
     fill="currentColor">
    <path
       id="path3182-1"
       class="ColorScheme-Background"
       d="m 67,6 v 6 H 61 V 6 Z"
       opacity="0.75"
       fill="currentColor"
       sodipodi:nodetypes="ccccc" />
    <path
       id="path3184-8"
       class="ColorScheme-Text"
       d="m67 6v1h-4l-2 2e-5v-1l2-2e-5h1z"
       fill-rule="evenodd"
       opacity=".15"
       fill="currentColor" />
  </g>
  <g
     id="footer-top"
     fill="currentColor">
    <path
       id="rect3152-0"
       class="ColorScheme-Background"
       transform="matrix(0 -1 -1 0 0 0)"
       d="m-12-99h6v32h-6z"
       opacity=".75"
       fill="currentColor" />
    <path
       id="rect3154-9"
       class="ColorScheme-Text"
       transform="matrix(0 -1 -1 0 0 0)"
       d="m-7-99h1v32h-1z"
       opacity=".15"
       fill="currentColor" />
  </g>
  <g
     id="footer-topright"
     fill="currentColor">
    <path
       id="path3176-6"
       class="ColorScheme-Background"
       d="M 105,12 H 99 V 6 h 6 z"
       opacity="0.75"
       fill="currentColor"
       sodipodi:nodetypes="ccccc" />
    <path
       id="path3178-2"
       class="ColorScheme-Text"
       d="m105 7h-6v-1h6c0 1-2e-5 0 0 1z"
       fill-rule="evenodd"
       opacity=".15"
       fill="currentColor" />
  </g>
  <path
     id="footer-left"
     class="ColorScheme-Background"
     transform="scale(-1 1)"
     d="m-67 12h6v32h-6z"
     fill="currentColor"
     opacity=".75" />
  <path
     id="footer-center"
     class="ColorScheme-Background"
     transform="scale(1 -1)"
     d="m67-44h32v32h-32z"
     fill="currentColor"
     opacity=".75" />
  <path
     id="footer-right"
     class="ColorScheme-Background"
     transform="scale(1 -1)"
     d="m99-44h6v32h-6z"
     fill="currentColor"
     opacity=".75" />
  <path
     id="footer-bottomleft"
     opacity="0.75"
     class="ColorScheme-Background"
     fill="currentColor"
     d="m 61,44 c 0,4 2,6 6,6 v -6 z"
     sodipodi:nodetypes="cccc" />
  <path
     id="footer-bottom"
     class="ColorScheme-Background"
     transform="matrix(0 1 1 0 0 0)"
     d="m44 67h6v32h-6z"
     fill="currentColor"
     opacity=".75" />
  <path
     id="footer-bottomright"
     class="ColorScheme-Background"
     fill="currentColor"
     d="m 99,44 v 6 c 4,0 6,-2 6,-6 z"
     opacity="0.75"
     sodipodi:nodetypes="cccc" />
  <path
     id="hint-top-margin"
     d="m33 12h4v6h-4z"
     fill="#f0f" />
  <path
     id="hint-bottom-margin"
     d="m33 38h4v6h-4z"
     fill="#f0f" />
  <path
     id="hint-right-margin"
     transform="rotate(90)"
     d="m26-51h4v6h-4z"
     fill="#f0f" />
  <path
     id="hint-left-margin"
     transform="rotate(90)"
     d="m26-25h4v6h-4z"
     fill="#f0f" />
</svg>
