<?xml version="1.0" encoding="UTF-8" standalone="no"?>
<svg id="svg2" version="1.1" viewBox="0 0 173 56.000004" sodipodi:docname="plasmoidheading.svg" inkscape:version="1.2-dev (3978b257e3, 2021-12-14, custom)" xmlns:inkscape="http://www.inkscape.org/namespaces/inkscape" xmlns:sodipodi="http://sodipodi.sourceforge.net/DTD/sodipodi-0.dtd" xmlns="http://www.w3.org/2000/svg" xmlns:svg="http://www.w3.org/2000/svg">
    <defs id="defs50" />
    <sodipodi:namedview id="namedview48" pagecolor="#ffffff" bordercolor="#666666" borderopacity="1.0" inkscape:pageshadow="2" inkscape:pageopacity="0.0" inkscape:pagecheckerboard="0" showgrid="true" inkscape:zoom="7.5562581" inkscape:cx="71.265432" inkscape:cy="14.292789" inkscape:window-width="1920" inkscape:window-height="1007" inkscape:window-x="0" inkscape:window-y="0" inkscape:window-maximized="1" inkscape:current-layer="svg2" inkscape:blackoutopacity="0.0">
        <inkscape:grid type="xygrid" id="grid4266" />
    </sodipodi:namedview>
    <style id="current-color-scheme" type="text/css">
        .ColorScheme-Text {
            color:#232629;
        }
        .ColorScheme-Background {
            color:#eff0f1;
        }
        .ColorScheme-ViewBackground {
            color:#ffffff;
        }
    </style>
    <path id="hint-stretch-borders" d="m-7-7h5v5h-5z" opacity=".6" />
    <g id="header-topleft">
        <path id="path1780" class="ColorScheme-Background" fill="currentColor" d="M 16 6 C 14.338 6 13 7.338 13 9 L 13 12 L 19 12 L 19 6 L 16 6 z " opacity=".75" />
        <path id="rect20523-3" class="ColorScheme-ViewBackground" style="fill:currentColor;fill-rule:evenodd;fill-opacity:.5" d="M 16 6 C 14.3774542034 6 13.0653658941 7.27584226003 13.00390625 8.8828125 C 13.0641327208 7.82972546125 13.9313095588 7 15 7 L 19 7 L 19 6 L 16 6 z " />
        <path id="rect20523-3" style="fill:#fff;fill-rule:evenodd;fill-opacity:.15" d="M 16 6 C 14.3774542034 6 13.0653658941 7.27584226003 13.00390625 8.8828125 C 13.0641327208 7.82972546125 13.9313095588 7 15 7 L 19 7 L 19 6 L 16 6 z " />
    </g>
    <g id="header-top">
        <path id="path1066" class="ColorScheme-Background" transform="rotate(-90)" d="m-12 19h6v32h-6z" fill="currentColor" opacity=".75" />
        <rect id="rect934" x="19" y="6" width="32" height="1" ry="0" class="ColorScheme-ViewBackground" style="fill:currentColor;fill-rule:evenodd;fill-opacity:.5" />
        <rect id="rect934" x="19" y="6" width="32" height="1" ry="0" style="fill:#fff;fill-rule:evenodd;fill-opacity:.15" />
    </g>
    <g id="header-topright">
        <path id="path1785" class="ColorScheme-Background" fill="currentColor" d="M 51 6 L 51 12 L 57 12 L 57 9 C 57 7.338 55.662 6 54 6 L 51 6 z " opacity=".75" />
        <path id="rect20523-3-7" class="ColorScheme-ViewBackground" style="fill:currentColor;fill-rule:evenodd;fill-opacity:.5" d="m 54,6 c 1.6225457966,0 2.9346341059,1.27584226003 2.99609375,2.8828125 C 56.9358672792,7.82972546125 56.0686904412,7 55,7 H 51 V 6 Z" />
        <path id="rect20523-3-7" style="fill:#fff;fill-opacity:.15;fill-rule:evenodd" d="m 54,6 c 1.6225457966,0 2.9346341059,1.27584226003 2.99609375,2.8828125 C 56.9358672792,7.82972546125 56.0686904412,7 55,7 H 51 V 6 Z" />
    </g>
    <path id="header-left" class="ColorScheme-Background" transform="scale(-1)" d="m-19-44h6v32h-6z" fill="currentColor" opacity=".75" />
    <path id="header-center" class="ColorScheme-Background" d="m19 12h32v32h-32z" fill="currentColor" opacity=".75" />
    <path id="header-right" class="ColorScheme-Background" d="m51 12h6v32h-6z" fill="currentColor" opacity=".75" />
    <g id="header-bottomleft" fill="currentColor">
        <path id="path3182" class="ColorScheme-Background" d="m 19,50 v -6 h -6 v 6 z" opacity="0.75" fill="currentColor" sodipodi:nodetypes="ccccc" />
        <path id="path3184" class="ColorScheme-Text" d="m19 50v-1h-4l-2-2e-5v1l2 2e-5h1z" fill-rule="evenodd" opacity=".15" fill="currentColor" />
    </g>
    <g id="header-bottom" fill="currentColor">
        <path id="rect3152" class="ColorScheme-Background" transform="rotate(90)" d="m44-51h6v32h-6z" opacity=".75" fill="currentColor" />
        <path id="rect3154" class="ColorScheme-Text" transform="rotate(90)" d="m49-51h1v32h-1z" opacity=".15" fill="currentColor" />
    </g>
    <g id="header-bottomright" fill="currentColor">
        <path id="path3176" class="ColorScheme-Background" d="m 57,44 h -6 v 6 h 6 z" opacity="0.75" fill="currentColor" sodipodi:nodetypes="ccccc" />
        <path id="path3178" class="ColorScheme-Text" d="m57 49h-6v1h6c0-1-2e-5 0 0-1z" fill-rule="evenodd" opacity=".15" fill="currentColor" />
    </g>
    <g id="footer-topleft" fill="currentColor">
        <path id="path3182-1" class="ColorScheme-Background" d="m 67,6 v 6 H 61 V 6 Z" opacity="0.75" fill="currentColor" sodipodi:nodetypes="ccccc" />
        <path id="path3184-8" class="ColorScheme-Text" d="m67 6v1h-4l-2 2e-5v-1l2-2e-5h1z" fill-rule="evenodd" opacity=".15" fill="currentColor" />
    </g>
    <g id="footer-top" fill="currentColor">
        <path id="rect3152-0" class="ColorScheme-Background" transform="matrix(0 -1 -1 0 0 0)" d="m-12-99h6v32h-6z" opacity=".75" fill="currentColor" />
        <path id="rect3154-9" class="ColorScheme-Text" transform="matrix(0 -1 -1 0 0 0)" d="m-7-99h1v32h-1z" opacity=".15" fill="currentColor" />
    </g>
    <g id="footer-topright" fill="currentColor">
        <path id="path3176-6" class="ColorScheme-Background" d="M 105,12 H 99 V 6 h 6 z" opacity="0.75" fill="currentColor" sodipodi:nodetypes="ccccc" />
        <path id="path3178-2" class="ColorScheme-Text" d="m105 7h-6v-1h6c0 1-2e-5 0 0 1z" fill-rule="evenodd" opacity=".15" fill="currentColor" />
    </g>
    <path id="footer-left" class="ColorScheme-Background" transform="scale(-1 1)" d="m-67 12h6v32h-6z" fill="currentColor" opacity=".75" />
    <path id="footer-center" class="ColorScheme-Background" transform="scale(1 -1)" d="m67-44h32v32h-32z" fill="currentColor" opacity=".75" />
    <path id="footer-right" class="ColorScheme-Background" transform="scale(1 -1)" d="m99-44h6v32h-6z" fill="currentColor" opacity=".75" />
    <path id="footer-bottomleft" opacity=".75" class="ColorScheme-Background" fill="currentColor" d="M 61 44 L 61 47 C 61 48.662 62.338 50 64 50 L 67 50 L 67 44 L 61 44 z " />
    <path id="footer-bottom" class="ColorScheme-Background" transform="matrix(0 1 1 0 0 0)" d="m44 67h6v32h-6z" fill="currentColor" opacity=".75" />
    <path id="footer-bottomright" class="ColorScheme-Background" fill="currentColor" d="M 99 44 L 99 50 L 102 50 C 103.662 50 105 48.662 105 47 L 105 44 L 99 44 z " opacity=".75" />
    <path id="hint-top-margin" d="m33 12h4v6h-4z" fill="#f0f" />
    <path id="hint-bottom-margin" d="m33 38h4v6h-4z" fill="#f0f" />
    <path id="hint-right-margin" transform="rotate(90)" d="m26-51h4v6h-4z" fill="#f0f" />
    <path id="hint-left-margin" transform="rotate(90)" d="m26-25h4v6h-4z" fill="#f0f" />
</svg>
