<svg id="svg2" version="1.1" viewBox="0 0 157 64" xmlns="http://www.w3.org/2000/svg" xmlns:xlink="http://www.w3.org/1999/xlink">
    <defs id="defs15">
        <style id="current-color-scheme" type="text/css">.ColorScheme-Text {
                color:#232629;
                stop-color:#232629;
            }
            .ColorScheme-Background {
                color:#eff0f1;
                stop-color:#eff0f1;
            }</style>
        <linearGradient id="shadow-side" gradientUnits="userSpaceOnUse">
            <stop id="stop1762" stop-opacity=".2" offset="0"/>
            <stop id="stop1760" stop-opacity=".1" offset=".33333333"/>
            <stop id="stop1758" stop-opacity=".05" offset=".5"/>
            <stop id="stop1756" stop-opacity=".025" offset=".58333333"/>
            <stop id="stop1754" stop-opacity="0" offset="1"/>
        </linearGradient>
        <linearGradient id="shadow-corner" gradientUnits="userSpaceOnUse">
            <stop id="stop11958" offset="0"/>
            <stop id="stop11960" stop-opacity=".2" offset=".28571429"/>
            <stop id="stop11962" stop-opacity=".1" offset=".52380952"/>
            <stop id="stop11966" stop-opacity=".05" offset=".64285714"/>
            <stop id="stop11968" stop-opacity=".025" offset=".70238095"/>
            <stop id="stop11970" stop-opacity="0" offset="1"/>
        </linearGradient>
        <linearGradient id="linearGradient1734" x1="16" x2="16" y1="6" y2="16" gradientUnits="userSpaceOnUse" xlink:href="#shadow-side"/>
        <linearGradient id="linearGradient1984" x1="12" x2="2" y1="16" y2="16" gradientUnits="userSpaceOnUse" xlink:href="#shadow-side"/>
        <linearGradient id="linearGradient4945" x1="15.999999" x2="15.999999" y1="13.999998" y2="4" gradientUnits="userSpaceOnUse" xlink:href="#shadow-side"/>
        <linearGradient id="linearGradient8667" x1="4" x2="14" y1="16" y2="16" gradientUnits="userSpaceOnUse" xlink:href="#shadow-side"/>
        <radialGradient id="radialGradient3268" cx="95" cy="50" r="6.5" gradientTransform="matrix(0 2.1538462 -2.1538462 0 107.69231 -202.61538)" gradientUnits="userSpaceOnUse" xlink:href="#shadow-corner"/>
        <radialGradient id="radialGradient3268-6" cx="93.14286" cy="50" r="6.5" gradientTransform="matrix(0 2.1538462 -2.1538462 0 107.69231 -202.61538)" gradientUnits="userSpaceOnUse" xlink:href="#shadow-corner"/>
    </defs>
    <rect id="hint-tile-center" width="5" height="5" fill="#f60"/>
    <g id="top" transform="translate(6,10)">
        <rect id="rect4152" class="ColorScheme-Background" width="32" height="6" fill="currentColor" opacity=".85"/>
    </g>
    <g id="bottom" transform="translate(6,48)">
        <rect id="rect4148" class="ColorScheme-Background" width="32" height="6" fill="currentColor" opacity=".85"/>
    </g>
    <g id="left" transform="translate(0,16)">
        <rect id="rect4144" class="ColorScheme-Background" width="6" height="32" fill="currentColor" opacity=".85"/>
    </g>
    <g id="right" transform="translate(38,16)">
        <rect id="rect4140" class="ColorScheme-Background" width="6" height="32" fill="currentColor" opacity=".85"/>
    </g>
    <g id="center" transform="translate(6,16)">
        <rect id="rect4138" class="ColorScheme-Background" width="32" height="32" fill="currentColor" opacity=".85"/>
    </g>
    <g id="topleft" transform="translate(0,10)">
        <path id="path3115" class="ColorScheme-Background" d="m3 0c-1.6568542 0-3 1.3431458-3 3v3h6v-6z" fill="currentColor" opacity=".85"/>
    </g>
    <g id="topright" transform="translate(38,10)">
        <path id="path3118" class="ColorScheme-Background" d="m0 0v6h6v-3c0-1.6568542-1.3431458-3-3-3z" fill="currentColor" opacity=".85"/>
    </g>
    <g id="bottomleft" transform="translate(0,48)">
        <path id="path3124" class="ColorScheme-Background" d="m3 6h3v-6h-6v3c0 1.6568542 1.3431458 3 3 3z" fill="currentColor" opacity=".85"/>
    </g>
    <g id="bottomright" transform="translate(38,48)">
        <path id="path3121" class="ColorScheme-Background" d="m3 6h-3v-6h6v3c0 1.6568542-1.3431458 3-3 3z" fill="currentColor" opacity=".85"/>
    </g>
    <rect id="hint-top-margin" x="20" y="10" width="4" height="4" fill="#f0f" stroke-width=".999996"/>
    <rect id="hint-bottom-margin" x="20" y="48" width="4" height="4" fill="#f0f" stroke-width=".999996"/>
    <rect id="hint-right-margin" x="38" y="30" width="4" height="4" fill="#f0f" stroke-width=".999996"/>
    <rect id="hint-left-margin" y="30" width="4" height="4" fill="#f0f" stroke-width=".999996"/>
    <rect id="hint-top-inset" x="20" y="10" width="4" height="9.9999999e-9" fill="#0f0"/>
    <rect id="hint-bottom-inset" x="20" y="54" width="4" height="9.9999999e-9" fill="#0f0"/>
    <rect id="hint-left-inset" y="30" width="9.9999999e-9" height="4" fill="#0f0"/>
    <rect id="hint-right-inset" x="44" y="30" width="9.9999999e-9" height="4" fill="#0f0"/>
    <rect id="mask-top" x="119" y="10" width="31.99999" height="6.000021"/>
    <rect id="mask-center" x="119" y="16" width="32" height="32"/>
    <rect id="mask-bottom" transform="scale(1,-1)" x="119" y="-54" width="32.000008" height="6.0000215"/>
    <rect id="mask-left" x="113" y="16" width="6" height="32"/>
    <rect id="mask-right" x="151" y="16" width="6" height="32"/>
    <path id="mask-topleft" d="m116 10c-1.6568542 0-3 1.3431458-3 3v3h6v-6z"/>
    <path id="mask-topright" d="m151 10v6h6v-3c0-1.6568542-1.3431458-3-3-3z"/>
    <path id="mask-bottomleft" d="m116 54h3v-6h-6v3c0 1.6568542 1.3431458 3 3 3z"/>
    <path id="mask-bottomright" d="m154 54h-3v-6h6v3c0 1.6568542-1.3431458 3-3 3z"/>
    <rect id="rect30894" x="57" y="10" width="44" height="44" rx="3" ry="3" fill="#ff0" fill-rule="evenodd"/>
    <g id="shadow-center" transform="translate(63,16)">
        <rect id="rect4908" width="32" height="32" fill-opacity=".00100002" opacity=".00100002"/>
    </g>
    <g id="shadow-top" transform="translate(63)">
        <rect id="st" width="32" height="10" fill="url(#linearGradient4945)"/>
        <rect id="rect1546" y="10" width="32" height="6" fill-opacity=".0039215689" fill-rule="evenodd" opacity=".00100002"/>
    </g>
    <g id="shadow-bottom" transform="translate(63,48)">
        <rect id="rect1546-6" width="32" height="6" fill-opacity=".0039215689" fill-rule="evenodd" opacity=".00100002"/>
        <rect id="sb" y="6" width="32" height="10" fill="url(#linearGradient1734)"/>
    </g>
    <g id="shadow-left" transform="translate(47,16)">
        <rect id="sl" width="10" height="32" fill="url(#linearGradient1984)"/>
        <rect id="rect1546-3-7" x="10" width="6" height="32" fill-opacity=".0039215689" fill-rule="evenodd" opacity=".00100002"/>
    </g>
    <g id="shadow-right" transform="translate(95,16)">
        <rect id="rect1546-3" width="6" height="32" fill-opacity=".0039215689" fill-rule="evenodd" opacity=".00100002"/>
        <rect id="sr" x="6" width="10" height="32" fill="url(#linearGradient8667)"/>
    </g>
    <rect id="shadow-hint-top-margin" x="76" width="2" height="10" fill="#f0f"/>
    <rect id="shadow-hint-bottom-margin" x="76" y="54" width="2" height="10" fill="#f0f"/>
    <rect id="shadow-hint-right-margin" x="101" y="33" width="10" height="2" fill="#f0f"/>
    <rect id="shadow-hint-left-margin" x="47" y="29" width="10" height="2" fill="#f0f"/>
    <rect id="shadow-hint-top-inset" x="80" width="2" height="10" fill="#0f0"/>
    <rect id="shadow-hint-bottom-inset" x="80" y="54" width="2" height="10" fill="#0f0"/>
    <rect id="shadow-hint-right-inset" x="101" y="29" width="10" height="2" fill="#0f0"/>
    <rect id="shadow-hint-left-inset" x="47" y="33" width="10" height="2" fill="#0f0"/>
    <g id="shadow-bottomright" transform="translate(95,48)">
        <path id="path95" d="m3 6h-3v-6h6v3c0 1.6568542-1.3431458 3-3 3z" fill-opacity=".0039215689" opacity=".001"/>
        <path id="path2368" d="m6 0v3c0 1.6568542-1.3431458 3-3 3h-3v10h3a13 13 0 0 0 13-13v-3z" fill="url(#radialGradient3268)" fill-rule="evenodd" stroke-width=".999997"/>
    </g>
    <g id="shadow-bottomleft" transform="matrix(-1,0,0,1,63,48)">
        <path id="path95-1" d="m3 6h-3v-6h6v3c0 1.6568542-1.3431458 3-3 3z" fill-opacity=".0039215689" opacity=".00100002"/>
        <path id="path2368-0" d="m6 0v3c0 1.6568542-1.3431458 3-3 3h-3v10h3c7.1797017 0 13-5.8202983 13-13v-3z" fill="url(#radialGradient3268)" fill-rule="evenodd" stroke-width=".999997"/>
    </g>
    <g id="shadow-topright" transform="matrix(1,0,0,-1,95,16)">
        <path id="path95-4" d="m3 6h-3v-6h6v3c0 1.6568542-1.3431458 3-3 3z" fill-opacity=".0039215689" opacity=".00100002"/>
        <path id="path2368-7" d="m6 0v3c0 1.6568542-1.3431458 3-3 3h-3v10h3c7.1797017 0 13-5.8202983 13-13v-3z" fill="url(#radialGradient3268-6)" fill-rule="evenodd" stroke-width=".999997"/>
    </g>
    <g id="shadow-topleft" transform="rotate(180,31.5,8)">
        <path id="path95-4-2" d="m3 6h-3v-6h6v3c0 1.6568542-1.3431458 3-3 3z" fill-opacity=".0039215689" opacity=".00100002"/>
        <path id="path2368-7-5" d="m6 0v3c0 1.6568542-1.3431458 3-3 3h-3v10h3a13 13 0 0 0 13-13v-3z" fill="url(#radialGradient3268-6)" fill-rule="evenodd" stroke-width=".999997"/>
    </g>
    <rect id="thick-center" class="ColorScheme-Background" x="19" y="75" width="32" height="32" color="#eff0f1" fill="currentColor" stop-color="#eff0f1"/>
    <rect id="thick-hint-right-margin" transform="rotate(90)" x="95" y="-56" width="4" height="8" fill="#800080"/>
    <rect id="thick-hint-left-margin" transform="rotate(90)" x="95" y="-20" width="4" height="8" fill="#800080"/>
    <rect id="thick-hint-top-margin" x="38" y="69" width="4" height="8" fill="#800080"/>
    <rect id="thick-hint-bottom-margin" x="39" y="105" width="4" height="8" fill="#800080"/>
    <rect id="floating-center" x="6" width="5" height="5" fill="#f60"/>
    <rect id="floating-hint-top-margin" x="25" y="10" width="4" height="4" fill="#f0f" stroke-width=".999996"/>
    <rect id="floating-hint-right-margin" x="38" y="35" width="4" height="4" fill="#f0f" stroke-width=".999996"/>
    <rect id="floating-hint-bottom-margin" x="25" y="48" width="4" height="4" fill="#f0f" stroke-width=".999996"/>
    <rect id="floating-hint-left-margin" y="35" width="4" height="4" fill="#f0f" stroke-width=".999996"/>
</svg>
