<svg id="svg2" version="1.1" viewBox="0 0 173 56.000004" xmlns="http://www.w3.org/2000/svg">
    <defs id="defs4">
        <style id="current-color-scheme" type="text/css">.ColorScheme-Text {
        color:#31363b;
        stop-color:#31363b;
      }
      .ColorScheme-Background {
        color:#eff0f1;
        stop-color:#eff0f1;
      }
      .ColorScheme-Highlight {
        color:#3daee9;
        stop-color:#3daee9;
      }
      .ColorScheme-ViewText {
        color:#31363b;
        stop-color:#31363b;
      }
      .ColorScheme-ViewBackground {
        color:#fcfcfc;
        stop-color:#fcfcfc;
      }
      .ColorScheme-ViewHover {
        color:#93cee9;
        stop-color:#93cee9;
      }
      .ColorScheme-ViewFocus{
        color:#3daee9;
        stop-color:#3daee9;
      }
      .ColorScheme-ButtonText {
        color:#31363b;
        stop-color:#31363b;
      }
      .ColorScheme-ButtonBackground {
        color:#eff0f1;
        stop-color:#eff0f1;
      }
      .ColorScheme-ButtonHover {
        color:#93cee9;
        stop-color:#93cee9;
      }
      .ColorScheme-ButtonFocus{
        color:#3daee9;
        stop-color:#3daee9;
      }</style>
    </defs>
    <g id="layer1" transform="translate(0,-904.36218)">
        <rect id="hint-tile-center" y="904.36218" width="5" height="5" fill="#f60"/>
        <g id="center">
            <rect id="rect4401" x="19.000004" y="916.36218" width="32" height="32" fill="none"/>
            <rect id="rect4138" class="ColorScheme-Background" x="19.000004" y="916.36218" width="32" height="32" fill="currentColor"/>
        </g>
        <g id="topright" fill="currentColor">
            <path id="rect4177" class="ColorScheme-Background" d="m51 910.36218v1 4 1h1 1 3 1v-1-4l-1-2e-5v-0.99998h-3-1z"/>
            <path id="path4842" class="ColorScheme-Text" d="m51 910.36216v1h3 1 1v1 1 3h1v-3-1-1h-1v-1h-1-1z" fill-rule="evenodd" opacity=".3"/>
        </g>
        <g id="mask-top" transform="translate(116)">
            <rect id="rect4265" transform="matrix(0,-1,-1,0,0,0)" x="-915.36218" y="-51" width="4.9999771" height="32.000015" opacity=".97000002"/>
        </g>
        <g id="mask-topleft" transform="translate(116)">
            <path id="path4277" transform="translate(-116,904.36218)" d="m130 6v0.9999798l-1 2.02e-5v4h5v-5h-1z" opacity=".97000002"/>
        </g>
        <g id="mask-topright" transform="translate(116)">
            <path id="path4287" transform="translate(-116,904.36218)" d="m168 6v5h5v-4l-1-2.02e-5v-0.9999798h-3z" opacity=".97000002"/>
        </g>
        <g id="mask-bottom" transform="translate(116)">
            <rect id="rect4291" transform="rotate(90)" x="949.36218" y="-51" width="5.0000229" height="32.000015" opacity=".97000002"/>
        </g>
        <g id="mask-bottomleft" transform="translate(116)">
            <path id="path4303" transform="translate(-116,904.36218)" d="m129 45v4l1-2e-5v1.00002h3 1v-5z" opacity=".97000002"/>
        </g>
        <g id="mask-bottomright" transform="translate(116)">
            <path id="path4313" transform="translate(-116,904.36218)" d="m168 45v5h1 3v-1.00002l1 2e-5v-4z" opacity=".97000002"/>
        </g>
        <g id="mask-left" transform="translate(116)">
            <rect id="rect4317" transform="scale(-1,1)" x="-18" y="916.36218" width="4.9999962" height="32.000023" opacity=".97000002"/>
        </g>
        <g id="mask-right" transform="translate(116)">
            <rect id="rect4323" x="52" y="916.36218" width="4.9999847" height="32.000023" opacity=".97000002"/>
        </g>
        <g id="mask-center" transform="translate(116)">
            <rect id="rect4329" x="19.000004" y="916.36218" width="32" height="32" fill="none"/>
            <rect id="rect4331" x="19.000004" y="916.36218" width="32" height="32" opacity=".97000002"/>
        </g>
        <g id="right" fill="currentColor">
            <rect id="rect4140" class="ColorScheme-Background" x="50.999985" y="916.36218" width="5.9999995" height="32"/>
            <rect id="rect4902-0" class="ColorScheme-Text" x="56" y="916.36218" width="1.0000153" height="32" opacity=".3"/>
        </g>
        <g id="top" transform="matrix(0,-1,1,0,-897.36218,967.36214)" fill="currentColor">
            <rect id="rect3146" class="ColorScheme-Background" x="50.999985" y="916.36218" width="5.9999995" height="32"/>
            <rect id="rect3148" class="ColorScheme-Text" x="56" y="916.36218" width="1.0000153" height="32" opacity=".3"/>
        </g>
        <g id="bottom" transform="matrix(0,1,-1,0,967.36218,897.36216)" fill="currentColor">
            <rect id="rect3152" class="ColorScheme-Background" x="50.999985" y="916.36218" width="5.9999995" height="32"/>
            <rect id="rect3154" class="ColorScheme-Text" x="56" y="916.36218" width="1.0000153" height="32" opacity=".3"/>
        </g>
        <g id="left" transform="matrix(-1,0,0,-1,69.999985,1864.7243)" fill="currentColor">
            <rect id="rect3164" class="ColorScheme-Background" x="50.999985" y="916.36218" width="5.9999995" height="32"/>
            <rect id="rect3166" class="ColorScheme-Text" x="56" y="916.36218" width="1.0000153" height="32" opacity=".3"/>
        </g>
        <g id="bottomright" transform="matrix(0,1,-1,0,967.36216,897.36216)" fill="currentColor">
            <path id="path3176" class="ColorScheme-Background" d="m51 910.36218v1 4 1h1 1 3 1v-1-4l-1-2e-5v-0.99998h-3-1z"/>
            <path id="path3178" class="ColorScheme-Text" d="m51 910.36216v1h3 1 1v1 1 3h1v-3-1-1h-1v-1h-1-1z" fill-rule="evenodd" opacity=".3"/>
        </g>
        <g id="bottomleft" transform="matrix(-1,0,0,-1,70,1864.7243)" fill="currentColor">
            <path id="path3182" class="ColorScheme-Background" d="m51 910.36218v1 4 1h1 1 3 1v-1-4l-1-2e-5v-0.99998h-3-1z"/>
            <path id="path3184" class="ColorScheme-Text" d="m51 910.36216v1h3 1 1v1 1 3h1v-3-1-1h-1v-1h-1-1z" fill-rule="evenodd" opacity=".3"/>
        </g>
        <g id="topleft" transform="matrix(0,-1,1,0,-897.36216,967.36216)" fill="currentColor">
            <path id="path3188" class="ColorScheme-Background" d="m51 910.36218v1 4 1h1 1 3 1v-1-4l-1-2e-5v-0.99998h-3-1z"/>
            <path id="path3190" class="ColorScheme-Text" d="m51 910.36216v1h3 1 1v1 1 3h1v-3-1-1h-1v-1h-1-1z" fill-rule="evenodd" opacity=".3"/>
        </g>
        <rect id="thick-hint-top-margin" x="34" y="911.36218" width="4.0000019" height="8.0000048" fill="#f0f"/>
        <rect id="thick-hint-bottom-margin" x="30" y="945.36218" width="4" height="8.0001907" fill="#f0f"/>
        <rect id="thick-right-margin" transform="rotate(90)" x="932.36218" y="-55.999985" width="3.9999771" height="7.9999847" fill="#f0f"/>
        <rect id="thick-hint-left-margin" transform="rotate(90)" x="928.36218" y="-22" width="4.0000229" height="8.0000076" fill="#f0f"/>
        <rect id="hint-bottom-margin" x="34" y="949.36218" width="4" height="4.0002136" fill="#800080"/>
        <rect id="slim-hint-right-margin" transform="rotate(90)" x="928.36218" y="-55.999985" width="3.9999771" height="3.9999847" fill="#800080"/>
        <rect id="hint-left-margin" transform="rotate(90)" x="932.36218" y="-18" width="4.0000229" height="4.0000076" fill="#800080"/>
        <rect id="hint-top-margin" x="30" y="911.36218" width="4.0000019" height="3.9999795" fill="#800080"/>
        <rect id="thick-center" x="-5.6843419e-14" y="960.36218" width="2" height="2"/>
    </g>
</svg>
