<?xml version="1.0" encoding="UTF-8" standalone="no"?>
<!-- Created with Inkscape (http://www.inkscape.org/) -->

<svg
   xmlns:dc="http://purl.org/dc/elements/1.1/"
   xmlns:cc="http://creativecommons.org/ns#"
   xmlns:rdf="http://www.w3.org/1999/02/22-rdf-syntax-ns#"
   xmlns:svg="http://www.w3.org/2000/svg"
   xmlns="http://www.w3.org/2000/svg"
   xmlns:sodipodi="http://sodipodi.sourceforge.net/DTD/sodipodi-0.dtd"
   xmlns:inkscape="http://www.inkscape.org/namespaces/inkscape"
   width="173"
   height="56.000004"
   viewBox="0 0 173 56.000004"
   id="svg2"
   version="1.1"
   inkscape:version="0.91 r13725"
   sodipodi:docname="panel-background.svg">
  <defs
     id="defs4">
    <style
       type="text/css"
       id="current-color-scheme">
      .ColorScheme-Text {
        color:#31363b;
        stop-color:#31363b;
      }
      .ColorScheme-Background {
        color:#eff0f1;
        stop-color:#eff0f1;
      }
      .ColorScheme-Highlight {
        color:#3daee9;
        stop-color:#3daee9;
      }
      .ColorScheme-ViewText {
        color:#31363b;
        stop-color:#31363b;
      }
      .ColorScheme-ViewBackground {
        color:#fcfcfc;
        stop-color:#fcfcfc;
      }
      .ColorScheme-ViewHover {
        color:#93cee9;
        stop-color:#93cee9;
      }
      .ColorScheme-ViewFocus{
        color:#3daee9;
        stop-color:#3daee9;
      }
      .ColorScheme-ButtonText {
        color:#31363b;
        stop-color:#31363b;
      }
      .ColorScheme-ButtonBackground {
        color:#eff0f1;
        stop-color:#eff0f1;
      }
      .ColorScheme-ButtonHover {
        color:#93cee9;
        stop-color:#93cee9;
      }
      .ColorScheme-ButtonFocus{
        color:#3daee9;
        stop-color:#3daee9;
      }
      </style>
  </defs>
  <sodipodi:namedview
     id="base"
     pagecolor="#b0dba0"
     bordercolor="#cc0000"
     borderopacity="1"
     inkscape:pageopacity="0"
     inkscape:pageshadow="2"
     inkscape:zoom="11.699422"
     inkscape:cx="48.945022"
     inkscape:cy="28.851737"
     inkscape:document-units="px"
     inkscape:current-layer="layer1"
     showgrid="true"
     inkscape:showpageshadow="false"
     borderlayer="true"
     units="px"
     inkscape:window-width="1920"
     inkscape:window-height="1143"
     inkscape:window-x="0"
     inkscape:window-y="0"
     inkscape:window-maximized="1"
     showguides="true"
     fit-margin-top="0"
     fit-margin-left="0"
     fit-margin-right="0"
     fit-margin-bottom="0">
    <inkscape:grid
       type="xygrid"
       id="grid3336"
       empspacing="2"
       originx="0"
       originy="-91.999976" />
  </sodipodi:namedview>
  <metadata
     id="metadata7">
    <rdf:RDF>
      <cc:Work
         rdf:about="">
        <dc:format>image/svg+xml</dc:format>
        <dc:type
           rdf:resource="http://purl.org/dc/dcmitype/StillImage" />
        <dc:title />
      </cc:Work>
    </rdf:RDF>
  </metadata>
  <g
     inkscape:label="Layer 1"
     inkscape:groupmode="layer"
     id="layer1"
     transform="translate(0,-904.36218)">
    <rect
       style="opacity:1;fill:#ff6600;fill-opacity:1;stroke:none"
       id="hint-tile-center"
       width="5"
       height="5"
       x="0"
       y="904.36218" />
    <g
       id="center">
      <rect
         y="916.36218"
         x="19.000004"
         height="32"
         width="32"
         id="rect4401"
         style="opacity:1;fill:none;fill-opacity:1;stroke:none" />
      <rect
         style="opacity:1;fill:currentColor;fill-opacity:1;stroke:none"
         id="rect4138"
         width="32"
         height="32"
         x="19.000004"
         y="916.36218"
         class="ColorScheme-Background" />
    </g>
    <rect
       style="fill:#ff00ff;fill-opacity:1;stroke:none"
       id="hint-top-margin"
       width="4"
       height="2"
       x="33"
       y="920.36218" />
    <rect
       y="946.36218"
       x="33"
       height="2"
       width="4"
       id="hint-bottom-margin"
       style="fill:#ff00ff;fill-opacity:1;stroke:none" />
    <rect
       y="-46.999985"
       x="930.36218"
       height="2"
       width="4"
       id="hint-right-margin"
       style="fill:#ff00ff;fill-opacity:1;stroke:none"
       transform="matrix(0,1,-1,0,0,0)" />
    <rect
       style="fill:#ff00ff;fill-opacity:1;stroke:none"
       id="hint-left-margin"
       width="4"
       height="2"
       x="930.36218"
       y="-21"
       transform="matrix(0,1,-1,0,0,0)" />
    <g
       id="topright">
      <path
         style="fill:currentColor;fill-opacity:1"
         d="m 51,910.36218 0,1 0,4 0,1 1,0 1,0 3,0 1,0 0,-1 0,-4 -1,-2e-5 0,-0.99998 -3,0 -1,0 z"
         id="rect4177"
         inkscape:connector-curvature="0"
         class="ColorScheme-Background"
         sodipodi:nodetypes="ccccccccccccccc" />
      <path
         sodipodi:nodetypes="ccccccccccccccccc"
         inkscape:connector-curvature="0"
         id="path4842"
         d="m 51,910.36216 0,1 3,0 1,0 1,0 0,1 0,1 0,3 1,0 0,-3 0,-1 0,-1 -1,0 0,-1 -1,0 -1,0 z"
         style="opacity:0.3;fill:currentColor;fill-rule:evenodd;stroke:none"
         class="ColorScheme-Text" />
    </g>
    <g
       id="mask-top"
       transform="translate(116,0)">
      <rect
         transform="matrix(0,-1,-1,0,0,0)"
         style="opacity:0.97000002;fill:#000000;fill-opacity:1;stroke:none"
         id="rect4265"
         width="4.9999771"
         height="32.000015"
         x="-915.36218"
         y="-51" />
    </g>
    <g
       id="mask-topleft"
       transform="translate(116,0)">
      <path
         style="opacity:0.97000002;fill:#000000;fill-opacity:1"
         d="M 130,6 130,6.9999798 129,7 l 0,4 5,0 0,-5 -1,0 z"
         transform="translate(-116,904.36218)"
         id="path4277"
         inkscape:connector-curvature="0"
         sodipodi:nodetypes="cccccccc" />
    </g>
    <g
       id="mask-topright"
       transform="translate(116,0)">
      <path
         style="opacity:0.97000002;fill:#000000;fill-opacity:1"
         d="m 168,6 0,5 5,0 0,-4 -1,-2.02e-5 L 172,6 169,6 z"
         transform="translate(-116,904.36218)"
         id="path4287"
         inkscape:connector-curvature="0"
         sodipodi:nodetypes="cccccccc" />
    </g>
    <g
       id="mask-bottom"
       transform="translate(116,0)">
      <rect
         y="-51"
         x="949.36218"
         height="32.000015"
         width="5.0000229"
         id="rect4291"
         style="opacity:0.97000002;fill:#000000;fill-opacity:1;stroke:none"
         transform="matrix(0,1,-1,0,0,0)" />
    </g>
    <g
       id="mask-bottomleft"
       transform="translate(116,0)">
      <path
         style="opacity:0.97000002;fill:#000000;fill-opacity:1"
         d="m 129,45 0,4 1,-2e-5 0,1.00002 3,0 1,0 0,-5 z"
         transform="translate(-116,904.36218)"
         id="path4303"
         inkscape:connector-curvature="0"
         sodipodi:nodetypes="cccccccc" />
    </g>
    <g
       id="mask-bottomright"
       transform="translate(116,0)">
      <path
         style="opacity:0.97000002;fill:#000000;fill-opacity:1"
         d="m 168,45 0,5 1,0 3,0 0,-1.00002 1,2e-5 0,-4 z"
         transform="translate(-116,904.36218)"
         id="path4313"
         inkscape:connector-curvature="0"
         sodipodi:nodetypes="cccccccc" />
    </g>
    <g
       id="mask-left"
       transform="translate(116,0)">
      <rect
         y="916.36218"
         x="-18"
         height="32.000023"
         width="4.9999962"
         id="rect4317"
         style="opacity:0.97000002;fill:#000000;fill-opacity:1;stroke:none"
         transform="scale(-1,1)" />
    </g>
    <g
       id="mask-right"
       transform="translate(116,0)">
      <rect
         style="opacity:0.97000002;fill:#000000;fill-opacity:1;stroke:none"
         id="rect4323"
         width="4.9999847"
         height="32.000023"
         x="52"
         y="916.36218" />
    </g>
    <g
       id="mask-center"
       transform="translate(116,0)">
      <rect
         style="opacity:1;fill:none;fill-opacity:1;stroke:none"
         id="rect4329"
         width="32"
         height="32"
         x="19.000004"
         y="916.36218" />
      <rect
         y="916.36218"
         x="19.000004"
         height="32"
         width="32"
         id="rect4331"
         style="opacity:0.97000002;fill:#000000;fill-opacity:1;stroke:none" />
    </g>
    <g
       id="right">
      <rect
         y="916.36218"
         x="50.999985"
         height="32"
         width="5.9999995"
         id="rect4140"
         style="fill:currentColor;fill-opacity:1;stroke:none"
         class="ColorScheme-Background" />
      <rect
         y="916.36218"
         x="56"
         height="32"
         width="1.0000153"
         id="rect4902-0"
         style="opacity:0.3;fill:currentColor;stroke:none"
         class="ColorScheme-Text" />
    </g>
    <g
       id="top"
       transform="matrix(0,-1,1,0,-897.36218,967.36214)">
      <rect
         class="ColorScheme-Background"
         style="fill:currentColor;fill-opacity:1;stroke:none"
         id="rect3146"
         width="5.9999995"
         height="32"
         x="50.999985"
         y="916.36218" />
      <rect
         style="opacity:0.3;fill:currentColor;stroke:none"
         id="rect3148"
         width="1.0000153"
         height="32"
         x="56"
         y="916.36218"
         class="ColorScheme-Text" />
    </g>
    <g
       id="bottom"
       transform="matrix(0,1,-1,0,967.36218,897.36216)">
      <rect
         class="ColorScheme-Background"
         style="fill:currentColor;fill-opacity:1;stroke:none"
         id="rect3152"
         width="5.9999995"
         height="32"
         x="50.999985"
         y="916.36218" />
      <rect
         style="opacity:0.3;fill:currentColor;stroke:none"
         id="rect3154"
         width="1.0000153"
         height="32"
         x="56"
         y="916.36218"
         class="ColorScheme-Text" />
    </g>
    <g
       transform="matrix(-1,0,0,-1,69.999985,1864.7243)"
       id="left">
      <rect
         y="916.36218"
         x="50.999985"
         height="32"
         width="5.9999995"
         id="rect3164"
         style="fill:currentColor;fill-opacity:1;stroke:none"
         class="ColorScheme-Background" />
      <rect
         y="916.36218"
         x="56"
         height="32"
         width="1.0000153"
         id="rect3166"
         style="opacity:0.3;fill:currentColor;stroke:none"
         class="ColorScheme-Text" />
    </g>
    <g
       id="bottomright"
       transform="matrix(0,1,-1,0,967.36216,897.36216)">
      <path
         sodipodi:nodetypes="ccccccccccccccc"
         class="ColorScheme-Background"
         inkscape:connector-curvature="0"
         id="path3176"
         d="m 51,910.36218 0,1 0,4 0,1 1,0 1,0 3,0 1,0 0,-1 0,-4 -1,-2e-5 0,-0.99998 -3,0 -1,0 z"
         style="fill:currentColor;fill-opacity:1" />
      <path
         style="opacity:0.3;fill:currentColor;fill-rule:evenodd;stroke:none"
         d="m 51,910.36216 0,1 3,0 1,0 1,0 0,1 0,1 0,3 1,0 0,-3 0,-1 0,-1 -1,0 0,-1 -1,0 -1,0 z"
         id="path3178"
         inkscape:connector-curvature="0"
         sodipodi:nodetypes="ccccccccccccccccc"
         class="ColorScheme-Text" />
    </g>
    <g
       transform="matrix(-1,0,0,-1,70,1864.7243)"
       id="bottomleft">
      <path
         style="fill:currentColor;fill-opacity:1"
         d="m 51,910.36218 0,1 0,4 0,1 1,0 1,0 3,0 1,0 0,-1 0,-4 -1,-2e-5 0,-0.99998 -3,0 -1,0 z"
         id="path3182"
         inkscape:connector-curvature="0"
         class="ColorScheme-Background"
         sodipodi:nodetypes="ccccccccccccccc" />
      <path
         sodipodi:nodetypes="ccccccccccccccccc"
         inkscape:connector-curvature="0"
         id="path3184"
         d="m 51,910.36216 0,1 3,0 1,0 1,0 0,1 0,1 0,3 1,0 0,-3 0,-1 0,-1 -1,0 0,-1 -1,0 -1,0 z"
         style="opacity:0.3;fill:currentColor;fill-rule:evenodd;stroke:none"
         class="ColorScheme-Text" />
    </g>
    <g
       id="topleft"
       transform="matrix(0,-1,1,0,-897.36216,967.36216)">
      <path
         sodipodi:nodetypes="ccccccccccccccc"
         class="ColorScheme-Background"
         inkscape:connector-curvature="0"
         id="path3188"
         d="m 51,910.36218 0,1 0,4 0,1 1,0 1,0 3,0 1,0 0,-1 0,-4 -1,-2e-5 0,-0.99998 -3,0 -1,0 z"
         style="fill:currentColor;fill-opacity:1" />
      <path
         style="opacity:0.3;fill:currentColor;fill-rule:evenodd;stroke:none"
         d="m 51,910.36216 0,1 3,0 1,0 1,0 0,1 0,1 0,3 1,0 0,-3 0,-1 0,-1 -1,0 0,-1 -1,0 -1,0 z"
         id="path3190"
         inkscape:connector-curvature="0"
         sodipodi:nodetypes="ccccccccccccccccc"
         class="ColorScheme-Text" />
    </g>
  </g>
</svg>
