<?xml version="1.0" encoding="UTF-8" standalone="no"?>
<svg
   xmlns:dc="http://purl.org/dc/elements/1.1/"
   xmlns:cc="http://creativecommons.org/ns#"
   xmlns:rdf="http://www.w3.org/1999/02/22-rdf-syntax-ns#"
   xmlns:svg="http://www.w3.org/2000/svg"
   xmlns="http://www.w3.org/2000/svg"
   version="1.1"
   id="svg2"
   viewBox="0 0 54 32">
  <metadata
     id="metadata18">
    <rdf:RDF>
      <cc:Work
         rdf:about="">
        <dc:format>image/svg+xml</dc:format>
        <dc:type
           rdf:resource="http://purl.org/dc/dcmitype/StillImage" />
        <dc:title></dc:title>
      </cc:Work>
    </rdf:RDF>
  </metadata>
  <defs
     id="defs3051">
    <style
       type="text/css"
       id="current-color-scheme">
      .ColorScheme-Text {
        color:#31363b;
      }
      </style>
  </defs>
  <g
     id="22-22-akregator">
    <path
       id="path7"
       style="opacity:1;fill:none"
       d="M 0 10 L 0 32 L 22 32 L 22 10 L 0 10 z " />
    <path
       id="path9"
       d="M 3 13 L 3 16 A 13 13 0 0 1 16 29 L 19 29 A 16 16 0 0 0 3 13 z M 3 19 L 3 22 A 7 7 0 0 1 10 29 L 13 29 A 10 10 0 0 0 3 19 z M 5 25 A 2 2 0 0 0 3 27 A 2 2 0 0 0 5 29 A 2 2 0 0 0 7 27 A 2 2 0 0 0 5 25 z "
       style="fill:currentColor;fill-opacity:1;stroke:none"
       class="ColorScheme-Text" />
  </g>
  <g
     id="akregator">
    <path
       id="path12"
       d="M 26 4 L 26 8 A 20 20 0 0 1 46 28 L 50 28 A 24 24 0 0 0 26 4 z M 26 12 L 26 16 A 12 12 0 0 1 38 28 L 42 28 A 16 16 0 0 0 26 12 z M 29.5 21 A 3.5 3.5 0 0 0 26 24.5 A 3.5 3.5 0 0 0 29.5 28 A 3.5 3.5 0 0 0 33 24.5 A 3.5 3.5 0 0 0 29.5 21 z "
       style="fill:currentColor;fill-opacity:1;stroke:none"
       class="ColorScheme-Text" />
    <path
       id="path14"
       style="opacity:1;fill:none"
       d="M 22 0 L 22 32 L 54 32 L 54 0 L 22 0 z " />
  </g>
</svg>
