<?xml version="1.0" encoding="UTF-8" standalone="no"?>
<svg
   xmlns:dc="http://purl.org/dc/elements/1.1/"
   xmlns:cc="http://creativecommons.org/ns#"
   xmlns:rdf="http://www.w3.org/1999/02/22-rdf-syntax-ns#"
   xmlns:svg="http://www.w3.org/2000/svg"
   xmlns="http://www.w3.org/2000/svg"
   xmlns:sodipodi="http://sodipodi.sourceforge.net/DTD/sodipodi-0.dtd"
   xmlns:inkscape="http://www.inkscape.org/namespaces/inkscape"
   version="1.1"
   id="svg2"
   viewBox="0 0 54 32"
   inkscape:version="0.91 r13725"
   sodipodi:docname="amarok.svgz">
  <sodipodi:namedview
     pagecolor="#ffffff"
     bordercolor="#666666"
     borderopacity="1"
     objecttolerance="10"
     gridtolerance="10"
     guidetolerance="10"
     inkscape:pageopacity="0"
     inkscape:pageshadow="2"
     inkscape:window-width="1874"
     inkscape:window-height="918"
     id="namedview12"
     showgrid="false"
     inkscape:zoom="7.375"
     inkscape:cx="3.2033898"
     inkscape:cy="16"
     inkscape:window-x="0"
     inkscape:window-y="0"
     inkscape:window-maximized="0"
     inkscape:current-layer="svg2" />
  <metadata
     id="metadata18">
    <rdf:RDF>
      <cc:Work
         rdf:about="">
        <dc:format>image/svg+xml</dc:format>
        <dc:type
           rdf:resource="http://purl.org/dc/dcmitype/StillImage" />
        <dc:title />
      </cc:Work>
    </rdf:RDF>
  </metadata>
  <defs
     id="defs3051">
    <style
       id="current-color-scheme"
       type="text/css">
      .ColorScheme-Text {
        color:#31363b;
      }
      </style>
  </defs>
  <g
     id="22-22-amarok">
    <path
       id="path7"
       class="ColorScheme-Text"
       d="m 11,13 c -4.418278,0 -8,3.581722 -8,8 0,4.418278 3.581722,8 8,8 4.418278,0 8,-3.581722 8,-8 0,-1.278859 -0.300401,-2.488432 -0.833984,-3.560547 -0.0063,-0.01127 -0.02391,-0.02817 -0.0293,-0.03906 4.7e-4,-2.3e-4 0.0049,-0.002 0.0059,-0.002 0.18504,-0.21856 0.28125,-0.468277 0.28125,-0.710937 0,-0.17523 -0.0682,-0.355708 -0.128906,-0.492188 2.9e-4,2.6e-4 0.0059,0.0039 0.0059,0.0039 0,0 -0.0012,-0.123828 -0.07617,-0.298828 -0.075,-0.175 -0.173828,-0.300782 -0.173828,-0.300782 0,0 -0.2375,0.0375 -0.375,0.0625 -0.1297,0.0236 -0.473192,0.213728 -0.513672,0.236329 C 15.449382,14.221004 13.750717,12.958114 11,13 Z m 0.199219,0.400391 c 2.155353,0.0033 4.202168,0.946089 5.605469,2.582031 -0.771741,0.19072 -1.98692,0.633934 -2.41211,0.740234 -0.49498,0.12374 -0.725831,0.235377 -1.519531,0.160156 -0.90469,-0.0857 -1.310858,-0.09284 -1.548828,-0.08594 -0.35634,-0.0315 -0.53711,-0.109375 -0.53711,-0.109375 l 0.03125,0.351562 c -0.23691,0.180629 -0.713629,0.442695 -1.693359,0.708985 -0.6364,0.0707 -1.166185,-0.124026 -1.484375,0.05273 -0.3182,0.17678 -1.3271936,0.618447 -1.8398438,0.742188 C 5.2881213,18.666708 4.9087594,18.89929 4.5996094,19 c -0.48839,0.1591 0.9675593,2.494141 1.5996094,2.800781 0,0 -0.2175707,0.225906 -0.4003907,0.416016 -0.43969,0.30041 -0.7871095,0.320312 -0.7871093,0.320312 l 0.023437,0.240235 C 4.8254613,22.888749 4.6292983,22.965385 4.4472656,23.029297 4.1538435,22.21819 4.0025365,21.362546 4,20.5 4.0039433,19.125219 4.3856864,17.77797 5.1035156,16.605469 6.484172,14.59908 8.7636867,13.400526 11.199219,13.400391 Z m 6.65039,4.166015 c 0.491759,1.0074 0.748213,2.113362 0.75,3.234375 -0.0015,2.484939 -1.250164,4.803217 -3.324218,6.171875 -0.643998,0.37594 -1.34046,0.653735 -2.066407,0.824219 0.03056,-0.234525 0.06104,-0.474588 0.08399,-0.712891 0.17366,-0.25517 0.40625,-0.259765 0.40625,-0.259765 0,0 -0.299225,-0.849607 -0.269531,-1.873047 0.0372,-0.24274 0.09976,-0.471923 0.179687,-0.689453 l 0.302734,0 c 0,0 -0.0378,-0.417407 0.132813,-0.841797 0.56207,-0.85425 1.32894,-1.424461 1.65625,-1.675781 0.30878,-0.2371 1.732673,-0.601175 2.033203,-0.671875 0.30052,-0.0707 0.583883,-0.548029 0.601563,-0.689454 0.0177,-0.14142 -0.08984,-0.40625 -0.08984,-0.40625 l -0.425782,-0.0957 c 0.105842,0.075 0.04519,0.150251 -0.132812,0.181641 -0.057,0.0101 -0.136049,0.01482 -0.224609,0.01563 0,0 -0.09271,-0.363551 -0.19336,-0.394531 -0.0861,-0.0265 -0.312355,0.257884 -0.308593,0.355468 -0.0963,-0.0163 -0.187929,-0.03765 -0.261719,-0.06445 C 16.424201,19.8746 16.125,19.8125 16.125,19.8125 c 0,0 0.299609,-0.675391 0.724609,-1.337891 0.27092,-0.42232 0.70796,-0.730253 1,-0.908203 z m -5.484375,0.15625 c 0.48595,-0.004 0.847657,0.140625 0.847657,0.140625 0,0 0.04719,0.455305 -1.31836,1.271485 -0.41865,0.25021 -1.519531,0.416015 -1.519531,0.416015 0,0 -0.0236,-0.575308 0.394531,-1.074219 0.49929,-0.5958 1.109763,-0.749446 1.595703,-0.753906 z M 6.09375,18.990234 c 0.0451,-0.001 0.080439,0.0028 0.1054688,0.0098 0.1999998,0.0625 0.6374806,0.857776 0.4003906,1.199219 L 7,20.599609 c 0.8,-0.799996 1.9937687,-0.242768 2.1992188,0.300782 0.2847291,0.75329 0.2255118,0.663707 -0.9550782,0.835937 -0.5003,0.073 -1.5209181,-0.108339 -1.9238281,-0.417969 C 5.9174025,21.008729 4.88125,19.36875 4.96875,19.28125 c 0.0766,-0.0766 0.80919,-0.282506 1.125,-0.291016 z m 11.507812,0.59961 c -0.0675,0.0241 -0.128906,0.308593 -0.128906,0.308593 0,0 0.0522,0.02798 0.322266,-0.0078 0.0727,-0.0181 -0.125839,-0.324859 -0.19336,-0.300781 z"
       style="fill:currentColor;fill-opacity:1;stroke:none" />
    <path
       id="path9"
       d="M 0 10 L 0 32 L 22 32 L 22 10 L 0 10 z "
       style="opacity:1;fill:none" />
  </g>
  <g
     id="amarok">
    <path
       id="path12"
       class="ColorScheme-Text"
       d="m 38,4.0015187 c -6.627417,0 -12,5.371263 -12,11.9983393 C 26,22.626935 31.372583,28 38,28 c 6.627417,0 12,-5.373065 12,-12.000142 0,-1.91819 -0.450828,-3.732117 -1.251202,-5.340208 -0.0095,-0.0169 -0.03518,-0.04135 -0.04326,-0.05769 7.05e-4,-3.46e-4 0.0076,-0.0036 0.009,-0.0036 0.27756,-0.327823 0.421875,-0.7015459 0.421875,-1.0655172 0,-0.2628315 -0.103652,-0.5344819 -0.194711,-0.7391914 4.35e-4,3.9e-4 0.009,0.00541 0.009,0.00541 0,0 -0.0012,-0.1846343 -0.113582,-0.4471207 -0.1125,-0.2624865 -0.261418,-0.4507265 -0.261418,-0.4507265 0,0 -0.35625,0.056253 -0.5625,0.093751 C 47.81867,8.030354 47.30411,8.3144267 47.24339,8.348325 44.674273,5.8323072 42.126075,3.9386923 38,4.0015187 Z m 0.299279,0.6003678 c 3.233029,0.0049 6.303703,1.4188549 8.408654,3.8726419 -1.157611,0.2860654 -2.980604,0.9511482 -3.61839,1.11059 C 42.347074,9.7707189 41.999445,9.9377292 40.808894,9.824905 39.45186,9.6963616 38.843734,9.6865492 38.486779,9.6968987 37.952269,9.6496513 37.68089,9.5328342 37.68089,9.5328342 l 0.04687,0.5264488 c -0.35536,0.270929 -1.070666,0.6643 -2.540261,1.063714 -0.9546,0.106045 -1.749278,-0.185798 -2.226562,0.07933 -0.4773,0.265156 -1.991241,0.926791 -2.760217,1.112394 -0.76899,0.185599 -1.337357,0.535848 -1.801082,0.686906 -0.732585,0.238638 1.451564,3.740834 2.39964,4.20077 0,0 -0.326131,0.338655 -0.600361,0.623806 -0.659535,0.450592 -1.180889,0.479573 -1.180889,0.479573 l 0.03425,0.360581 c -0.314537,0.167099 -0.608561,0.282747 -0.881611,0.378611 -0.440134,-1.216598 -0.666868,-2.501364 -0.670673,-3.795117 0.0059,-2.062066 0.578304,-4.082755 1.655048,-5.8414158 2.070985,-3.0094277 5.490935,-4.8063437 9.144231,-4.8065472 z m 9.97536,6.2488715 c 0.737638,1.511022 1.122319,3.170183 1.125,4.85162 -0.0022,3.727217 -1.875697,7.203239 -4.986778,9.25612 -0.965996,0.563881 -2.010238,0.981079 -3.099159,1.236793 0.04584,-0.351769 0.09178,-0.711688 0.126201,-1.069123 0.26049,-0.382735 0.609376,-0.389428 0.609376,-0.389428 0,0 -0.448383,-1.273846 -0.403846,-2.808927 0.0558,-0.364091 0.148739,-0.708589 0.268629,-1.034869 l 0.454328,0 c 0,0 -0.0576,-0.625481 0.198317,-1.262033 0.843105,-1.28131 1.99341,-2.13629 2.484375,-2.513252 0.463169,-0.355631 2.599685,-0.901779 3.05048,-1.007823 0.45078,-0.106046 0.876726,-0.822748 0.903246,-1.034869 0.02655,-0.212119 -0.135216,-0.609382 -0.135216,-0.609382 L 48.23137,14.321353 c 0.158763,0.112494 0.06688,0.225156 -0.20012,0.272239 -0.0855,0.01515 -0.2043,0.02224 -0.33714,0.02344 0,0 -0.139288,-0.544886 -0.290264,-0.591353 -0.129149,-0.03975 -0.46718,0.387284 -0.461538,0.53366 -0.144451,-0.02445 -0.282344,-0.05716 -0.393029,-0.09736 -0.412527,-0.150006 -0.861779,-0.243392 -0.861779,-0.243392 0,0 0.449639,-1.012935 1.087139,-2.006635 0.40638,-0.633447 1.06194,-1.094282 1.5,-1.361194 z m -8.226562,0.234378 c 0.728925,-0.006 1.271033,0.21094 1.271033,0.21094 0,0 0.07056,0.683268 -1.977764,1.907475 -0.627975,0.375296 -2.278846,0.623805 -2.278846,0.623805 0,0 -0.03585,-0.863471 0.591346,-1.611797 0.748935,-0.893655 1.665321,-1.123733 2.394231,-1.130423 z m -9.407452,1.900263 c 0.06765,-0.0015 0.12111,0.0057 0.158654,0.01623 0.3,0.09375 0.955995,1.285363 0.60036,1.797498 L 32,15.39949 c 1.2,-1.199937 2.991103,-0.362753 3.299279,0.45253 0.427095,1.129876 0.337591,0.994688 -1.433294,1.25302 -0.750449,0.109494 -2.28025,-0.162991 -2.884615,-0.627412 -0.604365,-0.464421 -2.159495,-2.922879 -2.028245,-3.054123 0.1149,-0.114894 1.213785,-0.425341 1.6875,-0.438106 z m 17.260817,0.89965 c -0.10125,0.03615 -0.192908,0.463348 -0.192908,0.463348 0,0 0.07807,0.04107 0.483173,-0.01262 0.109051,-0.02715 -0.188982,-0.486841 -0.290265,-0.450727 z"
       style="fill:currentColor;fill-opacity:1;stroke:none" />
    <path
       id="path14"
       d="M 22 0 L 22 32 L 54 32 L 54 0 L 22 0 z "
       style="opacity:1;fill:none" />
  </g>
</svg>
