<?xml version="1.0" encoding="UTF-8" standalone="no"?>
<svg
   xmlns:dc="http://purl.org/dc/elements/1.1/"
   xmlns:cc="http://creativecommons.org/ns#"
   xmlns:rdf="http://www.w3.org/1999/02/22-rdf-syntax-ns#"
   xmlns:svg="http://www.w3.org/2000/svg"
   xmlns="http://www.w3.org/2000/svg"
   xmlns:sodipodi="http://sodipodi.sourceforge.net/DTD/sodipodi-0.dtd"
   xmlns:inkscape="http://www.inkscape.org/namespaces/inkscape"
   version="1.1"
   id="svg2"
   viewBox="0 0 54 32"
   inkscape:version="0.91 r13725"
   sodipodi:docname="apport.svgz">
  <sodipodi:namedview
     pagecolor="#ffffff"
     bordercolor="#666666"
     borderopacity="1"
     objecttolerance="10"
     gridtolerance="10"
     guidetolerance="10"
     inkscape:pageopacity="0"
     inkscape:pageshadow="2"
     inkscape:window-width="1656"
     inkscape:window-height="873"
     id="namedview12"
     showgrid="false"
     inkscape:zoom="7.375"
     inkscape:cx="27"
     inkscape:cy="16"
     inkscape:window-x="0"
     inkscape:window-y="0"
     inkscape:window-maximized="0"
     inkscape:current-layer="svg2" />
  <metadata
     id="metadata18">
    <rdf:RDF>
      <cc:Work
         rdf:about="">
        <dc:format>image/svg+xml</dc:format>
        <dc:type
           rdf:resource="http://purl.org/dc/dcmitype/StillImage" />
        <dc:title />
      </cc:Work>
    </rdf:RDF>
  </metadata>
  <defs
     id="defs3051">
    <style
       id="current-color-scheme"
       type="text/css">
      .ColorScheme-Text {
        color:#31363b;
      }
      </style>
  </defs>
  <g
     id="22-22-apport">
    <path
       id="path7"
       class="ColorScheme-Text"
       d="M 3 13 L 3 29 L 4 29 L 19 29 L 19 28 L 19 13 L 18 13 L 4 13 L 3 13 z M 4 14 L 18 14 L 18 28 L 4 28 L 4 14 z M 5 15 L 5 16 L 6 16 L 6 15 L 5 15 z M 6 16 L 6 18 L 8 18 L 8 16 L 6 16 z M 8 16 L 9 16 L 9 15 L 8 15 L 8 16 z M 8 18 L 8 19 L 9 19 L 9 18 L 8 18 z M 6 18 L 5 18 L 5 19 L 6 19 L 6 18 z M 13 15 L 13 16 L 14 16 L 14 15 L 13 15 z M 14 16 L 14 18 L 16 18 L 16 16 L 14 16 z M 16 16 L 17 16 L 17 15 L 16 15 L 16 16 z M 16 18 L 16 19 L 17 19 L 17 18 L 16 18 z M 14 18 L 13 18 L 13 19 L 14 19 L 14 18 z M 9 21 L 9 23 L 13 23 L 13 21 L 9 21 z M 13 23 L 13 25 L 15 25 L 15 23 L 13 23 z M 15 25 L 15 27 L 17 27 L 17 25 L 15 25 z M 9 23 L 7 23 L 7 25 L 9 25 L 9 23 z M 7 25 L 5 25 L 5 27 L 7 27 L 7 25 z "
       style="fill:currentColor;fill-opacity:1;stroke:none" />
    <path
       id="path9"
       d="M 0 10 L 0 32 L 22 32 L 22 10 L 0 10 z "
       style="opacity:1;fill:none" />
  </g>
  <g
     id="apport">
    <path
       id="path12"
       class="ColorScheme-Text"
       d="M 26 4 L 26 28 L 50 28 L 50 4 L 26 4 z M 27 5 L 49 5 L 49 27 L 27 27 L 27 5 z M 29 7 L 29 9 L 31 9 L 31 7 L 29 7 z M 31 9 L 31 12 L 34 12 L 34 9 L 31 9 z M 34 9 L 36 9 L 36 7 L 34 7 L 34 9 z M 34 12 L 34 14 L 36 14 L 36 12 L 34 12 z M 31 12 L 29 12 L 29 14 L 31 14 L 31 12 z M 40 7 L 40 9 L 42 9 L 42 7 L 40 7 z M 42 9 L 42 12 L 45 12 L 45 9 L 42 9 z M 45 9 L 47 9 L 47 7 L 45 7 L 45 9 z M 45 12 L 45 14 L 47 14 L 47 12 L 45 12 z M 42 12 L 40 12 L 40 14 L 42 14 L 42 12 z M 34 17 L 34 19 L 42 19 L 42 17 L 34 17 z M 42 19 L 42 21 L 44 21 L 44 19 L 42 19 z M 44 21 L 44 23 L 46 23 L 46 21 L 44 21 z M 34 19 L 32 19 L 32 21 L 34 21 L 34 19 z M 32 21 L 30 21 L 30 23 L 32 23 L 32 21 z "
       style="fill:currentColor;fill-opacity:1;stroke:none" />
    <path
       id="path14"
       d="M 22 0 L 22 32 L 54 32 L 54 0 L 22 0 z "
       style="opacity:1;fill:none" />
  </g>
</svg>
