<svg id="svg36" viewBox="0 0 22 22" xmlns="http://www.w3.org/2000/svg">
    <style id="current-color-scheme" type="text/css">
        .ColorScheme-Text {
            color:#232629;
        }
        .ColorScheme-NegativeText {
            color:#da4453;
        }
        .ColorScheme-NeutralText {
            color:#f67400;
        }
    </style>
    <g id="audio-volume-muted">
        <path id="path30" d="m110 0h22v22h-22z" fill="none"/>
        <g id="g954" transform="translate(110)">
            <g class="ColorScheme-Text" fill="currentColor">
                <path d="m3 8v6h2v-6z"/>
                <path d="m6 8v6l5 5h1v-5z"/>
                <path d="m11 3-3 3 4 4v-7z"/>
                <g opacity=".35">
                    <path d="m14.832031 16.832031a7 7 0 0 1 -1.21289.646485l.24414.974609a8 8 0 0 0 1.681641-.908203z"/>
                    <path d="m14.324219 7.28125-.539063.8613281a4 4 0 0 1 1.214844 2.8574219 4 4 0 0 1 -.371094 1.628906l.75.75a5 5 0 0 0 .621094-2.378906 5 5 0 0 0 -1.675781-3.71875z"/>
                    <path d="m13.865234 3.5371094-.24414.9765625a7 7 0 0 1 4.378906 6.4863281 7 7 0 0 1 -1.166016 3.833984l.716797.716797a8 8 0 0 0 1.449219-4.550781 8 8 0 0 0 -5.134766-7.4628906z"/>
                </g>
            </g>
            <path d="m-.50000006 4.7426407 1-.0000001v21.6274174h-1z" class="ColorScheme-NegativeText" fill="currentColor" transform="matrix(.70710678 -.70710678 .70710678 .70710678 0 0)"/>
        </g>
    </g>
    <g id="audio-volume-low">
        <path id="path2" d="m44 0h22v22h-22z" fill="none"/>
        <g id="g11" class="ColorScheme-Text" fill="currentColor" transform="translate(44)">
            <path d="m13.865234 3.5371094-.24414.9765625a7 7 0 0 1 4.378906 6.4863281 7 7 0 0 1 -4.380859 6.478516l.24414.974609a8 8 0 0 0 5.136719-7.453125 8 8 0 0 0 -5.134766-7.4628906zm.458985 3.7441406-.539063.8613281a4 4 0 0 1 1.214844 2.8574219 4 4 0 0 1 -1.210938 2.861328l.539063.863281a5 5 0 0 0 1.671875-3.724609 5 5 0 0 0 -1.675781-3.71875z" fill-opacity=".35"/>
            <path d="m3 8h2v6h-2z" fill-rule="evenodd"/>
            <path d="m6 14 5 5h1v-16h-1l-5 5z"/>
        </g>
    </g>
    <g id="audio-volume-medium">
        <path id="path12" d="m22 0h22v22h-22z" fill="none"/>
        <g id="g18" class="ColorScheme-Text" fill="currentColor" transform="translate(22)">
            <path d="m14.324219 7.28125-.539063.8613281a4 4 0 0 1 1.214844 2.8574219 4 4 0 0 1 -1.210938 2.861328l.539063.863281a5 5 0 0 0 1.671875-3.724609 5 5 0 0 0 -1.675781-3.71875z"/>
            <path d="m13.865234 3.5371094-.24414.9765625a7 7 0 0 1 4.378906 6.4863281 7 7 0 0 1 -4.380859 6.478516l.24414.974609a8 8 0 0 0 5.136719-7.453125 8 8 0 0 0 -5.134766-7.4628906z" fill-opacity=".35"/>
            <path d="m3.0000005 8h2v6h-2z" fill-rule="evenodd"/>
            <path d="m6.0000005 14 5.0000005 5h.999999v-16h-1l-4.9999995 5z"/>
        </g>
    </g>
    <g id="audio-volume-high">
        <path id="path22" d="m0 0h22v22h-22z" fill="none"/>
        <g id="g25" class="ColorScheme-Text" fill="currentColor">
            <path d="m14.324219 7.28125-.539063.8613281a4 4 0 0 1 1.214844 2.8574219 4 4 0 0 1 -1.210938 2.861328l.539063.863281a5 5 0 0 0 1.671875-3.724609 5 5 0 0 0 -1.675781-3.71875z"/>
            <path d="m13.865234 3.5371094-.24414.9765625a7 7 0 0 1 4.378906 6.4863281 7 7 0 0 1 -4.380859 6.478516l.24414.974609a8 8 0 0 0 5.136719-7.453125 8 8 0 0 0 -5.134766-7.4628906z"/>
            <path d="m3 8h2v6h-2z" fill-rule="evenodd"/>
            <path d="m6 14 5 5h1v-16h-1l-5 5z"/>
        </g>
    </g>
    <g id="audio-volume-high-warning" transform="translate(66)">
        <path d="0h22v22h-22z" fill="none"/>
        <g class="ColorScheme-NeutralText" fill="currentColor">
            <path d="m14.324219 7.28125-.539063.8613281a4 4 0 0 1 1.214844 2.8574219 4 4 0 0 1 -1.210938 2.861328l.539063.863281a5 5 0 0 0 1.671875-3.724609 5 5 0 0 0 -1.675781-3.71875z"/>
            <path d="m13.865234 3.5371094-.24414.9765625a7 7 0 0 1 4.378906 6.4863281 7 7 0 0 1 -4.380859 6.478516l.24414.974609a8 8 0 0 0 5.136719-7.453125 8 8 0 0 0 -5.134766-7.4628906z"/>
        </g>
        <g class="ColorScheme-Text" fill="currentColor">
            <path d="m3 8h2v6h-2z" fill-rule="evenodd"/>
            <path d="m6 14 5 5h1v-16h-1l-5 5z"/>
        </g>
    </g>
    <g id="audio-volume-high-danger" transform="translate(88)">
        <path d="0h22v22h-22z" fill="none"/>
        <g class="ColorScheme-NegativeText" fill="currentColor">
            <path d="m14.324219 7.28125-.539063.8613281a4 4 0 0 1 1.214844 2.8574219 4 4 0 0 1 -1.210938 2.861328l.539063.863281a5 5 0 0 0 1.671875-3.724609 5 5 0 0 0 -1.675781-3.71875z"/>
            <path d="m13.865234 3.5371094-.24414.9765625a7 7 0 0 1 4.378906 6.4863281 7 7 0 0 1 -4.380859 6.478516l.24414.974609a8 8 0 0 0 5.136719-7.453125 8 8 0 0 0 -5.134766-7.4628906z"/>
        </g>
        <g class="ColorScheme-Text" fill="currentColor">
            <path d="m3 8h2v6h-2z" fill-rule="evenodd"/>
            <path d="m6 14 5 5h1v-16h-1l-5 5z"/>
        </g>
    </g>
    <g id="16-16-audio-volume-muted" transform="translate(80, 22)">
        <path id="rect858-7" d="h16v16h-16z" fill="none"/>
        <g class="ColorScheme-Text" fill="currentColor">
            <path d="m4 6.01563v3.98437l4 4h1v-2.984375z"/>
            <path d="m2 6v4h1v-4z"/>
            <path d="m8 2-1.990234 1.990234 2.990234 2.982422v-4.972656z"/>
        </g>
        <path d="m2 2.707107.707107-.707107 11.292893 11.267023-.707109.732975z" class="ColorScheme-NegativeText" fill="currentColor"/>
        <g class="ColorScheme-Text" fill="currentColor">
            <path d="m10.271484 12.392578a5 5 0 0 1 -.492187.279297l.166015.998047a6 6 0 0 0 1.050782-.552734z" opacity=".35"/>
            <path d="m10.128906 4.615234-.330078.988282a3 3 0 0 1 1.201172 2.396484 3 3 0 0 1 -.167969.710938l.822266.822265a4 4 0 0 0 .345703-1.533203 4 4 0 0 0 -1.871094-3.384766z" opacity=".35"/>
            <path d="m9.945312 2.332031-.167968 1a5 5 0 0 1 3.222656 4.667969 5 5 0 0 1 -.607422 2.271484l.730469.730469a6 6 0 0 0 .876953-3.001953 6 6 0 0 0 -4.054688-5.667969z" opacity=".35"/>
        </g>
    </g>
    <g id="16-16-audio-volume-high-danger" transform="translate(64, 22)">
        <path id="rect858-7" d="h16v16h-16z" fill="none"/>
        <g class="ColorScheme-Text" fill="currentColor">
            <path d="m8 2-4 4v4l4 4h1v-12z"/>
            <path d="m2 6v4h1v-4z"/>
        </g>
        <g class="ColorScheme-NegativeText" fill="currentColor">
            <path d="m10.128906 4.615234-.3300779.988282a3 3 0 0 1 1.2011719 2.396484 3 3 0 0 1 -1.2011719 2.396484l.3281249.984375a4 4 0 0 0 1.873047-3.380859 4 4 0 0 0 -1.871094-3.384766z"/>
            <path d="m9.9453125 2.332031-.1679687 1a5 5 0 0 1 3.2226562 4.667969 5 5 0 0 1 -3.2207031 4.671875l.1660156.998047a6 6 0 0 0 4.0546875-5.669922 6 6 0 0 0 -4.0546875-5.667969z"/>
        </g>
    </g>
    <g id="16-16-audio-volume-high-warning" transform="translate(48, 22)">
        <path id="rect858-7" d="h16v16h-16z" fill="none"/>
        <g class="ColorScheme-Text" fill="currentColor">
            <path d="m8 2-4 4v4l4 4h1v-12z"/>
            <path d="m2 6v4h1v-4z"/>
        </g>
        <g class="ColorScheme-NeutralText" fill="currentColor">
            <path d="m10.128906 4.615234-.3300779.988282a3 3 0 0 1 1.2011719 2.396484 3 3 0 0 1 -1.2011719 2.396484l.3281249.984375a4 4 0 0 0 1.873047-3.380859 4 4 0 0 0 -1.871094-3.384766z"/>
            <path d="m9.9453125 2.332031-.1679687 1a5 5 0 0 1 3.2226562 4.667969 5 5 0 0 1 -3.2207031 4.671875l.1660156.998047a6 6 0 0 0 4.0546875-5.669922 6 6 0 0 0 -4.0546875-5.667969z"/>
        </g>
    </g>
    <g id="16-16-audio-volume-high" transform="translate(32, 22)">
        <path id="rect858-7" d="h16v16h-16z" fill="none"/>
        <g class="ColorScheme-Text" fill="currentColor">
            <path d="m8 2-4 4v4l4 4h1v-12z"/>
            <path d="m2 6v4h1v-4z"/>
            <path d="m10.128906 4.615234-.3300779.988282a3 3 0 0 1 1.2011719 2.396484 3 3 0 0 1 -1.2011719 2.396484l.3281249.984375a4 4 0 0 0 1.873047-3.380859 4 4 0 0 0 -1.871094-3.384766z"/>
            <path d="m9.9453125 2.332031-.1679687 1a5 5 0 0 1 3.2226562 4.667969 5 5 0 0 1 -3.2207031 4.671875l.1660156.998047a6 6 0 0 0 4.0546875-5.669922 6 6 0 0 0 -4.0546875-5.667969z"/>
        </g>
    </g>
    <g id="16-16-audio-volume-medium" transform="translate(16, 22)">
        <path id="rect858-7" d="h16v16h-16z" fill="none"/>
        <g class="ColorScheme-Text" fill="currentColor">
            <path d="m8 2-4 4v4l4 4h1v-12z"/>
            <path d="m2 6v4h1v-4z"/>
            <path d="m10.128906 4.615234-.3300779.988282a3 3 0 0 1 1.2011719 2.396484 3 3 0 0 1 -1.2011719 2.396484l.3281249.984375a4 4 0 0 0 1.873047-3.380859 4 4 0 0 0 -1.871094-3.384766z"/>
            <path d="m9.9453125 2.332031-.1679687 1a5 5 0 0 1 3.2226562 4.667969 5 5 0 0 1 -3.2207031 4.671875l.1660156.998047a6 6 0 0 0 4.0546875-5.669922 6 6 0 0 0 -4.0546875-5.667969z" opacity=".35"/>
        </g>
    </g>
    <g id="16-16-audio-volume-low" transform="translate(0, 22)">
        <path id="rect858-7" d="h16v16h-16z" fill="none"/>
        <g class="ColorScheme-Text" fill="currentColor">
            <path d="m8 2-4 4v4l4 4h1v-12z"/>
            <path d="m2 6v4h1v-4z"/>
            <path d="m10.128906 4.615234-.3300779.988282a3 3 0 0 1 1.2011719 2.396484 3 3 0 0 1 -1.2011719 2.396484l.3281249.984375a4 4 0 0 0 1.873047-3.380859 4 4 0 0 0 -1.871094-3.384766z" opacity=".35"/>
            <path d="m9.9453125 2.332031-.1679687 1a5 5 0 0 1 3.2226562 4.667969 5 5 0 0 1 -3.2207031 4.671875l.1660156.998047a6 6 0 0 0 4.0546875-5.669922 6 6 0 0 0 -4.0546875-5.667969z" opacity=".35"/>
        </g>
    </g>
</svg>
