<svg id="svg36" viewBox="0 0 22 22" xmlns="http://www.w3.org/2000/svg">
    <style
        type="text/css"
        id="current-color-scheme">
        .ColorScheme-Text {
            color:#232629;
        }
        .ColorScheme-NegativeText {
            color:#da4453;
        }
    </style>
    <g id="22-22-audio-volume-muted">
        <path id="path30" d="m66 0h22v22h-22z" fill="none"/>
        <path id="path32" d="m77 3-5 5v6l5 5h1v-16zm-8 5v6h2v-6z" class="ColorScheme-Text" fill="currentColor"/>
        <path id="path34" d="m83 7a4 4 0 0 0-4 4 4 4 0 0 0 4 4 4 4 0 0 0 4-4 4 4 0 0 0-4-4zm0 1a3 3 0 0 1 3 3 3 3 0 0 1-0.557 1.736l-4.177-4.176a3 3 0 0 1 1.734-0.56zm-2.443 1.264 4.177 4.177a3 3 0 0 1-1.734 0.559 3 3 0 0 1-3-3 3 3 0 0 1 0.557-1.736z" class="ColorScheme-NegativeText" fill="currentColor"/>
    </g>
    <g id="22-22-audio-volume-low">
        <path id="path2" d="m44 0h22v22h-22z" fill="none"/>
        <g id="g11" class="ColorScheme-Text" fill="currentColor">
            <path id="path6" d="m57.865 3.537-.244.977a7 7 0 0 1 4.379 6.486 7 7 0 0 1 -4.38 6.479l.243.974a8 8 0 0 0 5.137-7.453 8 8 0 0 0 -5.135-7.463z" opacity=".25"/>
            <path id="path4" d="m58.324 7.281-.539.862a4 4 0 0 1 1.215 2.857 4 4 0 0 1 -1.21 2.861l.538.864a5 5 0 0 0 1.672-3.725 5 5 0 0 0 -1.676-3.719z" opacity=".25"/>
            <path id="path8" d="m55 3-5 5v6l5 5h1v-16zm-8 5v6h2v-6z"/>
        </g>
    </g>
    <g id="22-22-audio-volume-medium">
        <path id="path12" d="m22 0h22v22h-22z" fill="none"/>
        <g id="g18" class="ColorScheme-Text" fill="currentColor">
            <path id="path16" d="m35.865 3.537-.244.977a7 7 0 0 1 4.379 6.486 7 7 0 0 1 -4.38 6.479l.243.974a8 8 0 0 0 5.137-7.453 8 8 0 0 0 -5.135-7.463z" opacity=".25"/>
            <path id="path14" d="m36.324 7.281-.539.862a4 4 0 0 1 1.215 2.857 4 4 0 0 1 -1.21 2.861l.538.864a5 5 0 0 0 1.672-3.725 5 5 0 0 0 -1.676-3.719z"/>
            <path id="path18" d="m33 3-5 5v6l5 5h1v-16zm-8 5v6h2v-6z"/>
        </g>
    </g>
    <g id="22-22-audio-volume-high">
        <path id="path22" d="m0 0h22v22h-22z" fill="none"/>
        <g id="g25" class="ColorScheme-Text" fill="currentColor">
            <path id="path854" d="m13.865 3.537-.244.977a7 7 0 0 1 4.379 6.486 7 7 0 0 1 -4.38 6.479l.243.974a8 8 0 0 0 5.137-7.453 8 8 0 0 0 -5.135-7.463z"/>
            <path id="path24" d="m14.324 7.281-.539.862a4 4 0 0 1 1.215 2.857 4 4 0 0 1 -1.21 2.861l.538.864a5 5 0 0 0 1.672-3.725 5 5 0 0 0 -1.676-3.719z"/>
            <path id="path852" d="m11 3-5 5v6l5 5h1v-16zm-8 5v6h2v-6z"/>
        </g>
    </g>
    <g id="audio-volume-muted" transform="matrix(1.4545455 0 0 1.4545455 0 -32)">
        <path id="path30-6" d="m66 0h22v22h-22z" fill="none"/>
        <path id="path852-8-9-1" d="m76.999998 2.7499997-5.5 5.5v5.5000013l5.5 5.499999h1.375v-16.5zm-8.25 5.5v5.5000013h2.0625v-5.5000013z" class="ColorScheme-Text" fill="currentColor"/>
        <path id="path1152" d="m83.187496 6.8749999c-2.278173 0-4.124999 1.846831-4.124999 4.1250001 0 2.278169 1.846826 4.125 4.124999 4.125 2.278174 0 4.125-1.846831 4.125-4.125 0-2.2781691-1.846826-4.1250001-4.125-4.1250001zm0 .6875c1.898479 0 3.4375 1.539021 3.4375 3.4375001 0 .824749-.310724 1.556077-.794922 2.148438l-4.791015-4.7910161c.592361-.484197 1.323688-.794922 2.148437-.794922zm-2.642578 1.289063 4.791016 4.7910151c-.592361.484197-1.323689.794922-2.148438.794922-1.898478 0-3.4375-1.539021-3.4375-3.4375 0-.824749.310725-1.5560761.794922-2.1484371z" class="ColorScheme-NegativeText" fill="currentColor"/>
    </g>
    <g id="audio-volume-low" transform="matrix(1.4545455 0 0 1.4545455 0 -32)">
        <path id="path2-5" d="m44 0h22v22h-22z" fill="none"/>
        <path id="path852-8-9" d="m54.999998 2.7499997-5.499999 5.5v5.5000013l5.499999 5.499998h1.375001v-16.499999zm-8.249999 5.5v5.5000013h2.0625v-5.5000013z" class="ColorScheme-Text" fill="currentColor"/>
        <path id="path926-73" d="m58.265624 3.4348147-.167847.674072a7.5624998 7.5624998 0 0 1 4.464722 6.8911133 7.5624998 7.5624998 0 0 1 -4.464722 6.888427l.170532.683472a8.2499997 8.2499997 0 0 0 4.981689-7.571899 8.2499997 8.2499997 0 0 0 -4.984374-7.5651853z" class="ColorScheme-Text" fill="currentColor" opacity=".25"/>
        <path id="path926-7-6" d="m58.374388 7.5718997-.359863.617675a4.125 4.125 0 0 1 1.110474 2.8104253 4.125 4.125 0 0 1 -1.111817 2.809082l.359864.617676a4.8125 4.8125 0 0 0 1.439453-3.426758 4.8125 4.8125 0 0 0 -1.438111-3.4281003z" class="ColorScheme-Text" fill="currentColor" opacity=".25"/>
    </g>
    <g id="audio-volume-medium" transform="matrix(1.4545455 0 0 1.4545455 0 -32)">
        <path id="path12-7" d="m22 0h22v22h-22z" fill="none"/>
        <path id="path852-8-2" d="m32.999999 2.7499999-5.5 5.5v5.5000011l5.5 5.499998h1.375001v-16.499999zm-8.25 5.5v5.5000011h2.0625v-5.5000011z" class="ColorScheme-Text" fill="currentColor"/>
        <path id="path926-2" d="m36.265624 3.4348149-.167847.674072a7.5624998 7.5624998 0 0 1 4.464722 6.8911131 7.5624998 7.5624998 0 0 1 -4.464722 6.888427l.170532.683472a8.2499997 8.2499997 0 0 0 4.981689-7.571899 8.2499997 8.2499997 0 0 0 -4.984374-7.5651851z" class="ColorScheme-Text" fill="currentColor" opacity=".25"/>
        <path id="path926-7-8" d="m36.374388 7.5718999-.359863.617675a4.125 4.125 0 0 1 1.110474 2.8104251 4.125 4.125 0 0 1 -1.111817 2.809082l.359864.617676a4.8125 4.8125 0 0 0 1.439453-3.426758 4.8125 4.8125 0 0 0 -1.438111-3.4281001z" class="ColorScheme-Text" fill="currentColor"/>
    </g>
    <g id="audio-volume-high">
        <path id="path22-6" d="m0-32h32.000001v32.000001h-32.000001z" fill="none"/>
        <path id="path852-8" d="m16-28-8 8v8.000001l8 7.9999984h2.000001v-23.999999zm-12 8v8.000001h2.9999999v-8.000001z" class="ColorScheme-Text" fill="currentColor"/>
        <path id="path926" d="m20.75-27.003906-.244141.980468a11 11 0 0 1 6.494141 10.023438 11 11 0 0 1 -6.494141 10.0195312l.248047.9941407a12 12 0 0 0 7.246094-11.0136719 12 12 0 0 0 -7.25-11.003906z" class="ColorScheme-Text" fill="currentColor"/>
        <path id="path926-7" d="m20.908203-20.986328-.523437.898437a6.0000002 6.0000002 0 0 1 1.615234 4.087891 6.0000002 6.0000002 0 0 1 -1.617188 4.085938l.523438.898437a7.0000002 7.0000002 0 0 0 2.09375-4.984375 7.0000002 7.0000002 0 0 0 -2.091797-4.986328z" class="ColorScheme-Text" fill="currentColor"/>
    </g>
    <g id="16-16-audio-volume-muted">
        <path id="rect858-7" d="m48 22h16v16h-16z" fill="none"/>
        <path id="path934" d="m56 24-4 4v4l4 4h1v-12zm-6 4v4h1v-4z" class="ColorScheme-Text" fill="currentColor"/>
        <path id="path936" d="m 61,26.999978 a 3.0000002,3.0000002 0 0 0 -1.736328,0.55664 l -0.0019,-0.0019 -0.01176,0.01172 A 3.0000002,3.0000002 0 0 0 58.5723,28.244171 l -0.01758,0.01758 0.0038,0.0039 A 3.0000002,3.0000002 0 0 0 58,30.000028 a 3.0000002,3.0000002 0 0 0 3,2.999999 3.0000002,3.0000002 0 0 0 1.736328,-0.55664 l 0.0019,0.0019 0.01164,-0.01164 a 3.0000002,3.0000002 0 0 0 0.677914,-0.677758 l 0.01758,-0.01758 -0.0038,-0.0039 a 3.0000002,3.0000002 0 0 0 0.558478,-1.734425 3.0000002,3.0000002 0 0 0 -3,-3 z m 0,1.000001 a 2.0000002,2.0000002 0 0 1 1.999999,1.999999 2.0000002,2.0000002 0 0 1 -0.279295,1.013673 L 59.986329,28.279274 A 2.0000002,2.0000002 0 0 1 61,27.999979 Z m -1.720703,0.986328 2.734374,2.734375 A 2.0000002,2.0000002 0 0 1 61,31.999979 2.0000002,2.0000002 0 0 1 59.000001,29.999978 2.0000002,2.0000002 0 0 1 59.279297,28.986307 Z" class="ColorScheme-NegativeText" fill="currentColor"/>
    </g>
    <g id="16-16-audio-volume-high">
        <path id="rect858" d="m0 22h16v16h-16z" fill="none"/>
        <path id="path1024" d="m8 24-4 4v4l4 4h1v-12z" class="ColorScheme-Text" fill="currentColor"/>
        <path id="path889" d="m2 28v4h1v-4z" class="ColorScheme-Text" fill="currentColor"/>
        <path id="path963" d="m10.128906 26.615234-.3300779.988282a3 3 0 0 1 1.2011719 2.396484 3 3 0 0 1 -1.2011719 2.396484l.3281249.984375a4 4 0 0 0 1.873047-3.380859 4 4 0 0 0 -1.871094-3.384766z" class="ColorScheme-Text" fill="currentColor"/>
        <path id="path963-9" d="m9.9453125 24.332031-.1679687 1a5 5 0 0 1 3.2226562 4.667969 5 5 0 0 1 -3.2207031 4.671875l.1660156.998047a6 6 0 0 0 4.0546875-5.669922 6 6 0 0 0 -4.0546875-5.667969z" class="ColorScheme-Text" fill="currentColor"/>
    </g>
    <g id="16-16-audio-volume-medium">
        <path id="rect858-3" d="m16 22h16v16h-16z" fill="none"/>
        <path id="path1126" d="m24 24-4 4v4l4 4h1v-12z" class="ColorScheme-Text" fill="currentColor"/>
        <path id="path918" d="m18 28v4h1v-4z" class="ColorScheme-Text" fill="currentColor"/>
        <path id="path963-2" d="m26.128906 26.615234-.330078.988282a3 3 0 0 1 1.201172 2.396484 3 3 0 0 1 -1.201172 2.396484l.328125.984375a4 4 0 0 0 1.873047-3.380859 4 4 0 0 0 -1.871094-3.384766z" class="ColorScheme-Text" fill="currentColor"/>
        <path id="path963-9-2" d="m25.945312 24.332031-.167968 1a5 5 0 0 1 3.222656 4.667969 5 5 0 0 1 -3.220703 4.671875l.166015.998047a6 6 0 0 0 4.054688-5.669922 6 6 0 0 0 -4.054688-5.667969z" class="ColorScheme-Text" fill="currentColor" opacity=".25"/>
    </g>
    <g id="16-16-audio-volume-low">
        <path id="rect858-6" d="m32 22h16v16h-16z" fill="none"/>
        <path id="path901" d="m40 24-4 4v4l4 4h1v-12zm-6 4v4h1v-4z" class="ColorScheme-Text" fill="currentColor"/>
        <path id="path963-2-8" d="m42.128906 26.615234-.330078.988282a3 3 0 0 1 1.201172 2.396484 3 3 0 0 1 -1.201172 2.396484l.328125.984375a4 4 0 0 0 1.873047-3.380859 4 4 0 0 0 -1.871094-3.384766z" class="ColorScheme-Text" fill="currentColor" opacity=".25"/>
        <path id="path963-9-2-9" d="m41.945312 24.332031-.167968 1a5 5 0 0 1 3.222656 4.667969 5 5 0 0 1 -3.220703 4.671875l.166015.998047a6 6 0 0 0 4.054688-5.669922 6 6 0 0 0 -4.054688-5.667969z" class="ColorScheme-Text" fill="currentColor" opacity=".25"/>
    </g>
</svg>
