<svg id="svg36" viewBox="0 0 22 22" xmlns="http://www.w3.org/2000/svg">
    <style type="text/css" id="current-color-scheme">
        .ColorScheme-Text {
            color:#232629;
        }
        .ColorScheme-NegativeText {
            color:#da4453;
        }
    </style>
    <g id="22-22-audio-volume-muted">
        <path id="path30" d="m66 0h22v22h-22z" fill="none"/>
        <g id="g930">
            <path id="path3" d="m76.988281 3-3.039062 3.0410156 4.050781 4.0488284v-6.6875002-.4023438zm2.876953.5371094-.24414.9765625a7 7 0 0 1 4.378906 6.4863281 7 7 0 0 1 -1.195312 3.894531l.716796.716797a8 8 0 0 0 1.478516-4.611328 8 8 0 0 0 -5.134766-7.4628906zm.458985 3.7441406-.539063.8613281a4 4 0 0 1 1.214844 2.8574219 4 4 0 0 1 -.388672 1.701172l.740234.742187a5 5 0 0 0 .648438-2.443359 5 5 0 0 0 -1.675781-3.71875zm-8.283203.6679688-.041016.0410156v.0097656 1 4 1 .0098l4.988281 4.9902h1.011719v-.402344-4.6875zm-3.041016.0507812v1 4 1h2v-1-4-1zm11.890625 8.800781a7 7 0 0 1 -1.271484.677735l.24414.974609a8 8 0 0 0 1.740235-.939453z" class="ColorScheme-Text" fill="currentColor"/>
            <path id="path5" d="m69 3.7071068.707107-.7071068 15.292893 15.292894-.707107.707106z" class="ColorScheme-NegativeText" fill="currentColor"/>
        </g>
    </g>
    <g id="22-22-audio-volume-low">
        <path id="path2" d="m44 0h22v22h-22z" fill="none"/>
        <g id="g11" class="ColorScheme-Text" fill="currentColor">
            <path id="path6" d="m57.865 3.537-.244.977a7 7 0 0 1 4.379 6.486 7 7 0 0 1 -4.38 6.479l.243.974a8 8 0 0 0 5.137-7.453 8 8 0 0 0 -5.135-7.463z" opacity=".25"/>
            <path id="path4" d="m58.324 7.281-.539.862a4 4 0 0 1 1.215 2.857 4 4 0 0 1 -1.21 2.861l.538.864a5 5 0 0 0 1.672-3.725 5 5 0 0 0 -1.676-3.719z" opacity=".25"/>
            <path id="path8" d="m55 3-5 5v6l5 5h1v-16zm-8 5v6h2v-6z"/>
        </g>
    </g>
    <g id="22-22-audio-volume-medium">
        <path id="path12" d="m22 0h22v22h-22z" fill="none"/>
        <g id="g18" class="ColorScheme-Text" fill="currentColor">
            <path id="path16" d="m35.865 3.537-.244.977a7 7 0 0 1 4.379 6.486 7 7 0 0 1 -4.38 6.479l.243.974a8 8 0 0 0 5.137-7.453 8 8 0 0 0 -5.135-7.463z" opacity=".25"/>
            <path id="path14" d="m36.324 7.281-.539.862a4 4 0 0 1 1.215 2.857 4 4 0 0 1 -1.21 2.861l.538.864a5 5 0 0 0 1.672-3.725 5 5 0 0 0 -1.676-3.719z"/>
            <path id="path18" d="m33 3-5 5v6l5 5h1v-16zm-8 5v6h2v-6z"/>
        </g>
    </g>
    <g id="22-22-audio-volume-high">
        <path id="path22" d="m0 0h22v22h-22z" fill="none"/>
        <g id="g25" class="ColorScheme-Text" fill="currentColor">
            <path id="path854" d="m13.865 3.537-.244.977a7 7 0 0 1 4.379 6.486 7 7 0 0 1 -4.38 6.479l.243.974a8 8 0 0 0 5.137-7.453 8 8 0 0 0 -5.135-7.463z"/>
            <path id="path24" d="m14.324 7.281-.539.862a4 4 0 0 1 1.215 2.857 4 4 0 0 1 -1.21 2.861l.538.864a5 5 0 0 0 1.672-3.725 5 5 0 0 0 -1.676-3.719z"/>
            <path id="path852" d="m11 3-5 5v6l5 5h1v-16zm-8 5v6h2v-6z"/>
        </g>
    </g>
    <g id="audio-volume-muted" transform="matrix(1.4545455 0 0 1.4545455 0 -32)">
        <path id="path30-6" d="m66 0h22v22h-22z" fill="none"/>
        <path id="path852-8-9-1" d="m76.99999776 2.74999956-3.39587178 3.39587384 4.77087174 4.7708738v-8.16674764zm3.26562491.68481461-.16784625.67407173a7.56249978 7.56249978 0 0 1 4.46472112 6.89111342 7.56249978 7.56249978 0 0 1 -1.56164245 4.54260242l.49279311.49279785a8.24999976 8.24999976 0 0 0 1.75634932-5.03540028 8.24999976 8.24999976 0 0 0 -4.98437486-7.56518515zm.1087625 4.13708475-.35985811.61767542a4.12500002 4.12500002 0 0 1 1.11047059 2.81042498 4.12500002 4.12500002 0 0 1 -.58544748 2.08129894l.49548124.4954833a4.8125 4.8125 0 0 0 .77746623-2.57678224 4.8125 4.8125 0 0 0 -1.43811246-3.4281004zm-8.22851539.03222656-.64587186.64587392v5.49999984l5.49999984 5.49999984h1.37499996v-5.41674772zm-3.39587178.64587392v5.49999984h2.06249994v-5.49999984zm12.8100565 8.76831026a7.56249978 7.56249978 0 0 1 -1.46227808.87011716l.17053437.68347171a8.24999976 8.24999976 0 0 0 1.7764862-1.06884763z" class="ColorScheme-Text" fill="currentColor" stroke-width="1.000003"/>
        <path id="path902" d="m69.09374799 2.60766575-.4860838.4860838 16.29858334 16.29858348.48608311-.48608394z" class="ColorScheme-NegativeText" fill="currentColor" stroke-linecap="square" stroke-width=".6875"/>
    </g>
    <g id="audio-volume-low" transform="matrix(1.4545455 0 0 1.4545455 0 -32)">
        <path id="path2-5" d="m44 0h22v22h-22z" fill="none"/>
        <path id="path852-8-9" d="m54.999998 2.7499997-5.499999 5.5v5.5000013l5.499999 5.499998h1.375001v-16.499999zm-8.249999 5.5v5.5000013h2.0625v-5.5000013z" class="ColorScheme-Text" fill="currentColor"/>
        <path id="path926-73" d="m58.265624 3.4348147-.167847.674072a7.5624998 7.5624998 0 0 1 4.464722 6.8911133 7.5624998 7.5624998 0 0 1 -4.464722 6.888427l.170532.683472a8.2499997 8.2499997 0 0 0 4.981689-7.571899 8.2499997 8.2499997 0 0 0 -4.984374-7.5651853z" class="ColorScheme-Text" fill="currentColor" opacity=".25"/>
        <path id="path926-7-6" d="m58.374388 7.5718997-.359863.617675a4.125 4.125 0 0 1 1.110474 2.8104253 4.125 4.125 0 0 1 -1.111817 2.809082l.359864.617676a4.8125 4.8125 0 0 0 1.439453-3.426758 4.8125 4.8125 0 0 0 -1.438111-3.4281003z" class="ColorScheme-Text" fill="currentColor" opacity=".25"/>
    </g>
    <g id="audio-volume-medium" transform="matrix(1.4545455 0 0 1.4545455 0 -32)">
        <path id="path12-7" d="m22 0h22v22h-22z" fill="none"/>
        <path id="path852-8-2" d="m32.999999 2.7499999-5.5 5.5v5.5000011l5.5 5.499998h1.375001v-16.499999zm-8.25 5.5v5.5000011h2.0625v-5.5000011z" class="ColorScheme-Text" fill="currentColor"/>
        <path id="path926-2" d="m36.265624 3.4348149-.167847.674072a7.5624998 7.5624998 0 0 1 4.464722 6.8911131 7.5624998 7.5624998 0 0 1 -4.464722 6.888427l.170532.683472a8.2499997 8.2499997 0 0 0 4.981689-7.571899 8.2499997 8.2499997 0 0 0 -4.984374-7.5651851z" class="ColorScheme-Text" fill="currentColor" opacity=".25"/>
        <path id="path926-7-8" d="m36.374388 7.5718999-.359863.617675a4.125 4.125 0 0 1 1.110474 2.8104251 4.125 4.125 0 0 1 -1.111817 2.809082l.359864.617676a4.8125 4.8125 0 0 0 1.439453-3.426758 4.8125 4.8125 0 0 0 -1.438111-3.4281001z" class="ColorScheme-Text" fill="currentColor"/>
    </g>
    <g id="audio-volume-high">
        <path id="path22-6" d="m0-32h32.000001v32.000001h-32.000001z" fill="none"/>
        <path id="path852-8" d="m16-28-8 8v8.000001l8 7.9999984h2.000001v-23.999999zm-12 8v8.000001h2.9999999v-8.000001z" class="ColorScheme-Text" fill="currentColor"/>
        <path id="path926" d="m20.75-27.003906-.244141.980468a11 11 0 0 1 6.494141 10.023438 11 11 0 0 1 -6.494141 10.0195312l.248047.9941407a12 12 0 0 0 7.246094-11.0136719 12 12 0 0 0 -7.25-11.003906z" class="ColorScheme-Text" fill="currentColor"/>
        <path id="path926-7" d="m20.908203-20.986328-.523437.898437a6.0000002 6.0000002 0 0 1 1.615234 4.087891 6.0000002 6.0000002 0 0 1 -1.617188 4.085938l.523438.898437a7.0000002 7.0000002 0 0 0 2.09375-4.984375 7.0000002 7.0000002 0 0 0 -2.091797-4.986328z" class="ColorScheme-Text" fill="currentColor"/>
    </g>
    <g id="16-16-audio-volume-muted">
        <path id="rect858-7" d="m48 22h16v16h-16z" fill="none"/>
        <path id="path3-5" d="m56 24-1.990234 1.990234 2.990234 2.982422v-4.972656zm4.064453 1-.757812.480469c1.116583 1.347981 1.710399 2.915898 1.710937 4.517578-.0023.847499-.176046 1.683805-.5 2.484375l.726563.724609c.496057-1.020999.754848-2.107184.755859-3.208984-.003773-1.776427-.676438-3.51341-1.935547-4.998047zm-1.296875 1.460937-.767578.486329c.698954.927128 1.06889 1.981008 1.072266 3.054687-.000673.31415-.04296.625479-.105469.933594l.789062.787109c.189314-.559804.297423-1.136655.298829-1.720703-.0041-1.249204-.449158-2.473744-1.28711-3.541016zm-8.767578 1.539063v4h1v-4zm2 .01563v3.98437l4 4h1v-2.984375z" class="ColorScheme-Text" fill="currentColor"/>
        <path id="path5-3" d="m50 24.707107.707107-.707107 11.292893 11.267023-.707109.732975z" class="ColorScheme-NegativeText" fill="currentColor"/>
    </g>
    <g id="16-16-audio-volume-high">
        <path id="rect858" d="m0 22h16v16h-16z" fill="none"/>
        <path id="path1024" d="m8 24-4 4v4l4 4h1v-12z" class="ColorScheme-Text" fill="currentColor"/>
        <path id="path889" d="m2 28v4h1v-4z" class="ColorScheme-Text" fill="currentColor"/>
        <path id="path963" d="m10.128906 26.615234-.3300779.988282a3 3 0 0 1 1.2011719 2.396484 3 3 0 0 1 -1.2011719 2.396484l.3281249.984375a4 4 0 0 0 1.873047-3.380859 4 4 0 0 0 -1.871094-3.384766z" class="ColorScheme-Text" fill="currentColor"/>
        <path id="path963-9" d="m9.9453125 24.332031-.1679687 1a5 5 0 0 1 3.2226562 4.667969 5 5 0 0 1 -3.2207031 4.671875l.1660156.998047a6 6 0 0 0 4.0546875-5.669922 6 6 0 0 0 -4.0546875-5.667969z" class="ColorScheme-Text" fill="currentColor"/>
    </g>
    <g id="16-16-audio-volume-medium">
        <path id="rect858-3" d="m16 22h16v16h-16z" fill="none"/>
        <path id="path1126" d="m24 24-4 4v4l4 4h1v-12z" class="ColorScheme-Text" fill="currentColor"/>
        <path id="path918" d="m18 28v4h1v-4z" class="ColorScheme-Text" fill="currentColor"/>
        <path id="path963-2" d="m26.128906 26.615234-.330078.988282a3 3 0 0 1 1.201172 2.396484 3 3 0 0 1 -1.201172 2.396484l.328125.984375a4 4 0 0 0 1.873047-3.380859 4 4 0 0 0 -1.871094-3.384766z" class="ColorScheme-Text" fill="currentColor"/>
        <path id="path963-9-2" d="m25.945312 24.332031-.167968 1a5 5 0 0 1 3.222656 4.667969 5 5 0 0 1 -3.220703 4.671875l.166015.998047a6 6 0 0 0 4.054688-5.669922 6 6 0 0 0 -4.054688-5.667969z" class="ColorScheme-Text" fill="currentColor" opacity=".25"/>
    </g>
    <g id="16-16-audio-volume-low">
        <path id="rect858-6" d="m32 22h16v16h-16z" fill="none"/>
        <path id="path901" d="m40 24-4 4v4l4 4h1v-12zm-6 4v4h1v-4z" class="ColorScheme-Text" fill="currentColor"/>
        <path id="path963-2-8" d="m42.128906 26.615234-.330078.988282a3 3 0 0 1 1.201172 2.396484 3 3 0 0 1 -1.201172 2.396484l.328125.984375a4 4 0 0 0 1.873047-3.380859 4 4 0 0 0 -1.871094-3.384766z" class="ColorScheme-Text" fill="currentColor" opacity=".25"/>
        <path id="path963-9-2-9" d="m41.945312 24.332031-.167968 1a5 5 0 0 1 3.222656 4.667969 5 5 0 0 1 -3.220703 4.671875l.166015.998047a6 6 0 0 0 4.054688-5.669922 6 6 0 0 0 -4.054688-5.667969z" class="ColorScheme-Text" fill="currentColor" opacity=".25"/>
    </g>
</svg>
