<svg id="svg36" viewBox="0 0 22 22" xmlns="http://www.w3.org/2000/svg">
    <style id="current-color-scheme" type="text/css">
        .ColorScheme-Text {
            color:#232629;
        }
        .ColorScheme-NegativeText {
            color:#da4453;
        }
    </style>
    <g id="22-22-audio-volume-muted">
        <path id="path30" d="m66 0h22v22h-22z" fill="none"/>
        <g id="g954" transform="translate(66)">
            <g id="g934" class="ColorScheme-Text" fill="currentColor">
                <path id="path920" d="m3 8v6h2v-6z"/>
                <path id="path922" d="m6 8v6l5 5h1v-5z"/>
                <path id="path924" d="m11 3-3 3 4 4v-7z"/>
                <g id="g932" opacity=".35">
                    <path id="path926-75" d="m14.832031 16.832031a7 7 0 0 1 -1.21289.646485l.24414.974609a8 8 0 0 0 1.681641-.908203z"/>
                    <path id="path928" d="m14.324219 7.28125-.539063.8613281a4 4 0 0 1 1.214844 2.8574219 4 4 0 0 1 -.371094 1.628906l.75.75a5 5 0 0 0 .621094-2.378906 5 5 0 0 0 -1.675781-3.71875z"/>
                    <path id="path930" d="m13.865234 3.5371094-.24414.9765625a7 7 0 0 1 4.378906 6.4863281 7 7 0 0 1 -1.166016 3.833984l.716797.716797a8 8 0 0 0 1.449219-4.550781 8 8 0 0 0 -5.134766-7.4628906z"/>
                </g>
            </g>
            <path id="path936" d="m-.50000006 4.7426407 1-.0000001v21.6274174h-1z" class="ColorScheme-NegativeText" fill="currentColor" transform="matrix(.70710678 -.70710678 .70710678 .70710678 0 0)"/>
        </g>
    </g>
    <g id="22-22-audio-volume-low">
        <path id="path2" d="m44 0h22v22h-22z" fill="none"/>
        <g id="g11" class="ColorScheme-Text" fill="currentColor">
            <path id="path6" d="m57.865 3.537-.244.977a7 7 0 0 1 4.379 6.486 7 7 0 0 1 -4.38 6.479l.243.974a8 8 0 0 0 5.137-7.453 8 8 0 0 0 -5.135-7.463z" opacity=".35"/>
            <path id="path4" d="m58.324 7.281-.539.862a4 4 0 0 1 1.215 2.857 4 4 0 0 1 -1.21 2.861l.538.864a5 5 0 0 0 1.672-3.725 5 5 0 0 0 -1.676-3.719z" opacity=".35"/>
            <path id="path8" d="m55 3-5 5v6l5 5h1v-16zm-8 5v6h2v-6z"/>
        </g>
    </g>
    <g id="22-22-audio-volume-medium">
        <path id="path12" d="m22 0h22v22h-22z" fill="none"/>
        <g id="g18" class="ColorScheme-Text" fill="currentColor">
            <path id="path16" d="m35.865 3.537-.244.977a7 7 0 0 1 4.379 6.486 7 7 0 0 1 -4.38 6.479l.243.974a8 8 0 0 0 5.137-7.453 8 8 0 0 0 -5.135-7.463z" opacity=".35"/>
            <path id="path14" d="m36.324 7.281-.539.862a4 4 0 0 1 1.215 2.857 4 4 0 0 1 -1.21 2.861l.538.864a5 5 0 0 0 1.672-3.725 5 5 0 0 0 -1.676-3.719z"/>
            <path id="path18" d="m33 3-5 5v6l5 5h1v-16zm-8 5v6h2v-6z"/>
        </g>
    </g>
    <g id="22-22-audio-volume-high">
        <path id="path22" d="m0 0h22v22h-22z" fill="none"/>
        <g id="g25" class="ColorScheme-Text" fill="currentColor">
            <path id="path854" d="m13.865 3.537-.244.977a7 7 0 0 1 4.379 6.486 7 7 0 0 1 -4.38 6.479l.243.974a8 8 0 0 0 5.137-7.453 8 8 0 0 0 -5.135-7.463z"/>
            <path id="path24" d="m14.324 7.281-.539.862a4 4 0 0 1 1.215 2.857 4 4 0 0 1 -1.21 2.861l.538.864a5 5 0 0 0 1.672-3.725 5 5 0 0 0 -1.676-3.719z"/>
            <path id="path852" d="m11 3-5 5v6l5 5h1v-16zm-8 5v6h2v-6z"/>
        </g>
    </g>
    <g id="audio-volume-muted" transform="matrix(1.4545455 0 0 1.4545455 0 -32)">
        <path id="path30-6" d="m66 0h22v22h-22z" fill="none"/>
        <g id="g921">
            <path id="path903" d="m81.560055 17.01831a7.5624998 7.5624998 0 0 1 -1.462279.870117l.170535.683472a8.2499998 8.2499998 0 0 0 1.776486-1.068848z" class="ColorScheme-Text" fill="currentColor" opacity=".35"/>
            <path id="path895" d="m80.374385 7.5718989-.359858.6176754a4.125 4.125 0 0 1 1.110471 2.8104247 4.125 4.125 0 0 1 -.585448 2.081299l.495481.495484a4.8125 4.8125 0 0 0 .777467-2.576783 4.8125 4.8125 0 0 0 -1.438113-3.4281001z" class="ColorScheme-Text" fill="currentColor" opacity=".35"/>
            <path id="path893" d="m80.265623 3.4348142-.167847.6740717a7.5624998 7.5624998 0 0 1 4.464722 6.8911131 7.5624998 7.5624998 0 0 1 -1.561643 4.542603l.492793.492798a8.2499998 8.2499998 0 0 0 1.75635-5.035401 8.2499998 8.2499998 0 0 0 -4.984375-7.5651848z" class="ColorScheme-Text" fill="currentColor" opacity=".35"/>
        </g>
        <g id="g908">
            <path id="path899" d="m68.749998 8.2499994v5.4999996h2.0625v-5.4999996z" class="ColorScheme-Text" fill="currentColor"/>
            <path id="path897" d="m72.14587 7.6041255-.645872.6458739v5.4999996l5.5 5.5h1.375v-5.416748z" class="ColorScheme-Text" fill="currentColor"/>
            <path id="path852-8-9-1" d="m76.999998 2.7499996-3.395872 3.3958738 4.770872 4.7708736v-8.1667474z" class="ColorScheme-Text" fill="currentColor"/>
        </g>
        <path id="path902" d="m69.09374799 2.60766575-.4860838.4860838 16.29858334 16.29858348.48608311-.48608394z" class="ColorScheme-NegativeText" fill="currentColor" stroke-linecap="square" stroke-width=".6875"/>
    </g>
    <g id="audio-volume-low" transform="matrix(1.4545455 0 0 1.4545455 0 -32)">
        <path id="path2-5" d="m44 0h22v22h-22z" fill="none"/>
        <path id="path852-8-9" d="m54.999998 2.7499997-5.499999 5.5v5.5000013l5.499999 5.499998h1.375001v-16.499999zm-8.249999 5.5v5.5000013h2.0625v-5.5000013z" class="ColorScheme-Text" fill="currentColor"/>
        <path id="path926-73" d="m58.265624 3.4348147-.167847.674072a7.5624998 7.5624998 0 0 1 4.464722 6.8911133 7.5624998 7.5624998 0 0 1 -4.464722 6.888427l.170532.683472a8.2499997 8.2499997 0 0 0 4.981689-7.571899 8.2499997 8.2499997 0 0 0 -4.984374-7.5651853z" class="ColorScheme-Text" fill="currentColor" opacity=".35"/>
        <path id="path926-7-6" d="m58.374388 7.5718997-.359863.617675a4.125 4.125 0 0 1 1.110474 2.8104253 4.125 4.125 0 0 1 -1.111817 2.809082l.359864.617676a4.8125 4.8125 0 0 0 1.439453-3.426758 4.8125 4.8125 0 0 0 -1.438111-3.4281003z" class="ColorScheme-Text" fill="currentColor" opacity=".35"/>
    </g>
    <g id="audio-volume-medium" transform="matrix(1.4545455 0 0 1.4545455 0 -32)">
        <path id="path12-7" d="m22 0h22v22h-22z" fill="none"/>
        <path id="path852-8-2" d="m32.999999 2.7499999-5.5 5.5v5.5000011l5.5 5.499998h1.375001v-16.499999zm-8.25 5.5v5.5000011h2.0625v-5.5000011z" class="ColorScheme-Text" fill="currentColor"/>
        <path id="path926-2" d="m36.265624 3.4348149-.167847.674072a7.5624998 7.5624998 0 0 1 4.464722 6.8911131 7.5624998 7.5624998 0 0 1 -4.464722 6.888427l.170532.683472a8.2499997 8.2499997 0 0 0 4.981689-7.571899 8.2499997 8.2499997 0 0 0 -4.984374-7.5651851z" class="ColorScheme-Text" fill="currentColor" opacity=".35"/>
        <path id="path926-7-8" d="m36.374388 7.5718999-.359863.617675a4.125 4.125 0 0 1 1.110474 2.8104251 4.125 4.125 0 0 1 -1.111817 2.809082l.359864.617676a4.8125 4.8125 0 0 0 1.439453-3.426758 4.8125 4.8125 0 0 0 -1.438111-3.4281001z" class="ColorScheme-Text" fill="currentColor"/>
    </g>
    <g id="audio-volume-high">
        <path id="path22-6" d="m0-32h32.000001v32.000001h-32.000001z" fill="none"/>
        <path id="path852-8" d="m16-28-8 8v8.000001l8 7.9999984h2.000001v-23.999999zm-12 8v8.000001h2.9999999v-8.000001z" class="ColorScheme-Text" fill="currentColor"/>
        <path id="path926" d="m20.75-27.003906-.244141.980468a11 11 0 0 1 6.494141 10.023438 11 11 0 0 1 -6.494141 10.0195312l.248047.9941407a12 12 0 0 0 7.246094-11.0136719 12 12 0 0 0 -7.25-11.003906z" class="ColorScheme-Text" fill="currentColor"/>
        <path id="path926-7" d="m20.908203-20.986328-.523437.898437a6.0000002 6.0000002 0 0 1 1.615234 4.087891 6.0000002 6.0000002 0 0 1 -1.617188 4.085938l.523438.898437a7.0000002 7.0000002 0 0 0 2.09375-4.984375 7.0000002 7.0000002 0 0 0 -2.091797-4.986328z" class="ColorScheme-Text" fill="currentColor"/>
    </g>
    <g id="16-16-audio-volume-muted">
        <path id="rect858-7" d="m48 22h16v16h-16z" fill="none"/>
        <path id="path916" d="m52 28.01563v3.98437l4 4h1v-2.984375z" class="ColorScheme-Text" fill="currentColor"/>
        <path id="path914" d="m50 28v4h1v-4z" class="ColorScheme-Text" fill="currentColor"/>
        <path id="path3-5" d="m56 24-1.990234 1.990234 2.990234 2.982422v-4.972656z" class="ColorScheme-Text" fill="currentColor"/>
        <path id="path5-3" d="m50 24.707107.707107-.707107 11.292893 11.267023-.707109.732975z" class="ColorScheme-NegativeText" fill="currentColor"/>
        <path id="path950" d="m58.271484 34.392578a5 5 0 0 1 -.492187.279297l.166015.998047a6 6 0 0 0 1.050782-.552734z" class="ColorScheme-Text" fill="currentColor" opacity=".35"/>
        <path id="path948" d="m58.128906 26.615234-.330078.988282a3 3 0 0 1 1.201172 2.396484 3 3 0 0 1 -.167969.710938l.822266.822265a4 4 0 0 0 .345703-1.533203 4 4 0 0 0 -1.871094-3.384766z" class="ColorScheme-Text" fill="currentColor" opacity=".35"/>
        <path id="path963-3" d="m57.945312 24.332031-.167968 1a5 5 0 0 1 3.222656 4.667969 5 5 0 0 1 -.607422 2.271484l.730469.730469a6 6 0 0 0 .876953-3.001953 6 6 0 0 0 -4.054688-5.667969z" class="ColorScheme-Text" fill="currentColor" opacity=".35"/>
    </g>
    <g id="16-16-audio-volume-high">
        <path id="rect858" d="m0 22h16v16h-16z" fill="none"/>
        <path id="path1024" d="m8 24-4 4v4l4 4h1v-12z" class="ColorScheme-Text" fill="currentColor"/>
        <path id="path889" d="m2 28v4h1v-4z" class="ColorScheme-Text" fill="currentColor"/>
        <path id="path963" d="m10.128906 26.615234-.3300779.988282a3 3 0 0 1 1.2011719 2.396484 3 3 0 0 1 -1.2011719 2.396484l.3281249.984375a4 4 0 0 0 1.873047-3.380859 4 4 0 0 0 -1.871094-3.384766z" class="ColorScheme-Text" fill="currentColor"/>
        <path id="path963-9" d="m9.9453125 24.332031-.1679687 1a5 5 0 0 1 3.2226562 4.667969 5 5 0 0 1 -3.2207031 4.671875l.1660156.998047a6 6 0 0 0 4.0546875-5.669922 6 6 0 0 0 -4.0546875-5.667969z" class="ColorScheme-Text" fill="currentColor"/>
    </g>
    <g id="16-16-audio-volume-medium">
        <path id="rect858-3" d="m16 22h16v16h-16z" fill="none"/>
        <path id="path1126" d="m24 24-4 4v4l4 4h1v-12z" class="ColorScheme-Text" fill="currentColor"/>
        <path id="path918" d="m18 28v4h1v-4z" class="ColorScheme-Text" fill="currentColor"/>
        <path id="path963-2" d="m26.128906 26.615234-.330078.988282a3 3 0 0 1 1.201172 2.396484 3 3 0 0 1 -1.201172 2.396484l.328125.984375a4 4 0 0 0 1.873047-3.380859 4 4 0 0 0 -1.871094-3.384766z" class="ColorScheme-Text" fill="currentColor"/>
        <path id="path963-9-2" d="m25.945312 24.332031-.167968 1a5 5 0 0 1 3.222656 4.667969 5 5 0 0 1 -3.220703 4.671875l.166015.998047a6 6 0 0 0 4.054688-5.669922 6 6 0 0 0 -4.054688-5.667969z" class="ColorScheme-Text" fill="currentColor" opacity=".35"/>
    </g>
    <g id="16-16-audio-volume-low">
        <path id="rect858-6" d="m32 22h16v16h-16z" fill="none"/>
        <path id="path901" d="m40 24-4 4v4l4 4h1v-12zm-6 4v4h1v-4z" class="ColorScheme-Text" fill="currentColor"/>
        <path id="path963-2-8" d="m42.128906 26.615234-.330078.988282a3 3 0 0 1 1.201172 2.396484 3 3 0 0 1 -1.201172 2.396484l.328125.984375a4 4 0 0 0 1.873047-3.380859 4 4 0 0 0 -1.871094-3.384766z" class="ColorScheme-Text" fill="currentColor" opacity=".35"/>
        <path id="path963-9-2-9" d="m41.945312 24.332031-.167968 1a5 5 0 0 1 3.222656 4.667969 5 5 0 0 1 -3.220703 4.671875l.166015.998047a6 6 0 0 0 4.054688-5.669922 6 6 0 0 0 -4.054688-5.667969z" class="ColorScheme-Text" fill="currentColor" opacity=".35"/>
    </g>
</svg>
