<svg id="svg2" viewBox="0 0 54 32" xmlns="http://www.w3.org/2000/svg">
    <style
        type="text/css"
        id="current-color-scheme">
        .ColorScheme-Text {
            color:#232629;
        }
    </style>
    <g id="22-22-configure">
        <path id="path7" d="m11.5 13c-1.21321 0-2.2202619.85686-2.4511719 2h-6.0488281v1h6.0488281c.23019 1.14407 1.2373119 2 2.4511719 2s2.219019-.85593 2.449219-2h5.050781v-1h-5.050781c-.23091-1.14314-1.236019-2-2.449219-2zm-6 11c-1.385 0-2.5 1.115-2.5 2.5s1.115 2.5 2.5 2.5c1.21386 0 2.2190188-.85593 2.4492188-2h11.0507812v-1h-11.0507812c-.2309101-1.14314-1.2360188-2-2.4492188-2zm0 1c.831 0 1.5.669 1.5 1.5s-.669 1.5-1.5 1.5-1.5-.669-1.5-1.5.669-1.5 1.5-1.5z" class="ColorScheme-Text" fill="currentColor"/>
        <path id="path9" d="m0 10v22h22v-22z" fill="none"/>
    </g>
    <g id="configure">
        <path id="path11" d="m40.5 6a3.5 3.5 0 0 0-3.458984 3h-11.041016v1h11.039062a3.5 3.5 0 0 0 3.460938 3 3.5 3.5 0 0 0 3.458984-3h6.041016v-1h-6.039062a3.5 3.5 0 0 0-3.460938-3zm-11 13a3.5 3.5 0 0 0-3.5 3.5 3.5 3.5 0 0 0 3.5 3.5 3.5 3.5 0 0 0 3.460938-3h17.039062v-1h-17.041016a3.5 3.5 0 0 0-3.458984-3zm0 1a2.5 2.5 0 0 1 2.5 2.5 2.5 2.5 0 0 1-2.5 2.5 2.5 2.5 0 0 1-2.5-2.5 2.5 2.5 0 0 1 2.5-2.5z" class="ColorScheme-Text" fill="currentColor"/>
        <path id="path14" d="m22 0v32h32v-32z" fill="none"/>
    </g>
    <g id="16-16-configure" transform="matrix(.72727273 0 0 .72727273 -16 8.727273)">
        <path id="path9-7" d="m0 10v22h22v-22z" fill="none"/>
        <path id="path4" d="m13.75 13.4375c-1.281473 0-2.358864 0.876289-2.664063 2.0625h-8.335937v1.375h8.335937c0.305199 1.186212 1.38259 2.0625 2.664063 2.0625 1.281474 0 2.358863-0.876288 2.664062-2.0625h2.835938v-1.375h-2.835938c-0.305199-1.186211-1.382588-2.0625-2.664062-2.0625zm-6.875 9.625c-1.281474 0-2.358864 0.876289-2.664063 2.0625h-1.460937v1.375h1.460937c0.305199 1.186211 1.382589 2.0625 2.664063 2.0625s2.358864-0.876289 2.664062-2.0625h9.71094v-1.375h-9.71094c-0.305198-1.186211-1.382588-2.0625-2.664062-2.0625zm0 1.375c0.759385 0 1.375 0.615615 1.375 1.375s-0.615615 1.375-1.375 1.375-1.375-0.615615-1.375-1.375 0.615615-1.375 1.375-1.375z" class="ColorScheme-Text" fill="currentColor"/>
    </g>
</svg>
