<?xml version="1.0" encoding="UTF-8" standalone="no"?>
<svg
   xmlns:dc="http://purl.org/dc/elements/1.1/"
   xmlns:cc="http://creativecommons.org/ns#"
   xmlns:rdf="http://www.w3.org/1999/02/22-rdf-syntax-ns#"
   xmlns:svg="http://www.w3.org/2000/svg"
   xmlns="http://www.w3.org/2000/svg"
   xmlns:sodipodi="http://sodipodi.sourceforge.net/DTD/sodipodi-0.dtd"
   xmlns:inkscape="http://www.inkscape.org/namespaces/inkscape"
   version="1.1"
   id="svg2"
   viewBox="0 0 54 32"
   inkscape:version="0.91 r13725"
   sodipodi:docname="configure.svgz">
  <sodipodi:namedview
     pagecolor="#ffffff"
     bordercolor="#666666"
     borderopacity="1"
     objecttolerance="10"
     gridtolerance="10"
     guidetolerance="10"
     inkscape:pageopacity="0"
     inkscape:pageshadow="2"
     inkscape:window-width="1764"
     inkscape:window-height="945"
     id="namedview12"
     showgrid="false"
     inkscape:zoom="7.375"
     inkscape:cx="27"
     inkscape:cy="16"
     inkscape:window-x="0"
     inkscape:window-y="0"
     inkscape:window-maximized="0"
     inkscape:current-layer="svg2" />
  <metadata
     id="metadata16">
    <rdf:RDF>
      <cc:Work
         rdf:about="">
        <dc:format>image/svg+xml</dc:format>
        <dc:type
           rdf:resource="http://purl.org/dc/dcmitype/StillImage" />
        <dc:title />
      </cc:Work>
    </rdf:RDF>
  </metadata>
  <defs
     id="defs3051">
    <style
       id="current-color-scheme"
       type="text/css">
      .ColorScheme-Text {
        color:#31363b;
      }
      </style>
  </defs>
  <g
     id="22-22-configure">
    <path
       id="path7"
       class="ColorScheme-Text"
       d="m 11.5,13 c -1.21321,0 -2.2202619,0.85686 -2.4511719,2 L 3,15 l 0,1 6.0488281,0 c 0.23019,1.14407 1.2373119,2 2.4511719,2 1.21386,0 2.219019,-0.85593 2.449219,-2 L 19,16 19,15 13.949219,15 C 13.718309,13.85686 12.7132,13 11.5,13 Z m -6,11 C 4.115,24 3,25.115 3,26.5 3,27.885 4.115,29 5.5,29 6.71386,29 7.7190188,28.14407 7.9492188,27 L 19,27 19,26 7.9492188,26 C 7.7183087,24.85686 6.7132,24 5.5,24 Z m 0,1 C 6.331,25 7,25.669 7,26.5 7,27.331 6.331,28 5.5,28 4.669,28 4,27.331 4,26.5 4,25.669 4.669,25 5.5,25 Z"
       style="fill:currentColor;fill-opacity:1;stroke:none" />
    <path
       id="path9"
       d="M 0 10 L 0 32 L 22 32 L 22 10 L 0 10 z "
       style="opacity:1;fill:none" />
  </g>
  <g
     id="configure">
    <path
       id="path11"
       class="ColorScheme-Text"
       d="M 40.5,6 A 3.5,3.5 0 0 0 37.041016,9 L 26,9 l 0,1 11.039062,0 A 3.5,3.5 0 0 0 40.5,13 3.5,3.5 0 0 0 43.958984,10 L 50,10 50,9 43.960938,9 A 3.5,3.5 0 0 0 40.5,6 Z m -11,13 A 3.5,3.5 0 0 0 26,22.5 3.5,3.5 0 0 0 29.5,26 3.5,3.5 0 0 0 32.960938,23 L 50,23 50,22 32.958984,22 A 3.5,3.5 0 0 0 29.5,19 Z m 0,1 A 2.5,2.5 0 0 1 32,22.5 2.5,2.5 0 0 1 29.5,25 2.5,2.5 0 0 1 27,22.5 2.5,2.5 0 0 1 29.5,20 Z"
       style="fill:currentColor;fill-opacity:1;stroke:none" />
    <path
       id="path14"
       d="M 22 0 L 22 32 L 54 32 L 54 0 L 22 0 z "
       style="opacity:1;fill:none" />
  </g>
</svg>
