<svg id="svg32" version="1.1" viewBox="0 0 22 22" xmlns="http://www.w3.org/2000/svg">
     <style type="text/css" id="current-color-scheme">
        .ColorScheme-Text {
            color:#232629;
        }
        .ColorScheme-NeutralText {
            color:#f67400;
        }
        .ColorScheme-NegativeText {
            color:#da4453;
        }
    </style>
    <g id="disk-quota" transform="translate(-326 -534.3622)" class="ColorScheme-Text" fill="currentColor">
        <path id="path2" d="m328.99219 537.3622v16h10v-1h-9v-8h3v-.01l.008.01 2-2h8.99219v3h1v-6h-6.99238l-2-2-.008.01v-.01h-6z"/>
        <path id="path4" d="m343 546.3622a3 1 0 0 0 -3 1v5a3 1 0 0 0 3 1 3 1 0 0 0 3-1v-5a3 1 0 0 0 -3-1zm0 1a3 1 0 0 1 2 .25781v.48633a3 1 0 0 1 -2 .25586 3 1 0 0 1 -2-.25781v-.48633a3 1 0 0 1 2-.25586zm-2 1.74414a3 1 0 0 0 2 .25586 3 1 0 0 0 2-.25586v1a3 1 0 0 1 -2 .25586 3 1 0 0 1 -2-.25781zm0 2a3 1 0 0 0 2 .25586 3 1 0 0 0 2-.25586v1a3 1 0 0 1 -2 .25586 3 1 0 0 1 -2-.25781z"/>
    </g>
    <g id="disk-quota-low" transform="translate(-269.992 -534.36222)">
        <path id="path8" d="m328.99219 537.3622v16h10v-1h-9v-8h3v-.01l.008.01 2-2h8.99219v3h1v-6h-6.99238l-2-2-.008.01v-.01h-6z" class="ColorScheme-Text" fill="currentColor"/>
        <path id="path10" transform="translate(326 534.3622)" d="m17 12c-1.656854 0-3 .447715-3 1v5c0 .552285 1.343146 1 3 1s3-.447715 3-1v-5c0-.552285-1.343146-1-3-1zm0 1c.739186.00087 1.451386.09268 2 .257812v.486329c-.549483.164426-1.261587.255525-2 .255859-.739186-.00087-1.451386-.092677-2-.257812v-.486329c.549483-.164426 1.261587-.255525 2-.255859zm-2 1.744141c.549483.164426 1.261587.255525 2 .255859.738413-.000334 1.450517-.09143 2-.255859v1c-.549483.164426-1.261587.255525-2 .255859-.739186-.00087-1.451386-.09268-2-.257812z" class="ColorScheme-NeutralText" fill="currentColor"/>
    </g>
    <g id="disk-quota-high" transform="translate(-244.992 -534.36222)">
        <path id="path14" d="m328.99219 537.3622v16h10v-1h-9v-8h3v-.01l.008.01 2-2h8.99219v3h1v-6h-6.99238l-2-2-.008.01v-.01h-6z" class="ColorScheme-Text" fill="currentColor"/>
        <path id="path16" transform="translate(326 534.3622)" d="m17 12c-1.656854 0-3 .447715-3 1v5c0 .552285 1.343146 1 3 1s3-.447715 3-1v-5c0-.552285-1.343146-1-3-1zm0 1c.739186.00087 1.451386.09268 2 .257812v.486329c-.549483.164426-1.261587.255525-2 .255859-.739186-.00087-1.451386-.092677-2-.257812v-.486329c.549483-.164426 1.261587-.255525 2-.255859z" class="ColorScheme-NegativeText" fill="currentColor"/>
    </g>
    <g id="disk-quota-critical" transform="translate(-219.992 -534.36222)">
        <path id="path20" d="m328.99219 537.3622v16h10v-1h-9v-8h3v-.01l.008.01 2-2h8.99219v3h1v-6h-6.99238l-2-2-.008.01v-.01h-6z" class="ColorScheme-Text" fill="currentColor"/>
        <path id="path22" transform="translate(326 534.3622)" d="m17 12c-1.656854 0-3 .447715-3 1v5c0 .552285 1.343146 1 3 1s3-.447715 3-1v-5c0-.552285-1.343146-1-3-1zm0 1c.739186.00087 1.451386.09268 2 .257812v.486329c-.549483.164426-1.261587.255525-2 .255859-.739186-.00087-1.451386-.092677-2-.257812v-.486329c.549483-.164426 1.261587-.255525 2-.255859z" class="ColorScheme-NegativeText" fill="currentColor"/>
        <path id="path24" d="m335.992 549.36224h2v2h-2z" class="ColorScheme-NegativeText" fill="currentColor"/>
        <path id="path26" d="m335.992 543.36224h2v5h-2z" class="ColorScheme-NegativeText" fill="currentColor"/>
    </g>
</svg>
