<svg id="svg32" version="1.1" viewBox="0 0 22 22" xmlns="http://www.w3.org/2000/svg">
     <style type="text/css" id="current-color-scheme">
        .ColorScheme-Text {
            color:#232629;
        }
        .ColorScheme-NeutralText {
            color:#f67400;
        }
        .ColorScheme-NegativeText {
            color:#da4453;
        }
    </style>
    <g id="disk-quota" class="ColorScheme-Text">
        <path style="fill:currentColor;fill-opacity:1;stroke:none" d="M 16 12 A 3 1 0 0 0 13 13 L 13 18 A 3 1 0 0 0 16 19 A 3 1 0 0 0 19 18 L 19 13 A 3 1 0 0 0 16 12 z M 15.9 13 A 3 1 0 0 1 16 13 A 3 1 0 0 1 18 13.257812 L 18 13.74 A 3 1 0 0 1 16 14 A 3 1 0 0 1 14 13.7 L 14 13.2 A 3 1 0 0 1 15.9 13 z M 14 14.74 A 3 1 0 0 0 16 15 A 3 1 0 0 0 18 14.74 L 18 15.74 A 3 1 0 0 1 16 16 A 3 1 0 0 1 14 15.7 L 14 14.74 z M 14 16.74 A 3 1 0 0 0 16 17 A 3 1 0 0 0 18 16.74 L 18 17.74 A 3 1 0 0 1 16 18 A 3 1 0 0 1 14 17.7 L 14 16.74 z "/>
        <path style="fill:currentColor;fill-opacity:1;stroke:none" d="m 4,3 v 16 h 8 V 16 H 7 L 5,14 V 11.9 C 5.6,11.7 6,11.1 6,10.5 6,9.9 5.6,9.3 5,9.1 V 7 C 5,5.3 6.3,4 8,4 h 4 c 1.66,0 3,1.34 3,3 V 9.1 C 14.4,9.3 14,9.9 14,10.5 c 6.76e-4,0.2 0,0.3 0.1,0.5 H 16 V 3 Z m 2,14 h 5 v 1 H 6 Z"/>
    </g>
    <g id="disk-quota-low">
        <path style="fill:currentColor;fill-opacity:1;stroke:none" d="m 16,12 c -1.656854,0 -3,0.447715 -3,1 v 5 c 0,0.552285 1.343146,1 3,1 1.656854,0 3,-0.447715 3,-1 v -5 c 0,-0.552285 -1.343146,-1 -3,-1 z m -0.1,1 c 0.03333,-1.85e-4 0.06667,-1.85e-4 0.1,0 0.739186,8.7e-4 1.451386,0.09268 2,0.257812 V 13.74 c -0.547637,0.16593 -1.259945,0.25853 -2,0.26 -0.756362,-0.01228 -1.470815,-0.119444 -2,-0.3 v -0.5 c 0.546482,-0.136873 1.216806,-0.207434 1.9,-0.2 z M 14,14.74 c 0.547637,0.16593 1.259945,0.25853 2,0.26 0.740055,-0.0015 1.452363,-0.09407 2,-0.26 v 1 c -0.547637,0.16593 -1.259945,0.25853 -2,0.26 -0.756362,-0.01228 -1.470815,-0.119444 -2,-0.3 z"
        class="ColorScheme-NeutralText"/>
        <path style="fill:currentColor;fill-opacity:1;stroke:none" d="m 4,3 v 16 h 8 V 16 H 7 L 5,14 V 11.9 C 5.6,11.7 6,11.1 6,10.5 6,9.9 5.6,9.3 5,9.1 V 7 C 5,5.3 6.3,4 8,4 h 4 c 1.66,0 3,1.34 3,3 V 9.1 C 14.4,9.3 14,9.9 14,10.5 c 6.76e-4,0.2 0,0.3 0.1,0.5 H 16 V 3 Z m 2,14 h 5 v 1 H 6 Z"
        class="ColorScheme-Text"/>
    </g>
    <g id="disk-quota-high">
        <path style="fill:currentColor;fill-opacity:1;stroke:none" d="M 16 12 A 3 1 0 0 0 13 13 L 13 18 A 3 1 0 0 0 16 19 A 3 1 0 0 0 19 18 L 19 13 A 3 1 0 0 0 16 12 z M 15.9 13 A 3 1 0 0 1 16 13 A 3 1 0 0 1 18 13.257812 L 18 13.74 A 3 1 0 0 1 16 14 A 3 1 0 0 1 14 13.7 L 14 13.2 A 3 1 0 0 1 15.9 13 z M 14 14.74 A 3 1 0 0 0 16 15 A 3 1 0 0 0 18 14.74 L 18 15.74 A 3 1 0 0 1 16 16 A 3 1 0 0 1 14 15.7 L 14 14.74 z M 14 16.74 A 3 1 0 0 0 16 17 A 3 1 0 0 0 18 16.74 L 18 17.74 A 3 1 0 0 1 16 18 A 3 1 0 0 1 14 17.7 L 14 16.74 z " class="ColorScheme-NegativeText"/>
        <path style="fill:currentColor;fill-opacity:1;stroke:none" d="m 4,3 v 16 h 8 V 16 H 7 L 5,14 V 11.9 C 5.6,11.7 6,11.1 6,10.5 6,9.9 5.6,9.3 5,9.1 V 7 C 5,5.3 6.3,4 8,4 h 4 c 1.66,0 3,1.34 3,3 V 9.1 C 14.4,9.3 14,9.9 14,10.5 c 6.76e-4,0.2 0,0.3 0.1,0.5 H 16 V 3 Z m 2,14 h 5 v 1 H 6 Z" class="ColorScheme-Text"/>
    </g>
    <g id="disk-quota-critical">
        <path style="fill:currentColor;fill-opacity:1;stroke:none" d="M 16 12 C 14.343146 12 13 12.447715 13 13 L 13 18 C 13 18.552285 14.343146 19 16 19 C 17.656854 19 19 18.552285 19 18 L 19 13 C 19 12.447715 17.656854 12 16 12 z M 16 13 C 16.739186 13.00087 17.451386 13.09268 18 13.257812 L 18 13.744141 C 17.450517 13.908567 16.738413 13.999666 16 14 C 15.260814 13.99913 14.548614 13.90732 14 13.742188 L 14 13.255859 C 14.549483 13.091433 15.261587 13.000334 16 13 z " class="ColorScheme-NegativeText"/>
        <path style="fill:currentColor;fill-opacity:1;stroke:none" d="m 9,6 v 5 h 2 V 6 Z m 0,6 v 2 h 2 v -2 z" class="ColorScheme-NegativeText"/>
        <path style="fill:currentColor;fill-opacity:1;stroke:none" d="m 4,3 v 16 h 8 V 16 H 7 L 5,14 V 11.9 C 5.6,11.7 6,11.1 6,10.5 6,9.9 5.6,9.3 5,9.1 V 7 C 5,5.3 6.3,4 8,4 h 4 c 1.66,0 3,1.34 3,3 v 2.1 c -0.6,0.2 -1,0.8 -1,1.4 6.76e-4,0.2 0,0.3 0.1,0.5 H 16 V 3 Z m 2,14 h 5 v 1 H 6 Z" class="ColorScheme-Text"/>
    </g>
</svg>
