<svg id="svg3869" version="1.1" viewBox="0 0 22 22" xmlns="http://www.w3.org/2000/svg">
    <style
        type="text/css"
        id="current-color-scheme">
        .ColorScheme-Text {
            color:#232629;
        }
    </style>
    <g id="distribute-horizontal-x" transform="translate(-326,-534.3622)">
        <path id="rect4178" d="m326 534.36218h22v22h-22z" fill="none"/>
        <path id="rect4109" d="m329 541.3622v8h5v-8zm11 0v8h5v-8zm-10 1h3v6h-3zm11 0h3v6h-3zm-6 1v4h1v-1h2v1h1v-4h-1v1h-2v-1z" class="ColorScheme-Text" fill="currentColor"/>
    </g>
    <g id="16-16-distribute-horizontal-x" transform="matrix(.72727273 0 0 .72727273 -253.09091 -382.62706)">
        <path id="rect4178-6" d="m326 534.36218h22v22h-22z" fill="none"/>
        <path id="path4" d="m327.375 539.86221v11h5.5v-11zm13.75 0v11h5.5v-11zm-12.375 1.375h2.75v8.25h-2.75zm13.75 0h2.75v8.25h-2.75zm-8.25 1.375v5.5h1.375v-1.375h2.75v1.375h1.375v-5.5h-1.375v1.375h-2.75v-1.375z" class="ColorScheme-Text" fill="currentColor"/>
    </g>
</svg>
