<?xml version="1.0" encoding="UTF-8" standalone="no"?>
<svg
   xmlns:dc="http://purl.org/dc/elements/1.1/"
   xmlns:cc="http://creativecommons.org/ns#"
   xmlns:rdf="http://www.w3.org/1999/02/22-rdf-syntax-ns#"
   xmlns:svg="http://www.w3.org/2000/svg"
   xmlns="http://www.w3.org/2000/svg"
   xmlns:sodipodi="http://sodipodi.sourceforge.net/DTD/sodipodi-0.dtd"
   xmlns:inkscape="http://www.inkscape.org/namespaces/inkscape"
   version="1.1"
   id="svg2"
   viewBox="0 0 54 32"
   inkscape:version="0.91 r13725"
   sodipodi:docname="drive.svgz">
  <sodipodi:namedview
     pagecolor="#ffffff"
     bordercolor="#666666"
     borderopacity="1"
     objecttolerance="10"
     gridtolerance="10"
     guidetolerance="10"
     inkscape:pageopacity="0"
     inkscape:pageshadow="2"
     inkscape:window-width="1912"
     inkscape:window-height="884"
     id="namedview15"
     showgrid="false"
     inkscape:zoom="7.375"
     inkscape:cx="27"
     inkscape:cy="16"
     inkscape:window-x="0"
     inkscape:window-y="0"
     inkscape:window-maximized="0"
     inkscape:current-layer="svg2" />
  <metadata
     id="metadata21">
    <rdf:RDF>
      <cc:Work
         rdf:about="">
        <dc:format>image/svg+xml</dc:format>
        <dc:type
           rdf:resource="http://purl.org/dc/dcmitype/StillImage" />
        <dc:title />
      </cc:Work>
    </rdf:RDF>
  </metadata>
  <defs
     id="defs3051">
    <style
       id="current-color-scheme"
       type="text/css">
      .ColorScheme-Text {
        color:#31363b;
      }
      </style>
  </defs>
  <g
     id="22-22-drive">
    <path
       id="path7"
       class="ColorScheme-Text"
       d="m 4,13 0,16 2,0 10,0 2,0 0,-16 -14,0 z m 1,1 12,0 0,12 -12,0 0,-12 z m 2.5,1 A 0.5,0.5 0 0 0 7,15.5 0.5,0.5 0 0 0 7.5,16 0.5,0.5 0 0 0 8,15.5 0.5,0.5 0 0 0 7.5,15 Z m 1.5,0 -1,1 1,1 -1,1 1,1 1,-1 1,-1 -1,-1 -1,-1 z M 6.5,17 A 0.5,0.5 0 0 0 6,17.5 0.5,0.5 0 0 0 6.5,18 0.5,0.5 0 0 0 7,17.5 0.5,0.5 0 0 0 6.5,17 Z m 1,2 A 0.5,0.5 0 0 0 7,19.5 0.5,0.5 0 0 0 7.5,20 0.5,0.5 0 0 0 8,19.5 0.5,0.5 0 0 0 7.5,19 Z m 3.5,3 0,1 5,0 0,-1 -5,0 z m 0,2 0,1 5,0 0,-1 -5,0 z m -5,3 10,0 0,1 -10,0 0,-1 z"
       style="fill:currentColor;fill-opacity:1;stroke:none" />
    <path
       id="path9"
       d="M 0 10 L 0 32 L 22 32 L 22 10 L 0 10 z "
       style="opacity:1;fill:none" />
  </g>
  <g
     id="drive">
    <path
       id="path11"
       class="ColorScheme-Text"
       d="M 27 4 L 27 28 L 31 28 L 46 28 L 49 28 L 49 4 L 27 4 z M 28 5 L 48 5 L 48 24 L 28 24 L 28 5 z M 31.5 7 C 31.223858 7 31 7.223858 31 7.5 C 31 7.776142 31.223858 8 31.5 8 C 31.776142 8 32 7.776142 32 7.5 C 32 7.223858 31.776142 7 31.5 7 z M 33 7 L 32 8 L 33 9 L 32 10 L 33 11 L 34 10 L 35 9 L 34 8 L 33 7 z M 30.5 9 C 30.223858 9 30 9.223858 30 9.5 C 30 9.776142 30.223858 10 30.5 10 C 30.776142 10 31 9.776142 31 9.5 C 31 9.223858 30.776142 9 30.5 9 z M 31.5 11 C 31.223858 11 31 11.223858 31 11.5 C 31 11.776142 31.223858 12 31.5 12 C 31.776142 12 32 11.776142 32 11.5 C 32 11.223858 31.776142 11 31.5 11 z M 39 17 L 39 18 L 46 18 L 46 17 L 39 17 z M 39 19 L 39 20 L 46 20 L 46 19 L 39 19 z M 39 21 L 39 22 L 46 22 L 46 21 L 39 21 z M 29 25 L 47 25 L 47 27 L 29 27 L 29 25 z "
       style="fill:currentColor;fill-opacity:1;stroke:none" />
    <path
       id="path14"
       d="M 22 0 L 22 32 L 54 32 L 54 0 L 22 0 z "
       style="opacity:1;fill:none" />
  </g>
  <g
     transform="translate(0,13)"
     id="16-16-drive">
    <path
       id="path15"
       class="ColorScheme-Text"
       d="m -14,5 0,12 1,0 10,0 1,0 0,-12 -12,0 z m 1,1 10,0 0,7 0,1 -5,0 0,1 -2,0 0,-1 -3,0 0,-1 0,-7 z m 1,1 0,6 8,0 0,-6 -8,0 z m 1,1 1,0 0,2 4,0 0,-2 1,0 0,4 -6,0 0,-4 z m -2,7 2,0 0,1 -2,0 0,-1 z m 6,0 3,0 0,1 -3,0 0,-1 z"
       style="fill:currentColor;fill-opacity:1;stroke:none" />
    <path
       id="path17"
       d="M -16,3 -16,19 0,19 0,3 -16,3 Z"
       style="opacity:1;fill:none" />
  </g>
</svg>
