<svg id="svg2" viewBox="0 0 54 32" xmlns="http://www.w3.org/2000/svg">
    <style
        type="text/css"
        id="current-color-scheme">
        .ColorScheme-Text {
            color:#232629;
        }
    </style>
    <g id="22-22-drive">
        <path id="path9" d="m0 10v22h22v-22z" fill="none"/>
        <path id="path854" d="m5 13v16h12v-16zm4 1h4a3 3 0 0 1 3 3v2.088a1.5 1.5 0 0 0-1 1.412 1.5 1.5 0 0 0 1 1.412v2.088l-2 2h-6l-2-2v-2.088a1.5 1.5 0 0 0 1-1.412 1.5 1.5 0 0 0-1-1.412v-2.088a3 3 0 0 1 3-3zm-2 13h4v1h-4zm6 0h2v1h-2z" class="ColorScheme-Text" fill="currentColor"/>
    </g>
    <g id="drive">
        <path id="path14" d="m22 0v32h32v-32z" fill="none"/>
        <path id="path927" d="m29 4v24h18v-24zm5 1h8c2.209139 0 4 1.790861 4 4v3.054688c-1.162442.237281-1.998017 1.258902-2 2.445312.000129 1.187878.836122 2.211643 2 2.449219v4.050781l-4 4h-8l-4-4v-4.054688c1.162442-.237281 1.998017-1.258902 2-2.445312-.000129-1.187878-.836122-2.211643-2-2.449219v-3.050781c0-2.209139 1.790861-4 4-4zm-2 21h7v1h-7zm9 0h3v1h-3z" class="ColorScheme-Text" fill="currentColor"/>
    </g>
    <g id="16-16-drive" transform="translate(0 13)">
        <path id="path17" d="m-16 3v16h16v-16z" fill="none"/>
        <path id="path825" d="m-13 5v12h10v-12zm3 1h4a2 2 0 0 1 2 2v1a1 1 0 1 0 0 2v2l-1 1h-6l-1-1v-2a1 1 0 1 0 0-2v-1a2 2 0 0 1 2-2zm-2 9h4v1h-4zm6 0h2v1h-2z" class="ColorScheme-Text" fill="currentColor"/>
    </g>
</svg>
