<svg id="svg2" viewBox="0 0 54 32" xmlns="http://www.w3.org/2000/svg">
    <style
        type="text/css"
        id="current-color-scheme">
        .ColorScheme-NegativeText {
            color:#da4453;
        }
    </style>
    <g id="22-22-edit-delete">
        <path id="path9" d="m0 10v22h22v-22z" fill="none"/>
        <path id="path832" d="m8 13v2h1v-1h4v1h1v-2zm-4 3v1h14v-1zm2 2v11h10v-11h-1v10h-8v-10z" class="ColorScheme-NegativeText" fill="currentColor"/>
    </g>
    <g id="edit-delete">
        <path id="path14" d="m22 0v32h32v-32z" fill="none"/>
        <path id="path863" d="m46 10v18h-16v-18h1v17h14v-17zm3-2h-22v1h22zm-7-4v3h-1v-2h-6v2h-1v-3z" class="ColorScheme-NegativeText" fill="currentColor"/>
    </g>
    <g id="16-16-edit-delete">
        <path id="rect925" d="m-16 16h16v16h-16z" fill="none"/>
        <path id="path915" d="m-11 18v2h1v-1h4v1h1v-2h-5zm-3 3v1h2v8h8v-8h2v-1zm3 1h6v7h-6z" class="ColorScheme-NegativeText" fill="currentColor"/>
    </g>
</svg>
