<?xml version="1.0" encoding="UTF-8" standalone="no"?>
<svg
   xmlns:dc="http://purl.org/dc/elements/1.1/"
   xmlns:cc="http://creativecommons.org/ns#"
   xmlns:rdf="http://www.w3.org/1999/02/22-rdf-syntax-ns#"
   xmlns:svg="http://www.w3.org/2000/svg"
   xmlns="http://www.w3.org/2000/svg"
   width="242"
   height="154.00002"
   id="svg3869"
   version="1.1"
   viewBox="0 0 242 154.00002">
  <metadata
     id="metadata25">
    <rdf:RDF>
      <cc:Work
         rdf:about="">
        <dc:format>image/svg+xml</dc:format>
        <dc:type
           rdf:resource="http://purl.org/dc/dcmitype/StillImage" />
        <dc:title></dc:title>
      </cc:Work>
    </rdf:RDF>
  </metadata>
  <defs
     id="defs3871">
    <style
       type="text/css"
       id="current-color-scheme">
      .ColorScheme-Text {
        color:#31363b;
      }
      .ColorScheme-Background {
        color:#eff0f1;
      }
      .ColorScheme-Highlight {
        color:#3daee9;
      }
      .ColorScheme-ViewText {
        color:#31363b;
      }
      .ColorScheme-ViewBackground {
        color:#fcfcfc;
      }
      .ColorScheme-ViewHover {
        color:#93cee9;
      }
      .ColorScheme-ViewFocus{
        color:#3daee9;
      }
      .ColorScheme-ButtonText {
        color:#31363b;
      }
      .ColorScheme-ButtonBackground {
        color:#eff0f1;
      }
      .ColorScheme-ButtonHover {
        color:#93cee9;
      }
      .ColorScheme-ButtonFocus{
        color:#3daee9;
      }
      </style>
  </defs>
  <g
     id="fcitx-bopomofo-libpinyin"
     transform="translate(66,22)"
     style="fill:#cccccc">
    <rect
       y="0"
       x="0"
       height="22"
       width="22"
       id="rect4147"
       style="fill:none;fill-rule:evenodd;stroke:none;stroke-width:1px;stroke-linecap:butt;stroke-linejoin:miter;stroke-opacity:1" />
    <path
       class="ColorScheme-Text"
       style="fill:currentColor;fill-opacity:1;stroke:none"
       d="m 3,3.0000076 0,16.0000004 16,0 0,-16.0000004 -16,0 z"
       id="path4274" />
    <path
       class="ColorScheme-Text"
       style="fill:currentColor;fill-opacity:1;stroke:none"
       d="m 11.300781,4.5996166 -0.601562,0.800782 2,1.5 0.601562,-0.800782 -2,-1.5 z"
       id="path4270" />
    <path
       class="ColorScheme-Text"
       style="fill:currentColor;fill-opacity:1;stroke:none"
       d="m 5.3535156,4.6464866 -0.7070312,0.707032 2,2 0.7070312,-0.707032 -2,-2 z"
       id="path4268" />
    <path
       class="ColorScheme-Text"
       style="fill:currentColor;fill-opacity:1;stroke:none"
       d="m 8,7.0000076 0,1 4,0 0,3.0000004 -3,0 0,1 3,0 0,4 -4,0 0,1 9,0 0,-1 -4,0 0,-4 3,0 0,-1 -3,0 0,-3.0000004 4,0 0,-1 -9,0 z"
       id="path4266" />
    <path
       class="ColorScheme-Text"
       style="fill:currentColor;fill-opacity:1;stroke:none"
       d="m 5.3535156,7.6464916 -0.7070312,0.707032 2,2.0000004 0.7070312,-0.7070324 -2,-2 z"
       id="path4264" />
    <path
       class="ColorScheme-Text"
       style="fill:currentColor;fill-opacity:1;stroke:none"
       d="m 6.5253906,10.841805 -2,6 0.9492188,0.316406 2,-6 -0.9492188,-0.316406 z"
       id="path4166" />
  </g>
  <g
     id="fcitx-pinyin"
     transform="translate(0,8e-6)">
    <path
       id="path6"
       class="ColorScheme-Text"
       d="M 3,3.0019531 3,19 l 16,0 0,-15.9980469 -16,0 z M 4,4 18,4 18,18 4,18 4,4 Z M 10.900391,4.7011719 10.099609,5.3007812 11.375,7 10,7 10,8 11,8 11,11 9.1171875,11 9.2226562,10.94727 8.7773438,10.052734 8,10.441406 8,8 9,8 9,7 8,7 8,5 7,5 7,7 5,7 5,8 7,8 7,10.941406 4.7773438,12.052734 5.2226562,12.947266 7,12.058594 7,16 l -2,0 0,1 3,0 0,-5.441406 1,-0.5 L 9,12 l 1.960938,0 c -0.08868,0.895032 -0.391653,1.61152 -0.792969,2.306641 -0.4973153,0.8613 -1.5097659,1.830078 -1.5097659,1.830078 l 0.6835938,0.728515 c 0,0 1.0706891,-0.983593 1.6914061,-2.058593 C 11.481893,14.02943 11.862844,13.118701 11.958984,12 L 14,12 l 0,5 1,0 0,-5 2,0 0,-1 -2,0 0,-3 2,0 0,-1 -2.375,0 1.275391,-1.6992188 -0.800782,-0.5996093 -1.5,2 L 13.998047,7 l -1.996094,0 0.398438,-0.2988281 -1.5,-2 z M 12,8 l 2,0 0,3 -2,0 0,-3 z"
       style="fill:currentColor;fill-opacity:1;stroke:none" />
    <rect
       y="0"
       x="0"
       height="22"
       width="22"
       id="rect4138"
       style="fill:none;fill-opacity:1;stroke:none" />
  </g>
  <g
     id="fcitx-shuangpin"
     transform="translate(44,8e-6)">
    <path
       id="path6-1"
       class="ColorScheme-Text"
       d="M 3,3.0019531 3,19 l 16,0 0,-15.9980469 -16,0 z M 4,4 18,4 18,18 4,18 4,4 Z M 5,5 5,6 9.4277344,6 C 9.3567399,6.6433848 9.1095505,8.7368774 8.5585938,10.642578 7.8640436,9.6798255 7.0718951,8.6616876 5.890625,7.1875 l -0.78125,0.6269531 c 1.4174333,1.768857 2.2870807,2.8838839 3.0527344,3.9902349 -1.2932813,3.342269 -3.2636719,4.656249 -3.2636719,4.65625 l 0.5566406,0.832031 c 0,0 1.9707929,-1.362982 3.3652344,-4.488281 0.4371629,0.686564 0.8829906,1.421585 1.4218755,2.375 l 0.86914,-0.490235 C 10.412442,13.452965 9.856111,12.550817 9.2734375,11.677734 10.169908,9.0698901 10.498047,5.5488281 10.498047,5.5488281 L 10.548828,5 5,5 Z m 6,0 0,1 0.589844,0 c 0.101934,0.5915985 0.552462,3.1367245 1.310547,5.09375 0.265281,0.684811 0.549026,1.343749 0.886718,1.992188 -1.288059,2.041728 -3.068359,3.142578 -3.068359,3.142578 l 0.517578,0.855468 c 0,0 1.710317,-1.050173 3.103516,-3.037109 0.655672,1.023639 1.52165,2.030149 2.802734,3.064453 l 0.626953,-0.779297 c -1.383561,-1.117032 -2.21998,-2.147051 -2.84375,-3.230469 0.12558,-0.227385 0.256224,-0.447093 0.367188,-0.693359 C 16.167139,10.468103 17,7.6466006 17,5.5 L 17,5 11,5 Z m 1.607422,1 3.316406,0 c -0.108623,1.8531004 -0.786023,4.318047 -1.542969,5.998047 -0.0025,0.0055 -0.0053,0.01017 -0.0078,0.01563 -0.18806,-0.413838 -0.365555,-0.833366 -0.539063,-1.28125 C 13.175782,9.0332602 12.746688,6.7654286 12.607422,6 Z"
       style="fill:currentColor;fill-opacity:1;stroke:none" />
    <rect
       y="0"
       x="0"
       height="22"
       width="22"
       id="rect4138-4"
       style="fill:none;fill-opacity:1;stroke:none" />
  </g>
  <g
     id="fcitx-wubi"
     transform="translate(154,8e-6)">
    <path
       id="path6-6"
       class="ColorScheme-Text"
       d="M 3,3.0019531 3,19 19,19 19,3.0019531 Z M 4,4 18,4 18,18 4,18 Z M 6,6 6,7 9.8769531,7 9.2109375,10 7,10 7,11 8.9882812,11 8.0996094,15 6,15 l 0,1 10,0 0,-1 -2,0 0,-5 -3.763672,0 L 10.902344,7 15,7 15,6 Z M 10.013672,11 13,11 l 0,4 -3.8769531,0 z"
       style="fill:currentColor;fill-opacity:1;stroke:none" />
    <rect
       y="0"
       x="0"
       height="22"
       width="22"
       id="rect4138-8"
       style="fill:none;fill-opacity:1;stroke:none" />
  </g>
  <g
     id="fcitx-googlepinyin"
     transform="translate(0,44.000008)">
    <path
       id="path6-12"
       class="ColorScheme-Text"
       d="M 3,3.0019531 3,19 l 16,0 0,-15.9980469 -16,0 z M 4,4 18,4 18,18 4,18 4,4 Z m 6.898438,1.5039062 C 9.6042556,5.5279065 8.3182667,6.0036341 7.3007812,6.9277344 5.2658109,8.775735 4.9123412,11.865153 6.4746094,14.126953 8.0368776,16.388753 11.051478,17.149791 13.5,15.900391 15.689334,14.783333 16.832231,12.354748 16.398438,10 l -2.056641,0 c 7.82e-4,0.0026 0.0012,0.0052 0.002,0.0078 l -3.34375,0 0,2 3.335938,0 c -0.262982,0.884961 -0.864025,1.661241 -1.746094,2.111329 -1.569389,0.8008 -3.4693016,0.320896 -4.4707034,-1.128907 C 7.1177389,11.540434 7.3421217,9.5928037 8.6464844,8.4082031 9.9508467,7.2237028 11.909227,7.1880182 13.255859,8.3242188 L 14.546875,6.7949219 C 13.496412,5.9086216 12.192617,5.4804062 10.898438,5.5039062 Z"
       style="fill:currentColor;fill-opacity:1;stroke:none" />
    <rect
       y="0"
       x="0"
       height="22"
       width="22"
       id="rect4147-4"
       style="fill:none;fill-opacity:1;stroke:none" />
  </g>
  <g
     id="fcitx-pinyin-libpinyin"
     transform="translate(0,22.000008)">
    <path
       id="path6-4"
       class="ColorScheme-Text"
       d="M 3,3 3,19 19,19 19,3 3,3 Z m 7.900391,1.7011719 1.5,2 L 12.001953,7 l 1.996094,0 -0.398438,-0.2988281 1.5,-2 0.800782,0.5996093 L 14.625,7 17,7 l 0,1 -2,0 0,3 2,0 0,1 -2,0 0,5 -1,0 0,-5 -2.041016,0 c -0.09614,1.118701 -0.477091,2.02943 -0.925781,2.806641 -0.620717,1.075 -1.6914061,2.058593 -1.6914061,2.058593 L 8.6582031,16.136719 c 0,0 1.0124506,-0.968778 1.5097659,-1.830078 C 10.569285,13.61152 10.872261,12.895032 10.960938,12 L 9,12 l 0,-0.941406 -1,0.5 L 8,17 5,17 5,16 7,16 7,12.058594 5.2226562,12.947266 4.7773438,12.052734 7,10.941406 7,8 5,8 5,7 7,7 7,5 8,5 8,7 9,7 9,8 8,8 8,10.441406 8.7773438,10.052734 9.2226562,10.947266 9.1171875,11 11,11 11,8 10,8 10,7 11.375,7 10.099609,5.3007812 10.900391,4.7011719 Z M 12,8 l 0,3 2,0 0,-3 -2,0 z"
       style="fill:currentColor;fill-opacity:1;stroke:none" />
    <rect
       y="0"
       x="0"
       height="22"
       width="22"
       id="rect4138-2"
       style="fill:none;fill-opacity:1;stroke:none" />
  </g>
  <g
     id="fcitx-shuangpin-libpinyin"
     transform="translate(44,22.000008)">
    <path
       id="path6-3"
       class="ColorScheme-Text"
       d="M 3,3 3,19 19,19 19,3 3,3 Z m 2,2 5.548828,0 -0.05078,0.5488281 c 0,0 -0.328139,3.521106 -1.2246095,6.1289059 0.5826734,0.8731 1.1390045,1.775219 1.8378905,3.011719 l -0.86914,0.490235 c -0.5388845,-0.953401 -0.9847126,-1.6884 -1.4218755,-2.375 -1.3944413,3.1253 -3.3652344,4.488281 -3.3652344,4.488281 L 4.8984375,16.460938 c 0,0 1.9703908,-1.31395 3.2636719,-4.65625 C 7.3964558,10.698287 6.5268081,9.5832533 5.109375,7.8144531 L 5.890625,7.1875 C 7.0718949,8.6617002 7.8640436,9.679778 8.5585938,10.642578 9.1095504,8.7368779 9.3567404,6.6434001 9.4277344,6 L 5,6 5,5 Z m 6,0 6,0 0,0.5 c 0,2.1466003 -0.832862,4.968103 -1.707031,6.908203 -0.110964,0.2463 -0.241608,0.465959 -0.367188,0.693359 0.62377,1.083401 1.46019,2.113469 2.84375,3.230469 l -0.626953,0.779297 c -1.281085,-1.0343 -2.147062,-2.040853 -2.802734,-3.064453 -1.393199,1.9869 -3.103516,3.037109 -3.103516,3.037109 L 10.71875,16.228516 c 0,0 1.7803,-1.100778 3.068359,-3.142578 C 13.449417,12.437537 13.165672,11.77865 12.900391,11.09375 12.142306,9.1367498 11.691778,6.5916001 11.589844,6 L 11,6 11,5 Z m 1.607422,1 c 0.139266,0.7654001 0.568348,3.0333217 1.226562,4.732422 0.173508,0.4479 0.351003,0.86735 0.539063,1.28125 0.0025,-0.006 0.0053,-0.0056 0.0078,-0.01563 0.756947,-1.68 1.434346,-4.1449468 1.542969,-5.998047 l -3.316406,0 z"
       style="fill:currentColor;fill-opacity:1;stroke:none" />
    <rect
       y="0"
       x="0"
       height="22"
       width="22"
       id="rect4138-44"
       style="fill:none;fill-opacity:1;stroke:none" />
  </g>
  <g
     id="fcitx-sunpinyin"
     transform="translate(22,44.000008)">
    <path
       id="path6-8"
       class="ColorScheme-Text"
       d="m 11,1.5136719 c -0.255619,0 -0.511163,0.099053 -0.707031,0.2949219 L 8.1015625,4 5,4 C 4.4459998,4 4,4.4459998 4,5 L 4,8.0996094 1.8066406,10.292969 c -0.3917372,0.391737 -0.3917372,1.022325 0,1.414062 L 4,13.900391 4,17 c 0,0.554 0.4459998,1 1,1 l 3.0996094,0 2.1933596,2.193359 c 0.391737,0.391738 1.022325,0.391738 1.414062,0 L 13.900391,18 17,18 c 0.554,0 1,-0.446 1,-1 l 0,-3.101562 2.191406,-2.191407 c 0.391737,-0.391737 0.391737,-1.022325 0,-1.414062 L 18,8.1015625 18,5 C 18,4.4459998 17.554,4 17,4 L 13.898438,4 11.707031,1.8085938 C 11.511163,1.612725 11.255619,1.5136719 11,1.5136719 Z m -0.09961,3.1875 1.5,2 L 12.001953,7 l 1.996094,0 -0.398438,-0.2988281 1.5,-2 0.800782,0.5996093 L 14.625,7 17,7 l 0,1 -2,0 0,3 2,0 0,1 -2,0 0,5 -1,0 0,-5 -2.041016,0 c -0.09614,1.118701 -0.477091,2.02943 -0.925781,2.806641 -0.620717,1.075 -1.6914061,2.058593 -1.6914061,2.058593 L 8.6582031,16.136719 c 0,0 1.0124506,-0.968778 1.5097659,-1.830078 C 10.569285,13.61152 10.872261,12.895032 10.960938,12 L 9,12 l 0,-0.941406 -1,0.5 L 8,17 5,17 5,16 7,16 7,12.058594 5.2226562,12.947266 4.7773438,12.052734 7,10.941406 7,8 5,8 5,7 7,7 7,5 8,5 8,7 9,7 9,8 8,8 8,10.441406 8.7773438,10.052734 9.2226562,10.947266 9.1171875,11 11,11 11,8 10,8 10,7 11.375,7 10.099609,5.3007812 10.900391,4.7011719 Z M 12,8 l 0,3 2,0 0,-3 -2,0 z"
       style="fill:currentColor;fill-opacity:1;stroke:none" />
    <rect
       y="0"
       x="0"
       height="22"
       width="22"
       id="rect4138-6"
       style="fill:none;fill-opacity:1;stroke:none" />
  </g>
  <g
     id="fcitx-emoji"
     transform="translate(0,-37.999992)">
    <rect
       style="fill:none;fill-opacity:1;stroke:none"
       id="rect4372"
       width="22"
       height="22"
       x="-2.4709701e-09"
       y="170" />
    <path
       class="ColorScheme-Text"
       style="fill:currentColor;fill-opacity:1;stroke:none"
       d="m 3.2226562,150.05273 -0.4453124,0.89454 4,2 0.4453124,-0.89454 -4,-2 z m 15.5546878,0 -4,2 0.445312,0.89454 4,-2 -0.445312,-0.89454 z M 4,153 a 1,1 0 0 0 -1,1 1,1 0 0 0 1,1 1,1 0 0 0 1,-1 1,1 0 0 0 -1,-1 z m 14,0 a 1,1 0 0 0 -1,1 1,1 0 0 0 1,1 1,1 0 0 0 1,-1 1,1 0 0 0 -1,-1 z m -9.9003906,1.69922 c -0.81,1.08 -1.2349527,2.28879 -1.1601563,3.33594 0.037398,0.52357 0.2100311,1.02143 0.5683594,1.39062 C 7.8661408,159.79497 8.3958333,160 9,160 c 0.9612309,0 1.638831,-0.68084 2,-1.45703 0.361169,0.77619 1.038769,1.45703 2,1.45703 0.604167,0 1.133858,-0.20503 1.492188,-0.57422 0.358328,-0.36919 0.530961,-0.86705 0.568359,-1.39062 0.0748,-1.04715 -0.350156,-2.25594 -1.160156,-3.33594 l -0.800782,0.60156 c 0.69,0.92 1.015048,1.96121 0.964844,2.66406 -0.0251,0.35143 -0.13372,0.60357 -0.291015,0.76563 C 13.616141,158.89253 13.395833,159 13,159 12.472222,159 12.15973,158.6932 11.892578,158.10547 11.625426,157.51773 11.5,156.69444 11.5,156 l -1,0 c 0,0.69444 -0.125426,1.51773 -0.392578,2.10547 C 9.84027,158.6932 9.5277778,159 9,159 c -0.3958333,0 -0.6161408,-0.10747 -0.7734375,-0.26953 -0.1572967,-0.16206 -0.2659138,-0.4142 -0.2910156,-0.76563 -0.050204,-0.70285 0.2748437,-1.74406 0.9648437,-2.66406 l -0.8007812,-0.60156 z"
       transform="translate(0,26)"
       id="path4549" />
  </g>
  <g
     id="fcitx-erbi"
     transform="translate(132,8e-6)">
    <path
       id="rect4205"
       d="M 3,3 3,3.5 3,19 19,19 19,3 3,3 Z M 4,4 18,4 18,18 4,18 4,4 Z M 6,7 6,8 16,8 16,7 6,7 Z m -1,7 0,1 12,0 0,-1 -12,0 z"
       class="ColorScheme-Text"
       style="fill:currentColor;fill-opacity:1;stroke:none" />
    <rect
       y="0"
       x="0"
       height="22"
       width="22"
       id="rect4219"
       style="fill:none;fill-opacity:1;stroke:none;stroke-linejoin:miter" />
  </g>
  <g
     id="fcitx-ziranma"
     transform="translate(198,8e-6)">
    <path
       class="ColorScheme-Text"
       style="fill:currentColor;fill-opacity:1;stroke:none"
       d="M 3,3 3,19 19,19 19,3 3,3 Z M 4,4 18,4 18,18 4,18 4,4 Z M 9.6796875,4.6152344 6.8183594,7 6,7 6,17 7,17 15.5,17 16,17 16,7 8.3828125,7 10.320312,5.3847656 9.6796875,4.6152344 Z M 7,8 l 8,0 0,8 -8,0 0,-2 6,0 0,-1 -6,0 0,-2 6,0 0,-1 -6,0 0,-2 z"
       id="path4227" />
    <rect
       style="fill:none;fill-opacity:1;stroke:none;stroke-linejoin:miter"
       id="rect4229"
       width="22"
       height="22"
       x="0"
       y="0" />
  </g>
  <g
     id="fcitx-quanpin"
     transform="translate(22,8e-6)">
    <path
       class="ColorScheme-Text"
       style="fill:currentColor;fill-opacity:1;stroke:none"
       d="M 3,3 3,19 19,19 19,3 3,3 Z M 4,4 18,4 18,18 4,18 4,4 Z m 6.509766,0.9023438 C 10.323881,5.8317693 8.9615007,6.9634215 7.5664062,7.7519531 6.1713119,8.5404847 4.8300781,9.0292969 4.8300781,9.0292969 l 0.3398438,0.9414062 c 0,0 0.8013817,-0.2932064 1.8300781,-0.7949219 L 7,10 l 3.5,0 0,2 -2.5,0 0,1 2.5,0 0,3 -4.5,0 0,1 10,0 0,-1 -4.5,0 0,-3 2.5,0 0,-1 -2.5,0 0,-2 3.5,0 0,-0.8691406 C 16.015788,9.6469945 16.824219,9.96875 16.824219,9.96875 l 0.351562,-0.9375 c 0,0 -3.856017,-1.4980606 -5.732422,-3.7871094 0.01285,-0.049766 0.03674,-0.095781 0.04687,-0.1464844 L 10.509766,4.9023438 Z M 11,6.2324219 C 12.116196,7.4472455 13.543014,8.3695184 14.734375,9 L 7.3378906,9 C 7.5754268,8.8790495 7.8107881,8.7631109 8.0585938,8.6230469 9.1538606,8.0039829 10.332412,7.2293319 11,6.2324219 Z"
       id="path4261" />
    <rect
       y="0"
       x="0"
       height="22"
       width="22"
       id="rect4263"
       style="fill:none;fill-opacity:1;stroke:none;stroke-linejoin:miter" />
  </g>
  <g
     id="fcitx-cangjie"
     transform="translate(220,8e-6)">
    <path
       class="ColorScheme-Text"
       style="fill:currentColor;fill-opacity:1;stroke:none"
       d="m 179,15 0,16 16,0 0,-16 -16,0 z m 1,1 14,0 0,14 -14,0 0,-14 z m 6.58398,0.722656 c -1.84354,2.765319 -5.64648,3.28125 -5.64648,3.28125 l 0.125,0.992188 c 0,0 0.83386,-0.123824 1.9375,-0.535156 L 183,24.5 c 0,0.833333 -0.45395,1.912573 -0.93359,2.751953 -0.47965,0.83938 -0.95704,1.435547 -0.95703,1.435547 l 0.78124,0.625 c 0,0 0.52262,-0.653833 1.04297,-1.564453 0.0223,-0.03907 0.044,-0.08499 0.0664,-0.125 L 183,29 l 0.5,0 7.5,0 0,-3 -7.27539,0 c 0.107,-0.326656 0.17843,-0.661039 0.2207,-1 L 191,25 l 0,-4.539062 c 1.10364,0.411332 1.9375,0.535156 1.9375,0.535156 l 0.125,-0.992188 c 0,0 -3.80294,-0.515931 -5.64648,-3.28125 l -0.83204,0 z M 187,17.703125 c 0.85882,1.069604 1.93347,1.798543 2.93359,2.296875 l -2.43359,0 0.27734,-0.416016 -1.5,-1 -0.55468,0.832032 0.875,0.583984 -2.53125,0 C 185.06653,19.501668 186.14118,18.772729 187,17.703125 Z M 184,21 l 6,0 0,3 -6,0 0,-1 5,0 0,-1 -5,0 0,-1 z m 0,6 6,0 0,1 -6,0 0,-1 z"
       transform="translate(-176,-12)"
       id="path4280" />
    <rect
       style="fill:none;fill-opacity:1;stroke:none;stroke-linejoin:miter"
       id="rect4282"
       width="22"
       height="22"
       x="0"
       y="0" />
  </g>
  <g
     transform="translate(176,8e-6)"
     id="fcitx-wbpy">
    <path
       class="ColorScheme-Text"
       style="fill:currentColor;fill-opacity:1;stroke:none"
       d="M 28,98.001953 28,114 l 9,0 0,1 8,0 0,-10 -1,0 0,-6.998047 z M 29,99 l 14,0 0,6 -3.5,0 -4.263672,0 0.666016,-3 4.097656,0 0,-1 -9,0 0,1 3.876953,0 -0.666015,3 L 32,105 l 0,1 1.988281,0 -0.888672,4 L 31,110 l 0,1 6,0 0,2 -8,0 z m 6.013672,7 1.986328,0 0,4 -2.876953,0 z M 39,107 l 0.5,0 c 0.75,0 1.531712,-0.0168 2.220703,0.21289 0.344496,0.11483 0.676391,0.30519 0.916016,0.61328 C 42.876343,108.13426 43,108.54167 43,109 c 0,0.45833 -0.123657,0.86574 -0.363281,1.17383 -0.239625,0.30809 -0.57152,0.49845 -0.916016,0.61328 -0.533836,0.17794 -1.133444,0.15946 -1.720703,0.16406 L 40,113 l -1,0 z m 1,1.04297 0,1.91406 c 0.528068,-0.0121 1.082776,-0.012 1.404297,-0.11914 0.218004,-0.0727 0.354859,-0.16356 0.443359,-0.27734 C 41.93616,109.44676 42,109.29167 42,109 c 0,-0.29167 -0.06384,-0.44676 -0.152344,-0.56055 -0.0885,-0.11378 -0.225355,-0.20467 -0.443359,-0.27734 C 41.082776,108.05494 40.528068,108.05507 40,108.04297 Z"
       transform="translate(-25,-95)"
       id="path4312" />
    <rect
       style="fill:none;fill-opacity:1;stroke:none"
       id="rect4314"
       width="22"
       height="22"
       x="0"
       y="0" />
  </g>
  <g
     id="fcitx-quanpin-libpinyin"
     transform="translate(22,22.000008)">
    <path
       class="ColorScheme-Text"
       style="fill:currentColor;fill-opacity:1;stroke:none"
       d="m -22.5,-15 0,16 16,0 0,-16 -16,0 z m 7.509766,1.902344 0.980468,0.195312 c -0.01013,0.0507 -0.03402,0.09672 -0.04687,0.146485 1.876405,2.289048 5.7324222,3.787109 5.7324222,3.787109 l -0.3515624,0.9375 c -1e-7,0 -0.8084308,-0.3217555 -1.8242188,-0.8378906 L -10.5,-8 l -3.5,0 0,2 2.5,0 0,1 -2.5,0 0,3 4.5,0 0,1 -10,0 0,-1 4.5,0 0,-3 -2.5,0 0,-1 2.5,0 0,-2 -3.5,0 0,-0.8242188 c -1.028696,0.5017155 -1.830078,0.7949219 -1.830078,0.7949219 l -0.339844,-0.9414062 c 0,0 1.341234,-0.4888121 2.736328,-1.2773439 1.395095,-0.788531 2.757475,-1.920184 2.94336,-2.849609 z M -14.5,-11.767578 c -0.667588,0.99691 -1.846139,1.7715609 -2.941406,2.3906249 -0.247806,0.140064 -0.483167,0.2560026 -0.720703,0.3769531 l 7.396484,0 c -1.191361,-0.6304816 -2.618179,-1.552755 -3.734375,-2.767578 z"
       transform="translate(25.5,18)"
       id="path4202" />
    <rect
       style="fill:none;fill-opacity:1;stroke:none;stroke-linejoin:miter"
       id="rect4196"
       width="22"
       height="22"
       x="0"
       y="0" />
  </g>
  <g
     style="fill:#cccccc"
     transform="translate(66,0)"
     id="fcitx-bopomofo">
    <rect
       style="fill:none;fill-rule:evenodd;stroke:none;stroke-width:1px;stroke-linecap:butt;stroke-linejoin:miter;stroke-opacity:1"
       id="rect4212"
       width="22"
       height="22"
       x="0"
       y="0" />
    <path
       class="ColorScheme-Text"
       style="fill:currentColor;fill-opacity:1;stroke:none"
       d="m 91,37 0,16 16,0 0,-16 -16,0 z m 1,1 14,0 0,14 -14,0 0,-14 z m 7.300781,0.599609 -0.601562,0.800782 2.000001,1.5 0.60156,-0.800782 -1.999999,-1.5 z m -5.947265,0.04687 -0.707032,0.707032 2,2 0.707032,-0.707032 -2,-2 z M 96,41 l 0,1 4,0 0,3 -3,0 0,1 3,0 0,4 -4,0 0,1 9,0 0,-1 -4,0 0,-4 3,0 0,-1 -3,0 0,-3 4,0 0,-1 -9,0 z m -2.646484,0.646484 -0.707032,0.707032 2,2 0.707032,-0.707032 -2,-2 z m 1.171875,3.195313 -2,6 0.949218,0.316406 2,-6 -0.949218,-0.316406 z"
       transform="translate(-88,-33.999992)"
       id="path4214" />
  </g>
  <g
     transform="translate(88,8e-6)"
     id="fcitx-chewing">
    <path
       class="ColorScheme-Text"
       style="fill:currentColor;fill-opacity:1;stroke:none"
       d="m 91,37 0,0.5 0,15.5 16,0 0,-16 -16,0 z m 1,1 14,0 0,14 -14,0 0,-14 z m 1,1 0,1 1,0 0,3 -1,0 0,8 1,0 4.5,0 0.5,0 0,-8 -0.5,0 -1.5,0 0,-3 2,0 0,-1 -6,0 z m 6,4 0.400391,0.300781 c 0,0 0.398251,-0.511169 0.796879,-1.300781 L 102,42 l 0,2 -2,0 0,1 5,0 0,-1 -2,0 0,-2 2,0 0,-1 -2,0 0,-2 -1,0 0,2 -1.38281,0 C 100.83463,40.388658 101,39.708749 101,39 l -1,0 c 0,1.75 -1.400391,3.699219 -1.400391,3.699219 L 99,43 Z m -4,-3 1,0 0,3 -1,0 0,-3 z m 0,4 1,0 0,3 1,0 0,-3 1,0 0,6 -4,0 0,-1 3,0 0,-1 -3,0 0,-1 1,0 0,-3 z m 5,2 0,0.5 0,4.5 5,0 0,-5 -5,0 z m 1,1 3,0 0,3 -3,0 0,-3 z"
       id="path4265"
       transform="translate(-88,-34)" />
    <rect
       style="fill:none;fill-opacity:1;stroke:none;stroke-linejoin:miter"
       id="rect4267"
       width="22"
       height="22"
       x="0"
       y="0" />
  </g>
  <g
     id="fcitx-chewing-libpinyin"
     transform="translate(88,22.000008)">
    <path
       class="ColorScheme-Text"
       style="fill:currentColor;fill-opacity:1;stroke:none"
       d="m 91,37 0,0.5 0,15.5 16,0 0,-16 -16,0 z m 2,2 6,0 0,1 -2,0 0,3 1.5,0 0.5,0 -0.400391,-0.300781 C 98.599609,42.699219 100,40.75 100,39 l 1,0 c 0,0.708749 -0.16537,1.388658 -0.38281,2 L 102,41 l 0,-2 1,0 0,2 2,0 0,1 -2,0 0,2 2,0 0,1 -5,0 0,-1 2,0 0,-2 -1.80273,0 c -0.398628,0.789612 -0.796879,1.300781 -0.796879,1.300781 L 99,43 l 0,8 -0.5,0 -4.5,0 -1,0 0,-8 1,0 0,-3 -1,0 0,-1 z m 2,1 0,3 1,0 0,-3 -1,0 z m 0,4 0,3 -1,0 0,1 3,0 0,1 -3,0 0,1 4,0 0,-6 -1,0 0,3 -1,0 0,-3 -1,0 z m 5,2 5,0 0,5 -5,0 0,-4.5 0,-0.5 z m 1,1 0,3 3,0 0,-3 -3,0 z"
       transform="translate(-88,-34)"
       id="path4360" />
    <rect
       y="0"
       x="0"
       height="22"
       width="22"
       id="rect4353"
       style="fill:none;fill-opacity:1;stroke:none;stroke-linejoin:miter" />
  </g>
  <g
     transform="translate(110,8e-6)"
     id="fcitx-rime">
    <path
       class="ColorScheme-Text"
       style="fill:currentColor;fill-opacity:1;stroke:none"
       d="m 113,15 0,16 16,0 0,-16 -16,0 z m 1,1 14,0 0,14 -14,0 0,-14 z m 6,1 0,6.982422 c -1.81096,-0.08165 -2.72052,-0.606587 -3.26172,-1.492188 C 116.14843,21.525025 116,19.979167 116,18 l -1,0 c 0,2.020833 0.10157,3.724975 0.88672,5.009766 0.72658,1.188957 2.06293,1.873963 4.11328,1.970703 L 120,28 l -5,0 0,1 11,0 0,-1 -5,0 0,-3.019531 c 2.05035,-0.09674 3.3867,-0.781746 4.11328,-1.970703 C 125.89843,21.724975 126,20.020833 126,18 l -1,0 c 0,1.979167 -0.14843,3.525025 -0.73828,4.490234 -0.5412,0.885601 -1.45076,1.410542 -3.26172,1.492188 L 121,17 l -1,0 z"
       transform="translate(-110,-12)"
       id="path4365" />
    <rect
       style="fill:none;fill-opacity:1;stroke:none;stroke-linejoin:miter"
       id="rect4367"
       width="22"
       height="22"
       x="0"
       y="0" />
  </g>
  <g
     transform="translate(0,-59.999992)"
     id="fcitx-unikey">
    <rect
       y="170"
       x="-2.4709701e-09"
       height="22"
       width="22"
       id="rect4386"
       style="fill:none;fill-opacity:1;stroke:none" />
    <path
       class="ColorScheme-Text"
       style="fill:currentColor;fill-opacity:1;stroke:none"
       d="m 4,126 0,0.5 0,7.5 3,0 0,7 8,0 0,-7 3,0 0,-8 -6,0 -1,0 z m 1,1 6,0 0,6 -6,0 z m 7,0 5,0 0,6 -2,0 -3,0 z m -6,1 0,1.5 c 0,0.80556 0.1226409,1.42283 0.484375,1.875 C 6.8461091,131.82717 7.4166667,132 8,132 8.5833333,132 9.1538909,131.82717 9.515625,131.375 9.8773591,130.92283 10,130.30556 10,129.5 l 0,-1.5 -1,0 0,1.5 c 0,0.69444 -0.1273591,1.07717 -0.265625,1.25 C 8.5961091,130.92283 8.4166667,131 8,131 7.5833333,131 7.4038909,130.92283 7.265625,130.75 7.1273591,130.57717 7,130.19444 7,129.5 L 7,128 Z m 8,0 0,4 1,0 0,-4 z m -6,6 3,0 1,0 2,0 0,6 -6,0 z m 2,1 -1,0 0,4 1,0 0,-2.49805 2,2.49805 1,0 0,-4 -1,0 0,2.49805 z"
       transform="translate(0,48)"
       id="rect4402" />
  </g>
  <g
     id="fcitx-anthy"
     transform="translate(0,-103.99999)">
    <rect
       style="fill:none;fill-opacity:1;stroke:none"
       id="rect4431"
       width="22"
       height="22"
       x="-2.4709701e-09"
       y="170" />
    <path
       class="ColorScheme-Text"
       style="fill:currentColor;fill-opacity:1;stroke:none"
       d="m 11,173 c -1.0986472,0 -2,0.90135 -2,2 l 0,0.002 c 0.00127,0.60896 0.3333856,1.12216 0.7949219,1.4961 -0.1451277,0.97576 -0.372921,2.23303 -0.7695313,3.25586 -0.211868,0.54639 -0.4670557,1.01446 -0.734375,1.3164 C 8.0236963,181.37225 7.783792,181.5 7.5,181.5 7.2018151,181.5 6.9605212,181.38854 6.7070312,181.15234 6.4535413,180.91615 6.211675,180.55139 6.0058594,180.11523 5.6264439,179.3112 5.398232,178.29965 5.2441406,177.4707 5.6835044,177.09584 5.9995503,176.5918 6,176 c 0,-1.09865 -0.9013528,-2 -2,-2 -1.0986472,0 -2,0.90135 -2,2 9.876e-4,0.82143 0.564308,1.45548 1.2988281,1.75781 L 5.0800781,188 l 11.8398439,0 1.78125,-10.24023 C 19.436582,177.45711 20.000082,176.82244 20,176 c 0,-1.09865 -0.901353,-2 -2,-2 -1.098647,0 -2,0.90135 -2,2 4.5e-4,0.5918 0.316496,1.09584 0.755859,1.4707 -0.154091,0.82895 -0.382303,1.8405 -0.761718,2.64453 -0.205816,0.43616 -0.447682,0.80092 -0.701172,1.03711 C 15.039479,181.38854 14.798185,181.5 14.5,181.5 c -0.283716,0 -0.52375,-0.12794 -0.791016,-0.42969 -0.267266,-0.30174 -0.522495,-0.77029 -0.734375,-1.3164 C 12.577992,178.73163 12.3503,177.47582 12.205078,176.5 12.667324,176.12551 12.999524,175.6099 13,175 c 0,-1.09865 -0.901353,-2 -2,-2 z m 0,1 c 0.558207,0 1,0.44179 1,1 -3e-4,0.3835 -0.21765,0.73066 -0.5625,0.89844 l -0.326172,0.1582 0.04883,0.36133 c 0.145112,1.03434 0.406928,2.47067 0.882813,3.69726 0.237942,0.6133 0.527371,1.17816 0.917969,1.61914 0.390597,0.44099 0.920669,0.76563 1.539062,0.76563 0.575171,0 1.084763,-0.25198 1.474609,-0.61523 0.389847,-0.36326 0.683068,-0.83355 0.923829,-1.34375 0.403261,-0.85457 0.595886,-1.78757 0.759765,-2.61524 L 16.080078,187 5.9199219,187 4.34375,177.92773 c 0.1638928,0.82721 0.3549092,1.75948 0.7578125,2.61329 0.2407609,0.5102 0.5339819,0.98049 0.9238281,1.34375 C 6.4152368,182.24802 6.9248292,182.5 7.5,182.5 c 0.6185835,0 1.1503906,-0.32637 1.5410156,-0.76758 0.390625,-0.44121 0.6800565,-1.00363 0.9179688,-1.61719 0.4758246,-1.22711 0.7358526,-2.66508 0.8808596,-3.69921 l 0.04883,-0.36133 -0.326172,-0.15821 C 10.218615,175.72917 10.001472,175.38231 10,175 l 0,-0.002 C 10.001,174.44077 10.442451,174 11,174 Z m -7,1 c 0.5582071,0 1,0.44179 1,1 -2.85e-4,0.375 -0.2077182,0.71484 -0.5410156,0.88672 l -0.2929688,0.15234 -0.328125,-0.0547 C 3.3513935,176.90478 3.0005927,176.49296 3,176 c 0,-0.55821 0.4417929,-1 1,-1 z m 14,0 c 0.558207,0 1,0.44179 1,1 4.9e-5,0.49347 -0.350892,0.90665 -0.837891,0.98633 l -0.326171,0.0547 -0.294922,-0.1543 C 17.207718,176.71484 17.000285,176.375 17,176 c 0,-0.55821 0.441793,-1 1,-1 z"
       id="circle4437" />
  </g>
  <g
     transform="translate(22,-103.99999)"
     id="fcitx-libkkc">
    <rect
       y="170"
       x="-2.4709701e-09"
       height="22"
       width="22"
       id="rect4452"
       style="fill:none;fill-opacity:1;stroke:none" />
    <path
       class="ColorScheme-Text"
       style="fill:currentColor;fill-opacity:1;stroke:none"
       d="m 25,81 0,0.5 0,15.5 16,0 0,-16 -16,0 z m 1,1 14,0 0,14 -14,0 0,-14 z m 1,3 0,8 1,0 0,-2.292969 L 30.292969,93 31,93 31.707031,93 32,93 32,90.707031 34.292969,93 l 1.414062,0 -3,-3 3,-3 -1.414062,0 L 32,89.292969 32,85 31,85 31,87 30.292969,87 28,89.292969 28,85 27,85 Z m 10,2 c -0.583333,0 -1.110664,0.153634 -1.478516,0.521484 C 35.153633,87.889344 35,88.41667 35,89 l 0,2 c 0,0.58333 0.153633,1.110656 0.521484,1.478516 C 35.889336,92.846366 36.416667,93 37,93 37.583333,93 38.110664,92.846366 38.478516,92.478516 38.846367,92.110656 39,91.58333 39,91 l -1,0 c 0,0.41667 -0.09637,0.639344 -0.228516,0.771484 C 37.639336,91.903634 37.416667,92 37,92 36.583333,92 36.360664,91.903604 36.228516,91.771484 36.096367,91.639344 36,91.41667 36,91 l 0,-2 c 0,-0.41667 0.09637,-0.639344 0.228516,-0.771484 C 36.360664,88.096366 36.583333,88 37,88 c 0.416667,0 0.639336,0.0964 0.771484,0.228516 C 37.903633,88.360656 38,88.58333 38,89 l 1,0 C 39,88.41667 38.846367,87.889344 38.478516,87.521484 38.110664,87.153634 37.583333,87 37,87 Z m -6,0.707031 0,4.585938 L 28.707031,90 31,87.707031 Z"
       transform="translate(-22,92)"
       id="rect4456" />
  </g>
  <g
     id="fcitx-libskk"
     transform="translate(44.021484,-103.97851)">
    <rect
       style="fill:none;fill-opacity:1;stroke:none"
       id="rect4493"
       width="22"
       height="22"
       x="-2.4709701e-09"
       y="170" />
    <path
       class="ColorScheme-Text"
       style="fill:currentColor;fill-opacity:1;stroke:none"
       d="m 47.021484,81.021484 0,0.5 0,15.5 16,0 0,-16 -16,0 z m 1,1 14,0 0,14 -14,0 0,-14 z M 53,85 l 0,3 0,3 0,2 1,0 0,-2.292969 L 56.292969,93 57,93 57.707031,93 58,93 58,90.707031 60.292969,93 l 1.414062,0 -3,-3 3,-3 -1.414062,0 L 58,89.292969 58,85 57,85 57,87 56.292969,87 54,89.292969 54,85 53,85 Z m 0,6 C 53,90.41666 52.846367,89.889334 52.478516,89.521484 52.110665,89.153634 51.583333,89 51,89 50.583333,89 50.360665,88.903604 50.228516,88.771484 50.096367,88.639334 50,88.41666 50,88 50,87.58333 50.096367,87.360666 50.228516,87.228516 50.360665,87.096366 50.583333,87 51,87 c 0.416667,0 0.639335,0.09641 0.771484,0.228516 C 51.903633,87.360666 52,87.58333 52,88 l 1,0 C 53,87.41666 52.846367,86.889334 52.478516,86.521484 52.110665,86.153634 51.583333,86 51,86 50.416667,86 49.889335,86.153634 49.521484,86.521484 49.153633,86.889334 49,87.41666 49,88 c 0,0.58333 0.153633,1.110666 0.521484,1.478516 C 49.889335,89.846366 50.416667,90 51,90 c 0.416667,0 0.639335,0.09641 0.771484,0.228516 C 51.903633,90.360666 52,90.58333 52,91 52,91.41666 51.90363,91.639334 51.771484,91.771484 51.639335,91.903634 51.416667,92 51,92 50.583333,92 50.360665,91.903604 50.228516,91.771484 50.096367,91.639334 50,91.41666 50,91 l -1,0 c 0,0.58333 0.153633,1.110666 0.521484,1.478516 C 49.889335,92.846366 50.416667,93 51,93 51.583333,93 52.110665,92.846366 52.478516,92.478516 52.846367,92.110666 53,91.58333 53,91 Z m 4,-3.292969 0,4.585938 L 54.707031,90 57,87.707031 Z"
       transform="translate(-44.021484,91.978516)"
       id="path4495" />
  </g>
  <g
     id="fcitx-hangul"
     transform="translate(0,-81.999992)">
    <rect
       style="fill:none;fill-opacity:1;stroke:none"
       id="rect4504"
       width="22"
       height="22"
       x="-2.4709701e-09"
       y="170" />
    <path
       class="ColorScheme-Text"
       style="fill:currentColor;fill-opacity:1;stroke:none"
       d="m 3,103 0,0.5 0,15.5 16,0 0,-16 -16,0 z m 1,1 14,0 0,14 -14,0 0,-14 z m 4,1 0,1 2,0 0,-1 -2,0 z m 6,1 0,8 1,0 0,-4 2,0 0,-1 -2,0 0,-3 -1,0 z m -8,1 0,1 6,0 0,-1 -6,0 z m 3,2 c -1.5968879,0 -3,1.05766 -3,2.5 0,1.44234 1.4031121,2.5 3,2.5 1.596888,0 3,-1.05766 3,-2.5 0,-1.44234 -1.403112,-2.5 -3,-2.5 z m 0,1 c 1.164536,0 2,0.73321 2,1.5 0,0.76679 -0.835464,1.5 -2,1.5 -1.1645358,0 -2,-0.73321 -2,-1.5 0,-0.76679 0.8354642,-1.5 2,-1.5 z m -1,5 0,2 8,0 0,-1 -7,0 0,-1 -1,0 z"
       transform="translate(0,70)"
       id="path4506" />
  </g>
  <g
     id="fcitx-fullwidth-active"
     transform="translate(132,-81.999973)">
    <rect
       style="fill:none;fill-opacity:1;stroke:none"
       id="rect4214"
       width="22"
       height="22"
       x="-2.4709701e-09"
       y="170" />
    <ellipse
       class="ColorScheme-Text"
       style="fill:currentColor;fill-opacity:1;stroke:none"
       id="path4218"
       cx="11"
       cy="181"
       rx="8"
       ry="7.9999995" />
  </g>
  <g
     transform="translate(154,-81.999973)"
     id="fcitx-fullwidth-inactive">
    <rect
       y="170"
       x="-2.4709701e-09"
       height="22"
       width="22"
       id="rect4222"
       style="fill:none;fill-opacity:1;stroke:none" />
    <path
       class="ColorScheme-Text"
       style="fill:currentColor;fill-opacity:1;stroke:none"
       d="M 167.56641 91.431641 A 8 7.9999995 0 0 1 168 94 A 8 7.9999995 0 0 1 160 102 A 8 7.9999995 0 0 1 157.43359 101.56836 A 8 7.9999995 0 0 0 165 107 A 8 7.9999995 0 0 0 173 99 A 8 7.9999995 0 0 0 167.56641 91.431641 z "
       transform="translate(-154,81.999973)"
       id="ellipse4224" />
  </g>
  <g
     transform="translate(154,-59.999974)"
     id="fcitx-punc-inactive">
    <rect
       y="170"
       x="-2.4709701e-09"
       height="22"
       width="22"
       id="rect4231"
       style="fill:none;fill-opacity:1;stroke:none" />
    <circle
       cy="180.5"
       cx="7.5"
       id="ellipse4233"
       class="ColorScheme-Text"
       style="fill:currentColor;fill-opacity:1;stroke:none"
       r="1.5" />
    <path
       class="ColorScheme-Text"
       style="fill:currentColor;fill-opacity:1;stroke:none"
       d="m 14.5,178.99997 a 1.5,1.5 0 0 0 -1.5,1.5 1.5,1.5 0 0 0 1.5,1.5 1.5,1.5 0 0 0 0.04688,-0.002 c -0.53325,0.93921 -1.34766,1.60156 -1.34766,1.60156 l 0.60156,0.80078 c 0,0 1.96734,-1.42635 2.16211,-3.57226 A 1.5,1.5 0 0 0 16,180.49997 a 1.5,1.5 0 0 0 -1.5,-1.5 z"
       id="circle4235" />
  </g>
  <g
     id="fcitx-punc-active"
     transform="translate(132,-59.999974)">
    <path
       class="ColorScheme-Text"
       style="fill:currentColor;fill-opacity:1;stroke:none"
       d="m 7.5,178 c -1.3747895,0 -2.5,1.12521 -2.5,2.5 0,1.37479 1.1252105,2.5 2.5,2.5 1.3747895,0 2.5,-1.12521 2.5,-2.5 0,-1.37479 -1.1252105,-2.5 -2.5,-2.5 z m 0,1 C 8.3343495,179 9,179.66565 9,180.5 9,181.33435 8.3343495,182 7.5,182 6.6656505,182 6,181.33435 6,180.5 6,179.66565 6.6656505,179 7.5,179 Z"
       id="path4251" />
    <rect
       style="fill:none;fill-opacity:1;stroke:none"
       id="rect4245"
       width="22"
       height="22"
       x="-2.4709701e-09"
       y="170" />
    <path
       class="ColorScheme-Text"
       style="fill:currentColor;fill-opacity:1;stroke:none"
       d="m 212.5,96 c -1.37479,0 -2.5,1.12521 -2.5,2.5 0,1.37479 1.12521,2.5 2.5,2.5 0.36519,0 0.70988,-0.0842 1.02344,-0.22656 -0.34093,0.6932 -0.81988,1.1673 -1.30664,1.50195 -0.89509,0.61537 -1.7793,0.72852 -1.7793,0.72852 l 0.125,0.99218 c 0,0 1.11579,-0.13685 2.2207,-0.89648 C 213.88812,102.33998 215,100.89815 215,98.5 215,97.12521 213.87479,96 212.5,96 Z m 0,1 c 0.83435,0 1.5,0.66565 1.5,1.5 0,0.83435 -0.66565,1.5 -1.5,1.5 -0.83435,0 -1.5,-0.66565 -1.5,-1.5 0,-0.83435 0.66565,-1.5 1.5,-1.5 z"
       transform="translate(-198,81.999973)"
       id="path4255" />
  </g>
  <g
     transform="translate(132,-37.999975)"
     id="fcitx-chttrans-inactive">
    <rect
       y="170"
       x="-2.4709701e-09"
       height="22"
       width="22"
       id="rect4264"
       style="fill:none;fill-opacity:1;stroke:none" />
    <path
       class="ColorScheme-Text"
       style="fill:currentColor;fill-opacity:1;stroke:none"
       d="m 138.81055,113.40625 c -0.50782,1.36719 -1.34766,2.59765 -2.51953,3.69141 l 0.99609,0.76172 c 0.19531,-0.0391 0.74219,-0.72266 1.64062,-2.05079 l 0.76172,0 c 0.42969,0.625 0.80078,1.26953 1.11328,1.9336 l 1.17188,-0.64453 -0.9375,-1.28907 2.05078,0 0,-1.11328 -3.63281,0 0.46875,-0.9375 -1.11328,-0.35156 z m 6.03515,0 c -0.46875,1.32813 -1.26953,2.53907 -2.40234,3.63281 l 0.99609,0.76172 c 0.66407,-0.625 1.17188,-1.28906 1.52344,-1.99219 l 0.99609,0 c 0.42969,0.58594 0.80079,1.21094 1.11329,1.875 l 1.05468,-0.64453 c -0.27343,-0.42968 -0.5664,-0.83984 -0.8789,-1.23047 l 2.46093,0 0,-1.11328 -4.16015,0 c 0.15625,-0.3125 0.29297,-0.625 0.41015,-0.9375 l -1.11328,-0.35156 z m -5.44922,4.10156 -0.99609,0.58594 c 0.54688,0.54687 0.95703,1.09375 1.23047,1.64063 l 1.11328,-0.58594 c -0.35156,-0.58594 -0.80078,-1.13281 -1.34766,-1.64063 z m 1.99219,0.52735 0,0.99609 6.38672,0 0,6.03516 c 0,0.54687 -0.13672,0.82031 -0.41016,0.82031 -0.39062,0 -0.89843,-0.0195 -1.52343,-0.0586 l 0.29297,1.11329 c 0.54687,0.0391 1.01562,0.0586 1.40625,0.0586 0.46875,0 0.82031,-0.13672 1.05468,-0.41016 0.23438,-0.27343 0.35157,-0.66406 0.35157,-1.17187 l 0,-7.38281 -7.5586,0 z m -3.98437,1.58203 0,7.38281 1.17187,0 0,-7.38281 -1.17187,0 z m 2.87109,0.64453 0,5.03906 5.39063,0 0,-5.03906 -5.39063,0 z m 1.11328,0.99609 3.16406,0 0,0.9961 -3.16406,0 0,-0.9961 z m 0,1.9336 3.16406,0 0,1.11328 -3.16406,0 0,-1.11328 z M 135,128 l 0,1 16,0 0,-1 -16,0 z"
       transform="translate(-132,59.999974)"
       id="path4368" />
  </g>
  <g
     id="fcitx-chttrans-active"
     transform="translate(154,-37.999975)">
    <rect
       style="fill:none;fill-opacity:1;stroke:none"
       id="rect4343"
       width="22"
       height="22"
       x="-2.4709701e-09"
       y="170" />
    <path
       class="ColorScheme-Text"
       style="fill:currentColor;fill-opacity:1;stroke:none"
       d="m 160.01953,113.46484 c -0.3125,0.70313 -0.89844,1.38672 -1.75781,2.05078 l 0.82031,0.64454 c 0.39063,-0.27344 0.76172,-0.64453 1.11328,-1.11328 l 5.44922,0 0,-0.87891 -4.86328,0 c 0.0391,-0.11719 0.0977,-0.2539 0.17578,-0.41016 l -0.9375,-0.29297 z m 7.14844,0 c -0.39063,1.25 -1.01563,2.36328 -1.875,3.33985 l 0.70312,0.76172 0.58594,-0.70313 c 0.35156,0.58594 0.76172,1.09375 1.23047,1.52344 -0.625,0.50781 -1.36719,0.95704 -2.22656,1.34766 l 0.82031,0.8789 c 0.85938,-0.46875 1.60156,-0.95703 2.22656,-1.46484 0.70313,0.54687 1.48438,1.03515 2.34375,1.46484 l 0.76172,-0.9375 c -0.9375,-0.39063 -1.73828,-0.82031 -2.40234,-1.28906 0.66406,-0.74219 1.13281,-1.58203 1.40625,-2.51953 l 0.82031,0 0,-0.9961 -3.86719,0 0.46875,-1.11328 -0.99609,-0.29297 z m -7.26563,2.28516 -0.35156,1.69922 -1.17187,0 0,0.9375 0.99609,0 -0.35156,1.75781 4.39453,0 0,0.35156 0.99609,0 0.0586,-0.35156 0.52734,0 0,-0.87891 -0.46875,0 0.11719,-0.8789 0.9375,0 0,-0.9375 -0.82032,0 L 165,115.75 l -5.09766,0 z m 7.32422,0.11719 2.40235,0 c -0.19532,0.66406 -0.54688,1.28906 -1.05469,1.875 -0.50781,-0.50782 -0.97656,-1.09375 -1.40625,-1.75781 0.0391,-0.0391 0.0586,-0.0781 0.0586,-0.11719 z m -6.44531,0.70312 0.76172,0 c 0.19531,0.23438 0.39062,0.52734 0.58594,0.87891 l -1.52344,0 0.17578,-0.87891 z m 1.69922,0 1.46484,0 -0.11719,0.87891 -0.76171,0 -0.58594,-0.87891 z m -1.99219,1.81641 0.76172,0 c 0.19531,0.23437 0.41016,0.52735 0.64453,0.8789 l -1.58203,0 0.17578,-0.8789 z m 1.75781,0 1.46485,0 -0.17578,0.8789 -0.76172,0 c -0.15625,-0.3125 -0.33203,-0.60547 -0.52735,-0.8789 z m 5.6836,1.93359 c -1.25,0.74219 -2.10938,1.15234 -2.57813,1.23047 -0.70312,0.11719 -1.95312,0.19531 -3.75,0.23438 0.625,-0.19532 1.25,-0.48828 1.875,-0.87891 l -0.76172,-0.52734 c -0.78125,0.54687 -1.75781,0.97656 -2.92968,1.28906 l 0.11718,0.82031 c 1.17188,0 2.36328,-0.0391 3.57422,-0.11719 -1.25,0.46876 -2.77344,0.87891 -4.57031,1.23047 l 0.17578,0.9375 c 1.75781,0 3.53516,-0.0586 5.33203,-0.17578 l 0,1.23047 c 0,0.3125 -0.11718,0.46875 -0.35156,0.46875 -0.42969,0 -0.85937,-0.0586 -1.28906,-0.17578 l 0.17578,1.05469 c 0.35156,0.0781 0.72265,0.11718 1.11328,0.11718 0.625,0 1.03516,-0.0977 1.23047,-0.29297 0.19531,-0.1953 0.29297,-0.52734 0.29297,-0.99609 l 0,-1.52344 c 1.32812,-0.11718 2.65625,-0.27343 3.98437,-0.46875 0.3125,0.3125 0.58594,0.64453 0.82031,0.9961 l 1.11329,-0.52735 c -0.78125,-0.9375 -1.71875,-1.79687 -2.8125,-2.57812 l -1.05469,0.46875 c 0.42969,0.27343 0.82031,0.58593 1.17187,0.9375 -1.5625,0.3125 -3.96484,0.52734 -7.20703,0.64453 2.61719,-0.58594 5.03906,-1.50391 7.26563,-2.75391 l -0.9375,-0.64453 z m -0.87891,4.27735 -0.46875,0.9375 c 1.28906,0.3125 2.57813,0.74219 3.86719,1.28906 l 0.46875,-0.9961 c -1.21094,-0.46874 -2.5,-0.8789 -3.86719,-1.23046 z m -4.6875,0.11718 c -1.13281,0.46876 -2.38281,0.83985 -3.75,1.11328 l 0.70313,0.9961 c 1.48437,-0.39063 2.7539,-0.89844 3.80859,-1.52344 l -0.76172,-0.58594 z M 157,128 l 0,1 16,0 0,-1 -16,0 z"
       transform="translate(-154,59.999974)"
       id="path4357" />
  </g>
  <g
     id="fcitx-remind-active">
    <path
       class="ColorScheme-Text"
       style="fill:currentColor;fill-opacity:1;stroke:none"
       d="m 209,91 c -3.30779,0 -6,2.692214 -6,6 a 0.50005,0.50005 0 0 0 0.002,0.05664 c 0.0144,2.321467 0.86034,3.509269 1.61914,4.394529 C 205.38641,102.34404 206,102.89286 206,104.5 l 0,0.5 0,2 2,0 0,1 2,0 0,-1 2,0 0,-2 0,-0.5 c 0,-1.60714 0.63385,-2.30403 1.39062,-3.25 0.74894,-0.93616 1.58808,-2.103867 1.60547,-4.1875 A 0.50005,0.50005 0 0 0 215,97 c 0,-3.307786 -2.69221,-6 -6,-6 z m 0,1 c 2.76735,0 5,2.232654 5,5 0,1.875003 -0.64741,2.695964 -1.39062,3.625 -0.66238,0.82796 -1.33658,1.8434 -1.49415,3.375 l -4.23437,0 c -0.16424,-1.5039 -0.84931,-2.43975 -1.50195,-3.20117 C 204.64422,99.941686 204,99.138892 204,97 c 0,-2.767346 2.23265,-5 5,-5 z m -1.85352,5.146484 -1.5,1.5 0.70704,0.707032 1.14648,-1.146485 1.14648,1.146485 0.70704,0 1.14648,-1.146485 1.14648,1.146485 0.70704,-0.707032 -1.5,-1.5 -0.70704,0 -1.14648,1.146485 -1.14648,-1.146485 -0.70704,0 z"
       id="path4618" />
    <rect
       y="88.000031"
       x="198"
       height="22"
       width="22"
       id="rect4473"
       style="fill:none;fill-opacity:1;stroke:none;stroke-linejoin:miter" />
    <ellipse
       style="fill:#11d116;fill-opacity:1;stroke:none;stroke-linecap:round;stroke-linejoin:miter"
       id="path4601-7"
       cx="202.5"
       cy="92.500031"
       rx="2.5"
       ry="2.4999974" />
  </g>
  <g
     id="fcitx-remind-inactive"
     transform="translate(22,2.6721175e-5)">
    <rect
       style="fill:none;fill-opacity:1;stroke:none;stroke-linejoin:miter"
       id="rect4483"
       width="22"
       height="22"
       x="198"
       y="88.000031" />
    <path
       class="ColorScheme-Text"
       style="fill:currentColor;fill-opacity:1;stroke:none"
       d="m 209,91.000004 c -3.30779,0 -6,2.692214 -6,6 a 0.50005,0.50005 0 0 0 0.002,0.05664 c 0.0144,2.321467 0.86034,3.509266 1.61914,4.394526 C 205.38641,102.34404 206,102.89286 206,104.5 l 0,0.5 0,2 2,0 0,1 2,0 0,-1 2,0 0,-2 0,-0.5 c 0,-1.60714 0.63385,-2.30403 1.39062,-3.25 0.74894,-0.93616 1.58808,-2.103863 1.60547,-4.187496 a 0.50005,0.50005 0 0 0 0.004,-0.0625 c 0,-3.307786 -2.69221,-6 -6,-6 z m 0,1 c 2.76735,0 5,2.232654 5,5 0,1.875003 -0.64741,2.695964 -1.39062,3.624996 -0.66238,0.82796 -1.33658,1.8434 -1.49415,3.375 l -4.23437,0 c -0.16424,-1.5039 -0.84931,-2.43975 -1.50195,-3.20117 C 204.64422,99.94169 204,99.138896 204,97.000004 c 0,-2.767346 2.23265,-5 5,-5 z m -1.85352,5.146484 -1.5,1.5 0.70704,0.707032 1.14648,-1.146485 1.14648,1.146485 0.70704,0 1.14648,-1.146485 1.14648,1.146485 0.70704,-0.707032 -1.5,-1.5 -0.70704,0 -1.14648,1.146485 -1.14648,-1.146485 -0.70704,0 z"
       id="path4618-6" />
  </g>
  <g
     id="fcitx-handwriting-active">
    <path
       class="ColorScheme-Text"
       style="fill:currentColor;fill-opacity:1;stroke:none"
       d="M 213.13672 112.56836 L 209.86523 124.77539 L 210.93555 128.51367 L 213.73047 125.81055 L 217 113.60352 L 216.51758 113.47266 L 213.13672 112.56836 z M 213.84375 113.79102 L 215.77539 114.30859 L 215.51562 115.27734 L 213.58398 114.75781 L 213.84375 113.79102 z M 213.32617 115.72461 L 215.25781 116.24219 L 212.83594 125.28516 L 211.43945 126.63672 L 210.9043 124.76758 L 213.32617 115.72461 z M 202.32227 119.45117 C 202.12908 119.45542 201.91662 119.47481 201.67773 119.50781 A 0.50078273 0.50078273 0 1 0 201.81445 120.5 C 202.23319 120.4422 202.52454 120.444 202.68555 120.4707 C 202.84655 120.4974 202.84968 120.52812 202.83789 120.51172 C 202.82609 120.49532 202.84403 120.50272 202.83203 120.60352 C 202.82063 120.70461 202.77383 120.86783 202.70703 121.05469 C 202.57339 121.42841 202.35575 121.87805 202.29688 122.38086 C 202.26747 122.63227 202.28198 122.92038 202.42969 123.1875 C 202.57742 123.45462 202.84925 123.65478 203.16797 123.76172 C 203.3205 123.81282 203.38126 123.80234 203.47656 123.80664 C 203.57186 123.81064 203.67731 123.8125 203.79297 123.8125 C 204.02428 123.81257 204.29652 123.80941 204.55078 123.81641 C 204.58278 123.81729 204.59751 123.82222 204.62891 123.82422 C 204.53821 123.87962 204.48332 123.92242 204.37695 123.98242 C 203.84414 124.28309 203.15898 124.62677 202.5957 125.00391 C 202.31407 125.19247 202.05958 125.38667 201.85938 125.625 C 201.65917 125.86333 201.48995 126.2011 201.57227 126.57422 C 201.65457 126.94734 201.94235 127.20603 202.30273 127.40039 C 202.66312 127.59475 203.13618 127.75197 203.7832 127.89844 C 204.83439 128.1364 206.14352 128.06689 207.32617 128.11914 C 208.50883 128.17144 209.49456 128.37936 209.87891 128.82227 A 0.50005 0.50005 0 1 0 210.63281 128.16602 C 209.87673 127.29474 208.61694 127.17419 207.37109 127.11914 C 206.12525 127.06404 204.82125 127.10884 204.00391 126.92383 C 203.40819 126.78897 203.00455 126.64402 202.77734 126.52148 C 202.55013 126.39894 202.54155 126.32639 202.54883 126.35938 C 202.55583 126.39238 202.5303 126.38223 202.625 126.26953 C 202.7197 126.15679 202.91174 125.99703 203.15234 125.83594 C 203.63355 125.51375 204.30372 125.17258 204.86914 124.85352 C 205.15185 124.69398 205.40754 124.54128 205.62109 124.375 C 205.83465 124.20872 206.087 124.04488 206.09766 123.62305 C 206.10366 123.37711 205.93339 123.15262 205.79297 123.05859 C 205.65255 122.96459 205.52552 122.92803 205.39648 122.89844 C 205.1384 122.83924 204.86027 122.82421 204.57812 122.81641 C 204.296 122.80841 204.01555 122.8125 203.79492 122.8125 C 203.68461 122.81247 203.58855 122.81166 203.52344 122.80859 C 203.49592 122.80733 203.47379 122.80359 203.45898 122.80078 C 203.47099 122.8053 203.47205 122.80771 203.48633 122.8125 C 203.43594 122.79559 203.43876 122.79694 203.45898 122.80078 C 203.3447 122.75773 203.31651 122.72446 203.30469 122.70312 C 203.29159 122.67952 203.27446 122.62262 203.28906 122.49805 C 203.31826 122.24888 203.49456 121.82289 203.64844 121.39258 C 203.72534 121.17742 203.79696 120.95654 203.82422 120.71484 C 203.85152 120.47314 203.83022 120.17951 203.64844 119.92773 C 203.46689 119.67596 203.17008 119.53754 202.84961 119.48438 C 202.68937 119.45777 202.51546 119.44692 202.32227 119.45117 z "
       id="path4530" />
    <rect
       y="110.00002"
       x="198"
       height="22"
       width="22"
       id="rect4532"
       style="fill:none;fill-opacity:1;stroke:none;stroke-linecap:round;stroke-linejoin:miter" />
    <rect
       style="fill:none;fill-opacity:1;stroke:none;stroke-linecap:round;stroke-linejoin:miter"
       id="rect4545"
       width="22"
       height="22"
       x="198"
       y="110.00002" />
    <ellipse
       style="fill:#11d116;fill-opacity:1;stroke:none;stroke-linecap:round;stroke-linejoin:miter"
       id="path4601"
       cx="202.5"
       cy="114.50002"
       rx="2.5"
       ry="2.5000026" />
  </g>
  <g
     id="fcitx-handwriting-inactive"
     transform="translate(22,0)">
    <path
       class="ColorScheme-Text"
       style="fill:currentColor;fill-opacity:1;stroke:none"
       d="M 235.13672 112.56836 L 231.86523 124.77539 L 232.93555 128.51367 L 235.73047 125.81055 L 239 113.60352 L 238.51758 113.47266 L 235.13672 112.56836 z M 235.84375 113.79102 L 237.77539 114.30859 L 237.51562 115.27734 L 235.58398 114.75781 L 235.84375 113.79102 z M 235.32617 115.72461 L 237.25781 116.24219 L 234.83594 125.28516 L 233.43945 126.63672 L 232.9043 124.76758 L 235.32617 115.72461 z M 224.32227 119.45117 C 224.12908 119.45542 223.91662 119.47481 223.67773 119.50781 A 0.50078273 0.50078273 0 0 0 223.79297 120.50195 A 0.50078273 0.50078273 0 0 0 223.81445 120.5 C 224.23319 120.4422 224.52454 120.444 224.68555 120.4707 C 224.84655 120.4974 224.84968 120.52812 224.83789 120.51172 C 224.82609 120.49532 224.84403 120.50272 224.83203 120.60352 C 224.82063 120.70461 224.77383 120.86783 224.70703 121.05469 C 224.57339 121.42841 224.35575 121.87805 224.29688 122.38086 C 224.26747 122.63227 224.28198 122.92038 224.42969 123.1875 C 224.57742 123.45462 224.84925 123.65478 225.16797 123.76172 C 225.3205 123.81282 225.38126 123.80234 225.47656 123.80664 C 225.57186 123.81064 225.67731 123.8125 225.79297 123.8125 C 226.02428 123.81257 226.29652 123.80941 226.55078 123.81641 C 226.58278 123.81729 226.59751 123.82222 226.62891 123.82422 C 226.53821 123.87962 226.48332 123.92242 226.37695 123.98242 C 225.84414 124.28309 225.15898 124.62677 224.5957 125.00391 C 224.31407 125.19247 224.05958 125.38667 223.85938 125.625 C 223.65917 125.86333 223.48995 126.2011 223.57227 126.57422 C 223.65457 126.94734 223.94235 127.20603 224.30273 127.40039 C 224.66312 127.59475 225.13618 127.75197 225.7832 127.89844 C 226.83439 128.1364 228.14352 128.06689 229.32617 128.11914 C 230.50883 128.17144 231.49456 128.37936 231.87891 128.82227 A 0.50005 0.50005 0 1 0 232.63281 128.16602 C 231.87673 127.29474 230.61694 127.17419 229.37109 127.11914 C 228.12525 127.06404 226.82125 127.10884 226.00391 126.92383 C 225.40819 126.78897 225.00455 126.64402 224.77734 126.52148 C 224.55013 126.39894 224.54155 126.32639 224.54883 126.35938 C 224.55583 126.39238 224.5303 126.38223 224.625 126.26953 C 224.7197 126.15679 224.91174 125.99703 225.15234 125.83594 C 225.63355 125.51375 226.30372 125.17258 226.86914 124.85352 C 227.15185 124.69398 227.40754 124.54128 227.62109 124.375 C 227.83465 124.20872 228.087 124.04488 228.09766 123.62305 C 228.10366 123.37711 227.93339 123.15262 227.79297 123.05859 C 227.65255 122.96459 227.52552 122.92803 227.39648 122.89844 C 227.1384 122.83924 226.86027 122.82421 226.57812 122.81641 C 226.296 122.80841 226.01555 122.8125 225.79492 122.8125 C 225.68461 122.81247 225.58855 122.81166 225.52344 122.80859 C 225.49592 122.80733 225.47379 122.80359 225.45898 122.80078 C 225.47099 122.8053 225.47205 122.80771 225.48633 122.8125 C 225.43594 122.79559 225.43876 122.79694 225.45898 122.80078 C 225.3447 122.75773 225.31651 122.72446 225.30469 122.70312 C 225.29159 122.67952 225.27446 122.62262 225.28906 122.49805 C 225.31826 122.24888 225.49456 121.82289 225.64844 121.39258 C 225.72534 121.17742 225.79696 120.95654 225.82422 120.71484 C 225.85152 120.47314 225.83022 120.17951 225.64844 119.92773 C 225.46689 119.67596 225.17008 119.53754 224.84961 119.48438 C 224.68937 119.45777 224.51546 119.44692 224.32227 119.45117 z "
       transform="translate(-22,0)"
       id="path4564" />
    <rect
       style="fill:none;fill-opacity:1;stroke:none;stroke-linecap:round;stroke-linejoin:miter"
       id="rect4570"
       width="22"
       height="22"
       x="198"
       y="110.00002" />
    <rect
       y="110.00002"
       x="198"
       height="22"
       width="22"
       id="rect4576"
       style="fill:none;fill-opacity:1;stroke:none;stroke-linecap:round;stroke-linejoin:miter" />
  </g>
  <g
     id="fcitx"
     transform="translate(132,88.000028)">
    <rect
       y="-22"
       x="0"
       height="22"
       width="22"
       id="rect4204"
       style="fill:none;fill-opacity:1;stroke:none" />
    <path
       id="path106-4-1"
       d="m 9.5699535,-18.999593 c -0.936717,-0.01763 -1.836619,0.535755 -2.183677,1.437843 -0.414242,1.076717 -0.296362,2.243636 -0.279067,3.367572 0.0056,0.363889 -0.09182,0.69603 -0.240698,1.009167 -0.07123,0.08142 -0.141942,0.1585 -0.209783,0.223033 -0.735867,0.813102 -2.564955,2.949954 -1.982451,5.1394121 -0.146743,0.06455 -0.316807,0.07221 -0.502928,0.09385 -0.219333,0.0255 -0.463753,0.08135 -0.657229,0.311638 -0.172866,0.200234 -0.198882,0.474233 -0.218892,0.732309 -0.02004,0.258368 -0.03562,0.505944 -0.125594,0.658333 -0.262172,0.407987 -0.35179,0.709296 -0.292317,0.955065 0.05964,0.246447 0.265427,0.400191 0.514245,0.519214 0.497638,0.238045 1.217196,0.381587 1.711114,0.823674 l 2.83e-4,2.83e-4 c 0.524909,0.464756 1.105612,0.724621 1.614502,0.728167 0.422739,0.003 0.795783,-0.187398 1.009167,-0.571383 0.189498,0.03399 0.387165,0.03033 0.587669,-0.02677 0.675857,-0.192494 1.387743,-0.202406 2.0787865,-0.05934 0.414121,0.08573 0.827404,0.0534 1.218951,-0.06542 0.166472,0.316276 0.450025,0.530318 0.792759,0.622448 0.495727,0.133256 1.109484,0.02504 1.697588,-0.332891 l 2.82e-4,-2.83e-4 5.52e-4,0 c 0.568855,-0.353785 1.299426,-0.322554 1.82677,-0.436128 0.263671,-0.05679 0.494609,-0.161691 0.589601,-0.396379 0.09495,-0.234577 0.04967,-0.556185 -0.147952,-1.038152 -0.06706,-0.166538 -0.03891,-0.415498 -0.01076,-0.67793 0.02812,-0.262231 0.05545,-0.542386 -0.07894,-0.77675 -0.149053,-0.267741 -0.379882,-0.37224 -0.591534,-0.441925 -0.211773,-0.06972 -0.405153,-0.114845 -0.547645,-0.25312 l -2.83e-4,-2.83e-4 c -0.155067,-0.159085 -0.308034,-0.375097 -0.502098,-0.545712 -0.0018,-0.0016 -0.004,-0.0031 -0.0058,-0.0047 -0.0073,-0.30084 -0.0568,-0.609146 -0.136911,-0.917525 0.426116,-0.56551 0.857948,-1.1995591 1.179203,-1.8179381 0.001,-1.41e-4 0.002,-1.29e-4 0.0031,-2.81e-4 l 0.240423,-0.03395 -0.06321,-0.298941 0.0381,-0.02981 0.786134,-1.478972 c 0.430419,0.02259 0.900407,-0.186938 1.175614,-0.686212 0.593777,-1.077211 1.283266,-2.057531 1.283266,-2.057531 -1.886364,0.268423 -3.349095,0.242135 -3.429402,1.685995 -0.0092,0.164039 0.0157,0.310662 0.06514,0.439716 l -1.087284,1.273881 -0.01,0.04279 -0.333445,0.05299 0.09992,0.235455 c -0.239887,0.281967 -0.471858,0.595247 -0.690628,0.918076 -0.06382,0.09418 -0.126282,0.18931 -0.187701,0.284589 0.06114,-0.09511 0.123722,-0.190177 0.187701,-0.284589 -0.05471,-0.09665 -0.109888,-0.192817 -0.166447,-0.285967 -0.318101,-0.648396 -0.731472,-1.247763 -1.136693,-1.842228 -0.487727,-0.715502 -0.575096,-1.589942 -0.582976,-2.461639 -0.01639,-1.813131 -0.209532,-3.693439 -2.2985075,-3.73276 z m 0.8948925,2.266486 c 0.164697,-0.0098 0.334488,0.07422 0.461247,0.251465 0.126759,0.177246 0.209143,0.513955 0.210334,0.706085 0.0016,0.260604 -0.0921,0.522711 -0.198189,0.713539 -0.02794,0.05027 -0.06106,0.09177 -0.09578,0.130011 -0.11233,-0.06565 -0.206181,-0.119836 -0.262229,-0.151817 -0.03878,-0.02213 -0.04391,-0.02557 -0.06045,-0.03533 a 0.32649912,0.59361268 8.7269718 0 0 0.226897,-0.474772 0.32649912,0.59361268 8.7269718 0 0 -0.2614,-0.630177 0.32649912,0.59361268 8.7269718 0 0 -0.386444,0.547369 0.32649912,0.59361268 8.7269718 0 0 0.0019,0.292592 c -0.05501,-0.02357 -0.1144435,-0.04406 -0.1785925,-0.05797 -0.01848,-0.004 -0.03821,-0.0062 -0.05741,-0.0092 -0.01919,-0.08129 -0.03466,-0.164404 -0.03947,-0.249807 -0.01469,-0.260352 0.03854,-0.427807 0.14464,-0.61886 0.1060975,-0.191053 0.3302245,-0.403452 0.4949225,-0.413218 z m -2.1389615,0.161478 a 0.93040342,0.70688963 82.236562 0 1 0.02926,8.34e-4 0.93040342,0.70688963 82.236562 0 1 0.72044,0.806285 0.93051529,0.70697463 82.236562 0 1 -0.05328,0.570279 c -0.03865,0.02844 -0.07728,0.05746 -0.117037,0.09136 l 0,2.83e-4 -2.82e-4,0 c -0.07827,0.06751 -0.156009,0.107131 -0.259193,0.158993 a 0.55303345,0.34788413 80.265788 0 0 0.160097,-0.592361 0.55303345,0.34788413 80.265788 0 0 -0.38451,-0.472565 0.55303345,0.34788413 80.265788 0 0 -0.295352,0.62245 0.55303345,0.34788413 80.265788 0 0 0.47698,0.464007 c -0.07033,0.0356 -0.149256,0.07658 -0.2545,0.139395 -0.02391,0.01382 -0.04402,0.02886 -0.06514,0.04361 a 0.93051529,0.70697463 82.236562 0 1 -0.601747,-0.786411 0.93040342,0.70688963 82.236562 0 1 0.644255,-1.046155 z m 1.382637,1.207358 c 0.06853,-0.0017 0.132715,0.0055 0.192669,0.01849 0.2398155,0.05197 0.4130545,0.202051 0.5194905,0.282379 0.02,0.0151 0.04657,0.02884 0.110688,0.06542 0.06411,0.03658 0.160405,0.09163 0.299217,0.173071 0.124161,0.07286 0.175728,0.183063 0.152368,0.321852 -0.02336,0.138788 -0.12996,0.307575 -0.342277,0.468424 l -2.83e-4,2.83e-4 -5.51e-4,2.81e-4 c -0.130752,0.102592 -0.213083,0.229275 -0.313018,0.334826 -0.09993,0.105551 -0.21443,0.192755 -0.4181865,0.231038 -0.239417,0.04463 -0.425688,-0.0071 -0.593466,-0.07895 -0.167779,-0.07179 -0.314004,-0.166444 -0.472013,-0.197639 l -2.83e-4,0 -2.81e-4,0 c -0.324544,-0.06036 -0.571692,-0.233085 -0.665234,-0.417082 -0.03621,-0.07124 -0.04975,-0.14295 -0.03947,-0.213647 0.05835,0.01 0.136871,0.04119 0.22883,0.08777 0.110886,0.05618 0.240705,0.131562 0.382854,0.206194 0.284298,0.149264 0.618474,0.296939 0.960035,0.27962 0.3412395,-0.01731 0.6036585,-0.192329 0.7916555,-0.360773 0.094,-0.08422 0.169898,-0.167145 0.227725,-0.228277 0.02892,-0.03057 0.05351,-0.05565 0.07232,-0.07204 0.0188,-0.01639 0.03403,-0.02074 0.02788,-0.02043 l -0.0039,-0.0737 c -0.0315,0.0016 -0.0498,0.01849 -0.0726,0.03837 -0.0228,0.01988 -0.04801,0.04606 -0.07729,0.07702 -0.05855,0.0619 -0.132546,0.142815 -0.223309,0.224137 -0.181524,0.162644 -0.428043,0.325872 -0.7461105,0.342001 -0.317745,0.01611 -0.641402,-0.123903 -0.922218,-0.271338 -0.140408,-0.07372 -0.270092,-0.148784 -0.383958,-0.20647 -0.09089,-0.04604 -0.170576,-0.08084 -0.242356,-0.09385 0.03396,-0.08691 0.108319,-0.17384 0.240975,-0.250359 l 2.83e-4,0 2.83e-4,-2.83e-4 c 0.285916,-0.170642 0.416016,-0.196855 0.570278,-0.329857 0.288726,-0.246244 0.533622,-0.331308 0.739211,-0.336481 z m 1.2622875,1.13338 c 0.03637,0.08682 0.06752,0.179883 0.08778,0.28514 0.188419,0.979064 0.396586,1.58485 1.344545,3.200298 0.09792,0.246672 0.172052,0.422925 0.255879,0.627141 -0.06526,-0.486405 -0.257728,-0.923756 -0.392238,-1.184446 -0.579853,-1.225341 -0.0019,-0.469614 0.25864,0.07646 0.190312,0.355478 0.413171,0.966446 0.547644,1.6506631 -0.575138,1.004157 -0.957921,1.861844 -0.963898,1.875351 -0.08366,0.135859 -0.130485,0.270707 -0.12725,0.405765 0.002,0.08606 0.03116,0.169622 0.07673,0.24125 -0.515323,0.379904 -0.539653,1.125899 0.0022,1.396162 -0.05453,0.0786 -0.107046,0.153059 -0.160098,0.233246 -0.07723,0.116728 -0.150541,0.235228 -0.215855,0.354423 -1.138671,0.809478 -2.9580535,0.912295 -4.3088375,-0.556201 -0.127351,-0.276716 -0.242806,-0.53909 -0.286243,-0.741695 l -2.83e-4,-8.33e-4 0,-2.83e-4 c -0.09753,-0.481264 -0.19942,-0.925163 -0.349455,-1.284369 -0.02476,-0.05926 -0.05139,-0.115626 -0.07923,-0.170312 0.105195,-0.249066 0.157515,-0.510867 0.138016,-0.669649 -0.0723,-0.42313 -0.383689,-0.509181 -1.085628,-0.348074 -0.596292,0.143833 -0.957559,0.428038 -0.808217,0.858178 -0.02686,0.02279 -0.05355,0.04287 -0.08005,0.06348 -0.197474,-0.50429 0.210522,-0.836854 0.895719,-1.005579 -0.100451,-0.931345 0.444535,-1.8766771 0.962518,-2.4911751 0.01507,0.01955 -0.02245,0.130597 -0.155405,0.402176 -0.293348,0.503509 -0.5817,1.3242931 -0.450482,2.0222001 0.09891,-0.01377 0.191761,-0.02349 0.272718,-0.02374 0.04724,-0.50565 0.171927,-0.982439 0.385615,-1.3666271 0.409008,-0.869278 1.462283,-2.337139 1.492497,-3.554445 0.14116,0.136614 0.348884,0.242417 0.59595,0.288451 0.130573,0.02577 0.275398,0.115944 0.452138,0.191566 0.17674,0.07562 0.388289,0.133921 0.650604,0.08501 0.2246865,-0.04222 0.3636755,-0.146456 0.4714605,-0.260297 0.107596,-0.113642 0.187219,-0.234091 0.301977,-0.324336 l 5.51e-4,-5.52e-4 c 0.117056,-0.08878 0.20651,-0.181473 0.269958,-0.274374 z m 5.077029,1.411069 c 0.05583,0.0464 0.11714,0.08588 0.18218,0.119245 l -0.690628,1.299552 -0.162306,0.127526 c -0.05451,-0.0273 -0.109055,-0.05157 -0.164238,-0.09357 -0.07252,-0.05521 -0.09308,-0.103568 -0.149609,-0.166447 l 0.04251,-0.18218 0.942092,-1.104122 z m -1.329915,1.619471 c 0.06727,0.06791 0.139768,0.133524 0.219996,0.194601 0.08348,0.06356 0.17213,0.123792 0.265818,0.171691 -0.881529,1.6222131 -2.581211,3.4403731 -2.59579,3.4559021 -0.103472,0.09069 -0.170166,0.07293 -0.172244,0.07481 2e-6,-0.0014 3.26e-4,8.2e-5 2.83e-4,-0.0019 -5.09e-4,-0.02122 0.0097,-0.0818 0.06735,-0.171138 l 0.0094,-0.01463 0.0072,-0.01573 c 0,0 1.036728,-2.277129 2.19803,-3.6935651 z m -0.422326,2.5400321 c -0.0791,0.10159 -0.156348,0.198869 -0.23297,0.293973 0.07642,-0.09479 0.154074,-0.192703 0.23297,-0.293973 z m -9.3063695,0.857075 c 0.238077,0.421613 0.752471,0.771882 1.162365,0.595122 0.158785,-0.06666 0.294906,-0.216875 0.401072,-0.396104 0.0037,0.0085 0.0077,0.0162 0.01132,0.02484 0.140297,0.335893 0.241724,0.771274 0.338689,1.249866 l 2.83e-4,5.51e-4 0,2.83e-4 c 0.07918,0.37081 0.326015,0.821822 0.521145,1.26836 0.195131,0.44654 0.328468,0.881235 0.231038,1.172302 l -2.83e-4,0.0011 -2.82e-4,0.0011 c -0.152127,0.491143 -0.492249,0.697861 -0.93602,0.694769 -0.443621,-0.0031 -0.990089,-0.238618 -1.488632,-0.679864 -0.545964,-0.488671 -1.298763,-0.634845 -1.755831,-0.853485 -0.228533,-0.10932 -0.370723,-0.225488 -0.411009,-0.391965 -0.04028,-0.166475 0.01778,-0.420008 0.268854,-0.809873 l 0.0011,-0.0016 8.35e-4,-0.0016 c 0.127247,-0.21553 0.132159,-0.487072 0.151816,-0.74059 0.01966,-0.253518 0.05273,-0.483719 0.173071,-0.622725 l 5.52e-4,-5.52e-4 5.5e-4,-5.5e-4 c 0.15418,-0.183806 0.327065,-0.221105 0.533567,-0.245115 0.206503,-0.02401 0.442913,-0.02478 0.659989,-0.162307 l 0.0011,-8.33e-4 0.0011,-5.52e-4 c 0.04599,-0.03092 0.09014,-0.06527 0.133599,-0.100471 z m 9.6414705,0.06045 c 0.125739,0.133354 0.24532,0.289158 0.376782,0.423707 l 8.33e-4,8.34e-4 0.0011,8.33e-4 c 0.188005,0.182686 0.42132,0.232072 0.621069,0.297838 0.199749,0.06576 0.36502,0.137768 0.484987,0.353871 l 2.83e-4,8.33e-4 5.64e-4,5.52e-4 c 0.09436,0.164187 0.08237,0.40316 0.05465,0.661644 -0.02772,0.258483 -0.07194,0.531968 0.02374,0.769572 l 0,2.83e-4 2.83e-4,2.83e-4 c 0.189984,0.463161 0.21024,0.740042 0.147676,0.894615 -0.06257,0.154572 -0.212417,0.229744 -0.452967,0.28155 -0.481097,0.103615 -1.253361,0.06621 -1.88722,0.460419 -0.551912,0.335745 -1.116184,0.427157 -1.547979,0.311088 -0.431939,-0.116111 -0.736698,-0.426784 -0.801041,-0.944301 l 0,-0.0011 -2.82e-4,-0.0011 c -0.04571,-0.311251 0.149928,-0.698646 0.406869,-1.08701 0.06056,-0.09154 0.123695,-0.180295 0.187148,-0.270785 0.264155,0.06491 0.618971,0.04005 1.070999,-0.131115 0.895718,-0.51308 1.264212,-1.233264 1.312525,-2.022474 z m -1.186932,0.11538 c -0.0307,0.0352 -0.05261,0.0601 -0.08115,0.09247 0.02649,-0.03 0.05281,-0.06003 0.08115,-0.09247 z m -0.318262,0.35746 c -0.115531,0.12683 -0.197087,0.214476 -0.197087,0.214476 0,0 0.110614,-0.120398 0.197087,-0.214476 z m -1.02021,0.279343 c 0.01956,0.02132 0.03986,0.042 0.06321,0.05852 -0.02345,-0.01658 -0.0442,-0.0366 -0.06321,-0.05852 z"
       class="ColorScheme-Text"
       style="fill:currentColor;fill-opacity:1;stroke:none" />
  </g>
  <g
     id="fcitx-vk-inactive"
     transform="translate(198,66.000027)">
    <path
       id="path6-4-6"
       class="ColorScheme-Text"
       transform="translate(0,-1030.3622)"
       d="m 2,1038.3622 0,11 18,0 0,-11 z m 1,1 7,0 1,0 8,0 0,1 -16,0 z m 0,2 16,0 0,7 -4,0 -8,0 -4,0 z m 1,1 0,1 2,0 0,-1 z m 3,0 0,1 2,0 0,-1 z m 3,0 0,1 2,0 0,-1 z m 3,0 0,1 2,0 0,-1 z m 3,0 0,1 2,0 0,-1 z m -12,2 0,1 2,0 0,-1 z m 3,0 0,1 2,0 0,-1 z m 3,0 0,1 2,0 0,-1 z m 3,0 0,1 2,0 0,-1 z m 3,0 0,1 2,0 0,-1 z m -12,2 0,1 2,0 0,-1 z m 3,0 0,1 8,0 0,-1 z m 9,0 0,1 2,0 0,-1 z"
       style="fill:currentColor;fill-opacity:1;stroke:none" />
    <rect
       y="0"
       x="0"
       height="22"
       width="22"
       id="rect4138-1"
       style="fill:none;fill-opacity:1;stroke:none;stroke-linejoin:bevel" />
  </g>
  <g
     id="fcitx-vk-active"
     transform="translate(176,66.000027)">
    <path
       id="path6-6-3"
       class="ColorScheme-Text"
       transform="translate(0,-1030.3622)"
       d="m 2,1038.3622 0,11 18,0 0,-11 z m 1,1 7,0 1,0 8,0 0,1 -16,0 z m 0,2 16,0 0,7 -4,0 -8,0 -4,0 z m 1,1 0,1 2,0 0,-1 z m 3,0 0,1 2,0 0,-1 z m 3,0 0,1 2,0 0,-1 z m 3,0 0,1 2,0 0,-1 z m 3,0 0,1 2,0 0,-1 z m -12,2 0,1 2,0 0,-1 z m 3,0 0,1 2,0 0,-1 z m 3,0 0,1 2,0 0,-1 z m 3,0 0,1 2,0 0,-1 z m 3,0 0,1 2,0 0,-1 z m -12,2 0,1 2,0 0,-1 z m 3,0 0,1 8,0 0,-1 z m 9,0 0,1 2,0 0,-1 z"
       style="fill:currentColor;fill-opacity:1;stroke:none" />
    <path
       id="path8"
       d="m 4.5,2.0000008 a 2.4999997,2.4999855 0 0 0 -2.5,2.5 2.4999997,2.4999855 0 0 0 2.5,2.5 2.4999997,2.4999855 0 0 0 2.5,-2.5 2.4999997,2.4999855 0 0 0 -2.5,-2.5 z"
       class="ColorScheme-PositiveText"
       style="fill:#11d116;fill-opacity:1;stroke:none" />
    <rect
       y="0"
       x="0"
       height="22"
       width="22"
       id="rect4140"
       style="fill:none;fill-opacity:1;stroke:none;stroke-linejoin:bevel" />
  </g>
  <g
     id="fcitx-kbd"
     transform="translate(154,66.000027)">
    <rect
       style="fill:none;fill-rule:evenodd;stroke:none;stroke-width:1px;stroke-linecap:butt;stroke-linejoin:miter;stroke-opacity:1"
       id="rect4209"
       width="22"
       height="22"
       x="0"
       y="0" />
    <path
       style="fill:currentColor;fill-opacity:1;stroke:none"
       d="m 13,1033.3622 0,1 0,1 c 0,0.554 -0.446,1 -1,1 -1.108,0 -2,0.892 -2,2 l -8,0 0,11 18,0 0,-11 -9,0 c 0,-0.554 0.446,-1 1,-1 1.108,0 2,-0.892 2,-2 l 0,-1 0,-1 -1,0 z m -10,6 7,0 1,0 8,0 0,1 -16,0 0,-1 z m 0,2 16,0 0,7 -4,0 -8,0 -4,0 0,-7 z m 1,1 0,1 2,0 0,-1 -2,0 z m 3,0 0,1 2,0 0,-1 -2,0 z m 3,0 0,1 2,0 0,-1 -2,0 z m 3,0 0,1 2,0 0,-1 -2,0 z m 3,0 0,1 2,0 0,-1 -2,0 z m -12,2 0,1 2,0 0,-1 -2,0 z m 3,0 0,1 2,0 0,-1 -2,0 z m 3,0 0,1 2,0 0,-1 -2,0 z m 3,0 0,1 2,0 0,-1 -2,0 z m 3,0 0,1 2,0 0,-1 -2,0 z m -12,2 0,1 2,0 0,-1 -2,0 z m 3,0 0,1 8,0 0,-1 -8,0 z m 9,0 0,1 2,0 0,-1 -2,0 z"
       transform="translate(0,-1030.3622)"
       class="ColorScheme-Text"
       id="path4211" />
  </g>
</svg>
