<?xml version="1.0" encoding="UTF-8" standalone="no"?>
<!-- Created with Inkscape (http://www.inkscape.org/) -->
<svg xmlns:dc="http://purl.org/dc/elements/1.1/" xmlns:cc="http://creativecommons.org/ns#" xmlns:rdf="http://www.w3.org/1999/02/22-rdf-syntax-ns#" xmlns:svg="http://www.w3.org/2000/svg" xmlns="http://www.w3.org/2000/svg" xmlns:sodipodi="http://sodipodi.sourceforge.net/DTD/sodipodi-0.dtd" xmlns:inkscape="http://www.inkscape.org/namespaces/inkscape" width="22" height="22" id="svg3869" version="1.1" inkscape:version="0.91 r13725" sodipodi:docname="go.svg" viewBox="0 0 22 22">
  <defs id="defs3871">
    <style type="text/css" id="current-color-scheme">
      .ColorScheme-Text {
        color:#31363b;
      }
      .ColorScheme-Background {
        color:#eff0f1;
      }
      .ColorScheme-Highlight {
        color:#3daee9;
      }
      .ColorScheme-ViewText {
        color:#31363b;
      }
      .ColorScheme-ViewBackground {
        color:#fcfcfc;
      }
      .ColorScheme-ViewHover {
        color:#93cee9;
      }
      .ColorScheme-ViewFocus{
        color:#3daee9;
      }
      .ColorScheme-ButtonText {
        color:#31363b;
      }
      .ColorScheme-ButtonBackground {
        color:#eff0f1;
      }
      .ColorScheme-ButtonHover {
        color:#93cee9;
      }
      .ColorScheme-ButtonFocus{
        color:#3daee9;
      }
      </style>
  </defs>
  <sodipodi:namedview id="base" pagecolor="#ffffff" bordercolor="#666666" borderopacity="1.0" inkscape:pageopacity="0.0" inkscape:pageshadow="2" inkscape:zoom="8.0000001" inkscape:cx="61.718643" inkscape:cy="12.70078" inkscape:document-units="px" inkscape:current-layer="layer1" showgrid="true" fit-margin-top="0" fit-margin-left="0" fit-margin-right="0" fit-margin-bottom="0" inkscape:window-width="1024" inkscape:window-height="544" inkscape:window-x="0" inkscape:window-y="0" inkscape:window-maximized="1" inkscape:showpageshadow="false">
    <inkscape:grid type="xygrid" id="grid4132"/>
    <sodipodi:guide position="2,20.000017" orientation="18,0" id="guide4138"/>
    <sodipodi:guide position="2,2.0000174" orientation="0,18" id="guide4140"/>
    <sodipodi:guide position="20,2.0000174" orientation="-18,0" id="guide4142"/>
    <sodipodi:guide position="20,20.000017" orientation="0,-18" id="guide4144"/>
    <sodipodi:guide position="3,19.000017" orientation="16,0" id="guide4146"/>
    <sodipodi:guide position="3,3.0000174" orientation="0,16" id="guide4148"/>
    <sodipodi:guide position="19,3.0000174" orientation="-16,0" id="guide4150"/>
    <sodipodi:guide position="19,19.000017" orientation="0,-16" id="guide4152"/>
  </sodipodi:namedview>
  <metadata id="metadata3874">
    <rdf:RDF>
      <cc:Work rdf:about="">
        <dc:format>image/svg+xml</dc:format>
        <dc:type rdf:resource="http://purl.org/dc/dcmitype/StillImage"/>
        <dc:title/>
      </cc:Work>
    </rdf:RDF>
  </metadata>
  <g inkscape:label="Capa 1" inkscape:groupmode="layer" id="layer1" transform="translate(-326,-534.3622)">
    <g id="go-home">
      <rect y="534.36218" x="326" height="22" width="22" id="rect4180" style="opacity:1;fill:none;fill-opacity:1;stroke:none;stroke-width:3.56737041px;stroke-linecap:butt;stroke-linejoin:miter;stroke-miterlimit:4;stroke-dasharray:none;stroke-dashoffset:0;stroke-opacity:1"/>
      <path id="rect4164" d="m 337,537.3622 -0.70703,0.70703 -7.29297,7.29297 0.70703,0.70703 0.29297,-0.29297 0,7.58594 1,0 5,0 3,0 5,0 0,-1 0,-6.58594 0.29297,0.29297 0.70703,-0.70703 -3,-3 0,-3 -3,0 -1.29297,-1.29297 L 337,537.3622 Z m 0,1.41406 6,6 0,7.58594 -4,0 0,-5 -3,0 -1,0 0,5 -4,0 0,-7.58594 6,-6 z" style="opacity:1;fill:currentColor;fill-opacity:1;stroke:none" inkscape:connector-curvature="0" class="ColorScheme-Text"/>
    </g>
    <g id="go-down">
      <rect y="534.36218" x="414" height="22" width="22" id="rect4411" style="opacity:1;fill:none;fill-opacity:1;stroke:none;stroke-width:3.56737041px;stroke-linecap:butt;stroke-linejoin:miter;stroke-miterlimit:4;stroke-dasharray:none;stroke-dashoffset:0;stroke-opacity:1"/>
      <g inkscape:label="Capa 1" id="layer1-0" transform="translate(414,-496.00002)">
        <path inkscape:connector-curvature="0" style="fill:currentColor;fill-opacity:1;stroke:none" d="M 3.7070312,7 3,7.7070312 l 6.125,6.1249998 1.875,1.875 1.875,-1.875 L 19,7.7070312 18.292969,7 12.167969,13.125 11,14.292969 9.8320312,13.125 3.7070312,7 Z" transform="translate(-5e-7,1030.3622)" id="rect4176" class="ColorScheme-Text"/>
      </g>
    </g>
    <g id="go-next">
      <rect y="534.36218" x="370" height="22" width="22" id="rect4407" style="opacity:1;fill:none;fill-opacity:1;stroke:none;stroke-width:3.56737041px;stroke-linecap:butt;stroke-linejoin:miter;stroke-miterlimit:4;stroke-dasharray:none;stroke-dashoffset:0;stroke-opacity:1"/>
      <g inkscape:label="Capa 1" id="layer1-3" transform="translate(369.99997,-496)">
        <path inkscape:connector-curvature="0" style="fill:currentColor;fill-opacity:1;stroke:none" d="M 7.7070312,3 7,3.7070312 l 6.125,6.125 L 14.292969,11 13.125,12.167969 7,18.292969 7.7070312,19 13.832031,12.875 15.707031,11 13.832031,9.125 7.7070312,3 Z" transform="translate(-5e-7,1030.3622)" id="rect4176-0" class="ColorScheme-Text"/>
      </g>
    </g>
    <g id="go-previous">
      <rect style="opacity:1;fill:none;fill-opacity:1;stroke:none;stroke-width:3.56737041px;stroke-linecap:butt;stroke-linejoin:miter;stroke-miterlimit:4;stroke-dasharray:none;stroke-dashoffset:0;stroke-opacity:1" id="rect4405" width="22" height="22" x="348" y="534.36218"/>
      <g inkscape:label="Capa 1" id="layer1-1" transform="translate(348,-496)">
        <path inkscape:connector-curvature="0" style="fill:currentColor;fill-opacity:1;stroke:none" d="m 14.292969,3 -6.1250002,6.125 -1.875,1.875 1.875,1.875 L 14.292969,19 15,18.292969 8.875,12.167969 7.7070312,11 8.875,9.8320312 15,3.7070312 14.292969,3 Z" transform="translate(-5e-7,1030.3622)" id="rect4176-7" class="ColorScheme-Text"/>
      </g>
    </g>
    <g id="go-up">
      <rect style="opacity:1;fill:none;fill-opacity:1;stroke:none;stroke-width:3.56737041px;stroke-linecap:butt;stroke-linejoin:miter;stroke-miterlimit:4;stroke-dasharray:none;stroke-dashoffset:0;stroke-opacity:1" id="rect4409" width="22" height="22" x="392" y="534.36218"/>
      <path inkscape:connector-curvature="0" id="path4165" d="m 403,543.36218 -5,4 5,0 5,0 -5,-4 z" style="fill:currentColor;fill-rule:evenodd;stroke:none;stroke-width:1px;stroke-linecap:butt;stroke-linejoin:miter;stroke-opacity:1" class="ColorScheme-Text"/>
    </g>
  </g>
</svg>
