<svg id="svg3869" version="1.1" viewBox="0 0 22 22" xmlns="http://www.w3.org/2000/svg">
    <style
        type="text/css"
        id="current-color-scheme">
        .ColorScheme-Text {
            color:#232629;
        }
    </style>
    <g id="go-home" transform="translate(-326,-534.3622)">
        <path id="rect4180" d="m326 534.36218h22v22h-22z" fill="none"/>
        <path id="rect4164" d="m337 537.3622-8 8 0.70703 0.70703 0.29297-0.29297v7.58594h14v-7.58594l0.29297 0.29297 0.70703-0.70703-3-3v-3h-3l-1.29297-1.29297zm0 1.41406 6 6v7.58594h-4v-5h-4v5h-4v-7.58594z" class="ColorScheme-Text" fill="currentColor"/>
    </g>
    <g id="go-down" transform="translate(-326,-534.3622)">
        <path id="rect4411" d="m414 534.36218h22v22h-22z" fill="none"/>
        <path id="rect4176" d="m417.70703 541.36218-0.70703 0.707 8 8 8-8-0.70703-0.707-7.29297 7.293-1.16797-1.168z" class="ColorScheme-Text" fill="currentColor"/>
    </g>
    <g id="go-next" transform="translate(-326,-534.3622)">
        <path id="rect4407" d="m370 534.36218h22v22h-22z" fill="none"/>
        <path id="rect4176-0" d="m377.707 537.3622-0.70703 0.707 6.125 6.125 1.16797 1.168-7.29297 7.293 0.70703 0.707 8-8-1.875-1.875z" class="ColorScheme-Text" fill="currentColor"/>
    </g>
    <g id="go-previous" transform="translate(-326,-534.3622)">
        <path id="rect4405" d="m348 534.36218h22v22h-22z" fill="none"/>
        <path id="rect4176-7" d="m362.29297 537.3622-8 8 8 8 0.70703-0.707-6.125-6.125-1.16797-1.168 7.29297-7.293z" class="ColorScheme-Text" fill="currentColor"/>
    </g>
    <g id="go-up" transform="translate(-326,-534.3622)">
        <path id="rect4409" d="m392 534.36218h22v22h-22z" fill="none"/>
        <path id="path3" d="m395.707 549.3622-0.707-0.707 8-8 8 8-0.707 0.707-7.293-7.293-1.168 1.168z" class="ColorScheme-Text" fill="currentColor"/>
    </g>
</svg>
