<svg width="70" height="296" version="1.1" viewBox="0 0 70 296.00001" xmlns="http://www.w3.org/2000/svg">
    <defs>
        <style id="current-color-scheme" type="text/css">.ColorScheme-Text {
        color:#31363b;
      }
      .ColorScheme-Background {
        color:#eff0f1;
      }
      .ColorScheme-Highlight {
        color:#3daee9;
      }
      .ColorScheme-ViewText {
        color:#31363b;
      }
      .ColorScheme-ViewBackground {
        color:#fcfcfc;
      }
      .ColorScheme-ViewHover {
        color:#93cee9;
      }
      .ColorScheme-ViewFocus{
        color:#3daee9;
      }
      .ColorScheme-ButtonText {
        color:#31363b;
      }
      .ColorScheme-ButtonBackground {
        color:#eff0f1;
      }
      .ColorScheme-ButtonHover {
        color:#93cee9;
      }
      .ColorScheme-ButtonFocus{
        color:#3daee9;
      }</style>
    </defs>
    <g id="22-22-input-mouse-battery" transform="translate(-310,-268.36219)">
        <rect x="326" y="534.36218" width="22" height="22" ry="0" fill="none"/>
        <path class="ColorScheme-Text" transform="translate(326,534.3622)" d="m13.5 3c-3.047 0-5.5 2.676-5.5 6v4c0 3.324 2.453 6 5.5 6s5.5-2.676 5.5-6v-4c0-3.324-2.453-6-5.5-6zm0 1c2.493 0 4.5 2.007 4.5 4.5v5c0 2.493-2.007 4.5-4.5 4.5s-4.5-2.007-4.5-4.5v-5c0-2.493 2.007-4.5 4.5-4.5zm0 2c-0.277 0-0.5 0.223-0.5 0.5v2c0 0.277 0.223 0.5 0.5 0.5s0.5-0.223 0.5-0.5v-2c0-0.277-0.223-0.5-0.5-0.5z" fill="currentColor"/>
        <path class="ColorScheme-Text" d="m331 537.3622-2 5h2v3l2-5h-2z" fill="currentColor"/>
    </g>
    <g id="22-22-input-keyboard-battery" transform="translate(-332,-396.36218)">
        <rect x="348" y="534.36218" width="22" height="22" ry="0" fill="none"/>
        <path class="ColorScheme-Text" transform="translate(332,396.36218)" d="m20 141v14l7 2 7-2v-5h-1v2h-12v-10h8v-1zm12 0-2 5h2v3l2-5h-2zm-5.5625 3-2.4375 6h1.074219l0.40625-1h3.039062l0.40625 1h1.074219l-2.439453-6h-0.537109l-0.023438 0.00977-0.023438-0.00977zm0.5625 1.25781 1.113281 2.74219h-2.226562zm-6 7.74219h12v1h-12z" fill="currentColor"/>
    </g>
    <g id="22-22-input-keyboard-brightness" transform="translate(-354,-428.36218)">
        <rect x="370" y="534.36218" width="22" height="22" ry="0" fill="none"/>
        <path class="ColorScheme-Text" transform="translate(354,428.36218)" d="m20 109v14l7 2 7-2v-9h-1v6h-12v-10h8v-1zm12 0c-1.10457 0-2 0.89543-2 2s0.89543 2 2 2 2-0.89543 2-2-0.89543-2-2-2zm0 1v2c-0.55228 0-1-0.44771-1-1 0-0.55228 0.44772-1 1-1zm-5.5625 2-2.4375 6h1.074219l0.40625-1h3.039062l0.40625 1h1.074219l-2.439453-6h-0.537109l-0.023438 0.00977-0.023438-0.00977zm0.5625 1.25781 1.113281 2.74219h-2.226562zm-6 7.74219h12v1h-12z" fill="currentColor"/>
    </g>
    <g id="input-keyboard-battery" transform="translate(-332,-428.36237)">
        <rect x="370" y="556.36237" width="32" height="32" ry="0" fill="none"/>
        <path class="ColorScheme-Text" transform="translate(332,428.36237)" d="m44 132v20l10 4 10-4v-11h-1v8h-18v-16h14v-1zm18 0-2 5h2v3l2-5h-2zm-8.59375 4-4.40625 10h1.300781l1.322266-3h4.722656l1.349609 3h1.304688l-4.5-10zm0.552734 1.69531 1.9375 4.30469h-3.833984zm-8.958984 12.30469h18v1h-18z" fill="currentColor"/>
    </g>
    <g id="input-keyboard-brightness" transform="translate(-364,-460.36237)">
        <rect x="402" y="556.36237" width="32" height="32" ry="0" fill="none"/>
        <path class="ColorScheme-Text" transform="translate(364,460.36237)" d="m44 100v20l10 4 10-4v-10h-1v7h-18v-16h12v-1zm9.40625 4-4.40625 10h1.300781l1.322266-3h4.722656l1.349609 3h1.304688l-4.5-10zm0.552734 1.69531 1.9375 4.30469h-3.833984zm-8.958984 12.30469h18v1h-18z" fill="currentColor"/>
        <path class="ColorScheme-Text" transform="translate(326,534.3622)" d="m100 25c-0.277 0-0.5 0.223-0.5 0.5v1c0 0.277 0.223 0.5 0.5 0.5s0.5-0.223 0.5-0.5v-1c0-0.277-0.223-0.5-0.5-0.5zm-3.181641 1.318359c-0.127809 0-0.255581 0.04855-0.353515 0.146485-0.195869 0.195868-0.195869 0.511162 0 0.707031l0.707031 0.707031c0.195869 0.195869 0.511163 0.195869 0.707031 0 0.195869-0.195868 0.195869-0.511162 0-0.707031l-0.707031-0.707031c-0.09793-0.09793-0.225706-0.146485-0.353516-0.146485zm6.363281 0c-0.12781 0-0.25558 0.04855-0.35352 0.146485l-0.70703 0.707031c-0.19586 0.195869-0.19586 0.511163 0 0.707031 0.19587 0.195869 0.51117 0.195869 0.70703 0l0.70704-0.707031c0.19586-0.195869 0.19586-0.511163 0-0.707031-0.0979-0.09793-0.22571-0.146485-0.35352-0.146485zm-3.18164 1.681641c-1.104569 0-2 0.895431-2 2s0.895431 2 2 2c1.10457 0 2-0.895431 2-2s-0.89543-2-2-2zm0 1v2c-0.552285 0-1-0.447715-1-1s0.447715-1 1-1zm-4.5 0.5c-0.277 0-0.5 0.223-0.5 0.5s0.223 0.5 0.5 0.5h1c0.277 0 0.5-0.223 0.5-0.5s-0.223-0.5-0.5-0.5zm8 0c-0.277 0-0.5 0.223-0.5 0.5s0.223 0.5 0.5 0.5h1c0.277 0 0.5-0.223 0.5-0.5s-0.223-0.5-0.5-0.5zm-5.974609 2.474609c-0.12781 0-0.255582 0.04855-0.353516 0.146485l-0.707031 0.707031c-0.195869 0.195869-0.195869 0.511163 0 0.707031 0.195868 0.195869 0.511162 0.195869 0.707031 0l0.707031-0.707031c0.195869-0.195869 0.195869-0.511163 0-0.707031-0.09793-0.09793-0.225706-0.146485-0.353515-0.146485zm4.949219 0c-0.12781 0-0.25558 0.04855-0.35352 0.146485-0.19586 0.195868-0.19586 0.511162 0 0.707031l0.70703 0.707031c0.19587 0.195869 0.51117 0.195869 0.70704 0 0.19586-0.195868 0.19586-0.511162 0-0.707031l-0.70704-0.707031c-0.0979-0.09793-0.2257-0.146485-0.35351-0.146485zm-2.47461 1.025391c-0.277 0-0.5 0.223-0.5 0.5v1c0 0.277 0.223 0.5 0.5 0.5s0.5-0.223 0.5-0.5v-1c0-0.277-0.223-0.5-0.5-0.5z" fill="currentColor"/>
    </g>
    <g id="input-mouse-battery" transform="translate(-332,-300.36238)">
        <path class="ColorScheme-Text" d="m386 560.36238a8 9 0 0 0-8 9v6a8 9 0 0 0 8 9 8 9 0 0 0 8-9v-6a8 9 0 0 0-8-9zm0 1a7 8 0 0 1 7 8v6a7 8 0 0 1-7 8 7 8 0 0 1-7-8v-6a7 8 0 0 1 7-8zm0 3a1 1 0 0 0-1 1v3a1 1 0 0 0 1 1 1 1 0 0 0 1-1v-3a1 1 0 0 0-1-1zm0 8-2 5h2v3l2-5h-2z" fill="currentColor"/>
        <rect x="370" y="556.36237" width="32" height="32" ry="0" fill="none"/>
    </g>
    <g id="16-16-input-mouse-battery" transform="translate(-303,-265.36218)">
        <path class="ColorScheme-Text" transform="translate(319,457.36217)" d="m-8 82a4 4 0 0 0-4 4v4a4 4 0 0 0 4 4 4 4 0 0 0 4-4v-4a4 4 0 0 0-4-4zm0 1a3 3 0 0 1 3 3v4a3 3 0 0 1-3 3 3 3 0 0 1-3-3v-4a3 3 0 0 1 3-3zm0 1-2 5h2v3l2-5h-2z" fill="currentColor"/>
        <rect x="303" y="537.36218" width="16" height="16" fill="none"/>
    </g>
    <g id="22-22-input-keyboard" transform="translate(16,10.000004)">
        <rect width="22" height="22" fill="none"/>
        <path class="ColorScheme-Text" transform="translate(0,-1030.3622)" d="m13 1033.3622v2c0 0.554-0.446 1-1 1-1.108 0-2 0.892-2 2h-8v11h18v-11h-9c0-0.554 0.446-1 1-1 1.108 0 2-0.892 2-2v-2zm-10 6h16v1h-16zm0 2h16v7h-16zm1 1v1h2v-1zm3 0v1h2v-1zm3 0v1h2v-1zm3 0v1h2v-1zm3 0v1h2v-1zm-12 2v1h2v-1zm3 0v1h2v-1zm3 0v1h2v-1zm3 0v1h2v-1zm3 0v1h2v-1zm-12 2v1h2v-1zm3 0v1h8v-1zm9 0v1h2v-1z" fill="currentColor"/>
    </g>
    <g id="input-keyboard" transform="matrix(1.4545455,0,0,1.4545455,38,-5.6171875e-6)">
        <rect width="22" height="22" fill="none"/>
        <path class="ColorScheme-Text" transform="matrix(.68749998 0 0 .68749998 -15.124999 22.000003)" d="m47-28c0 0.839286-0.09344 1.439871-0.248047 1.845703-0.154602 0.405832-0.347892 0.621232-0.628906 0.785156-0.562026 0.32785-1.623047 0.369141-3.123047 0.369141s-2.935631-0.0273-4.099609 0.554688c-0.58199 0.290994-1.080576 0.752947-1.408203 1.408203-0.272878 0.545755-0.425095 1.221654-0.470704 2.037109h-12.021484v17h26v-17h-12.978516c0.04382-0.685454 0.170932-1.207097 0.361328-1.587891 0.234873-0.469744 0.548787-0.757791 0.966797-0.966797 0.836022-0.41801 2.150391-0.445312 3.650391-0.445312s2.688979 0.04129 3.626953-0.505859c0.468986-0.273576 0.838197-0.714426 1.058594-1.292969s0.314453-1.290458 0.314453-2.201172zm-21 8h24v2h-24zm0 3h24v12h-24zm1 2v2h1v-2zm2 0v2h2v-2zm3 0v2h2v-2zm3 0v2h2v-2zm3 0v2h2v-2zm3 0v2h2v-2zm3 0v2h2v-2zm3 0v2h2v-2zm-20 3v2h3v-2zm4 0v2h2v-2zm3 0v2h2v-2zm3 0v2h2v-2zm3 0v2h2v-2zm3 0v2h2v-2zm3 0v2h3v-2zm-19 3v2h2v-2zm3 0v2h2v-2zm3 0v2h10v-2zm11 0v2h2v-2zm3 0v2h2v-2z" fill="currentColor"/>
    </g>
    <g id="22-22-input-keyboard-virtual-on" transform="translate(16,42.000007)">
        <path class="ColorScheme-Text" transform="translate(0,-1030.3622)" d="m2 1038.3622v11h18v-11zm1 1h16v1h-16zm0 2h16v7h-16zm1 1v1h2v-1zm3 0v1h2v-1zm3 0v1h2v-1zm3 0v1h2v-1zm3 0v1h2v-1zm-12 2v1h2v-1zm3 0v1h2v-1zm3 0v1h2v-1zm3 0v1h2v-1zm3 0v1h2v-1zm-12 2v1h2v-1zm3 0v1h8v-1zm9 0v1h2v-1z" fill="currentColor"/>
        <path d="M 4.5,2 A 2.4999997,2.4999855 0 0 0 2,4.5 2.4999997,2.4999855 0 0 0 4.5,7 2.4999997,2.4999855 0 0 0 7,4.5 2.4999997,2.4999855 0 0 0 4.5,2 Z" fill="#11d116"/>
        <rect width="22" height="22" fill="none"/>
    </g>
    <g id="input-keyboard-virtual-on" transform="matrix(1.4545455,0,0,1.4545455,38,32.000002)">
        <rect width="22" height="22" fill="none"/>
        <path class="ColorScheme-Text" transform="matrix(.68749998 0 0 .68749998 -15.124999 22.000003)" d="m25-21v17h26v-17zm1 1h24v2h-24zm0 3h24v12h-24zm1 2v2h1v-2zm2 0v2h2v-2zm3 0v2h2v-2zm3 0v2h2v-2zm3 0v2h2v-2zm3 0v2h2v-2zm3 0v2h2v-2zm3 0v2h2v-2zm-20 3v2h3v-2zm4 0v2h2v-2zm3 0v2h2v-2zm3 0v2h2v-2zm3 0v2h2v-2zm3 0v2h2v-2zm3 0v2h3v-2zm-19 3v2h2v-2zm3 0v2h2v-2zm3 0v2h10v-2zm11 0v2h2v-2zm3 0v2h2v-2z" fill="currentColor"/>
        <path d="m3.7812499 2.7500013a1.7187497 1.71874 0 0 0-1.71875 1.7187499 1.7187497 1.71874 0 0 0 1.71875 1.71875 1.7187497 1.71874 0 0 0 1.71875-1.71875 1.7187497 1.71874 0 0 0-1.71875-1.7187499z" fill="#11d116"/>
    </g>
    <g id="22-22-input-keyboard-virtual-off" transform="translate(16,74.000007)">
        <path class="ColorScheme-Text" transform="translate(0,-1030.3622)" d="m2 1038.3622v11h18v-11zm1 1h16v1h-16zm0 2h16v7h-16zm1 1v1h2v-1zm3 0v1h2v-1zm3 0v1h2v-1zm3 0v1h2v-1zm3 0v1h2v-1zm-12 2v1h2v-1zm3 0v1h2v-1zm3 0v1h2v-1zm3 0v1h2v-1zm3 0v1h2v-1zm-12 2v1h2v-1zm3 0v1h8v-1zm9 0v1h2v-1z" fill="currentColor"/>
        <rect width="22" height="22" fill="none"/>
    </g>
    <g id="input-keyboard-virtual-off" transform="matrix(1.4545455,0,0,1.4545455,38,64.000007)">
        <rect width="22" height="22" fill="none"/>
        <path class="ColorScheme-Text" transform="matrix(.68749998 0 0 .68749998 -15.124999 22.000003)" d="m25-21v17h26v-17zm1 1h24v2h-24zm0 3h24v12h-24zm1 2v2h1v-2zm2 0v2h2v-2zm3 0v2h2v-2zm3 0v2h2v-2zm3 0v2h2v-2zm3 0v2h2v-2zm3 0v2h2v-2zm3 0v2h2v-2zm-20 3v2h3v-2zm4 0v2h2v-2zm3 0v2h2v-2zm3 0v2h2v-2zm3 0v2h2v-2zm3 0v2h2v-2zm3 0v2h3v-2zm-19 3v2h2v-2zm3 0v2h2v-2zm3 0v2h10v-2zm11 0v2h2v-2zm3 0v2h2v-2z" fill="currentColor"/>
    </g>
    <g id="22-22-input-caps-on" transform="translate(59.241379,23.258607)">
        <rect x="-43.241379" y="146.74138" width="22" height="22" opacity=".00100002"/>
        <path class="ColorScheme-Text" d="m-39.241379 149.74138v14l7 2 7-2v-14zm1 1h12v10h-12zm5.4375 2-2.4375 6h1.07422l0.40625-1h3.03906l0.40625 1h1.07422l-2.43945-6h-0.53711l-0.0234 0.01-0.0234-0.01zm0.5625 1.25781 1.11328 2.74219h-2.22656zm-6 7.74219h12v1h-12z" fill="currentColor"/>
    </g>
    <g id="22-22-input-num-on" transform="translate(-8,84.999986)">
        <rect x="24" y="117" width="22" height="22" opacity=".00100002"/>
        <path class="ColorScheme-Text" d="m28 120v14l7 2 7-2v-14zm1 1h12v10h-12zm6 2v1h-1v1h1v3h-1v1h3v-1h-1v-5zm-6 9h12v1h-12z" fill="currentColor"/>
    </g>
    <g id="22-22-input-combo-on" transform="translate(-8,116.99999)">
        <rect x="24" y="117" width="22" height="22" opacity=".00100002"/>
        <path class="ColorScheme-Text" d="m28 120v14l7 2 7-2v-14zm1 1h12v10h-12zm0 11h12v1h-12zm9-9.99999v0.83333h-1v0.83334h1v2.5h-1v0.83333h3v-0.83333h-1v-4.16667zm-4.5625 1-2.4375 6h1.07422l0.40625-1h3.03906l0.40625 1h1.07422l-2.43945-6h-0.53711l-0.0234 0.01-0.0234-0.01zm0.5625 1.25781 1.11328 2.74219h-2.22656z"/>
    </g>
    <g id="input-combo-on" transform="translate(19,111.99999)">
        <rect x="19" y="112" width="32" height="32" opacity=".00100002"/>
        <path class="ColorScheme-Text" d="m25 116v20l10 4 10-4v-20h-1zm1 1h18v16h-18zm0 17h18v1h-18zm6.40625-12.99999-4.40625 10h1.30078l1.32227-3h4.72265l1.34961 3h1.30469l-4.5-10zm0.55273 1.69531 1.9375 4.30469h-3.83398zm7.04102-3.69531v1.8h-2v0.9h2v5.4h-2v0.9h5v-0.9h-2v-8.1z" fill="currentColor"/>
    </g>
    <g id="input-num-on" transform="translate(19,79.999986)">
        <rect x="19" y="112" width="32" height="32" opacity=".00100002"/>
        <path class="ColorScheme-Text" d="m25 116v20l10 4 10-4v-20h-1zm1 1h18v16h-18zm9 3v2h-2v1h2v6h-2v1h5v-1h-2v-9zm-9 14h18v1h-18z" fill="currentColor"/>
    </g>
    <g id="input-caps-on" transform="translate(19,48.000003)">
        <rect x="19" y="112" width="32" height="32" opacity=".00100002"/>
        <path class="ColorScheme-Text" d="m25 116v20l10 4 10-4v-20h-1zm1 1h18v16h-18zm8.40625 3-4.40625 10h1.30078l1.32227-3h4.72265l1.34961 3h1.30469l-4.5-10zm0.55273 1.69531 1.9375 4.30469h-3.83398zm-8.95898 12.30469h18v1h-18z" fill="currentColor"/>
    </g>
</svg>
