<?xml version="1.0" encoding="UTF-8" standalone="no"?>
<!-- Created with Inkscape (http://www.inkscape.org/) -->
<svg xmlns:dc="http://purl.org/dc/elements/1.1/" xmlns:cc="http://creativecommons.org/ns#" xmlns:rdf="http://www.w3.org/1999/02/22-rdf-syntax-ns#" xmlns:svg="http://www.w3.org/2000/svg" xmlns="http://www.w3.org/2000/svg" xmlns:sodipodi="http://sodipodi.sourceforge.net/DTD/sodipodi-0.dtd" xmlns:inkscape="http://www.inkscape.org/namespaces/inkscape" width="32" height="32" id="svg3869" version="1.1" inkscape:version="0.91 r13725" sodipodi:docname="kdeconnect.svg" viewBox="0 0 32 32">
  <defs id="defs3871">
    <style type="text/css" id="current-color-scheme">
      .ColorScheme-Text {
        color:#31363b;
      }
      .ColorScheme-Background {
        color:#eff0f1;
      }
      .ColorScheme-Highlight {
        color:#3daee9;
      }
      .ColorScheme-ViewText {
        color:#31363b;
      }
      .ColorScheme-ViewBackground {
        color:#fcfcfc;
      }
      .ColorScheme-ViewHover {
        color:#93cee9;
      }
      .ColorScheme-ViewFocus{
        color:#3daee9;
      }
      .ColorScheme-ButtonText {
        color:#31363b;
      }
      .ColorScheme-ButtonBackground {
        color:#eff0f1;
      }
      .ColorScheme-ButtonHover {
        color:#93cee9;
      }
      .ColorScheme-ButtonFocus{
        color:#3daee9;
      }
      </style>
  </defs>
  <sodipodi:namedview id="base" pagecolor="#ffffff" bordercolor="#666666" borderopacity="1.0" inkscape:pageopacity="0.0" inkscape:pageshadow="2" inkscape:zoom="16.550718" inkscape:cx="31.270071" inkscape:cy="13.475485" inkscape:document-units="px" inkscape:current-layer="layer1" showgrid="true" fit-margin-top="0" fit-margin-left="0" fit-margin-right="0" fit-margin-bottom="0" inkscape:window-width="2560" inkscape:window-height="955" inkscape:window-x="0" inkscape:window-y="35" inkscape:window-maximized="1" inkscape:showpageshadow="false">
    <inkscape:grid type="xygrid" id="grid4132" originx="5" originy="4.9999826"/>
    <sodipodi:guide position="7,25" orientation="18,0" id="guide4138"/>
    <sodipodi:guide position="7,7" orientation="0,18" id="guide4140"/>
    <sodipodi:guide position="25,7" orientation="-18,0" id="guide4142"/>
    <sodipodi:guide position="25,25" orientation="0,-18" id="guide4144"/>
    <sodipodi:guide position="8,24" orientation="16,0" id="guide4146"/>
    <sodipodi:guide position="8,8" orientation="0,16" id="guide4148"/>
    <sodipodi:guide position="24,8" orientation="-16,0" id="guide4150"/>
    <sodipodi:guide position="24,24" orientation="0,-16" id="guide4152"/>
    <sodipodi:guide position="2,29.999997" orientation="28,0" id="guide4265"/>
    <sodipodi:guide position="2,1.9999974" orientation="0,28" id="guide4267"/>
    <sodipodi:guide position="30,1.9999974" orientation="-28,0" id="guide4269"/>
    <sodipodi:guide position="30,29.999997" orientation="0,-28" id="guide4271"/>
  </sodipodi:namedview>
  <metadata id="metadata3874">
    <rdf:RDF>
      <cc:Work rdf:about="">
        <dc:format>image/svg+xml</dc:format>
        <dc:type rdf:resource="http://purl.org/dc/dcmitype/StillImage"/>
        <dc:title/>
      </cc:Work>
    </rdf:RDF>
  </metadata>
  <g inkscape:label="Capa 1" inkscape:groupmode="layer" id="layer1" transform="translate(-321,-529.36218)">
    <g id="kdeconnect">
      <rect y="529.36218" x="321" height="32" width="32" id="rect4436" style="opacity:1;fill:none;fill-opacity:1;stroke:none;stroke-width:0.1;stroke-linecap:square;stroke-linejoin:miter;stroke-miterlimit:4;stroke-dasharray:none;stroke-dashoffset:0;stroke-opacity:1"/>
      <path style="opacity:1;fill:currentColor;fill-opacity:1;stroke:none" d="M 8 2 L 8 26 L 8 27 L 8 30 L 24 30 L 24 2 L 8 2 z M 13 3 L 19 3 L 19 4 L 13 4 L 13 3 z M 9 5 L 23 5 L 23 28 L 9 28 L 9 5 z M 15.5 12 L 15.222656 13.107422 C 14.970526 13.174622 14.728253 13.274417 14.501953 13.404297 L 13.525391 12.818359 L 12.818359 13.525391 L 13.404297 14.501953 C 13.272907 14.728673 13.171786 14.971619 13.103516 15.224609 L 12 15.5 L 12 16.5 L 13.107422 16.777344 C 13.174622 17.029474 13.274417 17.271747 13.404297 17.498047 L 12.818359 18.474609 L 13.525391 19.181641 L 14.501953 18.595703 C 14.728673 18.727093 14.971619 18.828214 15.224609 18.896484 L 15.5 20 L 16.5 20 L 16.777344 18.892578 C 17.029474 18.825378 17.271747 18.725583 17.498047 18.595703 L 18.474609 19.181641 L 19.181641 18.474609 L 18.595703 17.498047 C 18.727093 17.271327 18.828214 17.028381 18.896484 16.775391 L 20 16.5 L 20 15.5 L 18.892578 15.222656 C 18.825378 14.970526 18.725583 14.728253 18.595703 14.501953 L 19.181641 13.525391 L 18.474609 12.818359 L 17.498047 13.404297 C 17.271327 13.272907 17.028381 13.171786 16.775391 13.103516 L 16.5 12 L 15.5 12 z M 16 14 C 16.0665 14.00002 16.133019 14.002766 16.199219 14.009766 C 16.265419 14.015766 16.331254 14.026062 16.396484 14.039062 C 16.462384 14.052662 16.527587 14.069644 16.591797 14.089844 C 16.655397 14.109544 16.717977 14.132303 16.779297 14.158203 C 16.840597 14.183803 16.900554 14.212541 16.958984 14.244141 C 17.017384 14.276441 17.074056 14.311639 17.128906 14.349609 C 17.184306 14.387309 17.237743 14.427713 17.289062 14.470703 C 17.340163 14.513803 17.389057 14.559402 17.435547 14.607422 C 17.481547 14.654722 17.525246 14.704219 17.566406 14.755859 C 17.608206 14.808559 17.647314 14.863302 17.683594 14.919922 C 17.719694 14.976122 17.752903 15.03418 17.783203 15.09375 C 17.812903 15.15295 17.839581 15.213551 17.863281 15.275391 C 17.887981 15.337391 17.909434 15.400654 17.927734 15.464844 C 17.945334 15.529144 17.959603 15.594376 17.970703 15.660156 C 17.981803 15.726156 17.989641 15.792615 17.994141 15.859375 C 17.998141 15.906175 18 15.95311 18 16 C 17.99998 16.0665 17.997234 16.133019 17.990234 16.199219 C 17.984234 16.265419 17.973937 16.331254 17.960938 16.396484 C 17.947338 16.462384 17.930356 16.527587 17.910156 16.591797 C 17.890456 16.655397 17.867697 16.717977 17.841797 16.779297 C 17.816197 16.840597 17.787459 16.900554 17.755859 16.958984 C 17.723559 17.017384 17.688361 17.074056 17.650391 17.128906 C 17.612691 17.184306 17.572297 17.237742 17.529297 17.289062 C 17.486197 17.340163 17.440598 17.389057 17.392578 17.435547 C 17.345278 17.481547 17.295771 17.525246 17.244141 17.566406 C 17.191441 17.608206 17.136708 17.647314 17.080078 17.683594 C 17.023878 17.719694 16.96582 17.752903 16.90625 17.783203 C 16.84705 17.812903 16.786449 17.839581 16.724609 17.863281 C 16.662609 17.887881 16.599346 17.909434 16.535156 17.927734 C 16.470856 17.945334 16.405624 17.959603 16.339844 17.970703 C 16.273844 17.981803 16.207385 17.989641 16.140625 17.994141 C 16.112725 17.998141 16.084741 18.000906 16.056641 18.003906 L 15.919922 18.003906 C 15.880122 18.001906 15.840421 17.999141 15.800781 17.994141 C 15.734581 17.988141 15.668746 17.977844 15.603516 17.964844 C 15.537616 17.951244 15.472413 17.934262 15.408203 17.914062 C 15.344603 17.894363 15.282023 17.871603 15.220703 17.845703 C 15.159403 17.820103 15.099446 17.791366 15.041016 17.759766 C 14.982616 17.727466 14.925944 17.692257 14.871094 17.654297 C 14.815694 17.616597 14.762268 17.576203 14.710938 17.533203 C 14.680837 17.506803 14.651547 17.479372 14.623047 17.451172 L 14.535156 17.363281 C 14.499856 17.326181 14.465954 17.287777 14.433594 17.248047 C 14.391794 17.195347 14.352696 17.140614 14.316406 17.083984 C 14.280306 17.027784 14.247097 16.969726 14.216797 16.910156 C 14.187097 16.850956 14.160419 16.790356 14.136719 16.728516 C 14.112019 16.666516 14.090566 16.603253 14.072266 16.539062 C 14.054666 16.474663 14.040397 16.40953 14.029297 16.34375 C 14.018197 16.27775 14.010359 16.211291 14.005859 16.144531 C 14.001859 16.097731 14 16.050826 14 16.003906 C 14.00002 15.937406 14.002766 15.870887 14.009766 15.804688 C 14.015766 15.738488 14.026063 15.672652 14.039062 15.607422 C 14.052662 15.541522 14.069644 15.476319 14.089844 15.412109 C 14.109544 15.348509 14.132303 15.285929 14.158203 15.224609 C 14.183803 15.163309 14.212541 15.103352 14.244141 15.044922 C 14.276441 14.986522 14.311639 14.92985 14.349609 14.875 C 14.387309 14.8196 14.427703 14.766174 14.470703 14.714844 C 14.513803 14.663744 14.559402 14.614839 14.607422 14.568359 C 14.654722 14.522359 14.704229 14.47866 14.755859 14.4375 C 14.808559 14.3957 14.863292 14.356603 14.919922 14.320312 C 14.976122 14.284212 15.03418 14.251003 15.09375 14.220703 C 15.15295 14.191003 15.213551 14.164325 15.275391 14.140625 C 15.337391 14.116025 15.400654 14.094472 15.464844 14.076172 C 15.529144 14.058572 15.594376 14.044303 15.660156 14.033203 C 15.726156 14.022103 15.792615 14.014266 15.859375 14.009766 C 15.906075 14.004766 15.95298 14.002 16 14 z " transform="translate(321,529.36218)" id="path4241" class="ColorScheme-Text"/>
    </g>
    <g id="16-16-kdeconnect">
      <rect y="537.36218" x="303" height="16" width="16" id="rect4442" style="opacity:1;fill:none;fill-opacity:1;stroke:none;stroke-width:0.10079043;stroke-linecap:square;stroke-linejoin:miter;stroke-miterlimit:4;stroke-dasharray:none;stroke-dashoffset:0;stroke-opacity:1"/>
      <path style="opacity:1;fill:currentColor;fill-opacity:1;stroke:none" d="M -14 10 L -14 22 L -12 22 L -12 21 L -12 20 L -13 20 L -13 13 L -7 13 L -7 14 L -6 14 L -6 10 L -14 10 z M -11 11 L -9 11 L -9 12 L -11 12 L -11 11 z M -8.5 14 L -8.7773438 15.107422 A 3 3 0 0 0 -9.4980469 15.404297 L -10.474609 14.818359 L -11.181641 15.525391 L -10.595703 16.501953 A 3 3 0 0 0 -10.896484 17.224609 L -12 17.5 L -12 18.5 L -10.892578 18.777344 A 3 3 0 0 0 -10.595703 19.498047 L -11.181641 20.474609 L -10.474609 21.181641 L -9.4980469 20.595703 A 3 3 0 0 0 -8.7753906 20.896484 L -8.5 22 L -7.5 22 L -7.2226562 20.892578 A 3 3 0 0 0 -6.5019531 20.595703 L -5.5253906 21.181641 L -4.8183594 20.474609 L -5.4042969 19.498047 A 3 3 0 0 0 -5.1035156 18.775391 L -4 18.5 L -4 17.5 L -5.1074219 17.222656 A 3 3 0 0 0 -5.4042969 16.501953 L -4.8183594 15.525391 L -5.5253906 14.818359 L -6.5019531 15.404297 A 3 3 0 0 0 -7.2246094 15.103516 L -7.5 14 L -8.5 14 z M -8 16 A 2 2 0 0 1 -7.8007812 16.009766 A 2 2 0 0 1 -7.6035156 16.039062 A 2 2 0 0 1 -7.4082031 16.089844 A 2 2 0 0 1 -7.2207031 16.158203 A 2 2 0 0 1 -7.0410156 16.244141 A 2 2 0 0 1 -6.8710938 16.349609 A 2 2 0 0 1 -6.7109375 16.470703 A 2 2 0 0 1 -6.5644531 16.607422 A 2 2 0 0 1 -6.4335938 16.755859 A 2 2 0 0 1 -6.3164062 16.919922 A 2 2 0 0 1 -6.2167969 17.09375 A 2 2 0 0 1 -6.1367188 17.275391 A 2 2 0 0 1 -6.0722656 17.464844 A 2 2 0 0 1 -6.0292969 17.660156 A 2 2 0 0 1 -6.0058594 17.859375 A 2 2 0 0 1 -6 18 A 2 2 0 0 1 -6.0097656 18.199219 A 2 2 0 0 1 -6.0390625 18.396484 A 2 2 0 0 1 -6.0898438 18.591797 A 2 2 0 0 1 -6.1582031 18.779297 A 2 2 0 0 1 -6.2441406 18.958984 A 2 2 0 0 1 -6.3496094 19.128906 A 2 2 0 0 1 -6.4707031 19.289062 A 2 2 0 0 1 -6.6074219 19.435547 A 2 2 0 0 1 -6.7558594 19.566406 A 2 2 0 0 1 -6.9199219 19.683594 A 2 2 0 0 1 -7.09375 19.783203 A 2 2 0 0 1 -7.2753906 19.863281 A 2 2 0 0 1 -7.4648438 19.927734 A 2 2 0 0 1 -7.6601562 19.970703 A 2 2 0 0 1 -7.859375 19.994141 A 2 2 0 0 1 -7.9433594 20.003906 L -8.0800781 20.003906 A 2 2 0 0 1 -8.1992188 19.994141 A 2 2 0 0 1 -8.3964844 19.964844 A 2 2 0 0 1 -8.5917969 19.914062 A 2 2 0 0 1 -8.7792969 19.845703 A 2 2 0 0 1 -8.9589844 19.759766 A 2 2 0 0 1 -9.1289062 19.654297 A 2 2 0 0 1 -9.2890625 19.533203 A 2 2 0 0 1 -9.3769531 19.451172 L -9.4648438 19.363281 A 2 2 0 0 1 -9.5664062 19.248047 A 2 2 0 0 1 -9.6835938 19.083984 A 2 2 0 0 1 -9.7832031 18.910156 A 2 2 0 0 1 -9.8632812 18.728516 A 2 2 0 0 1 -9.9277344 18.539062 A 2 2 0 0 1 -9.9707031 18.34375 A 2 2 0 0 1 -9.9941406 18.144531 A 2 2 0 0 1 -10 18.003906 A 2 2 0 0 1 -9.9902344 17.804688 A 2 2 0 0 1 -9.9609375 17.607422 A 2 2 0 0 1 -9.9101562 17.412109 A 2 2 0 0 1 -9.8417969 17.224609 A 2 2 0 0 1 -9.7558594 17.044922 A 2 2 0 0 1 -9.6503906 16.875 A 2 2 0 0 1 -9.5292969 16.714844 A 2 2 0 0 1 -9.3925781 16.568359 A 2 2 0 0 1 -9.2441406 16.4375 A 2 2 0 0 1 -9.0800781 16.320312 A 2 2 0 0 1 -8.90625 16.220703 A 2 2 0 0 1 -8.7246094 16.140625 A 2 2 0 0 1 -8.5351562 16.076172 A 2 2 0 0 1 -8.3398438 16.033203 A 2 2 0 0 1 -8.140625 16.009766 A 2 2 0 0 1 -8 16 z " transform="translate(321,529.36218)" id="rect4148" class="ColorScheme-Text"/>
    </g>
    <g id="22-22-kdeconnect" transform="translate(-1,0)">
      <rect style="opacity:1;fill:none;fill-opacity:1;stroke:none;stroke-width:0.13858683;stroke-linecap:square;stroke-linejoin:miter;stroke-miterlimit:4;stroke-dasharray:none;stroke-dashoffset:0;stroke-opacity:1" id="rect4444" width="22" height="22" x="356" y="534.36218"/>
      <path style="opacity:1;fill:currentColor;fill-opacity:1;stroke:none;stroke-width:0.1;stroke-linecap:square;stroke-linejoin:miter;stroke-miterlimit:4;stroke-dasharray:none;stroke-dashoffset:0;stroke-opacity:1" d="m 40,8 0,16 10,0 0,-16 z m 3,1 4,0 0,1 -4,0 z m -2,2 8,0 0,5.5 -1.107422,-0.277344 c -0.0672,-0.252122 -0.166996,-0.494401 -0.296875,-0.720703 l 0.585938,-0.976562 -0.707032,-0.707032 -0.976562,0.585938 C 46.271331,14.272906 46.028379,14.171786 45.775391,14.103516 L 45.5,13 l -1,0 -0.277344,1.107422 c -0.252122,0.0672 -0.494401,0.166996 -0.720703,0.296875 l -0.976562,-0.585938 -0.707032,0.707032 0.585938,0.976562 c -0.131391,0.226716 -0.232511,0.469668 -0.300781,0.722656 L 41,16.5 Z m 4,4 c 0.06653,-6e-5 0.133016,0.0032 0.199219,0.0098 0.0662,0.0065 0.132038,0.01626 0.197265,0.0293 0.06592,0.01363 0.131105,0.03058 0.195313,0.05078 0.0636,0.01965 0.126177,0.04247 0.1875,0.06836 0.06129,0.02564 0.121256,0.05433 0.179687,0.08594 0.05836,0.0323 0.115076,0.0675 0.169922,0.105468 0.05538,0.03766 0.108832,0.07807 0.160156,0.121094 0.05108,0.0431 0.09997,0.08873 0.146485,0.136719 0.04604,0.04729 0.08971,0.09683 0.130859,0.148437 0.0418,0.05268 0.08091,0.10744 0.117188,0.164063 0.03609,0.05624 0.06933,0.114258 0.09961,0.173828 0.02968,0.05918 0.05641,0.119806 0.08008,0.181641 0.02463,0.06204 0.04614,0.125266 0.06445,0.189453 0.01757,0.06435 0.03191,0.129532 0.04297,0.195312 0.01114,0.06597 0.01896,0.132462 0.02344,0.199219 0.0036,0.04679 0.0056,0.0937 0.0059,0.140625 6e-5,0.06653 -0.0032,0.133016 -0.0098,0.199219 -0.0065,0.0662 -0.01626,0.132038 -0.0293,0.197265 -0.01363,0.06592 -0.03058,0.131105 -0.05078,0.195313 -0.01965,0.0636 -0.04247,0.126177 -0.06836,0.1875 -0.02564,0.06129 -0.05432,0.121256 -0.08594,0.179687 -0.0323,0.05836 -0.0675,0.115076 -0.105468,0.169922 -0.03766,0.05538 -0.07807,0.108832 -0.121094,0.160156 -0.0431,0.05108 -0.08873,0.09997 -0.136719,0.146485 -0.04729,0.04604 -0.09683,0.08972 -0.148437,0.130859 -0.05268,0.0418 -0.10744,0.08091 -0.164063,0.117188 -0.05624,0.03609 -0.114258,0.06933 -0.173828,0.09961 -0.05918,0.02968 -0.119806,0.05641 -0.181641,0.08008 -0.06204,0.02463 -0.125266,0.04614 -0.189453,0.06445 -0.06435,0.01757 -0.129532,0.03191 -0.195312,0.04297 -0.06597,0.01114 -0.132462,0.01896 -0.199219,0.02344 -0.02795,0.0025 -0.05595,0.0045 -0.08398,0.0059 l -0.136719,0 c -0.03976,-7.68e-4 -0.07949,-0.0027 -0.119141,-0.0059 -0.0662,-0.0065 -0.132038,-0.01626 -0.197265,-0.0293 -0.06592,-0.01363 -0.131105,-0.03058 -0.195313,-0.05078 -0.0636,-0.01965 -0.126177,-0.04247 -0.1875,-0.06836 -0.06129,-0.02564 -0.121256,-0.05432 -0.179687,-0.08594 -0.05836,-0.0323 -0.115076,-0.0675 -0.169922,-0.105469 -0.05538,-0.03766 -0.108832,-0.07807 -0.160156,-0.121094 -0.03011,-0.02646 -0.05942,-0.05381 -0.08789,-0.08203 l -0.08789,-0.08789 c -0.03532,-0.0371 -0.0692,-0.07554 -0.101562,-0.115234 -0.0418,-0.05268 -0.08091,-0.10744 -0.117188,-0.164063 -0.03609,-0.05624 -0.06933,-0.114258 -0.09961,-0.173828 -0.02968,-0.05918 -0.05641,-0.119805 -0.08008,-0.18164 -0.02463,-0.06204 -0.04614,-0.125267 -0.06445,-0.189454 -0.01757,-0.06435 -0.03191,-0.129532 -0.04297,-0.195312 -0.01114,-0.06597 -0.01896,-0.132462 -0.02344,-0.199219 -0.0036,-0.04679 -0.0056,-0.0937 -0.0059,-0.140625 -6e-5,-0.06653 0.0032,-0.133016 0.0098,-0.199218 0.0065,-0.0662 0.01626,-0.132039 0.0293,-0.197266 0.01363,-0.06592 0.03058,-0.131105 0.05078,-0.195313 0.01965,-0.0636 0.04247,-0.126177 0.06836,-0.1875 0.02564,-0.06129 0.05432,-0.121256 0.08594,-0.179687 0.0323,-0.05836 0.0675,-0.115076 0.105468,-0.169922 0.03766,-0.05538 0.07807,-0.108832 0.121094,-0.160156 0.0431,-0.05108 0.08873,-0.09997 0.136719,-0.146485 0.04729,-0.04604 0.09683,-0.08971 0.148437,-0.130859 0.05268,-0.0418 0.10744,-0.08091 0.164063,-0.117188 0.05624,-0.03609 0.114258,-0.06933 0.173828,-0.09961 0.05918,-0.02968 0.119806,-0.05641 0.181641,-0.08008 0.06204,-0.02463 0.125266,-0.04614 0.189453,-0.06445 0.06435,-0.01757 0.129532,-0.03191 0.195312,-0.04297 0.06597,-0.01114 0.132462,-0.01896 0.199219,-0.02344 C 44.906121,15.004859 44.953025,15.001602 45,15 Z m -4,2.5 1.107422,0.277344 c 0.0672,0.252122 0.166996,0.494401 0.296875,0.720703 l -0.585938,0.976562 0.707032,0.707032 0.976562,-0.585938 c 0.226716,0.131391 0.469668,0.232511 0.722656,0.300781 L 44.5,21 l 1,0 0.277344,-1.107422 c 0.252122,-0.0672 0.494401,-0.166996 0.720703,-0.296875 l 0.976562,0.585938 0.707032,-0.707032 -0.585938,-0.976562 c 0.131391,-0.226716 0.232511,-0.469668 0.300781,-0.722656 L 49,17.5 l 0,3.5 0,1 -2,0 -4,0 -2,0 0,-1 z" transform="translate(322,529.36218)" id="rect4403" inkscape:connector-curvature="0" sodipodi:nodetypes="ccccccccccccccccccccccccccccccccccccccccccccccccccccccccccccccccccccccccccccccccccccccccccccccccccccccccccccccccccccccc" class="ColorScheme-Text"/>
    </g>
  </g>
</svg>
