<svg id="svg" viewBox="0 0 22 22" xmlns="http://www.w3.org/2000/svg">
    <style
        type="text/css"
        id="current-color-scheme">
        .ColorScheme-Text {
            color:#232629;
        }
    </style>
    <g id="list-add">
        <path id="rect2991" d="m10 3v7h-7v2.1h7v6.9h2v-6.9h7v-2.1h-7v-7z" class="ColorScheme-Text" fill="currentColor"/>
        <path id="rect3763" d="m0 0h22v22h-22z" fill="none"/>
    </g>
    <g id="list-remove" transform="translate(22)">
        <path id="rect3783" d="m0 0h22v22h-22z" fill="none"/>
        <path id="rect887" d="m3 10h16v2h-16z" class="ColorScheme-Text" fill="currentColor"/>
    </g>
    <g id="16-16-list-add" transform="matrix(.72727273 0 0 .72727273 -16 6)">
        <path id="rect2991-3" d="m9.625 2.75v6.875h-6.875v2.75h6.875v6.875h2.75v-6.875h6.875v-2.75h-6.875v-6.875z" class="ColorScheme-Text" fill="currentColor"/>
        <path id="rect3763-5" d="m0 0h22v22h-22z" fill="none"/>
    </g>
    <g id="16-16-list-remove" transform="matrix(.72727273 0 0 .72727273 44 6)">
        <path id="rect3783-9" d="m0 0h22v22h-22z" fill="none"/>
        <path id="rect889" d="m2.75 9.625h16.5v2.75h-16.5z" class="ColorScheme-Text" fill="currentColor"/>
    </g>
</svg>
