<?xml version="1.0" encoding="UTF-8" standalone="no"?>
<svg xmlns:dc="http://purl.org/dc/elements/1.1/" xmlns:cc="http://creativecommons.org/ns#" xmlns:rdf="http://www.w3.org/1999/02/22-rdf-syntax-ns#" xmlns:svg="http://www.w3.org/2000/svg" xmlns="http://www.w3.org/2000/svg" xmlns:sodipodi="http://sodipodi.sourceforge.net/DTD/sodipodi-0.dtd" xmlns:inkscape="http://www.inkscape.org/namespaces/inkscape" viewBox="0 0 22 22" id="svg" version="1.1" inkscape:version="0.91 r13725" width="100%" height="100%" sodipodi:docname="list.svg">
  <defs id="defs81">
    <style id="current-color-scheme" type="text/css">
      .ColorScheme-Text {
        color:#7B7C7E;
      }
      .ColorScheme-Background{
        color:#EFF0F1;
      }
      .ColorScheme-Highlight{
        color:#3DAEE6;
      }
      .ColorScheme-ViewText {
        color:#7B7C7E;
      }
      .ColorScheme-ViewBackground{
        color:#FCFCFC;
      }
      .ColorScheme-ViewHover {
        color:#3DAEE6;
      }
      .ColorScheme-ViewFocus{
        color:#1E92FF;
      }
      .ColorScheme-ButtonText {
        color:#7B7C7E;
      }
      .ColorScheme-ButtonBackground{
        color:#EFF0F1;
      }
      .ColorScheme-ButtonHover {
        color:#3DAEE6;
      }
      .ColorScheme-ButtonFocus{
        color:#1E92FF;
      }
</style>
  </defs>
  <metadata id="metadata34">
    <rdf:RDF>
      <cc:Work rdf:about="">
        <dc:format>image/svg+xml</dc:format>
        <dc:type rdf:resource="http://purl.org/dc/dcmitype/StillImage"/>
        <dc:title/>
      </cc:Work>
    </rdf:RDF>
  </metadata>
  <sodipodi:namedview pagecolor="#ffffff" bordercolor="#666666" borderopacity="1" objecttolerance="10" gridtolerance="10" guidetolerance="10" inkscape:pageopacity="0" inkscape:pageshadow="2" inkscape:window-width="2560" inkscape:window-height="955" id="namedview32" showgrid="true" inkscape:zoom="27.453126" inkscape:cx="15.670195" inkscape:cy="9.3435171" inkscape:window-x="0" inkscape:window-y="35" inkscape:window-maximized="1" inkscape:current-layer="svg" borderlayer="true" showguides="true" inkscape:guide-bbox="true" inkscape:snap-bbox="true" inkscape:showpageshadow="false">
    <inkscape:grid type="xygrid" id="grid3046" empspacing="4" visible="true" enabled="true" snapvisiblegridlinesonly="true"/>
  </sodipodi:namedview>
  <g id="list-add">
    <path style="fill:currentColor;fill-opacity:1;stroke:none" d="m 10,3 0,7 -7,0 0,2.1 7,0 0,6.9 2,0 0,-6.9 7,0 0,-2.1 -7,0 0,-7 z" id="rect2991" inkscape:connector-curvature="0" sodipodi:nodetypes="ccccccccccccc" class="ColorScheme-Text" />
    <rect y="0" x="0" height="22" width="22" id="rect3763" style="fill:#566060;fill-opacity:0;stroke:none"/>
  </g>
  <g id="list-remove" transform="translate(22)">
    <path inkscape:connector-curvature="0" id="path3775" d="m 11,3 c -4.418278,0 -8,3.581722 -8,8 0,4.418278 3.581722,8 8,8 4.418278,0 8,-3.581722 8,-8 0,-4.418278 -3.581722,-8 -8,-8 z m 0,1 c 3.865993,0 7,3.134007 7,7 0,1.761699 -0.644463,3.363346 -1.71875,4.59375 l -9.875,-9.875 C 7.6366543,4.644463 9.2383007,4 11,4 Z m -5.28125,2.40625 9.875,9.875 C 14.363346,17.355537 12.761699,18 11,18 7.134007,18 4,14.865993 4,11 4,9.238301 4.644463,7.636654 5.71875,6.40625 Z" style="color:#000000;font-style:normal;font-variant:normal;font-weight:normal;font-stretch:normal;font-size:medium;line-height:normal;font-family:Sans;-inkscape-font-specification:Sans;text-indent:0;text-align:start;text-decoration:none;text-decoration-line:none;letter-spacing:normal;word-spacing:normal;text-transform:none;direction:ltr;block-progression:tb;writing-mode:lr-tb;baseline-shift:baseline;text-anchor:start;display:inline;overflow:visible;visibility:visible;fill:#e74c3c;fill-opacity:1;stroke:none;stroke-width:1px;marker:none;enable-background:accumulate"/>
    <rect y="0" x="0" height="22" width="22" id="rect3783" style="fill:#566060;fill-opacity:0;stroke:none"/>
  </g>
</svg>
