<svg id="svg7229" viewBox="0 0 22 22" xmlns="http://www.w3.org/2000/svg">
    <style
        type="text/css"
        id="current-color-scheme">
        .ColorScheme-Text {
            color:#232629;
        }
        .ColorScheme-NegativeText {
            color:#da4453;
        }
    </style>
    <g id="media-playback-pause" transform="matrix(1.4999765 0 0 1.4999765 -5.49993 -1551.0186)">
        <path id="rect3003-0" d="m3.666678 1034.0287h14.666897v14.666837h-14.666897z" fill="none"/>
        <path id="rect3287-9" d="m12.777771 1036.0463h3.555542v10.6318h-3.555542zm-7.1110849 0h3.5555439v10.6318h-3.5555439z" class="ColorScheme-Text" fill="currentColor"/>
    </g>
    <g id="media-playback-start" transform="matrix(1.4999765 0 0 1.4999765 18.49959 -1551.0186)">
        <path id="rect3003-1" d="m3.666997 1034.0287h14.666897v14.666837h-14.666897z" fill="none"/>
        <path id="path3357-8" d="m6.3409805 1046.6916 9.3180385-5.3294-9.3180385-5.3294z" class="ColorScheme-Text" fill="currentColor"/>
    </g>
    <g id="media-playback-stop" transform="matrix(1.4999765 0 0 1.4999765 42.49912 -1551.0186)">
        <path id="rect3003-3" d="m3.667311 1034.0287h14.666897v14.666837h-14.666897z" fill="none"/>
        <path id="rect3274-5" d="m5.6673064 1036.0324h10.665388v10.6596h-10.665388z" class="ColorScheme-Text" fill="currentColor"/>
    </g>
    <g id="media-record" transform="matrix(1.4999765 0 0 1.4999765 66.49866 -1551.0186)">
        <path id="rect3003-03" d="m3.667618 1034.0287h14.666897v14.666837h-14.666897z" fill="none"/>
        <rect id="rect3274-0" x="5.669291" y="1036.0297" width="10.661418" height="10.664993" ry="5.332497" class="ColorScheme-NegativeText" fill="currentColor"/>
    </g>
    <g id="media-seek-backward" transform="matrix(1.4999765 0 0 1.4999765 90.49817 -1551.0186)">
        <path id="rect3003-07" d="m3.667944 1034.0287h14.666897v14.666837h-14.666897z" fill="none"/>
        <g id="g893" transform="matrix(.66667711 0 0 .66667711 3.667944 1034.0286)" class="ColorScheme-Text" fill="currentColor">
            <path id="path889" d="m11 4v14l-10-7z"/>
            <path id="path891" d="m21 4v14l-10-7z"/>
        </g>
    </g>
    <g id="media-seek-forward" transform="matrix(1.4999765 0 0 1.4999765 114.55211 -1551.0186)">
        <path id="rect3003-2" d="m3.631984 1034.0287h14.666897v14.666837h-14.666897z" fill="none"/>
        <g id="g911" transform="matrix(.66667711 0 0 .66667711 3.631984 1034.0286)" class="ColorScheme-Text" fill="currentColor">
            <path id="path907" d="m11 4v14l10-7z"/>
            <path id="path909" d="m1 4v14l10-7z"/>
        </g>
    </g>
    <g id="media-skip-backward" transform="matrix(1.4999765 0 0 1.4999765 138.49725 -1551.0186)">
        <path id="rect3003-9" d="m3.668557 1034.0287h14.666897v14.666837h-14.666897z" fill="none"/>
        <g id="g931" transform="matrix(.66667711 0 0 .66667711 3.668558 1034.0286)" class="ColorScheme-Text" fill="currentColor">
            <path id="path925" d="m12 4v14l-10-7z"/>
            <path id="path927" d="m2 11v7h-2v-14h2z"/>
            <path id="path929" d="m22 4v14l-10-7z"/>
        </g>
    </g>
    <g id="media-skip-forward" transform="matrix(1.4999765 0 0 1.4999765 162.49676 -1551.0186)">
        <path id="rect3003-7" d="m3.668884 1034.0287h14.666897v14.666837h-14.666897z" fill="none"/>
        <g id="g952" transform="matrix(.66667711 0 0 .66667711 3.668884 1034.0286)" class="ColorScheme-Text" fill="currentColor">
            <path id="path946" d="m10 4v14l10-7z"/>
            <path id="path948" d="m20 11v7h2v-14h-2z"/>
            <path id="path950" d="m0 4v14l10-7z"/>
        </g>
    </g>
    <g id="media-eject" transform="matrix(1.2499744 0 0 1.2499744 189.75012 -1290.6762)">
        <path id="rect3003" d="m1.799941 1032.5621h17.600361v17.600325h-17.600361z" fill="none"/>
        <path id="path6" d="m10.600116 1034.9592-7.1958529 8.5375h14.391706zm-7.1958529 10.5656v2.2406h14.391706v-2.2406z" class="ColorScheme-Text" fill="currentColor"/>
    </g>
    <g id="media-playback-paused" transform="matrix(1.4999765 0 0 1.4999765 -5.49993 -1527.0186)">
        <path id="rect3003-0-3" d="m3.666678 1034.0287h14.666897v14.666837h-14.666897z" fill="none"/>
        <path id="rect3287-9-5" d="m11.666692 1039.3621h1.333385v4.0002h-1.333385zm-2.6667693 0h1.3333853v4.0002h-1.3333853zm2.0000773-3.3334c-2.9547808 0-5.3335394 2.3787-5.3335394 5.3335s2.3787586 5.3335 5.3335394 5.3335c2.954781 0 5.333539-2.3787 5.333539-5.3335s-2.378758-5.3335-5.333539-5.3335zm0 .6667c2.585433 0 4.666847 2.0813 4.666847 4.6668s-2.081414 4.6668-4.666847 4.6668c-2.5854332 0-4.666847-2.0813-4.666847-4.6668s2.0814138-4.6668 4.666847-4.6668z" class="ColorScheme-Text" fill="currentColor"/>
    </g>
    <g id="media-playback-playing" transform="matrix(1.4999765 0 0 1.4999765 18.49959 -1527.0186)">
        <path id="rect3003-1-2" d="m3.666997 1034.0287h14.666897v14.666837h-14.666897z" fill="none"/>
        <path id="path3357-8-9" d="m9.6665342 1043.3624 3.3336088-2.0002-3.3336088-2.0002zm1.3334658-7.3341c-2.9549601 0-5.333863 2.3789-5.333863 5.3339s2.3789029 5.3339 5.333863 5.3339c2.95496 0 5.333863-2.3789 5.333863-5.3339s-2.378903-5.3339-5.333863-5.3339zm0 .6668c2.58559 0 4.66713 2.0815 4.66713 4.6671s-2.08154 4.6671-4.66713 4.6671c-2.5855901 0-4.6671301-2.0815-4.6671301-4.6671s2.08154-4.6671 4.6671301-4.6671z" class="ColorScheme-Text" fill="currentColor"/>
    </g>
    <g id="media-playback-stopped" transform="matrix(1.4999765 0 0 1.4999765 42.49912 -1527.0186)">
        <path id="rect3003-3-2" d="m3.667311 1034.0287h14.666897v14.666837h-14.666897z" fill="none"/>
        <path id="path41" d="m8.9999227 1039.3621h4.0001543v4.0002h-4.0001543zm2.0000773-3.3334c-2.9547808 0-5.3335394 2.3787-5.3335394 5.3335s2.3787586 5.3335 5.3335394 5.3335c2.954781 0 5.333539-2.3787 5.333539-5.3335s-2.378758-5.3335-5.333539-5.3335zm0 .6667c2.585433 0 4.666847 2.0813 4.666847 4.6668s-2.081414 4.6668-4.666847 4.6668c-2.5854332 0-4.666847-2.0813-4.666847-4.6668s2.0814138-4.6668 4.666847-4.6668z" class="ColorScheme-Text" fill="currentColor"/>
    </g>
</svg>
