<svg id="svg4153" viewBox="0 0 32.000004 32" xmlns="http://www.w3.org/2000/svg">
    <style
        type="text/css"
        id="current-color-scheme">
        .ColorScheme-NegativeText {
            color:#da4453;
        }
    </style>
    <g id="22-22-plasmavault_error" transform="translate(49 4.999999)">
        <path id="rect4148" d="m0 0h22v22h-22z" fill="none"/>
        <path id="path829" d="m3 3.000001v16h16v-14h-6.992l-2-2-.008.008v-.008zm1 1h5.586l1.004 1.004-4.02 3.996h-2.57zm10 5a3 3 0 0 1 3 3.000001v.999999h1v5h-8v-5h1v-.999999a3 3 0 0 1 3-3.000001zm0 1.000001a2 2 0 0 0 -2 2v.999999h4v-.999999a2 2 0 0 0 -2-2z" class="ColorScheme-NegativeText" fill="currentColor"/>
    </g>
    <g id="plasmavault_error">
        <path id="rect4230" d="m0-1e-6h32.000004v32h-32.000004z" fill="none"/>
        <path id="path875" d="m4 4v24h24v-21h-11l-3-3zm1 1h8.585938l2.207031 2.2070312-5.792969 5.7929688h-5zm16 8a4 4 0 0 1 4 4v3h2v7h-12v-7h2v-3a4 4 0 0 1 4-4zm0 1a3.0003099 3 0 0 0-3 3v3h6v-3a3.0003099 3 0 0 0-3-3z" class="ColorScheme-NegativeText" fill="currentColor"/>
    </g>
</svg>
