<svg id="svg" version="1.1" viewBox="0 0 22 22" xmlns="http://www.w3.org/2000/svg">
    <defs id="defs81">
        <style id="current-color-scheme" type="text/css">.ColorScheme-Text {
            color:#232629;
        }
        .ColorScheme-Background {
            color:#eff0f1;
        }
        .ColorScheme-ViewBackground {
            color:#fcfcfc;
        }
        .ColorScheme-ButtonFocus {
            color:#3daee9;
        }
        .ColorScheme-PositiveText {
            color:#27ae60;
        }
        .ColorScheme-NeutralText {
            color:#f67400;
        }
        .ColorScheme-NegativeText {
            color:#da4453;
        }</style>
    </defs>
    <g id="22-22-preferences-desktop-display-randr" transform="translate(-1,-1)">
        <rect id="rect3832" x="1" y="1" width="22" height="22" fill-opacity="0"/>
        <path id="rect7235" class="ColorScheme-Text" d="m7 19h10v1h-10zm3-2h4v2h-4zm-6-13v13h16v-13zm1 1h14v9h-14z" fill="currentColor"/>
        <path id="rect3018" class="ColorScheme-Text" d="m6 9 4 4h-4z" fill="currentColor"/>
        <path id="path3028" class="ColorScheme-Text" d="m18 10-4-4h4z" fill="currentColor"/>
    </g>
    <g id="preferences-desktop-notification" transform="translate(-1,39)">
        <rect id="rect3068" x="1" y="1" width="22" height="22" fill-opacity="0"/>
        <rect id="rect4130-82-0" x="4.000011" y="4" width="15.999978" height="15.999987" ry="7.999989" fill="#3daee9"/>
        <path id="rect4142-6" d="m11.202644 7.1999826-0.0026 7.2000124h1.599998l0.0026-7.2000124zm0.799999 7.9999894c-0.441822 0-0.799999 0.358171-0.799999 0.799999 0 0.441827 0.358177 0.799999 0.799999 0.799999s0.799999-0.358172 0.799999-0.799999c0-0.441828-0.358177-0.799999-0.799999-0.799999z" fill="#fcfcfc"/>
    </g>
    <g id="22-22-preferences-system-bluetooth" transform="translate(-22,94)">
        <rect id="rect4645" x="66" width="22" height="22" fill="none"/>
        <path id="rect4163-9" class="ColorScheme-Text" d="m76.998047 3v7.041013l-3.292969-3.2929692-2e-3 0.00195c-0.355749-0.3559538-0.996047-0.9960876-0.996047-0.9960876l-0.707031 0.7070313 4.544922 4.5410155-4.544922 4.541016 0.707031 0.707031s0.640351-0.640094 0.996094-0.996094h2e-3l3.294875-3.292968v7.039062h1l4-4-4-4 4-4-4-4zm1.001953 1.4160156 2.585938 2.5859375-2.585938 2.5859375zm0 8.0000004 2.585938 2.585937-2.585938 2.585938z" fill="currentColor"/>
    </g>
    <g id="22-22-preferences-system-bluetooth-activated" transform="translate(0,94)">
        <rect id="rect4674" x="66" width="22" height="22" fill="none"/>
        <path id="path4676" class="ColorScheme-Text" d="m76.998047 3v7.041013l-3.292969-3.2929692-2e-3 0.00195c-0.355749-0.3559538-0.996047-0.9960876-0.996047-0.9960876l-0.707031 0.7070313 4.544922 4.5410155-4.544922 4.541016 0.707031 0.707031s0.640351-0.640094 0.996094-0.996094h2e-3l3.294875-3.292968v7.039062h1l4-4-4-4 4-4-4-4h-1.001953zm1.001953 1.4160156 2.585938 2.5859375-2.585938 2.5859375v-5.171875zm-11 5.5839844a1 1 0 0 0-1 1 1 1 0 0 0 1 1 1 1 0 0 0 1-1 1 1 0 0 0-1-1zm4 0a1 1 0 0 0-1 1 1 1 0 0 0 1 1 1 1 0 0 0 1-1 1 1 0 0 0-1-1zm12 0a1 1 0 0 0-1 1 1 1 0 0 0 1 1 1 1 0 0 0 1-1 1 1 0 0 0-1-1zm4 0a1 1 0 0 0-1 1 1 1 0 0 0 1 1 1 1 0 0 0 1-1 1 1 0 0 0-1-1zm-9 2.416016 2.585938 2.585937-2.585938 2.585938v-5.171875z" fill="currentColor"/>
    </g>
    <g id="22-22-preferences-system-bluetooth-inactive" transform="translate(-44,94)">
        <rect id="rect4162" x="66" width="22" height="22" fill="none"/>
        <path id="path4164" class="ColorScheme-Text" d="m76.998047 3v7.041013l-3.292969-3.2929692-2e-3 0.00195c-0.355749-0.3559538-0.996047-0.9960876-0.996047-0.9960876l-0.707031 0.7070313 4.544922 4.5410155-4.544922 4.541016 0.707031 0.707031s0.640351-0.640094 0.996094-0.996094h2e-3l3.294875-3.292968v7.039062h1l4-4-4-4 4-4-4-4zm1.001953 1.4160156 2.585938 2.5859375-2.585938 2.5859375zm0 8.0000004 2.585938 2.585937-2.585938 2.585938z" fill="currentColor" opacity=".5"/>
    </g>
    <g id="preferences-system-bluetooth" transform="translate(44,94)">
        <rect id="rect4168" x="-5" y="22" width="32" height="32" fill="none"/>
        <path id="rect4331" class="ColorScheme-Text" d="m 11,26 0,0.410156 0,10.587891 L 5.0019531,31 4.296875,31.705078 10.589844,38 4.296875,44.294922 5.0019531,45 11,39.001953 11,50 12,50 12.002,50 18,44.001953 18,44 18,43.998047 12.001953,38 18,32.001953 18,32 18,31.998047 12.001953,26 12,26 11,26 z M 12,27.410156 16.587891,32 12,36.589844 12,27.410156 z m 0,12 L 16.587891,44 12,48.589844 12,39.410156 z" fill="currentColor"/>
    </g>
    <g id="preferences-system-bluetooth-activated" transform="translate(44,94)">
        <rect id="rect4422" x="27" y="22" width="32" height="32" fill="none"/>
        <path id="path4424" class="ColorScheme-Text" d="m43 26v10.998047l-5.998047-5.998047-0.705078 0.705078 6.292969 6.294922-6.292969 6.294922 0.705078 0.705078 5.998047-5.998047v10.998047h1.002l5.998-5.998047v-0.003906l-5.998047-5.998047 5.998047-5.998047v-0.003906l-5.998047-5.998047h-1.001953zm1 1.410156 4.587891 4.589844-4.587891 4.589844v-9.179688zm-14 9.589844a1 1 0 0 0-1 1 1 1 0 0 0 1 1 1 1 0 0 0 1-1 1 1 0 0 0-1-1zm6 0a1 1 0 0 0-1 1 1 1 0 0 0 1 1 1 1 0 0 0 1-1 1 1 0 0 0-1-1zm14 0a1 1 0 0 0-1 1 1 1 0 0 0 1 1 1 1 0 0 0 1-1 1 1 0 0 0-1-1zm6 0a1 1 0 0 0-1 1 1 1 0 0 0 1 1 1 1 0 0 0 1-1 1 1 0 0 0-1-1zm-12 2.410156 4.587891 4.589844-4.587891 4.589844v-9.179688z" fill="currentColor"/>
    </g>
    <g id="preferences-system-bluetooth-inactive" transform="translate(44,94)">
        <rect id="rect4426" x="-37" y="22" width="32" height="32" fill="none"/>
        <path id="path4428" class="ColorScheme-Text" d="m-21 26v10.998047l-5.998047-5.998047-0.705078 0.705078 6.292969 6.294922-6.292969 6.294922 0.705078 0.705078 5.998047-5.998047v10.998047h1.002l5.998-5.998047v-4e-3l-5.998047-5.997953 5.998047-5.998047v-0.003953l-5.998047-5.998h-1.001953zm1 1.410156 4.587891 4.589844-4.587891 4.589844v-9.179688zm0 12 4.587891 4.589844-4.587891 4.589844v-9.179688z" fill="currentColor" opacity=".5"/>
    </g>
    <g id="preferences-system-bluetooth-battery" transform="translate(44,126)">
        <rect id="rect4168-3" x="-5" y="22" width="32" height="32" fill="none"/>
        <path id="rect4331-5" class="ColorScheme-Text" d="m 11,26 v 0.410156 10.587891 L 5.0019531,31 4.296875,31.705078 10.589844,38 4.296875,44.294922 5.0019531,45 11,39.001953 V 50 h 1 0.002 L 18,44.001953 V 44 43.998 L 12.001953,38 18,32.001953 V 32 31.998 L 12.001953,26 H 12 Z M 12,27.410156 16.587891,32 12,36.589844 Z m 0,12 L 16.587891,44 12,48.589844 Z" fill="currentColor"/>
    </g>
    <g id="preferences-desktop-display-randr">
        <rect id="rect3832-6" x="26" y="-10" width="32" height="32" fill-opacity="0"/>
        <path id="rect7235-7" class="ColorScheme-Text" d="m35.011249 15h11.977502l0.011249 2h-11.977502zm3.988751-2h4v2h-4zm-9-18v18h22v-18zm1 1h20v14h-20z" fill="currentColor"/>
        <path id="rect3018-5" class="ColorScheme-Text" d="m32 4 5 5h-5z" fill="currentColor"/>
        <path id="path3028-3" class="ColorScheme-Text" d="m50 2-5-5h5z" fill="currentColor"/>
    </g>
</svg>
