<?xml version="1.0" encoding="UTF-8" standalone="no"?>
<svg
   xmlns:dc="http://purl.org/dc/elements/1.1/"
   xmlns:cc="http://creativecommons.org/ns#"
   xmlns:rdf="http://www.w3.org/1999/02/22-rdf-syntax-ns#"
   xmlns:svg="http://www.w3.org/2000/svg"
   xmlns="http://www.w3.org/2000/svg"
   xmlns:sodipodi="http://sodipodi.sourceforge.net/DTD/sodipodi-0.dtd"
   xmlns:inkscape="http://www.inkscape.org/namespaces/inkscape"
   viewBox="0 0 22 22"
   id="svg"
   version="1.1"
   inkscape:version="0.48.4 r9939"
   width="100%"
   height="100%"
   sodipodi:docname="quassel.svgz">
  <defs
     id="defs81">
    <style
       id="current-color-scheme"
       type="text/css">
      .ColorScheme-Text {
        color:#7B7C7E;
      }
      .ColorScheme-Background{
        color:#EFF0F1;
      }
      .ColorScheme-Highlight{
        color:#3DAEE6;
      }
      .ColorScheme-ViewText {
        color:#7B7C7E;
      }
      .ColorScheme-ViewBackground{
        color:#FCFCFC;
      }
      .ColorScheme-ViewHover {
        color:#3DAEE6;
      }
      .ColorScheme-ViewFocus{
        color:#1E92FF;
      }
      .ColorScheme-ButtonText {
        color:#7B7C7E;
      }
      .ColorScheme-ButtonBackground{
        color:#EFF0F1;
      }
      .ColorScheme-ButtonHover {
        color:#3DAEE6;
      }
      .ColorScheme-ButtonFocus{
        color:#1E92FF;
      }
</style>
  </defs>
  <metadata
     id="metadata34">
    <rdf:RDF>
      <cc:Work
         rdf:about="">
        <dc:format>image/svg+xml</dc:format>
        <dc:type
           rdf:resource="http://purl.org/dc/dcmitype/StillImage" />
        <dc:title />
      </cc:Work>
    </rdf:RDF>
  </metadata>
  <sodipodi:namedview
     pagecolor="#3daee9"
     bordercolor="#666666"
     borderopacity="1"
     objecttolerance="10"
     gridtolerance="10"
     guidetolerance="10"
     inkscape:pageopacity="0.03921569"
     inkscape:pageshadow="2"
     inkscape:window-width="1920"
     inkscape:window-height="1025"
     id="namedview32"
     showgrid="true"
     inkscape:zoom="11.313708"
     inkscape:cx="18.732909"
     inkscape:cy="7.741729"
     inkscape:window-x="-2"
     inkscape:window-y="-3"
     inkscape:window-maximized="1"
     inkscape:current-layer="svg"
     borderlayer="true"
     showguides="true"
     inkscape:guide-bbox="true"
     inkscape:snap-bbox="true">
    <inkscape:grid
       type="xygrid"
       id="grid3046"
       empspacing="4"
       visible="true"
       enabled="true"
       snapvisiblegridlinesonly="true"
       color="#0000ff"
       opacity="0.03921569"
       empcolor="#0000ff"
       empopacity="0.07843137" />
    <sodipodi:guide
       orientation="0,1"
       position="2,19"
       id="guide3820" />
    <sodipodi:guide
       orientation="0,1"
       position="5,3"
       id="guide3822" />
    <sodipodi:guide
       orientation="1,0"
       position="11,20"
       id="guide3824" />
    <sodipodi:guide
       orientation="0,1"
       position="2,11"
       id="guide3826" />
  </sodipodi:namedview>
  <g
     id="quassel"
     transform="translate(-1,-1)">
    <rect
       y="1"
       x="1"
       height="22"
       width="22"
       id="rect3881"
       style="fill:#ffffff;fill-opacity:0.01000001;stroke:none" />
    <path
       style="fill:currentColor;fill-opacity:1;stroke:none"
       d="m 11,3 c -4.418278,0 -8,3.581722 -8,8 0,4.418278 3.581722,8 8,8 4.418278,0 8,-3.581722 8,-8 0,-4.418278 -3.581722,-8 -8,-8 z m 0,1 c 3.865993,0 7,3.1340068 7,7 0,3.865993 -3.134007,7 -7,7 C 7.1340068,18 4,14.865993 4,11 4,7.1340068 7.1340068,4 11,4 z m 2,7 c -1.656854,0 -3,1.343146 -3,3 0,1.656854 1.343146,3 3,3 1.656854,0 3,-1.343146 3,-3 0,-1.656854 -1.343146,-3 -3,-3 z"
       transform="translate(1,1)"
       id="path2999"
       class="ColorScheme-Text"
       inkscape:connector-curvature="0" />
  </g>
  <g
     transform="translate(-25,-1)"
     id="quassel_inactive">
    <rect
       style="fill:#ffffff;fill-opacity:0.01000001;stroke:none"
       id="rect3777"
       width="22"
       height="22"
       x="1"
       y="1" />
    <path
       inkscape:connector-curvature="0"
       class="ColorScheme-Text"
       id="path3779"
       transform="translate(1,1)"
       d="m 11,3 c -4.418278,0 -8,3.581722 -8,8 0,4.418278 3.581722,8 8,8 4.418278,0 8,-3.581722 8,-8 0,-4.418278 -3.581722,-8 -8,-8 z m 0,1 c 3.865993,0 7,3.1340068 7,7 0,3.865993 -3.134007,7 -7,7 C 7.1340068,18 4,14.865993 4,11 4,7.1340068 7.1340068,4 11,4 z m 2,7 c -1.656854,0 -3,1.343146 -3,3 0,1.656854 1.343146,3 3,3 1.656854,0 3,-1.343146 3,-3 0,-1.656854 -1.343146,-3 -3,-3 z"
       style="opacity:0.2;fill:currentColor;fill-opacity:1;stroke:none" />
  </g>
  <g
     transform="translate(23,-1)"
     id="quassel_message">
    <rect
       style="fill:#ffffff;fill-opacity:0.01000001;stroke:none"
       id="rect3785"
       width="22"
       height="22"
       x="1"
       y="1" />
    <path
       inkscape:connector-curvature="0"
       class="ColorScheme-Highlight"
       id="path3787"
       transform="translate(1,1)"
       d="m 11,3 c -4.418278,0 -8,3.581722 -8,8 0,4.418278 3.581722,8 8,8 4.418278,0 8,-3.581722 8,-8 0,-4.418278 -3.581722,-8 -8,-8 z m 0,1 c 3.865993,0 7,3.1340068 7,7 0,3.865993 -3.134007,7 -7,7 C 7.1340068,18 4,14.865993 4,11 4,7.1340068 7.1340068,4 11,4 z m 2,7 c -1.656854,0 -3,1.343146 -3,3 0,1.656854 1.343146,3 3,3 1.656854,0 3,-1.343146 3,-3 0,-1.656854 -1.343146,-3 -3,-3 z"
       style="fill:currentColor;fill-opacity:1;stroke:none" />
  </g>
</svg>
