<svg id="svg2" version="1.1" viewBox="0 0 54 128" xmlns="http://www.w3.org/2000/svg">
    <style id="current-color-scheme" type="text/css">
        .ColorScheme-Text {
            color:#232629;
        }
    </style>
    <g id="22-22-system-log-out">
        <path id="path7" class="ColorScheme-Text" d="m11 13c-4.43202 0-8 3.56798-8 8s3.56798 8 8 8 8-3.56798 8-8-3.56798-8-8-8zm0 1c3.878025 0 7 3.121975 7 7s-3.121975 7-7 7-7-3.121975-7-7 3.121975-7 7-7zm1.292969 3-3.292969 3.292969-.7070312.707031.7070312.707031 3.292969 3.292969.707031-.707031-3.2929688-3.292969 3.2929688-3.292969z" fill="currentColor"/>
        <path id="path9" d="m0 10v22h22v-22z" fill="none"/>
    </g>
    <g id="system-log-out">
        <path id="path12" class="ColorScheme-Text" d="m38 4a12 12 0 0 0-12 12 12 12 0 0 0 12 12 12 12 0 0 0 12-12 12 12 0 0 0-12-12zm0 1a11 11 0 0 1 11 11 11 11 0 0 1-11 11 11 11 0 0 1-11-11 11 11 0 0 1 11-11zm3.269531 3-8.269531 8 8.269531 8 0.730469-0.707031-7.539062-7.292969 7.539062-7.2929688z" fill="currentColor"/>
        <path id="path14" d="m22 0v32h32v-32z" fill="none"/>
    </g>
    <g id="22-22-system-lock-screen" transform="translate(54 96)">
        <path id="path17" class="ColorScheme-Text" d="m11 13c-2.216 0-4 1.784-4 4v4h-2v8h12v-8h-2v-4c0-2.216-1.784-4-4-4zm0 1c1.662 0 3 1.561 3 3.5v3.5h-6v-3.5c0-1.939 1.338-3.5 3-3.5zm-5 8h10v6h-10z" fill="currentColor"/>
        <path id="path19" d="m0 10v22h22v-22z" fill="none"/>
    </g>
    <g id="system-lock-screen" transform="translate(54 96)">
        <path id="path22" class="ColorScheme-Text" d="m38 4c-6.627417 0-12 5.372583-12 12s5.372583 12 12 12 12-5.372583 12-12-5.372583-12-12-12zm0 1c6.075132 0 11 4.9248678 11 11 0 6.075132-4.924868 11-11 11s-11-4.924868-11-11c0-6.0751322 4.924868-11 11-11zm0 3c-2.216 0-4 1.784-4 4v4h-2v8h12v-8h-2v-4c0-2.216-1.784-4-4-4zm0 1c1.662 0 3 1.561 3 3.5v3.5h-6v-3.5c0-1.939 1.338-3.5 3-3.5zm-5 8h10v6h-10z" fill="currentColor"/>
        <path id="path24" d="m22 0v32h32v-32z" fill="none"/>
    </g>
    <g id="22-22-system-reboot" transform="matrix(0,-1,-1,0,86,96)">
        <path id="path27" class="ColorScheme-Text" d="m11 13c-1.441715 0-2.802961 0.36915-3.96875 1.03125l0.71875 0.6875 0.0625 0.0625 2.75 2.78125 0.71875-0.71875-2.5-2.46875c0.698332-0.2346 1.439144-0.375 2.21875-0.375 3.877969 0 7 3.12205 7 7 0 1.1625-0.283874 2.2559-0.78125 3.21875l0.75 0.75c0.662052-1.1658 1.03125-2.5271 1.03125-3.96875 0-4.43205-3.568034-8-8-8zm-6.96875 4.03125c-0.662051 1.1658-1.03125 2.5271-1.03125 3.96875 0 4.43205 3.568034 8 8 8 1.441714 0 2.802962-0.36915 3.96875-1.03125l-3.53125-3.53125-0.6875 0.71875 2.46875 2.46875c-0.698333 0.2346-1.439144 0.375-2.21875 0.375-3.87797 0-7-3.12205-7-7 0-1.1625 0.283876-2.2559 0.78125-3.21875z" fill="currentColor"/>
        <path id="path29" d="m0 10v22h22v-22z" fill="none"/>
    </g>
    <g id="system-reboot" transform="matrix(0,-1,-1,0,108,118)">
        <path id="path32" class="ColorScheme-Text" d="M 38,4 A 12,12 0 0 0 31.916016,5.671875 L 37.292969,11.050781 38,10.339844 33.595703,5.9355469 A 11,11 0 0 1 38,5 11,11 0 0 1 49,16 11,11 0 0 1 47.595703,21.351562 l 0.732422,0.728516 A 12,12 0 0 0 50,16 12,12 0 0 0 38,4 Z M 27.671875,9.9160156 A 12,12 0 0 0 26,16 12,12 0 0 0 38,28 12,12 0 0 0 44.083984,26.328125 L 38.707031,20.949219 38,21.65625 42.40625,26.060547 A 11,11 0 0 1 38,27 11,11 0 0 1 27,16 11,11 0 0 1 28.404297,10.648438 Z" fill="currentColor"/>
        <path id="path34" d="m22 0v32h32v-32z" fill="none"/>
    </g>
    <g id="22-22-system-save-session" transform="translate(112 32)">
        <path id="path37" class="ColorScheme-Text" d="m2.999995 13.003509v15.9999h16.000005v-12.69915h-.007l.007-.015-3.29297-3.29295-.008.015v-.015h-12.69922zm1.000005 1.00185h3v5.0001h8v-5.0001h.29298l2.70702 2.70705v11.29305h-2v-7.00005h-10.000005v7.00005h-1.999995zm4.000005 0h3.90039v4.00005h-3.90039zm-1.000005 8.0001h8v6h-8z" fill="currentColor"/>
        <path id="path39" d="m0 10v22h22v-22z" fill="none"/>
    </g>
    <g id="system-save-session" transform="translate(112 32)">
        <path id="path42" class="ColorScheme-Text" d="m26 4v24h24v-18l-6-6h-12zm1 1h5v8h11v-8h.585938l5.414062 5.414062v16.585938h-4v-8h-14v8h-4zm6 0h6v7h-6zm-1 15h12v7h-12z" fill="currentColor"/>
        <path id="path44" d="m22 0v32h32v-32z" fill="none"/>
    </g>
    <g id="22-22-system-shutdown" transform="translate(0 32)">
        <path id="path47" class="ColorScheme-Text" d="m9.999975 12.999994v6.999975h1.99998v-6.999975zm-1.000005.265635c-3.45552.88458-5.99997 3.99537-5.99997 7.73433 0 4.431975 3.56799 7.999965 7.999965 7.999965s7.999965-3.56799 7.999965-7.999965c0-3.73896-2.54445-6.84975-5.99997-7.73433v1.0371c2.895015.857175 4.999965 3.51687 4.999965 6.69723 0 3.87798-3.12198 6.99996-6.99996 6.99996s-6.99996-3.12198-6.99996-6.99996c0-3.18036 2.10495-5.840055 4.999965-6.69723z" fill="currentColor"/>
        <path id="path49" d="m0 10v22h22v-22z" fill="none"/>
    </g>
    <g id="system-shutdown" transform="translate(0 32)">
        <path id="path52" class="ColorScheme-Text" d="m37 4v9h2v-9h-1zm3 0.1699219v1.0214843a11 11 0 0 1 9 10.808594 11 11 0 0 1-11 11 11 11 0 0 1-11-11 11 11 0 0 1 9-10.810547v-1.0078125a12 12 0 0 0-10 11.818359 12 12 0 0 0 12 12 12 12 0 0 0 12-12 12 12 0 0 0-10-11.830078z" fill="currentColor"/>
        <path id="path54" d="m22 0v32h32v-32z" fill="none"/>
    </g>
    <g id="22-22-system-suspend-hibernate" transform="translate(0 64)">
        <path id="path49-1" d="m0 10v22h22v-22z" fill="none"/>
        <g id="g39" class="ColorScheme-Text" fill="currentColor">
            <path id="path1248" transform="translate(0 -64)" d="m6.7890625 77.707031-.8671875.5 1.6464844 2.84961-2.2480469-.601563-.2597656.966797 3.2148437.861328 1.5703125 2.716797h-3.1386719l-2.3535156-2.353516-.7070312.707032 1.6464844 1.646484h-3.2929688v1h3.2929688l-1.6464844 1.646484.7070312.707032 2.3535156-2.353516h3.1328126l-1.5664063 2.712891-3.2148437.861328.2578124.966797 2.25-.603516-1.6464843 2.851562.8652343.5 1.6464844-2.851562.6035156 2.25.9648438-.259766-.8613281-3.216796 1.8554691-3.210938h.005859l1.857422 3.21875-.861328 3.214844.966797.257812.601562-2.248047 1.646485 2.851563.867187-.5-1.646484-2.851563 2.248047.601563.259765-.964844-3.214844-.861328-1.570312-2.71875h3.138672l2.353515 2.353516.707032-.707032-1.646485-1.646484h3.292969v-1h-3.292969l1.646485-1.646484-.050782-.058594h-1.302734l-1.707031 1.705078h-1.292969-1.84375-1.15625v-.001953l-.003906-.001953-1.8535159-3.212891.8613279-3.214844-.9667966-.259765-.6015625 2.25z"/>
            <g id="g37">
                <path id="rect887-61" d="m16 13v1h2.292969l-2 2-.292969.29297v.70703h4v-1h-2.292969l2-2 .292969-.29297v-.70703h-.707031z"/>
                <path id="rect887-8" d="m11 15v1h2.292969l-2 2-.292969.29297v.70703h4v-1h-2.292969l2-2 .292969-.29297v-.70703h-.707031z"/>
            </g>
        </g>
    </g>
    <g id="system-suspend-hibernate" transform="translate(0 64)">
        <path id="path1280" class="ColorScheme-Text" transform="translate(0 -64)" d="m31.789062 69.242188-.867187.5 2.146484 3.716796-3.615234-.96875-.257813.966797 4.580079 1.226563 3.068359 5.316406h-6.136719l-3.353515-3.353516-.707032.707032 2.646485 2.646484h-4.292969v1h4.292969l-2.646485 2.646484.707032.707032 3.353515-3.353516h6.136719l-3.068359 5.316406-4.580079 1.226563.257813.966797 3.615234-.96875-2.146484 3.716796.867187.5 2.146485-3.716796.96875 3.615234.964844-.259766-1.226563-4.580078 3.357422-5.816406 3.357422 5.816406-1.226563 4.580078.964844.259766.96875-3.615234 2.146485 3.716796.867187-.5-2.146484-3.716796 3.615234.96875.257813-.966797-4.580079-1.226563-3.068359-5.316406h6.136719l3.353515 3.353516.707032-.707032-2.646485-2.646484h4.292969v-1h-4.292969l2.646485-2.646484-.707032-.707032-3.353515 3.353516h-4.292969-1.84375-1.15625v-.001953l-3.357422-5.814453 1.226563-4.580078-.964844-.259766-.96875 3.615234z" fill="currentColor"/>
        <path id="path64" d="m22 0v32h32v-32z" fill="none"/>
        <g id="g47" class="ColorScheme-Text" fill="currentColor">
            <path id="rect887-7" d="m45 4v1h2.292969l-2 2-.292969.29297v.70703h4v-1h-2.292969l2-2 .292969-.29297v-.70703h-.707031z"/>
            <path id="rect887-9" d="m42 10v1h2.292969l-2 2-.292969.29297v.70703h4v-1h-2.292969l2-2 .292969-.29297v-.70703h-.707031z"/>
            <path id="rect887-2" d="m38 5v1h2.292969l-2 2-.292969.29297v.70703h4v-1h-2.292969l2-2 .292969-.29297v-.70703h-.707031z"/>
        </g>
    </g>
    <g id="22-22-system-suspend" transform="translate(0 96)">
        <path id="path69" d="m0 10v22h21.999999v-22z" fill="none"/>
        <g id="g56" class="ColorScheme-Text" fill="currentColor">
            <path id="path1188" transform="translate(0 -96)" d="m7.046875 110.04883a7.9949791 8 0 0 0 -4.046875 6.95117 7.9949791 8 0 0 0 7.994141 8 7.9949791 8 0 0 0 6.9375-4.04297 7.9949791 8 0 0 0 .009765-.00586l-.738281-.73828a6.9956067 7 0 0 1 -.003906.00586 6.9956067 7 0 0 1 -3.207031.78125 6.9956067 7 0 0 1 -6.9941411-7 6.9956067 7 0 0 1 .7851562-3.21289zm-.7441406 1.77148a7.9949791 8 0 0 0 -.3046875 2.17969 7.9949791 8 0 0 0 7.9941411 8 7.9949791 8 0 0 0 2.1875-.3125 6.9956067 7 0 0 1 -5.185547 2.3125 6.9956067 7 0 0 1 -6.994141-7 6.9956067 7 0 0 1 2.3027344-5.17969z"/>
            <g id="g54">
                <path id="rect887-3" d="m10 16v1h2.292969l-2 2-.292969.29297v.70703h4v-1h-2.292969l2-2 .292969-.29297v-.70703h-.707031z"/>
                <path id="rect887-6" d="m15 13v1h2.292969l-2 2-.292969.29297v.70703h4v-1h-2.292969l2-2 .292969-.29297v-.70703h-.707031z"/>
            </g>
        </g>
    </g>
    <g id="system-suspend" transform="translate(0 96)">
        <path id="path74" d="m22 0v32h32v-32z" fill="none"/>
        <g id="g64" class="ColorScheme-Text" fill="currentColor">
            <path id="path1336" transform="translate(0 -96)" d="m31.761719 101.76172a12 12 0 0 0 -.003907.00781 12 12 0 0 0 -5.757812 10.23047 12 12 0 0 0 12 12 12 12 0 0 0 10.238281-5.76172l-.732422-.73242a11 11 0 0 1 -5.505859 1.49414 11 11 0 0 1 -11-11 11 11 0 0 1 1.486328-5.50195 11 11 0 0 1 .007813-.00391zm-.960938 1.93945a12 12 0 0 0 -.800781 4.29883 12 12 0 0 0 12 12 12 12 0 0 0 4.326172-.82031 11 11 0 0 1 -8.326172 3.82031 11 11 0 0 1 -11-11 11 11 0 0 1 3.800781-8.29883z" stroke-width=".923077"/>
            <path id="rect887-75" d="m44 6v1h2.292969l-2 2-.292969.29297v.70703h4v-1h-2.292969l2-2 .292969-.29297v-.70703h-.707031z"/>
            <path id="rect887-35" d="m42 13v1h2.292969l-2 2-.292969.29297v.70703h4v-1h-2.292969l2-2 .292969-.29297v-.70703h-.707031z"/>
            <path id="rect887-35-2" d="m36 8v1h2.292969l-2 2-.292969.29297v.70703h4v-1h-2.292969l2-2 .292969-.29297v-.70703h-.707031z"/>
        </g>
    </g>
    <g id="22-22-system-switch-user" transform="translate(54)">
        <path id="path890" class="ColorScheme-Text" d="m11.397745 12.388c-1.989467 0-3.2205625 1.263525-3.397744 2.799v1.018l-2.1510319-1.520183-.8489679.663037 2.5469046 1.989109.8489677.663037.8489679-.663037 2.5469046-1.989109-.848968-.663037-1.942777 1.520183v-1.018c0-1.035581 1.06462-1.798637 2.397544-1.799 1.332927.000363 2.621.763585 2.602456 1.799v.813h1v-.813327c0-1.545664-1.612785-2.798673-3.602253-2.798673zm2.602256 4.612c-1.10457 0-2 .895431-2 2 0 1.10457.89543 2 2 2 1.104569 0 2-.89543 2-2 0-1.104569-.895431-2-2-2zm-6.0000009 2a1.999999 2 0 0 0 -2.0000001 2 1.999999 2 0 0 0 2.0000001 2 1.999999 2 0 0 0 1.9999999-2 1.999999 2 0 0 0 -1.9999999-2zm6.0156249 3c-1.518796 0-2.764244 1.163057-2.978516 2.671875.582869.662142.962891 1.328125.962891 2.328125h4.429688c.393221-.54062.60674-1.198565.607421-1.875.000001-1.72589-1.35224-3.125-3.021484-3.125zm-.04883 1c1.102577 0 1.996096.839466 1.996094 1.875-.00045.405861-.14066.800628-.400391 1.125h-2.820312c-.085645-.538511-.357189-1.019889-.742186-1.398438.141532-.90529.963596-1.601562 1.966797-1.601562zm-5.966795 1a2.9999989 3.1249983 0 0 0 -3 3.125 2.9999989 3.1249983 0 0 0 .605469 1.875h4.792969a2.9999989 3.1249983 0 0 0 .601562-1.875 2.9999989 3.1249983 0 0 0 -3-3.125zm0 1a2.0000009 2.2500008 0 0 1 2 2.25 2.0000009 2.2500008 0 0 1 -.117188.75h-3.765624a2.0000009 2.2500008 0 0 1 -.117188-.75 2.0000009 2.2500008 0 0 1 2-2.25z" fill="currentColor"/>
        <path id="path79" d="m0 10v22h22v-22z" fill="none"/>
    </g>
    <g id="system-switch-user" transform="translate(54)">
        <path id="path84" d="m22 0v32h32v-32z" fill="none"/>
        <path id="path1011" class="ColorScheme-Text" transform="translate(-54)" d="m94 8c-1.285847 0-2.416677.617761-3.148438 1.5605469.329275.112144.645954.2508111.945313.4179687.548377-.5974024 1.328275-.9785156 2.203125-.9785156 1.656852 0 3 1.343147 3 3 0 1.398728-.960744 2.564273-2.255859 2.896484.000621.03481.0059.06856.0059.103516 0 .318095-.03235.627594-.08203.931641 1.889594-.319204 3.331989-1.951186 3.331989-3.931641 0-2.209138-1.790858-4-4-4zm-5 12c-3.881058 0-7 2.689616-7 6.435547.0033.527414.06906 1.051937.198034 1.564453h1.111737 11.662458.884292c.128998-.512516.140592-1.036586.143479-1.564 0-3.745931-3.118942-6.436-7-6.436zm.027.992c3.813868 0 5.973 2.274365 5.973 5.444-.0011.174256-.01135.347611-.029.521h-11.942c-.01765-.173389-.02741-.347197-.029-.521453 0-3.169635 2.179706-5.443547 5.972735-5.443547zm6.224205-3.992043c-.25686 0-.509035.01606-.758429.04297-.12585.383697-.291433.751062-.492776 1.097662.410411-.09117.830028-.138336 1.251205-.140627 3.153826.000001 5.710515 2.46245 5.710515 5.500033-.0009.166968-.009.333807-.0264.500003h-4.53029c.108739.321192.202605.648801.269709.986334l5.134641.013668c.12388-.491162.18785-.994566.19062-1.500008 0-3.589871-3.02155-6.500039-6.748795-6.500038zm-6.251205-5.999957c-2.209143 0-4 1.790862-4 4 0 2.20914 1.790857 4.000001 4 4 2.209142.000001 4-1.79086 4-4 0-2.209138-1.790858-4-4-4zm0 1c1.656852 0 3 1.343147 3 3 0 1.656854-1.343148 3.000001-3 3-1.656852.000001-3-1.343146-3-3 0-1.656853 1.343148-3 3-3zm3.027-8.2000013c-2.034737 0-3.684211 1.6454851-3.684211 3.6752924v.6152839l-1.606789-1.702575-.613.7429525 2.233 2.2270475.644.642.582-.742672 2.064-2.227328-.644-.6417091-1.707 1.7027091v-.616c0-1.449863 1.278621-2.6249178 2.732-2.6249178s1.973.519045 1.973 1.968908h1c0-2.1001672-1.116912-2.9799129-2.973-3.0189915z" fill="currentColor"/>
    </g>
    <g id="22-22-system-users" transform="translate(54 32)">
        <path id="path87" class="ColorScheme-Text" d="m13.999995 12.999864c-1.661999 0-3 1.338-3 3s1.338001 3 3 3 3-1.338 3-3-1.338001-3-3-3zm-6 3c-1.661999 0-3 1.338-3 3s1.338001 3 3 3 3-1.338 3-3-1.338001-3-3-3zm6 4c-.646349 0-1.255999.134093-1.818359.361328l.455078.914063c.427816-.1605.877758-.275391 1.363281-.275391 2.216023 0 4 1.783975 4 4h-3.5l.5 1h4v-1c0-2.77002-2.229982-5-5-5zm-6 3c-2.770018 0-5 2.22998-5 5v1h10v-1c0-2.77002-2.229982-5-5-5zm0 1c2.216008 0 4 1.783975 4 4h-8c0-2.216025 1.783977-4 4-4z" fill="currentColor"/>
        <path id="path89" d="m0 10v22h22v-22z" fill="none"/>
    </g>
    <g id="system-users" transform="translate(54 32)">
        <path id="path92" class="ColorScheme-Text" d="m42.5 4a4.5 4.5 0 0 0 -4.5 4.5 4.5 4.5 0 0 0 4.5 4.5 4.5 4.5 0 0 0 4.5-4.5 4.5 4.5 0 0 0 -4.5-4.5zm0 1a3.5 3.5 0 0 1 3.5 3.5 3.5 3.5 0 0 1 -3.5 3.5 3.5 3.5 0 0 1 -3.5-3.5 3.5 3.5 0 0 1 3.5-3.5zm-9 4c-2.485281 0-4.5 2.014719-4.5 4.5s2.014719 4.5 4.5 4.5 4.5-2.014719 4.5-4.5-2.014719-4.5-4.5-4.5zm0 1a3.5 3.5 0 0 1 3.5 3.5 3.5 3.5 0 0 1 -3.5 3.5 3.5 3.5 0 0 1 -3.5-3.5 3.5 3.5 0 0 1 3.5-3.5zm9 4c-.88285.003-1.758266.172285-2.585938.5-.06618.423679-.174132.839768-.322265 1.242188.90271-.487309 1.89843-.741421 2.908203-.742188 3.589851 0 6.5 3.134007 6.5 7h-8.341797c.170323.323289.325499.657112.464844 1h8.876953v-1c0-4.418278-3.357864-8-7.5-8zm-9 5c-4.142136 0-7.5 3.581722-7.5 8v1h15v-1c0-4.418278-3.357864-8-7.5-8zm0 1c3.589851 0 6.5 3.134007 6.5 7h-13c0-3.865993 2.910149-7 6.5-7z" fill="currentColor"/>
        <path id="path94" d="m22 0v32h32v-32z" fill="none"/>
    </g>
    <g id="22-22-system-search" transform="translate(0 -32)">
        <path id="path61" class="ColorScheme-Text" d="m9.0000001 13c-3.3240047 0-6 2.675995-6 6s2.6759953 6 6 6c1.4812059 0 2.8305839-.534682 3.8749999-1.417969l5.417969 5.417969.707031-.707031-5.417968-5.417969c.883286-1.044416 1.417968-2.393795 1.417968-3.875 0-3.324005-2.675995-6-5.9999999-6zm0 1c2.7700049 0 4.9999999 2.229995 4.9999999 5s-2.229995 5-4.9999999 5c-2.7700048 0-5-2.229995-5-5s2.2299952-5 5-5z" fill="currentColor"/>
        <path id="path63" d="m0 10v22h22v-22z" fill="none"/>
    </g>
    <g id="system-search" transform="translate(0 -32)">
        <path id="path66" class="ColorScheme-Text" d="m35 4a9 9 0 0 0-9 9 9 9 0 0 0 9 9 9 9 0 0 0 5.994141-2.298828l8.298828 8.298828 0.707031-0.707031-8.300781-8.300782a9 9 0 0 0 2.300781-5.992187 9 9 0 0 0-9-9zm0 1a8 8 0 0 1 8 8 8 8 0 0 1-8 8 8 8 0 0 1-8-8 8 8 0 0 1 8-8z" fill="currentColor"/>
        <path id="path68" d="m22 0v32h32v-32z" fill="none"/>
    </g>
    <g id="system-user-list" transform="translate(108)">
        <path id="path110" class="ColorScheme-Text" d="m45 9c-.58947 0-1.13295.174573-1.59375.46875.04318.464252.0075.922667-.008 1.335882.377107-.505852.970803-.804092 1.60175-.804632 1.104569 0 2 .895431 2 2s-.895431 2-2 2c-1.040548-.000556-1.906833-.798896-1.99219-1.835938-.184344.419479-.464656.770321-.6956 1.09959-.001.0013-.003.0026-.004.0039.476 1.019727 1.48876 1.732448 2.69179 1.732448 1.66119 0 2.99805-1.338 2.99805-3s-1.33686-3-2.99805-3zm-6.99999 9c4.43203 0 7.99999 3.56798 7.99999 8h-16c0-4.43202 3.56798-8 8.00001-8zm.00001-1c-4.98557 0-9.00002 3.716633-9.00002 8.333333v1.666667h18v-1.666667c0-4.6167-4.01443-8.333333-8.99998-8.333333zm6.97654-1c-1.26188.000488-2.39619.47884-3.27539 1.240234.380034.156147.766084.335754 1.142399.50783.005.0025.009.0052.0137.0078.615311-.44993 1.333211-.755864 2.117341-.755864 2.22686.00005 4.02344 2.337992 4.02344 4h-2.72852c.196162.339095.301576.64811.449 1h3.28147v-1c0-2.769366-2.2402-4.998947-5.02148-5zm-6.97656-10.0000005c2.20915 0 4 1.7908576 4 4.0000005 0 2.209141-1.79085 4-4 4s-4-1.790859-4-4c0-2.2091429 1.79085-4.0000005 4-4.0000005zm0-1c-2.76144 0-5 2.2385703-5 5.0000005 0 2.76143 2.23856 5 5 5 2.350785 0 4.322665-1.622301 4.857137-3.808418.093361-.381871.142863-.780945.142863-1.191582 0-2.7614302-2.23858-5.0000005-5-5.0000005zm-6.97656 11.0000005c1.26188.000488 2.39619.47884 3.27539 1.240234-.404465.162919-.805479.355411-1.156104.515606-.615306-.449906-1.333206-.75584-2.117336-.75584-2.22686.00005-4.02344 2.337992-4.02344 4h2.72852c-.186972.33326-.318326.689701-.449 1h-3.28147v-1c0-2.769366 2.2402-4.998947 5.02148-5zm-.02539-7c.58947 0 1.13295.174573 1.59375.46875-.04841.460072-.0093.927542.008 1.33588-.377107-.50585-.970803-.80409-1.60175-.80463-1.104569 0-2 .895431-2 2s.895431 2 2 2c1.040548-.000556 1.906833-.798896 1.99219-1.835938.188312.402683.471649.770111.6956 1.09959.001.0013.003.0026.004.0039-.476 1.019727-1.48876 1.732448-2.69179 1.732448-1.66119 0-2.99805-1.338-2.99805-3s1.33686-2.999999 2.99805-3z" fill="currentColor"/>
        <path id="path84-3" d="m22 0v32h32v-32z" fill="none"/>
    </g>
    <g id="system-user-prompt" transform="translate(112 64)">
        <path id="path44-5" d="m22 0v32h32v-32z" fill="none"/>
        <path id="path889" class="ColorScheme-Text" d="m37 10.75v1.5h5v-1.5zm-4 0v1.5h3v-1.5zm-6 0v1.5h5v-1.5zm-1-1.75h24v5h-24zm-1-1v7h26v-7zm1 10h24v5h-24zm-1-1v7h26v-7zm3.5 2c-.828427 0-1.5.671573-1.5 1.5s.671573 1.5 1.5 1.5 1.5-.671573 1.5-1.5-.671573-1.5-1.5-1.5zm4 0c-.828427 0-1.5.671573-1.5 1.5s.671573 1.5 1.5 1.5 1.5-.671573 1.5-1.5-.671573-1.5-1.5-1.5zm4 0c-.828427 0-1.5.671573-1.5 1.5s.671573 1.5 1.5 1.5 1.5-.671573 1.5-1.5-.671573-1.5-1.5-1.5zm4 0c-.828427 0-1.5.671573-1.5 1.5s.671573 1.5 1.5 1.5 1.5-.671573 1.5-1.5-.671573-1.5-1.5-1.5z" fill="currentColor"/>
    </g>
    <g id="22-22-system-user-prompt" transform="matrix(.6875 0 0 .6875 96.875 74)" stroke-width="1.454546">
        <path id="path909-5" class="ColorScheme-Text" d="m35.818183 21.09091a.72727275.72727275 0 0 1 -.727272.727273.72727275.72727275 0 0 1 -.727273-.727273.72727275.72727275 0 0 1 .727273-.727273.72727275.72727275 0 0 1 .727272.727273zm-2.181818 0a.72727275.72727275 0 0 1 -.727273.727273.72727275.72727275 0 0 1 -.727272-.727273.72727275.72727275 0 0 1 .727272-.727273.72727275.72727275 0 0 1 .727273.727273zm-2.181818 0a.72727275.72727275 0 0 1 -.727273.727273.72727275.72727275 0 0 1 -.727273-.727273.72727275.72727275 0 0 1 .727273-.727273.72727275.72727275 0 0 1 .727273.727273zm-2.181818 0a.72727275.72727275 0 0 1 -.727273.727273.72727275.72727275 0 0 1 -.727273-.727273.72727275.72727275 0 0 1 .727273-.727273.72727275.72727275 0 0 1 .727273.727273zm5.81818-10.909091h2.909091v1.454545h-2.909091zm-2.909091 0h1.454545v1.454545h-1.454545zm-4.363635 0h2.909091v1.454545h-2.909091zm-2.909091 7.272727v7.272728h26.181819v-7.272728zm1.454546 1.454546h23.272728v4.363636h-23.272728zm-1.454541-11.6363575v7.2727275h26.181819v-7.2727275zm1.454546 1.4545455h23.272728v4.363637h-23.272728z" fill="currentColor"/>
        <path id="path44-5-7" d="m22 0v32h32v-32z" fill="none"/>
    </g>
    <g id="22-22-system-user-list" transform="matrix(.6875 0 0 .6875 92.875 10)" stroke-width="1.454546">
        <path id="path340-1-2" class="ColorScheme-Text" d="m44.552119 10.181819c-.374531 0-.720437.103636-1.028408.269887.000189.0019-.09527.05843-.09498.06047.114764 1.452661-.249454 2.376872-.665091 3.098603.396059.563505 1.048422.934682 1.788481.934682 1.025803 0 1.886094-.707989 2.119316-1.661932.04073-.166636.06255-.340697.06255-.519887-.000014-1.204987-.976843-2.181818-2.181818-2.181818zm-13.097528 0c.374531 0 .720436.103636 1.028407.269887-.000189.0019.09527.05843.09498.06047-.114764 1.452661.249455 2.376872.665091 3.098603-.396058.563505-1.048422.934682-1.78848.934682-1.025804 0-1.886095-.707989-2.119317-1.661932-.04073-.166636-.06254-.340697-.06254-.519887.000014-1.204987.976844-2.181818 2.181818-2.181818zm-.000044 5.818168c1.226473 0 2.302211.565518 2.960233 1.477273-.369265.195739-.745004.436224-1.070982.630662-.358356-.422659-1.025004-.65339-1.889251-.65339-1.309454 0-2.18182.960799-2.18182 2.909104h1.818182l-.727273 1.454546h-2.545454l.000001-2.21024c.000001-2.093049 1.622008-3.607955 3.636364-3.607955zm13.09091.000014c-1.226473 0-2.302211.565519-2.960233 1.477273.369265.19574.745004.436224 1.070982.630662.358356-.422659 1.025003-.653389 1.889251-.653389 1.309454 0 2.181816.993887 2.181816 2.909089h-1.818182l.727273 1.454546h2.545454l.000002-2.210225c.000002-2.093049-1.622007-3.607956-3.636363-3.607956zm-6.545457 2.90909c2.909091 0 5.818182 1.454545 5.818182 5.818182h-11.636364c0-4.363637 2.909091-5.818182 5.818182-5.818182zm0-1.454546c-4.230226 0-7.261221 2.974329-7.269818 7.272728l-.0029 1.454545h14.545454l-.0029-1.454545c-.00866-4.321312-3.039625-7.272728-7.269836-7.272728zm.000075-11.6363628c-2.81168 0-5.090953 2.2792686-5.090953 5.0909048 0 2.811643 2.279273 5.090914 5.090953 5.090914 2.393556 0 4.401294-1.651796 4.945498-3.877663.09498-.388814.145469-.795143.145469-1.213251 0-2.8116362-2.279316-5.0909048-5.090967-5.0909048z" fill="currentColor"/>
        <path id="path84-3-7" d="m22 0v32h32v-32z" fill="none"/>
    </g>
</svg>
