<?xml version="1.0" encoding="UTF-8" standalone="no"?>
<svg
   xmlns:dc="http://purl.org/dc/elements/1.1/"
   xmlns:cc="http://creativecommons.org/ns#"
   xmlns:rdf="http://www.w3.org/1999/02/22-rdf-syntax-ns#"
   xmlns:svg="http://www.w3.org/2000/svg"
   xmlns="http://www.w3.org/2000/svg"
   xmlns:sodipodi="http://sodipodi.sourceforge.net/DTD/sodipodi-0.dtd"
   xmlns:inkscape="http://www.inkscape.org/namespaces/inkscape"
   version="1.1"
   id="svg2"
   viewBox="0 0 54 128"
   sodipodi:docname="system.svgz"
   inkscape:version="0.92.4 5da689c313, 2019-01-14">
  <sodipodi:namedview
     pagecolor="#ffffff"
     bordercolor="#666666"
     borderopacity="1"
     objecttolerance="10"
     gridtolerance="10"
     guidetolerance="10"
     inkscape:pageopacity="0"
     inkscape:pageshadow="2"
     inkscape:window-width="960"
     inkscape:window-height="1137"
     id="namedview78"
     showgrid="true"
     inkscape:zoom="29.855252"
     inkscape:cx="16.620299"
     inkscape:cy="12.896613"
     inkscape:window-x="960"
     inkscape:window-y="34"
     inkscape:window-maximized="0"
     inkscape:current-layer="svg2"
     showguides="false"
     inkscape:guide-bbox="true"
     inkscape:lockguides="false">
    <inkscape:grid
       type="xygrid"
       id="grid885" />
    <sodipodi:guide
       position="40,18"
       orientation="0.70710678,0.70710678"
       id="guide948"
       inkscape:locked="false" />
    <sodipodi:guide
       position="38,16"
       orientation="-0.70710678,0.70710678"
       id="guide950"
       inkscape:locked="false" />
  </sodipodi:namedview>
  <metadata
     id="metadata62">
    <rdf:RDF>
      <cc:Work
         rdf:about="">
        <dc:format>image/svg+xml</dc:format>
        <dc:type
           rdf:resource="http://purl.org/dc/dcmitype/StillImage" />
        <dc:title />
      </cc:Work>
    </rdf:RDF>
  </metadata>
  <defs
     id="defs3051">
    <style
       type="text/css"
       id="current-color-scheme">
      .ColorScheme-Text {
        color:#31363b;
      }
      .ColorScheme-Background {
        color:#eff0f1;
      }
      .ColorScheme-Highlight {
        color:#3daee9;
      }
      .ColorScheme-ViewText {
        color:#31363b;
      }
      .ColorScheme-ViewBackground {
        color:#fcfcfc;
      }
      .ColorScheme-ViewHover {
        color:#93cee9;
      }
      .ColorScheme-ViewFocus{
        color:#3daee9;
      }
      .ColorScheme-ButtonText {
        color:#31363b;
      }
      .ColorScheme-ButtonBackground {
        color:#eff0f1;
      }
      .ColorScheme-ButtonHover {
        color:#93cee9;
      }
      .ColorScheme-ButtonFocus{
        color:#3daee9;
      }
      </style>
  </defs>
  <g
     id="22-22-system-log-out">
    <path
       id="path7"
       class="ColorScheme-Text"
       d="m 11,13 c -4.43202,0 -8,3.56798 -8,8 0,4.43202 3.56798,8 8,8 4.43202,0 8,-3.56798 8,-8 0,-4.43202 -3.56798,-8 -8,-8 z m 0,1 c 3.878025,0 7,3.121975 7,7 0,3.878025 -3.121975,7 -7,7 -3.878025,0 -7,-3.121975 -7,-7 0,-3.878025 3.121975,-7 7,-7 z M 12.292969,17 9,20.292969 8.2929688,21 9,21.707031 12.292969,25 13,24.292969 9.7070312,21 13,17.707031 12.292969,17 Z"
       style="fill:currentColor;fill-opacity:1;stroke:none" />
    <path
       id="path9"
       d="M 0,10 0,32 22,32 22,10 0,10 Z"
       style="opacity:1;fill:none" />
  </g>
  <g
     id="system-log-out">
    <path
       id="path12"
       class="ColorScheme-Text"
       d="M 38,4 A 12,12 0 0 0 26,16 12,12 0 0 0 38,28 12,12 0 0 0 50,16 12,12 0 0 0 38,4 Z m 0,1 A 11,11 0 0 1 49,16 11,11 0 0 1 38,27 11,11 0 0 1 27,16 11,11 0 0 1 38,5 Z M 41.269531,8 33,16 41.269531,24 42,23.292969 34.460938,16 42,8.7070312 41.269531,8 Z"
       style="fill:currentColor;fill-opacity:1;stroke:none" />
    <path
       id="path14"
       d="M 22,0 22,32 54,32 54,0 22,0 Z"
       style="opacity:1;fill:none" />
  </g>
  <g
     transform="translate(54,96)"
     id="22-22-system-lock-screen">
    <path
       id="path17"
       class="ColorScheme-Text"
       d="m 11,13 c -2.216,0 -4,1.784 -4,4 l 0,4 -2,0 0,1 0,7 1,0 10,0 1,0 0,-8 -1,0 -1,0 0,-4 c 0,-2.216 -1.784,-4 -4,-4 z m 0,1 c 1.662,0 3,1.561 3,3.5 L 14,21 8,21 8,17.5 C 8,15.561 9.338,14 11,14 Z m -5,8 10,0 0,6 -10,0 0,-6 z"
       style="fill:currentColor;fill-opacity:1;stroke:none" />
    <path
       id="path19"
       d="M 0,10 0,32 22,32 22,10 0,10 Z"
       style="opacity:1;fill:none" />
  </g>
  <g
     transform="translate(54,96)"
     id="system-lock-screen">
    <path
       id="path22"
       class="ColorScheme-Text"
       d="M 38,4 C 31.372583,4 26,9.372583 26,16 26,22.627417 31.372583,28 38,28 44.627417,28 50,22.627417 50,16 50,9.372583 44.627417,4 38,4 Z m 0,1 C 44.075132,5 49,9.9248678 49,16 49,22.075132 44.075132,27 38,27 31.924868,27 27,22.075132 27,16 27,9.9248678 31.924868,5 38,5 Z m 0,3 c -2.216,0 -4,1.784 -4,4 l 0,4 -2,0 0,1 0,7 1,0 10,0 1,0 0,-8 -1,0 -1,0 0,-4 C 42,9.784 40.216,8 38,8 Z m 0,1 c 1.662,0 3,1.561 3,3.5 l 0,3.5 -6,0 0,-3.5 C 35,10.561 36.338,9 38,9 Z m -5,8 10,0 0,6 -10,0 0,-6 z"
       style="fill:currentColor;fill-opacity:1;stroke:none" />
    <path
       id="path24"
       d="M 22,0 22,32 54,32 54,0 22,0 Z"
       style="opacity:1;fill:none" />
  </g>
  <g
     transform="translate(54,64)"
     id="22-22-system-reboot">
    <path
       id="path27"
       class="ColorScheme-Text"
       d="m 11,13 c -1.441715,0 -2.802961,0.36915 -3.96875,1.03125 l 0.71875,0.6875 0.0625,0.0625 2.75,2.78125 0.71875,-0.71875 -2.5,-2.46875 C 9.479582,14.1404 10.220394,14 11,14 c 3.877969,0 7,3.12205 7,7 0,1.1625 -0.283874,2.2559 -0.78125,3.21875 l 0.75,0.75 C 18.630802,23.80295 19,22.44165 19,21 19,16.56795 15.431966,13 11,13 Z M 4.03125,17.03125 C 3.369199,18.19705 3,19.55835 3,21 c 0,4.43205 3.568034,8 8,8 1.441714,0 2.802962,-0.36915 3.96875,-1.03125 l -0.6875,-0.6875 -0.0625,-0.0625 L 11.4375,24.4375 10.75,25.15625 13.21875,27.625 C 12.520417,27.8596 11.779606,28 11,28 7.12203,28 4,24.87795 4,21 4,19.8375 4.283876,18.7441 4.78125,17.78125 l -0.75,-0.75 z"
       style="fill:currentColor;fill-opacity:1;stroke:none" />
    <path
       id="path29"
       d="M 0,10 0,32 22,32 22,10 0,10 Z"
       style="opacity:1;fill:none" />
  </g>
  <g
     transform="translate(54,64)"
     id="system-reboot">
    <path
       id="path32"
       class="ColorScheme-Text"
       d="M 38,4 A 12,12 0 0 0 31.916016,5.671875 L 37.292969,11.050781 38,10.339844 33.595703,5.9355469 A 11,11 0 0 1 38,5 11,11 0 0 1 49,16 11,11 0 0 1 47.595703,21.351562 l 0.732422,0.728516 A 12,12 0 0 0 50,16 12,12 0 0 0 38,4 Z M 27.671875,9.9160156 A 12,12 0 0 0 26,16 12,12 0 0 0 38,28 12,12 0 0 0 44.083984,26.328125 L 38.707031,20.949219 38,21.65625 42.40625,26.060547 A 11,11 0 0 1 38,27 11,11 0 0 1 27,16 11,11 0 0 1 28.404297,10.648438 L 27.671875,9.9160156 Z"
       style="fill:currentColor;fill-opacity:1;stroke:none" />
    <path
       id="path34"
       d="M 22,0 22,32 54,32 54,0 22,0 Z"
       style="opacity:1;fill:none" />
  </g>
  <g
     transform="translate(112,32)"
     id="22-22-system-save-session">
    <path
       id="path37"
       class="ColorScheme-Text"
       d="m 2.999995,13.003509 0,0 0,0.9999 0,15 1.000005,0 15,0 0,-0.9999 0,-11.0001 0,-0.69915 -0.007,0 0.007,-0.015 -3.29297,-3.29295 -0.008,0.015 0,-0.015 -0.69922,0 -12,0 z M 4,14.005359 l 3,0 0,4.00005 0,1.00005 8,0 0,-1.00005 0,-4.00005 0.29298,0 2.70702,2.70705 0,0.29295 0,11.0001 -2,0 0,-7.00005 -1,0 -8,0 -1.000005,0 0,7.00005 -1.999995,0 0,-14.0001 z m 4.000005,0 3.90039,0 0,4.00005 -3.90039,0 0,-4.00005 z M 7,22.005459 l 8,0 0,6 -8,0 0,-6 z"
       style="fill:currentColor;fill-opacity:1;stroke:none" />
    <path
       id="path39"
       d="M 0,10 0,32 22,32 22,10 0,10 Z"
       style="opacity:1;fill:none" />
  </g>
  <g
     transform="translate(112,32)"
     id="system-save-session">
    <path
       id="path42"
       class="ColorScheme-Text"
       d="m 26,4 0,24 5,0 14,0 5,0 L 50,10 49,9 45,5 44,4 43,4 32,4 26,4 Z m 1,1 5,0 0,8 11,0 0,-8 0.585938,0 L 49,10.414062 49,27 l -4,0 0,-8 -14,0 0,8 -4,0 0,-22 z m 6,0 6,0 0,7 -6,0 0,-7 z m -1,15 12,0 0,7 -12,0 0,-7 z"
       style="fill:currentColor;fill-opacity:1;stroke:none" />
    <path
       id="path44"
       d="M 22,0 22,32 54,32 54,0 22,0 Z"
       style="opacity:1;fill:none" />
  </g>
  <g
     transform="translate(0,32)"
     id="22-22-system-shutdown">
    <path
       id="path47"
       class="ColorScheme-Text"
       d="m 9.999975,12.999994 0,6.999975 1.99998,0 0,-6.999975 -1.99998,0 z M 8.99997,13.265629 C 5.54445,14.150209 3,17.260999 3,20.999959 c 0,4.431975 3.56799,7.999965 7.999965,7.999965 4.431975,0 7.999965,-3.56799 7.999965,-7.999965 0,-3.73896 -2.54445,-6.84975 -5.99997,-7.73433 l 0,1.0371 c 2.895015,0.857175 4.999965,3.51687 4.999965,6.69723 0,3.87798 -3.12198,6.99996 -6.99996,6.99996 -3.87798,0 -6.99996,-3.12198 -6.99996,-6.99996 0,-3.18036 2.10495,-5.840055 4.999965,-6.69723 l 0,-1.0371 z"
       style="fill:currentColor;fill-opacity:1;stroke:none" />
    <path
       id="path49"
       d="M 0,10 0,32 22,32 22,10 0,10 Z"
       style="opacity:1;fill:none" />
  </g>
  <g
     transform="translate(0,32)"
     id="system-shutdown">
    <path
       id="path52"
       class="ColorScheme-Text"
       d="M 37,4 37,4.050781 37,5.0546873 37,13 39,13 39,5.0507812 39,4.046875 39,4 38,4 37,4 Z m 3,0.1699219 0,1.0214843 A 11,11 0 0 1 49,16 11,11 0 0 1 38,27 11,11 0 0 1 27,16 11,11 0 0 1 36,5.1894531 L 36,4.1816406 A 12,12 0 0 0 26,16 12,12 0 0 0 38,28 12,12 0 0 0 50,16 12,12 0 0 0 40,4.1699219 Z"
       style="fill:currentColor;fill-opacity:1;stroke:none" />
    <path
       id="path54"
       d="M 22,0 22,32 54,32 54,0 22,0 Z"
       style="opacity:1;fill:none" />
  </g>
  <g
     transform="translate(0,64)"
     id="22-22-system-suspend-hibernate">
    <path
       id="path49-1"
       d="M 0,10 V 32 H 22 V 10 Z"
       style="opacity:1;fill:none" />
    <path
       id="path918-7"
       class="ColorScheme-Text"
       d="m 6.7890625,13.412109 -0.8671875,0.5 1.6464844,2.84961 -2.2480469,-0.601563 -0.2597656,0.966797 3.2148437,0.861328 1.5703125,2.716797 H 6.7070312 L 4.3535156,18.351562 3.6464844,19.058594 5.2929688,20.705078 H 2 v 1 h 3.2929688 l -1.6464844,1.646484 0.7070312,0.707032 2.3535156,-2.353516 h 3.1328126 l -1.5664063,2.712891 -3.2148437,0.861328 0.2578124,0.966797 2.25,-0.603516 -1.6464843,2.851563 0.8652343,0.5 1.6464844,-2.851563 0.6035156,2.25 L 10,28.132812 9.1386719,24.916016 10.994141,21.705078 H 11 l 1.857422,3.21875 -0.861328,3.214844 0.966797,0.257812 0.601562,-2.248046 L 15.210938,29 16.078125,28.5 14.431641,25.648438 16.679688,26.25 l 0.259765,-0.964844 -3.214844,-0.861328 -1.570312,-2.71875 h 3.138672 l 2.353515,2.353516 0.707032,-0.707032 -1.646485,-1.646484 H 20 v -1 H 16.707031 L 18.353516,19.058594 18.302734,19 H 17 l -1.707031,1.705078 H 12.15625 L 13.140625,19 H 12 l -0.998047,1.703125 H 11 l -0.0039,-0.002 -1.8535159,-3.212891 0.8613279,-3.214843 -0.9667966,-0.259766 -0.6015625,2.25 z M 17.503142,15.25 H 19.00628 L 18.978064,16 H 16 l 1.503141,-2.25 h -1.50314 V 13 h 3.006276 z m -4.004708,1.999999 h 1.501568 l -0.02817,0.75 H 11.996867 L 13.49844,15.75 H 11.996861 V 15 H 15 Z"
       style="fill:currentColor;fill-opacity:1;stroke:none" />
  </g>
  <g
     transform="translate(0,64)"
     id="system-suspend-hibernate">
    <path
       id="path891-3"
       class="ColorScheme-Text"
       d="m 31.789062,5.244375 -0.867187,0.5 2.146484,3.716797 -3.615234,-0.96875 -0.257813,0.966796 4.580079,1.226563 3.068359,5.316406 h -6.136719 l -3.353515,-3.353515 -0.707032,0.707031 2.646485,2.646484 H 25 v 1 h 4.292969 l -2.646485,2.646485 0.707032,0.707031 3.353515,-3.353516 h 6.136719 l -3.068359,5.316406 -4.580079,1.226563 0.257813,0.966797 3.615234,-0.96875 -2.146484,3.716797 0.867187,0.5 2.146485,-3.716797 0.96875,3.615234 0.964844,-0.259765 L 34.642578,22.818593 38,17.002187 l 3.357422,5.816406 -1.226563,4.580079 0.964844,0.259765 0.96875,-3.615234 2.146485,3.716797 0.867187,-0.5 -2.146484,-3.716797 3.615234,0.96875 0.257813,-0.966797 -4.580079,-1.226563 -3.068359,-5.316406 h 6.136719 l 3.353515,3.353516 0.707032,-0.707031 -2.646485,-2.646485 H 51 v -1 h -4.292969 l 2.007813,-2.001953 h -1.427735 l -1.99414,2.001953 H 39.15625 L 40.31,14.000234 h -1.16 l -1.15,2 -3.357422,-5.814453 1.226563,-4.580078 -0.964844,-0.259766 -0.96875,3.615235 z m 15.544275,1.2869405 h 1.666666 V 7.3750874 H 45.66667 L 47.333337,4.8437717 H 45.666673 V 3.9999998 H 49 Z m -1.989669,5.6249125 h 1.666665 V 13 H 43.677 l 1.666668,-2.531315 H 43.677003 V 9.6249128 h 3.333326 z m -4.677,-3.3748541 h 1.666665 V 9.6251458 H 39 L 40.666668,7.0938301 H 39.000003 V 6.2500582 h 3.333327 z"
       style="fill:currentColor;fill-opacity:1;stroke:none" />
    <path
       id="path64"
       d="M 22,0 22,32 54,32 54,0 22,0 Z"
       style="opacity:1;fill:none" />
  </g>
  <g
     transform="translate(0,96)"
     id="22-22-system-suspend">
    <path
       id="path69"
       d="M 0,10 V 32 H 21 V 10 Z"
       style="opacity:1;fill:none" />
    <path
       id="path893-3"
       class="ColorScheme-Text"
       d="M 7.0462869,14.048828 A 7.9949791,8 0 0 0 3,21 a 7.9949791,8 0 0 0 7.994979,8 7.9949791,8 0 0 0 6.93705,-4.042969 7.9949791,8 0 0 0 0.0098,-0.0059 L 17.204005,24.21285 a 6.9956067,7 0 0 1 -0.0039,0.0059 A 6.9956067,7 0 0 1 13.993096,25 6.9956067,7 0 0 1 6.9974895,18 6.9956067,7 0 0 1 7.7841046,14.787109 Z M 6.3026134,15.820313 A 7.9949791,8 0 0 0 5.9981172,18 7.9949791,8 0 0 0 13.993096,26 7.9949791,8 0 0 0 16.179223,25.6875 6.9956067,7 0 0 1 10.994979,28 6.9956067,7 0 0 1 3.9993724,21 6.9956067,7 0 0 1 6.3026134,15.820313 Z m 5.4077066,3.279686 h 1.714714 l -0.03217,0.9 H 9.9956067 L 11.710327,17.3 H 9.9956003 V 16.4 H 13.425032 Z M 16.283493,16.7 H 18 l -0.03222,0.9 h -3.400797 l 1.716511,-2.7 h -1.71651 v -0.900001 h 3.433014 z"
       style="fill:currentColor;fill-opacity:1;stroke:none" />
  </g>
  <g
     transform="translate(0,96)"
     id="system-suspend">
    <path
       id="path902-3"
       class="ColorScheme-Text"
       d="M 32.216059,3.999996 C 28.36165,6.3471 26.006562,10.53215 26,15.04594 26,22.20027 31.798203,28 38.95064,28 c 4.51527,-0.004 8.702067,-2.3616 11.049359,-6.21981 l -0.790448,-0.79065 c -1.804349,1.05104 -3.854009,1.60734 -5.94203,1.61293 -6.556405,0 -11.871426,-5.31642 -11.871426,-11.87455 0.0033,-2.08962 0.558346,-4.14129 1.608294,-5.94782 z M 31.309675,5.81744 c -0.647223,1.55661 -0.984467,3.22463 -0.992794,4.91048 0,7.15433 5.7982,12.95406 12.95064,12.95406 1.70769,-0.004 3.397587,-0.34724 4.972421,-1.00782 l -0.318286,0.13915 c -2.253059,2.60601 -5.526603,4.10473 -8.971016,4.10718 -6.556407,0 -11.871422,-5.31642 -11.871422,-11.87455 0.0047,-3.44701 1.507386,-6.72169 4.116638,-8.97338 z m 14.857,1.99512 h 1.833332 V 8.75008 H 44.333341 L 46.166675,5.93752 H 44.333344 V 5 h 3.66666 z m -2.188636,6.24992 H 45.81137 V 15 h -3.666666 l 1.833335,-2.81258 h -1.833332 v -0.93753 h 3.666659 z m -5.1447,-4.00001 H 40.66667 V 11 H 37.000004 L 38.833339,8.18743 H 37.000007 V 7.2499 h 3.66666 z"
       style="fill:currentColor;fill-opacity:1;stroke:none" />
    <path
       id="path74"
       d="M 22,0 22,32 54,32 54,0 22,0 Z"
       style="opacity:1;fill:none" />
  </g>
  <g
     transform="translate(54,0)"
     id="22-22-system-switch-user">
    <path
       id="path890"
       class="ColorScheme-Text"
       d="m 11.397745,12.388 c -1.989467,0 -3.2205625,1.263525 -3.397744,2.799 v 1.018 L 5.8489691,14.684817 5.0000012,15.347854 7.5469058,17.336963 8.3958735,18 9.2448414,17.336963 11.791746,15.347854 10.942778,14.684817 9.000001,16.205 v -1.018 c 0,-1.035581 1.06462,-1.798637 2.397544,-1.799 1.332927,3.63e-4 2.621,0.763585 2.602456,1.799 V 16 h 1 v -0.813327 c 0,-1.545664 -1.612785,-2.798673 -3.602253,-2.798673 z M 14.000001,17 c -1.10457,0 -2,0.895431 -2,2 0,1.10457 0.89543,2 2,2 1.104569,0 2,-0.89543 2,-2 0,-1.104569 -0.895431,-2 -2,-2 z M 8.0000001,19 A 1.999999,2 0 0 0 6,21 1.999999,2 0 0 0 8.0000001,23 1.999999,2 0 0 0 10,21 1.999999,2 0 0 0 8.0000001,19 Z m 6.0156249,3 c -1.518796,0 -2.764244,1.163057 -2.978516,2.671875 C 11.619978,25.334017 12,26 12,27 v 0 h 2.015625 1.8125 0.601563 c 0.393221,-0.54062 0.60674,-1.198565 0.607421,-1.875 C 17.03711,23.39911 15.684869,22 14.015625,22 Z m -0.04883,1 c 1.102577,0 1.996096,0.839466 1.996094,1.875 -4.5e-4,0.405861 -0.14066,0.800628 -0.400391,1.125 H 15.16406 13.966795 12.767576 12.742186 C 12.656541,25.461489 12.384997,24.980111 12,24.601562 12.141532,23.696272 12.963596,23 13.966797,23 Z M 8,24 A 2.9999989,3.1249983 0 0 0 5,27.125 2.9999989,3.1249983 0 0 0 5.605469,29 H 6.199219 8 9.800781 10.398438 A 2.9999989,3.1249983 0 0 0 11,27.125 2.9999989,3.1249983 0 0 0 8,24 Z m 0,1 A 2.0000009,2.2500008 0 0 1 10,27.25 2.0000009,2.2500008 0 0 1 9.882812,28 H 6.117188 A 2.0000009,2.2500008 0 0 1 6,27.25 2.0000009,2.2500008 0 0 1 8,25 Z"
       style="fill:currentColor;fill-opacity:1;stroke:none" />
    <path
       id="path79"
       d="M 0,10 0,32 22,32 22,10 0,10 Z"
       style="opacity:1;fill:none" />
  </g>
  <g
     transform="translate(54,0)"
     id="system-switch-user">
    <path
       id="path84"
       d="M 22,0 22,32 54,32 54,0 22,0 Z"
       style="opacity:1;fill:none" />
    <path
       id="path1011"
       transform="translate(-54)"
       class="ColorScheme-Text"
       d="m 94,8 c -1.285847,0 -2.416677,0.617761 -3.148438,1.5605469 0.329275,0.112144 0.645954,0.2508111 0.945313,0.4179687 C 92.345252,9.3811132 93.12515,9 94,9 c 1.656852,0 3,1.343147 3,3 0,1.398728 -0.960744,2.564273 -2.255859,2.896484 6.21e-4,0.03481 0.0059,0.06856 0.0059,0.103516 0,0.318095 -0.03235,0.627594 -0.08203,0.931641 C 96.557605,15.612437 98,13.980455 98,12 98,9.790862 96.209142,8 94,8 Z m -5,12 c -3.881058,0 -7,2.689616 -7,6.435547 0.0033,0.527414 0.06906,1.051937 0.198034,1.564453 h 1.111737 11.662458 0.884292 C 95.985519,27.487484 95.997113,26.963414 96,26.436 96,22.690069 92.881058,20 89,20 Z m 0.027,0.992 c 3.813868,0 5.973,2.274365 5.973,5.444 -0.0011,0.174256 -0.01135,0.347611 -0.029,0.521 H 83.029 C 83.01135,26.783611 83.00159,26.609803 83,26.435547 83,23.265912 85.179706,20.992 88.972735,20.992 Z m 6.224205,-3.992043 c -0.25686,0 -0.509035,0.01606 -0.758429,0.04297 -0.12585,0.383697 -0.291433,0.751062 -0.492776,1.097662 0.410411,-0.09117 0.830028,-0.138336 1.251205,-0.140627 3.153826,1e-6 5.710515,2.46245 5.710515,5.500033 -9e-4,0.166968 -0.009,0.333807 -0.0264,0.500003 h -4.53029 c 0.108739,0.321192 0.202605,0.648801 0.269709,0.986334 L 101.80938,25 c 0.12388,-0.491162 0.18785,-0.994566 0.19062,-1.500008 0,-3.589871 -3.02155,-6.500039 -6.748795,-6.500038 z M 89,11 c -2.209143,0 -4,1.790862 -4,4 0,2.20914 1.790857,4.000001 4,4 2.209142,1e-6 4,-1.79086 4,-4 0,-2.209138 -1.790858,-4 -4,-4 z m 0,1 c 1.656852,0 3,1.343147 3,3 0,1.656854 -1.343148,3.000001 -3,3 -1.656852,1e-6 -3,-1.343146 -3,-3 0,-1.656853 1.343148,-3 3,-3 z m 3.027,-8.2000013 c -2.034737,0 -3.684211,1.6454851 -3.684211,3.6752924 V 8.090575 L 86.736,6.388 86.123,7.1309525 88.356,9.358 89,10 89.582,9.257328 91.646,7.03 91.002,6.3882909 89.295,8.091 V 7.475 c 0,-1.449863 1.278621,-2.6249178 2.732,-2.6249178 1.453379,0 1.973,0.519045 1.973,1.968908 h 1 C 95,4.718823 93.883088,3.8390773 92.027,3.7999987 Z"
       style="fill:currentColor;fill-opacity:1;stroke:none" />
  </g>
  <g
     transform="translate(54,32)"
     id="22-22-system-users">
    <path
       id="path87"
       class="ColorScheme-Text"
       d="m 13.999995,12.999864 c -1.661999,0 -3,1.338 -3,3 0,1.662 1.338001,3 3,3 1.661999,0 3,-1.338 3,-3 0,-1.662 -1.338001,-3 -3,-3 z m -6,3 c -1.661999,0 -3,1.338 -3,3 0,1.662 1.338001,3 3,3 1.661999,0 3,-1.338 3,-3 0,-1.662 -1.338001,-3 -3,-3 z m 6,4 c -0.646349,0 -1.255999,0.134093 -1.818359,0.361328 l 0.455078,0.914063 c 0.427816,-0.1605 0.877758,-0.275391 1.363281,-0.275391 2.216023,0 4,1.783975 4,4 l -3.5,0 0.5,1 4,0 0,-1 c 0,-2.77002 -2.229982,-5 -5,-5 z m -6,3 c -2.770018,0 -5,2.22998 -5,5 l 0,1 10,0 0,-1 c 0,-2.77002 -2.229982,-5 -5,-5 z m 0,1 c 2.216008,0 4,1.783975 4,4 l -8,0 c 0,-2.216025 1.783977,-4 4,-4 z"
       style="fill:currentColor;fill-opacity:1;stroke:none" />
    <path
       id="path89"
       d="M 0,10 0,32 22,32 22,10 0,10 Z"
       style="opacity:1;fill:none" />
  </g>
  <g
     transform="translate(54,32)"
     id="system-users">
    <path
       id="path92"
       class="ColorScheme-Text"
       d="M 42.5,4 A 4.5,4.5 0 0 0 38,8.5 4.5,4.5 0 0 0 42.5,13 4.5,4.5 0 0 0 47,8.5 4.5,4.5 0 0 0 42.5,4 Z m 0,1 A 3.5,3.5 0 0 1 46,8.5 3.5,3.5 0 0 1 42.5,12 3.5,3.5 0 0 1 39,8.5 3.5,3.5 0 0 1 42.5,5 Z m -9,4 C 31.014719,9 29,11.014719 29,13.5 29,15.985281 31.014719,18 33.5,18 35.985281,18 38,15.985281 38,13.5 38,11.014719 35.985281,9 33.5,9 Z m 0,1 A 3.5,3.5 0 0 1 37,13.5 3.5,3.5 0 0 1 33.5,17 3.5,3.5 0 0 1 30,13.5 3.5,3.5 0 0 1 33.5,10 Z m 9,4 c -0.88285,0.003 -1.758266,0.172285 -2.585938,0.5 -0.06618,0.423679 -0.174132,0.839768 -0.322265,1.242188 C 40.494507,15.254879 41.490227,15.000767 42.5,15 c 3.589851,0 6.5,3.134007 6.5,7 l -8.341797,0 c 0.170323,0.323289 0.325499,0.657112 0.464844,1 L 50,23 50,22 c 0,-4.418278 -3.357864,-8 -7.5,-8 z m -9,5 C 29.357864,19 26,22.581722 26,27 l 0,1 15,0 0,-1 c 0,-4.418278 -3.357864,-8 -7.5,-8 z m 0,1 c 3.589851,0 6.5,3.134007 6.5,7 l -13,0 c 0,-3.865993 2.910149,-7 6.5,-7 z"
       style="fill:currentColor;fill-opacity:1;stroke:none" />
    <path
       id="path94"
       d="M 22,0 22,32 54,32 54,0 22,0 Z"
       style="opacity:1;fill:none" />
  </g>
  <g
     transform="translate(0,-32)"
     id="22-22-system-search">
    <path
       id="path61"
       class="ColorScheme-Text"
       d="m 9.0000001,13 c -3.3240047,0 -6,2.675995 -6,6 0,3.324005 2.6759953,6 6,6 C 10.481206,25 11.830584,24.465318 12.875,23.582031 L 18.292969,29 19,28.292969 13.582032,22.875 C 14.465318,21.830584 15,20.481205 15,19 15,15.675995 12.324005,13 9.0000001,13 Z m 0,1 C 11.770005,14 14,16.229995 14,19 c 0,2.770005 -2.229995,5 -4.9999999,5 -2.7700048,0 -5,-2.229995 -5,-5 0,-2.770005 2.2299952,-5 5,-5 z"
       style="fill:currentColor;fill-opacity:1;stroke:none" />
    <path
       id="path63"
       d="M 0,10 0,32 22,32 22,10 0,10 Z"
       style="opacity:1;fill:none" />
  </g>
  <g
     transform="translate(0,-32)"
     id="system-search">
    <path
       id="path66"
       class="ColorScheme-Text"
       d="m 35,4 a 9,9 0 0 0 -9,9 9,9 0 0 0 9,9 9,9 0 0 0 5.994141,-2.298828 L 49.292969,28 50,27.292969 41.699219,18.992187 A 9,9 0 0 0 44,13 9,9 0 0 0 35,4 Z m 0,1 a 8,8 0 0 1 8,8 8,8 0 0 1 -8,8 8,8 0 0 1 -8,-8 8,8 0 0 1 8,-8 z"
       style="fill:currentColor;fill-opacity:1;stroke:none" />
    <path
       id="path68"
       d="M 22,0 22,32 54,32 54,0 22,0 Z"
       style="opacity:1;fill:none" />
  </g>
  <g
     transform="translate(108)"
     id="system-user-list">
    <path
       id="path110"
       class="ColorScheme-Text"
       d="m 45,9 c -0.58947,0 -1.13295,0.174573 -1.59375,0.46875 0.04318,0.464252 0.0075,0.922667 -0.008,1.335882 C 43.775357,10.29878 44.369053,10.00054 45,10 c 1.104569,0 2,0.895431 2,2 0,1.104569 -0.895431,2 -2,2 -1.040548,-5.56e-4 -1.906833,-0.798896 -1.99219,-1.835938 -0.184344,0.419479 -0.464656,0.770321 -0.6956,1.09959 -10e-4,0.0013 -0.003,0.0026 -0.004,0.0039 C 42.78421,14.287279 43.79697,15 45,15 c 1.66119,0 2.99805,-1.338 2.99805,-3 0,-1.662 -1.33686,-3 -2.99805,-3 z m -6.99999,9 C 42.43204,18 46,21.56798 46,26 H 30 c 0,-4.43202 3.56798,-8 8.00001,-8 z m 10e-6,-1 C 33.01445,17 29,20.716633 29,25.333333 V 27 H 47 V 25.333333 C 47,20.716633 42.98557,17 38.00002,17 Z m 6.97654,-1 c -1.26188,4.88e-4 -2.39619,0.47884 -3.27539,1.240234 0.380034,0.156147 0.766084,0.335754 1.142399,0.50783 0.005,0.0025 0.009,0.0052 0.0137,0.0078 C 43.47258,17.305934 44.19048,17 44.97461,17 c 2.22686,5e-5 4.02344,2.337992 4.02344,4 h -2.72852 c 0.196162,0.339095 0.301576,0.64811 0.449,1 H 50 v -1 c 0,-2.769366 -2.2402,-4.998947 -5.02148,-5 z M 38,5.9999995 c 2.20915,0 4,1.7908576 4,4.0000005 0,2.209141 -1.79085,4 -4,4 -2.20915,0 -4,-1.790859 -4,-4 0,-2.2091429 1.79085,-4.0000005 4,-4.0000005 z m 0,-1 c -2.76144,0 -5,2.2385703 -5,5.0000005 0,2.76143 2.23856,5 5,5 2.350785,0 4.322665,-1.622301 4.857137,-3.808418 C 42.950498,10.809711 43,10.410637 43,10 43,7.2385698 40.76142,4.9999995 38,4.9999995 Z M 31.02344,16 c 1.26188,4.88e-4 2.39619,0.47884 3.27539,1.240234 -0.404465,0.162919 -0.805479,0.355411 -1.156104,0.515606 C 32.52742,17.305934 31.80952,17 31.02539,17 c -2.22686,5e-5 -4.02344,2.337992 -4.02344,4 h 2.72852 c -0.186972,0.33326 -0.318326,0.689701 -0.449,1 H 26 v -1 c 0,-2.769366 2.2402,-4.998947 5.02148,-5 z M 30.99805,9 c 0.58947,0 1.13295,0.174573 1.59375,0.46875 -0.04841,0.460072 -0.0093,0.927542 0.008,1.33588 C 32.222693,10.29878 31.628997,10.00054 30.99805,10 c -1.104569,0 -2,0.895431 -2,2 0,1.104569 0.895431,2 2,2 1.040548,-5.56e-4 1.906833,-0.798896 1.99219,-1.835938 0.188312,0.402683 0.471649,0.770111 0.6956,1.09959 10e-4,0.0013 0.003,0.0026 0.004,0.0039 C 33.21384,14.287279 32.20108,15 30.99805,15 29.33686,15 28,13.662 28,12 28,10.338 29.33686,9.000001 30.99805,9 Z"
       style="fill:currentColor;fill-opacity:1;stroke:none" />
    <path
       id="path84-3"
       d="M 22,0 V 32 H 54 V 0 Z"
       style="opacity:1;fill:none" />
  </g>
  <g
     transform="translate(112,64)"
     id="system-user-prompt">
    <path
       id="path44-5"
       d="M 22,0 V 32 H 54 V 0 Z"
       style="opacity:1;fill:none" />
    <path
       id="path889"
       class="ColorScheme-Text"
       d="m 37,10.75 v 1.5 h 5 v -1.5 z m -4,0 v 1.5 h 3 v -1.5 z m -6,0 v 1.5 h 5 v -1.5 z M 26,9 h 24 v 5 H 26 Z M 25,8 v 7 H 51 V 8 Z m 1,10 h 24 v 5 H 26 Z m -1,-1 v 7 h 26 v -7 z m 3.5,2 C 27.671573,19 27,19.671573 27,20.5 27,21.328427 27.671573,22 28.5,22 29.328427,22 30,21.328427 30,20.5 30,19.671573 29.328427,19 28.5,19 Z m 4,0 C 31.671573,19 31,19.671573 31,20.5 31,21.328427 31.671573,22 32.5,22 33.328427,22 34,21.328427 34,20.5 34,19.671573 33.328427,19 32.5,19 Z m 4,0 C 35.671573,19 35,19.671573 35,20.5 35,21.328427 35.671573,22 36.5,22 37.328427,22 38,21.328427 38,20.5 38,19.671573 37.328427,19 36.5,19 Z m 4,0 C 39.671573,19 39,19.671573 39,20.5 39,21.328427 39.671573,22 40.5,22 41.328427,22 42,21.328427 42,20.5 42,19.671573 41.328427,19 40.5,19 Z"
       style="fill:currentColor;fill-opacity:1;stroke:none" />
  </g>
  <g
     transform="matrix(0.6875,0,0,0.6875,96.875,74)"
     id="22-22-system-user-prompt"
     style="stroke-width:1.4545455">
    <path
       id="path909-5"
       class="ColorScheme-Text"
       d="m 35.818183,21.09091 a 0.72727275,0.72727275 0 0 1 -0.727272,0.727273 0.72727275,0.72727275 0 0 1 -0.727273,-0.727273 0.72727275,0.72727275 0 0 1 0.727273,-0.727273 0.72727275,0.72727275 0 0 1 0.727272,0.727273 z m -2.181818,0 a 0.72727275,0.72727275 0 0 1 -0.727273,0.727273 0.72727275,0.72727275 0 0 1 -0.727272,-0.727273 0.72727275,0.72727275 0 0 1 0.727272,-0.727273 0.72727275,0.72727275 0 0 1 0.727273,0.727273 z m -2.181818,0 a 0.72727275,0.72727275 0 0 1 -0.727273,0.727273 0.72727275,0.72727275 0 0 1 -0.727273,-0.727273 0.72727275,0.72727275 0 0 1 0.727273,-0.727273 0.72727275,0.72727275 0 0 1 0.727273,0.727273 z m -2.181818,0 a 0.72727275,0.72727275 0 0 1 -0.727273,0.727273 0.72727275,0.72727275 0 0 1 -0.727273,-0.727273 0.72727275,0.72727275 0 0 1 0.727273,-0.727273 0.72727275,0.72727275 0 0 1 0.727273,0.727273 z m 5.81818,-10.909091 H 38 v 1.454545 h -2.909091 z m -2.909091,0 h 1.454545 v 1.454545 h -1.454545 z m -4.363635,0 h 2.909091 v 1.454545 h -2.909091 z m -2.909091,7.272727 v 7.272728 h 26.181819 v -7.272728 z m 1.454546,1.454546 h 23.272728 v 4.363636 H 26.363638 Z M 24.909097,7.2727345 V 14.545462 H 51.090916 V 7.2727345 Z M 26.363643,8.72728 h 23.272728 v 4.363637 H 26.363643 Z"
       style="fill:currentColor;fill-opacity:1;stroke:none" />
    <path
       id="path44-5-7"
       d="M 22,0 V 32 H 54 V 0 Z"
       style="opacity:1;fill:none" />
  </g>
  <g
     transform="matrix(0.6875,0,0,0.6875,92.875,10)"
     id="22-22-system-user-list"
     style="stroke-width:1.4545455">
    <path
       id="path340-1-2"
       class="ColorScheme-Text"
       d="m 44.552119,10.181819 c -0.374531,0 -0.720437,0.103636 -1.028408,0.269887 1.89e-4,0.0019 -0.09527,0.05843 -0.09498,0.06047 0.114764,1.452661 -0.249454,2.376872 -0.665091,3.098603 0.396059,0.563505 1.048422,0.934682 1.788481,0.934682 1.025803,0 1.886094,-0.707989 2.119316,-1.661932 0.04073,-0.166636 0.06255,-0.340697 0.06255,-0.519887 -1.4e-5,-1.204987 -0.976843,-2.181818 -2.181818,-2.181818 z m -13.097528,0 c 0.374531,0 0.720436,0.103636 1.028407,0.269887 -1.89e-4,0.0019 0.09527,0.05843 0.09498,0.06047 -0.114764,1.452661 0.249455,2.376872 0.665091,3.098603 -0.396058,0.563505 -1.048422,0.934682 -1.78848,0.934682 -1.025804,0 -1.886095,-0.707989 -2.119317,-1.661932 -0.04073,-0.166636 -0.06254,-0.340697 -0.06254,-0.519887 1.4e-5,-1.204987 0.976844,-2.181818 2.181818,-2.181818 z m -4.4e-5,5.818168 c 1.226473,0 2.302211,0.565518 2.960233,1.477273 -0.369265,0.195739 -0.745004,0.436224 -1.070982,0.630662 -0.358356,-0.422659 -1.025004,-0.65339 -1.889251,-0.65339 -1.309454,0 -2.18182,0.960799 -2.18182,2.909104 h 1.818182 l -0.727273,1.454546 h -2.545454 l 1e-6,-2.21024 c 10e-7,-2.093049 1.622008,-3.607955 3.636364,-3.607955 z m 13.09091,1.4e-5 c -1.226473,0 -2.302211,0.565519 -2.960233,1.477273 0.369265,0.19574 0.745004,0.436224 1.070982,0.630662 0.358356,-0.422659 1.025003,-0.653389 1.889251,-0.653389 1.309454,0 2.181816,0.993887 2.181816,2.909089 h -1.818182 l 0.727273,1.454546 h 2.545454 l 2e-6,-2.210225 c 2e-6,-2.093049 -1.622007,-3.607956 -3.636363,-3.607956 z M 38,18.909091 c 2.909091,0 5.818182,1.454545 5.818182,5.818182 H 32.181818 c 0,-4.363637 2.909091,-5.818182 5.818182,-5.818182 z m 0,-1.454546 c -4.230226,0 -7.261221,2.974329 -7.269818,7.272728 l -0.0029,1.454545 h 14.545454 l -0.0029,-1.454545 C 45.261176,20.405961 42.230211,17.454545 38,17.454545 Z m 7.5e-5,-11.6363628 c -2.81168,0 -5.090953,2.2792686 -5.090953,5.0909048 0,2.811643 2.279273,5.090914 5.090953,5.090914 2.393556,0 4.401294,-1.651796 4.945498,-3.877663 0.09498,-0.388814 0.145469,-0.795143 0.145469,-1.213251 0,-2.8116362 -2.279316,-5.0909048 -5.090967,-5.0909048 z"
       style="fill:currentColor;fill-opacity:1;stroke:none" />
    <path
       id="path84-3-7"
       d="M 22,0 V 32 H 54 V 0 Z"
       style="opacity:1;fill:none" />
  </g>
</svg>
