<svg id="svg4153" version="1.1" viewBox="0 0 22 22" xmlns="http://www.w3.org/2000/svg">
    <style id="current-color-scheme" type="text/css">
        .ColorScheme-Text {
            color:#232629;
        }
        .ColorScheme-Background {
            color:#eff0f1;
        }
    </style>
    <g id="user-away">
        <path id="rect4562" d="m-44 0h22v22h-22z" fill="none" opacity=".97"/>
        <path id="path4149" d="m-33 2.99961a3.9999902 4.0000296 0 0 0-4 4 3.9999902 4.0000296 0 0 0 4 4 3.9999902 4.0000296 0 0 0 4-4 3.9999902 4.0000296 0 0 0-4-4zm0 1a3 3.0000296 0 0 1 3 3 3 3.0000296 0 0 1-3 3 3 3.0000296 0 0 1-3-3 3 3.0000296 0 0 1 3-3z" fill="#fdbc4b"/>
        <path id="ellipse4156" d="m-33 12a7.9999504 8.0000296 0 0 0-7.927734 7h1.007812a6.9999604 7.0000296 0 0 1 6.919922-6 6.9999604 7.0000296 0 0 1 1 0.08008v-1.009766a7.9999504 8.0000296 0 0 0-1-0.070314z" fill="#fdbc4b"/>
        <path id="path4227" d="m-25 11-8 4 2 1 1 3 1-2 2 1z" fill="#fdbc4b" fill-rule="evenodd"/>
    </g>
    <g id="user-busy">
        <path id="rect4560" d="m-66 0h22v22h-22z" fill="none" opacity=".97"/>
        <path id="path4149-4" d="m-55 2.99961a3.9999902 4.0000296 0 0 0-4 4 3.9999902 4.0000296 0 0 0 4 4 3.9999902 4.0000296 0 0 0 4-4 3.9999902 4.0000296 0 0 0-4-4zm0 1a3 3.0000296 0 0 1 3 3 3 3.0000296 0 0 1-3 3 3 3.0000296 0 0 1-3-3 3 3.0000296 0 0 1 3-3z" fill="#f47750"/>
        <path id="ellipse4156-7" d="m-55 12a7.9999504 8.0000296 0 0 0-7.927734 7h1.007812a6.9999604 7.0000296 0 0 1 6.919922-6 6.9999604 7.0000296 0 0 1 1 0.08008v-1.009766a7.9999504 8.0000296 0 0 0-1-0.070314z" fill="#f47750"/>
        <path id="path4169" d="m-50.5 12a3.5 3.5 0 0 0-3.5 3.5 3.5 3.5 0 0 0 3.5 3.5 3.5 3.5 0 0 0 3.5-3.5 3.5 3.5 0 0 0-3.5-3.5z" fill="#f47750"/>
        <path id="rect4146" class="ColorScheme-Background" d="m-51 13v3h2v-1h-1v-2z" fill="currentColor"/>
    </g>
    <g id="user-invisible">
        <path id="rect4556" d="m22 0h22v22h-22z" fill="none" opacity=".97"/>
        <path id="path4149-7" class="ColorScheme-Text" d="m33 2.99961a3.9999902 4.0000296 0 0 0-4 4 3.9999902 4.0000296 0 0 0 4 4 3.9999902 4.0000296 0 0 0 4-4 3.9999902 4.0000296 0 0 0-4-4zm0 1a3 3.0000296 0 0 1 3 3 3 3.0000296 0 0 1-3 3 3 3.0000296 0 0 1-3-3 3 3.0000296 0 0 1 3-3z" fill="currentColor"/>
        <path id="ellipse4156-0" class="ColorScheme-Text" d="m33 12a7.9999504 8.0000296 0 0 0-7.927734 7h1.007812a6.9999604 7.0000296 0 0 1 6.919922-6 6.9999604 7.0000296 0 0 1 1 0.08008v-1.009766a7.9999504 8.0000296 0 0 0-1-0.070314z" fill="currentColor"/>
        <circle id="path4167" cx="37.500004" cy="15.5" r="3.5" fill="#666"/>
        <path id="rect4152" class="ColorScheme-Background" transform="matrix(.70710678 .70710678 -.70710678 .70710678 0 0)" d="m36.976669-17.884859h1v4.657h-1z" fill="currentColor"/>
    </g>
    <g id="user-offline">
        <path id="rect4564" d="m-22 0h22v22h-22z" fill="none" opacity=".97"/>
        <ellipse id="path4146" class="ColorScheme-Background" cx="-6.499996" cy="15.5" rx="3.250001" ry="3.249986" fill="currentColor"/>
        <path id="path4149-3" d="m-11 2.99961a3.9999902 4.0000296 0 0 0-4 4 3.9999902 4.0000296 0 0 0 4 4 3.9999902 4.0000296 0 0 0 4-4 3.9999902 4.0000296 0 0 0-4-4zm0 1a3 3.0000296 0 0 1 3 3 3 3.0000296 0 0 1-3 3 3 3.0000296 0 0 1-3-3 3 3.0000296 0 0 1 3-3z" fill="#bdc3c7"/>
        <path id="ellipse4156-75" d="m-11 12a7.9999504 8.0000296 0 0 0-7.927734 7h1.007812a6.9999604 7.0000296 0 0 1 6.919922-6 6.9999604 7.0000296 0 0 1 1 0.08008v-1.009766a7.9999504 8.0000296 0 0 0-1-0.070314z" fill="#bdc3c7"/>
        <path id="path4167-8" d="m-6.5 12a3.5 3.5 0 0 0-3.5 3.5 3.5 3.5 0 0 0 3.5 3.5 3.5 3.5 0 0 0 3.5-3.5 3.5 3.5 0 0 0-3.5-3.5zm0 1a2.5 2.5 0 0 1 2.5 2.5 2.5 2.5 0 0 1-2.5 2.5 2.5 2.5 0 0 1-2.5-2.5 2.5 2.5 0 0 1 2.5-2.5z" fill="#bdc3c7"/>
        <path id="rect4152-8" transform="rotate(90)" d="m15 4.999996h.999971v2.999991h-.999971z" fill="#bdc3c7"/>
    </g>
    <g id="user-online">
        <path id="rect4554" d="m0 0h22v22h-22z" fill="none" opacity=".97"/>
        <path id="path4149-8" d="m10.96392 2.99961a3.9999902 4.0000296 0 0 0-4 4 3.9999902 4.0000296 0 0 0 4 4 3.9999902 4.0000296 0 0 0 4-4 3.9999902 4.0000296 0 0 0-4-4zm0 1a3 3.0000296 0 0 1 3 3 3 3.0000296 0 0 1-3 3 3 3.0000296 0 0 1-3-3 3 3.0000296 0 0 1 3-3z" fill="#43be80"/>
        <path id="ellipse4156-8" d="m10.96392 12a7.9999504 8.0000296 0 0 0-7.9277344 7h1.0078125a6.9999604 7.0000296 0 0 1 6.9199219-6 6.9999604 7.0000296 0 0 1 1 0.08008v-1.009766a7.9999504 8.0000296 0 0 0-1-0.07031z" fill="#43be80"/>
        <circle id="path4144" cx="15.463924" cy="15.5" r="3.5" fill="#43be80"/>
        <path id="path4166" class="ColorScheme-Background" d="m16.96391 14.00003 1 1-3 3-2-2 1-1 1 1z" fill="currentColor" fill-rule="evenodd"/>
    </g>
    <g id="user-identity">
        <path id="rect4585" d="m-88 0h22v22h-22z" fill="none" opacity=".97"/>
        <path id="path4149-2" class="ColorScheme-Text" d="m-77 3a3.9999902 4.0000296 0 0 0-4 4 3.9999902 4.0000296 0 0 0 4 4 3.9999902 4.0000296 0 0 0 4-4 3.9999902 4.0000296 0 0 0-4-4zm0 1a3 3.0000296 0 0 1 3 3 3 3.0000296 0 0 1-3 3 3 3.0000296 0 0 1-3-3 3 3.0000296 0 0 1 3-3zm0 8a7.9999504 8.0000296 0 0 0-7.927734 7h1.007812a6.9999604 7.0000296 0 0 1 6.919922-6 6.9999604 7.0000296 0 0 1 6.921875 6h1.007813a7.9999504 8.0000296 0 0 0-7.929688-7z" fill="currentColor"/>
    </g>
    <g id="user-away-extended">
        <path id="rect4649" d="m44 0h22v22h-22z" fill="none" opacity=".97"/>
        <circle id="circle4653" cx="59.500015" cy="15.5" r="3.499985" fill="#9b59b6"/>
        <path id="path4655" d="m55.00004 2.99961a3.9999902 4.0000296 0 0 0-4 4 3.9999902 4.0000296 0 0 0 4 4 3.9999902 4.0000296 0 0 0 4-4 3.9999902 4.0000296 0 0 0-4-4zm0 1a3 3.0000296 0 0 1 3 3 3 3.0000296 0 0 1-3 3 3 3.0000296 0 0 1-3-3 3 3.0000296 0 0 1 3-3z" fill="#9b59b6"/>
        <path id="path4657" d="m55.00004 12a7.9999504 8.0000296 0 0 0-7.927734 7h1.007812a6.9999604 7.0000296 0 0 1 6.919922-6 6.9999604 7.0000296 0 0 1 1 0.08008v-1.009766a7.9999504 8.0000296 0 0 0-1-0.07031z" fill="#9b59b6"/>
        <circle id="circle4659" class="ColorScheme-Background" transform="rotate(90)" cx="15.5" cy="-57.500046" r=".5" fill="currentColor" opacity=".7"/>
        <circle id="circle4661" class="ColorScheme-Background" cx="59.500046" cy="15.5" r=".5" fill="currentColor" opacity=".4"/>
        <circle id="circle4663" class="ColorScheme-Background" cx="61.500046" cy="15.5" r=".5" fill="currentColor" opacity=".3"/>
    </g>
    <g id="16-16-user-desktop" transform="translate(-270)">
        <path id="rect856" d="m-48 16h16v16h-16z" fill="none"/>
        <path id="path828" class="ColorScheme-Text" d="m-46 18v12h12v-12zm1 1h10v10h-10v-1zm1 8v1h8v-1z" fill="currentColor"/>
    </g>
    <g id="22-22-user-desktop" transform="translate(-270)">
        <path id="rect850" d="m-22 10h22v22h-22z" fill="none"/>
        <path id="path840" class="ColorScheme-Text" d="m-19 13v16h16v-16zm1 1h14v14h-14zm1 12v1h12v-1z" fill="currentColor"/>
    </g>
    <g id="32-32-user-desktop" transform="translate(-260)">
        <path id="rect844" d="m0 0h32v32h-32z" fill="none"/>
        <path id="path819" class="ColorScheme-Text" d="m4 4v24h24v-24zm1 1h22v22h-22zm2 19v1h18v-1z" fill="currentColor"/>
    </g>
    <g id="48-48-user-desktop" transform="translate(-260)">
        <path id="rect846" d="m42-16h48v48h-48z" fill="none"/>
        <path id="path819-3" class="ColorScheme-Text" d="m48-10v36h36v-36zm2 2h32v32h-32zm2 28v2h28v-2z" fill="currentColor"/>
    </g>
    <g id="user-desktop" transform="translate(-260)">
        <path id="rect846-6" d="m100-32h64v64h-64z" fill="none"/>
        <path id="path819-3-7" class="ColorScheme-Text" d="m108-24v48h48v-48zm2 2h44v44h-44zm3 39v2h38v-2z" fill="currentColor"/>
    </g>
</svg>
