<?xml version="1.0" encoding="UTF-8" standalone="no"?>
<svg
   xmlns:dc="http://purl.org/dc/elements/1.1/"
   xmlns:cc="http://creativecommons.org/ns#"
   xmlns:rdf="http://www.w3.org/1999/02/22-rdf-syntax-ns#"
   xmlns:svg="http://www.w3.org/2000/svg"
   xmlns="http://www.w3.org/2000/svg"
   version="1.1"
   id="svg2"
   viewBox="0 0 54 64">
  <metadata
     id="metadata22">
    <rdf:RDF>
      <cc:Work
         rdf:about="">
        <dc:format>image/svg+xml</dc:format>
        <dc:type
           rdf:resource="http://purl.org/dc/dcmitype/StillImage" />
        <dc:title></dc:title>
      </cc:Work>
    </rdf:RDF>
  </metadata>
  <defs
     id="defs3615">
    <style
       type="text/css"
       id="current-color-scheme">
      .ColorScheme-Text {
        color:#31363b;
      }
      .ColorScheme-Background{
        color:#E9E8E8;
      }
      .ColorScheme-ViewText {
        color:#31363b;
      }
      .ColorScheme-ViewBackground{
        color:#ffffff;
      }
      .ColorScheme-ViewHover {
        color:#000000;
      }
      .ColorScheme-ViewFocus{
        color:#5a5a5a;
      }
      .ColorScheme-ButtonText {
        color:#31363b;
      }
      .ColorScheme-ButtonBackground{
        color:#E9E8E8;
      }
      .ColorScheme-ButtonHover {
        color:#1489ff;
      }
      .ColorScheme-ButtonFocus{
        color:#2B74C7;
      }
</style>
  </defs>
  <g
     id="22-22-view-refresh">
    <path
       id="path7"
       class="ColorScheme-Text"
       d="m 11,13 c -1.441714,0 -2.802961,0.36925 -3.96875,1.03125 l 0.71875,0.6875 0.0625,0.0625 2.75,2.78125 0.71875,-0.71875 -2.5,-2.46875 C 9.479582,14.14031 10.220394,14 11,14 c 3.87797,0 7,3.122 7,7 0,1.1625 -0.283875,2.25585 -0.78125,3.21875 l 0.75,0.75 C 18.630801,23.80295 19,22.4417 19,21 19,16.568 15.431966,13 11,13 Z M 4.03125,17.03125 C 3.369199,18.19705 3,19.5583 3,21 c 0,4.432 3.568034,8 8,8 1.441714,0 2.802961,-0.36925 3.96875,-1.03125 l -0.6875,-0.6875 -0.0625,-0.0625 L 11.4375,24.4375 10.75,25.15625 13.21875,27.625 C 12.520418,27.85969 11.779605,28 11,28 7.12203,28 4,24.878 4,21 4,19.8375 4.283876,18.74415 4.78125,17.78125 l -0.75,-0.75 z"
       style="fill:currentColor;fill-opacity:1;stroke:none" />
    <path
       id="path9"
       d="M 0,10 0,32 22,32 22,10 0,10 Z"
       style="opacity:1;fill:none" />
  </g>
  <g
     id="view-refresh">
    <path
       id="path12"
       class="ColorScheme-Text"
       d="M 38,4 A 12,12 0 0 0 31.916016,5.671875 L 37.293,11.05 38,10.34 33.596,5.936 A 11,11 0 0 1 38,5 11,11 0 0 1 49,16 11,11 0 0 1 47.595703,21.351562 L 48.328,22.08 A 12,12 0 0 0 50,16 12,12 0 0 0 38,4 M 27.671875,9.916016 A 12,12 0 0 0 26,16 12,12 0 0 0 38,28 12,12 0 0 0 44.08398,26.328125 L 38.707,20.949 38,21.656 42.406,26.06 A 11,11 0 0 1 38,27 11,11 0 0 1 27,16 11,11 0 0 1 28.404297,10.648438 Z"
       style="fill:currentColor;fill-opacity:1;stroke:none" />
    <path
       id="path14"
       d="M 22,0 22,32 54,32 54,0 22,0 Z"
       style="opacity:1;fill:none" />
  </g>
  <g
     transform="translate(0,32)"
     id="22-22-view-history">
    <path
       id="path13"
       class="ColorScheme-Text"
       d="m 11,13 c -4.431998,0 -8,3.568002 -8,8 0,4.431998 3.568002,8 8,8 4.431998,0 8,-3.568002 8,-8 0,-4.431998 -3.568002,-8 -8,-8 z m 0,1 c 3.877999,0 7,3.122001 7,7 0,3.877999 -3.122001,7 -7,7 -3.877999,0 -7,-3.122001 -7,-7 0,-3.877999 3.122001,-7 7,-7 z m -1,1 0,7 1,0 5,0 0,-1 -5,0 0,-6 -1,0 z"
       style="fill:currentColor;fill-opacity:1;stroke:none" />
    <path
       id="path15"
       d="M 0,10 0,32 22,32 22,10 0,10 Z"
       style="opacity:1;fill:none" />
  </g>
  <g
     transform="translate(0,32)"
     id="view-history">
    <path
       id="path22"
       class="ColorScheme-Text"
       d="M 38,4 A 12,12 0 0 0 26,16 12,12 0 0 0 38,28 12,12 0 0 0 50,16 12,12 0 0 0 38,4 Z m 0,1 A 11,11 0 0 1 49,16 11,11 0 0 1 38,27 11,11 0 0 1 27,16 11,11 0 0 1 38,5 Z m -1,2 0,10 9,0 0,-1 -8,0 0,-9 -1,0 z"
       style="fill:currentColor;fill-opacity:1;stroke:none" />
    <path
       id="path24"
       d="M 22,0 22,32 54,32 54,0 22,0 Z"
       style="opacity:1;fill:none" />
  </g>
</svg>
