<?xml version="1.0" encoding="UTF-8" standalone="no"?>
<svg xmlns:dc="http://purl.org/dc/elements/1.1/" xmlns:cc="http://creativecommons.org/ns#" xmlns:rdf="http://www.w3.org/1999/02/22-rdf-syntax-ns#" xmlns:svg="http://www.w3.org/2000/svg" xmlns="http://www.w3.org/2000/svg" xmlns:sodipodi="http://sodipodi.sourceforge.net/DTD/sodipodi-0.dtd" xmlns:inkscape="http://www.inkscape.org/namespaces/inkscape" viewBox="0 0 22 22" id="svg" version="1.1" inkscape:version="0.91 r13725" width="100%" height="100%" sodipodi:docname="wallet.svg">
  <defs id="defs81">
    <style id="current-color-scheme" type="text/css">
      .ColorScheme-Text {
        color:#7B7C7E;
      }
      .ColorScheme-Background{
        color:#EFF0F1;
      }
      .ColorScheme-Highlight{
        color:#3DAEE6;
      }
      .ColorScheme-ViewText {
        color:#7B7C7E;
      }
      .ColorScheme-ViewBackground{
        color:#FCFCFC;
      }
      .ColorScheme-ViewHover {
        color:#3DAEE6;
      }
      .ColorScheme-ViewFocus{
        color:#1E92FF;
      }
      .ColorScheme-ButtonText {
        color:#7B7C7E;
      }
      .ColorScheme-ButtonBackground{
        color:#EFF0F1;
      }
      .ColorScheme-ButtonHover {
        color:#3DAEE6;
      }
      .ColorScheme-ButtonFocus{
        color:#1E92FF;
      }
</style>
    <style type="text/css" id="current-color-scheme">
      .ColorScheme-Text {
        color:#31363b;
      }
      .ColorScheme-Background {
        color:#eff0f1;
      }
      .ColorScheme-Highlight {
        color:#3daee9;
      }
      .ColorScheme-ViewText {
        color:#31363b;
      }
      .ColorScheme-ViewBackground {
        color:#fcfcfc;
      }
      .ColorScheme-ViewHover {
        color:#93cee9;
      }
      .ColorScheme-ViewFocus{
        color:#3daee9;
      }
      .ColorScheme-ButtonText {
        color:#31363b;
      }
      .ColorScheme-ButtonBackground {
        color:#eff0f1;
      }
      .ColorScheme-ButtonHover {
        color:#93cee9;
      }
      .ColorScheme-ButtonFocus{
        color:#3daee9;
      }
      </style>
  </defs>
  <metadata id="metadata34">
    <rdf:RDF>
      <cc:Work rdf:about="">
        <dc:format>image/svg+xml</dc:format>
        <dc:type rdf:resource="http://purl.org/dc/dcmitype/StillImage"/>
        <dc:title/>
      </cc:Work>
    </rdf:RDF>
  </metadata>
  <sodipodi:namedview pagecolor="#ffffff" bordercolor="#666666" borderopacity="1" objecttolerance="10" gridtolerance="10000" guidetolerance="10" inkscape:pageopacity="0" inkscape:pageshadow="2" inkscape:window-width="2560" inkscape:window-height="955" id="namedview32" showgrid="true" inkscape:zoom="17.022727" inkscape:cx="10.967536" inkscape:cy="6.5177229" inkscape:window-x="0" inkscape:window-y="35" inkscape:window-maximized="1" inkscape:current-layer="svg" borderlayer="true" showguides="true" inkscape:guide-bbox="true" inkscape:snap-bbox="true" inkscape:showpageshadow="false">
    <inkscape:grid type="xygrid" id="grid3060" empspacing="5" visible="true" enabled="true" snapvisiblegridlinesonly="true"/>
    <sodipodi:guide position="0,22" orientation="22,0" id="guide4152"/>
    <sodipodi:guide position="0,0" orientation="0,22" id="guide4154"/>
    <sodipodi:guide position="22,0" orientation="-22,0" id="guide4156"/>
    <sodipodi:guide position="22,22" orientation="0,-22" id="guide4158"/>
    <sodipodi:guide position="3,19" orientation="16,0" id="guide4160"/>
    <sodipodi:guide position="3,3" orientation="0,16" id="guide4162"/>
    <sodipodi:guide position="19,3" orientation="-16,0" id="guide4164"/>
    <sodipodi:guide position="19,19" orientation="0,-16" id="guide4166"/>
  </sodipodi:namedview>
  <g id="wallet-open">
    <path id="rect4188" d="M 3,3 3,7 2,7 2,8 2,18 c 0,0.554 0.446,1 1,1 l 16,0 1,0 0,-1 0,-10 C 20,7.446 19.554,7 19,7 l -5,0 0,-4 z m 1,1 9,0 0,3 -2.507812,0 C 10.021704,6.3726797 9.284143,6.0024532 8.5,6 7.7137941,6.0006144 6.9736765,6.3710349 6.5019531,7 L 4,7 Z M 3,8 4,8 6.0507812,8 10.945312,8 13,8 l 1,0 5,0 0,3 -2,0 -5,0 c -1.108,0 -2,0.892 -2,2 0,1.108 0.892,2 2,2 l 5,0 2,0 0,3 -16,0 z m 10,4 c 0.552285,0 1,0.447715 1,1 0,0.552285 -0.447715,1 -1,1 -0.552285,0 -1,-0.447715 -1,-1 0,-0.552285 0.447715,-1 1,-1 z" style="opacity:1;fill:currentColor;fill-opacity:1;stroke:none" inkscape:connector-curvature="0" sodipodi:nodetypes="ccccsscccssccccccccccccccccccccssscccccsssss" class="ColorScheme-Text"/>
    <rect y="0" x="0" height="22" width="22" id="rect4216" style="opacity:1;fill:none;fill-opacity:1;stroke:none"/>
  </g>
  <g id="wallet-closed">
    <path inkscape:connector-curvature="0" style="opacity:1;fill:currentColor;fill-opacity:1;stroke:none" d="m 24,7 0,1 0,10 c 0,0.554 0.446,1 1,1 l 16,0 1,0 0,-1 0,-10 C 42,7.446 41.554,7 41,7 L 25,7 Z m 1,1 16,0 0,3 -2,0 -5,0 c -1.108,0 -2,0.892 -2,2 0,1.108 0.892,2 2,2 l 5,0 2,0 0,3 -16,0 z m 10,4 c 0.552285,0 1,0.447715 1,1 0,0.552285 -0.447715,1 -1,1 -0.552285,0 -1,-0.447715 -1,-1 0,-0.552285 0.447715,-1 1,-1 z" id="path4200" sodipodi:nodetypes="ccsscccssccccccssscccccsssss" class="ColorScheme-Text"/>
    <rect y="0" x="22" height="22" width="22" id="rect4222" style="opacity:1;fill:none;fill-opacity:1;stroke:none"/>
  </g>
</svg>
