<?xml version="1.0" encoding="UTF-8" standalone="no"?>
<svg
   xmlns:dc="http://purl.org/dc/elements/1.1/"
   xmlns:cc="http://creativecommons.org/ns#"
   xmlns:rdf="http://www.w3.org/1999/02/22-rdf-syntax-ns#"
   xmlns:svg="http://www.w3.org/2000/svg"
   xmlns="http://www.w3.org/2000/svg"
   xmlns:sodipodi="http://sodipodi.sourceforge.net/DTD/sodipodi-0.dtd"
   xmlns:inkscape="http://www.inkscape.org/namespaces/inkscape"
   width="24"
   height="16"
   id="svg3869"
   version="1.1"
   viewBox="0 0 24 16"
   inkscape:version="0.91 r13725"
   sodipodi:docname="window.svgz">
  <sodipodi:namedview
     pagecolor="#ffffff"
     bordercolor="#666666"
     borderopacity="1"
     objecttolerance="10"
     gridtolerance="10"
     guidetolerance="10"
     inkscape:pageopacity="0"
     inkscape:pageshadow="2"
     inkscape:window-width="1680"
     inkscape:window-height="991"
     id="namedview17"
     showgrid="false"
     inkscape:zoom="6.0625"
     inkscape:cx="21.250496"
     inkscape:cy="22.115119"
     inkscape:window-x="0"
     inkscape:window-y="0"
     inkscape:window-maximized="1"
     inkscape:current-layer="svg3869" />
  <metadata
     id="metadata26">
    <rdf:RDF>
      <cc:Work
         rdf:about="">
        <dc:format>image/svg+xml</dc:format>
        <dc:type
           rdf:resource="http://purl.org/dc/dcmitype/StillImage" />
        <dc:title />
      </cc:Work>
    </rdf:RDF>
  </metadata>
  <defs
     id="defs3871">
    <style
       type="text/css"
       id="current-color-scheme">
      .ColorScheme-Text {
        color:#31363b;
      }
      .ColorScheme-Background {
        color:#eff0f1;
      }
      .ColorScheme-Highlight {
        color:#3daee9;
      }
      .ColorScheme-ViewText {
        color:#31363b;
      }
      .ColorScheme-ViewBackground {
        color:#fcfcfc;
      }
      .ColorScheme-ViewHover {
        color:#93cee9;
      }
      .ColorScheme-ViewFocus{
        color:#3daee9;
      }
      .ColorScheme-ButtonText {
        color:#31363b;
      }
      .ColorScheme-ButtonBackground {
        color:#eff0f1;
      }
      .ColorScheme-ButtonHover {
        color:#93cee9;
      }
      .ColorScheme-ButtonFocus{
        color:#3daee9;
      }
      .ColorScheme-NegativeText {
        color:#da4453;
      }
      </style>
  </defs>
  <g
     id="edit-delete"
     transform="matrix(0.72727273,0,0,0.72727273,-237.09091,-388.62706)">
    <rect
       id="rect8"
       style="opacity:1;fill:none"
       width="22"
       height="22"
       x="326"
       y="534.36218" />
    <circle
       r="0"
       cy="-509.56235"
       cx="277.5625"
       id="circle16" />
    <path
       id="path12"
       d="m 337,535.73721 a 9.6249993,9.6250096 0 0 0 -9.625,9.625 9.6249993,9.6250096 0 0 0 9.625,9.625 9.6249993,9.6250096 0 0 0 9.625,-9.625 9.6249993,9.6250096 0 0 0 -9.625,-9.625 z m -3.96186,4.8125 3.96186,3.96186 3.96186,-3.96186 0.85065,0.85064 -3.96187,3.96186 3.96187,3.96186 -0.85065,0.85064 -3.96186,-3.96186 -3.96186,3.96186 -0.85063,-0.85064 3.96185,-3.96186 -3.96185,-3.96186 0.85063,-0.85064 z"
       style="fill:currentColor;fill-opacity:1;stroke:none"
       class="ColorScheme-NegativeText" />
    <path
       style="fill:#ffffff;fill-opacity:0.71176469;stroke:none"
       d="M 5.1191406 4.5 L 4.5 5.1191406 L 7.3808594 8 L 4.5 10.880859 L 5.1191406 11.5 L 8 8.6191406 L 10.880859 11.5 L 11.5 10.880859 L 8.6191406 8 L 11.5 5.1191406 L 10.880859 4.5 L 8 7.3808594 L 5.1191406 4.5 z "
       transform="matrix(1.375,0,0,1.375,326,534.36221)"
       id="rect4145" />
  </g>
  <g
     transform="translate(62,-36)"
     id="window-pin">
    <rect
       id="rect15"
       width="8"
       height="8"
       x="-46"
       y="44"
       style="opacity:1;fill:none" />
    <path
       id="path17"
       d="m -41,44 c -0.389252,0.389252 -0.468353,1.084344 -0.01563,1.84375 l -2.125,1.421875 c -0.264203,-0.106604 -0.547797,-0.186091 -0.828125,-0.1875 C -44.33313,47.076275 -44.6875,47.1875 -45,47.5 l 1.5,1.5 -2,2 -0.5,1 1,-0.5 2,-2 1.5,1.5 c 0.553482,-0.553482 0.482374,-1.253884 0.234375,-1.859375 l 1.421875,-2.125 C -39.084344,47.468353 -38.389252,47.389252 -38,47 Z"
       style="fill:currentColor;fill-opacity:1;stroke:none"
       class="ColorScheme-Text" />
  </g>
  <g
     transform="translate(82,-44)"
     id="window-unpin">
    <path
       id="path20"
       d="m -61,44 c -0.389252,0.389252 -0.468353,1.084344 -0.01563,1.84375 l -2.125,1.421875 c -0.264203,-0.106604 -0.547797,-0.186091 -0.828125,-0.1875 C -64.33313,47.076275 -64.6875,47.1875 -65,47.5 l 1.5,1.5 -2,2 -0.5,1 1,-0.5 2,-2 1.5,1.5 c 0.553482,-0.553482 0.482374,-1.253884 0.234375,-1.859375 l 1.421875,-2.125 C -59.084344,47.468353 -58.389252,47.389252 -58,47 Z"
       style="fill:currentColor;fill-opacity:1;stroke:none"
       class="ColorScheme-Highlight" />
    <rect
       id="rect22"
       width="8"
       height="8"
       x="-66"
       y="44"
       style="opacity:1;fill:none" />
  </g>
  <g
     transform="translate(-292,-542.36218)"
     id="window-list">
    <rect
       ry="0"
       y="561.36218"
       x="286"
       height="32"
       width="32"
       id="rect3004"
       style="opacity:0;fill:#333333;fill-opacity:1;stroke:none" />
    <path
       id="rect3008"
       transform="translate(326,534.3622)"
       d="m -36,31 0,10 10,0 0,-10 -10,0 z m 1,1 8,0 0,8 -8,0 0,-8 z"
       style="fill:currentColor"
       class="ColorScheme-Text"
       inkscape:connector-curvature="0" />
    <path
       id="rect3010"
       transform="translate(326,534.3622)"
       d="m -22,31 0,10 10,0 0,-10 -10,0 z m 1,1 8,0 0,8 -8,0 0,-8 z"
       style="fill:currentColor"
       class="ColorScheme-Text"
       inkscape:connector-curvature="0" />
    <path
       id="rect3012"
       transform="translate(326,534.3622)"
       d="m -36,45 0,10 10,0 0,-10 -10,0 z m 1,1 8,0 0,8 -8,0 0,-8 z"
       style="fill:currentColor"
       class="ColorScheme-Text"
       inkscape:connector-curvature="0" />
    <path
       id="rect3014"
       transform="translate(326,534.3622)"
       d="m -22,45 0,10 10,0 0,-10 -10,0 z m 1,1 8,0 0,8 -8,0 0,-8 z"
       style="fill:currentColor"
       class="ColorScheme-Text"
       inkscape:connector-curvature="0" />
  </g>
</svg>
