<svg id="window" viewBox="0 0 32 16" xmlns="http://www.w3.org/2000/svg">
    <style id="current-color-scheme" type="text/css">
        .ColorScheme-Text {
            color:#232629;
        }
        .ColorScheme-ButtonFocus{
            color:#3daee9;
        }
    </style>
    <g id="window-list" transform="translate(-286 -545.36218)">
        <path id="rect3004" d="m286 561.36218h32v32h-32z" fill="#333" opacity="0"/>
        <path id="rect3008" d="m290 565.3622v10h10v-10zm1 1h8v8h-8z" class="ColorScheme-Text" fill="currentColor"/>
        <path id="rect3010" d="m304 565.3622v10h10v-10zm1 1h8v8h-8z" class="ColorScheme-Text" fill="currentColor"/>
        <path id="rect3012" d="m290 579.3622v10h10v-10zm1 1h8v8h-8z" class="ColorScheme-Text" fill="currentColor"/>
        <path id="rect3014" d="m304 579.3622v10h10v-10zm1 1h8v8h-8z" class="ColorScheme-Text" fill="currentColor"/>
    </g>
    <g id="16-16-window-pin">
        <path id="rect847" d="m0 0h16v16h-16z" fill="none"/>
        <path id="path3" d="m10.5 1.7929688-.7070312.7070312.2070312.792969-3.3378906 3.3378904c-.8269469-.4124884-1.7379981-.6283868-2.6621094-.6308594l-.3535156.3535156 2.6464844 2.6464844-3.2929688 3.292969v.707031h.7070312l3.2929688-3.2929688 2.6464844 2.6464848.3535156-.353516c-.0024726-.924111-.218371-1.835162-.6308594-2.6621094l3.3378904-3.3378906.792969.2070312.707031-.7070312z" class="ColorScheme-Text" fill="currentColor"/>
    </g>
    <g id="window-pin" transform="translate(-22 -6)">
        <path id="path1140" d="m14.5 2.7929688-.707031.7070312.5 1.5-4.705078 4.7050781c-.8903965-.4611937-1.8781133-.7029331-2.88086-.7050781h-.707031l-.353516.3535156 3.146485 3.1464844-5.792969 5.792969v.707031h.707031l5.792969-5.792969 3.146484 3.146485.353516-.353516v-.707031c-.0021-1.002747-.243884-1.990463-.705078-2.88086l4.705078-4.7050778 1.5.5.707031-.7070312z" class="ColorScheme-Text" fill="currentColor" stroke-linecap="square" stroke-miterlimit="0"/>
        <path id="rect838" d="m0 0h22v22h-22z" fill="none"/>
    </g>
    <g id="16-16-window-unpin" transform="translate(16)">
        <path id="rect847-9" d="m0 0h16v16h-16z" fill="none"/>
        <path id="path3-3" d="m10.5 1.7929688-.7070312.7070312.2070312.792969-3.3378906 3.3378904c-.8269469-.4124884-1.7379981-.6283868-2.6621094-.6308594l-.3535156.3535156 2.6464844 2.6464844-3.2929688 3.292969v.707031h.7070312l3.2929688-3.2929688 2.6464844 2.6464848.3535156-.353516c-.0024726-.924111-.218371-1.835162-.6308594-2.6621094l3.3378904-3.3378906.792969.2070312.707031-.7070312z" class="ColorScheme-ButtonFocus" fill="currentColor"/>
    </g>
    <g id="window-unpin" transform="translate(32 -6)">
        <path id="path1140-0" d="m14.5 2.7929688-.707031.7070312.5 1.5-4.705078 4.7050781c-.8903965-.4611937-1.8781133-.7029331-2.88086-.7050781h-.707031l-.353516.3535156 3.146485 3.1464844-5.792969 5.792969v.707031h.707031l5.792969-5.792969 3.146484 3.146485.353516-.353516v-.707031c-.0021-1.002747-.243884-1.990463-.705078-2.88086l4.705078-4.7050778 1.5.5.707031-.7070312z" class="ColorScheme-ButtonFocus" fill="currentColor" stroke-linecap="square" stroke-miterlimit="0"/>
        <path id="rect838-6" d="m0 0h22v22h-22z" fill="none"/>
    </g>
    <path id="8-8-window-pin" d="m5.292969-8-.292969.2929688.292969.7070312-2 2-1.5859378-1-.7070312.7070312 1.292969 1.2929688.5.5-2.792969 2.7929688v.7070312h.7070312l2.7929688-2.7929688.5.5 1.292969 1.2929688.707031-.7070312-1-1.5859376 2-2 .707031.2929688.292969-.2929688v-.4140624l-2.292969-2.2929688z" class="ColorScheme-Text" fill="currentColor" stroke-miterlimit="0"/>
    <path id="8-8-window-unpin" d="m24.292969-8-.292969.2929688.292969.7070312-2 2-1.585938-1-.707031.7070312 1.292969 1.2929688.5.5-2.792969 2.7929688v.7070312h.707031l2.792969-2.7929688.5.5 1.292969 1.2929688.707031-.7070312-1-1.5859376 2-2 .707031.2929688.292969-.2929688v-.4140624l-2.292969-2.2929688z" class="ColorScheme-ButtonFocus" fill="currentColor" stroke-miterlimit="0"/>
</svg>
