<?xml version="1.0" encoding="UTF-8" standalone="no"?>
<svg
   id="svg18"
   width="32"
   height="32"
   version="1"
   xmlns="http://www.w3.org/2000/svg"
   xmlns:svg="http://www.w3.org/2000/svg">
  <defs
     id="materia">
    <style
       id="current-color-scheme"
       type="text/css">.ColorScheme-Background {color:#181818; } .ColorScheme-ButtonBackground { color:#343434; } .ColorScheme-Highlight { color:#1a73e8; } .ColorScheme-Text { color:#dfdfdf; } .ColorScheme-ViewBackground { color:#242424; } .ColorScheme-NegativeText { color:#ff4747; }</style>
  </defs>
  <g
     id="22-22-yakuake"
     transform="translate(32,10)">
    <rect
       id="rect2"
       width="22"
       height="22"
       opacity=".001" />
    <path
       id="rect43-3"
       class="ColorScheme-Text"
       d="M 2.501151,5.5495627 V 5.583045 H 19.49911 V 5.5495627 Z M 19.49911,5.583045 V 17.415973 H 2.501151 V 5.583045 H 1.832897 V 18.08312 H 20.167293 V 5.583045 Z M 11.598348,8.4737052 9.0983335,10.97372 9.9828388,11.858226 12.482854,9.3582105 Z"
       fill-opacity="0.3"
       style="fill:currentColor" />
    <path
       id="rect63-6"
       class="ColorScheme-Text"
       d="M 1.416716,3.9168386 H 20.58326 c 0.230837,0 0.416666,0.1858368 0.416666,0.4166668 v 0.8333621 c 0,0.2308371 -0.185837,0.4166668 -0.416666,0.4166668 H 1.416716 c -0.2308371,0 -0.4166668,-0.1858368 -0.4166668,-0.4166668 V 4.3335054 c 0,-0.2308371 0.1858368,-0.4166668 0.4166668,-0.4166668 z m 6.0664649,4.5574559 -0.8842196,0.8842196 2.0596553,2.0578699 -2.0596553,2.057869 0.8842196,0.88422 2.9421601,-2.942161 z m 3.5174501,6.2766805 v 1.250008 h 4.582741 v -1.250008 z"
       style="fill:currentColor" />
  </g>
  <g
     id="yakuake">
    <rect
       id="rect11"
       width="32"
       height="32"
       opacity=".001" />
    <path
       id="rect43"
       class="ColorScheme-Text"
       d="m4.1016 8.3691v0.046875h23.797v-0.046875h-23.797zm23.797 0.046875v16.566h-23.797v-16.566h-0.93555v17.5h25.668v-17.5h-0.93555zm-11.061 4.0469-3.5 3.5 1.2383 1.2383 3.5-3.5-1.2383-1.2383z"
       fill-opacity=".3"
       style="fill:currentColor" />
    <path
       id="path1467"
       d="m17.458 13.083-3.5 3.5"
       color="#000000"
       fill="#2980b9"
       stroke-width="1.75"
       style="-inkscape-stroke:none" />
    <path
       id="rect63"
       class="ColorScheme-Text"
       d="m2.5833 6.0833h26.833c0.32317 0 0.58333 0.26017 0.58333 0.58333v1.1667c0 0.32317-0.26017 0.58333-0.58333 0.58333h-26.833c-0.32317 0-0.58333-0.26017-0.58333-0.58333v-1.1667c0-0.32317 0.26017-0.58333 0.58333-0.58333zm8.493 6.3804-1.2379 1.2379 2.8835 2.881-2.8835 2.881 1.2379 1.2379 4.119-4.119zm4.9244 8.7873v1.75h6.4158v-1.75z"
       style="fill:currentColor" />
  </g>
</svg>
