<?xml version="1.0" encoding="UTF-8" standalone="no"?>
<!-- Created with Inkscape (http://www.inkscape.org/) -->

<svg
   xmlns:osb="http://www.openswatchbook.org/uri/2009/osb"
   xmlns:dc="http://purl.org/dc/elements/1.1/"
   xmlns:cc="http://creativecommons.org/ns#"
   xmlns:rdf="http://www.w3.org/1999/02/22-rdf-syntax-ns#"
   xmlns:svg="http://www.w3.org/2000/svg"
   xmlns="http://www.w3.org/2000/svg"
   xmlns:xlink="http://www.w3.org/1999/xlink"
   xmlns:sodipodi="http://sodipodi.sourceforge.net/DTD/sodipodi-0.dtd"
   xmlns:inkscape="http://www.inkscape.org/namespaces/inkscape"
   width="128"
   height="128"
   id="svg2"
   sodipodi:version="0.32"
   inkscape:version="0.48.1 r9760"
   version="1.0"
   sodipodi:docname="actionbutton.svgz"
   inkscape:output_extension="org.inkscape.output.svgz.inkscape"
   inkscape:export-filename="arrow-up.png"
   inkscape:export-xdpi="11.25"
   inkscape:export-ydpi="11.25">
  <sodipodi:namedview
     id="base"
     pagecolor="#d9d9d9"
     bordercolor="#666666"
     borderopacity="1.0"
     gridtolerance="10000"
     guidetolerance="10"
     objecttolerance="10"
     inkscape:pageopacity="1"
     inkscape:pageshadow="2"
     inkscape:zoom="5.6568542"
     inkscape:cx="51.507332"
     inkscape:cy="73.664596"
     inkscape:document-units="px"
     inkscape:current-layer="layer1"
     width="128px"
     height="128px"
     showgrid="true"
     inkscape:window-width="1110"
     inkscape:window-height="711"
     inkscape:window-x="103"
     inkscape:window-y="118"
     inkscape:snap-nodes="true"
     inkscape:snap-global="true"
     inkscape:window-maximized="0">
    <inkscape:grid
       enabled="true"
       visible="true"
       empspacing="2"
       empopacity="0.4"
       opacity="0.2"
       empcolor="#0000ff"
       color="#0000ff"
       spacingy="1px"
       spacingx="1px"
       originy="0px"
       originx="0px"
       type="xygrid"
       id="GridFromPre046Settings"
       snapvisiblegridlinesonly="true" />
  </sodipodi:namedview>
  <defs
     id="defs4">
    <linearGradient
       id="linearGradient3798">
      <stop
         id="stop3800"
         offset="0"
         style="stop-color:#ffffff;stop-opacity:1;" />
      <stop
         id="stop3802"
         offset="1"
         style="stop-color:#000000;stop-opacity:1;" />
    </linearGradient>
    <linearGradient
       id="linearGradient3647">
      <stop
         id="stop3649"
         offset="0"
         style="stop-color:#000000;stop-opacity:0.15686275;" />
      <stop
         style="stop-color:#000000;stop-opacity:0.15686275;"
         offset="0.72972971"
         id="stop3653" />
      <stop
         id="stop3651"
         offset="1"
         style="stop-color:#000000;stop-opacity:1;" />
    </linearGradient>
    <linearGradient
       id="linearGradient4254">
      <stop
         style="stop-color:#29d7f5;stop-opacity:1;"
         offset="0"
         id="stop4256" />
      <stop
         id="stop4272"
         offset="0.75999999"
         style="stop-color:#29d7f5;stop-opacity:1;" />
      <stop
         id="stop4270"
         offset="0.85537487"
         style="stop-color:#38c2e9;stop-opacity:0.45614034;" />
      <stop
         style="stop-color:#31a7f2;stop-opacity:0.13157895;"
         offset="0.93000001"
         id="stop3222" />
      <stop
         style="stop-color:#2a8dfc;stop-opacity:0;"
         offset="1"
         id="stop4258" />
    </linearGradient>
    <linearGradient
       id="linearGradient3610">
      <stop
         style="stop-color:#000000;stop-opacity:1;"
         offset="0"
         id="stop3612" />
      <stop
         id="stop3618"
         offset="0.80000001"
         style="stop-color:#000000;stop-opacity:0.49803922;" />
      <stop
         style="stop-color:#000000;stop-opacity:0.33333334;"
         offset="0.83999997"
         id="stop3620" />
      <stop
         id="stop3622"
         offset="0.91000003"
         style="stop-color:#000000;stop-opacity:0.0877193;" />
      <stop
         style="stop-color:#000000;stop-opacity:0;"
         offset="1"
         id="stop3614" />
    </linearGradient>
    <linearGradient
       id="linearGradient3272">
      <stop
         style="stop-color:white;stop-opacity:1;"
         offset="0"
         id="stop3274" />
      <stop
         style="stop-color:white;stop-opacity:0;"
         offset="1"
         id="stop3276" />
    </linearGradient>
    <linearGradient
       inkscape:collect="always"
       xlink:href="#linearGradient3765"
       id="linearGradient3640"
       gradientUnits="userSpaceOnUse"
       x1="48"
       y1="96"
       x2="48"
       y2="116" />
    <radialGradient
       inkscape:collect="always"
       xlink:href="#linearGradient4254"
       id="radialGradient4268"
       cx="74"
       cy="34"
       fx="74"
       fy="34"
       r="14"
       gradientUnits="userSpaceOnUse"
       gradientTransform="matrix(1.0714286,0,0,1.0714286,-10.285692,-25.42856)" />
    <radialGradient
       inkscape:collect="always"
       xlink:href="#linearGradient4254"
       id="radialGradient4276"
       gradientUnits="userSpaceOnUse"
       gradientTransform="matrix(1.0714286,0,0,1.0714286,-12.285692,6.5714382)"
       cx="74"
       cy="34"
       fx="74"
       fy="34"
       r="14" />
    <radialGradient
       inkscape:collect="always"
       xlink:href="#linearGradient3647"
       id="radialGradient3645"
       cx="48"
       cy="107"
       fx="48"
       fy="107"
       r="12"
       gradientTransform="matrix(1,6.8531488e-8,-8.9090919e-8,0.90277782,9.5327284e-6,10.236103)"
       gradientUnits="userSpaceOnUse" />
    <linearGradient
       inkscape:collect="always"
       xlink:href="#linearGradient3272"
       id="linearGradient3642"
       gradientUnits="userSpaceOnUse"
       gradientTransform="matrix(0.6666667,0,0,0.8,23.999999,-6.8)"
       x1="48"
       y1="116"
       x2="48"
       y2="106" />
    <linearGradient
       inkscape:collect="always"
       xlink:href="#linearGradient3765"
       id="linearGradient3840"
       x1="58.999996"
       y1="106"
       x2="37"
       y2="106"
       gradientUnits="userSpaceOnUse" />
    <linearGradient
       inkscape:collect="always"
       xlink:href="#linearGradient3798"
       id="linearGradient3844"
       gradientUnits="userSpaceOnUse"
       gradientTransform="matrix(0,-0.6666667,0.8,0,-50.799999,88)"
       x1="48.999996"
       y1="121"
       x2="36"
       y2="121" />
    <linearGradient
       osb:paint="solid"
       id="linearGradient6476">
      <stop
         id="stop6478"
         offset="0"
         style="stop-color:#ffffff;stop-opacity:1;" />
    </linearGradient>
    <linearGradient
       id="linearGradient3765">
      <stop
         id="stop3767"
         offset="0"
         style="stop-color:#fafafa;stop-opacity:1;" />
      <stop
         id="stop3769"
         offset="1"
         style="stop-color:#e6e6e6;stop-opacity:0.47058824;" />
    </linearGradient>
    <radialGradient
       inkscape:collect="always"
       xlink:href="#linearGradient3610"
       id="radialGradient4614"
       gradientUnits="userSpaceOnUse"
       gradientTransform="matrix(-2.1480515e-7,1.203125,-1.25,-2.2317419e-7,156.5,-37.568458)"
       cx="48.316662"
       cy="105.99999"
       fx="48.316662"
       fy="105.99999"
       r="12" />
  </defs>
  <metadata
     id="metadata7">
    <rdf:RDF>
      <cc:Work
         rdf:about="">
        <dc:format>image/svg+xml</dc:format>
        <dc:type
           rdf:resource="http://purl.org/dc/dcmitype/StillImage" />
      </cc:Work>
    </rdf:RDF>
  </metadata>
  <g
     id="layer1"
     inkscape:groupmode="layer"
     inkscape:label="Layer 1">
    <path
       style="opacity:0.80000000000000004;fill:url(#radialGradient4268);fill-opacity:1;stroke:none"
       d="M 69 -4 C 60.715729 -4 54 2.7157285 54 11 C 54 19.284271 60.715729 26 69 26 C 77.284271 26 84 19.284271 84 11 C 84 2.7157285 77.284271 -4 69 -4 z M 69 -1 C 75.627418 -1 81 4.372583 81 11 C 81 17.627417 75.627418 23 69 23 C 62.372582 23 57 17.627417 57 11 C 57 4.372583 62.372582 -1 69 -1 z "
       id="focus" />
    <g
       id="pressed"
       transform="matrix(1.5000001,0,0,1.5,-51.000008,-74)">
      <path
         sodipodi:type="arc"
         style="fill:none;stroke:none"
         id="path3606"
         sodipodi:cx="48"
         sodipodi:cy="106"
         sodipodi:rx="12"
         sodipodi:ry="10"
         d="m 60,106 c 0,5.52285 -5.372583,10 -12,10 -6.627417,0 -12,-4.47715 -12,-10 0,-5.52285 5.372583,-10 12,-10 6.627417,0 12,4.47715 12,10 z"
         transform="matrix(0.8333333,0,0,1,32.000002,-4)" />
      <path
         transform="matrix(0.61111106,0,0,0.73333324,42.666669,24.266676)"
         d="m 60,106 c 0,5.52285 -5.372583,10 -12,10 -6.627417,0 -12,-4.47715 -12,-10 0,-5.52285 5.372583,-10 12,-10 6.627417,0 12,4.47715 12,10 z"
         sodipodi:ry="10"
         sodipodi:rx="12"
         sodipodi:cy="106"
         sodipodi:cx="48"
         id="path2826"
         style="fill:url(#linearGradient3640);fill-opacity:1.0;stroke:none"
         sodipodi:type="arc" />
      <path
         sodipodi:type="arc"
         style="opacity:0.6;fill:url(#radialGradient3645);fill-opacity:1;stroke:none"
         id="path3643"
         sodipodi:cx="48"
         sodipodi:cy="106"
         sodipodi:rx="12"
         sodipodi:ry="10"
         d="m 60,106 c 0,5.52285 -5.372583,10 -12,10 -6.627417,0 -12,-4.47715 -12,-10 0,-5.52285 5.372583,-10 12,-10 6.627417,0 12,4.47715 12,10 z"
         transform="matrix(0.61111106,0,0,0.73333324,42.666669,24.266676)" />
      <path
         style="fill:url(#linearGradient3642);fill-opacity:1;stroke:none;opacity:0.6"
         d="m 56,70 c -4.416,0 -8,3.584 -8,8 0,4.416 3.584,8 8,8 4.416,0 8.000001,-3.584 8,-8 0,-4.416 -3.583999,-8 -8,-8 z m 0,0.666667 c 3.864,0 7.333333,3.469333 7.333333,7.333333 0,3.864 -3.469333,7.333333 -7.333333,7.333333 C 52.135999,85.333333 48.666668,81.864 48.666668,78 48.666666,74.136 52.136,70.666667 56,70.666667 z"
         id="path3220"
         sodipodi:nodetypes="csssccsssc"
         transform="translate(16,24)" />
    </g>
    <g
       id="normal"
       transform="matrix(1.5000001,0,0,1.5,-84.000009,-102)">
      <path
         transform="matrix(0.8333333,0,0,1,32.000002,-4)"
         d="m 60,106 c 0,5.52285 -5.372583,10 -12,10 -6.627417,0 -12,-4.47715 -12,-10 0,-5.52285 5.372583,-10 12,-10 6.627417,0 12,4.47715 12,10 z"
         sodipodi:ry="10"
         sodipodi:rx="12"
         sodipodi:cy="106"
         sodipodi:cx="48"
         id="path3630"
         style="fill:none;fill-opacity:1;stroke:none"
         sodipodi:type="arc" />
      <path
         sodipodi:type="arc"
         style="fill:url(#linearGradient3840);fill-opacity:1.0;stroke:none"
         id="path3632"
         sodipodi:cx="48"
         sodipodi:cy="106"
         sodipodi:rx="12"
         sodipodi:ry="10"
         d="m 60,106 c 0,5.52285 -5.372583,10 -12,10 -6.627417,0 -12,-4.47715 -12,-10 0,-5.52285 5.372583,-10 12,-10 6.627417,0 12,4.47715 12,10 z"
         transform="matrix(0,-0.6666667,0.8,0,-12.799999,134)" />
      <path
         style="fill:url(#linearGradient3844);fill-opacity:1;stroke:none;opacity:0.3"
         d="m 34,48 c -4.416,0 -8.000001,3.583998 -8,8 0,4.416 3.584001,7.999999 8,8 4.416,0 8.000001,-3.584001 8,-8 0,-4.416 -3.583999,-7.999998 -8,-8 z m 0,0.666667 c 3.863998,2e-6 7.333334,3.469334 7.333334,7.333333 C 41.333335,59.863999 37.863999,63.333333 34,63.333333 30.136,63.333332 26.666668,59.863999 26.666668,56 26.666667,52.136001 30.136001,48.666667 34,48.666667 z"
         id="path3209"
         sodipodi:nodetypes="csssccsssc"
         transform="translate(38,46)" />
    </g>
    <path
       style="fill:url(#radialGradient4276);fill-opacity:1;stroke:none"
       d="M 67 28 C 58.715729 28 52 34.715729 52 43 C 52 51.284271 58.715729 58 67 58 C 75.284271 58 82 51.284271 82 43 C 82 34.715729 75.284271 28 67 28 z M 67 31 C 73.627418 31 79 36.372583 79 43 C 79 49.627417 73.627418 55 67 55 C 60.372582 55 55 49.627417 55 43 C 55 36.372583 60.372582 31 67 31 z "
       id="hover" />
    <path
       style="fill:url(#radialGradient4614);fill-opacity:1;stroke:none"
       d="M 24,5 C 15.715729,5 9,11.715729 9,20 9,28.284271 15.715729,35 24,35 32.284271,35 39,28.284271 39,20 39,11.715729 32.284271,5 24,5 z m 0,3 c 6.627418,0 12,5.372583 12,12 0,6.627417 -5.372582,12 -12,12 C 17.372582,32 12,26.627417 12,20 12,13.372583 17.372582,8 24,8 z"
       id="shadow"
       inkscape:connector-curvature="0" />
    <path
       transform="matrix(1.25,0,0,1.5,-80.000004,-154)"
       d="m 60,106 a 12,10 0 1 1 -24,0 12,10 0 1 1 24,0 z"
       sodipodi:ry="10"
       sodipodi:rx="12"
       sodipodi:cy="106"
       sodipodi:cx="48"
       id="path4575"
       style="fill:none;stroke:none"
       sodipodi:type="arc" />
  </g>
</svg>
