<?xml version="1.0" encoding="UTF-8" standalone="no"?>
<!-- Created with Inkscape (http://www.inkscape.org/) -->

<svg
   xmlns:dc="http://purl.org/dc/elements/1.1/"
   xmlns:cc="http://creativecommons.org/ns#"
   xmlns:rdf="http://www.w3.org/1999/02/22-rdf-syntax-ns#"
   xmlns:svg="http://www.w3.org/2000/svg"
   xmlns="http://www.w3.org/2000/svg"
   xmlns:xlink="http://www.w3.org/1999/xlink"
   xmlns:sodipodi="http://sodipodi.sourceforge.net/DTD/sodipodi-0.dtd"
   xmlns:inkscape="http://www.inkscape.org/namespaces/inkscape"
   width="65"
   height="156"
   id="svg2318"
   sodipodi:version="0.32"
   inkscape:version="0.48.1 r9760"
   sodipodi:docname="bar_meter_vertical.svgz"
   inkscape:output_extension="org.inkscape.output.svgz.inkscape"
   version="1.0">
  <defs
     id="defs2320">
    <linearGradient
       id="linearGradient3272">
      <stop
         id="stop3274"
         offset="0"
         style="stop-color:#ffffff;stop-opacity:0.86274511;" />
      <stop
         style="stop-color:#ffffff;stop-opacity:0.3137255;"
         offset="0.5"
         id="stop11375" />
      <stop
         id="stop3276"
         offset="1"
         style="stop-color:#ffffff;stop-opacity:0.07843138;" />
    </linearGradient>
    <linearGradient
       id="linearGradient4748">
      <stop
         id="stop4750"
         offset="0"
         style="stop-color:#000000;stop-opacity:0.39215687;" />
      <stop
         id="stop4752"
         offset="1"
         style="stop-color:#000000;stop-opacity:0.17647059;" />
    </linearGradient>
    <linearGradient
       inkscape:collect="always"
       id="linearGradient8734">
      <stop
         style="stop-color:#ffffff;stop-opacity:1;"
         offset="0"
         id="stop8736" />
      <stop
         style="stop-color:#ffffff;stop-opacity:0;"
         offset="1"
         id="stop8738" />
    </linearGradient>
    <radialGradient
       r="70"
       fy="231.10249"
       fx="355.5"
       cy="231.10249"
       cx="355.5"
       gradientTransform="matrix(1.7796094,-1.5772391e-7,2.5458663e-8,0.2845765,-429.13461,57.72604)"
       gradientUnits="userSpaceOnUse"
       id="radialGradient4694"
       xlink:href="#linearGradient8734"
       inkscape:collect="always" />
    <radialGradient
       r="70"
       fy="134.42079"
       fx="356.92679"
       cy="132.71753"
       cx="354.30826"
       gradientTransform="matrix(0.9448618,0,0,0.2065601,-133.37093,65.82164)"
       gradientUnits="userSpaceOnUse"
       id="radialGradient4696"
       xlink:href="#linearGradient8734"
       inkscape:collect="always" />
    <radialGradient
       r="70"
       fy="231.10249"
       fx="355.5"
       cy="231.10249"
       cx="355.5"
       gradientTransform="matrix(1.7796094,-6.0663042e-8,2.5458663e-8,0.1094525,-429.13461,94.202323)"
       gradientUnits="userSpaceOnUse"
       id="radialGradient4698"
       xlink:href="#linearGradient8734"
       inkscape:collect="always" />
    <radialGradient
       r="70"
       fy="134.42079"
       fx="356.92679"
       cy="132.71753"
       cx="354.30826"
       gradientTransform="matrix(0.9448618,0,0,0.07944619,-133.37093,97.316015)"
       gradientUnits="userSpaceOnUse"
       id="radialGradient4700"
       xlink:href="#linearGradient8734"
       inkscape:collect="always" />
    <radialGradient
       r="70"
       fy="231.10249"
       fx="355.5"
       cy="231.10249"
       cx="355.5"
       gradientTransform="matrix(1.7796094,-1.5772391e-7,2.5458663e-8,0.2845765,-429.13461,65.72604)"
       gradientUnits="userSpaceOnUse"
       id="radialGradient4702"
       xlink:href="#linearGradient8734"
       inkscape:collect="always" />
    <radialGradient
       r="70"
       fy="134.42079"
       fx="356.92679"
       cy="132.71753"
       cx="354.30826"
       gradientTransform="matrix(0.9448618,0,0,0.2065601,-133.37093,73.82164)"
       gradientUnits="userSpaceOnUse"
       id="radialGradient4704"
       xlink:href="#linearGradient8734"
       inkscape:collect="always" />
    <radialGradient
       r="70"
       fy="231.10249"
       fx="355.5"
       cy="231.10249"
       cx="355.5"
       gradientTransform="matrix(0.06792402,-1.5772391e-7,0,0.2845765,242.35364,57.72604)"
       gradientUnits="userSpaceOnUse"
       id="radialGradient4706"
       xlink:href="#linearGradient8734"
       inkscape:collect="always" />
    <radialGradient
       r="70"
       fy="134.42079"
       fx="356.92679"
       cy="132.71753"
       cx="354.30826"
       gradientTransform="matrix(0.03606343,0,0,0.2065601,253.64233,65.82164)"
       gradientUnits="userSpaceOnUse"
       id="radialGradient4708"
       xlink:href="#linearGradient8734"
       inkscape:collect="always" />
    <radialGradient
       r="70"
       fy="231.10249"
       fx="355.5"
       cy="231.10249"
       cx="355.5"
       gradientTransform="matrix(1.7796094,-1.5772391e-7,2.5458663e-8,0.2845765,-303.13461,57.72604)"
       gradientUnits="userSpaceOnUse"
       id="radialGradient4710"
       xlink:href="#linearGradient8734"
       inkscape:collect="always" />
    <radialGradient
       r="70"
       fy="134.42079"
       fx="356.92679"
       cy="132.71753"
       cx="354.30826"
       gradientTransform="matrix(0.9448618,0,0,0.2065601,-7.370926,65.82164)"
       gradientUnits="userSpaceOnUse"
       id="radialGradient4712"
       xlink:href="#linearGradient8734"
       inkscape:collect="always" />
    <radialGradient
       r="70"
       fy="231.10249"
       fx="355.5"
       cy="231.10249"
       cx="355.5"
       gradientTransform="matrix(0.06792404,-1.5772391e-7,0,0.2845765,242.35364,65.72604)"
       gradientUnits="userSpaceOnUse"
       id="radialGradient4714"
       xlink:href="#linearGradient8734"
       inkscape:collect="always" />
    <radialGradient
       r="70"
       fy="163.09052"
       fx="358.15222"
       cy="163.09052"
       cx="358.15222"
       gradientTransform="matrix(0.03487818,0,0,0.2065601,254.06683,73.82164)"
       gradientUnits="userSpaceOnUse"
       id="radialGradient4716"
       xlink:href="#linearGradient8734"
       inkscape:collect="always" />
    <radialGradient
       r="70"
       fy="231.10249"
       fx="355.5"
       cy="231.10249"
       cx="355.5"
       gradientTransform="matrix(1.7796094,-6.0663042e-8,2.5458663e-8,0.1094525,-303.13461,94.202323)"
       gradientUnits="userSpaceOnUse"
       id="radialGradient4718"
       xlink:href="#linearGradient8734"
       inkscape:collect="always" />
    <radialGradient
       r="70"
       fy="134.42079"
       fx="356.92679"
       cy="132.71753"
       cx="354.30826"
       gradientTransform="matrix(0.9448618,0,0,0.07944619,-7.370926,97.316015)"
       gradientUnits="userSpaceOnUse"
       id="radialGradient4720"
       xlink:href="#linearGradient8734"
       inkscape:collect="always" />
    <radialGradient
       r="70"
       fy="231.10249"
       fx="355.5"
       cy="231.10249"
       cx="355.5"
       gradientTransform="matrix(1.7796094,-1.5772391e-7,2.5458663e-8,0.2845765,-303.13461,65.72604)"
       gradientUnits="userSpaceOnUse"
       id="radialGradient4722"
       xlink:href="#linearGradient8734"
       inkscape:collect="always" />
    <radialGradient
       r="70"
       fy="134.42079"
       fx="356.92679"
       cy="132.71753"
       cx="354.30826"
       gradientTransform="matrix(0.9448618,0,0,0.2065601,-7.370926,73.82164)"
       gradientUnits="userSpaceOnUse"
       id="radialGradient4724"
       xlink:href="#linearGradient8734"
       inkscape:collect="always" />
    <linearGradient
       inkscape:collect="always"
       xlink:href="#linearGradient3272"
       id="linearGradient13177"
       gradientUnits="userSpaceOnUse"
       x1="262"
       y1="109"
       x2="262"
       y2="120" />
    <linearGradient
       inkscape:collect="always"
       xlink:href="#linearGradient4748"
       id="linearGradient13179"
       gradientUnits="userSpaceOnUse"
       x1="262"
       y1="109"
       x2="262"
       y2="115" />
    <radialGradient
       inkscape:collect="always"
       xlink:href="#linearGradient8734"
       id="radialGradient13181"
       gradientUnits="userSpaceOnUse"
       gradientTransform="matrix(0.9448618,0,0,0.2065601,-7.370926,73.82164)"
       cx="354.30826"
       cy="132.71753"
       fx="356.92679"
       fy="134.42079"
       r="70" />
    <linearGradient
       inkscape:collect="always"
       xlink:href="#linearGradient3272"
       id="linearGradient13183"
       gradientUnits="userSpaceOnUse"
       x1="265.11111"
       y1="109"
       x2="265.11111"
       y2="120" />
    <radialGradient
       inkscape:collect="always"
       xlink:href="#linearGradient8734"
       id="radialGradient13185"
       gradientUnits="userSpaceOnUse"
       gradientTransform="matrix(0.03487818,0,0,0.2065601,254.06683,73.82164)"
       cx="358.15222"
       cy="163.09052"
       fx="358.15222"
       fy="163.09052"
       r="70" />
    <linearGradient
       inkscape:collect="always"
       xlink:href="#linearGradient3272"
       id="linearGradient13187"
       gradientUnits="userSpaceOnUse"
       x1="263"
       y1="109"
       x2="263"
       y2="120" />
    <linearGradient
       inkscape:collect="always"
       xlink:href="#linearGradient4748"
       id="linearGradient13189"
       gradientUnits="userSpaceOnUse"
       x1="262"
       y1="114"
       x2="262"
       y2="120" />
    <radialGradient
       inkscape:collect="always"
       xlink:href="#linearGradient8734"
       id="radialGradient13191"
       gradientUnits="userSpaceOnUse"
       gradientTransform="matrix(0.9448618,0,0,0.2065601,-7.370926,65.82164)"
       cx="354.30826"
       cy="132.71753"
       fx="356.92679"
       fy="134.42079"
       r="70" />
    <linearGradient
       inkscape:collect="always"
       xlink:href="#linearGradient3272"
       id="linearGradient13193"
       gradientUnits="userSpaceOnUse"
       x1="265.11111"
       y1="109"
       x2="265.11111"
       y2="120" />
    <radialGradient
       inkscape:collect="always"
       xlink:href="#linearGradient8734"
       id="radialGradient13195"
       gradientUnits="userSpaceOnUse"
       gradientTransform="matrix(0.03606343,0,0,0.2065601,253.64233,65.82164)"
       cx="354.30826"
       cy="132.71753"
       fx="356.92679"
       fy="134.42079"
       r="70" />
    <linearGradient
       inkscape:collect="always"
       xlink:href="#linearGradient3272"
       id="linearGradient13197"
       gradientUnits="userSpaceOnUse"
       x1="262"
       y1="109"
       x2="262"
       y2="120" />
    <linearGradient
       inkscape:collect="always"
       xlink:href="#linearGradient4748"
       id="linearGradient13199"
       gradientUnits="userSpaceOnUse"
       x1="262"
       y1="109"
       x2="262"
       y2="115" />
    <radialGradient
       inkscape:collect="always"
       xlink:href="#linearGradient8734"
       id="radialGradient13201"
       gradientUnits="userSpaceOnUse"
       gradientTransform="matrix(0.9448618,0,0,0.2065601,-7.370926,73.82164)"
       cx="354.30826"
       cy="132.71753"
       fx="356.92679"
       fy="134.42079"
       r="70" />
    <linearGradient
       inkscape:collect="always"
       xlink:href="#linearGradient3272"
       id="linearGradient13203"
       gradientUnits="userSpaceOnUse"
       x1="263"
       y1="109"
       x2="263"
       y2="120" />
    <linearGradient
       inkscape:collect="always"
       xlink:href="#linearGradient4748"
       id="linearGradient13205"
       gradientUnits="userSpaceOnUse"
       x1="262"
       y1="114"
       x2="262"
       y2="120" />
    <radialGradient
       inkscape:collect="always"
       xlink:href="#linearGradient8734"
       id="radialGradient13207"
       gradientUnits="userSpaceOnUse"
       gradientTransform="matrix(0.9448618,0,0,0.2065601,-7.370926,65.82164)"
       cx="354.30826"
       cy="132.71753"
       fx="356.92679"
       fy="134.42079"
       r="70" />
    <linearGradient
       inkscape:collect="always"
       xlink:href="#linearGradient3272"
       id="linearGradient13211"
       gradientUnits="userSpaceOnUse"
       x1="22"
       y1="85"
       x2="22"
       y2="96" />
    <linearGradient
       inkscape:collect="always"
       xlink:href="#linearGradient4748"
       id="linearGradient13213"
       gradientUnits="userSpaceOnUse"
       x1="21"
       y1="85"
       x2="21"
       y2="91" />
    <linearGradient
       inkscape:collect="always"
       xlink:href="#linearGradient3272"
       id="linearGradient13215"
       gradientUnits="userSpaceOnUse"
       x1="22"
       y1="85"
       x2="22"
       y2="96" />
    <linearGradient
       inkscape:collect="always"
       xlink:href="#linearGradient4748"
       id="linearGradient13217"
       gradientUnits="userSpaceOnUse"
       x1="21"
       y1="85"
       x2="21"
       y2="91" />
    <linearGradient
       inkscape:collect="always"
       xlink:href="#linearGradient3272"
       id="linearGradient13228"
       gradientUnits="userSpaceOnUse"
       gradientTransform="translate(-136,-31)"
       x1="26"
       y1="85"
       x2="26"
       y2="96" />
    <radialGradient
       inkscape:collect="always"
       xlink:href="#linearGradient8734-8"
       id="radialGradient3916"
       gradientUnits="userSpaceOnUse"
       gradientTransform="matrix(0.06792404,-1.5772391e-7,0,0.2845765,242.35364,65.72604)"
       cx="355.5"
       cy="231.10249"
       fx="355.5"
       fy="231.10249"
       r="70" />
    <linearGradient
       id="linearGradient8734-8"
       inkscape:collect="always">
      <stop
         id="stop8736-9"
         offset="0"
         style="stop-color:#ffffff;stop-opacity:1;" />
      <stop
         id="stop8738-7"
         offset="1"
         style="stop-color:#ffffff;stop-opacity:0;" />
    </linearGradient>
  </defs>
  <sodipodi:namedview
     id="base"
     pagecolor="#000000"
     bordercolor="#666666"
     borderopacity="1.0"
     gridtolerance="10000"
     guidetolerance="10"
     objecttolerance="10"
     inkscape:pageopacity="0.50196078"
     inkscape:pageshadow="2"
     inkscape:zoom="4.2992425"
     inkscape:cx="100.05644"
     inkscape:cy="43.315102"
     inkscape:document-units="px"
     inkscape:current-layer="layer1"
     inkscape:window-width="1225"
     inkscape:window-height="971"
     inkscape:window-x="330"
     inkscape:window-y="22"
     width="65px"
     height="156px"
     showgrid="true"
     inkscape:window-maximized="0">
    <inkscape:grid
       type="xygrid"
       id="grid13140" />
  </sodipodi:namedview>
  <metadata
     id="metadata2323">
    <rdf:RDF>
      <cc:Work
         rdf:about="">
        <dc:format>image/svg+xml</dc:format>
        <dc:type
           rdf:resource="http://purl.org/dc/dcmitype/StillImage" />
      </cc:Work>
    </rdf:RDF>
  </metadata>
  <g
     inkscape:label="Layer 1"
     inkscape:groupmode="layer"
     id="layer1">
    <rect
       style="opacity:0.19101126;fill:#cecece;fill-opacity:1;stroke:none;stroke-width:2;stroke-linecap:round;stroke-linejoin:round;stroke-miterlimit:4;stroke-dasharray:none;stroke-dashoffset:1.08779998;stroke-opacity:1"
       id="background"
       width="132"
       height="16"
       x="12"
       y="-41"
       rx="1.4393399"
       ry="1.4393399"
       inkscape:export-filename="/home/pinheiro/Documents/pics/estilo/plasma/rect2996.png"
       inkscape:export-xdpi="90"
       inkscape:export-ydpi="90"
       transform="matrix(0,1,-1,0,0,0)" />
    <rect
       style="opacity:1;fill:#0000ff;fill-opacity:0.50196078;fill-rule:evenodd;stroke:none;stroke-width:3.19400001;stroke-linecap:round;stroke-linejoin:round;stroke-miterlimit:4;stroke-dasharray:none;stroke-opacity:0.50196078"
       id="label0"
       width="65"
       height="12"
       x="0"
       y="0" />
    <rect
       y="144"
       x="0"
       height="12"
       width="65"
       id="label1"
       style="opacity:1;fill:#0000ff;fill-opacity:0.50196078;fill-rule:evenodd;stroke:none;stroke-width:3.19400001;stroke-linecap:round;stroke-linejoin:round;stroke-miterlimit:4;stroke-dasharray:none;stroke-opacity:0.50196078" />
    <rect
       y="-19.605326"
       x="45.460312"
       height="12"
       width="65"
       id="label2"
       style="opacity:1;fill:#0000ff;fill-opacity:0.50196078;fill-rule:evenodd;stroke:none;stroke-width:3.19400001;stroke-linecap:round;stroke-linejoin:round;stroke-miterlimit:4;stroke-dasharray:none;stroke-opacity:0.50196078"
       transform="matrix(0,1,-1,0,0,0)" />
    <rect
       style="opacity:1;fill:#3f8400;fill-opacity:0.62745098;fill-rule:nonzero;stroke:none;stroke-width:1.10000002;stroke-linecap:round;stroke-linejoin:miter;stroke-miterlimit:4;stroke-dasharray:none;stroke-dashoffset:0;stroke-opacity:1"
       id="hint-stretch-borders"
       width="3.4471455"
       height="3.5355339"
       x="47.497639"
       y="54.045017" />
    <path
       style="fill:#f0f0f0;fill-opacity:0.39215686000000000;stroke:none;stroke-width:0.30000000999999998;stroke-linecap:round;stroke-linejoin:round;stroke-miterlimit:4;stroke-opacity:1;opacity:0"
       d="M 49.665248,67.33645 L 49.665248,68.33645 L 54.665248,68.33645 L 54.665248,67.33645 L 49.665248,67.33645 z"
       id="background-top" />
    <path
       style="fill:#f0f0f0;fill-opacity:0.39215686000000000;stroke:none;stroke-width:0.30000000999999998;stroke-linecap:round;stroke-linejoin:round;stroke-miterlimit:4;stroke-opacity:1;opacity:0"
       d="M 54.665248,67.33645 L 54.665248,68.33645 L 55.665248,68.33645 C 55.615658,67.799384 55.206908,67.36834 54.665248,67.33645 z"
       id="background-topright" />
    <path
       style="fill:#f0f0f0;fill-opacity:0.39215686000000000;stroke:none;stroke-width:0.30000000999999998;stroke-linecap:round;stroke-linejoin:round;stroke-miterlimit:4;stroke-opacity:1;opacity:0"
       d="M 49.665248,67.33645 C 49.126578,67.368162 48.718808,67.803576 48.665248,68.33645 L 49.665248,68.33645 L 49.665248,67.33645 z"
       id="background-topleft" />
    <path
       style="fill:#f0f0f0;fill-opacity:0.39215686000000000;stroke:none;stroke-width:0.30000000999999998;stroke-linecap:round;stroke-linejoin:round;stroke-miterlimit:4;stroke-opacity:1;opacity:0"
       d="M 49.665248,68.33645 L 49.665248,78.33645 L 54.665248,78.33645 L 54.665248,68.33645 L 49.665248,68.33645 z"
       id="background-center" />
    <path
       id="background-left"
       d="M 48.665248,68.33645 L 48.665248,78.33645 L 49.665248,78.33645 L 49.665248,68.33645 L 48.665248,68.33645 z"
       style="fill:#f0f0f0;fill-opacity:0.39215686000000000;stroke:none;stroke-width:0.30000000999999998;stroke-linecap:round;stroke-linejoin:round;stroke-miterlimit:4;stroke-opacity:1;opacity:0" />
    <path
       style="fill:#f0f0f0;fill-opacity:0.39215686000000000;stroke:none;stroke-width:0.30000000999999998;stroke-linecap:round;stroke-linejoin:round;stroke-miterlimit:4;stroke-opacity:1;opacity:0"
       d="M 54.665248,68.33645 L 54.665248,78.33645 L 55.665248,78.33645 L 55.665248,68.33645 L 54.665248,68.33645 z"
       id="background-right" />
    <path
       id="background-bottom"
       d="M 49.665248,79.33645 L 49.665248,78.33645 L 54.665248,78.33645 L 54.665248,79.33645 L 49.665248,79.33645 z"
       style="fill:#f0f0f0;fill-opacity:0.39215686000000000;stroke:none;stroke-width:0.30000000999999998;stroke-linecap:round;stroke-linejoin:round;stroke-miterlimit:4;stroke-opacity:1;opacity:0" />
    <path
       id="background-bottomright"
       d="M 54.665248,79.33645 L 54.665248,78.33645 L 55.665248,78.33645 C 55.615658,78.873516 55.206908,79.30456 54.665248,79.33645 z"
       style="fill:#f0f0f0;fill-opacity:0.39215686000000000;stroke:none;stroke-width:0.30000000999999998;stroke-linecap:round;stroke-linejoin:round;stroke-miterlimit:4;stroke-opacity:1;opacity:0" />
    <path
       id="background-bottomleft"
       d="M 49.665248,79.33645 C 49.126578,79.304738 48.718808,78.869324 48.665248,78.33645 L 49.665248,78.33645 L 49.665248,79.33645 z"
       style="fill:#f0f0f0;fill-opacity:0.39215686000000000;stroke:none;stroke-width:0.30000000999999998;stroke-linecap:round;stroke-linejoin:round;stroke-miterlimit:4;stroke-opacity:1;opacity:0" />
    <g
       id="bar-active-bottomleft"
       transform="matrix(0,-1,1,0,-56,376)">
      <path
         inkscape:connector-curvature="0"
         sodipodi:nodetypes="cccccc"
         id="path4820"
         d="M 262.73125,108 C 261.04909,108 260,109.04909 260,110.73125 l 0,1.26875 4,0 0,-4 -1.26875,0 z"
         style="fill:url(#linearGradient13177);fill-opacity:1;fill-rule:nonzero;stroke:none" />
      <path
         sodipodi:nodetypes="ssccssccs"
         inkscape:connector-curvature="0"
         id="path4822"
         d="M 262.53125,108 C 261.09867,108 260,109.15089 260,110.53125 l 0,1.46875 1,0 0,-1.46875 C 261,109.61061 261.8125,109 262.53125,109 l 1.46875,0 0,-1 z"
         style="fill:url(#linearGradient13179);fill-opacity:1;fill-rule:nonzero;stroke:none" />
      <path
         inkscape:connector-curvature="0"
         id="path4824"
         d="m 262.5625,107 c -1.94864,0 -3.56251,1.58787 -3.5625,3.53125 l 0,1.46875 1,0 0,-1.46875 C 259.99999,109.12676 261.14782,108 262.5625,108 l 1.4375,0 0,-1 -1.4375,0 z"
         style="fill:url(#radialGradient13181);fill-opacity:1;fill-rule:nonzero;stroke:none" />
    </g>
    <g
       id="bar-active-left"
       transform="matrix(0,-1.8,1,0,-56,586.2)">
      <path
         inkscape:connector-curvature="0"
         id="path4828"
         d="m 264,108 0,4 5,0 0,-4 -5,0 z"
         style="fill:url(#linearGradient13183);fill-opacity:1;fill-rule:nonzero;stroke:none" />
      <path
         inkscape:connector-curvature="0"
         id="path4830"
         d="m 264,108 0,1 5,0 0,-1 -5,0 z"
         style="fill:#000000;fill-opacity:0.39215686;fill-rule:nonzero;stroke:none" />
      <path
         inkscape:connector-curvature="0"
         id="path4832"
         d="m 264,107 0,1 5,0 0,-1 -5,0 z"
         style="opacity:0;fill:url(#radialGradient13185);fill-opacity:1;fill-rule:nonzero;stroke:none" />
    </g>
    <g
       id="bar-active-bottomright"
       transform="matrix(0,-1,1,0,-54,376)">
      <path
         inkscape:connector-curvature="0"
         sodipodi:nodetypes="cccccc"
         id="path4836"
         d="m 260,117 0,1.26875 c 0,1.68216 1.0491,2.73125 2.73125,2.73125 l 1.26875,0 0,-4 -4,0 z"
         style="fill:url(#linearGradient13187);fill-opacity:1;fill-rule:nonzero;stroke:none" />
      <path
         sodipodi:nodetypes="cssccsscc"
         inkscape:connector-curvature="0"
         id="path4838"
         d="m 260,117 0,1.46875 c 0,1.44287 1.16117,2.53125 2.53125,2.53125 l 1.46875,0 0,-1 -1.46875,0 C 261.47525,120 261,119.49877 261,118.46875 L 261,117 z"
         style="fill:url(#linearGradient13189);fill-opacity:1;fill-rule:nonzero;stroke:none" />
      <path
         inkscape:connector-curvature="0"
         id="path4840"
         d="m 259,117 0,1.46875 c 0,1.94339 1.61387,3.53125 3.5625,3.53125 l 1.4375,0 0,-1 -1.4375,0 C 261.14783,121 260,119.87326 260,118.46875 L 260,117 l -1,0 z"
         style="opacity:0;fill:url(#radialGradient13191);fill-opacity:1;fill-rule:nonzero;stroke:none" />
    </g>
    <g
       id="bar-active-right"
       transform="matrix(0,-1.8,1,0,-54,586.2)">
      <path
         inkscape:connector-curvature="0"
         id="path4844"
         d="m 264,117 0,4 5,0 0,-4 -5,0 z"
         style="fill:url(#linearGradient13193);fill-opacity:1;fill-rule:nonzero;stroke:none" />
      <path
         inkscape:connector-curvature="0"
         id="path4846"
         d="m 264,120 0,1 5,0 0,-1 -5,0 z"
         style="fill:#000000;fill-opacity:0.17647059;fill-rule:nonzero;stroke:none" />
      <path
         inkscape:connector-curvature="0"
         id="path4848"
         d="m 264,121 0,1 5,0 0,-1 -5,0 z"
         style="opacity:0;fill:url(#radialGradient13195);fill-opacity:1;fill-rule:nonzero;stroke:none" />
    </g>
    <g
       transform="matrix(0,1,1,0,-56,-163)"
       id="bar-active-topleft">
      <path
         style="fill:url(#linearGradient13197);fill-opacity:1;fill-rule:nonzero;stroke:none"
         d="M 262.73125,108 C 261.04909,108 260,109.04909 260,110.73125 l 0,1.26875 4,0 0,-4 -1.26875,0 z"
         id="path4852"
         sodipodi:nodetypes="cccccc"
         inkscape:connector-curvature="0" />
      <path
         style="fill:url(#linearGradient13199);fill-opacity:1;fill-rule:nonzero;stroke:none"
         d="M 262.53125,108 C 261.09867,108 260,109.15089 260,110.53125 l 0,1.46875 1,0 0,-1.46875 C 261,109.61061 261.8125,109 262.53125,109 l 1.46875,0 0,-1 z"
         id="path4854"
         inkscape:connector-curvature="0"
         sodipodi:nodetypes="ssccssccs" />
      <path
         style="fill:url(#radialGradient13201);fill-opacity:1;fill-rule:nonzero;stroke:none"
         d="m 262.5625,107 c -1.94864,0 -3.56251,1.58787 -3.5625,3.53125 l 0,1.46875 1,0 0,-1.46875 C 259.99999,109.12676 261.14782,108 262.5625,108 l 1.4375,0 0,-1 -1.4375,0 z"
         id="path4856"
         inkscape:connector-curvature="0" />
    </g>
    <g
       transform="matrix(0,1,1,0,-54,-163)"
       id="bar-active-topright">
      <path
         style="fill:url(#linearGradient13203);fill-opacity:1;fill-rule:nonzero;stroke:none"
         d="m 260,117 0,1.26875 c 0,1.68216 1.0491,2.73125 2.73125,2.73125 l 1.26875,0 0,-4 -4,0 z"
         id="path4860"
         sodipodi:nodetypes="cccccc"
         inkscape:connector-curvature="0" />
      <path
         style="fill:url(#linearGradient13205);fill-opacity:1;fill-rule:nonzero;stroke:none"
         d="m 260,117 0,1.46875 c 0,1.44287 1.16117,2.53125 2.53125,2.53125 l 1.46875,0 0,-1 -1.46875,0 C 261.47525,120 261,119.49877 261,118.46875 L 261,117 z"
         id="path4862"
         inkscape:connector-curvature="0"
         sodipodi:nodetypes="cssccsscc" />
      <path
         style="opacity:0;fill:url(#radialGradient13207);fill-opacity:1;fill-rule:nonzero;stroke:none"
         d="m 259,117 0,1.46875 c 0,1.94339 1.61387,3.53125 3.5625,3.53125 l 1.4375,0 0,-1 -1.4375,0 C 261.14783,121 260,119.87326 260,118.46875 L 260,117 l -1,0 z"
         id="path4864"
         inkscape:connector-curvature="0" />
    </g>
    <rect
       style="fill:url(#linearGradient13228);fill-opacity:1;fill-rule:nonzero;stroke:none"
       id="bar-active-center"
       width="9"
       height="5"
       x="-111"
       y="57"
       transform="matrix(0,-1,1,0,0,0)" />
    <g
       transform="matrix(0,-1,1,0,-31,136)"
       id="bar-active-bottom">
      <rect
         y="88"
         x="20"
         height="4.99998"
         width="4.000001"
         id="rect4900"
         style="fill:url(#linearGradient13211);fill-opacity:1;fill-rule:nonzero;stroke:none" />
      <rect
         style="fill:url(#linearGradient13213);fill-opacity:1;fill-rule:nonzero;stroke:none"
         id="rect4902"
         width="1"
         height="5"
         x="20"
         y="88" />
      <rect
         y="88"
         x="19"
         height="5"
         width="1"
         id="rect4904"
         style="opacity:0;fill:#000000;fill-opacity:1;fill-rule:nonzero;stroke:none" />
    </g>
    <g
       id="bar-active-top"
       transform="matrix(0,1,1,0,-31,76.999999)">
      <rect
         style="fill:url(#linearGradient13215);fill-opacity:1;fill-rule:nonzero;stroke:none"
         id="rect4937"
         width="4.0000019"
         height="4.9999914"
         x="20"
         y="88" />
      <rect
         y="88"
         x="20"
         height="5"
         width="1"
         id="rect4939"
         style="fill:url(#linearGradient13217);fill-opacity:1;fill-rule:nonzero;stroke:none" />
      <rect
         style="opacity:0;fill:#000000;fill-opacity:1;fill-rule:nonzero;stroke:none"
         id="rect4941"
         width="1"
         height="5"
         x="19"
         y="88" />
    </g>
    <g
       transform="translate(-186,-7)"
       id="bar-inactive-center">
      <path
         style="fill:#000000;fill-opacity:0.07843137;fill-rule:nonzero;stroke:none"
         d="m 264,112 0,5 5,0 0,-5 -5,0 z"
         id="rect8669-3"
         inkscape:connector-curvature="0" />
    </g>
    <g
       transform="translate(-187,-8)"
       id="bar-inactive-topleft">
      <path
         style="fill:#000000;fill-opacity:0.07843137;fill-rule:nonzero;stroke:none"
         d="m 263,108 c -1.68216,0 -3,1.31784 -3,3 l 0,1 4,0 0,-4 z"
         id="path4447-6"
         sodipodi:nodetypes="cccccc"
         inkscape:connector-curvature="0" />
      <path
         style="fill:#ffffff;fill-opacity:0.19607843;fill-rule:nonzero;stroke:none"
         d="M 263.00414,107 C 260.92932,107 259,108.75191 259,110.99813 l 0,1.00187 1,0 0,-1.00187 C 260,109.30342 261.32448,108 263.00414,108 l 0.99586,0 0,-1 z"
         id="path4451-1"
         inkscape:connector-curvature="0"
         sodipodi:nodetypes="ssccssccs" />
      <path
         style="fill:#000000;fill-opacity:0.23529412;fill-rule:nonzero;stroke:none"
         d="M 4.0215891,1 C 2.1753913,1 1,2.3394291 1,4.0215891 L 1,5 2,5 2,4 C 2,2.73838 2.73838,2 4,2 L 5,2 5,1 z"
         transform="translate(259,107)"
         id="path3881"
         inkscape:connector-curvature="0"
         sodipodi:nodetypes="ssccssccs" />
      <path
         style="fill:#000000;fill-opacity:0.09019608;fill-rule:nonzero;stroke:none"
         d="M 4,2 C 3.770534,2 3.5685529,2.014942 3.375,2.0625 3.321873,2.072654 3.2703766,2.081171 3.21875,2.09375 3.198182,2.10043 3.176341,2.117755 3.15625,2.125 3.14666,2.12756 3.134533,2.12236 3.125,2.125 2.4012289,2.3975685 2,3.0648342 2,4 L 2,5 C 2,3.73838 2.73838,3 4,3 L 5,3 5,2 4,2 z"
         transform="translate(259,107)"
         id="path3900"
         inkscape:connector-curvature="0" />
    </g>
    <g
       transform="translate(-187,-7)"
       id="bar-inactive-left">
      <path
         style="fill:#ffffff;fill-opacity:0.19607843;fill-rule:nonzero;stroke:none"
         d="m 259,112 0,5 1,0 0,-5 -1,0 z"
         id="path4493-2"
         inkscape:connector-curvature="0" />
      <path
         style="fill:#000000;fill-opacity:0.07843137;fill-rule:nonzero;stroke:none"
         d="m 260,112 0,5 4,0 0,-5 -4,0 z"
         id="path4489-9"
         inkscape:connector-curvature="0" />
      <path
         id="path3884"
         d="m 260,112 0,5 1,0 0,-5 -1,0 z"
         style="fill:#000000;fill-opacity:0.23529412;fill-rule:nonzero;stroke:none"
         inkscape:connector-curvature="0" />
    </g>
    <g
       transform="translate(-186,-8)"
       id="bar-inactive-top">
      <path
         style="fill:#000000;fill-opacity:0.07843137;fill-rule:nonzero;stroke:none"
         d="m 264,108 0,4 5,0 0,-4 -5,0 z"
         id="path4543-3"
         inkscape:connector-curvature="0" />
      <path
         style="fill:url(#radialGradient3916);fill-opacity:1;fill-rule:nonzero;stroke:none"
         d="m 264,107 0,1 5,0 0,-1 -5,0 z"
         id="path4545-1"
         inkscape:connector-curvature="0" />
      <path
         style="fill:#ffffff;fill-opacity:0.19607843;fill-rule:nonzero;stroke:none"
         d="m 264,107 0,1 5,0 0,-1 z"
         id="path4547-9"
         inkscape:connector-curvature="0"
         sodipodi:nodetypes="ccccc" />
      <path
         id="path3877"
         d="m 264,108 0,1 5,0 0,-1 -5,0 z"
         style="fill:#000000;fill-opacity:0.23529412;fill-rule:nonzero;stroke:none"
         inkscape:connector-curvature="0" />
      <path
         inkscape:connector-curvature="0"
         style="fill:#000000;fill-opacity:0.09019608;fill-rule:nonzero;stroke:none"
         d="m 264,109 0,1 5,0 0,-1 -5,0 z"
         id="path3908" />
    </g>
    <g
       transform="translate(-187,-6)"
       id="bar-inactive-bottomleft">
      <path
         style="fill:#ffffff;fill-opacity:0.19607843;fill-rule:nonzero;stroke:none"
         d="m 259,117 0,1 c 0,2.11953 1.8499,4 4,4 l 1,0 0,-1 -1,0 c -1.73084,0 -3,-1.35522 -3,-3 l 0,-1 z"
         id="path4470-4"
         inkscape:connector-curvature="0"
         sodipodi:nodetypes="cssccsscc" />
      <path
         style="fill:#000000;fill-opacity:0.07843137;fill-rule:nonzero;stroke:none"
         d="m 260,117 0,1 c 0,1.68216 1.31785,3 3,3 l 1,0 0,-4 z"
         id="path4468-7"
         sodipodi:nodetypes="cccccc"
         inkscape:connector-curvature="0" />
      <path
         style="fill:#000000;fill-opacity:0.21568627;fill-rule:nonzero;stroke:none"
         d="m 1,12 0,1.028884 C 1,14.711044 2.3015842,16 3.9837342,16 L 5,16 5,15 4.3274842,15 C 3.0658742,15 2,13.946754 2,12.685134 L 2,12 z"
         transform="translate(259,105)"
         id="path3892"
         inkscape:connector-curvature="0"
         sodipodi:nodetypes="cssccsscc" />
    </g>
    <g
       transform="translate(-186,-6)"
       id="bar-inactive-bottom">
      <path
         style="fill:#ffffff;fill-opacity:0.19607843;fill-rule:nonzero;stroke:none"
         d="m 264,121 0,1 5,0 0,-1 -5,0 z"
         id="path4520-8"
         inkscape:connector-curvature="0" />
      <path
         style="fill:#000000;fill-opacity:0.07843137;fill-rule:nonzero;stroke:none"
         d="m 264,117 0,4 5,0 0,-4 -5,0 z"
         id="path4516-4"
         inkscape:connector-curvature="0" />
      <path
         id="path3888"
         d="m 264,120 0,1 5,0 0,-1 z"
         style="fill:#000000;fill-opacity:0.21568627;fill-rule:nonzero;stroke:none"
         inkscape:connector-curvature="0"
         sodipodi:nodetypes="ccccc" />
    </g>
    <g
       transform="translate(-185,-8)"
       id="bar-inactive-topright">
      <path
         style="fill:#000000;fill-opacity:0.07843137;fill-rule:nonzero;stroke:none"
         d="m 269,108 0,4 4,0 0,-0.95329 C 273,109.36455 271.6733,108 269.99115,108 z"
         id="path4426-5"
         sodipodi:nodetypes="cccccc"
         inkscape:connector-curvature="0" />
      <path
         style="fill:#ffffff;fill-opacity:0.19607843;fill-rule:nonzero;stroke:none"
         d="m 269,107 0,1 1.01449,0 c 1.78064,0 2.98551,1.55504 2.98551,2.95953 l 0,1.04047 1,0 0,-1.04047 C 274,109.01614 272.35431,107 270.01449,107 z"
         id="path4430-0"
         inkscape:connector-curvature="0"
         sodipodi:nodetypes="ccssccssc" />
      <path
         style="fill:#000000;fill-opacity:0.23529412;fill-rule:nonzero;stroke:none"
         d="m 12,1 0,1 1,0 c 1.26161,0 2,0.73838 2,2 l 0,1 1,0 0,-0.9784109 C 16,2.3394291 14.673179,1 12.991029,1 z"
         transform="translate(257,107)"
         id="path3874"
         inkscape:connector-curvature="0"
         sodipodi:nodetypes="ccssccssc" />
      <path
         style="fill:#000000;fill-opacity:0.09019608;fill-rule:nonzero;stroke:none"
         d="m 12,2 0,1 1,0 c 1.26161,0 2,0.73838 2,2 L 15,4 C 15,3.0989864 14.612342,2.476399 13.9375,2.1875 13.903151,2.1760268 13.878667,2.1352659 13.84375,2.125 13.767542,2.0975198 13.676745,2.0817109 13.59375,2.0625 13.541326,2.0518936 13.490941,2.0391386 13.4375,2.03125 13.29657,2.0085958 13.157701,2 13,2 l -1,0 z"
         transform="translate(257,107)"
         id="path3910"
         inkscape:connector-curvature="0" />
    </g>
    <g
       transform="translate(-185,-7)"
       id="bar-inactive-right">
      <path
         style="fill:#ffffff;fill-opacity:0.19607843;fill-rule:nonzero;stroke:none"
         d="m 273,112 0,5 1,0 0,-5 -1,0 z"
         id="path4574-3"
         inkscape:connector-curvature="0" />
      <path
         style="fill:#000000;fill-opacity:0.07843137;fill-rule:nonzero;stroke:none"
         d="m 269,112 0,5 4,0 0,-5 -4,0 z"
         id="path4570-6"
         inkscape:connector-curvature="0" />
      <path
         id="path3886"
         d="m 272,112 0,5 1,0 0,-5 z"
         style="fill:#000000;fill-opacity:0.23529412;fill-rule:nonzero;stroke:none"
         inkscape:connector-curvature="0"
         sodipodi:nodetypes="ccccc" />
    </g>
    <g
       transform="translate(-185,-6)"
       id="bar-inactive-bottomright">
      <path
         style="fill:#ffffff;fill-opacity:0.19607843;fill-rule:nonzero;stroke:none"
         d="m 273,117 0,1 c 0,1.5651 -1.19272,3 -3,3 l -1,0 0,1 1,0 c 2.21632,0 4,-1.75325 4,-4 l 0,-1 z"
         id="path4404-1"
         inkscape:connector-curvature="0"
         sodipodi:nodetypes="cssccsscc" />
      <path
         style="fill:#000000;fill-opacity:0.07843137;fill-rule:nonzero;stroke:none"
         d="m 269,117 0,4 1,0 c 1.50538,0 3,-1.16875 3,-3 l 0,-1 z"
         id="path4400-0"
         sodipodi:nodetypes="cccccc"
         inkscape:connector-curvature="0" />
      <path
         style="fill:#000000;fill-opacity:0.21568627;fill-rule:nonzero;stroke:none"
         d="m 15,12 0,1 c 0,1.37344 -0.87096,2 -2,2 l -1,0 0,1 1,0 c 1.50538,0 3,-1.173019 3,-3.004269 L 16,12 z"
         transform="translate(257,105)"
         id="path3897"
         inkscape:connector-curvature="0"
         sodipodi:nodetypes="cssccsscc" />
    </g>
  </g>
</svg>
