<?xml version="1.0" encoding="UTF-8" standalone="no"?>
<!-- Created with Inkscape (http://www.inkscape.org/) -->

<svg
   xmlns:dc="http://purl.org/dc/elements/1.1/"
   xmlns:cc="http://creativecommons.org/ns#"
   xmlns:rdf="http://www.w3.org/1999/02/22-rdf-syntax-ns#"
   xmlns:svg="http://www.w3.org/2000/svg"
   xmlns="http://www.w3.org/2000/svg"
   xmlns:xlink="http://www.w3.org/1999/xlink"
   xmlns:sodipodi="http://sodipodi.sourceforge.net/DTD/sodipodi-0.dtd"
   xmlns:inkscape="http://www.inkscape.org/namespaces/inkscape"
   width="132"
   height="32"
   id="svg2318"
   sodipodi:version="0.32"
   inkscape:version="0.48.1 r9760"
   sodipodi:docname="bar_meter_horizontal.svgz"
   inkscape:output_extension="org.inkscape.output.svgz.inkscape"
   version="1.0">
  <sodipodi:namedview
     id="base"
     pagecolor="#a4a4a4"
     bordercolor="#666666"
     borderopacity="1.0"
     gridtolerance="10000"
     guidetolerance="10"
     objecttolerance="10"
     inkscape:pageopacity="1"
     inkscape:pageshadow="2"
     inkscape:zoom="3.9999998"
     inkscape:cx="60.684384"
     inkscape:cy="-35.431373"
     inkscape:document-units="px"
     inkscape:current-layer="layer1"
     inkscape:window-width="1225"
     inkscape:window-height="971"
     inkscape:window-x="0"
     inkscape:window-y="22"
     width="132px"
     height="32px"
     showgrid="true"
     inkscape:window-maximized="0">
    <inkscape:grid
       type="xygrid"
       id="grid4569"
       empspacing="5"
       visible="true"
       enabled="true"
       snapvisiblegridlinesonly="true" />
  </sodipodi:namedview>
  <defs
     id="defs2320">
    <linearGradient
       id="linearGradient4748">
      <stop
         style="stop-color:#000000;stop-opacity:0.39215687;"
         offset="0"
         id="stop4750" />
      <stop
         style="stop-color:#000000;stop-opacity:0.17647059;"
         offset="1"
         id="stop4752" />
    </linearGradient>
    <linearGradient
       id="linearGradient3289">
      <stop
         offset="0"
         style="stop-color:#ffffff;stop-opacity:1"
         id="stop3291" />
      <stop
         offset="1"
         style="stop-color:#ffffff;stop-opacity:1"
         id="stop3294" />
    </linearGradient>
    <linearGradient
       id="linearGradient2916">
      <stop
         offset="0"
         style="stop-color:#ffffff;stop-opacity:1"
         id="stop2918" />
      <stop
         offset="1"
         style="stop-color:#ffffff;stop-opacity:0"
         id="stop2920" />
    </linearGradient>
    <linearGradient
       id="linearGradient3140">
      <stop
         offset="0"
         style="stop-color:#ffffff;stop-opacity:1"
         id="stop3142" />
      <stop
         offset="1"
         style="stop-color:#ffffff;stop-opacity:0"
         id="stop3144" />
    </linearGradient>
    <linearGradient
       id="linearGradient2895">
      <stop
         offset="0"
         style="stop-color:#ffffff;stop-opacity:1"
         id="stop2897" />
      <stop
         offset="1"
         style="stop-color:#ffffff;stop-opacity:0"
         id="stop2899" />
    </linearGradient>
    <linearGradient
       gradientTransform="matrix(0.511504,0,0,1.80649,68.030435,-6.0981568)"
       gradientUnits="userSpaceOnUse"
       xlink:href="#linearGradient2916"
       id="linearGradient6228"
       y2="67.528122"
       x2="90.409752"
       y1="67.528122"
       x1="38.875084" />
    <linearGradient
       gradientTransform="matrix(0.511504,0,0,0.96108,67.773305,4.8320565)"
       gradientUnits="userSpaceOnUse"
       xlink:href="#linearGradient2916"
       id="linearGradient6233"
       y2="67.528122"
       x2="90.409752"
       y1="67.528122"
       x1="38.875084" />
    <linearGradient
       gradientTransform="matrix(5.467529,0,0,5.820575,24.290213,-2.0656323)"
       gradientUnits="userSpaceOnUse"
       xlink:href="#linearGradient2895"
       id="linearGradient6238"
       y2="5.9006019"
       x2="10.88339"
       y1="3.4375"
       x1="11.543377" />
    <linearGradient
       gradientTransform="matrix(0.511504,0,0,0.77135,67.773305,6.6291413)"
       gradientUnits="userSpaceOnUse"
       xlink:href="#linearGradient2916"
       id="linearGradient6243"
       y2="67.528122"
       x2="90.409752"
       y1="67.528122"
       x1="38.875084" />
    <radialGradient
       gradientTransform="matrix(0.990365,0,0,1.664158,16.251985,75.514833)"
       gradientUnits="userSpaceOnUse"
       xlink:href="#linearGradient3140"
       id="radialGradient9168"
       fy="-117.34602"
       fx="68.000046"
       r="27.999956"
       cy="-117.34602"
       cx="68.000046" />
    <linearGradient
       gradientTransform="matrix(1.017716,0,0,0.960169,5.524222,-18.774756)"
       gradientUnits="userSpaceOnUse"
       xlink:href="#linearGradient3289"
       id="linearGradient2867"
       y2="65.760353"
       x2="72.498932"
       y1="65.760353"
       x1="18.01074" />
    <linearGradient
       id="linearGradient8734"
       inkscape:collect="always">
      <stop
         id="stop8736"
         offset="0"
         style="stop-color:#ffffff;stop-opacity:1;" />
      <stop
         id="stop8738"
         offset="1"
         style="stop-color:#ffffff;stop-opacity:0;" />
    </linearGradient>
    <linearGradient
       id="linearGradient3272">
      <stop
         style="stop-color:#ffffff;stop-opacity:0.86274511;"
         offset="0"
         id="stop3274" />
      <stop
         id="stop11375"
         offset="0.5"
         style="stop-color:#ffffff;stop-opacity:0.3137255;" />
      <stop
         style="stop-color:#ffffff;stop-opacity:0.07843138;"
         offset="1"
         id="stop3276" />
    </linearGradient>
    <linearGradient
       y2="120"
       x2="262"
       y1="109"
       x1="262"
       gradientUnits="userSpaceOnUse"
       id="linearGradient4866"
       xlink:href="#linearGradient3272"
       inkscape:collect="always" />
    <linearGradient
       y2="115"
       x2="262"
       y1="109"
       x1="262"
       gradientUnits="userSpaceOnUse"
       id="linearGradient4868"
       xlink:href="#linearGradient4748"
       inkscape:collect="always" />
    <radialGradient
       r="70"
       fy="134.42079"
       fx="356.92679"
       cy="132.71753"
       cx="354.30826"
       gradientTransform="matrix(0.9448618,0,0,0.2065601,-7.370926,73.82164)"
       gradientUnits="userSpaceOnUse"
       id="radialGradient4870"
       xlink:href="#linearGradient8734"
       inkscape:collect="always" />
    <linearGradient
       y2="120"
       x2="265.11111"
       y1="109"
       x1="265.11111"
       gradientUnits="userSpaceOnUse"
       id="linearGradient4872"
       xlink:href="#linearGradient3272"
       inkscape:collect="always" />
    <radialGradient
       r="70"
       fy="163.09052"
       fx="358.15222"
       cy="163.09052"
       cx="358.15222"
       gradientTransform="matrix(0.03487818,0,0,0.2065601,254.06683,73.82164)"
       gradientUnits="userSpaceOnUse"
       id="radialGradient4874"
       xlink:href="#linearGradient8734"
       inkscape:collect="always" />
    <linearGradient
       y2="120"
       x2="263"
       y1="109"
       x1="263"
       gradientUnits="userSpaceOnUse"
       id="linearGradient4876"
       xlink:href="#linearGradient3272"
       inkscape:collect="always" />
    <linearGradient
       y2="120"
       x2="262"
       y1="114"
       x1="262"
       gradientUnits="userSpaceOnUse"
       id="linearGradient4878"
       xlink:href="#linearGradient4748"
       inkscape:collect="always" />
    <radialGradient
       r="70"
       fy="134.42079"
       fx="356.92679"
       cy="132.71753"
       cx="354.30826"
       gradientTransform="matrix(0.9448618,0,0,0.2065601,-7.370926,65.82164)"
       gradientUnits="userSpaceOnUse"
       id="radialGradient4880"
       xlink:href="#linearGradient8734"
       inkscape:collect="always" />
    <linearGradient
       y2="120"
       x2="265.11111"
       y1="109"
       x1="265.11111"
       gradientUnits="userSpaceOnUse"
       id="linearGradient4882"
       xlink:href="#linearGradient3272"
       inkscape:collect="always" />
    <radialGradient
       r="70"
       fy="134.42079"
       fx="356.92679"
       cy="132.71753"
       cx="354.30826"
       gradientTransform="matrix(0.03606343,0,0,0.2065601,253.64233,65.82164)"
       gradientUnits="userSpaceOnUse"
       id="radialGradient4884"
       xlink:href="#linearGradient8734"
       inkscape:collect="always" />
    <linearGradient
       y2="120"
       x2="262"
       y1="109"
       x1="262"
       gradientUnits="userSpaceOnUse"
       id="linearGradient4886"
       xlink:href="#linearGradient3272"
       inkscape:collect="always" />
    <linearGradient
       y2="115"
       x2="262"
       y1="109"
       x1="262"
       gradientUnits="userSpaceOnUse"
       id="linearGradient4888"
       xlink:href="#linearGradient4748"
       inkscape:collect="always" />
    <radialGradient
       r="70"
       fy="134.42079"
       fx="356.92679"
       cy="132.71753"
       cx="354.30826"
       gradientTransform="matrix(0.9448618,0,0,0.2065601,-7.370926,73.82164)"
       gradientUnits="userSpaceOnUse"
       id="radialGradient4890"
       xlink:href="#linearGradient8734"
       inkscape:collect="always" />
    <linearGradient
       y2="120"
       x2="263"
       y1="109"
       x1="263"
       gradientUnits="userSpaceOnUse"
       id="linearGradient4892"
       xlink:href="#linearGradient3272"
       inkscape:collect="always" />
    <linearGradient
       y2="120"
       x2="262"
       y1="114"
       x1="262"
       gradientUnits="userSpaceOnUse"
       id="linearGradient4894"
       xlink:href="#linearGradient4748"
       inkscape:collect="always" />
    <radialGradient
       r="70"
       fy="134.42079"
       fx="356.92679"
       cy="132.71753"
       cx="354.30826"
       gradientTransform="matrix(0.9448618,0,0,0.2065601,-7.370926,65.82164)"
       gradientUnits="userSpaceOnUse"
       id="radialGradient4896"
       xlink:href="#linearGradient8734"
       inkscape:collect="always" />
    <linearGradient
       gradientUnits="userSpaceOnUse"
       y2="91"
       x2="21"
       y1="85"
       x1="21"
       id="linearGradient4912"
       xlink:href="#linearGradient4748"
       inkscape:collect="always" />
    <linearGradient
       y2="91"
       x2="21"
       y1="85"
       x1="21"
       gradientUnits="userSpaceOnUse"
       id="linearGradient4945"
       xlink:href="#linearGradient4748"
       inkscape:collect="always" />
    <linearGradient
       y2="96"
       x2="22"
       y1="85"
       x1="22"
       gradientUnits="userSpaceOnUse"
       id="linearGradient11369"
       xlink:href="#linearGradient3272"
       inkscape:collect="always" />
    <linearGradient
       y2="96"
       x2="26"
       y1="85"
       x1="26"
       gradientUnits="userSpaceOnUse"
       id="linearGradient11371"
       xlink:href="#linearGradient3272"
       inkscape:collect="always" />
    <linearGradient
       y2="96"
       x2="22"
       y1="85"
       x1="22"
       gradientUnits="userSpaceOnUse"
       id="linearGradient11373"
       xlink:href="#linearGradient3272"
       inkscape:collect="always" />
    <linearGradient
       id="linearGradient8734-8"
       inkscape:collect="always">
      <stop
         id="stop8736-9"
         offset="0"
         style="stop-color:#ffffff;stop-opacity:1;" />
      <stop
         id="stop8738-7"
         offset="1"
         style="stop-color:#ffffff;stop-opacity:0;" />
    </linearGradient>
    <radialGradient
       inkscape:collect="always"
       xlink:href="#linearGradient8734-8"
       id="radialGradient3916"
       gradientUnits="userSpaceOnUse"
       gradientTransform="matrix(0.06792404,-1.5772391e-7,0,0.2845765,242.35364,65.72604)"
       cx="355.5"
       cy="231.10249"
       fx="355.5"
       fy="231.10249"
       r="70" />
  </defs>
  <metadata
     id="metadata2323">
    <rdf:RDF>
      <cc:Work
         rdf:about="">
        <dc:format>image/svg+xml</dc:format>
        <dc:type
           rdf:resource="http://purl.org/dc/dcmitype/StillImage" />
      </cc:Work>
    </rdf:RDF>
  </metadata>
  <g
     inkscape:label="Layer 1"
     inkscape:groupmode="layer"
     id="layer1">
    <rect
       style="opacity:0.19101126;fill:#cecece;fill-opacity:1;stroke:none;stroke-width:2;stroke-linecap:round;stroke-linejoin:round;stroke-miterlimit:4;stroke-dasharray:none;stroke-dashoffset:1.08779998;stroke-opacity:1"
       id="background"
       width="132"
       height="16"
       x="-4.7494506e-08"
       y="15"
       rx="1.4393399"
       ry="1.4393399"
       inkscape:export-filename="/home/pinheiro/Documents/pics/estilo/plasma/rect2996.png"
       inkscape:export-xdpi="90"
       inkscape:export-ydpi="90" />
    <rect
       style="opacity:1;fill:#0000ff;fill-opacity:0.50196078;fill-rule:evenodd;stroke:none;stroke-width:3.19400001;stroke-linecap:round;stroke-linejoin:round;stroke-miterlimit:4;stroke-dasharray:none;stroke-opacity:0.50196078"
       id="label0"
       width="65"
       height="12"
       x="0"
       y="1" />
    <rect
       y="1"
       x="67"
       height="12"
       width="65"
       id="label1"
       style="opacity:1;fill:#0000ff;fill-opacity:0.50196078;fill-rule:evenodd;stroke:none;stroke-width:3.19400001;stroke-linecap:round;stroke-linejoin:round;stroke-miterlimit:4;stroke-dasharray:none;stroke-opacity:0.50196078" />
    <rect
       y="1"
       x="35"
       height="12"
       width="65"
       id="label2"
       style="opacity:1;fill:#0000ff;fill-opacity:0.50196078;fill-rule:evenodd;stroke:none;stroke-width:3.19400001;stroke-linecap:round;stroke-linejoin:round;stroke-miterlimit:4;stroke-dasharray:none;stroke-opacity:0.50196078" />
    <path
       style="fill:#f0f0f0;fill-opacity:0.39215686999999999;stroke:none;stroke-width:0.30000000999999998;stroke-linecap:round;stroke-linejoin:round;stroke-miterlimit:4;stroke-opacity:1;opacity:0"
       d="M 47.57367,36.329243 L 47.57367,37.329243 L 52.57367,37.329243 L 52.57367,36.329243 L 47.57367,36.329243 z"
       id="background-top" />
    <path
       style="fill:#f0f0f0;fill-opacity:0.39215686999999999;stroke:none;stroke-width:0.30000000999999998;stroke-linecap:round;stroke-linejoin:round;stroke-miterlimit:4;stroke-opacity:1;opacity:0"
       d="M 52.57367,36.329243 L 52.57367,37.329243 L 53.57367,37.329243 C 53.524081,36.792177 53.115333,36.361133 52.57367,36.329243 z"
       id="background-topright" />
    <path
       style="fill:#f0f0f0;fill-opacity:0.39215686999999999;stroke:none;stroke-width:0.30000000999999998;stroke-linecap:round;stroke-linejoin:round;stroke-miterlimit:4;stroke-opacity:1;opacity:0"
       d="M 47.57367,36.329243 C 47.035002,36.360955 46.627228,36.796369 46.57367,37.329243 L 47.57367,37.329243 L 47.57367,36.329243 z"
       id="background-topleft" />
    <path
       style="fill:#f0f0f0;fill-opacity:0.39215686999999999;stroke:none;stroke-width:0.30000000999999998;stroke-linecap:round;stroke-linejoin:round;stroke-miterlimit:4;stroke-opacity:1;opacity:0"
       d="M 47.57367,37.329243 L 47.57367,47.329243 L 52.57367,47.329243 L 52.57367,37.329243 L 47.57367,37.329243 z"
       id="background-center" />
    <path
       id="background-left"
       d="M 46.57367,37.329243 L 46.57367,47.329243 L 47.57367,47.329243 L 47.57367,37.329243 L 46.57367,37.329243 z"
       style="fill:#f0f0f0;fill-opacity:0.39215686999999999;stroke:none;stroke-width:0.30000000999999998;stroke-linecap:round;stroke-linejoin:round;stroke-miterlimit:4;stroke-opacity:1;opacity:0" />
    <path
       style="fill:#f0f0f0;fill-opacity:0.39215686999999999;stroke:none;stroke-width:0.30000000999999998;stroke-linecap:round;stroke-linejoin:round;stroke-miterlimit:4;stroke-opacity:1;opacity:0"
       d="M 52.57367,37.329243 L 52.57367,47.329243 L 53.57367,47.329243 L 53.57367,37.329243 L 52.57367,37.329243 z"
       id="background-right" />
    <path
       id="background-bottom"
       d="M 47.57367,48.329243 L 47.57367,47.329243 L 52.57367,47.329243 L 52.57367,48.329243 L 47.57367,48.329243 z"
       style="fill:#f0f0f0;fill-opacity:0.39215686999999999;stroke:none;stroke-width:0.30000000999999998;stroke-linecap:round;stroke-linejoin:round;stroke-miterlimit:4;stroke-opacity:1;opacity:0" />
    <path
       id="background-bottomright"
       d="M 52.57367,48.329243 L 52.57367,47.329243 L 53.57367,47.329243 C 53.524081,47.866309 53.115333,48.297353 52.57367,48.329243 z"
       style="fill:#f0f0f0;fill-opacity:0.39215686999999999;stroke:none;stroke-width:0.30000000999999998;stroke-linecap:round;stroke-linejoin:round;stroke-miterlimit:4;stroke-opacity:1;opacity:0" />
    <path
       id="background-bottomleft"
       d="M 47.57367,48.329243 C 47.035002,48.297531 46.627228,47.862117 46.57367,47.329243 L 47.57367,47.329243 L 47.57367,48.329243 z"
       style="fill:#f0f0f0;fill-opacity:0.39215686999999999;stroke:none;stroke-width:0.30000000999999998;stroke-linecap:round;stroke-linejoin:round;stroke-miterlimit:4;stroke-opacity:1;opacity:0" />
    <rect
       style="opacity:1;fill:#3f8400;fill-opacity:0.62745098;fill-rule:nonzero;stroke:none;stroke-width:1.10000002;stroke-linecap:round;stroke-linejoin:miter;stroke-miterlimit:4;stroke-dasharray:none;stroke-dashoffset:0;stroke-opacity:1"
       id="hint-stretch-borders"
       width="3.4471455"
       height="3.5355339"
       x="37.653435"
       y="41.19239" />
    <g
       style="display:none"
       id="WhiteBackgroundLayer"
       transform="translate(334.69171,109.38481)">
      <rect
         style="opacity:0.69897964;fill:url(#linearGradient2867);fill-opacity:1;fill-rule:nonzero;stroke:none"
         id="Background"
         y="-7.9516411"
         x="3.8541794"
         ry="1.9589152"
         rx="2.1937749"
         height="104.63548"
         width="55.453815" />
    </g>
    <g
       transform="translate(302.87558,86.29596)"
       style="display:none"
       id="Overlay">
      <rect
         style="fill:none"
         id="spacerover"
         y="-0.054732177"
         x="1.0394411e-06"
         height="127.79347"
         width="128.05061" />
      <rect
         style="opacity:0.22540983;fill:url(#linearGradient6233);fill-opacity:1;fill-rule:nonzero;stroke:none"
         id="over5"
         y="16.672493"
         x="70.721039"
         ry="0"
         rx="0"
         height="102.8517"
         width="13.170826" />
      <rect
         style="opacity:0.22540983;fill:url(#linearGradient6243);fill-opacity:1;fill-rule:nonzero;stroke:none"
         id="over4"
         y="16.132019"
         x="70.721039"
         ry="0"
         rx="0"
         height="31.863861"
         width="13.170826" />
      <path
         style="opacity:0.48360656;fill:url(#linearGradient6238);fill-opacity:1;fill-rule:nonzero;stroke:none"
         id="over3"
         d="M 60.854303,17.942584 C 60.333693,17.942584 60,18.479714 60,19.03394 l 0,3.092181 c 10.885517,18.631489 33.205893,8.369177 48.52429,5.093002 l 0,-8.185183 c 0,-0.554226 -0.33368,-1.091356 -0.85429,-1.091356 l -46.815697,0 z" />
      <rect
         style="opacity:0.22540983;fill:url(#linearGradient6228);fill-opacity:1;fill-rule:nonzero;stroke:none"
         id="over2"
         y="16.157631"
         x="70.978165"
         ry="0"
         rx="0"
         height="71.838249"
         width="13.170826" />
      <rect
         style="opacity:0.41000001;fill:url(#radialGradient9168);fill-opacity:1;fill-rule:nonzero;stroke:none"
         id="over1"
         transform="scale(1,-1)"
         y="-119.74129"
         x="40.866707"
         ry="1.9391078"
         rx="2.0960798"
         height="61.206009"
         width="55.460392" />
    </g>
    <rect
       y="41.19239"
       x="57.028435"
       height="3.5355339"
       width="3.4471455"
       id="hint-bar-stretch"
       style="fill:#3f8400;fill-opacity:0.62745098;fill-rule:nonzero;stroke:none" />
    <rect
       y="36.329243"
       x="70"
       height="20"
       width="4"
       id="hint-bar-size"
       style="fill:#3f8400;fill-opacity:0.62745098;fill-rule:nonzero;stroke:none" />
    <g
       transform="translate(-240,-25)"
       id="bar-active-topleft">
      <path
         style="fill:url(#linearGradient4866);fill-opacity:1;fill-rule:nonzero;stroke:none"
         d="M 262.73125,108 C 261.04909,108 260,109.04909 260,110.73125 l 0,1.26875 4,0 0,-4 -1.26875,0 z"
         id="path4820"
         sodipodi:nodetypes="cccccc"
         inkscape:connector-curvature="0" />
      <path
         style="fill:url(#linearGradient4868);fill-opacity:1;fill-rule:nonzero;stroke:none"
         d="M 262.53125,108 C 261.09867,108 260,109.15089 260,110.53125 l 0,1.46875 1,0 0,-1.46875 C 261,109.61061 261.8125,109 262.53125,109 l 1.46875,0 0,-1 z"
         id="path4822"
         inkscape:connector-curvature="0"
         sodipodi:nodetypes="ssccssccs" />
      <path
         style="fill:url(#radialGradient4870);fill-opacity:1;fill-rule:nonzero;stroke:none"
         d="m 262.5625,107 c -1.94864,0 -3.56251,1.58787 -3.5625,3.53125 l 0,1.46875 1,0 0,-1.46875 C 259.99999,109.12676 261.14782,108 262.5625,108 l 1.4375,0 0,-1 -1.4375,0 z"
         id="path4824"
         inkscape:connector-curvature="0" />
    </g>
    <g
       transform="matrix(1.8,0,0,1,-450.2,-25)"
       id="bar-active-top">
      <path
         style="fill:url(#linearGradient4872);fill-opacity:1;fill-rule:nonzero;stroke:none"
         d="m 264,108 0,4 5,0 0,-4 -5,0 z"
         id="path4828"
         inkscape:connector-curvature="0" />
      <path
         style="opacity:1;fill:#000000;fill-opacity:0.39215686999999999;fill-rule:nonzero;stroke:none"
         d="m 264,108 0,1 5,0 0,-1 -5,0 z"
         id="path4830"
         inkscape:connector-curvature="0" />
      <path
         style="opacity:0;fill:url(#radialGradient4874);fill-opacity:1;fill-rule:nonzero;stroke:none"
         d="m 264,107 0,1 5,0 0,-1 -5,0 z"
         id="path4832"
         inkscape:connector-curvature="0" />
    </g>
    <g
       transform="translate(-240,-23)"
       id="bar-active-bottomleft">
      <path
         style="fill:url(#linearGradient4876);fill-opacity:1;fill-rule:nonzero;stroke:none"
         d="m 260,117 0,1.26875 c 0,1.68216 1.0491,2.73125 2.73125,2.73125 l 1.26875,0 0,-4 -4,0 z"
         id="path4836"
         sodipodi:nodetypes="cccccc"
         inkscape:connector-curvature="0" />
      <path
         style="fill:url(#linearGradient4878);fill-opacity:1;fill-rule:nonzero;stroke:none"
         d="m 260,117 0,1.46875 c 0,1.44287 1.16117,2.53125 2.53125,2.53125 l 1.46875,0 0,-1 -1.46875,0 C 261.47525,120 261,119.49877 261,118.46875 L 261,117 z"
         id="path4838"
         inkscape:connector-curvature="0"
         sodipodi:nodetypes="cssccsscc" />
      <path
         style="opacity:0;fill:url(#radialGradient4880);fill-opacity:1;fill-rule:nonzero;stroke:none"
         d="m 259,117 0,1.46875 c 0,1.94339 1.61387,3.53125 3.5625,3.53125 l 1.4375,0 0,-1 -1.4375,0 C 261.14783,121 260,119.87326 260,118.46875 L 260,117 l -1,0 z"
         id="path4840"
         inkscape:connector-curvature="0" />
    </g>
    <g
       transform="matrix(1.8,0,0,1,-450.2,-23)"
       id="bar-active-bottom">
      <path
         style="fill:url(#linearGradient4882);fill-opacity:1;fill-rule:nonzero;stroke:none"
         d="m 264,117 0,4 5,0 0,-4 -5,0 z"
         id="path4844"
         inkscape:connector-curvature="0" />
      <path
         style="opacity:1;fill:#000000;fill-opacity:0.17647059000000001;fill-rule:nonzero;stroke:none"
         d="m 264,120 0,1 5,0 0,-1 -5,0 z"
         id="path4846"
         inkscape:connector-curvature="0" />
      <path
         style="opacity:0;fill:url(#radialGradient4884);fill-opacity:1;fill-rule:nonzero;stroke:none"
         d="m 264,121 0,1 5,0 0,-1 -5,0 z"
         id="path4848"
         inkscape:connector-curvature="0" />
    </g>
    <g
       id="bar-active-topright"
       transform="matrix(-1,0,0,1,299,-25)">
      <path
         inkscape:connector-curvature="0"
         sodipodi:nodetypes="cccccc"
         id="path4852"
         d="M 262.73125,108 C 261.04909,108 260,109.04909 260,110.73125 l 0,1.26875 4,0 0,-4 -1.26875,0 z"
         style="fill:url(#linearGradient4886);fill-opacity:1.0;fill-rule:nonzero;stroke:none" />
      <path
         sodipodi:nodetypes="ssccssccs"
         inkscape:connector-curvature="0"
         id="path4854"
         d="M 262.53125,108 C 261.09867,108 260,109.15089 260,110.53125 l 0,1.46875 1,0 0,-1.46875 C 261,109.61061 261.8125,109 262.53125,109 l 1.46875,0 0,-1 z"
         style="fill:url(#linearGradient4888);fill-opacity:1;fill-rule:nonzero;stroke:none" />
      <path
         inkscape:connector-curvature="0"
         id="path4856"
         d="m 262.5625,107 c -1.94864,0 -3.56251,1.58787 -3.5625,3.53125 l 0,1.46875 1,0 0,-1.46875 C 259.99999,109.12676 261.14782,108 262.5625,108 l 1.4375,0 0,-1 -1.4375,0 z"
         style="fill:url(#radialGradient4890);fill-opacity:1;fill-rule:nonzero;stroke:none" />
    </g>
    <g
       id="bar-active-bottomright"
       transform="matrix(-1,0,0,1,299,-23)">
      <path
         inkscape:connector-curvature="0"
         sodipodi:nodetypes="cccccc"
         id="path4860"
         d="m 260,117 0,1.26875 c 0,1.68216 1.0491,2.73125 2.73125,2.73125 l 1.26875,0 0,-4 -4,0 z"
         style="fill:url(#linearGradient4892);fill-opacity:1.0;fill-rule:nonzero;stroke:none" />
      <path
         sodipodi:nodetypes="cssccsscc"
         inkscape:connector-curvature="0"
         id="path4862"
         d="m 260,117 0,1.46875 c 0,1.44287 1.16117,2.53125 2.53125,2.53125 l 1.46875,0 0,-1 -1.46875,0 C 261.47525,120 261,119.49877 261,118.46875 L 261,117 z"
         style="fill:url(#linearGradient4894);fill-opacity:1;fill-rule:nonzero;stroke:none" />
      <path
         inkscape:connector-curvature="0"
         id="path4864"
         d="m 259,117 0,1.46875 c 0,1.94339 1.61387,3.53125 3.5625,3.53125 l 1.4375,0 0,-1 -1.4375,0 C 261.14783,121 260,119.87326 260,118.46875 L 260,117 l -1,0 z"
         style="opacity:0;fill:url(#radialGradient4896);fill-opacity:1;fill-rule:nonzero;stroke:none" />
    </g>
    <rect
       y="88"
       x="25"
       height="5"
       width="9"
       id="bar-active-center"
       style="fill:url(#linearGradient11371);fill-opacity:1;fill-rule:nonzero;stroke:none" />
    <g
       id="bar-active-left">
      <rect
         style="fill:url(#linearGradient11373);fill-opacity:1;fill-rule:nonzero;stroke:none"
         id="rect4900"
         width="4.000001"
         height="4.99998"
         x="20"
         y="88" />
      <rect
         y="88"
         x="20"
         height="5"
         width="1"
         id="rect4902"
         style="fill:url(#linearGradient4912);fill-opacity:1;fill-rule:nonzero;stroke:none" />
      <rect
         style="fill:#000000;fill-opacity:1;fill-rule:nonzero;stroke:none;opacity:0"
         id="rect4904"
         width="1"
         height="5"
         x="19"
         y="88" />
    </g>
    <g
       transform="matrix(-1,0,0,1,59,0)"
       id="bar-active-right">
      <rect
         y="88"
         x="20"
         height="4.9999914"
         width="4.0000019"
         id="rect4937"
         style="fill:url(#linearGradient11369);fill-opacity:1.0;fill-rule:nonzero;stroke:none" />
      <rect
         style="fill:url(#linearGradient4945);fill-opacity:1;fill-rule:nonzero;stroke:none"
         id="rect4939"
         width="1"
         height="5"
         x="20"
         y="88" />
      <rect
         y="88"
         x="19"
         height="5"
         width="1"
         id="rect4941"
         style="opacity:0;fill:#000000;fill-opacity:1;fill-rule:nonzero;stroke:none" />
    </g>
    <g
       transform="translate(-209,-25)"
       id="bar-inactive-center">
      <path
         style="fill:#000000;fill-opacity:0.07843137;fill-rule:nonzero;stroke:none"
         d="m 264,112 0,5 5,0 0,-5 -5,0 z"
         id="rect8669-3"
         inkscape:connector-curvature="0" />
    </g>
    <g
       transform="translate(-210,-26)"
       id="bar-inactive-topleft">
      <path
         style="fill:#000000;fill-opacity:0.07843137;fill-rule:nonzero;stroke:none"
         d="m 263,108 c -1.68216,0 -3,1.31784 -3,3 l 0,1 4,0 0,-4 z"
         id="path4447-6"
         sodipodi:nodetypes="cccccc"
         inkscape:connector-curvature="0" />
      <path
         style="fill:#ffffff;fill-opacity:0.19607843;fill-rule:nonzero;stroke:none"
         d="M 263.00414,107 C 260.92932,107 259,108.75191 259,110.99813 l 0,1.00187 1,0 0,-1.00187 C 260,109.30342 261.32448,108 263.00414,108 l 0.99586,0 0,-1 z"
         id="path4451-1"
         inkscape:connector-curvature="0"
         sodipodi:nodetypes="ssccssccs" />
      <path
         style="fill:#000000;fill-opacity:0.23529412;fill-rule:nonzero;stroke:none"
         d="M 4.0215891,1 C 2.1753913,1 1,2.3394291 1,4.0215891 L 1,5 2,5 2,4 C 2,2.73838 2.73838,2 4,2 L 5,2 5,1 z"
         transform="translate(259,107)"
         id="path3881"
         inkscape:connector-curvature="0"
         sodipodi:nodetypes="ssccssccs" />
      <path
         style="fill:#000000;fill-opacity:0.09019608;fill-rule:nonzero;stroke:none"
         d="M 4,2 C 3.770534,2 3.5685529,2.014942 3.375,2.0625 3.321873,2.072654 3.2703766,2.081171 3.21875,2.09375 3.198182,2.10043 3.176341,2.117755 3.15625,2.125 3.14666,2.12756 3.134533,2.12236 3.125,2.125 2.4012289,2.3975685 2,3.0648342 2,4 L 2,5 C 2,3.73838 2.73838,3 4,3 L 5,3 5,2 4,2 z"
         transform="translate(259,107)"
         id="path3900"
         inkscape:connector-curvature="0" />
    </g>
    <g
       transform="translate(-210,-25)"
       id="bar-inactive-left">
      <path
         style="fill:#ffffff;fill-opacity:0.19607843;fill-rule:nonzero;stroke:none"
         d="m 259,112 0,5 1,0 0,-5 -1,0 z"
         id="path4493-2"
         inkscape:connector-curvature="0" />
      <path
         style="fill:#000000;fill-opacity:0.07843137;fill-rule:nonzero;stroke:none"
         d="m 260,112 0,5 4,0 0,-5 -4,0 z"
         id="path4489-9"
         inkscape:connector-curvature="0" />
      <path
         id="path3884"
         d="m 260,112 0,5 1,0 0,-5 -1,0 z"
         style="fill:#000000;fill-opacity:0.23529412;fill-rule:nonzero;stroke:none"
         inkscape:connector-curvature="0" />
    </g>
    <g
       transform="translate(-209,-26)"
       id="bar-inactive-top">
      <path
         style="fill:#000000;fill-opacity:0.07843137;fill-rule:nonzero;stroke:none"
         d="m 264,108 0,4 5,0 0,-4 -5,0 z"
         id="path4543-3"
         inkscape:connector-curvature="0" />
      <path
         style="fill:url(#radialGradient3916);fill-opacity:1;fill-rule:nonzero;stroke:none"
         d="m 264,107 0,1 5,0 0,-1 -5,0 z"
         id="path4545-1"
         inkscape:connector-curvature="0" />
      <path
         style="fill:#ffffff;fill-opacity:0.19607843;fill-rule:nonzero;stroke:none"
         d="m 264,107 0,1 5,0 0,-1 z"
         id="path4547-9"
         inkscape:connector-curvature="0"
         sodipodi:nodetypes="ccccc" />
      <path
         id="path3877"
         d="m 264,108 0,1 5,0 0,-1 -5,0 z"
         style="fill:#000000;fill-opacity:0.23529412;fill-rule:nonzero;stroke:none"
         inkscape:connector-curvature="0" />
      <path
         inkscape:connector-curvature="0"
         style="fill:#000000;fill-opacity:0.09019608;fill-rule:nonzero;stroke:none"
         d="m 264,109 0,1 5,0 0,-1 -5,0 z"
         id="path3908" />
    </g>
    <g
       transform="translate(-210,-24)"
       id="bar-inactive-bottomleft">
      <path
         style="fill:#ffffff;fill-opacity:0.19607843;fill-rule:nonzero;stroke:none"
         d="m 259,117 0,1 c 0,2.11953 1.8499,4 4,4 l 1,0 0,-1 -1,0 c -1.73084,0 -3,-1.35522 -3,-3 l 0,-1 z"
         id="path4470-4"
         inkscape:connector-curvature="0"
         sodipodi:nodetypes="cssccsscc" />
      <path
         style="fill:#000000;fill-opacity:0.07843137;fill-rule:nonzero;stroke:none"
         d="m 260,117 0,1 c 0,1.68216 1.31785,3 3,3 l 1,0 0,-4 z"
         id="path4468-7"
         sodipodi:nodetypes="cccccc"
         inkscape:connector-curvature="0" />
      <path
         style="fill:#000000;fill-opacity:0.21568627;fill-rule:nonzero;stroke:none"
         d="m 1,12 0,1.028884 C 1,14.711044 2.3015842,16 3.9837342,16 L 5,16 5,15 4.3274842,15 C 3.0658742,15 2,13.946754 2,12.685134 L 2,12 z"
         transform="translate(259,105)"
         id="path3892"
         inkscape:connector-curvature="0"
         sodipodi:nodetypes="cssccsscc" />
    </g>
    <g
       transform="translate(-209,-24)"
       id="bar-inactive-bottom">
      <path
         style="fill:#ffffff;fill-opacity:0.19607843;fill-rule:nonzero;stroke:none"
         d="m 264,121 0,1 5,0 0,-1 -5,0 z"
         id="path4520-8"
         inkscape:connector-curvature="0" />
      <path
         style="fill:#000000;fill-opacity:0.07843137;fill-rule:nonzero;stroke:none"
         d="m 264,117 0,4 5,0 0,-4 -5,0 z"
         id="path4516-4"
         inkscape:connector-curvature="0" />
      <path
         id="path3888"
         d="m 264,120 0,1 5,0 0,-1 z"
         style="fill:#000000;fill-opacity:0.21568627;fill-rule:nonzero;stroke:none"
         inkscape:connector-curvature="0"
         sodipodi:nodetypes="ccccc" />
    </g>
    <g
       transform="translate(-208,-26)"
       id="bar-inactive-topright">
      <path
         style="fill:#000000;fill-opacity:0.07843137;fill-rule:nonzero;stroke:none"
         d="m 269,108 0,4 4,0 0,-0.95329 C 273,109.36455 271.6733,108 269.99115,108 z"
         id="path4426-5"
         sodipodi:nodetypes="cccccc"
         inkscape:connector-curvature="0" />
      <path
         style="fill:#ffffff;fill-opacity:0.19607843;fill-rule:nonzero;stroke:none"
         d="m 269,107 0,1 1.01449,0 c 1.78064,0 2.98551,1.55504 2.98551,2.95953 l 0,1.04047 1,0 0,-1.04047 C 274,109.01614 272.35431,107 270.01449,107 z"
         id="path4430-0"
         inkscape:connector-curvature="0"
         sodipodi:nodetypes="ccssccssc" />
      <path
         style="fill:#000000;fill-opacity:0.23529412;fill-rule:nonzero;stroke:none"
         d="m 12,1 0,1 1,0 c 1.26161,0 2,0.73838 2,2 l 0,1 1,0 0,-0.9784109 C 16,2.3394291 14.673179,1 12.991029,1 z"
         transform="translate(257,107)"
         id="path3874"
         inkscape:connector-curvature="0"
         sodipodi:nodetypes="ccssccssc" />
      <path
         style="fill:#000000;fill-opacity:0.09019608;fill-rule:nonzero;stroke:none"
         d="m 12,2 0,1 1,0 c 1.26161,0 2,0.73838 2,2 L 15,4 C 15,3.0989864 14.612342,2.476399 13.9375,2.1875 13.903151,2.1760268 13.878667,2.1352659 13.84375,2.125 13.767542,2.0975198 13.676745,2.0817109 13.59375,2.0625 13.541326,2.0518936 13.490941,2.0391386 13.4375,2.03125 13.29657,2.0085958 13.157701,2 13,2 l -1,0 z"
         transform="translate(257,107)"
         id="path3910"
         inkscape:connector-curvature="0" />
    </g>
    <g
       transform="translate(-208,-25)"
       id="bar-inactive-right">
      <path
         style="fill:#ffffff;fill-opacity:0.19607843;fill-rule:nonzero;stroke:none"
         d="m 273,112 0,5 1,0 0,-5 -1,0 z"
         id="path4574-3"
         inkscape:connector-curvature="0" />
      <path
         style="fill:#000000;fill-opacity:0.07843137;fill-rule:nonzero;stroke:none"
         d="m 269,112 0,5 4,0 0,-5 -4,0 z"
         id="path4570-6"
         inkscape:connector-curvature="0" />
      <path
         id="path3886"
         d="m 272,112 0,5 1,0 0,-5 z"
         style="fill:#000000;fill-opacity:0.23529412;fill-rule:nonzero;stroke:none"
         inkscape:connector-curvature="0"
         sodipodi:nodetypes="ccccc" />
    </g>
    <g
       transform="translate(-208,-24)"
       id="bar-inactive-bottomright">
      <path
         style="fill:#ffffff;fill-opacity:0.19607843;fill-rule:nonzero;stroke:none"
         d="m 273,117 0,1 c 0,1.5651 -1.19272,3 -3,3 l -1,0 0,1 1,0 c 2.21632,0 4,-1.75325 4,-4 l 0,-1 z"
         id="path4404-1"
         inkscape:connector-curvature="0"
         sodipodi:nodetypes="cssccsscc" />
      <path
         style="fill:#000000;fill-opacity:0.07843137;fill-rule:nonzero;stroke:none"
         d="m 269,117 0,4 1,0 c 1.50538,0 3,-1.16875 3,-3 l 0,-1 z"
         id="path4400-0"
         sodipodi:nodetypes="cccccc"
         inkscape:connector-curvature="0" />
      <path
         style="fill:#000000;fill-opacity:0.21568627;fill-rule:nonzero;stroke:none"
         d="m 15,12 0,1 c 0,1.37344 -0.87096,2 -2,2 l -1,0 0,1 1,0 c 1.50538,0 3,-1.173019 3,-3.004269 L 16,12 z"
         transform="translate(257,105)"
         id="path3897"
         inkscape:connector-curvature="0"
         sodipodi:nodetypes="cssccsscc" />
    </g>
  </g>
</svg>
