<?xml version="1.0" encoding="UTF-8" standalone="no"?>
<!-- Created with Inkscape (http://www.inkscape.org/) -->

<svg
   xmlns:osb="http://www.openswatchbook.org/uri/2009/osb"
   xmlns:dc="http://purl.org/dc/elements/1.1/"
   xmlns:cc="http://creativecommons.org/ns#"
   xmlns:rdf="http://www.w3.org/1999/02/22-rdf-syntax-ns#"
   xmlns:svg="http://www.w3.org/2000/svg"
   xmlns="http://www.w3.org/2000/svg"
   xmlns:xlink="http://www.w3.org/1999/xlink"
   xmlns:sodipodi="http://sodipodi.sourceforge.net/DTD/sodipodi-0.dtd"
   xmlns:inkscape="http://www.inkscape.org/namespaces/inkscape"
   width="128"
   height="128"
   id="svg2"
   sodipodi:version="0.32"
   inkscape:version="0.48.1 r9760"
   version="1.0"
   sodipodi:docname="containment-controls.svgz"
   inkscape:output_extension="org.inkscape.output.svgz.inkscape"
   inkscape:export-filename="arrow-up.png"
   inkscape:export-xdpi="11.25"
   inkscape:export-ydpi="11.25">
  <sodipodi:namedview
     id="base"
     pagecolor="#9a9a9a"
     bordercolor="#666666"
     borderopacity="1.0"
     gridtolerance="10000"
     guidetolerance="10"
     objecttolerance="10"
     inkscape:pageopacity="1"
     inkscape:pageshadow="2"
     inkscape:zoom="2"
     inkscape:cx="91.292551"
     inkscape:cy="136.60715"
     inkscape:document-units="px"
     inkscape:current-layer="layer1"
     width="128px"
     height="128px"
     showgrid="true"
     inkscape:window-width="1110"
     inkscape:window-height="710"
     inkscape:window-x="202"
     inkscape:window-y="196"
     inkscape:snap-nodes="true"
     inkscape:snap-global="true"
     inkscape:window-maximized="0">
    <inkscape:grid
       enabled="true"
       visible="true"
       empspacing="2"
       empopacity="0.4"
       opacity="0.2"
       empcolor="#0000ff"
       color="#0000ff"
       spacingy="1px"
       spacingx="1px"
       originy="0px"
       originx="0px"
       type="xygrid"
       id="GridFromPre046Settings" />
  </sodipodi:namedview>
  <defs
     id="defs4">
    <linearGradient
       id="linearGradient3937">
      <stop
         style="stop-color:#888888;stop-opacity:1;"
         offset="0"
         id="stop3939" />
      <stop
         style="stop-color:#232323;stop-opacity:1;"
         offset="1"
         id="stop3941" />
    </linearGradient>
    <linearGradient
       id="linearGradient3488">
      <stop
         id="stop3490"
         offset="0"
         style="stop-color:#ffffff;stop-opacity:0.78431374;" />
      <stop
         id="stop3492"
         offset="1"
         style="stop-color:#ffffff;stop-opacity:0.19607843;" />
    </linearGradient>
    <linearGradient
       id="linearGradient4157">
      <stop
         style="stop-color:#ffffff;stop-opacity:1;"
         offset="0"
         id="stop4159" />
      <stop
         style="stop-color:#b4b4b4;stop-opacity:1;"
         offset="1"
         id="stop4161" />
    </linearGradient>
    <linearGradient
       osb:paint="solid"
       id="linearGradient6476">
      <stop
         id="stop6478"
         offset="0"
         style="stop-color:#ffffff;stop-opacity:1;" />
    </linearGradient>
    <linearGradient
       osb:paint="solid"
       id="linearGradient6476-1">
      <stop
         id="stop6478-5"
         offset="0"
         style="stop-color:#ffffff;stop-opacity:1;" />
    </linearGradient>
    <linearGradient
       id="linearGradient3852-7">
      <stop
         id="stop3854-7"
         offset="0"
         style="stop-color:#000000;stop-opacity:0.07843138;" />
      <stop
         id="stop3856-1"
         offset="1"
         style="stop-color:#000000;stop-opacity:0.3137255;" />
    </linearGradient>
    <linearGradient
       id="linearGradient3765-0">
      <stop
         id="stop3767-9"
         offset="0"
         style="stop-color:#fafafa;stop-opacity:1;" />
      <stop
         id="stop3769-1"
         offset="1"
         style="stop-color:#e2e2e2;stop-opacity:0.70588237;" />
    </linearGradient>
    <linearGradient
       inkscape:collect="always"
       xlink:href="#linearGradient3937"
       id="linearGradient5544"
       gradientUnits="userSpaceOnUse"
       gradientTransform="translate(0.027726,-0.03125)"
       x1="57"
       y1="113"
       x2="57"
       y2="103" />
    <linearGradient
       inkscape:collect="always"
       xlink:href="#linearGradient3488"
       id="linearGradient5549"
       gradientUnits="userSpaceOnUse"
       x1="53"
       y1="102"
       x2="53"
       y2="116" />
    <linearGradient
       inkscape:collect="always"
       xlink:href="#linearGradient3765-0"
       id="linearGradient5557"
       gradientUnits="userSpaceOnUse"
       gradientTransform="translate(50.018946,6.025974)"
       x1="5.7885823"
       y1="96"
       x2="5.7885823"
       y2="108.05248" />
    <linearGradient
       inkscape:collect="always"
       xlink:href="#linearGradient3852-7"
       id="linearGradient5574"
       x1="58"
       y1="102"
       x2="58"
       y2="116"
       gradientUnits="userSpaceOnUse" />
    <linearGradient
       inkscape:collect="always"
       xlink:href="#linearGradient3488"
       id="linearGradient5600"
       gradientUnits="userSpaceOnUse"
       x1="51"
       y1="123"
       x2="51"
       y2="137" />
    <linearGradient
       inkscape:collect="always"
       xlink:href="#linearGradient3937"
       id="linearGradient5603"
       gradientUnits="userSpaceOnUse"
       x1="57.0625"
       y1="129.03125"
       x2="57.0625"
       y2="119.03125"
       gradientTransform="translate(-0.0625,4.96875)" />
    <linearGradient
       inkscape:collect="always"
       xlink:href="#linearGradient3852-7"
       id="linearGradient5624"
       x1="55"
       y1="122"
       x2="55"
       y2="138"
       gradientUnits="userSpaceOnUse" />
    <linearGradient
       inkscape:collect="always"
       xlink:href="#linearGradient3765-0"
       id="linearGradient5641"
       gradientUnits="userSpaceOnUse"
       gradientTransform="matrix(-1,0,0,1,64.015422,26.994724)"
       x1="12.169124"
       y1="95.972382"
       x2="12.169124"
       y2="108" />
    <linearGradient
       inkscape:collect="always"
       xlink:href="#linearGradient3488"
       id="linearGradient5686"
       gradientUnits="userSpaceOnUse"
       x1="16"
       y1="102"
       x2="16"
       y2="116" />
    <linearGradient
       inkscape:collect="always"
       xlink:href="#linearGradient3937"
       id="linearGradient5689"
       gradientUnits="userSpaceOnUse"
       x1="16"
       y1="112"
       x2="16"
       y2="104" />
    <linearGradient
       inkscape:collect="always"
       xlink:href="#linearGradient4157"
       id="linearGradient5693"
       gradientUnits="userSpaceOnUse"
       gradientTransform="matrix(1.007874,0,0,1.0025224,50.204724,5.7578493)"
       x1="-32.05162"
       y1="95.999352"
       x2="-32.05162"
       y2="107.97552" />
    <linearGradient
       inkscape:collect="always"
       xlink:href="#linearGradient3852-7"
       id="linearGradient5704"
       x1="12"
       y1="101"
       x2="12"
       y2="117"
       gradientUnits="userSpaceOnUse" />
    <linearGradient
       inkscape:collect="always"
       xlink:href="#linearGradient3937"
       id="linearGradient5856"
       gradientUnits="userSpaceOnUse"
       x1="-22"
       y1="94"
       x2="-22"
       y2="80" />
    <linearGradient
       inkscape:collect="always"
       xlink:href="#linearGradient3488"
       id="linearGradient5861"
       gradientUnits="userSpaceOnUse"
       x1="-28"
       y1="93"
       x2="-15"
       y2="93" />
    <linearGradient
       inkscape:collect="always"
       xlink:href="#linearGradient3765-0"
       id="linearGradient5869"
       gradientUnits="userSpaceOnUse"
       gradientTransform="matrix(0,-1,-1,0,80,99.941024)"
       x1="9.375001"
       y1="108.0026"
       x2="9.375001"
       y2="95.999344" />
    <linearGradient
       inkscape:collect="always"
       xlink:href="#linearGradient3852-7"
       id="linearGradient5886"
       x1="-29"
       y1="93"
       x2="-14"
       y2="93"
       gradientUnits="userSpaceOnUse" />
    <linearGradient
       inkscape:collect="always"
       xlink:href="#linearGradient3937"
       id="linearGradient5927"
       gradientUnits="userSpaceOnUse"
       x1="-22"
       y1="58"
       x2="-22"
       y2="44" />
    <linearGradient
       inkscape:collect="always"
       xlink:href="#linearGradient3488"
       id="linearGradient5932"
       gradientUnits="userSpaceOnUse"
       x1="-28"
       y1="45"
       x2="-15"
       y2="45" />
    <linearGradient
       inkscape:collect="always"
       xlink:href="#linearGradient3765-0"
       id="linearGradient5940"
       gradientUnits="userSpaceOnUse"
       gradientTransform="matrix(0,1,-1,0,80,38)"
       x1="8.5"
       y1="108"
       x2="8.5"
       y2="95.976585" />
    <linearGradient
       inkscape:collect="always"
       xlink:href="#linearGradient3852-7"
       id="linearGradient5964"
       x1="-29"
       y1="45"
       x2="-14"
       y2="45"
       gradientUnits="userSpaceOnUse" />
    <linearGradient
       inkscape:collect="always"
       xlink:href="#linearGradient3488"
       id="linearGradient6007"
       gradientUnits="userSpaceOnUse"
       x1="-52"
       y1="46.000011"
       x2="-40"
       y2="46.000011" />
    <linearGradient
       inkscape:collect="always"
       xlink:href="#linearGradient3937"
       id="linearGradient6010"
       gradientUnits="userSpaceOnUse"
       x1="-45"
       y1="51"
       x2="-45"
       y2="41" />
    <linearGradient
       inkscape:collect="always"
       xlink:href="#linearGradient3765-0"
       id="linearGradient6014"
       gradientUnits="userSpaceOnUse"
       gradientTransform="matrix(0,1.007874,-1.002611,0,55.250652,80.204724)"
       x1="-33.9375"
       y1="107.96875"
       x2="-33.9375"
       y2="96" />
    <linearGradient
       inkscape:collect="always"
       xlink:href="#linearGradient3852-7"
       id="linearGradient6030"
       x1="-53"
       y1="46.000011"
       x2="-39"
       y2="46.000011"
       gradientUnits="userSpaceOnUse" />
    <linearGradient
       inkscape:collect="always"
       xlink:href="#linearGradient3488"
       id="linearGradient6070"
       gradientUnits="userSpaceOnUse"
       x1="64"
       y1="12"
       x2="64"
       y2="24" />
    <linearGradient
       inkscape:collect="always"
       xlink:href="#linearGradient3937"
       id="linearGradient6073"
       gradientUnits="userSpaceOnUse"
       x1="-43"
       y1="46"
       x2="-51"
       y2="46"
       gradientTransform="matrix(0,1,-1,0,110,64)" />
    <linearGradient
       inkscape:collect="always"
       xlink:href="#linearGradient3852-7"
       id="linearGradient6094"
       x1="64"
       y1="12"
       x2="64"
       y2="24"
       gradientUnits="userSpaceOnUse" />
    <linearGradient
       inkscape:collect="always"
       xlink:href="#linearGradient3937"
       id="linearGradient6118"
       gradientUnits="userSpaceOnUse"
       x1="101"
       y1="22"
       x2="101"
       y2="12" />
    <linearGradient
       inkscape:collect="always"
       xlink:href="#linearGradient3488"
       id="linearGradient6123"
       gradientUnits="userSpaceOnUse"
       x1="104"
       y1="11"
       x2="104"
       y2="24" />
    <linearGradient
       inkscape:collect="always"
       xlink:href="#linearGradient3765-0"
       id="linearGradient6134"
       gradientUnits="userSpaceOnUse"
       gradientTransform="matrix(1,0,0,-1,94.058976,119)"
       x1="9.375001"
       y1="108.0026"
       x2="9.375001"
       y2="95.999344" />
    <linearGradient
       inkscape:collect="always"
       xlink:href="#linearGradient3765-0"
       id="linearGradient6136"
       gradientUnits="userSpaceOnUse"
       gradientTransform="matrix(-1.007874,0,0,-1.002611,29.795276,119.25065)"
       x1="-33.9375"
       y1="107.96875"
       x2="-33.9375"
       y2="96" />
    <linearGradient
       inkscape:collect="always"
       xlink:href="#linearGradient3852-7"
       id="linearGradient6153"
       x1="101"
       y1="11"
       x2="101"
       y2="24"
       gradientUnits="userSpaceOnUse" />
    <linearGradient
       inkscape:collect="always"
       xlink:href="#linearGradient3937"
       id="linearGradient6182"
       gradientUnits="userSpaceOnUse"
       x1="102"
       y1="3"
       x2="102"
       y2="-7" />
    <linearGradient
       inkscape:collect="always"
       xlink:href="#linearGradient3488"
       id="linearGradient6187"
       gradientUnits="userSpaceOnUse"
       x1="96"
       y1="-8"
       x2="96"
       y2="5" />
    <linearGradient
       inkscape:collect="always"
       xlink:href="#linearGradient3765-0"
       id="linearGradient6198"
       gradientUnits="userSpaceOnUse"
       gradientTransform="matrix(-1,0,0,-1,109,100)"
       x1="8.5"
       y1="108"
       x2="8.5"
       y2="95.976585" />
    <linearGradient
       inkscape:collect="always"
       xlink:href="#linearGradient3852-7"
       id="linearGradient6215"
       x1="98"
       y1="-8"
       x2="98"
       y2="5"
       gradientUnits="userSpaceOnUse" />
    <linearGradient
       inkscape:collect="always"
       xlink:href="#linearGradient3937"
       id="linearGradient6241"
       gradientUnits="userSpaceOnUse"
       x1="56"
       y1="109"
       x2="70"
       y2="109" />
    <linearGradient
       inkscape:collect="always"
       xlink:href="#linearGradient3488"
       id="linearGradient6246"
       gradientUnits="userSpaceOnUse"
       x1="136"
       y1="80.000519"
       x2="150"
       y2="80.000519" />
    <linearGradient
       inkscape:collect="always"
       xlink:href="#linearGradient3765-0"
       id="linearGradient6254"
       gradientUnits="userSpaceOnUse"
       gradientTransform="matrix(0,-1,1,0,40.025973,86.922078)"
       x1="5.7885823"
       y1="96"
       x2="5.7885823"
       y2="108.05248" />
    <linearGradient
       inkscape:collect="always"
       xlink:href="#linearGradient3852-7"
       id="linearGradient6271"
       x1="135"
       y1="80.000954"
       x2="151"
       y2="80.000954"
       gradientUnits="userSpaceOnUse" />
    <linearGradient
       inkscape:collect="always"
       xlink:href="#linearGradient3488"
       id="linearGradient6301"
       gradientUnits="userSpaceOnUse"
       x1="136"
       y1="37"
       x2="150"
       y2="37" />
    <linearGradient
       inkscape:collect="always"
       xlink:href="#linearGradient3937"
       id="linearGradient6304"
       gradientUnits="userSpaceOnUse"
       x1="45"
       y1="125.02606"
       x2="59"
       y2="125.02606"
       gradientTransform="matrix(0,-1,1,0,17.97403,94)" />
    <linearGradient
       inkscape:collect="always"
       xlink:href="#linearGradient3765-0"
       id="linearGradient6308"
       gradientUnits="userSpaceOnUse"
       gradientTransform="matrix(0,1,1,0,40.000004,29.922078)"
       x1="12.169124"
       y1="95.972382"
       x2="12.169124"
       y2="108" />
    <linearGradient
       inkscape:collect="always"
       xlink:href="#linearGradient3852-7"
       id="linearGradient6325"
       x1="135"
       y1="37"
       x2="151"
       y2="37"
       gradientUnits="userSpaceOnUse" />
    <linearGradient
       inkscape:collect="always"
       xlink:href="#linearGradient3488"
       id="linearGradient6350"
       gradientUnits="userSpaceOnUse"
       x1="161"
       y1="37"
       x2="175"
       y2="37" />
    <linearGradient
       inkscape:collect="always"
       xlink:href="#linearGradient3937"
       id="linearGradient6353"
       gradientUnits="userSpaceOnUse"
       x1="11"
       y1="108"
       x2="21"
       y2="108"
       gradientTransform="matrix(0,-1,1,0,59,53)" />
    <linearGradient
       inkscape:collect="always"
       xlink:href="#linearGradient3765-0"
       id="linearGradient6357"
       gradientUnits="userSpaceOnUse"
       gradientTransform="matrix(0,-1.007874,1.0025224,0,64.757849,2.795276)"
       x1="-32.05162"
       y1="95.999352"
       x2="-32.05162"
       y2="107.97552" />
    <linearGradient
       inkscape:collect="always"
       xlink:href="#linearGradient3852-7"
       id="linearGradient6374"
       x1="160"
       y1="37"
       x2="176"
       y2="37"
       gradientUnits="userSpaceOnUse" />
  </defs>
  <metadata
     id="metadata7">
    <rdf:RDF>
      <cc:Work
         rdf:about="">
        <dc:format>image/svg+xml</dc:format>
        <dc:type
           rdf:resource="http://purl.org/dc/dcmitype/StillImage" />
      </cc:Work>
    </rdf:RDF>
  </metadata>
  <g
     id="layer1"
     inkscape:groupmode="layer"
     inkscape:label="Layer 1">
    <rect
       y="0"
       x="-10"
       height="5.4025974"
       width="5.2207794"
       id="hint-stretch-borders"
       style="opacity:0.65;fill:#023812;fill-opacity:1;fill-rule:nonzero;stroke:none;stroke-width:1;stroke-linecap:round;stroke-linejoin:round;stroke-miterlimit:4;stroke-dasharray:none;stroke-dashoffset:0;stroke-opacity:1" />
    <g
       id="south-minslider">
      <path
         id="path5559"
         d="m 44,101 c -0.833333,0 -1.561615,0.37412 -2.09375,0.90625 C 41.374115,102.43838 41,103.16667 41,104 l 0.03125,2.03125 c 0,2.61672 1.870563,5.22087 4.46875,7.3125 C 48.098187,115.43538 51.509533,117 55,117 l 15,0 c 0.833333,0 1.561615,-0.37412 2.09375,-0.90625 C 72.625885,115.56162 73,114.83333 73,114 l 0,-10 c 0,-0.83333 -0.374115,-1.56162 -0.90625,-2.09375 C 71.561615,101.37412 70.833333,101 70,101 l -26,0 z m 0,1 26,0 c 1,0 2,1 2,2 l 0,10 c 0,1 -1,2 -2,2 l -15,0 c -6.375,0 -12.96875,-5.78896 -12.96875,-9.96875 L 42,104 c 0,-1 1,-2 2,-2 z m -1,2.40625 c -0.02756,0.10559 -0.03125,0.20536 -0.03125,0.3125 L 43,106.4375 c 0,3.11574 4.679713,7.27783 9.8125,8.3125 -2.187218,-0.46279 -4.338558,-1.54967 -6.0625,-2.9375 -2.29859,-1.85044 -3.71875,-4.21818 -3.71875,-5.78125 L 43,104.40625 z"
         style="font-size:medium;font-style:normal;font-variant:normal;font-weight:normal;font-stretch:normal;text-indent:0;text-align:start;text-decoration:none;line-height:normal;letter-spacing:normal;word-spacing:normal;text-transform:none;direction:ltr;block-progression:tb;writing-mode:lr-tb;text-anchor:start;baseline-shift:baseline;color:#000000;fill:url(#linearGradient5574);fill-opacity:1;stroke:none;stroke-width:2;marker:none;visibility:visible;display:inline;overflow:visible;enable-background:accumulate;font-family:Sans;-inkscape-font-specification:Sans"
         inkscape:connector-curvature="0" />
      <path
         inkscape:connector-curvature="0"
         style="fill:url(#linearGradient5557);fill-opacity:1;fill-rule:nonzero;stroke:none"
         d="m 44,102 26,0 c 1,0 2,1 2,2 l 0,10 c 0,1 -1,2 -2,2 l -15,0 c -6.375,0 -12.981054,-5.79424 -12.981054,-9.97403 L 42,104 c 0,-1 1,-2 2,-2 z"
         id="rect2879"
         sodipodi:nodetypes="ccccccccc" />
      <g
         transform="translate(-0.058976,0)"
         id="g3819">
        <path
           inkscape:connector-curvature="0"
           style="fill:#ffffff;fill-opacity:1;fill-rule:nonzero;stroke:none"
           d="m 57.058982,104 c -0.554,0 -1.000006,0.446 -1.000006,1 l 0,8 c 0,0.554 0.446,1 1,1 0.554,0 1,-0.446 1,-1 l -0.0039,-2.71484 3.316406,3.43359 c 0.376317,0.38904 0.976696,0.36739 1.34375,-0.0313 0.367054,-0.39864 0.376317,-1.01721 0,-1.40625 l -2.21875,-2.28125 8.5625,0 c 0.554,0 1,-0.446 1,-1 0,-0.554 -0.446,-1 -1,-1 l -8.59375,0 2.234375,-2.27344 c 0.376317,-0.38904 0.398304,-1.00761 0.03125,-1.40625 -0.367054,-0.39864 -0.967433,-0.42029 -1.34375,-0.0313 l -3.328125,3.46094 -4e-6,-2.75 c 0,-0.554 -0.446,-1 -1,-1 l 4e-6,1e-4 z"
           id="path4155"
           sodipodi:nodetypes="cccscccscccscccsccccc" />
        <path
           inkscape:connector-curvature="0"
           sodipodi:nodetypes="cccscccscccscccsccccc"
           id="rect3668"
           d="m 57.058982,103 c -0.554,0 -1.000006,0.446 -1.000006,1 l 0,8 c 0,0.554 0.446,1 1,1 0.554,0 1,-0.446 1,-1 l -0.0039,-2.71484 3.316406,3.43359 c 0.376317,0.38904 0.976696,0.36739 1.34375,-0.0313 0.367054,-0.39864 0.376317,-1.01721 0,-1.40625 l -2.21875,-2.28125 8.5625,0 c 0.554,0 1,-0.446 1,-1 0,-0.554 -0.446,-1 -1,-1 l -8.59375,0 2.234375,-2.27344 c 0.376317,-0.38904 0.398304,-1.00761 0.03125,-1.40625 -0.367054,-0.39864 -0.967433,-0.42029 -1.34375,-0.0313 l -3.328125,3.46094 -4e-6,-2.75 c 0,-0.554 -0.446,-1 -1,-1 l 4e-6,1e-4 z"
           style="fill:url(#linearGradient5544);fill-opacity:1;fill-rule:nonzero;stroke:none" />
        <path
           sodipodi:nodetypes="sscscsscccccccccccscssccccccc"
           inkscape:connector-curvature="0"
           id="path4157"
           transform="translate(0.058976,0)"
           d="m 57,103 c -0.554,0 -1,0.446 -1,1 l 0,1 c 0,-0.554 0.446,-1 1,-1 0.554,0 1,0.446 1,1 l 0,-1 c 0,-0.554 -0.446,-1 -1,-1 z m 5,0 c -0.243016,-0.007 -0.468091,0.0868 -0.65625,0.28125 L 58,106.75 l 0,1 3.34375,-3.46875 c 0.376317,-0.38899 0.976696,-0.36739 1.34375,0.0313 0.0491,0.0533 0.05849,0.12738 0.09375,0.1875 0.209141,-0.37633 0.209879,-0.85774 -0.09375,-1.1875 C 62.503973,103.11318 62.243016,103.00662 62,103 z m -1.591204,4 -0.0025,1 L 69,108 c 0.366099,0 0.669517,0.20801 0.84375,0.5 C 69.933176,108.35013 70,108.1879 70,108 c 0,-0.554 -0.446,-1 -1,-1 z m 0.0287,3 2.21875,2.28125 c 0.05556,0.0574 0.08616,0.1215 0.125,0.1875 0.216384,-0.38546 0.193209,-0.85853 -0.125,-1.1875 l -2.219833,-2.28677 z"
           style="fill:#000000;fill-opacity:1;fill-rule:nonzero;stroke:none" />
      </g>
      <path
         inkscape:connector-curvature="0"
         id="path3572"
         d="m 44,102 c -1,0 -2,1 -2,2 l 0.03125,2.03125 C 42.03125,110.21104 48.625,116 55,116 l 15,0 c 1,0 2,-1 2,-2 l 0,-10 c 0,-1 -1,-2 -2,-2 l -26,0 z m 0.84375,1 24.28125,0 c 0.933944,0 1.875,0.86161 1.875,1.71875 l 0,8.5625 C 71,114.13839 70.058943,115 69.125,115 l -14,0 C 49.171107,115 43,110.02017 43,106.4375 l -0.03125,-1.71875 c 0,-0.85714 0.941056,-1.71875 1.875,-1.71875 z"
         style="fill:url(#linearGradient5549);fill-opacity:1;fill-rule:nonzero;stroke:none" />
    </g>
    <g
       id="south-offsetslider">
      <path
         inkscape:connector-curvature="0"
         style="fill:url(#linearGradient5693);fill-opacity:1;fill-rule:nonzero;stroke:none"
         d="m 6,102 c -1,0 -2.0000001,1 -2,2 l 3e-7,2.01009 C 4.0000019,109.93852 10.01744,116 16,116 c 6.008534,0 12,-5.96535 12,-9.98991 L 28,104 c 0,-1.03967 -1,-2 -2,-2 l -20,0 z"
         id="path3713"
         sodipodi:nodetypes="csszsscc" />
      <path
         inkscape:connector-curvature="0"
         sodipodi:nodetypes="ccczccscccscccsc"
         id="path3839"
         d="m 11.000079,108.33903 c -0.0031,0.24296 0.08674,0.50021 0.281281,0.6887 l 3.531633,3.38091 c 0.215072,0.22717 0.532747,0.58497 1.187628,0.58957 0.650289,0.005 1.037133,-0.39347 1.218882,-0.58957 l 3.500378,-3.38091 c 0.389083,-0.37698 0.367431,-0.9784 -0.03125,-1.34611 -0.398685,-0.36769 -1.017321,-0.37698 -1.406404,0 l -2.281497,2.22265 0,-3.90427 c 0,-0.55497 -0.446047,-1.00175 -1.000107,-1.00175 C 15.44656,104.99825 15,105.44503 15,106 l 0,3.90427 -2.280985,-2.22265 c -0.389075,-0.37698 -1.007716,-0.36769 -1.406402,0 -0.199342,0.18386 -0.309399,0.41445 -0.312534,0.65741 z"
         style="fill:#ffffff;fill-opacity:1;fill-rule:nonzero;stroke:none" />
      <path
         inkscape:connector-curvature="0"
         style="fill:url(#linearGradient5689);fill-opacity:1;fill-rule:nonzero;stroke:none"
         d="m 11.000079,107.34078 c -0.0031,0.24296 0.08674,0.50021 0.281281,0.6887 l 3.531633,3.38091 c 0.215072,0.22717 0.532747,0.58497 1.187628,0.58957 0.650289,0.005 1.037133,-0.39347 1.218882,-0.58957 l 3.500378,-3.38091 c 0.389083,-0.37698 0.367431,-0.9784 -0.03125,-1.34611 -0.398685,-0.36769 -1.017321,-0.37698 -1.406404,0 l -2.281497,2.22265 0,-3.90427 C 17.000728,104.44678 16.554681,104 16.000621,104 15.44656,104 15,104.44678 15,105.00175 l 0,3.90427 -2.280985,-2.22265 c -0.389075,-0.37698 -1.007716,-0.36769 -1.406402,0 -0.199342,0.18386 -0.309399,0.41445 -0.312534,0.65741 z"
         id="rect3717"
         sodipodi:nodetypes="ccczccscccscccsc" />
      <path
         inkscape:connector-curvature="0"
         id="path3559"
         d="m 6,102 c -1,0 -2.0000001,1 -2,2 l 0,2 c 1.4e-6,3.92843 6.01744,10 12,10 6.008534,0 12,-5.97544 12,-10 l 0,-2 c 0,-1.03967 -1,-2 -2,-2 l -20,0 z m 1,1 18,0 c 0.91288,0 2,0.95646 2,2 l 0,1 c 0,4.03952 -5.514938,9 -11,9 -5.461353,0 -11,-5.05696 -11,-9 l 0,-1 c 0,-1.00372 1.0871211,-2 2,-2 z"
         style="fill:url(#linearGradient5686);fill-opacity:1;fill-rule:nonzero;stroke:none" />
      <path
         inkscape:connector-curvature="0"
         id="path3945"
         d="m 16,104 c -0.554061,0 -1,0.44503 -1,1 l 0,1 c 0,-0.55497 0.445939,-1 1,-1 0.55406,0 0.999998,0.44503 1,1 l 0,-1 c 0,-0.55497 -0.44594,-1 -1,-1 z m -3.96875,2.40625 c -0.25313,0.001 -0.519407,0.0974 -0.71875,0.28125 -0.199342,0.18386 -0.309365,0.41329 -0.3125,0.65625 -0.0024,0.18507 0.0768,0.3663 0.1875,0.53125 0.04284,-0.0616 0.06613,-0.13321 0.125,-0.1875 0.398686,-0.36769 1.017175,-0.37698 1.40625,0 L 15,109.90625 l 0,-1 -2.28125,-2.21875 c -0.194537,-0.18849 -0.43437,-0.28241 -0.6875,-0.28125 z m 7.9375,0 c -0.25313,-0.001 -0.492959,0.0928 -0.6875,0.28125 L 17,108.90625 l 0,1 2.28125,-2.21875 c 0.389083,-0.37698 1.007565,-0.36769 1.40625,0 0.05887,0.0543 0.08268,0.12449 0.125,0.1875 0.256952,-0.37345 0.226189,-0.86359 -0.125,-1.1875 -0.199343,-0.18384 -0.46562,-0.28009 -0.71875,-0.28125 z"
         style="fill:#000000;fill-opacity:1;fill-rule:nonzero;stroke:none" />
      <path
         id="path5645"
         d="m 6,101 c -0.8333333,0 -1.5616151,0.37412 -2.09375,0.90625 C 3.3741151,102.43838 2.9999999,103.16667 3,104 l 0,2 c 1e-6,2.4748 1.6989675,5.08528 4.09375,7.21875 C 9.4885325,115.35222 12.670989,117 16,117 c 3.335205,0 6.51217,-1.62687 8.90625,-3.75 C 27.30033,111.12687 29,108.50852 29,106 l 0,-2 c 0,-1.6809 -1.35978,-3 -3,-3 l -20,0 z m 0,1 20,0 c 1,0 2,0.96033 2,2 l 0,2 c 0,4.02456 -5.991466,10 -12,10 -5.98256,0 -11.9999984,-6.07157 -12,-10 l 0,-2 c -10e-8,-1 1,-2 2,-2 z"
         style="font-size:medium;font-style:normal;font-variant:normal;font-weight:normal;font-stretch:normal;text-indent:0;text-align:start;text-decoration:none;line-height:normal;letter-spacing:normal;word-spacing:normal;text-transform:none;direction:ltr;block-progression:tb;writing-mode:lr-tb;text-anchor:start;baseline-shift:baseline;color:#000000;fill:url(#linearGradient5704);fill-opacity:1;fill-rule:nonzero;stroke:none;stroke-width:2;marker:none;visibility:visible;display:inline;overflow:visible;enable-background:accumulate;font-family:Sans;-inkscape-font-specification:Sans"
         inkscape:connector-curvature="0" />
    </g>
    <g
       id="g4025"
       style="fill:#ffffff;fill-opacity:1"
       transform="matrix(0,-1,1,0,34.441941,137)" />
    <g
       id="north-center"
       transform="translate(-152,-4)">
      <path
         id="path3269"
         d="M 264,112 L 264,117 L 269,117 L 269,112 L 264,112 z"
         style="opacity:0.59999999999999998;fill:#000000;fill-opacity:0.07843138;fill-rule:nonzero;stroke:none;stroke-width:1;stroke-linecap:round;stroke-linejoin:round;stroke-miterlimit:4;stroke-dashoffset:0;stroke-opacity:1" />
    </g>
    <g
       id="north-top"
       transform="translate(-152,-5)">
      <path
         id="path3273"
         d="M 264,108 L 264,112 L 269,112 L 269,108 L 264,108 z"
         style="opacity:0.59999999999999998;fill:#000000;fill-opacity:0.07843138;fill-rule:nonzero;stroke:none;stroke-width:1;stroke-linecap:round;stroke-linejoin:round;stroke-miterlimit:4;stroke-dashoffset:0;stroke-opacity:1" />
      <path
         id="path3275"
         d="m 264,108 0,1 5,0 0,-1 -5,0 z"
         style="fill:#000000;fill-opacity:0.21568628;fill-rule:nonzero;stroke:none"
         inkscape:connector-curvature="0" />
      <path
         id="path3277"
         d="M 264,107 L 264,108 L 269,108 L 269,107 L 264,107 z"
         style="fill:#ffffff;fill-opacity:0.19607843;fill-rule:nonzero;stroke:none;stroke-width:0.99947226000000000;stroke-linecap:round;stroke-linejoin:round;stroke-miterlimit:4;stroke-dasharray:none;stroke-dashoffset:0;stroke-opacity:1" />
      <path
         inkscape:connector-curvature="0"
         style="fill:#000000;fill-opacity:0.09019608;fill-rule:nonzero;stroke:none"
         d="m 264,109 0,1 5,0 0,-1 -5,0 z"
         id="path4080" />
    </g>
    <g
       id="north-bottom"
       transform="translate(-152,-3)">
      <path
         id="path3283"
         d="M 264,117 L 264,121 L 269,121 L 269,117 L 264,117 z"
         style="opacity:0.59999999999999998;fill:#000000;fill-opacity:0.07843138;fill-rule:nonzero;stroke:none;stroke-width:1;stroke-linecap:round;stroke-linejoin:round;stroke-miterlimit:4;stroke-dashoffset:0;stroke-opacity:1" />
      <path
         id="path3285"
         d="m 264,120 0,1 5,0 0,-1 -5,0 z"
         style="fill:#000000;fill-opacity:0.21568628;fill-rule:nonzero;stroke:none"
         inkscape:connector-curvature="0" />
      <path
         id="path3287"
         d="M 264,121 L 264,122 L 269,122 L 269,121 L 264,121 z"
         style="fill:#ffffff;fill-opacity:0.19607843;fill-rule:nonzero;stroke:none;stroke-width:0.99947226000000000;stroke-linecap:round;stroke-linejoin:round;stroke-miterlimit:4;stroke-dasharray:none;stroke-dashoffset:0;stroke-opacity:1" />
    </g>
    <g
       transform="translate(-165,-4)"
       id="south-center">
      <path
         style="opacity:0.6;fill:#000000;fill-opacity:0.07843137;fill-rule:nonzero;stroke:none"
         d="m 264,112 0,5 5,0 0,-5 -5,0 z"
         id="path4084"
         inkscape:connector-curvature="0" />
    </g>
    <g
       transform="translate(-165,-5)"
       id="south-top">
      <path
         style="opacity:0.6;fill:#000000;fill-opacity:0.07843137;fill-rule:nonzero;stroke:none"
         d="m 264,108 0,4 5,0 0,-4 -5,0 z"
         id="path4088"
         inkscape:connector-curvature="0" />
      <path
         inkscape:connector-curvature="0"
         style="fill:#000000;fill-opacity:0.21568627;fill-rule:nonzero;stroke:none"
         d="m 264,108 0,1 5,0 0,-1 -5,0 z"
         id="path4090" />
      <path
         style="fill:#ffffff;fill-opacity:0.19607843;fill-rule:nonzero;stroke:none"
         d="m 264,107 0,1 5,0 0,-1 -5,0 z"
         id="path4092"
         inkscape:connector-curvature="0" />
      <path
         id="path4094"
         d="m 264,109 0,1 5,0 0,-1 -5,0 z"
         style="fill:#000000;fill-opacity:0.09019608;fill-rule:nonzero;stroke:none"
         inkscape:connector-curvature="0" />
    </g>
    <g
       transform="translate(-165,-3)"
       id="south-bottom">
      <path
         style="opacity:0.6;fill:#000000;fill-opacity:0.07843137;fill-rule:nonzero;stroke:none"
         d="m 264,117 0,4 5,0 0,-4 -5,0 z"
         id="path4098"
         inkscape:connector-curvature="0" />
      <path
         inkscape:connector-curvature="0"
         style="fill:#000000;fill-opacity:0.21568627;fill-rule:nonzero;stroke:none"
         d="m 264,120 0,1 5,0 0,-1 -5,0 z"
         id="path4100" />
      <path
         style="fill:#ffffff;fill-opacity:0.19607843;fill-rule:nonzero;stroke:none"
         d="m 264,121 0,1 5,0 0,-1 -5,0 z"
         id="path4102"
         inkscape:connector-curvature="0" />
    </g>
    <g
       transform="matrix(0,-1,1,0,-16,334)"
       id="east-center">
      <path
         inkscape:connector-curvature="0"
         style="opacity:0.6;fill:#000000;fill-opacity:0.07843137;fill-rule:nonzero;stroke:none"
         d="m 264,112 0,5 5,0 0,-5 -5,0 z"
         id="path4106" />
    </g>
    <g
       transform="matrix(0,-1,1,0,-17,334)"
       id="east-left">
      <path
         inkscape:connector-curvature="0"
         style="opacity:0.6;fill:#000000;fill-opacity:0.07843137;fill-rule:nonzero;stroke:none"
         d="m 264,108 0,4 5,0 0,-4 -5,0 z"
         id="path4110" />
      <path
         inkscape:connector-curvature="0"
         style="fill:#000000;fill-opacity:0.21568627;fill-rule:nonzero;stroke:none"
         d="m 264,108 0,1 5,0 0,-1 -5,0 z"
         id="path4112" />
      <path
         inkscape:connector-curvature="0"
         style="fill:#ffffff;fill-opacity:0.19607843;fill-rule:nonzero;stroke:none"
         d="m 264,107 0,1 5,0 0,-1 -5,0 z"
         id="path4114" />
      <path
         id="path4116"
         d="m 264,109 0,1 5,0 0,-1 -5,0 z"
         style="fill:#000000;fill-opacity:0.09019608;fill-rule:nonzero;stroke:none"
         inkscape:connector-curvature="0" />
    </g>
    <g
       transform="matrix(0,-1,1,0,-15,334)"
       id="east-right">
      <path
         inkscape:connector-curvature="0"
         style="opacity:0.6;fill:#000000;fill-opacity:0.07843137;fill-rule:nonzero;stroke:none"
         d="m 264,117 0,4 5,0 0,-4 -5,0 z"
         id="path4120" />
      <path
         inkscape:connector-curvature="0"
         style="fill:#000000;fill-opacity:0.21568627;fill-rule:nonzero;stroke:none"
         d="m 264,120 0,1 5,0 0,-1 -5,0 z"
         id="path4122" />
      <path
         inkscape:connector-curvature="0"
         style="fill:#ffffff;fill-opacity:0.19607843;fill-rule:nonzero;stroke:none"
         d="m 264,121 0,1 5,0 0,-1 -5,0 z"
         id="path4124" />
    </g>
    <g
       id="west-center"
       transform="matrix(0,-1,1,0,-16,347)">
      <path
         inkscape:connector-curvature="0"
         id="path4128"
         d="m 264,112 0,5 5,0 0,-5 -5,0 z"
         style="opacity:0.6;fill:#000000;fill-opacity:0.07843137;fill-rule:nonzero;stroke:none" />
    </g>
    <g
       id="west-left"
       transform="matrix(0,-1,1,0,-17,347)">
      <path
         inkscape:connector-curvature="0"
         id="path4132"
         d="m 264,108 0,4 5,0 0,-4 -5,0 z"
         style="opacity:0.6;fill:#000000;fill-opacity:0.07843137;fill-rule:nonzero;stroke:none" />
      <path
         id="path4134"
         d="m 264,108 0,1 5,0 0,-1 -5,0 z"
         style="fill:#000000;fill-opacity:0.21568627;fill-rule:nonzero;stroke:none"
         inkscape:connector-curvature="0" />
      <path
         inkscape:connector-curvature="0"
         id="path4136"
         d="m 264,107 0,1 5,0 0,-1 -5,0 z"
         style="fill:#ffffff;fill-opacity:0.19607843;fill-rule:nonzero;stroke:none" />
      <path
         inkscape:connector-curvature="0"
         style="fill:#000000;fill-opacity:0.09019608;fill-rule:nonzero;stroke:none"
         d="m 264,109 0,1 5,0 0,-1 -5,0 z"
         id="path4138" />
    </g>
    <g
       id="west-right"
       transform="matrix(0,-1,1,0,-15,347)">
      <path
         inkscape:connector-curvature="0"
         id="path4143"
         d="m 264,117 0,4 5,0 0,-4 -5,0 z"
         style="opacity:0.6;fill:#000000;fill-opacity:0.07843137;fill-rule:nonzero;stroke:none" />
      <path
         id="path4145"
         d="m 264,120 0,1 5,0 0,-1 -5,0 z"
         style="fill:#000000;fill-opacity:0.21568627;fill-rule:nonzero;stroke:none"
         inkscape:connector-curvature="0" />
      <path
         inkscape:connector-curvature="0"
         id="path4147"
         d="m 264,121 0,1 5,0 0,-1 -5,0 z"
         style="fill:#ffffff;fill-opacity:0.19607843;fill-rule:nonzero;stroke:none" />
    </g>
    <g
       id="south-maxslider">
      <path
         inkscape:connector-curvature="0"
         sodipodi:nodetypes="cccccccsc"
         id="path3699"
         d="m 70,123 -26,0 c -1,0 -2,1 -2,2 l 0,10 c 0,1 1,2 2,2 l 15,0 c 6.375,0 13.015422,-5.82549 13.015422,-10.00528 L 72.000002,125 c -0.0077,-1 -1,-2 -2,-2 z"
         style="fill:url(#linearGradient5641);fill-opacity:1;fill-rule:nonzero;stroke:none" />
      <path
         inkscape:connector-curvature="0"
         id="path3810"
         d="m 51.9375,124.96875 c -0.242535,0.003 -0.472723,0.11318 -0.65625,0.3125 -0.367054,0.39864 -0.376317,1.01722 0,1.40625 l 2.21875,2.28125 -8.5625,0 c -0.554,0 -1,0.446 -1,1 0,0.554 0.446,1 1,1 l 8.5625,0 -2.21875,2.28125 c -0.376316,0.38904 -0.367054,1.00761 0,1.40625 0.367055,0.39864 0.967433,0.42029 1.34375,0.0313 l 3.3125,-3.4688 0,2.75 c 0,0.554 0.446,1 1,1 0.554,0 1,-0.446 1,-1 l 0,-8 c 0,-0.554 -0.446,-1 -1,-1 -0.554,0 -1,0.446 -1,1 l 0,2.71875 -3.3125,-3.4375 c -0.188159,-0.19452 -0.444965,-0.28438 -0.6875,-0.28125 z"
         style="fill:#ffffff;fill-opacity:1;fill-rule:nonzero;stroke:none" />
      <path
         inkscape:connector-curvature="0"
         style="fill:url(#linearGradient5603);fill-opacity:1;fill-rule:nonzero;stroke:none"
         d="m 52,124 c -0.242535,0.003 -0.472723,0.11318 -0.65625,0.3125 -0.367054,0.39864 -0.376317,1.01722 0,1.40625 L 53.5625,128 45,128 c -0.554,0 -1,0.446 -1,1 0,0.554 0.446,1 1,1 l 8.5625,0 -2.21875,2.28125 c -0.376316,0.38904 -0.367054,1.00761 0,1.40625 0.367055,0.39864 0.967433,0.42029 1.34375,0.0313 L 56,130.25005 l 0,2.75 c 0,0.554 0.446,1 1,1 0.554,0 1,-0.446 1,-1 l 0,-8 c 0,-0.554 -0.446,-1 -1,-1 -0.554,0 -1,0.446 -1,1 l 0,2.71875 -3.3125,-3.4375 C 52.499341,124.08678 52.242535,123.99692 52,124.00005 z"
         id="rect3701" />
      <path
         inkscape:connector-curvature="0"
         id="path3585"
         d="m 44,123 c -1,0 -2,1 -2,2 l 0,10 c 0,1 1,2 2,2 l 15,0 c 6.375,0 13,-5.82021 13,-10 l 0,-2 c -0.0077,-1 -1,-2 -2,-2 l -26,0 z m 0.84375,1 L 69,124 c 0.928572,0 1.836574,0.86161 1.84375,1.71875 l 0.03125,1.71875 c 0,3.58269 -6.174105,8.5625 -12.09375,8.5625 l -13.9375,0 C 43.915179,136 43,135.13839 43,134.28125 l 0,-8.5625 C 43,124.86161 43.915179,124 44.84375,124 z"
         style="fill:url(#linearGradient5600);fill-opacity:1;fill-rule:nonzero;stroke:none" />
      <path
         inkscape:connector-curvature="0"
         id="path3972"
         d="m 52,124 c -0.242535,0.003 -0.472723,0.11318 -0.65625,0.3125 -0.312858,0.33978 -0.349219,0.83774 -0.125,1.21875 0.03951,-0.0704 0.06832,-0.1572 0.125,-0.21875 C 51.527277,125.11318 51.757465,125.003 52,125 c 0.242535,-0.003 0.499341,0.0867 0.6875,0.28125 l 3.3125,3.4375 0,-1 -3.3125,-3.4375 C 52.499341,124.08673 52.242535,123.99687 52,124 z m 5,0 c -0.554,0 -1,0.446 -1,1 l 0,1 c 0,-0.554 0.446,-1 1,-1 0.554,0 1,0.446 1,1 l 0,-1 c 0,-0.554 -0.446,-1 -1,-1 z m -12,4 c -0.554,0 -1,0.446 -1,1 0,0.1879 0.06682,0.35013 0.15625,0.5 C 44.330483,129.20801 44.633901,129 45,129 l 8.5625,0 -0.0073,-1 z m 8.580155,2 -2.236405,2.28125 c -0.318208,0.32897 -0.341383,0.80204 -0.125,1.1875 0.03884,-0.066 0.06944,-0.13006 0.125,-0.1875 L 53.5625,131 z"
         style="fill:#000000;fill-opacity:1;fill-rule:nonzero;stroke:none"
         sodipodi:nodetypes="csccscccccsscscsssscsccscccccc" />
      <path
         id="path5609"
         d="m 44,122 c -0.833333,0 -1.561615,0.37412 -2.09375,0.90625 C 41.374115,123.43838 41,124.16667 41,125 l 0,10 c 0,0.83333 0.374115,1.56162 0.90625,2.09375 C 42.438385,137.62588 43.166667,138 44,138 l 15,0 c 3.492101,0 6.925037,-1.55721 9.53125,-3.65625 C 71.137463,132.24471 73,129.61946 73,127 l 0,-2 c -0.0064,-0.82817 -0.375684,-1.56182 -0.90625,-2.09375 C 71.563184,122.37432 70.833333,122 70,122 l -26,0 z m 0,1 26,0 c 1,0 1.9923,1 2,2 l 0,2 c 0,4.17979 -6.625,10 -13,10 l -15,0 c -1,0 -2,-1 -2,-2 l 0,-10 c 0,-1 1,-2 2,-2 z"
         style="font-size:medium;font-style:normal;font-variant:normal;font-weight:normal;font-stretch:normal;text-indent:0;text-align:start;text-decoration:none;line-height:normal;letter-spacing:normal;word-spacing:normal;text-transform:none;direction:ltr;block-progression:tb;writing-mode:lr-tb;text-anchor:start;baseline-shift:baseline;color:#000000;fill:url(#linearGradient5624);fill-opacity:1;fill-rule:nonzero;stroke:none;stroke-width:2;marker:none;visibility:visible;display:inline;overflow:visible;enable-background:accumulate;font-family:Sans;-inkscape-font-specification:Sans"
         inkscape:connector-curvature="0" />
    </g>
    <g
       id="west-maxslider">
      <path
         inkscape:connector-curvature="0"
         style="fill:url(#linearGradient5869);fill-opacity:1;fill-rule:nonzero;stroke:none"
         d="m -15,106 0,-26 c 0,-1 -1,-2 -2,-2 l -9,0 c -1,0 -2,1 -2,2 l 0,14.941024 C -28,101.31602 -23.179787,108 -19,108 l 2,0 c 1.000435,0 2,-1 2,-2 z"
         id="path2909"
         sodipodi:nodetypes="cccccccsc" />
      <g
         id="g3906"
         style="fill:#ffffff;fill-opacity:1"
         transform="translate(1,12.058975)">
        <path
           inkscape:connector-curvature="0"
           id="rect3908"
           d="m -23,68.941025 c -0.554,0 -1,0.446 -1,1 l 0,8.53125 -2.28125,-2.1875 c -0.389035,-0.376317 -1.007608,-0.398304 -1.40625,-0.03125 -0.398642,0.367054 -0.420285,0.967433 -0.03125,1.34375 l 3.46875,3.34375 -2.75,0 c -0.554,0 -1,0.446 -1,1 0,0.554 0.446,1 1,1 l 8,0 c 0.554,0 1,-0.446 1,-1 0,-0.554 -0.446,-1 -1,-1 l -2.75,0 3.46875,-3.34375 c 0.389035,-0.376317 0.367392,-0.976696 -0.03125,-1.34375 -0.398642,-0.367054 -1.017215,-0.345067 -1.40625,0.03125 l -2.28125,2.1875 0,-8.53125 c 0,-0.554 -0.446,-1 -1,-1 z"
           style="fill:#ffffff;fill-opacity:1;fill-rule:nonzero;stroke:none" />
      </g>
      <g
         transform="translate(0,12)"
         id="g3900">
        <path
           inkscape:connector-curvature="0"
           id="rect2911"
           transform="translate(0,-12)"
           d="m -22,79.9375 c -0.554,0 -1,0.446 -1,1 l 0,8.5625 -2.28125,-2.21875 c -0.389035,-0.376317 -1.007608,-0.398304 -1.40625,-0.03125 -0.398642,0.367054 -0.420285,0.967433 -0.03125,1.34375 l 3.4375,3.34375 -2.71875,0 c -0.554,0 -1,0.446 -1,1 0,0.554 0.446,1 1,1 l 8,0 c 0.554,0 1,-0.446 1,-1 0,-0.554 -0.446,-1 -1,-1 l -2.75,0 3.46875,-3.34375 c 0.389035,-0.376317 0.367392,-0.976696 -0.03125,-1.34375 -0.398642,-0.367054 -1.017215,-0.345067 -1.40625,0.03125 L -21,89.5 l 0,-8.5625 c 0,-0.554 -0.446,-1 -1,-1 z"
           style="fill:url(#linearGradient5856);fill-opacity:1;fill-rule:nonzero;stroke:none" />
        <path
           sodipodi:nodetypes="sscscsscscsccccccccccccscsscsccsccscssc"
           inkscape:connector-curvature="0"
           id="path3987"
           transform="translate(0,-12)"
           d="m -22,79.9375 c -0.554,0 -1,0.446 -1,1 L -23,82 c 0,-0.554 0.446,-1 1,-1 0.554,0 1,0.446 1,1 l 0,-1.0625 c 0,-0.554 -0.446,-1 -1,-1 z M -25.96875,87 c -0.253103,-0.0067 -0.519429,0.06647 -0.71875,0.25 -0.357841,0.329486 -0.399073,0.844079 -0.125,1.21875 0.03918,-0.055 0.07283,-0.108213 0.125,-0.15625 0.398642,-0.367054 1.017215,-0.345067 1.40625,0.03125 L -23,90.5625 -23,89.5 -25.28125,87.28125 C -25.475767,87.093091 -25.715647,87.006655 -25.96875,87 z m 7.9375,0 c -0.253103,0.0067 -0.492983,0.09309 -0.6875,0.28125 L -21,89.5 l 0,1.0625 2.28125,-2.21875 c 0.389035,-0.376317 1.007608,-0.398304 1.40625,-0.03125 0.05217,0.04804 0.08582,0.101245 0.125,0.15625 0.274073,-0.374671 0.232841,-0.889264 -0.125,-1.21875 -0.199321,-0.183527 -0.465647,-0.256655 -0.71875,-0.25 z M -26,91.9375 c -0.554,0 -1,0.446 -1,1 0,0.202898 0.08446,0.373929 0.1875,0.53125 C -26.634192,93.196516 -26.351102,93 -26,93 l 2.71875,0 -0.02183,-1.0625 z m 5.238896,0 L -20.75,93 -18,93 c 0.351102,0 0.634192,0.196516 0.8125,0.46875 C -17.084457,93.311429 -17,93.140398 -17,92.9375 c 0,-0.554 -0.446,-1 -1,-1 z"
           style="fill:#000000;fill-opacity:1;fill-rule:nonzero;stroke:none" />
      </g>
      <path
         inkscape:connector-curvature="0"
         id="path3546"
         d="m -26,78 c -1,0 -2,1 -2,2 l 0,14.9375 c 0,6.375 4.820213,13.0625 9,13.0625 l 2,0 c 1.000435,0 2,-1 2,-2 l 0,-26 c 0,-1 -1,-2 -2,-2 l -9,0 z m 0.6875,1 7.625,0 C -16.841346,79 -16,79.941665 -16,80.875 l 0,24.25 c 0,0.93333 -0.840977,1.875 -1.6875,1.875 l -1.6875,0 C -22.911743,107 -27,100.7625 -27,94.8125 L -27,80.875 C -27,79.941668 -26.158654,79 -25.3125,79 z"
         style="fill:url(#linearGradient5861);fill-opacity:1;fill-rule:nonzero;stroke:none" />
      <path
         id="path5871"
         d="m -26,77 c -0.833333,0 -1.561615,0.374115 -2.09375,0.90625 C -28.625885,78.438385 -29,79.166667 -29,80 l 0,14.9375 c 0,3.439535 1.285156,6.87168 3.125,9.5 1.839844,2.62832 4.252067,4.5625 6.875,4.5625 l 2,0 c 0.833406,0 1.561635,-0.37406 2.09375,-0.90625 C -14.374135,107.56156 -14,106.83319 -14,106 l 0,-26 c 0,-0.833333 -0.374115,-1.561615 -0.90625,-2.09375 C -15.438385,77.374115 -16.166667,77 -17,77 l -9,0 z m 0,1 9,0 c 1,0 2,1 2,2 l 0,26 c 0,1 -0.999565,2 -2,2 l -2,0 c -4.179787,0 -9,-6.6875 -9,-13.0625 L -28,80 c 0,-1 1,-2 2,-2 z"
         style="font-size:medium;font-style:normal;font-variant:normal;font-weight:normal;font-stretch:normal;text-indent:0;text-align:start;text-decoration:none;line-height:normal;letter-spacing:normal;word-spacing:normal;text-transform:none;direction:ltr;block-progression:tb;writing-mode:lr-tb;text-anchor:start;baseline-shift:baseline;color:#000000;fill:url(#linearGradient5886);fill-opacity:1;fill-rule:nonzero;stroke:none;stroke-width:2;marker:none;visibility:visible;display:inline;overflow:visible;enable-background:accumulate;font-family:Sans;-inkscape-font-specification:Sans"
         inkscape:connector-curvature="0" />
    </g>
    <g
       id="west-minslider">
      <path
         inkscape:connector-curvature="0"
         sodipodi:nodetypes="cccccccsc"
         id="path2897"
         d="m -15,32 0,26 c 0,1 -1,2 -2,2 l -9,0 c -1,0 -2,-1 -2,-2 l 0,-15 c 0,-6.375 4.82021,-13 8.999997,-13 L -17,30 c 1,0 2,1 2,2 z"
         style="fill:url(#linearGradient5940);fill-opacity:1;fill-rule:nonzero;stroke:none" />
      <g
         id="g3883"
         style="fill:#ffffff;fill-opacity:1"
         transform="translate(1,-0.11795122)">
        <path
           inkscape:connector-curvature="0"
           id="rect3885"
           d="m -27,45.117951 c -0.554,0 -1,0.446 -1,1 0,0.554 0.446,1 1,1 l 2.71875,0 -3.4375,3.34375 c -0.389035,0.376317 -0.367392,0.976696 0.03125,1.34375 0.398642,0.367054 1.017215,0.345067 1.40625,-0.03125 l 2.28125,-2.1875 0,8.53125 c 0,0.554 0.446,1 1,1 0.554,0 1,-0.446 1,-1 l 0,-8.53125 2.28125,2.1875 c 0.389035,0.376317 1.007608,0.398304 1.40625,0.03125 0.398642,-0.367054 0.420285,-0.967433 0.03125,-1.34375 l -3.4375,-3.34375 2.71875,0 c 0.554,0 1,-0.446 1,-1 0,-0.554 -0.446,-1 -1,-1 l -8,0 z"
           style="fill:#ffffff;fill-opacity:1;fill-rule:nonzero;stroke:none" />
      </g>
      <g
         transform="translate(0,-0.058976)"
         id="g3877">
        <path
           inkscape:connector-curvature="0"
           id="rect2899"
           transform="translate(0,0.058976)"
           d="m -26,44 c -0.554,0 -1,0.446 -1,1 0,0.554 0.446,1 1,1 l 2.71875,0 -3.4375,3.34375 c -0.389035,0.376317 -0.367392,0.976696 0.03125,1.34375 0.398642,0.367054 1.017215,0.345067 1.40625,-0.03125 L -23,48.46875 -23,57 c 0,0.554 0.446,1 1,1 0.554,0 1,-0.446 1,-1 l 0,-8.53125 2.28125,2.1875 c 0.389035,0.376317 1.007608,0.398304 1.40625,0.03125 0.398642,-0.367054 0.420285,-0.967433 0.03125,-1.34375 L -20.71875,46 -18,46 c 0.554,0 1,-0.446 1,-1 0,-0.554 -0.446,-1 -1,-1 l -8,0 z"
           style="fill:url(#linearGradient5927);fill-opacity:1;fill-rule:nonzero;stroke:none" />
        <path
           inkscape:connector-curvature="0"
           id="path3994"
           transform="translate(0,0.058976)"
           d="m -26,44 c -0.554,0 -1,0.446 -1,1 0,0.187901 0.06682,0.350135 0.15625,0.5 C -26.669517,45.208009 -26.366099,45 -26,45 l 8,0 c 0.366099,0 0.669517,0.208009 0.84375,0.5 C -17.066824,45.350135 -17,45.187901 -17,45 c 0,-0.554 -0.446,-1 -1,-1 l -8,0 z m 1.6875,3 -2.40625,2.34375 c -0.331594,0.320753 -0.338015,0.793163 -0.09375,1.15625 0.03475,-0.05042 0.04741,-0.11142 0.09375,-0.15625 L -23.28125,47 -24.3125,47 z m 3.59375,0 3.4375,3.34375 c 0.04634,0.04483 0.059,0.105834 0.09375,0.15625 0.244265,-0.363087 0.237844,-0.835497 -0.09375,-1.15625 L -19.6875,47 l -1.03125,0 z"
           style="fill:#000000;fill-opacity:1;fill-rule:nonzero;stroke:none" />
      </g>
      <path
         inkscape:connector-curvature="0"
         id="path3533"
         d="m -19,30 c -4.179787,0 -9,6.625 -9,13 l 0,15 c 0,1 1,2 2,2 l 9,0 c 1,0 2,-1 2,-2 l 0,-26 c 0,-1 -1,-2 -2,-2 l -2,0 z m -0.375,1 1.6875,0 C -16.841346,31 -16,31.941668 -16,32.875 l 0,24.25 C -16,58.058331 -16.841346,59 -17.6875,59 l -7.625,0 C -26.158654,59 -27,58.058332 -27,57.125 l 0,-14 C -27,37.174999 -22.911743,31 -19.375,31 z"
         style="fill:url(#linearGradient5932);fill-opacity:1;fill-rule:nonzero;stroke:none" />
      <path
         id="path5949"
         d="m -19,29 c -2.61823,0 -5.034125,1.917166 -6.875,4.53125 C -27.715875,36.145334 -29,39.560463 -29,43 l 0,15 c 0,0.833333 0.374115,1.561615 0.90625,2.09375 C -27.561615,60.625885 -26.833333,61 -26,61 l 9,0 c 0.833333,0 1.561615,-0.374115 2.09375,-0.90625 C -14.374115,59.561615 -14,58.833333 -14,58 l 0,-26 c 0,-0.833333 -0.374115,-1.561615 -0.90625,-2.09375 C -15.438385,29.374115 -16.166667,29 -17,29 l -2,0 z m 0,1 2,0 c 1,0 2,1 2,2 l 0,26 c 0,1 -1,2 -2,2 l -9,0 c -1,0 -2,-1 -2,-2 l 0,-15 c 0,-6.375 4.820213,-13 9,-13 z"
         style="font-size:medium;font-style:normal;font-variant:normal;font-weight:normal;font-stretch:normal;text-indent:0;text-align:start;text-decoration:none;line-height:normal;letter-spacing:normal;word-spacing:normal;text-transform:none;direction:ltr;block-progression:tb;writing-mode:lr-tb;text-anchor:start;baseline-shift:baseline;color:#000000;fill:url(#linearGradient5964);fill-opacity:1;fill-rule:nonzero;stroke:none;stroke-width:2;marker:none;visibility:visible;display:inline;overflow:visible;enable-background:accumulate;font-family:Sans;-inkscape-font-specification:Sans"
         inkscape:connector-curvature="0" />
    </g>
    <g
       id="west-offsetslider">
      <path
         inkscape:connector-curvature="0"
         sodipodi:nodetypes="csszsscc"
         id="path2624"
         d="m -40,36 c 0,-1 -1,-2.004375 -2,-2 l -2.010444,0.0088 C -47.939187,34.025982 -52,40.030121 -52,46.012681 c 0,6.008534 3.964684,12.013721 7.989556,11.996114 L -42,58 c 1,-0.0044 2,-1 2,-2 l 0,-20 z"
         style="fill:url(#linearGradient6014);fill-opacity:1;fill-rule:nonzero;stroke:none" />
      <path
         inkscape:connector-curvature="0"
         style="fill:#ffffff;fill-opacity:1;fill-rule:nonzero;stroke:none"
         d="m -45.340366,42.000079 c -0.242982,-0.0031 -0.500252,0.08674 -0.688763,0.281281 l -3.381206,3.531633 c -0.227191,0.215072 -0.585023,0.532747 -0.589625,1.187628 -0.0046,0.650289 0.393505,1.037133 0.589625,1.218882 l 3.381206,3.500378 c 0.377011,0.389083 0.978488,0.367431 1.346225,-0.03125 0.367728,-0.398685 0.377012,-1.017321 0,-1.406404 l -2.222838,-2.281497 3.90461,0 c 0.55502,0 1.00184,-0.446047 1.00184,-1.000107 0,-0.554063 -0.44682,-1.000623 -1.00184,-1.000623 l -3.90461,0 2.222838,-2.280985 c 0.377012,-0.389075 0.367728,-1.007716 0,-1.406402 -0.183868,-0.199342 -0.414479,-0.309399 -0.657462,-0.312534 z"
         id="path3868"
         sodipodi:nodetypes="ccczccscccscccsc" />
      <path
         inkscape:connector-curvature="0"
         sodipodi:nodetypes="ccczccscccscccsc"
         id="path2626"
         d="m -45.340366,41.000079 c -0.242982,-0.0031 -0.500252,0.08674 -0.688763,0.281281 l -3.381206,3.531633 c -0.227191,0.215072 -0.585023,0.532747 -0.589625,1.187628 -0.0046,0.650289 0.393505,1.037133 0.589625,1.218882 l 3.381206,3.500378 c 0.377011,0.389083 0.978488,0.367431 1.346225,-0.03125 0.367728,-0.398685 0.377012,-1.017321 0,-1.406404 l -2.222838,-2.281497 3.90461,0 c 0.55502,0 1.00184,-0.446047 1.00184,-1.000107 0,-0.554061 -0.44682,-1.000621 -1.00184,-1.000621 l -3.90461,0 2.222838,-2.280985 c 0.377012,-0.389075 0.367728,-1.007716 0,-1.406402 -0.183868,-0.199342 -0.414479,-0.309399 -0.657462,-0.312534 z"
         style="fill:url(#linearGradient6010);fill-opacity:1;fill-rule:nonzero;stroke:none" />
      <path
         inkscape:connector-curvature="0"
         id="path3520"
         d="m -44,34 c -3.928742,0.01718 -8,6.01744 -8,12 0,6.008535 3.975128,12.017607 8,12 l 2,0 c 1,-0.0044 2,-1 2,-2 l 0,-20 c 0,-1 -1,-2.004375 -2,-2 l -2,0 z m 0,1 1.46875,0 C -41.798356,34.99599 -41,35.739601 -41,36.65625 L -41,55 c 0,0.916651 -0.798357,1.995989 -1.53125,2 L -44,57 c -2.949802,0.01614 -7,-5.492268 -7,-11 0,-5.483924 4.12065,-10.984246 7,-11 z"
         style="fill:url(#linearGradient6007);fill-opacity:1;fill-rule:nonzero;stroke:none" />
      <path
         inkscape:connector-curvature="0"
         id="path4018"
         d="m -45.34375,41 c -0.242982,-0.0031 -0.498989,0.08671 -0.6875,0.28125 l -3.375,3.53125 C -49.633441,45.027572 -49.995398,45.345119 -50,46 c -0.0014,0.192637 0.04015,0.352083 0.09375,0.5 0.121094,-0.33157 0.340966,-0.53695 0.5,-0.6875 l 3.375,-3.53125 c 0.188511,-0.194541 0.444518,-0.28435 0.6875,-0.28125 0.242983,0.0031 0.472382,0.113158 0.65625,0.3125 0.05678,0.06156 0.08541,0.148354 0.125,0.21875 0.224632,-0.381057 0.188433,-0.87893 -0.125,-1.21875 -0.183868,-0.199342 -0.413267,-0.309365 -0.65625,-0.3125 z m -0.59375,4 -0.96875,1 L -43,46 c 0.368925,0 0.701137,0.204967 0.875,0.5 0.08221,-0.145287 0.125,-0.320581 0.125,-0.5 0,-0.554061 -0.44498,-1 -1,-1 l -2.9375,0 z m -0.96875,3 2.21875,2.28125 c 0.05821,0.06008 0.0851,0.149379 0.125,0.21875 0.231036,-0.388574 0.199896,-0.883452 -0.125,-1.21875 L -45.9375,48 l -0.96875,0 z"
         style="fill:#000000;fill-opacity:1;fill-rule:nonzero;stroke:none" />
      <path
         id="path6016"
         d="m -44,33 c -2.47227,0.01081 -4.693568,1.799424 -6.3125,4.21875 C -51.931432,39.638076 -53,42.782462 -53,46 c 0,3.224214 1.047849,6.390489 2.65625,8.8125 1.608401,2.422011 3.832552,4.198485 6.34375,4.1875 l 2,0 c 0.83039,-0.0037 1.561731,-0.375011 2.09375,-0.90625 C -39.374231,57.562511 -39,56.833333 -39,56 l 0,-20 c 0,-0.833333 -0.374001,-1.560725 -0.90625,-2.09375 C -40.438499,33.373225 -41.16376,32.996341 -42,33 l -2,0 z m 0,1 2,0 c 1,-0.0044 2,1 2,2 l 0,20 c 0,1 -1,1.9956 -2,2 l -2,0 c -4.024872,0.01761 -8,-5.991466 -8,-12 0,-5.98256 4.071257,-11.982818 8,-12 z"
         style="font-size:medium;font-style:normal;font-variant:normal;font-weight:normal;font-stretch:normal;text-indent:0;text-align:start;text-decoration:none;line-height:normal;letter-spacing:normal;word-spacing:normal;text-transform:none;direction:ltr;block-progression:tb;writing-mode:lr-tb;text-anchor:start;baseline-shift:baseline;color:#000000;fill:url(#linearGradient6030);fill-opacity:1;stroke:none;stroke-width:2;marker:none;visibility:visible;display:inline;overflow:visible;enable-background:accumulate;font-family:Sans;-inkscape-font-specification:Sans"
         inkscape:connector-curvature="0" />
    </g>
    <g
       id="north-offsetslider">
      <path
         inkscape:connector-curvature="0"
         style="fill:url(#linearGradient6136);fill-opacity:1;fill-rule:nonzero;stroke:none"
         d="m 74,24 c 1,0 2.004375,-1 2,-2 L 75.9912,19.989556 C 75.974018,16.060813 69.969879,12 63.987319,12 57.978785,12 51.973598,15.964684 51.991205,19.989556 L 52,22 c 0.0044,1 1,2 2,2 l 20,0 z"
         id="path4003"
         sodipodi:nodetypes="csszsscc" />
      <path
         inkscape:connector-curvature="0"
         sodipodi:nodetypes="ccczccscccscccsc"
         id="path4005"
         d="m 69.000649,18.660766 c 0.0031,-0.242982 -0.08674,-0.500252 -0.281281,-0.688763 l -3.531633,-3.381206 c -0.215072,-0.227191 -0.532747,-0.585023 -1.187628,-0.589625 -0.650289,-0.0046 -1.037133,0.393505 -1.218882,0.589625 l -3.500378,3.381206 c -0.389083,0.377011 -0.367431,0.978488 0.03125,1.346225 0.398685,0.367728 1.017321,0.377012 1.406404,0 L 63,17.09539 63,21 c 0,0.55502 0.446047,1.00184 1.000107,1.00184 0.554061,0 1.000621,-0.44682 1.000621,-1.00184 l 0,-3.90461 2.280985,2.222838 c 0.389075,0.377012 1.007716,0.367728 1.406402,0 0.199342,-0.183868 0.309399,-0.414479 0.312534,-0.657462 z"
         style="fill:#ffffff;fill-opacity:1;fill-rule:nonzero;stroke:none" />
      <path
         inkscape:connector-curvature="0"
         style="fill:url(#linearGradient6073);fill-opacity:1;fill-rule:nonzero;stroke:none"
         d="m 68.999921,17.658746 c 0.0031,-0.242982 -0.08674,-0.500252 -0.281281,-0.688763 l -3.531633,-3.381206 c -0.215072,-0.227191 -0.532747,-0.585023 -1.187628,-0.589625 -0.650289,-0.0046 -1.037133,0.393505 -1.218882,0.589625 l -3.500378,3.381206 c -0.389083,0.377011 -0.367431,0.978488 0.03125,1.346225 0.398685,0.367728 1.017321,0.377012 1.406404,0 l 2.281497,-2.222838 0,3.90461 c 0,0.55502 0.446047,1.00184 1.000107,1.00184 C 64.55344,20.99982 65,20.553 65,19.99798 l 0,-3.90461 2.280985,2.222838 c 0.389075,0.377012 1.007716,0.367728 1.406402,0 0.199342,-0.183868 0.309399,-0.414479 0.312534,-0.657462 z"
         id="path4007"
         sodipodi:nodetypes="ccczccscccscccsc" />
      <path
         inkscape:connector-curvature="0"
         sodipodi:nodetypes="cccccccccccccccc"
         id="path2705"
         d="m 64,12 c -6.008535,0 -12.017607,3.975128 -12,8 l 0,2 c 0.0044,1 1,2 2,2 l 20,0 c 1,0 2.004375,-1 2,-2 l 0,-2 C 75.98282,16.071258 69.98256,12 64,12 z m 0,1 c 5.98256,0 10.982815,3.071258 11,7 l 0,2 c 0,0.6331 -0.421664,1 -1,1 l -20,0 c -0.546931,0 -1,-0.382763 -1,-1 l 0,-2 c -0.01761,-4.024872 6,-7 11,-7 z"
         style="fill:url(#linearGradient6070);fill-opacity:1;fill-rule:nonzero;stroke:none" />
      <path
         inkscape:connector-curvature="0"
         id="path4031"
         d="m 64,13 c -0.650289,-0.0046 -1.037001,0.39763 -1.21875,0.59375 l -3.5,3.375 c -0.331635,0.321345 -0.338042,0.792492 -0.09375,1.15625 0.03475,-0.05051 0.0474,-0.111338 0.09375,-0.15625 l 3.5,-3.375 C 62.962999,14.39763 63.349711,13.9954 64,14 c 0.654881,0.0046 0.972428,0.366559 1.1875,0.59375 l 3.53125,3.375 c 0.04635,0.04491 0.05913,0.104653 0.09375,0.15625 0.102232,-0.146914 0.185291,-0.29752 0.1875,-0.46875 0.0031,-0.242982 -0.08671,-0.498989 -0.28125,-0.6875 l -3.53125,-3.375 C 64.972428,13.366559 64.654881,13.004602 64,13 z"
         style="fill:#000000;fill-opacity:1;fill-rule:nonzero;stroke:none" />
      <path
         id="path6079"
         d="m 64,11 c -3.224214,0 -6.390489,1.047849 -8.8125,2.65625 C 52.765489,15.264651 50.989015,17.488802 51,20 l 0,2 c 0.0037,0.83039 0.375011,1.561731 0.90625,2.09375 C 52.437489,24.625769 53.166667,25 54,25 l 20,0 c 0.833333,0 1.560725,-0.374001 2.09375,-0.90625 C 76.626775,23.561501 77.003659,22.83624 77,22 l 0,-2 C 76.989188,17.52773 75.200576,15.306432 72.78125,13.6875 70.361924,12.068568 67.217538,11 64,11 z m 0,1 c 5.98256,0 11.982818,4.071257 12,8 l 0,2 c 0.0044,1 -1,2 -2,2 l -20,0 c -1,0 -1.9956,-1 -2,-2 l 0,-2 c -0.01761,-4.024872 5.991466,-8 12,-8 z"
         style="font-size:medium;font-style:normal;font-variant:normal;font-weight:normal;font-stretch:normal;text-indent:0;text-align:start;text-decoration:none;line-height:normal;letter-spacing:normal;word-spacing:normal;text-transform:none;direction:ltr;block-progression:tb;writing-mode:lr-tb;text-anchor:start;baseline-shift:baseline;color:#000000;fill:url(#linearGradient6094);fill-opacity:1;fill-rule:nonzero;stroke:none;stroke-width:2;marker:none;visibility:visible;display:inline;overflow:visible;enable-background:accumulate;font-family:Sans;-inkscape-font-specification:Sans"
         inkscape:connector-curvature="0" />
    </g>
    <g
       id="north-minslider">
      <path
         inkscape:connector-curvature="0"
         sodipodi:nodetypes="cccccccsc"
         id="path3979"
         d="m 88,24 26,0 c 1,0 2,-1 2,-2 l 0,-9 c 0,-1 -1,-2 -2,-2 L 99.058976,11 C 92.683976,11 86,15.820213 86,20 l 0,2 c 0,1 1,2 2,2 z"
         style="fill:url(#linearGradient6134);fill-opacity:1;fill-rule:nonzero;stroke:none" />
      <g
         transform="matrix(0,1,-1,0,181.94102,40)"
         style="fill:#ffffff;fill-opacity:1"
         id="g3981">
        <rect
           transform="matrix(0,-1,-1,0,0,0)"
           ry="1"
           rx="1"
           y="17"
           x="-81.941025"
           height="10"
           width="2"
           id="rect3983"
           style="fill:#ffffff;fill-opacity:1;fill-rule:nonzero;stroke:none" />
        <rect
           transform="matrix(0.735652,-0.6773596,-0.7187579,-0.6952605,0,0)"
           style="fill:#ffffff;fill-opacity:1;fill-rule:nonzero;stroke:none"
           id="rect3985"
           width="1.9562798"
           height="7.7827225"
           x="-73.75383"
           y="-45.127308"
           rx="0.97813988"
           ry="0.97700465" />
        <rect
           ry="0.97700465"
           rx="0.97813988"
           y="-74.984879"
           x="-43.107178"
           height="7.7827225"
           width="1.9562798"
           id="rect3987"
           style="fill:#ffffff;fill-opacity:1;fill-rule:nonzero;stroke:none"
           transform="matrix(-0.735652,-0.6773596,0.7187579,-0.6952605,0,0)" />
        <rect
           transform="scale(-1,1)"
           style="fill:#ffffff;fill-opacity:1;fill-rule:nonzero;stroke:none"
           id="rect3989"
           width="2"
           height="13"
           x="21"
           y="67.941025"
           rx="1"
           ry="1" />
      </g>
      <g
         transform="matrix(0,1,-1,0,182,39)"
         id="g3991">
        <path
           inkscape:connector-curvature="0"
           id="rect3993"
           transform="matrix(0,-1,1,0,-39,182)"
           d="m 101.0625,12 c -0.554,0 -1,0.446 -1,1 l 0,8 c 0,0.554 0.446,1 1,1 0.554,0 1,-0.446 1,-1 l 0,-2.71875 3.34375,3.4375 c 0.37632,0.389035 0.9767,0.367392 1.34375,-0.03125 0.36705,-0.398642 0.34507,-1.017215 -0.0313,-1.40625 L 104.5,18 l 8.5625,0 c 0.554,0 1,-0.446 1,-1 0,-0.554 -0.446,-1 -1,-1 l -8.5625,0 2.21875,-2.28125 c 0.37632,-0.389035 0.3983,-1.007608 0.0313,-1.40625 -0.36705,-0.398642 -0.96743,-0.420285 -1.34375,-0.03125 l -3.34375,3.46875 0,-2.75 c 0,-0.554 -0.446,-1 -1,-1 z"
           style="fill:url(#linearGradient6118);fill-opacity:1;fill-rule:nonzero;stroke:none" />
        <path
           inkscape:connector-curvature="0"
           id="path4045"
           transform="matrix(0,-1,1,0,-39,182)"
           d="m 101.0625,12 c -0.554,0 -1,0.446 -1,1 l 0,1 c 0,-0.554 0.446,-1 1,-1 0.554,0 1,0.446 1,1 l 0,-1 c 0,-0.554 -0.446,-1 -1,-1 z m 5.03125,0 c -0.24302,-0.0066 -0.49934,0.08673 -0.6875,0.28125 l -3.34375,3.46875 0,1 3.34375,-3.46875 c 0.37632,-0.389035 0.9767,-0.367392 1.34375,0.03125 0.059,0.06411 0.0859,0.14513 0.125,0.21875 0.22064,-0.378936 0.18354,-0.88365 -0.125,-1.21875 -0.18353,-0.199321 -0.41323,-0.305888 -0.65625,-0.3125 z m -1.55308,4 -0.0407,1 8.5625,0 c 0.3661,0 0.66952,0.208009 0.84375,0.5 0.0894,-0.149865 0.15625,-0.312099 0.15625,-0.5 0,-0.554 -0.446,-1 -1,-1 z m -0.0407,3 2.21875,2.28125 c 0.06,0.06201 0.11441,0.115646 0.15625,0.1875 0.20376,-0.384138 0.15955,-0.861033 -0.15625,-1.1875 L 104.53033,18 z"
           style="fill:#000000;fill-opacity:1;fill-rule:nonzero;stroke:none"
           sodipodi:nodetypes="sscscsscccccccccccscssccccccc" />
      </g>
      <path
         inkscape:connector-curvature="0"
         id="path3507"
         d="M 99.0625,11 C 92.687501,11 86,15.820213 86,20 l 0,2 c 0,1 1,2 2,2 l 26,0 c 1,0 2,-1 2,-2 l 0,-9 c 0,-1 -1,-2 -2,-2 l -14.9375,0 z m 0.125,1 13.9375,0 c 0.93333,0 1.875,0.841346 1.875,1.6875 l 0,7.625 C 115,22.158654 114.05833,23 113.125,23 l -24.25,0 C 87.941668,23 87,22.158654 87,21.3125 L 87,19.625 C 87,16.088257 93.237501,12 99.1875,12 z"
         style="fill:url(#linearGradient6123);fill-opacity:1;fill-rule:nonzero;stroke:none" />
      <path
         id="path6138"
         d="m 99.0625,10 c -3.439537,0 -6.87168,1.285156 -9.5,3.125 C 86.93418,14.964844 85,17.377067 85,20 l 0,2 c 0,0.833333 0.374115,1.561615 0.90625,2.09375 C 86.438385,24.625885 87.166667,25 88,25 l 26,0 c 0.83333,0 1.56162,-0.374115 2.09375,-0.90625 C 116.62588,23.561615 117,22.833333 117,22 l 0,-9 c 0,-0.833333 -0.37412,-1.561615 -0.90625,-2.09375 C 115.56162,10.374115 114.83333,10 114,10 l -14.9375,0 z m 0,1 L 114,11 c 1,0 2,1 2,2 l 0,9 c 0,1 -1,2 -2,2 l -26,0 c -1,0 -2,-1 -2,-2 l 0,-2 c 0,-4.179787 6.6875,-9 13.0625,-9 z"
         style="font-size:medium;font-style:normal;font-variant:normal;font-weight:normal;font-stretch:normal;text-indent:0;text-align:start;text-decoration:none;line-height:normal;letter-spacing:normal;word-spacing:normal;text-transform:none;direction:ltr;block-progression:tb;writing-mode:lr-tb;text-anchor:start;baseline-shift:baseline;color:#000000;fill:url(#linearGradient6153);fill-opacity:1;fill-rule:nonzero;stroke:none;stroke-width:2;marker:none;visibility:visible;display:inline;overflow:visible;enable-background:accumulate;font-family:Sans;-inkscape-font-specification:Sans"
         inkscape:connector-curvature="0" />
    </g>
    <g
       id="north-maxslider">
      <path
         inkscape:connector-curvature="0"
         style="fill:url(#linearGradient6198);fill-opacity:1;fill-rule:nonzero;stroke:none"
         d="M 115,5 89,5 C 88,5 87,4 87,3 l 0,-9 c 0,-1 1,-2 2,-2 l 15,0 c 6.375,0 13,4.82021 13,8.999997 L 117,3 c 0,1 -1,2 -2,2 z"
         id="path3955"
         sodipodi:nodetypes="cccccccsc" />
      <g
         transform="matrix(0,1,-1,0,147.11796,21)"
         style="fill:#ffffff;fill-opacity:1"
         id="g3957">
        <rect
           transform="matrix(0,1,-1,0,0,0)"
           style="fill:#ffffff;fill-opacity:1;fill-rule:nonzero;stroke:none"
           id="rect3959"
           width="2"
           height="10"
           x="44.058975"
           y="17"
           rx="1"
           ry="1" />
        <rect
           ry="0.97700465"
           rx="0.97813988"
           y="47.72015"
           x="16.961395"
           height="7.7827225"
           width="1.9562798"
           id="rect3961"
           style="fill:#ffffff;fill-opacity:1;fill-rule:nonzero;stroke:none"
           transform="matrix(0.735652,0.6773596,-0.7187579,0.6952605,0,0)" />
        <rect
           transform="matrix(-0.735652,0.6773596,0.7187579,0.6952605,0,0)"
           style="fill:#ffffff;fill-opacity:1;fill-rule:nonzero;stroke:none"
           id="rect3963"
           width="1.9562798"
           height="7.7827225"
           x="47.608047"
           y="17.862579"
           rx="0.97813988"
           ry="0.97700465" />
        <rect
           ry="1"
           rx="1"
           y="-58.058975"
           x="21"
           height="13"
           width="2"
           id="rect3965"
           style="fill:#ffffff;fill-opacity:1;fill-rule:nonzero;stroke:none"
           transform="scale(-1,-1)" />
      </g>
      <g
         transform="matrix(0,1,-1,0,147.05898,20)"
         id="g3967">
        <path
           inkscape:connector-curvature="0"
           id="rect3969"
           transform="matrix(0,-1,1,0,-20,147.05898)"
           d="m 97,-7 c -0.242535,0.00313 -0.503973,0.113179 -0.6875,0.3125 -0.367054,0.3986421 -0.345067,1.0172147 0.03125,1.40625 L 98.53125,-3 90,-3 c -0.554,0 -1,0.446 -1,1 0,0.554 0.446,1 1,1 l 8.53125,0 -2.1875,2.28125 c -0.376317,0.3890353 -0.398304,1.0076079 -0.03125,1.40625 0.367054,0.3986421 0.967433,0.4202853 1.34375,0.03125 L 101,-0.71875 101,2 c 0,0.554 0.446,1 1,1 0.554,0 1,-0.446 1,-1 l 0,-8 c 0,-0.554 -0.446,-1 -1,-1 -0.554,0 -1,0.446 -1,1 l 0,2.71875 -3.34375,-3.4375 C 97.468091,-6.9132677 97.242535,-7.0031343 97,-7 z"
           style="fill:url(#linearGradient6182);fill-opacity:1;fill-rule:nonzero;stroke:none" />
        <path
           inkscape:connector-curvature="0"
           id="path4060"
           transform="matrix(0,-1,1,0,-20,147.05898)"
           d="m 97,-7 c -0.242535,0.00313 -0.503973,0.113179 -0.6875,0.3125 -0.308547,0.3351002 -0.34564,0.8398139 -0.125,1.21875 0.03905,-0.07362 0.06597,-0.1546372 0.125,-0.21875 C 96.496027,-5.886821 96.757465,-5.9969 97,-6 c 0.242535,-0.00313 0.468091,0.086732 0.65625,0.28125 l 3.34375,3.4375 0,-1 -3.34375,-3.4375 C 97.468091,-6.9132677 97.242535,-7.0031343 97,-7 z m 5,0 c -0.554,0 -1,0.446 -1,1 l 0,1 c 0,-0.554 0.446,-1 1,-1 0.554,0 1,0.446 1,1 l 0,-1 c 0,-0.554 -0.446,-1 -1,-1 z m -12,4 c -0.554,0 -1,0.446 -1,1 0,0.1879013 0.06682,0.3501348 0.15625,0.5 C 89.330483,-1.7919909 89.633901,-2 90,-2 l 8.53125,0 0,-1 z m 8.53125,2 -2.1875,2.28125 c -0.315795,0.3264675 -0.360013,0.8033621 -0.15625,1.1875 0.04184,-0.071854 0.09627,-0.1254894 0.15625,-0.1875 L 98.53125,0 z"
           style="fill:#000000;fill-opacity:1;fill-rule:nonzero;stroke:none"
           sodipodi:nodetypes="csccccccccsscscsssscsccscccccc" />
      </g>
      <path
         inkscape:connector-curvature="0"
         id="path3494"
         d="m 89,-8 c -1,0 -2,1 -2,2 l 0,9 c 0,1 1,2 2,2 l 26,0 c 1,0 2,-1 2,-2 l 0,-2 c 0,-4.179787 -6.625,-9 -13,-9 l -15,0 z m 0.875,1 14,0 C 109.825,-7 116,-2.911743 116,0.625 l 0,1.6875 C 116,3.158653 115.05833,4 114.125,4 L 89.875,4 C 88.941664,4 88,3.158653 88,2.3125 l 0,-7.625 C 88,-6.158653 88.941666,-7 89.875,-7 z"
         style="fill:url(#linearGradient6187);fill-opacity:1;fill-rule:nonzero;stroke:none" />
      <path
         id="path6200"
         d="m 89,-9 c -0.833333,0 -1.561615,0.3741152 -2.09375,0.90625 C 86.374115,-7.5616152 86,-6.8333333 86,-6 l 0,9 c 0,0.8333333 0.374115,1.5616152 0.90625,2.09375 C 87.438385,5.6258848 88.166667,6 89,6 l 26,0 c 0.83333,0 1.56162,-0.3741152 2.09375,-0.90625 C 117.62588,4.5616152 118,3.8333333 118,3 l 0,-2 c 0,-2.6182298 -1.91717,-5.0341248 -4.53125,-6.875 C 110.85467,-7.7158752 107.43954,-9 104,-9 l -15,0 z m 0,1 15,0 c 6.375,0 13,4.820213 13,9 l 0,2 c 0,1 -1,2 -2,2 L 89,5 C 88,5 87,4 87,3 l 0,-9 c 0,-1 1,-2 2,-2 z"
         style="font-size:medium;font-style:normal;font-variant:normal;font-weight:normal;font-stretch:normal;text-indent:0;text-align:start;text-decoration:none;line-height:normal;letter-spacing:normal;word-spacing:normal;text-transform:none;direction:ltr;block-progression:tb;writing-mode:lr-tb;text-anchor:start;baseline-shift:baseline;color:#000000;fill:url(#linearGradient6215);fill-opacity:1;fill-rule:nonzero;stroke:none;stroke-width:2;marker:none;visibility:visible;display:inline;overflow:visible;enable-background:accumulate;font-family:Sans;-inkscape-font-specification:Sans"
         inkscape:connector-curvature="0" />
    </g>
    <g
       id="east-maxslider">
      <path
         inkscape:connector-curvature="0"
         sodipodi:nodetypes="cccccccsc"
         id="path4023"
         d="m 136,93 0,-26 c 0,-1 1,-2 2,-2 l 10,0 c 1,0 2,1 2,2 l 0,14.941024 c 0,6.375 -5.79424,12.981054 -9.97403,12.981054 L 138,95 c -1,0.03846 -2,-1 -2,-2 z"
         style="fill:url(#linearGradient6254);fill-opacity:1;fill-rule:nonzero;stroke:none" />
      <g
         transform="matrix(0,-1,1,0,33.999999,137)"
         id="g4035">
        <path
           inkscape:connector-curvature="0"
           style="fill:#ffffff;fill-opacity:1;fill-rule:nonzero;stroke:none"
           d="m 69,108.99995 c 0,-0.554 -0.446,-1 -1,-1 l -8.5625,0 2.203125,-2.28125 c 0.376317,-0.38904 0.398304,-1.00761 0.03125,-1.40625 -0.367054,-0.39864 -0.967433,-0.42029 -1.34375,-0.0313 L 57,107.72656 57,105 c 0,-0.554 -0.446,-1 -1,-1 -0.554,0 -1,0.446 -1,1 l 0,8 c 0,0.554 0.446,1 1,1 0.554,0 1,-0.446 1,-1 l 0,-2.75391 3.34375,3.47266 c 0.376317,0.38904 0.976696,0.36739 1.34375,-0.0313 0.367054,-0.39864 0.376317,-1.01721 0,-1.40625 l -2.21875,-2.28125 8.53125,0 c 0.554,0 1,-0.446 1,-1 z"
           id="path4140"
           sodipodi:nodetypes="ccccscccsccscccscccc" />
        <path
           inkscape:connector-curvature="0"
           sodipodi:nodetypes="ccccscccsccscccscccc"
           id="rect4037"
           d="m 70,108.99995 c 0,-0.554 -0.446,-1 -1,-1 l -8.5625,0 2.203125,-2.28125 c 0.376317,-0.38904 0.398304,-1.00761 0.03125,-1.40625 -0.367054,-0.39864 -0.967433,-0.42029 -1.34375,-0.0313 L 58,107.72656 58,105 c 0,-0.554 -0.446,-1 -1,-1 -0.554,0 -1,0.446 -1,1 l 0,8 c 0,0.554 0.446,1 1,1 0.554,0 1,-0.446 1,-1 l 0,-2.75391 3.34375,3.47266 c 0.376317,0.38904 0.976696,0.36739 1.34375,-0.0313 0.367054,-0.39864 0.376317,-1.01721 0,-1.40625 l -2.21875,-2.28125 8.53125,0 c 0.554,0 1,-0.446 1,-1 z"
           style="fill:url(#linearGradient6241);fill-opacity:1;fill-rule:nonzero;stroke:none" />
        <path
           sodipodi:nodetypes="sscscssccccccccccscccccccsscsccsccscssc"
           inkscape:connector-curvature="0"
           id="path4142"
           transform="matrix(0,1,-1,0,137,-33.999999)"
           d="m 143,67 c -0.554,0 -1,0.446 -1,1 l 0,1 c 0,-0.554 0.446,-1 1,-1 0.554,0 1,0.446 1,1 l 0,-1 c 0,-0.554 -0.446,-1 -1,-1 z m 3.96875,7.03125 c -0.2531,-0.0012 -0.49298,0.09309 -0.6875,0.28125 L 144,76.53125 l 0,1 2.28125,-2.21875 c 0.38904,-0.376317 1.00761,-0.367054 1.40625,0 0.0589,0.0542 0.0827,0.124603 0.125,0.1875 0.25692,-0.372794 0.2262,-0.864172 -0.125,-1.1875 -0.19932,-0.183527 -0.46565,-0.280092 -0.71875,-0.28125 z m -7.9375,0.03125 c -0.2531,-0.0067 -0.51943,0.06647 -0.71875,0.25 -0.34353,0.316314 -0.39419,0.817352 -0.15625,1.1875 0.0443,-0.06851 0.0927,-0.128993 0.15625,-0.1875 0.39864,-0.367054 1.01721,-0.313817 1.40625,0.0625 L 142,77.5625 l 0,-1 -2.28125,-2.1875 c -0.19452,-0.188159 -0.4344,-0.305845 -0.6875,-0.3125 z M 139,79 c -0.554,0 -1,0.446 -1,1 0,0.187901 0.0668,0.350135 0.15625,0.5 C 138.33048,80.208009 138.6339,80 139,80 l 2.71875,0 -0.004,-1 z m 5.25374,0 -0.004,1 2.75,0 c 0.3661,0 0.66952,0.208009 0.84375,0.5 C 147.93318,80.350135 148,80.187901 148,80 c 0,-0.554 -0.446,-1 -1,-1 z"
           style="fill:#000000;fill-opacity:1;fill-rule:nonzero;stroke:none" />
      </g>
      <path
         inkscape:connector-curvature="0"
         id="path3611"
         d="m 138,65 c -1,0 -2,1 -2,2 l 0,26 c 0,1 1,2.038462 2,2 l 2.03125,-0.0625 c 4.17979,0 9.96875,-6.625001 9.96875,-13 L 150,67 c 0,-1 -1,-2 -2,-2 l -10,0 z m 0.71875,1 8.5625,0 c 0.85714,-3e-6 1.71875,0.939237 1.71875,1.875 l 0,13.96875 C 149,87.809237 144.02018,94 140.4375,94 l -1.71875,0.0625 C 137.86161,94.098493 137,93.123263 137,92.1875 L 137,67.875 C 137,66.939238 137.86161,66 138.71875,66 z"
         style="fill:url(#linearGradient6246);fill-opacity:1;fill-rule:nonzero;stroke:none" />
      <path
         id="path6256"
         d="m 138,64 c -0.83333,0 -1.56162,0.374115 -2.09375,0.90625 C 135.37412,65.438385 135,66.166667 135,67 l 0,26 c 0,0.833333 0.37316,1.553821 0.90625,2.09375 0.53309,0.539929 1.26682,0.939256 2.125,0.90625 l 2,-0.09375 0,0.03125 c 2.61672,0 5.22087,-1.901813 7.3125,-4.5 C 149.43538,88.839313 151,85.427967 151,81.9375 L 151,67 c 0,-0.833333 -0.37412,-1.561615 -0.90625,-2.09375 C 149.56162,64.374115 148.83333,64 148,64 l -10,0 z m 0,1 10,0 c 1,0 2,1 2,2 l 0,14.9375 c 0,6.375 -5.78896,13 -9.96875,13 L 138,95 c -1,0.03846 -2,-1 -2,-2 l 0,-26 c 0,-1 1,-2 2,-2 z"
         style="font-size:medium;font-style:normal;font-variant:normal;font-weight:normal;font-stretch:normal;text-indent:0;text-align:start;text-decoration:none;line-height:normal;letter-spacing:normal;word-spacing:normal;text-transform:none;direction:ltr;block-progression:tb;writing-mode:lr-tb;text-anchor:start;baseline-shift:baseline;color:#000000;fill:url(#linearGradient6271);fill-opacity:1;fill-rule:nonzero;stroke:none;stroke-width:2;marker:none;visibility:visible;display:inline;overflow:visible;enable-background:accumulate;font-family:Sans;-inkscape-font-specification:Sans"
         inkscape:connector-curvature="0" />
    </g>
    <g
       id="east-minslider">
      <path
         inkscape:connector-curvature="0"
         style="fill:url(#linearGradient6308);fill-opacity:1;fill-rule:nonzero;stroke:none"
         d="m 136,24 0,26 c 0,1 1,2 2,2 l 10,0 c 1,0 2,-1 2,-2 l 0,-15 c 0,-6.375 -5.82021,-13 -10,-13 l -2,0 c -1,0 -2,1 -2,2 z"
         id="path4047"
         sodipodi:nodetypes="cccccccsc" />
      <path
         inkscape:connector-curvature="0"
         style="fill:#ffffff;fill-opacity:1;fill-rule:nonzero;stroke:none"
         d="m 137.97403,42 c 0.003,0.242535 0.11318,0.472723 0.3125,0.65625 0.39864,0.367054 1.01722,0.376317 1.40625,0 l 2.28125,-2.21875 0,8.5625 c 0,0.554 0.446,1 1,1 0.554,0 1,-0.446 1,-1 l 0,-8.5625 2.28125,2.21875 c 0.38904,0.376316 1.00761,0.367054 1.40625,0 0.39864,-0.367055 0.42029,-0.967433 0.0313,-1.34375 L 144.22403,38 l 2.75,0 c 0.554,0 1,-0.446 1,-1 0,-0.554 -0.446,-1 -1,-1 l -8,0 c -0.554,0 -1,0.446 -1,1 0,0.554 0.446,1 1,1 l 2.71875,0 -3.4375,3.3125 c -0.19452,0.188159 -0.28438,0.444965 -0.28125,0.6875 z"
         id="path4049" />
      <path
         inkscape:connector-curvature="0"
         id="path4051"
         d="m 138.00008,41 c 0.003,0.242535 0.11318,0.472723 0.3125,0.65625 0.39864,0.367054 1.01722,0.376317 1.40625,0 l 2.28125,-2.21875 0,8.5625 c 0,0.554 0.446,1 1,1 0.554,0 1,-0.446 1,-1 l 0,-8.5625 2.28125,2.21875 c 0.38904,0.376316 1.00761,0.367054 1.40625,0 0.39864,-0.367055 0.42029,-0.967433 0.0313,-1.34375 L 144.25013,37 l 2.75,0 c 0.554,0 1,-0.446 1,-1 0,-0.554 -0.446,-1 -1,-1 l -8,0 c -0.554,0 -1,0.446 -1,1 0,0.554 0.446,1 1,1 l 2.71875,0 -3.4375,3.3125 C 138.08686,40.500659 137.997,40.757465 138.00013,41 z"
         style="fill:url(#linearGradient6304);fill-opacity:1;fill-rule:nonzero;stroke:none" />
      <path
         inkscape:connector-curvature="0"
         id="path3598"
         d="m 138,22 c -1,0 -2,1 -2,2 l 0,26 c 0,1 1,2 2,2 l 10,0 c 1,0 2,-1 2,-2 l 0,-15 c 0,-6.375 -5.82021,-13 -10,-13 l -2,0 z m 0.71875,1 1.71875,0 C 144.02017,23 149,29.174999 149,35.125 l 0,14 C 149,50.058332 148.13839,51 147.28125,51 l -8.5625,0 C 137.86161,51 137,50.058331 137,49.125 l 0,-24.25 C 137,23.941668 137.86161,23 138.71875,23 z"
         style="fill:url(#linearGradient6301);fill-opacity:1;fill-rule:nonzero;stroke:none" />
      <path
         inkscape:connector-curvature="0"
         id="path4074"
         d="m 139,35 c -0.554,0 -1,0.446 -1,1 0,0.187901 0.0668,0.350135 0.15625,0.5 C 138.33048,36.208009 138.6339,36 139,36 l 8,0 c 0.3661,0 0.66952,0.208009 0.84375,0.5 C 147.93318,36.350135 148,36.187901 148,36 c 0,-0.554 -0.446,-1 -1,-1 z m 2.73483,2 -3.45358,3.3125 C 138.08673,40.500659 137.99687,40.757465 138,41 c 0.002,0.170914 0.0853,0.322107 0.1875,0.46875 0.0346,-0.0515 0.0474,-0.11142 0.0937,-0.15625 L 141.71875,38 z m 2.51517,1 3.46875,3.3125 c 0.0463,0.04483 0.059,0.105834 0.0937,0.15625 0.24427,-0.363087 0.23781,-0.835497 -0.0937,-1.15625 L 144.22097,37 z"
         style="fill:#000000;fill-opacity:1;fill-rule:nonzero;stroke:none"
         sodipodi:nodetypes="sscsscsssccccccccccccc" />
      <path
         id="path6310"
         d="m 138,21 c -0.83333,0 -1.56162,0.374115 -2.09375,0.90625 C 135.37412,22.438385 135,23.166667 135,24 l 0,26 c 0,0.833333 0.37412,1.561615 0.90625,2.09375 C 136.43838,52.625885 137.16667,53 138,53 l 10,0 c 0.83333,0 1.56162,-0.374115 2.09375,-0.90625 C 150.62588,51.561615 151,50.833333 151,50 l 0,-15 c 0,-3.491825 -1.5583,-6.928743 -3.65625,-9.53125 C 145.2458,22.866243 142.61823,21 140,21 l -2,0 z m 0,1 2,0 c 4.17979,0 10,6.625 10,13 l 0,15 c 0,1 -1,2 -2,2 l -10,0 c -1,0 -2,-1 -2,-2 l 0,-26 c 0,-1 1,-2 2,-2 z"
         style="font-size:medium;font-style:normal;font-variant:normal;font-weight:normal;font-stretch:normal;text-indent:0;text-align:start;text-decoration:none;line-height:normal;letter-spacing:normal;word-spacing:normal;text-transform:none;direction:ltr;block-progression:tb;writing-mode:lr-tb;text-anchor:start;baseline-shift:baseline;color:#000000;fill:url(#linearGradient6325);fill-opacity:1;fill-rule:nonzero;stroke:none;stroke-width:2;marker:none;visibility:visible;display:inline;overflow:visible;enable-background:accumulate;font-family:Sans;-inkscape-font-specification:Sans"
         inkscape:connector-curvature="0" />
    </g>
    <g
       id="east-offsetslider">
      <path
         inkscape:connector-curvature="0"
         sodipodi:nodetypes="csszsscc"
         id="path4055"
         d="m 161,47 c 0,1 1,2 2,2 l 2.01009,0 C 168.93852,48.999999 175,42.98256 175,37 175,30.991466 169.03465,25 165.01009,25 L 163,25 c -1,0 -2,1 -2,2 l 0,20 z"
         style="fill:url(#linearGradient6357);fill-opacity:1;fill-rule:nonzero;stroke:none" />
      <path
         inkscape:connector-curvature="0"
         style="fill:#ffffff;fill-opacity:1;fill-rule:nonzero;stroke:none"
         d="m 166.34078,42.999923 c 0.24296,0.0031 0.50021,-0.08674 0.6887,-0.281281 l 3.38091,-3.531633 c 0.22717,-0.215072 0.58497,-0.532747 0.58957,-1.187628 0.005,-0.650289 -0.39347,-1.037133 -0.58957,-1.218882 l -3.38091,-3.500378 c -0.37698,-0.389083 -0.9784,-0.367431 -1.34611,0.03125 -0.36769,0.398685 -0.37698,1.017321 0,1.406404 l 2.22265,2.281497 -3.90427,0 c -0.55497,2e-6 -1.00175,0.446049 -1.00175,1.000109 0,0.554061 0.44678,1.000621 1.00175,1.000621 l 3.90427,0 -2.22265,2.280985 c -0.37698,0.389075 -0.36769,1.007716 0,1.406402 0.18386,0.199342 0.41445,0.309399 0.65741,0.312534 z"
         id="path4057"
         sodipodi:nodetypes="ccczccscccscccsc" />
      <path
         inkscape:connector-curvature="0"
         sodipodi:nodetypes="ccczccscccscccsc"
         id="path4059"
         d="m 166.34078,41.999921 c 0.24296,0.0031 0.50021,-0.08674 0.6887,-0.281281 l 3.38091,-3.531633 c 0.22717,-0.215072 0.58497,-0.532747 0.58957,-1.187628 0.005,-0.650289 -0.39347,-1.037133 -0.58957,-1.218882 l -3.38091,-3.500378 c -0.37698,-0.389083 -0.9784,-0.367431 -1.34611,0.03125 -0.36769,0.398685 -0.37698,1.017321 0,1.406404 l 2.22265,2.281497 -3.90427,0 C 163.44678,35.999272 163,36.445319 163,36.999379 163,37.55344 163.44678,38 164.00175,38 l 3.90427,0 -2.22265,2.280985 c -0.37698,0.389075 -0.36769,1.007716 0,1.406402 0.18386,0.199342 0.41445,0.309399 0.65741,0.312534 z"
         style="fill:url(#linearGradient6353);fill-opacity:1;fill-rule:nonzero;stroke:none" />
      <path
         inkscape:connector-curvature="0"
         id="path3624"
         d="m 163,25 c -1,0 -2,1 -2,2 l 0,20 c 0,1 1,2 2,2 l 2,0 c 3.92843,-10e-7 10,-6.01744 10,-12 0,-6.008534 -5.97544,-12 -10,-12 l -2,0 z m 1,1 1,0 c 4.01443,1e-6 9,5.492178 9,11 0,5.484014 -5.08145,11 -9,11 l -1,0 c -0.99749,0 -2.00001,-0.927085 -2,-1.84375 l 0,-18.3125 c 0,-0.916668 1.00251,-1.843751 2,-1.84375 z"
         style="fill:url(#linearGradient6350);fill-opacity:1;fill-rule:nonzero;stroke:none" />
      <path
         inkscape:connector-curvature="0"
         id="path4087"
         d="m 166.34375,32 c -0.24344,0.0066 -0.4724,0.113158 -0.65625,0.3125 -0.31091,0.337123 -0.34346,0.807614 -0.125,1.1875 0.0371,-0.06233 0.0742,-0.132388 0.125,-0.1875 0.36771,-0.398681 0.96677,-0.420333 1.34375,-0.03125 l 3.375,3.5 c 0.13801,0.127909 0.3727,0.36734 0.5,0.71875 0.0519,-0.142102 0.0924,-0.303536 0.0937,-0.5 0.005,-0.650289 -0.39765,-1.037001 -0.59375,-1.21875 l -3.375,-3.5 C 166.84276,32.086709 166.58719,31.993387 166.34375,32 z M 164,36 c -0.55497,0 -1,0.44594 -1,1 0,0.187922 0.0667,0.350041 0.15625,0.5 0.17232,-0.300863 0.47037,-0.499999 0.84375,-0.5 l 3.90625,0 L 166.9375,36 164,36 z m 2.9375,3 -1.25,1.28125 c -0.31877,0.328997 -0.34176,0.802 -0.125,1.1875 0.0389,-0.06601 0.0693,-0.130053 0.125,-0.1875 L 167.90625,39 166.9375,39 z"
         style="fill:#000000;fill-opacity:1;fill-rule:nonzero;stroke:none" />
      <path
         id="path6359"
         d="m 163,24 c -0.83333,0 -1.56162,0.374115 -2.09375,0.90625 C 160.37412,25.438385 160,26.166667 160,27 l 0,20 c 0,0.833333 0.37412,1.561615 0.90625,2.09375 C 161.43838,49.625885 162.16667,50 163,50 l 2,0 c 2.4748,-10e-7 5.08528,-1.698967 7.21875,-4.09375 C 174.35222,43.511467 176,40.329011 176,37 176,33.664795 174.37313,30.48783 172.25,28.09375 170.12687,25.69967 167.50852,24 165,24 l -2,0 z m 0,1 2,0 c 4.02456,0 10,5.991466 10,12 0,5.98256 -6.07157,11.999999 -10,12 l -2,0 c -1,0 -2,-1 -2,-2 l 0,-20 c 0,-1 1,-2 2,-2 z"
         style="font-size:medium;font-style:normal;font-variant:normal;font-weight:normal;font-stretch:normal;text-indent:0;text-align:start;text-decoration:none;line-height:normal;letter-spacing:normal;word-spacing:normal;text-transform:none;direction:ltr;block-progression:tb;writing-mode:lr-tb;text-anchor:start;baseline-shift:baseline;color:#000000;fill:url(#linearGradient6374);fill-opacity:1;fill-rule:nonzero;stroke:none;stroke-width:2;marker:none;visibility:visible;display:inline;overflow:visible;enable-background:accumulate;font-family:Sans;-inkscape-font-specification:Sans"
         inkscape:connector-curvature="0" />
    </g>
    <g
       id="vertical-centerindicator"
       transform="translate(1,15)">
      <rect
         style="opacity:0.14090911;fill:#000000;fill-opacity:1;fill-rule:nonzero;stroke:none"
         id="rect4223-8"
         width="42"
         height="1"
         x="11"
         y="32" />
      <rect
         y="33"
         x="11"
         height="1"
         width="42"
         id="rect4209-5"
         style="opacity:0.25909089;fill:#ffffff;fill-opacity:1;fill-rule:nonzero;stroke:none" />
      <rect
         style="opacity:0.05909089;fill:#ffffff;fill-opacity:1;fill-rule:nonzero;stroke:none"
         id="rect2706-6"
         width="42"
         height="1"
         x="11"
         y="31" />
    </g>
    <g
       id="horizontal-centerindicator"
       transform="translate(-4,17)">
      <rect
         transform="matrix(0,-1,1,0,0,0)"
         y="8"
         x="-31"
         height="1"
         width="42"
         id="rect4227-2"
         style="opacity:0.14090911;fill:#000000;fill-opacity:1;fill-rule:nonzero;stroke:none" />
      <rect
         transform="matrix(0,-1,1,0,0,0)"
         style="opacity:0.25454544;fill:#ffffff;fill-opacity:1;fill-rule:nonzero;stroke:none"
         id="rect4229-5"
         width="42"
         height="1"
         x="-31"
         y="9" />
      <rect
         y="7"
         x="-31"
         height="1"
         width="42"
         id="rect2721-2"
         style="opacity:0.09090911;fill:#ffffff;fill-opacity:1;fill-rule:nonzero;stroke:none"
         transform="matrix(0,-1,1,0,0,0)" />
    </g>
  </g>
</svg>
