<?xml version="1.0" encoding="UTF-8" standalone="no"?>
<!-- Created with Inkscape (http://www.inkscape.org/) -->

<svg
   xmlns:dc="http://purl.org/dc/elements/1.1/"
   xmlns:cc="http://creativecommons.org/ns#"
   xmlns:rdf="http://www.w3.org/1999/02/22-rdf-syntax-ns#"
   xmlns:svg="http://www.w3.org/2000/svg"
   xmlns="http://www.w3.org/2000/svg"
   xmlns:sodipodi="http://sodipodi.sourceforge.net/DTD/sodipodi-0.dtd"
   xmlns:inkscape="http://www.inkscape.org/namespaces/inkscape"
   width="744.09448819"
   height="1052.3622047"
   id="svg2"
   version="1.1"
   inkscape:version="0.47 r22583"
   sodipodi:docname="identiconshapes.svgz">
  <defs
     id="defs4" />
  <sodipodi:namedview
     id="base"
     pagecolor="#bbbbbb"
     bordercolor="#666666"
     borderopacity="1.0"
     inkscape:pageopacity="1"
     inkscape:pageshadow="2"
     inkscape:zoom="1.1158656"
     inkscape:cx="312"
     inkscape:cy="191.99359"
     inkscape:document-units="px"
     inkscape:current-layer="layer1"
     showgrid="false"
     inkscape:snap-page="false"
     inkscape:window-width="1680"
     inkscape:window-height="1003"
     inkscape:window-x="-4"
     inkscape:window-y="-3"
     inkscape:window-maximized="1" />
  <metadata
     id="metadata7">
    <rdf:RDF>
      <cc:Work
         rdf:about="">
        <dc:format>image/svg+xml</dc:format>
        <dc:type
           rdf:resource="http://purl.org/dc/dcmitype/StillImage" />
        <dc:title />
      </cc:Work>
    </rdf:RDF>
  </metadata>
  <g
     inkscape:label="Layer 1"
     inkscape:groupmode="layer"
     id="layer1">
    <g
       id="shape1"
       inkscape:label="#g3594">
      <rect
         y="988.36218"
         x="0"
         height="64"
         width="64"
         id="rect2816"
         style="fill:#ffffff;fill-opacity:1;stroke:none" />
      <rect
         style="fill:#000000;fill-opacity:1;stroke:none"
         id="rect2818"
         width="32"
         height="32"
         x="0"
         y="1020.3622" />
      <rect
         y="988.36218"
         x="32"
         height="32"
         width="32"
         id="rect2820"
         style="fill:#000000;fill-opacity:1;stroke:none" />
    </g>
    <g
       inkscape:label="#g3594"
       id="shape2"
       transform="translate(80,0)">
      <rect
         style="fill:#ffffff;fill-opacity:1;stroke:none"
         id="rect3675"
         width="64"
         height="64"
         x="0"
         y="988.36218" />
      <rect
         y="988.36218"
         x="0"
         height="32"
         width="64"
         id="rect3677"
         style="fill:#000000;fill-opacity:1;stroke:none" />
    </g>
    <g
       transform="translate(160,0)"
       id="shape3"
       inkscape:label="#g3594">
      <rect
         y="988.36218"
         x="0"
         height="64"
         width="64"
         id="rect3683"
         style="fill:#ffffff;fill-opacity:1;stroke:none" />
    </g>
    <g
       inkscape:label="#g3594"
       id="shape4"
       transform="translate(240,0)">
      <rect
         style="fill:#ffffff;fill-opacity:1;stroke:none"
         id="rect3691"
         width="64"
         height="64"
         x="0"
         y="988.36218" />
      <rect
         y="1020.3622"
         x="0"
         height="32"
         width="32"
         id="rect3693"
         style="fill:#000000;fill-opacity:1;stroke:none" />
    </g>
    <g
       inkscape:label="#g3594"
       id="shape5"
       transform="translate(320,0)">
      <rect
         style="fill:#ffffff;fill-opacity:1;stroke:none"
         id="rect3707"
         width="64"
         height="64"
         x="0"
         y="988.36218" />
      <path
         style="fill:#000000;fill-opacity:1;stroke:none"
         d="M 0,1020.3622 64.10561,988.25659 32,1052.3622 l -32,0 0,-32 z"
         id="rect3709"
         sodipodi:nodetypes="ccccc" />
    </g>
    <g
       transform="translate(400,0)"
       id="shape6"
       inkscape:label="#g3594">
      <rect
         y="988.36218"
         x="0"
         height="64"
         width="64"
         id="rect3715"
         style="fill:#ffffff;fill-opacity:1;stroke:none" />
      <path
         style="fill:#000000;fill-opacity:1;stroke:none"
         d="m 432,988.375 -32,32 0,32 32,0 32,-32 0,-32 -32,0 z"
         transform="translate(-400,0)"
         id="rect3717"
         sodipodi:nodetypes="ccccccc" />
    </g>
    <g
       inkscape:label="#g3594"
       id="shape7"
       transform="translate(480,0)">
      <rect
         style="fill:#ffffff;fill-opacity:1;stroke:none"
         id="rect3723"
         width="64"
         height="64"
         x="0"
         y="988.36218" />
      <path
         style="fill:#000000;fill-opacity:1;stroke:none"
         d="m 0,1020.3622 32,16.7921 -32,15.2079 0,-32 z"
         id="rect3725"
         sodipodi:nodetypes="cccc" />
      <path
         style="fill:#000000;fill-opacity:1;stroke:none"
         d="m 0,988.36218 32,16.79212 -32,15.2079 0,-32.00002 z"
         id="rect3727"
         sodipodi:nodetypes="cccc" />
    </g>
    <g
       transform="translate(560,0)"
       id="shape8"
       inkscape:label="#g3594">
      <rect
         y="988.36218"
         x="0"
         height="64"
         width="64"
         id="rect3731"
         style="fill:#ffffff;fill-opacity:1;stroke:none" />
      <rect
         style="fill:#000000;fill-opacity:1;stroke:none"
         id="rect3733"
         width="32"
         height="32"
         x="-721.505"
         y="721.505"
         inkscape:transform-center-x="-22.627417"
         inkscape:transform-center-y="-2.1104048e-05"
         transform="matrix(0.70710678,-0.70710678,0.70710678,0.70710678,0,0)" />
      <rect
         y="734.75983"
         x="-708.25018"
         height="32"
         width="32"
         id="rect3735"
         style="fill:#000000;fill-opacity:1;stroke:none"
         inkscape:transform-center-x="22.627434"
         inkscape:transform-center-y="-2.1104048e-05"
         transform="matrix(0.70710678,-0.70710678,0.70710678,0.70710678,0,0)" />
    </g>
    <g
       inkscape:label="#g3594"
       id="shape9"
       transform="translate(0,-120)">
      <rect
         style="fill:#ffffff;fill-opacity:1;stroke:none"
         id="rect3739"
         width="64"
         height="64"
         x="0"
         y="988.36218" />
      <rect
         y="883.65955"
         x="-883.65955"
         height="39.191837"
         width="39.191837"
         id="rect3741"
         style="fill:#000000;fill-opacity:1;stroke:none"
         inkscape:transform-center-x="-32.000001"
         inkscape:transform-center-y="-2.7792107e-05"
         transform="matrix(0.81649658,-0.57735027,0.81649658,0.57735027,0,0)" />
    </g>
    <g
       transform="translate(80,-120)"
       id="shape10"
       inkscape:label="#g3594">
      <rect
         y="988.36218"
         x="0"
         height="64"
         width="64"
         id="rect3747"
         style="fill:#ffffff;fill-opacity:1;stroke:none" />
      <rect
         style="fill:#000000;fill-opacity:1;stroke:none"
         id="rect3749"
         width="45.254833"
         height="45.254833"
         x="-721.505"
         y="721.505"
         transform="matrix(0.70710676,-0.7071068,0.70710676,0.7071068,0,0)" />
    </g>
    <g
       inkscape:label="#g3594"
       id="shape11"
       transform="translate(160,-120)">
      <rect
         style="fill:#ffffff;fill-opacity:1;stroke:none"
         id="rect3755"
         width="64"
         height="64"
         x="0"
         y="988.36218" />
      <rect
         y="1004.3622"
         x="16"
         height="32"
         width="32"
         id="rect3757"
         style="fill:#000000;fill-opacity:1;stroke:none" />
    </g>
    <g
       transform="translate(240,-120)"
       id="shape12"
       inkscape:label="#g3594">
      <rect
         y="988.36218"
         x="0"
         height="64"
         width="64"
         id="rect3763"
         style="fill:#ffffff;fill-opacity:1;stroke:none" />
      <path
         style="fill:#000000;fill-opacity:1;stroke:none"
         d="m 0,1020.3622 32.812183,0 31.187817,32 -64,0 0,-32 z"
         id="rect3765"
         sodipodi:nodetypes="ccccc" />
      <path
         style="fill:#000000;fill-opacity:1;stroke:none"
         d="m 0,988.36218 64,0 0,32.00002 -31.947282,0 L 0,988.36218 z"
         id="rect3767"
         sodipodi:nodetypes="ccccc" />
    </g>
    <g
       transform="translate(320,-120)"
       id="shape13"
       inkscape:label="#g3594">
      <rect
         y="988.36218"
         x="0"
         height="64"
         width="64"
         id="rect3771"
         style="fill:#ffffff;fill-opacity:1;stroke:none" />
      <path
         style="fill:#000000;fill-opacity:1;stroke:none"
         d="m 0,1020.3622 32,32 -32,0 0,-32 z"
         id="rect3773"
         sodipodi:nodetypes="cccc" />
      <path
         style="fill:#000000;fill-opacity:1;stroke:none"
         d="m 32,988.36218 32,32.00002 -32,0 0,-32.00002 z"
         id="rect3775"
         sodipodi:nodetypes="cccc" />
      <path
         sodipodi:nodetypes="cccc"
         id="path3962"
         d="m 0,988.36218 32,32.00002 -32,0 0,-32.00002 z"
         style="fill:#000000;fill-opacity:1;stroke:none" />
      <path
         sodipodi:nodetypes="cccc"
         id="path3964"
         d="m 32,1020.3622 32,32 -32,0 0,-32 z"
         style="fill:#000000;fill-opacity:1;stroke:none" />
    </g>
    <g
       inkscape:label="#g3594"
       id="shape14"
       transform="translate(400,-120)">
      <rect
         style="fill:#ffffff;fill-opacity:1;stroke:none"
         id="rect3779"
         width="64"
         height="64"
         x="0"
         y="988.36218" />
      <path
         style="fill:#000000;fill-opacity:1;stroke:none"
         d="M 432 868.375 L 416 884.375 L 448 884.375 L 432 868.375 z M 448 884.375 L 448 916.375 L 464 900.375 L 448 884.375 z M 448 916.375 L 416 916.375 L 432 932.375 L 448 916.375 z M 416 916.375 L 416 884.375 L 400 900.375 L 416 916.375 z "
         transform="translate(-400,120)"
         id="rect3749-8" />
    </g>
    <g
       inkscape:label="#g3594"
       id="shape16"
       transform="translate(560,-120)">
      <rect
         style="fill:#ffffff;fill-opacity:1;stroke:none"
         id="rect3795"
         width="64"
         height="64"
         x="0"
         y="988.36218" />
      <path
         style="fill:#000000;fill-opacity:1;stroke:none"
         d="m 32,988.3622 0,64 -32,0 32,-64 z"
         id="rect3797"
         sodipodi:nodetypes="cccc" />
      <path
         style="fill:#000000;fill-opacity:1;stroke:none"
         d="m 64,988.3622 0,64 -32,0 32,-64 z"
         id="rect3799"
         sodipodi:nodetypes="cccc" />
    </g>
    <g
       transform="matrix(-1,0,0,1,64,-240)"
       id="shape17"
       inkscape:label="#g3594">
      <rect
         y="988.36218"
         x="0"
         height="64"
         width="64"
         id="rect3803"
         style="fill:#ffffff;fill-opacity:1;stroke:none" />
      <path
         style="fill:#000000;fill-opacity:1;stroke:none"
         d="m 0,1020.3622 32,32 -32,0 0,-32 z"
         id="rect3805"
         sodipodi:nodetypes="cccc" />
      <path
         style="fill:#000000;fill-opacity:1;stroke:none"
         d="m 32,988.36218 32,32.00002 -32,0 0,-32.00002 z"
         id="rect3807"
         sodipodi:nodetypes="cccc" />
    </g>
    <g
       inkscape:label="#g3594"
       id="shape18"
       transform="translate(80,-240)">
      <rect
         style="fill:#ffffff;fill-opacity:1;stroke:none"
         id="rect3811"
         width="64"
         height="64"
         x="0"
         y="988.36218" />
      <path
         style="fill:#000000;fill-opacity:1;stroke:none"
         d="m 0,1020.3622 32,32 -32,0 0,-32 z"
         id="rect3813"
         sodipodi:nodetypes="cccc" />
      <path
         style="fill:#000000;fill-opacity:1;stroke:none"
         d="m 32,988.36218 32,0 0,32.00002 -32,-32.00002 z"
         id="rect3815"
         sodipodi:nodetypes="cccc" />
    </g>
    <g
       transform="matrix(-1,0,0,1,224,-240)"
       id="shape19"
       inkscape:label="#g3594">
      <rect
         y="988.36218"
         x="0"
         height="64"
         width="64"
         id="rect3819"
         style="fill:#ffffff;fill-opacity:1;stroke:none" />
      <path
         style="fill:#000000;fill-opacity:1;stroke:none"
         d="m 0,1020.3622 32,32 -32,0 0,-32 z"
         id="rect3821"
         sodipodi:nodetypes="cccc" />
      <path
         style="fill:#000000;fill-opacity:1;stroke:none"
         d="m 32,988.36218 32,0 0,32.00002 -32,-32.00002 z"
         id="rect3823"
         sodipodi:nodetypes="cccc" />
      <rect
         y="1004.3622"
         x="16"
         height="32"
         width="32"
         id="rect3757-2"
         style="fill:#000000;fill-opacity:1;stroke:none" />
    </g>
    <g
       inkscape:label="#g3594"
       id="shape20"
       transform="translate(240,-240)">
      <rect
         style="fill:#ffffff;fill-opacity:1;stroke:none"
         id="rect3827"
         width="64"
         height="64"
         x="0"
         y="988.36218" />
      <path
         style="fill:#000000;fill-opacity:1;stroke:none"
         d="m 0,1020.3622 32,0 -32,32 0,-32 z"
         id="rect3829"
         sodipodi:nodetypes="cccc" />
      <path
         style="fill:#000000;fill-opacity:1;stroke:none"
         d="m 32,988.36218 32,0 0,32.00002 -32,0 0,-32.00002 z"
         id="rect3831" />
    </g>
    <g
       inkscape:label="#g3594"
       id="shape21"
       transform="translate(320,-240)">
      <rect
         style="fill:#ffffff;fill-opacity:1;stroke:none"
         id="rect3835"
         width="64"
         height="64"
         x="0"
         y="988.36218" />
      <path
         style="fill:#000000;fill-opacity:1;stroke:none"
         d="m 0,1020.3622 32,0 0,32 -32,-32 z"
         id="rect3837"
         sodipodi:nodetypes="cccc" />
      <path
         style="fill:#000000;fill-opacity:1;stroke:none"
         d="m 32,988.36218 32,32.00002 -32,0 0,-32.00002 z"
         id="rect3839"
         sodipodi:nodetypes="cccc" />
    </g>
    <g
       transform="translate(400,-240)"
       id="shape22"
       inkscape:label="#g3594">
      <rect
         y="988.36218"
         x="0"
         height="64"
         width="64"
         id="rect3843"
         style="fill:#ffffff;fill-opacity:1;stroke:none" />
      <path
         style="fill:#000000;fill-opacity:1;stroke:none"
         d="m 0,1020.3622 64,32 -64,0 0,-32 z"
         id="rect3845"
         sodipodi:nodetypes="cccc" />
      <path
         style="fill:#000000;fill-opacity:1;stroke:none"
         d="m 0,988.36218 64,32.00002 0,-31.89472 -64,-0.1053 z"
         id="rect3847"
         sodipodi:nodetypes="cccc" />
    </g>
    <g
       inkscape:label="#g3594"
       id="shape23"
       transform="translate(480,-240)">
      <rect
         style="fill:#ffffff;fill-opacity:1;stroke:none"
         id="rect3851"
         width="64"
         height="64"
         x="0"
         y="988.36218" />
      <path
         style="fill:#000000;fill-opacity:1;stroke:none"
         d="m 0,988.3622 64,32 -64,32 0,-64 z"
         id="rect3853"
         sodipodi:nodetypes="cccc" />
    </g>
    <g
       transform="translate(560,-240)"
       id="shape24"
       inkscape:label="#g3594">
      <rect
         y="988.36218"
         x="0"
         height="64"
         width="64"
         id="rect3859"
         style="fill:#ffffff;fill-opacity:1;stroke:none" />
      <path
         style="fill:#000000;fill-opacity:1;stroke:none"
         d="m 16,1020.3622 16,32 -32,0 16,-32 z"
         id="rect3861"
         sodipodi:nodetypes="cccc" />
      <path
         style="fill:#000000;fill-opacity:1;stroke:none"
         d="m 32,988.36218 32,0 -16,32.00002 -16,-32.00002 z"
         id="rect3863"
         sodipodi:nodetypes="cccc" />
      <path
         id="path4038"
         d="m 0,988.36218 32,0 -16,32.00002 -16,-32.00002 z"
         style="fill:#000000;fill-opacity:1;stroke:none"
         sodipodi:nodetypes="cccc" />
      <path
         id="path4040"
         d="m 48,1020.3622 16,32 -32,0 16,-32 z"
         style="fill:#000000;fill-opacity:1;stroke:none"
         sodipodi:nodetypes="cccc" />
    </g>
    <g
       transform="translate(240,-320)"
       id="shape28"
       inkscape:label="#g3594">
      <rect
         y="988.36218"
         x="0"
         height="64"
         width="64"
         id="rect3891"
         style="fill:#ffffff;fill-opacity:1;stroke:none" />
      <path
         style="fill:#000000;fill-opacity:1;stroke:none"
         d="m 16,1020.3622 16,16 -16,16 -16,0 0,-16 16,-16 z"
         id="rect3893"
         sodipodi:nodetypes="cccccc" />
      <path
         style="fill:#000000;fill-opacity:1;stroke:none"
         d="m 48,988.36218 16,0 0,16.00002 -16,16 -16,-16 16,-16.00002 z"
         id="rect3895"
         sodipodi:nodetypes="cccccc" />
    </g>
    <g
       inkscape:label="#g3594"
       id="shape32"
       transform="translate(560,-320)">
      <rect
         style="fill:#ffffff;fill-opacity:1;stroke:none"
         id="rect3923"
         width="64"
         height="64"
         x="0"
         y="988.36218" />
      <path
         style="fill:#000000;fill-opacity:1;stroke:none"
         d="m 0,1020.3622 32,0 0,32 -32,0 0,-32 z"
         id="rect3925" />
      <path
         style="fill:#000000;fill-opacity:1;stroke:none"
         d="m 32,988.36218 32,0 0,32.00002 -32,-32.00002 z"
         id="rect3927"
         sodipodi:nodetypes="cccc" />
      <path
         id="path4132"
         d="m 64,1020.3622 -32,32 32,0 0,-32 z"
         style="fill:#000000;fill-opacity:1;stroke:none"
         sodipodi:nodetypes="cccc" />
      <path
         id="path4134"
         d="m 32,988.36218 -32,0 0,32.00002 32,-32.00002 z"
         style="fill:#000000;fill-opacity:1;stroke:none"
         sodipodi:nodetypes="cccc" />
    </g>
    <g
       transform="translate(480,-120)"
       id="shape15"
       inkscape:label="#g3594">
      <rect
         y="988.36218"
         x="0"
         height="64"
         width="64"
         id="rect3992"
         style="fill:#ffffff;fill-opacity:1;stroke:none" />
      <path
         style="fill:#000000;fill-opacity:1;stroke:none"
         d="m 512,868.375 -32,32 32,32 32,-32 -32,-32 z m 0,13.375 18.625,18.625 L 512,919 493.375,900.375 512,881.75 z"
         transform="translate(-480,120)"
         id="rect3990"
         sodipodi:nodetypes="cccccccccc" />
    </g>
    <g
       inkscape:label="#g3594"
       id="shape25"
       transform="matrix(0,1,-1,0,1052.3622,668.36219)">
      <rect
         style="fill:#ffffff;fill-opacity:1;stroke:none"
         id="rect4044"
         width="64"
         height="64"
         x="0"
         y="988.36218" />
      <path
         sodipodi:nodetypes="cccc"
         id="path4046"
         d="m 16,1020.3622 16,32 -32,0 16,-32 z"
         style="fill:#000000;fill-opacity:1;stroke:none" />
      <path
         sodipodi:nodetypes="cccc"
         id="path4048"
         d="m 15.999993,988.36218 32,0 -16,32.00002 -16,-32.00002 z"
         style="fill:#000000;fill-opacity:1;stroke:none" />
      <path
         sodipodi:nodetypes="cccc"
         style="fill:#000000;fill-opacity:1;stroke:none"
         d="m 48,1020.3622 16,32 -32,0 16,-32 z"
         id="path4052" />
    </g>
    <g
       transform="translate(80,-320)"
       id="shape26"
       inkscape:label="#g3594">
      <rect
         y="988.36218"
         x="0"
         height="64"
         width="64"
         id="rect4056"
         style="fill:#ffffff;fill-opacity:1;stroke:none" />
      <path
         sodipodi:nodetypes="cccc"
         id="path4058"
         d="m 0,988.3622 20.066007,32 -20.066007,32 0,-64 z"
         style="fill:#000000;fill-opacity:1;stroke:none" />
      <path
         style="fill:#000000;fill-opacity:1;stroke:none"
         d="m 0,1052.3622 32,-20.066 32,20.066 -64,0 z"
         id="path4060"
         sodipodi:nodetypes="cccc" />
      <path
         style="fill:#000000;fill-opacity:1;stroke:none"
         d="m 64,1052.3622 -20.066007,-32 20.066007,-32 0,64 z"
         id="path4062"
         sodipodi:nodetypes="cccc" />
      <path
         sodipodi:nodetypes="cccc"
         id="path4064"
         d="m 64,988.3622 -32,20.066 -32,-20.066 64,0 z"
         style="fill:#000000;fill-opacity:1;stroke:none" />
    </g>
    <g
       inkscape:label="#g3594"
       id="shape27"
       transform="translate(160,-320)">
      <rect
         style="fill:#ffffff;fill-opacity:1;stroke:none"
         id="rect4080"
         width="64"
         height="64"
         x="0"
         y="988.36218" />
      <path
         style="fill:#000000;fill-opacity:1;stroke:none"
         d="m 0,988.375 20.0625,32 -20.0625,32 32,-20.0938 32,20.0938 -20.0625,-32 L 64,988.375 32,1008.4375 0,988.375 z"
         id="rect4090" />
    </g>
    <g
       inkscape:label="#g3594"
       id="shape29"
       transform="translate(320,-320)">
      <rect
         style="fill:#ffffff;fill-opacity:1;stroke:none"
         id="rect4098"
         width="64"
         height="64"
         x="0"
         y="988.36218" />
      <path
         sodipodi:nodetypes="ccccc"
         id="path4100"
         d="m 16,1020.3622 16,16 -16,16 -16,-16 16,-16 z"
         style="fill:#000000;fill-opacity:1;stroke:none" />
      <path
         sodipodi:nodetypes="ccccc"
         id="path4102"
         d="m 48,988.36218 16,16.00002 -16,16 -16,-16 16,-16.00002 z"
         style="fill:#000000;fill-opacity:1;stroke:none" />
      <path
         style="fill:#000000;fill-opacity:1;stroke:none"
         d="m 48,1020.3622 16,16 -16,16 -16,-16 16,-16 z"
         id="path4104"
         sodipodi:nodetypes="ccccc" />
      <path
         style="fill:#000000;fill-opacity:1;stroke:none"
         d="m 16,988.36218 16,16.00002 -16,16 -16,-16 16,-16.00002 z"
         id="path4106"
         sodipodi:nodetypes="ccccc" />
    </g>
    <g
       transform="translate(400,-320)"
       id="shape30"
       inkscape:label="#g3594">
      <rect
         y="988.36218"
         x="0"
         height="64"
         width="64"
         id="rect4110"
         style="fill:#ffffff;fill-opacity:1;stroke:none" />
      <path
         style="fill:#000000;fill-opacity:1;stroke:none"
         d="m 16,1020.3622 16,16 -32,0 16,-16 z"
         id="path4112"
         sodipodi:nodetypes="cccc" />
      <path
         style="fill:#000000;fill-opacity:1;stroke:none"
         d="m 64,1004.3622 -16,16 -16,-16 32,0 z"
         id="path4114"
         sodipodi:nodetypes="cccc" />
      <path
         sodipodi:nodetypes="cccc"
         id="path4116"
         d="m 48,1020.3622 0,32 -16,-16 16,-16 z"
         style="fill:#000000;fill-opacity:1;stroke:none" />
      <path
         sodipodi:nodetypes="cccc"
         id="path4118"
         d="m 16,988.36218 16,16.00002 -16,16 0,-32.00002 z"
         style="fill:#000000;fill-opacity:1;stroke:none" />
    </g>
    <g
       transform="matrix(0,1,-1,0,1532.3622,668.36219)"
       id="shape31"
       inkscape:label="#g3594">
      <rect
         y="988.36218"
         x="0"
         height="64"
         width="64"
         id="rect4122"
         style="fill:#ffffff;fill-opacity:1;stroke:none" />
      <path
         sodipodi:nodetypes="cccc"
         id="path4124"
         d="m 18.481848,988.3622 13.518152,64 -32,0 18.481848,-64 z"
         style="fill:#000000;fill-opacity:1;stroke:none" />
      <path
         sodipodi:nodetypes="cccc"
         id="path4126"
         d="m 48.792079,988.3622 15.207921,64 -32,0 16.792079,-64 z"
         style="fill:#000000;fill-opacity:1;stroke:none" />
    </g>
  </g>
</svg>
