<?xml version="1.0" encoding="UTF-8" standalone="no"?>
<!-- Created with Inkscape (http://www.inkscape.org/) -->

<svg
   xmlns:dc="http://purl.org/dc/elements/1.1/"
   xmlns:cc="http://creativecommons.org/ns#"
   xmlns:rdf="http://www.w3.org/1999/02/22-rdf-syntax-ns#"
   xmlns:svg="http://www.w3.org/2000/svg"
   xmlns="http://www.w3.org/2000/svg"
   xmlns:xlink="http://www.w3.org/1999/xlink"
   xmlns:sodipodi="http://sodipodi.sourceforge.net/DTD/sodipodi-0.dtd"
   xmlns:inkscape="http://www.inkscape.org/namespaces/inkscape"
   id="svg11324"
   sodipodi:version="0.32"
   inkscape:version="0.48.1 r9760"
   width="50"
   height="50"
   version="1.0"
   sodipodi:docname="pager.svgz"
   inkscape:output_extension="org.inkscape.output.svgz.inkscape">
  <sodipodi:namedview
     inkscape:window-height="768"
     inkscape:window-width="986"
     inkscape:pageshadow="2"
     inkscape:pageopacity="1"
     guidetolerance="10.0"
     gridtolerance="10.0"
     objecttolerance="10.0"
     borderopacity="1.0"
     bordercolor="#666666"
     pagecolor="#989898"
     id="base"
     showgrid="true"
     inkscape:zoom="8"
     inkscape:cx="45.586705"
     inkscape:cy="25.393418"
     inkscape:window-x="210"
     inkscape:window-y="32"
     inkscape:current-layer="svg11324"
     width="50px"
     height="50px"
     inkscape:grid-points="true"
     inkscape:window-maximized="0">
    <inkscape:grid
       type="xygrid"
       id="grid3261"
       visible="true"
       enabled="true" />
  </sodipodi:namedview>
  <metadata
     id="metadata11329">
    <rdf:RDF>
      <cc:Work
         rdf:about="">
        <dc:format>image/svg+xml</dc:format>
        <dc:type
           rdf:resource="http://purl.org/dc/dcmitype/StillImage" />
      </cc:Work>
      <cc:Work
         rdf:about="">
        <dc:format>image/svg+xml</dc:format>
        <dc:type
           rdf:resource="http://purl.org/dc/dcmitype/StillImage" />
      </cc:Work>
      <cc:Work
         rdf:about="">
        <dc:format>image/svg+xml</dc:format>
        <dc:type
           rdf:resource="http://purl.org/dc/dcmitype/StillImage" />
      </cc:Work>
      <cc:Work
         rdf:about="">
        <dc:format>image/svg+xml</dc:format>
        <dc:type
           rdf:resource="http://purl.org/dc/dcmitype/StillImage" />
      </cc:Work>
    </rdf:RDF>
  </metadata>
  <defs
     id="defs11327">
    <linearGradient
       inkscape:collect="always"
       id="linearGradient5972">
      <stop
         style="stop-color:#000000;stop-opacity:1;"
         offset="0"
         id="stop5974" />
      <stop
         style="stop-color:#000000;stop-opacity:0;"
         offset="1"
         id="stop5976" />
    </linearGradient>
    <linearGradient
       id="linearGradient4261">
      <stop
         offset="0"
         style="stop-color:#ffffff;stop-opacity:1;"
         id="stop4263" />
      <stop
         offset="1"
         style="stop-color:#ffffff;stop-opacity:0;"
         id="stop4265" />
    </linearGradient>
    <linearGradient
       inkscape:collect="always"
       xlink:href="#linearGradient3372"
       id="linearGradient2342"
       gradientUnits="userSpaceOnUse"
       gradientTransform="matrix(-0.1428571,0,0,7.5757576e-2,13.015366,6.6829759)"
       x1="50.10762"
       y1="89.277901"
       x2="50.10762"
       y2="9.2778997" />
    <linearGradient
       inkscape:collect="always"
       xlink:href="#linearGradient3372"
       id="linearGradient10781"
       gradientUnits="userSpaceOnUse"
       gradientTransform="matrix(0.14285658,0,0,0.06060607,11.984609,13.95288)"
       x1="50.10762"
       y1="89.277901"
       x2="50.10762"
       y2="9.2778997" />
    <linearGradient
       inkscape:collect="always"
       xlink:href="#linearGradient3372"
       id="linearGradient10787"
       gradientUnits="userSpaceOnUse"
       gradientTransform="matrix(0.1428571,0,0,6.0606075e-2,19.984616,13.95288)"
       x1="50.10762"
       y1="89.277901"
       x2="50.10762"
       y2="9.2778997" />
    <linearGradient
       inkscape:collect="always"
       xlink:href="#linearGradient3372"
       id="linearGradient11088"
       gradientUnits="userSpaceOnUse"
       gradientTransform="matrix(0.7142857,0,0,0.1060606,29.923127,13.16754)"
       x1="50.10762"
       y1="89.277901"
       x2="50.10762"
       y2="9.2778997" />
    <linearGradient
       inkscape:collect="always"
       id="linearGradient7175">
      <stop
         id="stop7177"
         style="stop-color:#ffffff;stop-opacity:1;"
         offset="0" />
      <stop
         id="stop7179"
         style="stop-color:#ffffff;stop-opacity:0;"
         offset="1" />
    </linearGradient>
    <radialGradient
       inkscape:collect="always"
       xlink:href="#linearGradient7175"
       id="radialGradient11091"
       gradientUnits="userSpaceOnUse"
       gradientTransform="matrix(3.4479595e-2,0,0,4.5493533e-2,6.1037966,-19.739153)"
       cx="185.50665"
       cy="796.50342"
       fx="185.50665"
       fy="796.50342"
       r="72.506653" />
    <linearGradient
       inkscape:collect="always"
       xlink:href="#linearGradient3372"
       id="linearGradient11067"
       gradientUnits="userSpaceOnUse"
       gradientTransform="matrix(0.14285658,0,0,0.0605174,11.984609,1.9544125)"
       x1="50.10762"
       y1="89.277901"
       x2="50.10762"
       y2="9.2778997" />
    <linearGradient
       inkscape:collect="always"
       xlink:href="#linearGradient3372"
       id="linearGradient11071"
       gradientUnits="userSpaceOnUse"
       gradientTransform="matrix(0.1428571,0,0,6.0517401e-2,19.984616,1.9544125)"
       x1="50.10762"
       y1="89.277901"
       x2="50.10762"
       y2="9.2778997" />
    <linearGradient
       inkscape:collect="always"
       xlink:href="#linearGradient3372"
       id="linearGradient11075"
       gradientUnits="userSpaceOnUse"
       gradientTransform="matrix(0.7142857,0,0,6.0517401e-2,29.923122,1.9544125)"
       x1="50.10762"
       y1="89.277901"
       x2="50.10762"
       y2="9.2778997" />
    <linearGradient
       id="linearGradient3372">
      <stop
         offset="0"
         style="stop-color:#000000;stop-opacity:1;"
         id="stop3374" />
      <stop
         offset="0.29032257"
         style="stop-color:#0c0c0c;stop-opacity:1;"
         id="stop3376" />
      <stop
         offset="1"
         style="stop-color:#222222;stop-opacity:1;"
         id="stop3378" />
    </linearGradient>
    <linearGradient
       id="linearGradient7231">
      <stop
         id="stop7233"
         style="stop-color:#000000;stop-opacity:0.3137255;"
         offset="0" />
      <stop
         id="stop7235"
         style="stop-color:#ffffff;stop-opacity:0;"
         offset="1" />
    </linearGradient>
    <linearGradient
       inkscape:collect="always"
       xlink:href="#linearGradient5972"
       id="linearGradient2637"
       gradientUnits="userSpaceOnUse"
       gradientTransform="matrix(1,0,0,2,0,-8)"
       x1="29"
       y1="7"
       x2="29"
       y2="8" />
    <linearGradient
       inkscape:collect="always"
       xlink:href="#linearGradient5972"
       id="linearGradient2645"
       gradientUnits="userSpaceOnUse"
       x1="26"
       y1="6"
       x2="26"
       y2="8" />
    <linearGradient
       inkscape:collect="always"
       xlink:href="#linearGradient5972"
       id="linearGradient2647"
       gradientUnits="userSpaceOnUse"
       gradientTransform="matrix(0,-1,1,0,19,33)"
       x1="26"
       y1="6"
       x2="26"
       y2="8" />
    <radialGradient
       inkscape:collect="always"
       xlink:href="#linearGradient5972"
       id="radialGradient2653"
       gradientUnits="userSpaceOnUse"
       gradientTransform="matrix(0,5,-2,0,44,-117)"
       cx="25"
       cy="9.5"
       fx="25"
       fy="9.5"
       r="1" />
    <radialGradient
       inkscape:collect="always"
       xlink:href="#linearGradient5972"
       id="radialGradient2657"
       gradientUnits="userSpaceOnUse"
       gradientTransform="matrix(0,-5,-2,0,44,138)"
       cx="25"
       cy="9.5"
       fx="25"
       fy="9.5"
       r="1" />
    <linearGradient
       inkscape:collect="always"
       xlink:href="#linearGradient5972"
       id="linearGradient2661"
       gradientUnits="userSpaceOnUse"
       x1="29"
       y1="15"
       x2="29"
       y2="13" />
    <radialGradient
       inkscape:collect="always"
       xlink:href="#linearGradient5972"
       id="radialGradient2665"
       gradientUnits="userSpaceOnUse"
       gradientTransform="matrix(0,5,-2,0,44,-117)"
       cx="25"
       cy="9.5"
       fx="25"
       fy="9.5"
       r="1" />
    <linearGradient
       inkscape:collect="always"
       xlink:href="#linearGradient5972"
       id="linearGradient2673"
       gradientUnits="userSpaceOnUse"
       x1="26"
       y1="6"
       x2="26"
       y2="8" />
    <linearGradient
       inkscape:collect="always"
       xlink:href="#linearGradient5972"
       id="linearGradient2675"
       gradientUnits="userSpaceOnUse"
       gradientTransform="matrix(0,-1,1,0,19,33)"
       x1="26"
       y1="6"
       x2="26"
       y2="8" />
    <linearGradient
       inkscape:collect="always"
       xlink:href="#linearGradient5972"
       id="linearGradient2681"
       gradientUnits="userSpaceOnUse"
       x1="26"
       y1="6"
       x2="26"
       y2="8" />
    <linearGradient
       inkscape:collect="always"
       xlink:href="#linearGradient5972"
       id="linearGradient2683"
       gradientUnits="userSpaceOnUse"
       gradientTransform="matrix(0,-1,1,0,19,33)"
       x1="26"
       y1="6"
       x2="26"
       y2="8" />
    <linearGradient
       inkscape:collect="always"
       xlink:href="#linearGradient5972"
       id="linearGradient2687"
       gradientUnits="userSpaceOnUse"
       x1="26"
       y1="6"
       x2="26"
       y2="8" />
    <linearGradient
       inkscape:collect="always"
       xlink:href="#linearGradient5972"
       id="linearGradient2689"
       gradientUnits="userSpaceOnUse"
       gradientTransform="matrix(0,-1,1,0,19,33)"
       x1="26"
       y1="6"
       x2="26"
       y2="8" />
    <linearGradient
       inkscape:collect="always"
       xlink:href="#linearGradient3372"
       id="linearGradient3072"
       gradientUnits="userSpaceOnUse"
       gradientTransform="matrix(-0.1428571,0,0,0.07575758,5.015366,6.6829759)"
       x1="50.10762"
       y1="89.277901"
       x2="50.10762"
       y2="9.2778997" />
    <radialGradient
       inkscape:collect="always"
       xlink:href="#linearGradient8734"
       id="radialGradient4655"
       gradientUnits="userSpaceOnUse"
       gradientTransform="matrix(0.06792404,-1.5772391e-7,0,0.2845765,242.35364,65.72604)"
       cx="355.5"
       cy="231.10249"
       fx="355.5"
       fy="231.10249"
       r="70" />
    <linearGradient
       id="linearGradient8734"
       inkscape:collect="always">
      <stop
         id="stop8736"
         offset="0"
         style="stop-color:#ffffff;stop-opacity:1;" />
      <stop
         id="stop8738"
         offset="1"
         style="stop-color:#ffffff;stop-opacity:0;" />
    </linearGradient>
    <radialGradient
       inkscape:collect="always"
       xlink:href="#linearGradient8734"
       id="radialGradient3791"
       gradientUnits="userSpaceOnUse"
       gradientTransform="matrix(0.06792404,-1.5772391e-7,0,0.2845765,242.35364,65.72604)"
       cx="355.5"
       cy="231.10249"
       fx="355.5"
       fy="231.10249"
       r="70" />
    <radialGradient
       r="70"
       fy="231.10249"
       fx="355.5"
       cy="231.10249"
       cx="355.5"
       gradientTransform="matrix(0.06792404,-1.5772391e-7,0,0.2845765,242.35364,65.72604)"
       gradientUnits="userSpaceOnUse"
       id="radialGradient5021"
       xlink:href="#linearGradient8734"
       inkscape:collect="always" />
  </defs>
  <path
     style="opacity:0;fill:url(#linearGradient2342);fill-opacity:1;stroke:none;stroke-width:1;stroke-linecap:round;stroke-linejoin:round;stroke-miterlimit:4;stroke-dasharray:none;stroke-dashoffset:1.08779998;stroke-opacity:1"
     d="M 16.999996,7.9918759 L 16.999996,12.991875 L 15.999996,12.991875 L 15.999996,7.9918759 L 16.999996,7.9918759 z "
     id="right" />
  <rect
     style="opacity:0.875;fill:#008000;fill-opacity:1;stroke:none;stroke-width:0;stroke-miterlimit:4;stroke-dasharray:none;stroke-opacity:1"
     id="hint-stretch-borders"
     width="1"
     height="0.99414408"
     x="1.1607215"
     y="1.2080072" />
  <path
     style="opacity:0;fill:url(#linearGradient10781);fill-opacity:1;stroke:none"
     d="m 8,15 0,4 0.999996,0 0,-4 L 8,15 z"
     id="bottomleft"
     inkscape:label="#normal-bottomleft" />
  <path
     inkscape:label="#normal-bottomright"
     id="bottomright"
     d="M 15.999996,15 L 15.999996,19 L 16.999996,19 L 16.999996,15 L 15.999996,15 z"
     style="opacity:0;fill:url(#linearGradient10787);fill-opacity:1;stroke:none;stroke-width:1;stroke-linecap:round;stroke-linejoin:round;stroke-miterlimit:4;stroke-dasharray:none;stroke-dashoffset:1.08779998;stroke-opacity:1" />
  <rect
     height="5.0021462"
     x="9.9999847"
     y="7.9919968"
     width="5.0000095"
     id="center"
     style="fill:#000000;fill-opacity:0;stroke:none;stroke-width:1;stroke-linecap:round;stroke-linejoin:round;stroke-miterlimit:4;stroke-dasharray:1, 1;stroke-dashoffset:0;stroke-opacity:1" />
  <g
     id="bottom"
     transform="matrix(1,0,0,0.5714286,9.5367432e-6,6.4285713)">
    <rect
       height="1.0068054"
       x="9.9999905"
       y="15.993195"
       width="5"
       id="rect7173"
       style="opacity:0;fill:url(#radialGradient11091);fill-opacity:1;stroke:none;stroke-width:1;stroke-linecap:round;stroke-linejoin:round;stroke-miterlimit:4;stroke-dasharray:1, 1;stroke-dashoffset:0;stroke-opacity:1" />
    <path
       style="opacity:0;fill:url(#linearGradient11088);fill-opacity:1;stroke:none;stroke-width:1;stroke-linecap:round;stroke-linejoin:round;stroke-miterlimit:4;stroke-dasharray:none;stroke-dashoffset:1.08779998;stroke-opacity:1"
       d="M 10,15 L 10,22 L 15,22 L 15,15 L 10,15 z"
       id="path11057"
       inkscape:label="#normal-bottomleft" />
  </g>
  <path
     inkscape:label="#normal-topleft"
     id="topleft"
     d="m 8,3 0,3.9941449 0.999996,0 L 8.999996,3 8,3 z"
     style="opacity:0;fill:url(#linearGradient11067);fill-opacity:1;stroke:none" />
  <path
     style="opacity:0;fill:url(#linearGradient11071);fill-opacity:1;stroke:none;stroke-width:1;stroke-linecap:round;stroke-linejoin:round;stroke-miterlimit:4;stroke-dasharray:none;stroke-dashoffset:1.08779998;stroke-opacity:1"
     d="M 15.999996,3 L 15.999996,6.9941449 L 16.999996,6.9941449 L 16.999996,3 L 15.999996,3 z"
     id="topright"
     inkscape:label="#normal-topright" />
  <path
     style="opacity:0;fill:url(#linearGradient11075);fill-opacity:1;stroke:none;stroke-width:1;stroke-linecap:round;stroke-linejoin:round;stroke-miterlimit:4;stroke-dasharray:none;stroke-dashoffset:1.08779998;stroke-opacity:1"
     d="M 9.999996,3 L 9.999996,6.9941449 L 14.999996,6.9941449 L 14.999996,3 L 9.999996,3 z"
     id="top"
     inkscape:label="#normal-top" />
  <path
     id="left"
     d="m 8.999996,7.9918759 0,4.9999991 -1,0 0,-4.9999991 1,0 z"
     style="opacity:0;fill:url(#linearGradient3072);fill-opacity:1;stroke:none" />
  <g
     id="normal-center"
     transform="translate(-225,-102)">
    <path
       id="rect8669"
       d="m 264,112 0,5 5,0 0,-5 -5,0 z"
       style="fill:#000000;fill-opacity:0.07843137;fill-rule:nonzero;stroke:none"
       inkscape:connector-curvature="0" />
  </g>
  <g
     id="normal-topleft"
     transform="translate(-226,-103)">
    <path
       inkscape:connector-curvature="0"
       sodipodi:nodetypes="cccccc"
       id="path4447"
       d="m 263,108 c -1.68216,0 -3,1.31784 -3,3 l 0,1 4,0 0,-4 z"
       style="fill:#000000;fill-opacity:0.07843137;fill-rule:nonzero;stroke:none" />
    <path
       sodipodi:nodetypes="ssccssccs"
       inkscape:connector-curvature="0"
       id="path4451"
       d="M 263.00414,107 C 260.92932,107 259,108.75191 259,110.99813 l 0,1.00187 1,0 0,-1.00187 C 260,109.30342 261.32448,108 263.00414,108 l 0.99586,0 0,-1 z"
       style="fill:#ffffff;fill-opacity:0.19607843;fill-rule:nonzero;stroke:none" />
    <path
       sodipodi:nodetypes="ssccssccs"
       inkscape:connector-curvature="0"
       id="path3881"
       transform="translate(259,107)"
       d="M 4.0215891,1 C 2.1753913,1 1,2.3394291 1,4.0215891 L 1,5 2,5 2,4 C 2,2.73838 2.73838,2 4,2 L 5,2 5,1 z"
       style="fill:#000000;fill-opacity:0.23529412;fill-rule:nonzero;stroke:none" />
    <path
       id="path3900"
       transform="translate(259,107)"
       d="M 4,2 C 3.770534,2 3.5685529,2.014942 3.375,2.0625 3.321873,2.072654 3.2703766,2.081171 3.21875,2.09375 3.198182,2.10043 3.176341,2.117755 3.15625,2.125 3.14666,2.12756 3.134533,2.12236 3.125,2.125 2.4012289,2.3975685 2,3.0648342 2,4 L 2,5 C 2,3.73838 2.73838,3 4,3 L 5,3 5,2 4,2 z"
       style="fill:#000000;fill-opacity:0.09019608;fill-rule:nonzero;stroke:none"
       inkscape:connector-curvature="0" />
  </g>
  <g
     id="normal-left"
     transform="translate(-226,-102)">
    <path
       id="path4493"
       d="m 259,112 0,5 1,0 0,-5 -1,0 z"
       style="fill:#ffffff;fill-opacity:0.19607843;fill-rule:nonzero;stroke:none"
       inkscape:connector-curvature="0" />
    <path
       id="path4489"
       d="m 260,112 0,5 4,0 0,-5 -4,0 z"
       style="fill:#000000;fill-opacity:0.07843137;fill-rule:nonzero;stroke:none"
       inkscape:connector-curvature="0" />
    <path
       inkscape:connector-curvature="0"
       style="fill:#000000;fill-opacity:0.23529412;fill-rule:nonzero;stroke:none"
       d="m 260,112 0,5 1,0 0,-5 -1,0 z"
       id="path3884" />
  </g>
  <g
     id="normal-top"
     transform="translate(-225,-103)">
    <path
       id="path4543"
       d="m 264,108 0,4 5,0 0,-4 -5,0 z"
       style="fill:#000000;fill-opacity:0.07843137;fill-rule:nonzero;stroke:none"
       inkscape:connector-curvature="0" />
    <path
       id="path4545"
       d="m 264,107 0,1 5,0 0,-1 -5,0 z"
       style="fill:url(#radialGradient4655);fill-opacity:1;fill-rule:nonzero;stroke:none"
       inkscape:connector-curvature="0" />
    <path
       sodipodi:nodetypes="ccccc"
       inkscape:connector-curvature="0"
       id="path4547"
       d="m 264,107 0,1 5,0 0,-1 z"
       style="fill:#ffffff;fill-opacity:0.19607843;fill-rule:nonzero;stroke:none" />
    <path
       inkscape:connector-curvature="0"
       style="fill:#000000;fill-opacity:0.23529412;fill-rule:nonzero;stroke:none"
       d="m 264,108 0,1 5,0 0,-1 -5,0 z"
       id="path3877" />
    <path
       id="path3908"
       d="m 264,109 0,1 5,0 0,-1 -5,0 z"
       style="fill:#000000;fill-opacity:0.09019608;fill-rule:nonzero;stroke:none"
       inkscape:connector-curvature="0" />
  </g>
  <g
     id="normal-bottomleft"
     transform="translate(-226,-101)">
    <path
       sodipodi:nodetypes="cssccsscc"
       inkscape:connector-curvature="0"
       id="path4470"
       d="m 259,117 0,1 c 0,2.11953 1.8499,4 4,4 l 1,0 0,-1 -1,0 c -1.73084,0 -3,-1.35522 -3,-3 l 0,-1 z"
       style="fill:#ffffff;fill-opacity:0.19607843;fill-rule:nonzero;stroke:none" />
    <path
       inkscape:connector-curvature="0"
       sodipodi:nodetypes="cccccc"
       id="path4468"
       d="m 260,117 0,1 c 0,1.68216 1.31785,3 3,3 l 1,0 0,-4 z"
       style="fill:#000000;fill-opacity:0.07843137;fill-rule:nonzero;stroke:none" />
    <path
       sodipodi:nodetypes="cssccsscc"
       inkscape:connector-curvature="0"
       id="path3892"
       transform="translate(259,105)"
       d="m 1,12 0,1.028884 C 1,14.711044 2.3015842,16 3.9837342,16 L 5,16 5,15 4.3274842,15 C 3.0658742,15 2,13.946754 2,12.685134 L 2,12 z"
       style="fill:#000000;fill-opacity:0.21568627;fill-rule:nonzero;stroke:none" />
  </g>
  <g
     id="normal-bottom"
     transform="translate(-225,-101)">
    <path
       id="path4520"
       d="m 264,121 0,1 5,0 0,-1 -5,0 z"
       style="fill:#ffffff;fill-opacity:0.19607843;fill-rule:nonzero;stroke:none"
       inkscape:connector-curvature="0" />
    <path
       id="path4516"
       d="m 264,117 0,4 5,0 0,-4 -5,0 z"
       style="fill:#000000;fill-opacity:0.07843137;fill-rule:nonzero;stroke:none"
       inkscape:connector-curvature="0" />
    <path
       sodipodi:nodetypes="ccccc"
       inkscape:connector-curvature="0"
       style="fill:#000000;fill-opacity:0.21568627;fill-rule:nonzero;stroke:none"
       d="m 264,120 0,1 5,0 0,-1 z"
       id="path3888" />
  </g>
  <g
     id="normal-topright"
     transform="translate(-224,-103)">
    <path
       inkscape:connector-curvature="0"
       sodipodi:nodetypes="cccccc"
       id="path4426"
       d="m 269,108 0,4 4,0 0,-0.95329 C 273,109.36455 271.6733,108 269.99115,108 z"
       style="fill:#000000;fill-opacity:0.07843137;fill-rule:nonzero;stroke:none" />
    <path
       sodipodi:nodetypes="ccssccssc"
       inkscape:connector-curvature="0"
       id="path4430"
       d="m 269,107 0,1 1.01449,0 c 1.78064,0 2.98551,1.55504 2.98551,2.95953 l 0,1.04047 1,0 0,-1.04047 C 274,109.01614 272.35431,107 270.01449,107 z"
       style="fill:#ffffff;fill-opacity:0.19607843;fill-rule:nonzero;stroke:none" />
    <path
       sodipodi:nodetypes="ccssccssc"
       inkscape:connector-curvature="0"
       id="path3874"
       transform="translate(257,107)"
       d="m 12,1 0,1 1,0 c 1.26161,0 2,0.73838 2,2 l 0,1 1,0 0,-0.9784109 C 16,2.3394291 14.673179,1 12.991029,1 z"
       style="fill:#000000;fill-opacity:0.23529412;fill-rule:nonzero;stroke:none" />
    <path
       id="path3910"
       transform="translate(257,107)"
       d="m 12,2 0,1 1,0 c 1.26161,0 2,0.73838 2,2 L 15,4 C 15,3.0989864 14.612342,2.476399 13.9375,2.1875 13.903151,2.1760268 13.878667,2.1352659 13.84375,2.125 13.767542,2.0975198 13.676745,2.0817109 13.59375,2.0625 13.541326,2.0518936 13.490941,2.0391386 13.4375,2.03125 13.29657,2.0085958 13.157701,2 13,2 l -1,0 z"
       style="fill:#000000;fill-opacity:0.09019608;fill-rule:nonzero;stroke:none"
       inkscape:connector-curvature="0" />
  </g>
  <g
     id="normal-right"
     transform="translate(-224,-102)">
    <path
       id="path4574"
       d="m 273,112 0,5 1,0 0,-5 -1,0 z"
       style="fill:#ffffff;fill-opacity:0.19607843;fill-rule:nonzero;stroke:none"
       inkscape:connector-curvature="0" />
    <path
       id="path4570"
       d="m 269,112 0,5 4,0 0,-5 -4,0 z"
       style="fill:#000000;fill-opacity:0.07843137;fill-rule:nonzero;stroke:none"
       inkscape:connector-curvature="0" />
    <path
       sodipodi:nodetypes="ccccc"
       inkscape:connector-curvature="0"
       style="fill:#000000;fill-opacity:0.23529412;fill-rule:nonzero;stroke:none"
       d="m 272,112 0,5 1,0 0,-5 z"
       id="path3886" />
  </g>
  <g
     id="normal-bottomright"
     transform="translate(-224,-101)">
    <path
       sodipodi:nodetypes="cssccsscc"
       inkscape:connector-curvature="0"
       id="path4404"
       d="m 273,117 0,1 c 0,1.5651 -1.19272,3 -3,3 l -1,0 0,1 1,0 c 2.21632,0 4,-1.75325 4,-4 l 0,-1 z"
       style="fill:#ffffff;fill-opacity:0.19607843;fill-rule:nonzero;stroke:none" />
    <path
       inkscape:connector-curvature="0"
       sodipodi:nodetypes="cccccc"
       id="path4400"
       d="m 269,117 0,4 1,0 c 1.50538,0 3,-1.16875 3,-3 l 0,-1 z"
       style="fill:#000000;fill-opacity:0.07843137;fill-rule:nonzero;stroke:none" />
    <path
       sodipodi:nodetypes="cssccsscc"
       inkscape:connector-curvature="0"
       id="path3897"
       transform="translate(257,105)"
       d="m 15,12 0,1 c 0,1.37344 -0.87096,2 -2,2 l -1,0 0,1 1,0 c 1.50538,0 3,-1.173019 3,-3.004269 L 16,12 z"
       style="fill:#000000;fill-opacity:0.21568627;fill-rule:nonzero;stroke:none" />
  </g>
  <g
     transform="translate(-208,-85)"
     id="active-center">
    <path
       inkscape:connector-curvature="0"
       style="fill:#000000;fill-opacity:0.07843137;fill-rule:nonzero;stroke:none"
       d="m 264,112 0,5 5,0 0,-5 -5,0 z"
       id="path3717" />
  </g>
  <g
     transform="translate(-209,-86)"
     id="active-topleft">
    <path
       style="fill:#000000;fill-opacity:0.07843137;fill-rule:nonzero;stroke:none"
       d="m 263,108 c -1.68216,0 -3,1.31784 -3,3 l 0,1 4,0 0,-4 z"
       id="path3721"
       sodipodi:nodetypes="cccccc"
       inkscape:connector-curvature="0" />
    <path
       style="fill:#ffffff;fill-opacity:0.39215687;fill-rule:nonzero;stroke:none"
       d="M 263.00414,107 C 260.92932,107 259,108.75191 259,110.99813 l 0,1.00187 1,0 0,-1.00187 C 260,109.30342 261.32448,108 263.00414,108 l 0.99586,0 0,-1 z"
       id="path3723"
       inkscape:connector-curvature="0"
       sodipodi:nodetypes="ssccssccs" />
    <path
       style="fill:#000000;fill-opacity:0.29411766;fill-rule:nonzero;stroke:none"
       d="M 4.0215891,1 C 2.1753913,1 1,2.3394291 1,4.0215891 L 1,5 2,5 2,4 C 2,2.73838 2.73838,2 4,2 L 5,2 5,1 z"
       transform="translate(259,107)"
       id="path3725"
       inkscape:connector-curvature="0"
       sodipodi:nodetypes="ssccssccs" />
    <path
       inkscape:connector-curvature="0"
       style="fill:#000000;fill-opacity:0.15686275;fill-rule:nonzero;stroke:none"
       d="M 4,2 C 3.770534,2 3.5685529,2.014942 3.375,2.0625 3.321873,2.072654 3.2703766,2.081171 3.21875,2.09375 3.198182,2.10043 3.176341,2.117755 3.15625,2.125 3.14666,2.12756 3.134533,2.12236 3.125,2.125 2.4012289,2.3975685 2,3.0648342 2,4 L 2,5 C 2,3.73838 2.73838,3 4,3 L 5,3 5,2 4,2 z"
       transform="translate(259,107)"
       id="path3727" />
  </g>
  <g
     transform="translate(-209,-85)"
     id="active-left">
    <path
       inkscape:connector-curvature="0"
       style="fill:#ffffff;fill-opacity:0.39215687;fill-rule:nonzero;stroke:none"
       d="m 259,112 0,5 1,0 0,-5 -1,0 z"
       id="path3731" />
    <path
       inkscape:connector-curvature="0"
       style="fill:#000000;fill-opacity:0.07843137;fill-rule:nonzero;stroke:none"
       d="m 260,112 0,5 4,0 0,-5 -4,0 z"
       id="path3733" />
    <path
       id="path3735"
       d="m 260,112 0,5 1,0 0,-5 -1,0 z"
       style="fill:#000000;fill-opacity:0.23529412;fill-rule:nonzero;stroke:none"
       inkscape:connector-curvature="0" />
  </g>
  <g
     transform="translate(-208,-86)"
     id="active-top">
    <path
       inkscape:connector-curvature="0"
       style="fill:#000000;fill-opacity:0.07843137;fill-rule:nonzero;stroke:none"
       d="m 264,108 0,4 5,0 0,-4 -5,0 z"
       id="path3739" />
    <path
       inkscape:connector-curvature="0"
       style="fill:url(#radialGradient3791);fill-opacity:1;fill-rule:nonzero;stroke:none"
       d="m 264,107 0,1 5,0 0,-1 -5,0 z"
       id="path3741" />
    <path
       style="fill:#ffffff;fill-opacity:0.39215687;fill-rule:nonzero;stroke:none"
       d="m 264,107 0,1 5,0 0,-1 z"
       id="path3743"
       inkscape:connector-curvature="0"
       sodipodi:nodetypes="ccccc" />
    <path
       id="path3745"
       d="m 264,108 0,1 5,0 0,-1 -5,0 z"
       style="fill:#000000;fill-opacity:0.29411766;fill-rule:nonzero;stroke:none"
       inkscape:connector-curvature="0" />
    <path
       inkscape:connector-curvature="0"
       style="fill:#000000;fill-opacity:0.15686275;fill-rule:nonzero;stroke:none"
       d="m 264,109 0,1 5,0 0,-1 -5,0 z"
       id="path3747" />
  </g>
  <g
     transform="translate(-209,-84)"
     id="active-bottomleft">
    <path
       style="fill:#ffffff;fill-opacity:0.39215687;fill-rule:nonzero;stroke:none"
       d="m 259,117 0,1 c 0,2.11953 1.8499,4 4,4 l 1,0 0,-1 -1,0 c -1.73084,0 -3,-1.35522 -3,-3 l 0,-1 z"
       id="path3751"
       inkscape:connector-curvature="0"
       sodipodi:nodetypes="cssccsscc" />
    <path
       style="fill:#000000;fill-opacity:0.07843137;fill-rule:nonzero;stroke:none"
       d="m 260,117 0,1 c 0,1.68216 1.31785,3 3,3 l 1,0 0,-4 z"
       id="path3753"
       sodipodi:nodetypes="cccccc"
       inkscape:connector-curvature="0" />
    <path
       style="fill:#000000;fill-opacity:0.29411766;fill-rule:nonzero;stroke:none"
       d="m 1,12 0,1.028884 C 1,14.711044 2.3015842,16 3.9837342,16 L 5,16 5,15 4.3274842,15 C 3.0658742,15 2,13.946754 2,12.685134 L 2,12 z"
       transform="translate(259,105)"
       id="path3755"
       inkscape:connector-curvature="0"
       sodipodi:nodetypes="cssccsscc" />
  </g>
  <g
     transform="translate(-208,-84)"
     id="active-bottom">
    <path
       inkscape:connector-curvature="0"
       style="fill:#ffffff;fill-opacity:0.39215687;fill-rule:nonzero;stroke:none"
       d="m 264,121 0,1 5,0 0,-1 -5,0 z"
       id="path3759" />
    <path
       inkscape:connector-curvature="0"
       style="fill:#000000;fill-opacity:0.07843137;fill-rule:nonzero;stroke:none"
       d="m 264,117 0,4 5,0 0,-4 -5,0 z"
       id="path3761" />
    <path
       id="path3763"
       d="m 264,120 0,1 5,0 0,-1 z"
       style="fill:#000000;fill-opacity:0.29411766;fill-rule:nonzero;stroke:none"
       inkscape:connector-curvature="0"
       sodipodi:nodetypes="ccccc" />
  </g>
  <g
     transform="translate(-207,-86)"
     id="active-topright">
    <path
       style="fill:#000000;fill-opacity:0.07843137;fill-rule:nonzero;stroke:none"
       d="m 269,108 0,4 4,0 0,-0.95329 C 273,109.36455 271.6733,108 269.99115,108 z"
       id="path3767"
       sodipodi:nodetypes="cccccc"
       inkscape:connector-curvature="0" />
    <path
       style="fill:#ffffff;fill-opacity:0.39215687;fill-rule:nonzero;stroke:none"
       d="m 269,107 0,1 1.01449,0 c 1.78064,0 2.98551,1.55504 2.98551,2.95953 l 0,1.04047 1,0 0,-1.04047 C 274,109.01614 272.35431,107 270.01449,107 z"
       id="path3769"
       inkscape:connector-curvature="0"
       sodipodi:nodetypes="ccssccssc" />
    <path
       style="fill:#000000;fill-opacity:0.29411766;fill-rule:nonzero;stroke:none"
       d="m 12,1 0,1 1,0 c 1.26161,0 2,0.73838 2,2 l 0,1 1,0 0,-0.9784109 C 16,2.3394291 14.673179,1 12.991029,1 z"
       transform="translate(257,107)"
       id="path3771"
       inkscape:connector-curvature="0"
       sodipodi:nodetypes="ccssccssc" />
    <path
       inkscape:connector-curvature="0"
       style="fill:#000000;fill-opacity:0.15686275;fill-rule:nonzero;stroke:none"
       d="m 12,2 0,1 1,0 c 1.26161,0 2,0.73838 2,2 L 15,4 C 15,3.0989864 14.612342,2.476399 13.9375,2.1875 13.903151,2.1760268 13.878667,2.1352659 13.84375,2.125 13.767542,2.0975198 13.676745,2.0817109 13.59375,2.0625 13.541326,2.0518936 13.490941,2.0391386 13.4375,2.03125 13.29657,2.0085958 13.157701,2 13,2 l -1,0 z"
       transform="translate(257,107)"
       id="path3773" />
  </g>
  <g
     transform="translate(-207,-85)"
     id="active-right">
    <path
       inkscape:connector-curvature="0"
       style="fill:#ffffff;fill-opacity:0.39215687;fill-rule:nonzero;stroke:none"
       d="m 273,112 0,5 1,0 0,-5 -1,0 z"
       id="path3777" />
    <path
       inkscape:connector-curvature="0"
       style="fill:#000000;fill-opacity:0.07843137;fill-rule:nonzero;stroke:none"
       d="m 269,112 0,5 4,0 0,-5 -4,0 z"
       id="path3779" />
    <path
       id="path3781"
       d="m 272,112 0,5 1,0 0,-5 z"
       style="fill:#000000;fill-opacity:0.29411766;fill-rule:nonzero;stroke:none"
       inkscape:connector-curvature="0"
       sodipodi:nodetypes="ccccc" />
  </g>
  <g
     transform="translate(-207,-84)"
     id="active-bottomright">
    <path
       style="fill:#ffffff;fill-opacity:0.39215687;fill-rule:nonzero;stroke:none"
       d="m 273,117 0,1 c 0,1.5651 -1.19272,3 -3,3 l -1,0 0,1 1,0 c 2.21632,0 4,-1.75325 4,-4 l 0,-1 z"
       id="path3785"
       inkscape:connector-curvature="0"
       sodipodi:nodetypes="cssccsscc" />
    <path
       style="fill:#000000;fill-opacity:0.07843137;fill-rule:nonzero;stroke:none"
       d="m 269,117 0,4 1,0 c 1.50538,0 3,-1.16875 3,-3 l 0,-1 z"
       id="path3787"
       sodipodi:nodetypes="cccccc"
       inkscape:connector-curvature="0" />
    <path
       style="fill:#000000;fill-opacity:0.29411766;fill-rule:nonzero;stroke:none"
       d="m 15,12 0,1 c 0,1.37344 -0.87096,2 -2,2 l -1,0 0,1 1,0 c 1.50538,0 3,-1.173019 3,-3.004269 L 16,12 z"
       transform="translate(257,105)"
       id="path3789"
       inkscape:connector-curvature="0"
       sodipodi:nodetypes="cssccsscc" />
  </g>
  <g
     id="hover-center"
     transform="translate(-226,-79)">
    <path
       id="path4947"
       d="m 264,112 0,5 5,0 0,-5 -5,0 z"
       style="fill:#ffffff;fill-opacity:0.07843138;fill-rule:nonzero;stroke:none"
       inkscape:connector-curvature="0" />
  </g>
  <g
     id="hover-topleft"
     transform="translate(-227,-80)">
    <path
       inkscape:connector-curvature="0"
       sodipodi:nodetypes="cccccc"
       id="path4951"
       d="m 263,108 c -1.68216,0 -3,1.31784 -3,3 l 0,1 4,0 0,-4 z"
       style="fill:#ffffff;fill-opacity:0.07843138;fill-rule:nonzero;stroke:none" />
    <path
       sodipodi:nodetypes="ssccssccs"
       inkscape:connector-curvature="0"
       id="path4953"
       d="M 263.00414,107 C 260.92932,107 259,108.75191 259,110.99813 l 0,1.00187 1,0 0,-1.00187 C 260,109.30342 261.32448,108 263.00414,108 l 0.99586,0 0,-1 z"
       style="fill:#ffffff;fill-opacity:0.627451;fill-rule:nonzero;stroke:none" />
    <path
       sodipodi:nodetypes="ssccssccs"
       inkscape:connector-curvature="0"
       id="path4955"
       transform="translate(259,107)"
       d="M 4.0215891,1 C 2.1753913,1 1,2.3394291 1,4.0215891 L 1,5 2,5 2,4 C 2,2.73838 2.73838,2 4,2 L 5,2 5,1 z"
       style="fill:#000000;fill-opacity:0.29411765;fill-rule:nonzero;stroke:none" />
    <path
       id="path4957"
       transform="translate(259,107)"
       d="M 4,2 C 3.770534,2 3.5685529,2.014942 3.375,2.0625 3.321873,2.072654 3.2703766,2.081171 3.21875,2.09375 3.198182,2.10043 3.176341,2.117755 3.15625,2.125 3.14666,2.12756 3.134533,2.12236 3.125,2.125 2.4012289,2.3975685 2,3.0648342 2,4 L 2,5 C 2,3.73838 2.73838,3 4,3 L 5,3 5,2 4,2 z"
       style="fill:#000000;fill-opacity:0.15686275;fill-rule:nonzero;stroke:none"
       inkscape:connector-curvature="0" />
  </g>
  <g
     id="hover-left"
     transform="translate(-227,-79)">
    <path
       id="path4961"
       d="m 259,112 0,5 1,0 0,-5 -1,0 z"
       style="fill:#ffffff;fill-opacity:0.627451;fill-rule:nonzero;stroke:none"
       inkscape:connector-curvature="0" />
    <path
       id="path4963"
       d="m 260,112 0,5 4,0 0,-5 -4,0 z"
       style="fill:#ffffff;fill-opacity:0.07843138;fill-rule:nonzero;stroke:none"
       inkscape:connector-curvature="0" />
    <path
       inkscape:connector-curvature="0"
       style="fill:#000000;fill-opacity:0.23529412;fill-rule:nonzero;stroke:none"
       d="m 260,112 0,5 1,0 0,-5 -1,0 z"
       id="path4965" />
  </g>
  <g
     id="hover-top"
     transform="translate(-226,-80)">
    <path
       id="path4969"
       d="m 264,108 0,4 5,0 0,-4 -5,0 z"
       style="fill:#ffffff;fill-opacity:0.07843138;fill-rule:nonzero;stroke:none"
       inkscape:connector-curvature="0" />
    <path
       id="path4971"
       d="m 264,107 0,1 5,0 0,-1 -5,0 z"
       style="fill:url(#radialGradient5021);fill-opacity:1;fill-rule:nonzero;stroke:none"
       inkscape:connector-curvature="0" />
    <path
       sodipodi:nodetypes="ccccc"
       inkscape:connector-curvature="0"
       id="path4973"
       d="m 264,107 0,1 5,0 0,-1 z"
       style="fill:#ffffff;fill-opacity:0.627451;fill-rule:nonzero;stroke:none" />
    <path
       inkscape:connector-curvature="0"
       style="fill:#000000;fill-opacity:0.29411765;fill-rule:nonzero;stroke:none"
       d="m 264,108 0,1 5,0 0,-1 -5,0 z"
       id="path4975" />
    <path
       id="path4977"
       d="m 264,109 0,1 5,0 0,-1 -5,0 z"
       style="fill:#000000;fill-opacity:0.15686275;fill-rule:nonzero;stroke:none"
       inkscape:connector-curvature="0" />
  </g>
  <g
     id="hover-bottomleft"
     transform="translate(-227,-78)">
    <path
       sodipodi:nodetypes="cssccsscc"
       inkscape:connector-curvature="0"
       id="path4981"
       d="m 259,117 0,1 c 0,2.11953 1.8499,4 4,4 l 1,0 0,-1 -1,0 c -1.73084,0 -3,-1.35522 -3,-3 l 0,-1 z"
       style="fill:#ffffff;fill-opacity:0.627451;fill-rule:nonzero;stroke:none" />
    <path
       inkscape:connector-curvature="0"
       sodipodi:nodetypes="cccccc"
       id="path4983"
       d="m 260,117 0,1 c 0,1.68216 1.31785,3 3,3 l 1,0 0,-4 z"
       style="fill:#ffffff;fill-opacity:0.07843138;fill-rule:nonzero;stroke:none" />
    <path
       sodipodi:nodetypes="cssccsscc"
       inkscape:connector-curvature="0"
       id="path4985"
       transform="translate(259,105)"
       d="m 1,12 0,1.028884 C 1,14.711044 2.3015842,16 3.9837342,16 L 5,16 5,15 4.3274842,15 C 3.0658742,15 2,13.946754 2,12.685134 L 2,12 z"
       style="fill:#000000;fill-opacity:0.29411765;fill-rule:nonzero;stroke:none" />
  </g>
  <g
     id="hover-bottom"
     transform="translate(-226,-78)">
    <path
       id="path4989"
       d="m 264,121 0,1 5,0 0,-1 -5,0 z"
       style="fill:#ffffff;fill-opacity:0.627451;fill-rule:nonzero;stroke:none"
       inkscape:connector-curvature="0" />
    <path
       id="path4991"
       d="m 264,117 0,4 5,0 0,-4 -5,0 z"
       style="fill:#ffffff;fill-opacity:0.07843138;fill-rule:nonzero;stroke:none"
       inkscape:connector-curvature="0" />
    <path
       sodipodi:nodetypes="ccccc"
       inkscape:connector-curvature="0"
       style="fill:#000000;fill-opacity:0.29411765;fill-rule:nonzero;stroke:none"
       d="m 264,120 0,1 5,0 0,-1 z"
       id="path4993" />
  </g>
  <g
     id="hover-topright"
     transform="translate(-225,-80)">
    <path
       inkscape:connector-curvature="0"
       sodipodi:nodetypes="cccccc"
       id="path4997"
       d="m 269,108 0,4 4,0 0,-0.95329 C 273,109.36455 271.6733,108 269.99115,108 z"
       style="fill:#ffffff;fill-opacity:0.07843138;fill-rule:nonzero;stroke:none" />
    <path
       sodipodi:nodetypes="ccssccssc"
       inkscape:connector-curvature="0"
       id="path4999"
       d="m 269,107 0,1 1.01449,0 c 1.78064,0 2.98551,1.55504 2.98551,2.95953 l 0,1.04047 1,0 0,-1.04047 C 274,109.01614 272.35431,107 270.01449,107 z"
       style="fill:#ffffff;fill-opacity:0.627451;fill-rule:nonzero;stroke:none" />
    <path
       sodipodi:nodetypes="ccssccssc"
       inkscape:connector-curvature="0"
       id="path5001"
       transform="translate(257,107)"
       d="m 12,1 0,1 1,0 c 1.26161,0 2,0.73838 2,2 l 0,1 1,0 0,-0.9784109 C 16,2.3394291 14.673179,1 12.991029,1 z"
       style="fill:#000000;fill-opacity:0.29411765;fill-rule:nonzero;stroke:none" />
    <path
       id="path5003"
       transform="translate(257,107)"
       d="m 12,2 0,1 1,0 c 1.26161,0 2,0.73838 2,2 L 15,4 C 15,3.0989864 14.612342,2.476399 13.9375,2.1875 13.903151,2.1760268 13.878667,2.1352659 13.84375,2.125 13.767542,2.0975198 13.676745,2.0817109 13.59375,2.0625 13.541326,2.0518936 13.490941,2.0391386 13.4375,2.03125 13.29657,2.0085958 13.157701,2 13,2 l -1,0 z"
       style="fill:#000000;fill-opacity:0.15686275;fill-rule:nonzero;stroke:none"
       inkscape:connector-curvature="0" />
  </g>
  <g
     id="hover-right"
     transform="translate(-225,-79)">
    <path
       id="path5007"
       d="m 273,112 0,5 1,0 0,-5 -1,0 z"
       style="fill:#ffffff;fill-opacity:0.627451;fill-rule:nonzero;stroke:none"
       inkscape:connector-curvature="0" />
    <path
       id="path5009"
       d="m 269,112 0,5 4,0 0,-5 -4,0 z"
       style="fill:#ffffff;fill-opacity:0.07843138;fill-rule:nonzero;stroke:none"
       inkscape:connector-curvature="0" />
    <path
       sodipodi:nodetypes="ccccc"
       inkscape:connector-curvature="0"
       style="fill:#000000;fill-opacity:0.29411765;fill-rule:nonzero;stroke:none"
       d="m 272,112 0,5 1,0 0,-5 z"
       id="path5011" />
  </g>
  <g
     id="hover-bottomright"
     transform="translate(-225,-78)">
    <path
       sodipodi:nodetypes="cssccsscc"
       inkscape:connector-curvature="0"
       id="path5015"
       d="m 273,117 0,1 c 0,1.5651 -1.19272,3 -3,3 l -1,0 0,1 1,0 c 2.21632,0 4,-1.75325 4,-4 l 0,-1 z"
       style="fill:#ffffff;fill-opacity:0.627451;fill-rule:nonzero;stroke:none" />
    <path
       inkscape:connector-curvature="0"
       sodipodi:nodetypes="cccccc"
       id="path5017"
       d="m 269,117 0,4 1,0 c 1.50538,0 3,-1.16875 3,-3 l 0,-1 z"
       style="fill:#ffffff;fill-opacity:0.07843138;fill-rule:nonzero;stroke:none" />
    <path
       sodipodi:nodetypes="cssccsscc"
       inkscape:connector-curvature="0"
       id="path5019"
       transform="translate(257,105)"
       d="m 15,12 0,1 c 0,1.37344 -0.87096,2 -2,2 l -1,0 0,1 1,0 c 1.50538,0 3,-1.173019 3,-3.004269 L 16,12 z"
       style="fill:#000000;fill-opacity:0.29411765;fill-rule:nonzero;stroke:none" />
  </g>
</svg>
