<?xml version="1.0" encoding="UTF-8" standalone="no"?>
<!-- Created with Inkscape (http://www.inkscape.org/) -->

<svg
   xmlns:dc="http://purl.org/dc/elements/1.1/"
   xmlns:cc="http://creativecommons.org/ns#"
   xmlns:rdf="http://www.w3.org/1999/02/22-rdf-syntax-ns#"
   xmlns:svg="http://www.w3.org/2000/svg"
   xmlns="http://www.w3.org/2000/svg"
   xmlns:sodipodi="http://sodipodi.sourceforge.net/DTD/sodipodi-0.dtd"
   xmlns:inkscape="http://www.inkscape.org/namespaces/inkscape"
   width="48"
   height="98"
   id="svg3642"
   sodipodi:version="0.32"
   inkscape:version="0.48.1 r9760"
   sodipodi:docname="scrollbar.svgz"
   inkscape:output_extension="org.inkscape.output.svgz.inkscape"
   version="1.0">
  <sodipodi:namedview
     id="base"
     pagecolor="#a8a8a8"
     bordercolor="#666666"
     borderopacity="1.0"
     inkscape:pageopacity="1"
     inkscape:pageshadow="2"
     inkscape:zoom="5.8557283"
     inkscape:cx="-1.5148237"
     inkscape:cy="99.807389"
     inkscape:current-layer="layer1"
     showgrid="true"
     inkscape:grid-bbox="true"
     inkscape:document-units="px"
     inkscape:window-width="1116"
     inkscape:window-height="708"
     inkscape:window-x="0"
     inkscape:window-y="83"
     width="48px"
     height="48px"
     showguides="true"
     inkscape:guide-bbox="true"
     objecttolerance="9"
     gridtolerance="13"
     inkscape:window-maximized="0">
    <inkscape:grid
       visible="true"
       enabled="true"
       id="grid2555"
       type="xygrid" />
  </sodipodi:namedview>
  <defs
     id="defs3644">
    <linearGradient
       id="linearGradient4443">
      <stop
         id="stop4445"
         offset="0"
         style="stop-color:#000000;stop-opacity:1;" />
      <stop
         style="stop-color:#000000;stop-opacity:0.49803922;"
         offset="0.21768427"
         id="stop4451" />
      <stop
         id="stop4453"
         offset="0.35451439"
         style="stop-color:#000000;stop-opacity:0.24705882;" />
      <stop
         style="stop-color:#000000;stop-opacity:0.12156863;"
         offset="0.57111907"
         id="stop4455" />
      <stop
         id="stop4447"
         offset="1"
         style="stop-color:#000000;stop-opacity:0;" />
    </linearGradient>
    <linearGradient
       id="linearGradient8734">
      <stop
         id="stop8736"
         offset="0"
         style="stop-color:#ffffff;stop-opacity:1;" />
      <stop
         id="stop8738"
         offset="1"
         style="stop-color:#ffffff;stop-opacity:0;" />
    </linearGradient>
  </defs>
  <metadata
     id="metadata3647">
    <rdf:RDF>
      <cc:Work
         rdf:about="">
        <dc:format>image/svg+xml</dc:format>
        <dc:type
           rdf:resource="http://purl.org/dc/dcmitype/StillImage" />
      </cc:Work>
      <cc:Work
         rdf:about="">
        <dc:format>image/svg+xml</dc:format>
        <dc:type
           rdf:resource="http://purl.org/dc/dcmitype/StillImage" />
      </cc:Work>
    </rdf:RDF>
  </metadata>
  <g
     inkscape:groupmode="layer"
     inkscape:label="Layer 1"
     id="layer1">
    <rect
       style="fill:#ffffff;fill-opacity:0.19607843;fill-rule:evenodd;stroke:none"
       id="slider-center"
       width="1"
       height="10"
       x="24"
       y="20" />
    <rect
       style="fill:#4e9a06;fill-opacity:1;fill-rule:nonzero;stroke:none"
       id="hint-stretch-borders"
       width="2.0329318"
       height="2.077126"
       x="13.25996"
       y="10.659418"
       rx="0"
       ry="2.077126" />
    <g
       id="slider-right"
       transform="translate(17,13)">
      <path
         id="rect3852"
         d="m 13,7 0,10 1,0 0,-10 -1,0 z"
         style="fill:#000000;fill-opacity:0.11764706;fill-rule:evenodd;stroke:none"
         inkscape:connector-curvature="0" />
      <path
         id="rect3838"
         d="M 9,7 9,17 13,17 13,7 9,7 z"
         style="fill:#ffffff;fill-opacity:0.19607843;fill-rule:evenodd;stroke:none"
         inkscape:connector-curvature="0" />
    </g>
    <g
       id="slider-topright"
       transform="translate(17,12)">
      <path
         id="rect3840"
         d="m 9,3 0,4 4,0 C 13,4.784 11.216,3 9,3 z"
         style="fill:#ffffff;fill-opacity:0.19607843;fill-rule:evenodd;stroke:none"
         inkscape:connector-curvature="0" />
      <path
         id="path3847"
         d="m 9,2 0,1 c 2.216,0 4,1.784 4,4 l 1,0 C 14,4.23 11.77,2 9,2 z"
         style="fill:#000000;fill-opacity:0.11764706;fill-rule:evenodd;stroke:none"
         inkscape:connector-curvature="0" />
    </g>
    <g
       id="slider-bottomright"
       transform="translate(17,14)">
      <path
         inkscape:connector-curvature="0"
         style="fill:#ffffff;fill-opacity:0.19607843;fill-rule:evenodd;stroke:none"
         d="m 9,21 0,-4 4,0 c 0,2.216 -1.784,4 -4,4 z"
         id="path3871" />
      <path
         inkscape:connector-curvature="0"
         style="fill:#000000;fill-opacity:0.11764706;fill-rule:evenodd;stroke:none"
         d="m 9,22 0,-1 c 2.216,0 4,-1.784 4,-4 l 1,0 c 0,2.77 -2.23,5 -5,5 z"
         id="path3873" />
    </g>
    <g
       id="slider-left"
       transform="matrix(-1,0,0,1,32,13)">
      <path
         style="fill:#000000;fill-opacity:0.11764706;fill-rule:evenodd;stroke:none"
         d="m 13,7 0,10 1,0 0,-10 -1,0 z"
         id="path3889"
         inkscape:connector-curvature="0" />
      <path
         style="fill:#ffffff;fill-opacity:0.19607843;fill-rule:evenodd;stroke:none"
         d="M 9,7 9,17 13,17 13,7 9,7 z"
         id="path3891"
         inkscape:connector-curvature="0" />
    </g>
    <g
       id="slider-topleft"
       transform="matrix(-1,0,0,1,32,12)">
      <path
         style="fill:#ffffff;fill-opacity:0.19607843;fill-rule:evenodd;stroke:none"
         d="m 9,3 0,4 4,0 C 13,4.784 11.216,3 9,3 z"
         id="path3895"
         inkscape:connector-curvature="0" />
      <path
         style="fill:#000000;fill-opacity:0.11764706;fill-rule:evenodd;stroke:none"
         d="m 9,2 0,1 c 2.216,0 4,1.784 4,4 l 1,0 C 14,4.23 11.77,2 9,2 z"
         id="path3897"
         inkscape:connector-curvature="0" />
    </g>
    <g
       id="slider-bottomleft"
       transform="matrix(-1,0,0,1,32,14)">
      <path
         id="path3901"
         d="m 9,21 0,-4 4,0 c 0,2.216 -1.784,4 -4,4 z"
         style="fill:#ffffff;fill-opacity:0.19607843;fill-rule:evenodd;stroke:none"
         inkscape:connector-curvature="0" />
      <path
         id="path3903"
         d="m 9,22 0,-1 c 2.216,0 4,-1.784 4,-4 l 1,0 c 0,2.77 -2.23,5 -5,5 z"
         style="fill:#000000;fill-opacity:0.11764706;fill-rule:evenodd;stroke:none"
         inkscape:connector-curvature="0" />
    </g>
    <g
       transform="matrix(0,-1,-0.1,0,25.7,28)"
       id="slider-top">
      <path
         inkscape:connector-curvature="0"
         id="path3907"
         d="m 13,7 0,10 1,0 0,-10 -1,0 z"
         style="fill:#000000;fill-opacity:0.11764706;fill-rule:evenodd;stroke:none" />
      <path
         inkscape:connector-curvature="0"
         id="path3909"
         d="M 9,7 9,17 13,17 13,7 9,7 z"
         style="fill:#ffffff;fill-opacity:0.19607843;fill-rule:evenodd;stroke:none" />
    </g>
    <g
       id="slider-bottom"
       transform="matrix(0,1,-0.1,0,25.7,22)">
      <path
         style="fill:#000000;fill-opacity:0.11764706;fill-rule:evenodd;stroke:none"
         d="m 13,7 0,10 1,0 0,-10 -1,0 z"
         id="path3913"
         inkscape:connector-curvature="0" />
      <path
         style="fill:#ffffff;fill-opacity:0.19607843;fill-rule:evenodd;stroke:none"
         d="M 9,7 9,17 13,17 13,7 9,7 z"
         id="path3915"
         inkscape:connector-curvature="0" />
    </g>
    <rect
       y="44"
       x="24"
       height="10"
       width="1"
       id="mouseover-slider-center"
       style="fill:#ffffff;fill-opacity:0.27450982;fill-rule:evenodd;stroke:none" />
    <g
       transform="translate(17,37)"
       id="mouseover-slider-right">
      <path
         inkscape:connector-curvature="0"
         style="fill:#04d0ff;fill-opacity:0.49714284;fill-rule:evenodd;stroke:none"
         d="m 13,7 0,10 1,0 0,-10 -1,0 z"
         id="path3510" />
      <path
         inkscape:connector-curvature="0"
         style="fill:#ffffff;fill-opacity:0.27450982;fill-rule:evenodd;stroke:none"
         d="M 9,7 9,17 13,17 13,7 9,7 z"
         id="path3512" />
    </g>
    <g
       transform="translate(17,36)"
       id="mouseover-slider-topright">
      <path
         inkscape:connector-curvature="0"
         style="fill:#ffffff;fill-opacity:0.27450982;fill-rule:evenodd;stroke:none"
         d="m 9,3 0,4 4,0 C 13,4.784 11.216,3 9,3 z"
         id="path3516" />
      <path
         inkscape:connector-curvature="0"
         style="fill:#04d0ff;fill-opacity:0.49714284;fill-rule:evenodd;stroke:none"
         d="m 9,2 0,1 c 2.216,0 4,1.784 4,4 l 1,0 C 14,4.23 11.77,2 9,2 z"
         id="path3518" />
    </g>
    <g
       transform="translate(17,38)"
       id="mouseover-slider-bottomright">
      <path
         id="path3522"
         d="m 9,21 0,-4 4,0 c 0,2.216 -1.784,4 -4,4 z"
         style="fill:#ffffff;fill-opacity:0.27450982;fill-rule:evenodd;stroke:none"
         inkscape:connector-curvature="0" />
      <path
         id="path3524"
         d="m 9,22 0,-1 c 2.216,0 4,-1.784 4,-4 l 1,0 c 0,2.77 -2.23,5 -5,5 z"
         style="fill:#04d0ff;fill-opacity:0.49714284;fill-rule:evenodd;stroke:none"
         inkscape:connector-curvature="0" />
    </g>
    <g
       transform="matrix(-1,0,0,1,32,37)"
       id="mouseover-slider-left">
      <path
         inkscape:connector-curvature="0"
         id="path3528"
         d="m 13,7 0,10 1,0 0,-10 -1,0 z"
         style="fill:#04d0ff;fill-opacity:0.49714284;fill-rule:evenodd;stroke:none" />
      <path
         inkscape:connector-curvature="0"
         id="path3530"
         d="M 9,7 9,17 13,17 13,7 9,7 z"
         style="fill:#ffffff;fill-opacity:0.27450982;fill-rule:evenodd;stroke:none" />
    </g>
    <g
       transform="matrix(-1,0,0,1,32,36)"
       id="mouseover-slider-topleft">
      <path
         inkscape:connector-curvature="0"
         id="path3534"
         d="m 9,3 0,4 4,0 C 13,4.784 11.216,3 9,3 z"
         style="fill:#ffffff;fill-opacity:0.27450982;fill-rule:evenodd;stroke:none" />
      <path
         inkscape:connector-curvature="0"
         id="path3536"
         d="m 9,2 0,1 c 2.216,0 4,1.784 4,4 l 1,0 C 14,4.23 11.77,2 9,2 z"
         style="fill:#04d0ff;fill-opacity:0.49714284;fill-rule:evenodd;stroke:none" />
    </g>
    <g
       transform="matrix(-1,0,0,1,32,38)"
       id="mouseover-slider-bottomleft">
      <path
         inkscape:connector-curvature="0"
         style="fill:#ffffff;fill-opacity:0.27450982;fill-rule:evenodd;stroke:none"
         d="m 9,21 0,-4 4,0 c 0,2.216 -1.784,4 -4,4 z"
         id="path3540" />
      <path
         inkscape:connector-curvature="0"
         style="fill:#04d0ff;fill-opacity:0.49714284;fill-rule:evenodd;stroke:none"
         d="m 9,22 0,-1 c 2.216,0 4,-1.784 4,-4 l 1,0 c 0,2.77 -2.23,5 -5,5 z"
         id="path3542" />
    </g>
    <g
       id="mouseover-slider-top"
       transform="matrix(0,-1,-0.1,0,25.7,52)">
      <path
         style="fill:#04d0ff;fill-opacity:0.49714284;fill-rule:evenodd;stroke:none"
         d="m 13,7 0,10 1,0 0,-10 -1,0 z"
         id="path3546"
         inkscape:connector-curvature="0" />
      <path
         style="fill:#ffffff;fill-opacity:0.27450982;fill-rule:evenodd;stroke:none"
         d="M 9,7 9,17 13,17 13,7 9,7 z"
         id="path3548"
         inkscape:connector-curvature="0" />
    </g>
    <g
       transform="matrix(0,1,-0.1,0,25.7,46)"
       id="mouseover-slider-bottom">
      <path
         inkscape:connector-curvature="0"
         id="path3552"
         d="m 13,7 0,10 1,0 0,-10 -1,0 z"
         style="fill:#04d0ff;fill-opacity:0.49714284;fill-rule:evenodd;stroke:none" />
      <path
         inkscape:connector-curvature="0"
         id="path3554"
         d="M 9,7 9,17 13,17 13,7 9,7 z"
         style="fill:#ffffff;fill-opacity:0.27450982;fill-rule:evenodd;stroke:none" />
    </g>
    <rect
       style="fill:#ffffff;fill-opacity:0.43137255;fill-rule:evenodd;stroke:none"
       id="sunken-slider-center"
       width="1"
       height="10"
       x="24"
       y="68" />
    <g
       id="sunken-slider-right"
       transform="translate(17,61)">
      <path
         id="path4328"
         d="m 13,7 0,10 1,0 0,-10 -1,0 z"
         style="fill:#04d0ff;fill-opacity:0.68627451;fill-rule:evenodd;stroke:none"
         inkscape:connector-curvature="0" />
      <path
         id="path4330"
         d="M 9,7 9,17 13,17 13,7 9,7 z"
         style="fill:#ffffff;fill-opacity:0.43137255;fill-rule:evenodd;stroke:none"
         inkscape:connector-curvature="0" />
    </g>
    <g
       id="sunken-slider-topright"
       transform="translate(17,60)">
      <path
         id="path4334"
         d="m 9,3 0,4 4,0 C 13,4.784 11.216,3 9,3 z"
         style="fill:#ffffff;fill-opacity:0.43137255;fill-rule:evenodd;stroke:none"
         inkscape:connector-curvature="0" />
      <path
         id="path4336"
         d="m 9,2 0,1 c 2.216,0 4,1.784 4,4 l 1,0 C 14,4.23 11.77,2 9,2 z"
         style="fill:#04d0ff;fill-opacity:0.68627451;fill-rule:evenodd;stroke:none"
         inkscape:connector-curvature="0" />
    </g>
    <g
       id="sunken-slider-bottomright"
       transform="translate(17,62)">
      <path
         inkscape:connector-curvature="0"
         style="fill:#ffffff;fill-opacity:0.43137255;fill-rule:evenodd;stroke:none"
         d="m 9,21 0,-4 4,0 c 0,2.216 -1.784,4 -4,4 z"
         id="path4340" />
      <path
         inkscape:connector-curvature="0"
         style="fill:#04d0ff;fill-opacity:0.68627451;fill-rule:evenodd;stroke:none"
         d="m 9,22 0,-1 c 2.216,0 4,-1.784 4,-4 l 1,0 c 0,2.77 -2.23,5 -5,5 z"
         id="path4342" />
    </g>
    <g
       id="sunken-slider-left"
       transform="matrix(-1,0,0,1,32,61)">
      <path
         style="fill:#04d0ff;fill-opacity:0.68627451;fill-rule:evenodd;stroke:none"
         d="m 13,7 0,10 1,0 0,-10 -1,0 z"
         id="path4347"
         inkscape:connector-curvature="0" />
      <path
         style="fill:#ffffff;fill-opacity:0.43137255;fill-rule:evenodd;stroke:none"
         d="M 9,7 9,17 13,17 13,7 9,7 z"
         id="path4349"
         inkscape:connector-curvature="0" />
    </g>
    <g
       id="sunken-slider-topleft"
       transform="matrix(-1,0,0,1,32,60)">
      <path
         style="fill:#ffffff;fill-opacity:0.43137255;fill-rule:evenodd;stroke:none"
         d="m 9,3 0,4 4,0 C 13,4.784 11.216,3 9,3 z"
         id="path4353"
         inkscape:connector-curvature="0" />
      <path
         style="fill:#04d0ff;fill-opacity:0.68627451;fill-rule:evenodd;stroke:none"
         d="m 9,2 0,1 c 2.216,0 4,1.784 4,4 l 1,0 C 14,4.23 11.77,2 9,2 z"
         id="path4355"
         inkscape:connector-curvature="0" />
    </g>
    <g
       id="sunken-slider-bottomleft"
       transform="matrix(-1,0,0,1,32,62)">
      <path
         id="path4359"
         d="m 9,21 0,-4 4,0 c 0,2.216 -1.784,4 -4,4 z"
         style="fill:#ffffff;fill-opacity:0.43137255;fill-rule:evenodd;stroke:none"
         inkscape:connector-curvature="0" />
      <path
         id="path4361"
         d="m 9,22 0,-1 c 2.216,0 4,-1.784 4,-4 l 1,0 c 0,2.77 -2.23,5 -5,5 z"
         style="fill:#04d0ff;fill-opacity:0.68627451;fill-rule:evenodd;stroke:none"
         inkscape:connector-curvature="0" />
    </g>
    <g
       transform="matrix(0,-1,-0.1,0,25.7,76)"
       id="sunken-slider-top">
      <path
         inkscape:connector-curvature="0"
         id="path4365"
         d="m 13,7 0,10 1,0 0,-10 -1,0 z"
         style="fill:#04d0ff;fill-opacity:0.68627451;fill-rule:evenodd;stroke:none" />
      <path
         inkscape:connector-curvature="0"
         id="path4367"
         d="M 9,7 9,17 13,17 13,7 9,7 z"
         style="fill:#ffffff;fill-opacity:0.43137255;fill-rule:evenodd;stroke:none" />
    </g>
    <g
       id="sunken-slider-bottom"
       transform="matrix(0,1,-0.1,0,25.7,70)">
      <path
         style="fill:#04d0ff;fill-opacity:0.68627451;fill-rule:evenodd;stroke:none"
         d="m 13,7 0,10 1,0 0,-10 -1,0 z"
         id="path4371"
         inkscape:connector-curvature="0" />
      <path
         style="fill:#ffffff;fill-opacity:0.43137255;fill-rule:evenodd;stroke:none"
         d="M 9,7 9,17 13,17 13,7 9,7 z"
         id="path4373"
         inkscape:connector-curvature="0" />
    </g>
    <rect
       ry="11"
       rx="0"
       y="22"
       x="4"
       height="11"
       width="11"
       id="hint-scrollbar-size"
       style="fill:#4e9a06;fill-opacity:1;fill-rule:nonzero;stroke:none" />
  </g>
</svg>
