<?xml version="1.0" encoding="UTF-8" standalone="no"?>
<!-- Created with Inkscape (http://www.inkscape.org/) -->

<svg
   xmlns:osb="http://www.openswatchbook.org/uri/2009/osb"
   xmlns:dc="http://purl.org/dc/elements/1.1/"
   xmlns:cc="http://creativecommons.org/ns#"
   xmlns:rdf="http://www.w3.org/1999/02/22-rdf-syntax-ns#"
   xmlns:svg="http://www.w3.org/2000/svg"
   xmlns="http://www.w3.org/2000/svg"
   xmlns:xlink="http://www.w3.org/1999/xlink"
   xmlns:sodipodi="http://sodipodi.sourceforge.net/DTD/sodipodi-0.dtd"
   xmlns:inkscape="http://www.inkscape.org/namespaces/inkscape"
   width="128"
   height="128"
   id="svg2"
   sodipodi:version="0.32"
   inkscape:version="0.91 r13725"
   version="1.0"
   sodipodi:docname="slider.svgz"
   inkscape:output_extension="org.inkscape.output.svgz.inkscape"
   inkscape:export-filename="arrow-up.png"
   inkscape:export-xdpi="11.25"
   inkscape:export-ydpi="11.25">
  <sodipodi:namedview
     id="base"
     pagecolor="#9a9a9a"
     bordercolor="#666666"
     borderopacity="1.0"
     gridtolerance="10000"
     guidetolerance="10"
     objecttolerance="10"
     inkscape:pageopacity="1"
     inkscape:pageshadow="2"
     inkscape:zoom="1"
     inkscape:cx="5.097285"
     inkscape:cy="120.41181"
     inkscape:document-units="px"
     inkscape:current-layer="layer1"
     width="128px"
     height="128px"
     showgrid="true"
     inkscape:window-width="1110"
     inkscape:window-height="711"
     inkscape:window-x="15"
     inkscape:window-y="208"
     inkscape:snap-nodes="true"
     inkscape:snap-global="true"
     inkscape:window-maximized="0">
    <inkscape:grid
       id="GridFromPre046Settings"
       type="xygrid"
       originx="0px"
       originy="0px"
       spacingx="1px"
       spacingy="1px"
       color="#0000ff"
       empcolor="#0000ff"
       opacity="0.2"
       empopacity="0.4"
       empspacing="2"
       visible="true"
       enabled="true" />
  </sodipodi:namedview>
  <defs
     id="defs4">
    <linearGradient
       id="linearGradient4254">
      <stop
         id="stop4256"
         offset="0"
         style="stop-color:#29d7f5;stop-opacity:1;" />
      <stop
         style="stop-color:#29d7f5;stop-opacity:1;"
         offset="0.6937564"
         id="stop4272" />
      <stop
         style="stop-color:#38c2e9;stop-opacity:0.45614034;"
         offset="0.77537483"
         id="stop4270" />
      <stop
         id="stop3222"
         offset="0.88768744"
         style="stop-color:#31a7f2;stop-opacity:0.13157895;" />
      <stop
         id="stop4258"
         offset="1"
         style="stop-color:#2a8dfc;stop-opacity:0;" />
    </linearGradient>
    <linearGradient
       id="linearGradient3610">
      <stop
         id="stop3612"
         offset="0"
         style="stop-color:#000000;stop-opacity:1;" />
      <stop
         style="stop-color:#000000;stop-opacity:0.48627451;"
         offset="0.78947371"
         id="stop3618" />
      <stop
         id="stop3620"
         offset="0.84500837"
         style="stop-color:#000000;stop-opacity:0.26274511;" />
      <stop
         style="stop-color:#000000;stop-opacity:0.07450981;"
         offset="0.90754884"
         id="stop3622" />
      <stop
         id="stop3614"
         offset="1"
         style="stop-color:#000000;stop-opacity:0;" />
    </linearGradient>
    <radialGradient
       r="12"
       fy="105.99999"
       fx="48.316662"
       cy="105.99999"
       cx="48.316662"
       gradientTransform="matrix(-1.7184412e-7,0.8020833,-1,-1.4878279e-7,154,67.621028)"
       gradientUnits="userSpaceOnUse"
       id="radialGradient3634"
       xlink:href="#linearGradient3610"
       inkscape:collect="always" />
    <linearGradient
       y2="121"
       x2="29.863916"
       y1="121"
       x1="60.148952"
       gradientUnits="userSpaceOnUse"
       id="linearGradient3636"
       xlink:href="#linearGradient3765"
       inkscape:collect="always" />
    <radialGradient
       r="12"
       fy="105.99999"
       fx="48.316662"
       cy="105.99999"
       cx="48.316662"
       gradientTransform="matrix(-1.7184412e-7,0.8020833,-1,-1.4878279e-7,154,67.621028)"
       gradientUnits="userSpaceOnUse"
       id="radialGradient3638"
       xlink:href="#linearGradient3610"
       inkscape:collect="always" />
    <linearGradient
       y2="121"
       x2="47.999996"
       y1="93.5"
       x1="47.999996"
       gradientUnits="userSpaceOnUse"
       id="linearGradient3640"
       xlink:href="#linearGradient3765"
       inkscape:collect="always" />
    <linearGradient
       y2="121"
       x2="33"
       y1="121"
       x1="59.999996"
       gradientTransform="matrix(0,-0.6666667,0.8,0,-50.799999,88)"
       gradientUnits="userSpaceOnUse"
       id="linearGradient3218"
       xlink:href="#linearGradient3798"
       inkscape:collect="always" />
    <linearGradient
       y2="118.5"
       x2="48"
       y1="96"
       x1="48"
       gradientTransform="matrix(0.6666667,0,0,0.8,23.999999,-6.8)"
       gradientUnits="userSpaceOnUse"
       id="linearGradient3229"
       xlink:href="#linearGradient3798"
       inkscape:collect="always" />
    <radialGradient
       gradientTransform="translate(2.1366663e-5,9.8666671e-6)"
       gradientUnits="userSpaceOnUse"
       r="14"
       fy="34"
       fx="74"
       cy="34"
       cx="74"
       id="radialGradient4268"
       xlink:href="#linearGradient4254"
       inkscape:collect="always" />
    <radialGradient
       r="14"
       fy="34"
       fx="74"
       cy="34"
       cx="74"
       gradientTransform="translate(2.1366663e-5,9.8666671e-6)"
       gradientUnits="userSpaceOnUse"
       id="radialGradient4276"
       xlink:href="#linearGradient4254"
       inkscape:collect="always" />
    <radialGradient
       r="14"
       fy="34"
       fx="74"
       cy="34"
       cx="74"
       gradientTransform="translate(2.1366663e-5,9.8666671e-6)"
       gradientUnits="userSpaceOnUse"
       id="radialGradient2456"
       xlink:href="#linearGradient4254"
       inkscape:collect="always" />
    <radialGradient
       r="14"
       fy="34"
       fx="74"
       cy="34"
       cx="74"
       gradientTransform="translate(2.1366663e-5,9.8666671e-6)"
       gradientUnits="userSpaceOnUse"
       id="radialGradient2458"
       xlink:href="#linearGradient4254"
       inkscape:collect="always" />
    <radialGradient
       r="12"
       fy="105.99999"
       fx="48.316662"
       cy="105.99999"
       cx="48.316662"
       gradientTransform="matrix(5.1082708e-8,0.80208334,-0.99999997,4.4227451e-8,153.99999,67.621006)"
       gradientUnits="userSpaceOnUse"
       id="radialGradient3957"
       xlink:href="#linearGradient3610"
       inkscape:collect="always" />
    <radialGradient
       r="12"
       fy="105.99999"
       fx="48.316662"
       cy="105.99999"
       cx="48.316662"
       gradientTransform="matrix(-1.8360485e-7,0.80208331,-0.99999942,-1.5896515e-7,153.99995,67.621029)"
       gradientUnits="userSpaceOnUse"
       id="radialGradient3961"
       xlink:href="#linearGradient3610"
       inkscape:collect="always" />
    <linearGradient
       id="linearGradient3765">
      <stop
         id="stop3767"
         offset="0"
         style="stop-color:#fafafa;stop-opacity:1;" />
      <stop
         id="stop3769"
         offset="1"
         style="stop-color:#dddddd;stop-opacity:1;" />
    </linearGradient>
    <linearGradient
       osb:paint="solid"
       id="linearGradient6476">
      <stop
         id="stop6478"
         offset="0"
         style="stop-color:#ffffff;stop-opacity:1;" />
    </linearGradient>
    <linearGradient
       id="linearGradient3798">
      <stop
         id="stop3800"
         offset="0"
         style="stop-color:#ffffff;stop-opacity:1;" />
      <stop
         id="stop3802"
         offset="1"
         style="stop-color:#000000;stop-opacity:1;" />
    </linearGradient>
    <radialGradient
       r="70"
       fy="231.10249"
       fx="355.5"
       cy="231.10249"
       cx="355.5"
       gradientTransform="matrix(0.06792404,-1.5772391e-7,0,0.2845765,242.35364,65.72604)"
       gradientUnits="userSpaceOnUse"
       id="radialGradient4655"
       xlink:href="#linearGradient8734-8"
       inkscape:collect="always" />
    <linearGradient
       inkscape:collect="always"
       id="linearGradient8734-8">
      <stop
         style="stop-color:#ffffff;stop-opacity:1;"
         offset="0"
         id="stop8736-8" />
      <stop
         style="stop-color:#ffffff;stop-opacity:0;"
         offset="1"
         id="stop8738-4" />
    </linearGradient>
    <radialGradient
       r="70"
       fy="231.10249"
       fx="355.5"
       cy="231.10249"
       cx="355.5"
       gradientTransform="matrix(0.06792404,-1.5772391e-7,0,0.2845765,242.35364,65.72604)"
       gradientUnits="userSpaceOnUse"
       id="radialGradient4807"
       xlink:href="#linearGradient8734-8"
       inkscape:collect="always" />
    <radialGradient
       r="12"
       fy="105.99999"
       fx="48.316662"
       cy="105.99999"
       cx="48.316662"
       gradientTransform="matrix(-2.1480515e-7,1.203125,-1.25,-2.2317419e-7,156.5,-37.568458)"
       gradientUnits="userSpaceOnUse"
       id="radialGradient4614"
       xlink:href="#linearGradient3610-7"
       inkscape:collect="always" />
    <linearGradient
       id="linearGradient3765-2">
      <stop
         style="stop-color:#fafafa;stop-opacity:1;"
         offset="0"
         id="stop3767-0" />
      <stop
         style="stop-color:#e2e2e2;stop-opacity:0.70588237;"
         offset="1"
         id="stop3769-6" />
    </linearGradient>
    <linearGradient
       id="linearGradient6476-6"
       osb:paint="solid">
      <stop
         style="stop-color:#ffffff;stop-opacity:1;"
         offset="0"
         id="stop6478-3" />
    </linearGradient>
    <linearGradient
       y2="121"
       x2="36"
       y1="121"
       x1="48.999996"
       gradientTransform="matrix(0,-0.6666667,0.8,0,-50.799999,88)"
       gradientUnits="userSpaceOnUse"
       id="linearGradient3844"
       xlink:href="#linearGradient3798-3"
       inkscape:collect="always" />
    <linearGradient
       gradientUnits="userSpaceOnUse"
       y2="106"
       x2="37"
       y1="106"
       x1="58.999996"
       id="linearGradient3840"
       xlink:href="#linearGradient3765-2"
       inkscape:collect="always" />
    <linearGradient
       y2="106"
       x2="48"
       y1="116"
       x1="48"
       gradientTransform="matrix(0.6666667,0,0,0.8,23.999999,-6.8)"
       gradientUnits="userSpaceOnUse"
       id="linearGradient3642"
       xlink:href="#linearGradient3272"
       inkscape:collect="always" />
    <radialGradient
       gradientUnits="userSpaceOnUse"
       gradientTransform="matrix(1,6.8531488e-8,-8.9090919e-8,0.90277782,9.5327283e-6,10.236103)"
       r="12"
       fy="107"
       fx="48"
       cy="107"
       cx="48"
       id="radialGradient3645"
       xlink:href="#linearGradient3647"
       inkscape:collect="always" />
    <radialGradient
       r="14"
       fy="34"
       fx="74"
       cy="34"
       cx="74"
       gradientTransform="matrix(1.0714286,0,0,1.0714286,-12.285692,6.5714382)"
       gradientUnits="userSpaceOnUse"
       id="radialGradient4276-0"
       xlink:href="#linearGradient4254-2"
       inkscape:collect="always" />
    <radialGradient
       gradientTransform="matrix(1.0714286,0,0,1.0714286,-10.285692,-25.42856)"
       gradientUnits="userSpaceOnUse"
       r="14"
       fy="34"
       fx="74"
       cy="34"
       cx="74"
       id="radialGradient4268-1"
       xlink:href="#linearGradient4254-2"
       inkscape:collect="always" />
    <linearGradient
       y2="116"
       x2="48"
       y1="96"
       x1="48"
       gradientUnits="userSpaceOnUse"
       id="linearGradient3640-6"
       xlink:href="#linearGradient3765-2"
       inkscape:collect="always" />
    <linearGradient
       id="linearGradient3272">
      <stop
         id="stop3274"
         offset="0"
         style="stop-color:white;stop-opacity:1;" />
      <stop
         id="stop3276"
         offset="1"
         style="stop-color:white;stop-opacity:0;" />
    </linearGradient>
    <linearGradient
       id="linearGradient3610-7">
      <stop
         id="stop3612-8"
         offset="0"
         style="stop-color:#000000;stop-opacity:1;" />
      <stop
         style="stop-color:#000000;stop-opacity:0.49803922;"
         offset="0.80000001"
         id="stop3618-4" />
      <stop
         id="stop3620-5"
         offset="0.83999997"
         style="stop-color:#000000;stop-opacity:0.33333334;" />
      <stop
         style="stop-color:#000000;stop-opacity:0.0877193;"
         offset="0.91000003"
         id="stop3622-0" />
      <stop
         id="stop3614-3"
         offset="1"
         style="stop-color:#000000;stop-opacity:0;" />
    </linearGradient>
    <linearGradient
       id="linearGradient4254-2">
      <stop
         id="stop4256-9"
         offset="0"
         style="stop-color:#29d7f5;stop-opacity:1;" />
      <stop
         style="stop-color:#29d7f5;stop-opacity:1;"
         offset="0.75999999"
         id="stop4272-3" />
      <stop
         style="stop-color:#38c2e9;stop-opacity:0.45614034;"
         offset="0.85537487"
         id="stop4270-1" />
      <stop
         id="stop3222-9"
         offset="0.93000001"
         style="stop-color:#31a7f2;stop-opacity:0.13157895;" />
      <stop
         id="stop4258-4"
         offset="1"
         style="stop-color:#2a8dfc;stop-opacity:0;" />
    </linearGradient>
    <linearGradient
       id="linearGradient3647">
      <stop
         style="stop-color:#000000;stop-opacity:0.15686275;"
         offset="0"
         id="stop3649" />
      <stop
         id="stop3653"
         offset="0.72972971"
         style="stop-color:#000000;stop-opacity:0.15686275;" />
      <stop
         style="stop-color:#000000;stop-opacity:1;"
         offset="1"
         id="stop3651" />
    </linearGradient>
    <linearGradient
       id="linearGradient3798-3">
      <stop
         style="stop-color:#ffffff;stop-opacity:1;"
         offset="0"
         id="stop3800-6" />
      <stop
         style="stop-color:#000000;stop-opacity:1;"
         offset="1"
         id="stop3802-1" />
    </linearGradient>
    <radialGradient
       inkscape:collect="always"
       xlink:href="#linearGradient3610-7"
       id="radialGradient4000"
       gradientUnits="userSpaceOnUse"
       gradientTransform="matrix(-1.7184412e-7,0.9625,-1,-1.7853935e-7,212.4,69.94523)"
       cx="48.316662"
       cy="105.99999"
       fx="48.316662"
       fy="105.99999"
       r="12" />
    <radialGradient
       inkscape:collect="always"
       xlink:href="#linearGradient4254-2"
       id="radialGradient4003"
       gradientUnits="userSpaceOnUse"
       gradientTransform="matrix(0.85714288,0,0,0.85714288,44.571448,61.25715)"
       cx="74"
       cy="34"
       fx="74"
       fy="34"
       r="14" />
    <radialGradient
       inkscape:collect="always"
       xlink:href="#linearGradient4254-2"
       id="radialGradient4015"
       gradientUnits="userSpaceOnUse"
       gradientTransform="matrix(0.85714288,0,0,0.85714288,44.571448,37.257152)"
       cx="74"
       cy="34"
       fx="74"
       fy="34"
       r="14" />
    <radialGradient
       inkscape:collect="always"
       xlink:href="#linearGradient3610-7"
       id="radialGradient4021"
       gradientUnits="userSpaceOnUse"
       gradientTransform="matrix(-1.7184412e-7,0.9625,-1,-1.7853935e-7,168.4,17.94523)"
       cx="48.316662"
       cy="105.99999"
       fx="48.316662"
       fy="105.99999"
       r="12" />
    <radialGradient
       inkscape:collect="always"
       xlink:href="#linearGradient4254-2"
       id="radialGradient4033"
       gradientUnits="userSpaceOnUse"
       gradientTransform="matrix(0.85714288,0,0,0.85714288,0.571448,-14.742848)"
       cx="74"
       cy="34"
       fx="74"
       fy="34"
       r="14" />
    <radialGradient
       inkscape:collect="always"
       xlink:href="#linearGradient4254-2"
       id="radialGradient4035"
       gradientUnits="userSpaceOnUse"
       gradientTransform="matrix(0.85714288,0,0,0.85714288,0.571448,9.25715)"
       cx="74"
       cy="34"
       fx="74"
       fy="34"
       r="14" />
  </defs>
  <metadata
     id="metadata7">
    <rdf:RDF>
      <cc:Work
         rdf:about="">
        <dc:format>image/svg+xml</dc:format>
        <dc:type
           rdf:resource="http://purl.org/dc/dcmitype/StillImage" />
      </cc:Work>
    </rdf:RDF>
  </metadata>
  <g
     inkscape:label="Layer 1"
     inkscape:groupmode="layer"
     id="layer1">
    <g
       transform="translate(33,78)"
       id="horizontal-slider-line">
      <rect
         y="32"
         x="11"
         height="1"
         width="42"
         id="rect4223-4"
         style="opacity:0.14090911;fill:#000000;fill-opacity:1;fill-rule:nonzero;stroke:none" />
      <rect
         style="opacity:0.25909089;fill:#ffffff;fill-opacity:1;fill-rule:nonzero;stroke:none"
         id="rect4209-7"
         width="42"
         height="1"
         x="11"
         y="33" />
      <rect
         y="31"
         x="11"
         height="1"
         width="42"
         id="rect2706-4"
         style="opacity:0.05909089;fill:#ffffff;fill-opacity:1;fill-rule:nonzero;stroke:none" />
    </g>
    <g
       transform="translate(-231,-100)"
       id="groove-highlight-center">
      <path
         inkscape:connector-curvature="0"
         style="fill:#4fe2fd;fill-opacity:0.63137255;fill-rule:nonzero;stroke:none"
         d="m 264,112 0,5 5,0 0,-5 -5,0 z"
         id="path4733" />
    </g>
    <g
       transform="translate(-232,-101)"
       id="groove-highlight-topleft">
      <path
         style="fill:#4fe2fd;fill-opacity:0.63137255;fill-rule:nonzero;stroke:none"
         d="m 263,108 c -1.68216,0 -3,1.31784 -3,3 l 0,1 4,0 0,-4 z"
         id="path4737"
         sodipodi:nodetypes="cccccc"
         inkscape:connector-curvature="0" />
      <path
         style="fill:#ffffff;fill-opacity:0.19607843;fill-rule:nonzero;stroke:none"
         d="M 263.00414,107 C 260.92932,107 259,108.75191 259,110.99813 l 0,1.00187 1,0 0,-1.00187 C 260,109.30342 261.32448,108 263.00414,108 l 0.99586,0 0,-1 z"
         id="path4739"
         inkscape:connector-curvature="0"
         sodipodi:nodetypes="ssccssccs" />
      <path
         style="fill:#000000;fill-opacity:0.23529412;fill-rule:nonzero;stroke:none"
         d="M 4.0215891,1 C 2.1753913,1 1,2.3394291 1,4.0215891 L 1,5 2,5 2,4 C 2,2.73838 2.73838,2 4,2 L 5,2 5,1 z"
         transform="translate(259,107)"
         id="path4741"
         inkscape:connector-curvature="0"
         sodipodi:nodetypes="ssccssccs" />
      <path
         inkscape:connector-curvature="0"
         style="fill:#000000;fill-opacity:0.09019608;fill-rule:nonzero;stroke:none"
         d="M 4,2 C 3.770534,2 3.5685529,2.014942 3.375,2.0625 3.321873,2.072654 3.2703766,2.081171 3.21875,2.09375 3.198182,2.10043 3.176341,2.117755 3.15625,2.125 3.14666,2.12756 3.134533,2.12236 3.125,2.125 2.4012289,2.3975685 2,3.0648342 2,4 L 2,5 C 2,3.73838 2.73838,3 4,3 L 5,3 5,2 4,2 z"
         transform="translate(259,107)"
         id="path4743" />
    </g>
    <g
       transform="translate(-232,-100)"
       id="groove-highlight-left">
      <path
         inkscape:connector-curvature="0"
         style="fill:#ffffff;fill-opacity:0.19607843;fill-rule:nonzero;stroke:none"
         d="m 259,112 0,5 1,0 0,-5 -1,0 z"
         id="path4747" />
      <path
         inkscape:connector-curvature="0"
         style="fill:#4fe2fd;fill-opacity:0.63137255;fill-rule:nonzero;stroke:none"
         d="m 260,112 0,5 4,0 0,-5 -4,0 z"
         id="path4749" />
      <path
         id="path4751"
         d="m 260,112 0,5 1,0 0,-5 -1,0 z"
         style="fill:#000000;fill-opacity:0.23529412;fill-rule:nonzero;stroke:none"
         inkscape:connector-curvature="0" />
    </g>
    <g
       transform="translate(-231,-101)"
       id="groove-highlight-top">
      <path
         inkscape:connector-curvature="0"
         style="fill:#4fe2fd;fill-opacity:0.63137255;fill-rule:nonzero;stroke:none"
         d="m 264,108 0,4 5,0 0,-4 -5,0 z"
         id="path4755" />
      <path
         inkscape:connector-curvature="0"
         style="fill:url(#radialGradient4807);fill-opacity:1;fill-rule:nonzero;stroke:none"
         d="m 264,107 0,1 5,0 0,-1 -5,0 z"
         id="path4757" />
      <path
         style="fill:#ffffff;fill-opacity:0.19607843;fill-rule:nonzero;stroke:none"
         d="m 264,107 0,1 5,0 0,-1 z"
         id="path4759"
         inkscape:connector-curvature="0"
         sodipodi:nodetypes="ccccc" />
      <path
         id="path4761"
         d="m 264,108 0,1 5,0 0,-1 -5,0 z"
         style="fill:#000000;fill-opacity:0.23529412;fill-rule:nonzero;stroke:none"
         inkscape:connector-curvature="0" />
      <path
         inkscape:connector-curvature="0"
         style="fill:#000000;fill-opacity:0.09019608;fill-rule:nonzero;stroke:none"
         d="m 264,109 0,1 5,0 0,-1 -5,0 z"
         id="path4763" />
    </g>
    <g
       transform="translate(-232,-99)"
       id="groove-highlight-bottomleft">
      <path
         style="fill:#ffffff;fill-opacity:0.19607843;fill-rule:nonzero;stroke:none"
         d="m 259,117 0,1 c 0,2.11953 1.8499,4 4,4 l 1,0 0,-1 -1,0 c -1.73084,0 -3,-1.35522 -3,-3 l 0,-1 z"
         id="path4767"
         inkscape:connector-curvature="0"
         sodipodi:nodetypes="cssccsscc" />
      <path
         style="fill:#4fe2fd;fill-opacity:0.63137255;fill-rule:nonzero;stroke:none"
         d="m 260,117 0,1 c 0,1.68216 1.31785,3 3,3 l 1,0 0,-4 z"
         id="path4769"
         sodipodi:nodetypes="cccccc"
         inkscape:connector-curvature="0" />
      <path
         style="fill:#000000;fill-opacity:0.21568627;fill-rule:nonzero;stroke:none"
         d="m 1,12 0,1.028884 C 1,14.711044 2.3015842,16 3.9837342,16 L 5,16 5,15 4.3274842,15 C 3.0658742,15 2,13.946754 2,12.685134 L 2,12 z"
         transform="translate(259,105)"
         id="path4771"
         inkscape:connector-curvature="0"
         sodipodi:nodetypes="cssccsscc" />
    </g>
    <g
       transform="translate(-231,-99)"
       id="groove-highlight-bottom">
      <path
         inkscape:connector-curvature="0"
         style="fill:#ffffff;fill-opacity:0.19607843;fill-rule:nonzero;stroke:none"
         d="m 264,121 0,1 5,0 0,-1 -5,0 z"
         id="path4775" />
      <path
         inkscape:connector-curvature="0"
         style="fill:#4fe2fd;fill-opacity:0.63137255;fill-rule:nonzero;stroke:none"
         d="m 264,117 0,4 5,0 0,-4 -5,0 z"
         id="path4777" />
      <path
         id="path4779"
         d="m 264,120 0,1 5,0 0,-1 z"
         style="fill:#000000;fill-opacity:0.21568627;fill-rule:nonzero;stroke:none"
         inkscape:connector-curvature="0"
         sodipodi:nodetypes="ccccc" />
    </g>
    <g
       transform="translate(-230,-101)"
       id="groove-highlight-topright">
      <path
         style="fill:#4fe2fd;fill-opacity:0.63137255;fill-rule:nonzero;stroke:none"
         d="m 269,108 0,4 4,0 0,-0.95329 C 273,109.36455 271.6733,108 269.99115,108 z"
         id="path4783"
         sodipodi:nodetypes="cccccc"
         inkscape:connector-curvature="0" />
      <path
         style="fill:#ffffff;fill-opacity:0.19607843;fill-rule:nonzero;stroke:none"
         d="m 269,107 0,1 1.01449,0 c 1.78064,0 2.98551,1.55504 2.98551,2.95953 l 0,1.04047 1,0 0,-1.04047 C 274,109.01614 272.35431,107 270.01449,107 z"
         id="path4785"
         inkscape:connector-curvature="0"
         sodipodi:nodetypes="ccssccssc" />
      <path
         style="fill:#000000;fill-opacity:0.23529412;fill-rule:nonzero;stroke:none"
         d="m 12,1 0,1 1,0 c 1.26161,0 2,0.73838 2,2 l 0,1 1,0 0,-0.9784109 C 16,2.3394291 14.673179,1 12.991029,1 z"
         transform="translate(257,107)"
         id="path4787"
         inkscape:connector-curvature="0"
         sodipodi:nodetypes="ccssccssc" />
      <path
         inkscape:connector-curvature="0"
         style="fill:#000000;fill-opacity:0.09019608;fill-rule:nonzero;stroke:none"
         d="m 12,2 0,1 1,0 c 1.26161,0 2,0.73838 2,2 L 15,4 C 15,3.0989864 14.612342,2.476399 13.9375,2.1875 13.903151,2.1760268 13.878667,2.1352659 13.84375,2.125 13.767542,2.0975198 13.676745,2.0817109 13.59375,2.0625 13.541326,2.0518936 13.490941,2.0391386 13.4375,2.03125 13.29657,2.0085958 13.157701,2 13,2 l -1,0 z"
         transform="translate(257,107)"
         id="path4789" />
    </g>
    <g
       transform="translate(-230,-100)"
       id="groove-highlight-right">
      <path
         inkscape:connector-curvature="0"
         style="fill:#ffffff;fill-opacity:0.19607843;fill-rule:nonzero;stroke:none"
         d="m 273,112 0,5 1,0 0,-5 -1,0 z"
         id="path4793" />
      <path
         inkscape:connector-curvature="0"
         style="fill:#4fe2fd;fill-opacity:0.63137255;fill-rule:nonzero;stroke:none"
         d="m 269,112 0,5 4,0 0,-5 -4,0 z"
         id="path4795" />
      <path
         id="path4797"
         d="m 272,112 0,5 1,0 0,-5 z"
         style="fill:#000000;fill-opacity:0.23529412;fill-rule:nonzero;stroke:none"
         inkscape:connector-curvature="0"
         sodipodi:nodetypes="ccccc" />
    </g>
    <g
       transform="translate(-230,-99)"
       id="groove-highlight-bottomright">
      <path
         style="fill:#ffffff;fill-opacity:0.19607843;fill-rule:nonzero;stroke:none"
         d="m 273,117 0,1 c 0,1.5651 -1.19272,3 -3,3 l -1,0 0,1 1,0 c 2.21632,0 4,-1.75325 4,-4 l 0,-1 z"
         id="path4801"
         inkscape:connector-curvature="0"
         sodipodi:nodetypes="cssccsscc" />
      <path
         style="fill:#4fe2fd;fill-opacity:0.63137255;fill-rule:nonzero;stroke:none"
         d="m 269,117 0,4 1,0 c 1.50538,0 3,-1.16875 3,-3 l 0,-1 z"
         id="path4803"
         sodipodi:nodetypes="cccccc"
         inkscape:connector-curvature="0" />
      <path
         style="fill:#000000;fill-opacity:0.21568627;fill-rule:nonzero;stroke:none"
         d="m 15,12 0,1 c 0,1.37344 -0.87096,2 -2,2 l -1,0 0,1 1,0 c 1.50538,0 3,-1.173019 3,-3.004269 L 16,12 z"
         transform="translate(257,105)"
         id="path4805"
         inkscape:connector-curvature="0"
         sodipodi:nodetypes="cssccsscc" />
    </g>
    <g
       transform="translate(25,47)"
       id="vertical-slider-line">
      <rect
         style="opacity:0.14090911;fill:#000000;fill-opacity:1;fill-rule:nonzero;stroke:none"
         id="rect4227-4"
         width="42"
         height="1"
         x="-31"
         y="8"
         transform="matrix(0,-1,1,0,0,0)" />
      <rect
         y="9"
         x="-31"
         height="1"
         width="42"
         id="rect4229-3"
         style="opacity:0.25454544;fill:#ffffff;fill-opacity:1;fill-rule:nonzero;stroke:none"
         transform="matrix(0,-1,1,0,0,0)" />
      <rect
         transform="matrix(0,-1,1,0,0,0)"
         style="opacity:0.09090911;fill:#ffffff;fill-opacity:1;fill-rule:nonzero;stroke:none"
         id="rect2721-0"
         width="42"
         height="1"
         x="-31"
         y="7" />
    </g>
    <g
       transform="translate(-8,9)"
       id="horizontal-slider-handle">
      <path
         transform="matrix(0.8333333,0,0,1,32.000002,-4)"
         d="M 60,106 A 12,10 0 0 1 48,116 12,10 0 0 1 36,106 12,10 0 0 1 48,96 12,10 0 0 1 60,106 Z"
         sodipodi:ry="10"
         sodipodi:rx="12"
         sodipodi:cy="106"
         sodipodi:cx="48"
         id="path3606"
         style="fill:url(#radialGradient3638);fill-opacity:1;stroke:none;opacity:0"
         sodipodi:type="arc" />
      <path
         sodipodi:type="arc"
         style="fill:url(#linearGradient3640);fill-opacity:1.0;stroke:none"
         id="path2826"
         sodipodi:cx="48"
         sodipodi:cy="106"
         sodipodi:rx="12"
         sodipodi:ry="10"
         d="M 60,106 A 12,10 0 0 1 48,116 12,10 0 0 1 36,106 12,10 0 0 1 48,96 12,10 0 0 1 60,106 Z"
         transform="matrix(0.6666667,0,0,0.8,39.999999,17.2)" />
      <path
         inkscape:connector-curvature="0"
         id="path3220"
         transform="translate(16,24)"
         d="m 56,70 c -4.416,0 -8,3.584 -8,8 0,4.416 3.584,8 8,8 4.416,0 8.000001,-3.584 8,-8 0,-4.416 -3.583999,-8 -8,-8 z m 0,1 c 3.864,0 7,3.136 7,7 0,3.864 -3.136,7 -7,7 -3.864001,0 -7,-3.136 -7,-7 -2e-6,-3.864 3.136,-7 7,-7 z"
         style="fill:url(#linearGradient3229);fill-opacity:1;stroke:none;opacity:0.3" />
    </g>
    <g
       transform="translate(-38,-47)"
       id="vertical-slider-handle">
      <path
         sodipodi:type="arc"
         style="opacity:0;fill:url(#radialGradient3634);fill-opacity:1;stroke:none"
         id="path3630"
         sodipodi:cx="48"
         sodipodi:cy="106"
         sodipodi:rx="12"
         sodipodi:ry="10"
         d="M 60,106 A 12,10 0 0 1 48,116 12,10 0 0 1 36,106 12,10 0 0 1 48,96 12,10 0 0 1 60,106 Z"
         transform="matrix(0.8333333,0,0,1,32.000002,-4)" />
      <path
         transform="matrix(0,-0.6666667,0.8,0,-12.799999,134)"
         d="M 60,106 A 12,10 0 0 1 48,116 12,10 0 0 1 36,106 12,10 0 0 1 48,96 12,10 0 0 1 60,106 Z"
         sodipodi:ry="10"
         sodipodi:rx="12"
         sodipodi:cy="106"
         sodipodi:cx="48"
         id="path3632"
         style="fill:url(#linearGradient3636);fill-opacity:1.0;stroke:none"
         sodipodi:type="arc" />
      <path
         inkscape:connector-curvature="0"
         id="path3209"
         transform="translate(38,46)"
         d="m 34,48 c -4.416,0 -8.000001,3.583998 -8,8 0,4.416 3.584001,7.999999 8,8 4.416,0 8.000001,-3.584001 8,-8 0,-4.416 -3.583999,-7.999998 -8,-8 z m 0,1 c 3.863998,2e-6 7,3.136001 7,7 10e-7,3.863999 -3.136001,7 -7,7 -3.864,-10e-7 -7,-3.136001 -7,-7 -1e-6,-3.863999 3.136001,-7 7,-7 z"
         style="fill:url(#linearGradient3218);fill-opacity:1;stroke:none;opacity:0.3" />
    </g>
    <g
       id="groove-center"
       transform="translate(-253,-100)">
      <path
         id="rect8669-3"
         d="m 264,112 0,5 5,0 0,-5 -5,0 z"
         style="fill:#000000;fill-opacity:0.07843137;fill-rule:nonzero;stroke:none"
         inkscape:connector-curvature="0" />
    </g>
    <g
       id="groove-topleft"
       transform="translate(-254,-101)">
      <path
         inkscape:connector-curvature="0"
         sodipodi:nodetypes="cccccc"
         id="path4447-1"
         d="m 263,108 c -1.68216,0 -3,1.31784 -3,3 l 0,1 4,0 0,-4 z"
         style="fill:#000000;fill-opacity:0.07843137;fill-rule:nonzero;stroke:none" />
      <path
         sodipodi:nodetypes="ssccssccs"
         inkscape:connector-curvature="0"
         id="path4451-4"
         d="M 263.00414,107 C 260.92932,107 259,108.75191 259,110.99813 l 0,1.00187 1,0 0,-1.00187 C 260,109.30342 261.32448,108 263.00414,108 l 0.99586,0 0,-1 z"
         style="fill:#ffffff;fill-opacity:0.19607843;fill-rule:nonzero;stroke:none" />
      <path
         sodipodi:nodetypes="ssccssccs"
         inkscape:connector-curvature="0"
         id="path3881"
         transform="translate(259,107)"
         d="M 4.0215891,1 C 2.1753913,1 1,2.3394291 1,4.0215891 L 1,5 2,5 2,4 C 2,2.73838 2.73838,2 4,2 L 5,2 5,1 z"
         style="fill:#000000;fill-opacity:0.23529412;fill-rule:nonzero;stroke:none" />
      <path
         id="path3900"
         transform="translate(259,107)"
         d="M 4,2 C 3.770534,2 3.5685529,2.014942 3.375,2.0625 3.321873,2.072654 3.2703766,2.081171 3.21875,2.09375 3.198182,2.10043 3.176341,2.117755 3.15625,2.125 3.14666,2.12756 3.134533,2.12236 3.125,2.125 2.4012289,2.3975685 2,3.0648342 2,4 L 2,5 C 2,3.73838 2.73838,3 4,3 L 5,3 5,2 4,2 z"
         style="fill:#000000;fill-opacity:0.09019608;fill-rule:nonzero;stroke:none"
         inkscape:connector-curvature="0" />
    </g>
    <g
       id="groove-left"
       transform="translate(-254,-100)">
      <path
         id="path4493-9"
         d="m 259,112 0,5 1,0 0,-5 -1,0 z"
         style="fill:#ffffff;fill-opacity:0.19607843;fill-rule:nonzero;stroke:none"
         inkscape:connector-curvature="0" />
      <path
         id="path4489-2"
         d="m 260,112 0,5 4,0 0,-5 -4,0 z"
         style="fill:#000000;fill-opacity:0.07843137;fill-rule:nonzero;stroke:none"
         inkscape:connector-curvature="0" />
      <path
         inkscape:connector-curvature="0"
         style="fill:#000000;fill-opacity:0.23529412;fill-rule:nonzero;stroke:none"
         d="m 260,112 0,5 1,0 0,-5 -1,0 z"
         id="path3884" />
    </g>
    <g
       id="groove-top"
       transform="translate(-253,-101)">
      <path
         id="path4543-0"
         d="m 264,108 0,4 5,0 0,-4 -5,0 z"
         style="fill:#000000;fill-opacity:0.07843137;fill-rule:nonzero;stroke:none"
         inkscape:connector-curvature="0" />
      <path
         id="path4545-6"
         d="m 264,107 0,1 5,0 0,-1 -5,0 z"
         style="fill:url(#radialGradient4655);fill-opacity:1;fill-rule:nonzero;stroke:none"
         inkscape:connector-curvature="0" />
      <path
         sodipodi:nodetypes="ccccc"
         inkscape:connector-curvature="0"
         id="path4547-8"
         d="m 264,107 0,1 5,0 0,-1 z"
         style="fill:#ffffff;fill-opacity:0.19607843;fill-rule:nonzero;stroke:none" />
      <path
         inkscape:connector-curvature="0"
         style="fill:#000000;fill-opacity:0.23529412;fill-rule:nonzero;stroke:none"
         d="m 264,108 0,1 5,0 0,-1 -5,0 z"
         id="path3877" />
      <path
         id="path3908"
         d="m 264,109 0,1 5,0 0,-1 -5,0 z"
         style="fill:#000000;fill-opacity:0.09019608;fill-rule:nonzero;stroke:none"
         inkscape:connector-curvature="0" />
    </g>
    <g
       id="groove-bottomleft"
       transform="translate(-254,-99)">
      <path
         sodipodi:nodetypes="cssccsscc"
         inkscape:connector-curvature="0"
         id="path4470-9"
         d="m 259,117 0,1 c 0,2.11953 1.8499,4 4,4 l 1,0 0,-1 -1,0 c -1.73084,0 -3,-1.35522 -3,-3 l 0,-1 z"
         style="fill:#ffffff;fill-opacity:0.19607843;fill-rule:nonzero;stroke:none" />
      <path
         inkscape:connector-curvature="0"
         sodipodi:nodetypes="cccccc"
         id="path4468-2"
         d="m 260,117 0,1 c 0,1.68216 1.31785,3 3,3 l 1,0 0,-4 z"
         style="fill:#000000;fill-opacity:0.07843137;fill-rule:nonzero;stroke:none" />
      <path
         sodipodi:nodetypes="cssccsscc"
         inkscape:connector-curvature="0"
         id="path3892"
         transform="translate(259,105)"
         d="m 1,12 0,1.028884 C 1,14.711044 2.3015842,16 3.9837342,16 L 5,16 5,15 4.3274842,15 C 3.0658742,15 2,13.946754 2,12.685134 L 2,12 z"
         style="fill:#000000;fill-opacity:0.21568627;fill-rule:nonzero;stroke:none" />
    </g>
    <g
       id="groove-bottom"
       transform="translate(-253,-99)">
      <path
         id="path4520-6"
         d="m 264,121 0,1 5,0 0,-1 -5,0 z"
         style="fill:#ffffff;fill-opacity:0.19607843;fill-rule:nonzero;stroke:none"
         inkscape:connector-curvature="0" />
      <path
         id="path4516-6"
         d="m 264,117 0,4 5,0 0,-4 -5,0 z"
         style="fill:#000000;fill-opacity:0.07843137;fill-rule:nonzero;stroke:none"
         inkscape:connector-curvature="0" />
      <path
         sodipodi:nodetypes="ccccc"
         inkscape:connector-curvature="0"
         style="fill:#000000;fill-opacity:0.21568627;fill-rule:nonzero;stroke:none"
         d="m 264,120 0,1 5,0 0,-1 z"
         id="path3888" />
    </g>
    <g
       id="groove-topright"
       transform="translate(-252,-101)">
      <path
         inkscape:connector-curvature="0"
         sodipodi:nodetypes="cccccc"
         id="path4426-4"
         d="m 269,108 0,4 4,0 0,-0.95329 C 273,109.36455 271.6733,108 269.99115,108 z"
         style="fill:#000000;fill-opacity:0.07843137;fill-rule:nonzero;stroke:none" />
      <path
         sodipodi:nodetypes="ccssccssc"
         inkscape:connector-curvature="0"
         id="path4430-9"
         d="m 269,107 0,1 1.01449,0 c 1.78064,0 2.98551,1.55504 2.98551,2.95953 l 0,1.04047 1,0 0,-1.04047 C 274,109.01614 272.35431,107 270.01449,107 z"
         style="fill:#ffffff;fill-opacity:0.19607843;fill-rule:nonzero;stroke:none" />
      <path
         sodipodi:nodetypes="ccssccssc"
         inkscape:connector-curvature="0"
         id="path3874"
         transform="translate(257,107)"
         d="m 12,1 0,1 1,0 c 1.26161,0 2,0.73838 2,2 l 0,1 1,0 0,-0.9784109 C 16,2.3394291 14.673179,1 12.991029,1 z"
         style="fill:#000000;fill-opacity:0.23529412;fill-rule:nonzero;stroke:none" />
      <path
         id="path3910"
         transform="translate(257,107)"
         d="m 12,2 0,1 1,0 c 1.26161,0 2,0.73838 2,2 L 15,4 C 15,3.0989864 14.612342,2.476399 13.9375,2.1875 13.903151,2.1760268 13.878667,2.1352659 13.84375,2.125 13.767542,2.0975198 13.676745,2.0817109 13.59375,2.0625 13.541326,2.0518936 13.490941,2.0391386 13.4375,2.03125 13.29657,2.0085958 13.157701,2 13,2 l -1,0 z"
         style="fill:#000000;fill-opacity:0.09019608;fill-rule:nonzero;stroke:none"
         inkscape:connector-curvature="0" />
    </g>
    <g
       id="groove-right"
       transform="translate(-252,-100)">
      <path
         id="path4574-5"
         d="m 273,112 0,5 1,0 0,-5 -1,0 z"
         style="fill:#ffffff;fill-opacity:0.19607843;fill-rule:nonzero;stroke:none"
         inkscape:connector-curvature="0" />
      <path
         id="path4570-0"
         d="m 269,112 0,5 4,0 0,-5 -4,0 z"
         style="fill:#000000;fill-opacity:0.07843137;fill-rule:nonzero;stroke:none"
         inkscape:connector-curvature="0" />
      <path
         sodipodi:nodetypes="ccccc"
         inkscape:connector-curvature="0"
         style="fill:#000000;fill-opacity:0.23529412;fill-rule:nonzero;stroke:none"
         d="m 272,112 0,5 1,0 0,-5 z"
         id="path3886" />
    </g>
    <g
       id="groove-bottomright"
       transform="translate(-252,-99)">
      <path
         sodipodi:nodetypes="cssccsscc"
         inkscape:connector-curvature="0"
         id="path4404-4"
         d="m 273,117 0,1 c 0,1.5651 -1.19272,3 -3,3 l -1,0 0,1 1,0 c 2.21632,0 4,-1.75325 4,-4 l 0,-1 z"
         style="fill:#ffffff;fill-opacity:0.19607843;fill-rule:nonzero;stroke:none" />
      <path
         inkscape:connector-curvature="0"
         sodipodi:nodetypes="cccccc"
         id="path4400-8"
         d="m 269,117 0,4 1,0 c 1.50538,0 3,-1.16875 3,-3 l 0,-1 z"
         style="fill:#000000;fill-opacity:0.07843137;fill-rule:nonzero;stroke:none" />
      <path
         sodipodi:nodetypes="cssccsscc"
         inkscape:connector-curvature="0"
         id="path3897"
         transform="translate(257,105)"
         d="m 15,12 0,1 c 0,1.37344 -0.87096,2 -2,2 l -1,0 0,1 1,0 c 1.50538,0 3,-1.173019 3,-3.004269 L 16,12 z"
         style="fill:#000000;fill-opacity:0.21568627;fill-rule:nonzero;stroke:none" />
    </g>
    <rect
       ry="2.077126"
       rx="0"
       y="4.6594176"
       x="2.2599621"
       height="2.077126"
       width="2.0329318"
       id="hint-stretch-borders-7"
       style="fill:#4e9a06;fill-opacity:1;fill-rule:nonzero;stroke:none" />
    <path
       inkscape:connector-curvature="0"
       style="opacity:0.8;fill:url(#radialGradient4015);fill-opacity:1;stroke:none"
       d="m 108,54.4 c -6.62742,0 -12,5.372582 -12,12 0,6.627417 5.37258,12 12,12 6.62742,0 12,-5.372583 12,-12 0,-6.627418 -5.37258,-12 -12,-12 z m 0,2.4 c 5.30194,0 9.6,4.298066 9.6,9.6 0,5.301934 -4.29806,9.6 -9.6,9.6 -5.30194,0 -9.6,-4.298066 -9.6,-9.6 0,-5.301934 4.29806,-9.6 9.6,-9.6 z"
       id="horizontal-slider-focus" />
    <g
       id="pressed"
       transform="matrix(1.5000001,0,0,1.5,116.99999,-130)">
      <path
         sodipodi:type="arc"
         style="fill:none;stroke:none"
         id="path3606-5"
         sodipodi:cx="48"
         sodipodi:cy="106"
         sodipodi:rx="12"
         sodipodi:ry="10"
         d="M 60,106 A 12,10 0 0 1 48,116 12,10 0 0 1 36,106 12,10 0 0 1 48,96 12,10 0 0 1 60,106 Z"
         transform="matrix(0.8333333,0,0,1,32.000002,-4)" />
      <path
         transform="matrix(0.61111106,0,0,0.73333324,42.666669,24.266676)"
         d="M 60,106 A 12,10 0 0 1 48,116 12,10 0 0 1 36,106 12,10 0 0 1 48,96 12,10 0 0 1 60,106 Z"
         sodipodi:ry="10"
         sodipodi:rx="12"
         sodipodi:cy="106"
         sodipodi:cx="48"
         id="path2826-4"
         style="fill:url(#linearGradient3640-6);fill-opacity:1;stroke:none"
         sodipodi:type="arc" />
      <path
         sodipodi:type="arc"
         style="opacity:0.6;fill:url(#radialGradient3645);fill-opacity:1;stroke:none"
         id="path3643"
         sodipodi:cx="48"
         sodipodi:cy="106"
         sodipodi:rx="12"
         sodipodi:ry="10"
         d="M 60,106 A 12,10 0 0 1 48,116 12,10 0 0 1 36,106 12,10 0 0 1 48,96 12,10 0 0 1 60,106 Z"
         transform="matrix(0.61111106,0,0,0.73333324,42.666669,24.266676)" />
      <path
         inkscape:connector-curvature="0"
         style="opacity:0.6;fill:url(#linearGradient3642);fill-opacity:1;stroke:none"
         d="m 56,70 c -4.416,0 -8,3.584 -8,8 0,4.416 3.584,8 8,8 4.416,0 8.000001,-3.584 8,-8 0,-4.416 -3.583999,-8 -8,-8 z m 0,0.666667 c 3.864,0 7.333333,3.469333 7.333333,7.333333 0,3.864 -3.469333,7.333333 -7.333333,7.333333 C 52.135999,85.333333 48.666668,81.864 48.666668,78 48.666666,74.136 52.136,70.666667 56,70.666667 z"
         id="path3220-7"
         sodipodi:nodetypes="csssccsssc"
         transform="translate(16,24)" />
    </g>
    <g
       id="normal"
       transform="matrix(1.5000001,0,0,1.5,83.999991,-158)">
      <path
         transform="matrix(0.8333333,0,0,1,32.000002,-4)"
         d="M 60,106 A 12,10 0 0 1 48,116 12,10 0 0 1 36,106 12,10 0 0 1 48,96 12,10 0 0 1 60,106 Z"
         sodipodi:ry="10"
         sodipodi:rx="12"
         sodipodi:cy="106"
         sodipodi:cx="48"
         id="path3630-6"
         style="fill:none;stroke:none"
         sodipodi:type="arc" />
      <path
         sodipodi:type="arc"
         style="fill:url(#linearGradient3840);fill-opacity:1;stroke:none"
         id="path3632-5"
         sodipodi:cx="48"
         sodipodi:cy="106"
         sodipodi:rx="12"
         sodipodi:ry="10"
         d="M 60,106 A 12,10 0 0 1 48,116 12,10 0 0 1 36,106 12,10 0 0 1 48,96 12,10 0 0 1 60,106 Z"
         transform="matrix(0,-0.6666667,0.8,0,-12.799999,134)" />
      <path
         inkscape:connector-curvature="0"
         style="opacity:0.3;fill:url(#linearGradient3844);fill-opacity:1;stroke:none"
         d="m 34,48 c -4.416,0 -8.000001,3.583998 -8,8 0,4.416 3.584001,7.999999 8,8 4.416,0 8.000001,-3.584001 8,-8 0,-4.416 -3.583999,-7.999998 -8,-8 z m 0,0.666667 c 3.863998,2e-6 7.333334,3.469334 7.333334,7.333333 C 41.333335,59.863999 37.863999,63.333333 34,63.333333 30.136,63.333332 26.666668,59.863999 26.666668,56 26.666667,52.136001 30.136001,48.666667 34,48.666667 z"
         id="path3209-6"
         sodipodi:nodetypes="csssccsssc"
         transform="translate(38,46)" />
    </g>
    <path
       inkscape:connector-curvature="0"
       style="fill:url(#radialGradient4003);fill-opacity:1;stroke:none"
       d="m 108,78.4 c -6.62742,0 -12,5.372583 -12,12 0,6.62742 5.37258,12 12,12 6.62742,0 12,-5.37258 12,-12 0,-6.627417 -5.37258,-12 -12,-12 z m 0,2.4 c 5.30194,0 9.6,4.298066 9.6,9.6 0,5.30194 -4.29806,9.6 -9.6,9.6 -5.30194,0 -9.6,-4.29806 -9.6,-9.6 0,-5.301934 4.29806,-9.6 9.6,-9.6 z"
       id="horizontal-slider-hover" />
    <path
       style="fill:url(#radialGradient4000);fill-opacity:1;stroke:none"
       d="m 106.4,104 c -6.62742,0 -12,5.37258 -12,12 0,6.62742 5.37258,12 12,12 6.62742,0 12,-5.37258 12,-12 0,-6.62742 -5.37258,-12 -12,-12 z m 0,2.4 c 5.30194,0 9.6,4.29806 9.6,9.6 0,5.30194 -4.29806,9.6 -9.6,9.6 -5.30194,0 -9.6,-4.29806 -9.6,-9.6 0,-5.30194 4.29806,-9.6 9.6,-9.6 z"
       id="horizontal-slider-shadow"
       inkscape:connector-curvature="0" />
    <path
       transform="matrix(1.25,0,0,1.5,87.999996,-210)"
       d="m 60,106 a 12,10 0 1 1 -24,0 12,10 0 1 1 24,0 z"
       sodipodi:ry="10"
       sodipodi:rx="12"
       sodipodi:cy="106"
       sodipodi:cx="48"
       id="path4575"
       style="fill:none;stroke:none"
       sodipodi:type="arc" />
    <path
       inkscape:connector-curvature="0"
       id="vertical-slider-shadow"
       d="m 62.4,52 c -6.62742,0 -12,5.37258 -12,12 0,6.62742 5.37258,12 12,12 6.62742,0 12,-5.37258 12,-12 0,-6.62742 -5.37258,-12 -12,-12 z m 0,2.4 c 5.30194,0 9.6,4.29806 9.6,9.6 0,5.30194 -4.29806,9.6 -9.6,9.6 -5.30194,0 -9.6,-4.29806 -9.6,-9.6 0,-5.30194 4.29806,-9.6 9.6,-9.6 z"
       style="fill:url(#radialGradient4021);fill-opacity:1;stroke:none" />
    <path
       id="vertical-slider-focus"
       d="m 64,2.4 c -6.62742,0 -12,5.372582 -12,12 0,6.627417 5.37258,12 12,12 6.62742,0 12,-5.372583 12,-12 0,-6.627418 -5.37258,-12 -12,-12 z m 0,2.4 c 5.30194,0 9.6,4.298066 9.6,9.6 0,5.301934 -4.29806,9.6 -9.6,9.6 -5.30194,0 -9.6,-4.298066 -9.6,-9.6 0,-5.301934 4.29806,-9.6 9.6,-9.6 z"
       style="opacity:0.8;fill:url(#radialGradient4033);fill-opacity:1;stroke:none"
       inkscape:connector-curvature="0" />
    <path
       id="vertical-slider-hover"
       d="m 64,26.4 c -6.62742,0 -12,5.372583 -12,12 0,6.62742 5.37258,12 12,12 6.62742,0 12,-5.37258 12,-12 0,-6.627417 -5.37258,-12 -12,-12 z m 0,2.4 c 5.30194,0 9.6,4.298066 9.6,9.6 0,5.30194 -4.29806,9.6 -9.6,9.6 -5.30194,0 -9.6,-4.29806 -9.6,-9.6 0,-5.301934 4.29806,-9.6 9.6,-9.6 z"
       style="fill:url(#radialGradient4035);fill-opacity:1;stroke:none"
       inkscape:connector-curvature="0" />
  </g>
</svg>
