<?xml version="1.0" encoding="UTF-8" standalone="no"?>
<!-- Created with Inkscape (http://www.inkscape.org/) -->

<svg
   xmlns:dc="http://purl.org/dc/elements/1.1/"
   xmlns:cc="http://creativecommons.org/ns#"
   xmlns:rdf="http://www.w3.org/1999/02/22-rdf-syntax-ns#"
   xmlns:svg="http://www.w3.org/2000/svg"
   xmlns="http://www.w3.org/2000/svg"
   xmlns:xlink="http://www.w3.org/1999/xlink"
   xmlns:sodipodi="http://sodipodi.sourceforge.net/DTD/sodipodi-0.dtd"
   xmlns:inkscape="http://www.inkscape.org/namespaces/inkscape"
   width="257"
   height="161"
   id="svg7080"
   sodipodi:version="0.32"
   inkscape:version="0.48.1 r9760"
   version="1.0"
   sodipodi:docname="viewitem.svgz"
   inkscape:output_extension="org.inkscape.output.svgz.inkscape">
  <sodipodi:namedview
     id="base"
     pagecolor="#798eff"
     bordercolor="#666666"
     borderopacity="1.0"
     inkscape:pageopacity="1"
     inkscape:pageshadow="2"
     inkscape:zoom="4"
     inkscape:cx="87.171287"
     inkscape:cy="73.526019"
     inkscape:document-units="px"
     inkscape:current-layer="layer1"
     showgrid="true"
     inkscape:window-width="1035"
     inkscape:window-height="745"
     inkscape:window-x="237"
     inkscape:window-y="0"
     inkscape:snap-global="true"
     inkscape:object-paths="false"
     inkscape:object-nodes="false"
     gridtolerance="3"
     inkscape:window-maximized="0">
    <inkscape:grid
       type="xygrid"
       id="grid7342"
       visible="true"
       enabled="true"
       empspacing="5"
       snapvisiblegridlinesonly="true" />
  </sodipodi:namedview>
  <defs
     id="defs7082">
    <linearGradient
       id="linearGradient8746">
      <stop
         id="stop8748"
         offset="0"
         style="stop-color:#ffffff;stop-opacity:1;" />
      <stop
         id="stop8750"
         offset="1"
         style="stop-color:#ffffff;stop-opacity:0;" />
    </linearGradient>
    <linearGradient
       id="linearGradient8734">
      <stop
         id="stop8736"
         offset="0"
         style="stop-color:#ffffff;stop-opacity:1;" />
      <stop
         id="stop8738"
         offset="1"
         style="stop-color:#ffffff;stop-opacity:0;" />
    </linearGradient>
    <radialGradient
       r="70"
       fy="229.36844"
       fx="355.28513"
       cy="229.36844"
       cx="355.28513"
       gradientTransform="matrix(1.7747169,0,0,1.1566649,-709.57584,314.76359)"
       gradientUnits="userSpaceOnUse"
       id="radialGradient12915"
       xlink:href="#linearGradient8734"
       inkscape:collect="always" />
    <radialGradient
       r="70"
       fy="222.73233"
       fx="355.05859"
       cy="222.73233"
       cx="355.05859"
       gradientTransform="matrix(1.7796094,-6.4399432e-7,0,3.4826371,-711.1346,-185.51868)"
       gradientUnits="userSpaceOnUse"
       id="radialGradient12922"
       xlink:href="#linearGradient8734"
       inkscape:collect="always" />
    <radialGradient
       r="70"
       fy="236.55251"
       fx="355.26648"
       cy="236.55251"
       cx="355.26648"
       gradientTransform="matrix(1.7796094,0,0,1.1558382,-711.13504,274.58542)"
       gradientUnits="userSpaceOnUse"
       id="radialGradient12928"
       xlink:href="#linearGradient8734"
       inkscape:collect="always" />
    <radialGradient
       r="70"
       fy="236.55327"
       fx="355.26645"
       cy="236.55327"
       cx="355.26645"
       gradientTransform="matrix(0.6520708,-6.4204842e-7,0,1.1584286,-351.80505,274.01364)"
       gradientUnits="userSpaceOnUse"
       id="radialGradient12935"
       xlink:href="#linearGradient8734"
       inkscape:collect="always" />
    <radialGradient
       r="70"
       fy="269.55038"
       fx="353.74701"
       cy="269.55038"
       cx="353.74701"
       gradientTransform="matrix(0.6498357,0,0,1.1513867,-350.8407,269.14221)"
       gradientUnits="userSpaceOnUse"
       id="radialGradient12941"
       xlink:href="#linearGradient8746"
       inkscape:collect="always" />
    <radialGradient
       r="70"
       fy="229.36844"
       fx="355.28513"
       cy="229.36844"
       cx="355.28513"
       gradientTransform="matrix(-1.7747169,0,0,1.1550902,469.58919,315.1048)"
       gradientUnits="userSpaceOnUse"
       id="radialGradient12949"
       xlink:href="#linearGradient8734"
       inkscape:collect="always" />
    <radialGradient
       r="70"
       fy="222.73233"
       fx="355.05859"
       cy="222.73233"
       cx="355.05859"
       gradientTransform="matrix(-1.7796094,-6.4399419e-7,0,3.4826364,471.13462,-185.51859)"
       gradientUnits="userSpaceOnUse"
       id="radialGradient12955"
       xlink:href="#linearGradient8734"
       inkscape:collect="always" />
    <radialGradient
       r="70"
       fy="236.55251"
       fx="355.26648"
       cy="236.55251"
       cx="355.26648"
       gradientTransform="matrix(-1.7796094,0,0,1.1576875,471.13463,274.18938)"
       gradientUnits="userSpaceOnUse"
       id="radialGradient12962"
       xlink:href="#linearGradient8734"
       inkscape:collect="always" />
    <linearGradient
       inkscape:collect="always"
       xlink:href="#linearGradient4254-7"
       id="linearGradient4306"
       x1="317.91653"
       y1="909.77173"
       x2="317.91653"
       y2="912.77173"
       gradientUnits="userSpaceOnUse" />
    <linearGradient
       id="linearGradient4254-7">
      <stop
         style="stop-color:#888888;stop-opacity:1;"
         offset="0"
         id="stop4256" />
      <stop
         style="stop-color:#232323;stop-opacity:1;"
         offset="1"
         id="stop4258" />
    </linearGradient>
    <linearGradient
       id="linearGradient5705">
      <stop
         style="stop-color:#efefef;stop-opacity:0.93599999;"
         offset="0"
         id="stop5707" />
      <stop
         style="stop-color:#ededed;stop-opacity:0;"
         offset="1"
         id="stop5709" />
    </linearGradient>
  </defs>
  <metadata
     id="metadata7085">
    <rdf:RDF>
      <cc:Work
         rdf:about="">
        <dc:format>image/svg+xml</dc:format>
        <dc:type
           rdf:resource="http://purl.org/dc/dcmitype/StillImage" />
      </cc:Work>
    </rdf:RDF>
  </metadata>
  <g
     inkscape:label="Camada 1"
     inkscape:groupmode="layer"
     id="layer1"
     transform="translate(297,-432)">
    <rect
       style="opacity:0.875;fill:#008000;fill-opacity:1;stroke:none"
       id="hint-stretch-borders"
       width="40"
       height="40"
       x="-247.07144"
       y="341.67673" />
    <path
       inkscape:connector-curvature="0"
       id="selected-center"
       d="m -267,447.01572 0,48 48,0 0,-48 -48,0 z"
       style="opacity:0.82272728;fill:#ffffff;fill-opacity:0.15686275;fill-rule:nonzero;stroke:none" />
    <g
       transform="matrix(0.36657704,0,0,1,-336.71201,-350.85718)"
       id="selected-bottom">
      <g
         id="g4093">
        <path
           id="path4095"
           d="m 190.12705,845.85714 0,4 130.9842,-0.0625 0,-3.9375 -130.9842,0 z"
           style="opacity:0.82272728;fill:#ffffff;fill-opacity:0.15686275;fill-rule:nonzero;stroke:none"
           inkscape:connector-curvature="0" />
        <path
           style="opacity:0.85;fill:#000000;fill-opacity:0.15686275;fill-rule:nonzero;stroke:none"
           d="m 190.14285,849.85714 0,1 131,0 0,-1 -131,0 z"
           id="path4097"
           inkscape:connector-curvature="0" />
        <path
           sodipodi:nodetypes="ccccc"
           inkscape:connector-curvature="0"
           id="path4099"
           d="m 190.14285,848.85714 0,1 131,0 0,-1 z"
           style="fill:#ffffff;fill-opacity:0.31372549;fill-rule:nonzero;stroke:none" />
      </g>
      <rect
         transform="translate(-342.85715,-17.142857)"
         y="869"
         x="547"
         height="2.000037"
         width="1"
         id="rect4101"
         style="opacity:0.52100004;fill:#ffffff;fill-opacity:0;stroke:none" />
    </g>
    <g
       transform="translate(-457.14285,-350.85718)"
       id="selected-bottomleft">
      <g
         id="g4105">
        <path
           inkscape:connector-curvature="0"
           style="opacity:0.85;fill:#000000;fill-opacity:0.15686275;fill-rule:nonzero;stroke:none"
           d="m 188.6741,850.85716 c -1.94821,0 -3.53125,-1.58839 -3.53125,-3.53125 l 0,-1.46875 1,0 0,1.46875 c 0,1.40502 1.11588,2.53125 2.53125,2.53125 l 1.46875,0 0,1 -1.46875,0 z"
           id="path4107" />
        <path
           inkscape:connector-curvature="0"
           style="opacity:0.82272728;fill:#ffffff;fill-opacity:0.15686275;fill-rule:nonzero;stroke:none"
           d="m 190.14285,849.8572 0,-4 -4,0 0,1.46875 c 0,1.40502 1.11588,2.53125 2.53125,2.53125 l 1.46875,0 z"
           id="path4109" />
        <path
           sodipodi:nodetypes="ccccscccc"
           inkscape:connector-curvature="0"
           id="path4111"
           d="m 188.74285,849.85718 c -1.66084,0 -2.6,-1.19855 -2.6,-2.7 l 0,-1.3 1,0 -0.021,1.29373 c -0.0208,1.28062 0.23073,1.70627 1.62099,1.70627 l 1.4,0 0,1 z"
           style="fill:#ffffff;fill-opacity:0.31372549;stroke:none" />
      </g>
      <rect
         y="851.85712"
         x="183.14285"
         height="2.0000634"
         width="2.0000029"
         id="rect4113"
         style="opacity:0.52100004;fill:#ffffff;fill-opacity:0;stroke:none" />
    </g>
    <g
       transform="matrix(1,0,0,3.0009825,-457.14285,-2043.3868)"
       id="selected-left">
      <g
         id="g4117">
        <path
           inkscape:connector-curvature="0"
           style="opacity:0.82272728;fill:#ffffff;fill-opacity:0.15686275;fill-rule:nonzero;stroke:none"
           d="m 186.14285,829.85712 0,16 4,0 0,-16 -4,0 z"
           id="path4119" />
        <path
           inkscape:connector-curvature="0"
           id="path4121"
           d="m 185.14285,829.85715 0,15.99999 1,0 0,-15.99999 -1,0 z"
           style="opacity:0.85;fill:#000000;fill-opacity:0.15686275;fill-rule:nonzero;stroke:none" />
        <path
           style="fill:#ffffff;fill-opacity:0.31372549;fill-rule:nonzero;stroke:none"
           d="m 186.14285,829.85715 0,15.99999 1,0 0,-15.99999 -1,0 z"
           id="path4123"
           inkscape:connector-curvature="0" />
      </g>
      <rect
         y="834.85712"
         x="183.14285"
         height="3"
         width="2.0000029"
         id="rect4125"
         style="opacity:0.52100004;fill:#ffffff;fill-opacity:0;stroke:none" />
    </g>
    <g
       transform="translate(-457.14285,-382.85718)"
       id="selected-topleft">
      <g
         id="g4129">
        <path
           inkscape:connector-curvature="0"
           id="path4131"
           d="m 186.14285,829.8571 4,0 0,-4 -1.46875,0 c -1.40502,0 -2.53125,1.11588 -2.53125,2.53125 l 0,1.46875 z"
           style="opacity:0.82272728;fill:#ffffff;fill-opacity:0.15686275;fill-rule:nonzero;stroke:none" />
        <path
           id="path4133"
           d="m 185.14285,828.3884 c 0,-1.94821 1.58839,-3.53125 3.53125,-3.53125 l 1.46875,0 0,1 -1.46875,0 c -1.40502,0 -2.53125,1.11588 -2.53125,2.53125 l 0,1.46875 -1,0 0,-1.46875 z"
           style="opacity:0.85;fill:#000000;fill-opacity:0.15686275;fill-rule:nonzero;stroke:none"
           inkscape:connector-curvature="0" />
        <path
           inkscape:connector-curvature="0"
           style="fill:#ffffff;fill-opacity:0.31372549;fill-rule:nonzero;stroke:none"
           d="m 186.14285,829.8571 1,0 0,-1 c 0,-1.41537 0.59498,-2 2,-2 l 1,0 0,-1 -1.46875,0 c -1.40502,0 -2.53125,1.11588 -2.53125,2.53125 l 0,1.46875 z"
           id="path4135" />
      </g>
      <rect
         y="822.85718"
         x="183.14285"
         height="1.9999441"
         width="2.0000029"
         id="rect4137"
         style="opacity:0.52100004;fill:#ffffff;fill-opacity:0;stroke:none" />
    </g>
    <g
       transform="matrix(0.36657704,0,0,1,-336.71201,-382.8414)"
       id="selected-top">
      <g
         id="g4141">
        <path
           inkscape:connector-curvature="0"
           id="path4143"
           d="m 190.14286,825.85714 0,4 131,0 0,-4 -131,0 z"
           style="opacity:0.82272728;fill:#ffffff;fill-opacity:0.15686275;fill-rule:nonzero;stroke:none" />
        <path
           inkscape:connector-curvature="0"
           style="opacity:0.85;fill:#000000;fill-opacity:0.15686275;fill-rule:nonzero;stroke:none"
           d="m 190.14285,824.85714 0,1 131,0 0,-1 -131,0 z"
           id="path4145" />
        <path
           id="path4147"
           d="m 190.14285,825.85714 0,1 131,0 0,-1 -131,0 z"
           style="fill:#ffffff;fill-opacity:0.31372549;fill-rule:nonzero;stroke:none"
           inkscape:connector-curvature="0" />
      </g>
      <rect
         style="opacity:0.52100004;fill:#ffffff;fill-opacity:0;stroke:none"
         id="rect4149"
         width="3"
         height="1.9999441"
         x="200.14285"
         y="822.85718" />
    </g>
    <g
       transform="translate(-540.14285,-382.8414)"
       id="selected-topright">
      <g
         id="g4153">
        <path
           inkscape:connector-curvature="0"
           style="opacity:0.82272728;fill:#ffffff;fill-opacity:0.15686275;fill-rule:nonzero;stroke:none"
           d="m 321.14285,825.85714 0,4 4,0 0,-1.46875 c 0,-1.40502 -1.11588,-2.53125 -2.53125,-2.53125 l -1.46875,0 z"
           id="path4155" />
        <path
           inkscape:connector-curvature="0"
           style="opacity:0.85;fill:#000000;fill-opacity:0.15686275;fill-rule:nonzero;stroke:none"
           d="m 322.6116,824.85714 c 1.94821,0 3.53125,1.58839 3.53125,3.53125 l 0,1.46875 -1,0 0,-1.46875 c 0,-1.40502 -1.11588,-2.53125 -2.53125,-2.53125 l -1.46875,0 0,-1 1.46875,0 z"
           id="path4157" />
        <path
           sodipodi:nodetypes="ccssccssc"
           inkscape:connector-curvature="0"
           id="path4159"
           d="m 325.14285,829.8571 -1,0 0,-1 c 0,-1.41537 -0.59498,-2 -2,-2 l -1,0 0,-1 1.46875,0 c 1.40502,0 2.53125,1.11588 2.53125,2.53125 z"
           style="fill:#ffffff;fill-opacity:0.31372549;fill-rule:nonzero;stroke:none" />
      </g>
      <rect
         y="822.85718"
         x="326.14285"
         height="1.9999441"
         width="1.9999973"
         id="rect4161"
         style="opacity:0.52100004;fill:#ffffff;fill-opacity:0;stroke:none" />
    </g>
    <g
       transform="matrix(1,0,0,3.0000017,-540.14285,-2042.557)"
       id="selected-right">
      <g
         id="g4165">
        <path
           inkscape:connector-curvature="0"
           id="path4167"
           d="m 325.14286,829.85712 0,16 -4,0 0,-16 4,0 z"
           style="opacity:0.82272728;fill:#ffffff;fill-opacity:0.15686275;fill-rule:nonzero;stroke:none" />
        <path
           inkscape:connector-curvature="0"
           style="opacity:0.85;fill:#000000;fill-opacity:0.15686275;fill-rule:nonzero;stroke:none"
           d="m 326.14286,829.85715 0,15.99999 -1,0 0,-15.99999 1,0 z"
           id="path4169" />
        <path
           id="path4171"
           d="m 325.14285,829.85714 0,15.99999 -1,0 0,-15.99999 1,0 z"
           style="fill:#ffffff;fill-opacity:0.31372549;fill-rule:nonzero;stroke:none"
           inkscape:connector-curvature="0" />
      </g>
      <rect
         style="opacity:0.52100004;fill:#ffffff;fill-opacity:0;stroke:none"
         id="rect4173"
         width="1.9999973"
         height="3"
         x="326.14285"
         y="832.85712" />
    </g>
    <g
       transform="translate(-540.14285,-350.85718)"
       id="selected-bottomright">
      <g
         id="g4177">
        <g
           id="g4179">
          <path
             sodipodi:nodetypes="csccscccc"
             inkscape:connector-curvature="0"
             id="path4181"
             d="m 322.14285,849.85714 c 1.59707,0 3,-0.57542 3,-2.99996 0,-0.94263 0,-1 0,-1 l -1,0 c 0,0.88676 0,0.28587 0,1 0,0.89359 -0.31679,1.99996 -2,1.99996 l -1,0 0,1 z"
             style="fill:#ffffff;fill-opacity:0.31372549;stroke:none" />
          <path
             inkscape:connector-curvature="0"
             style="opacity:0.82272728;fill:#ffffff;fill-opacity:0.15686275;fill-rule:nonzero;stroke:none"
             d="m 325.1429,845.85714 -4,0 0,4 1.46875,0 c 1.40502,0 2.53125,-1.11588 2.53125,-2.53125 l 0,-1.46875 z"
             id="path4183" />
          <path
             inkscape:connector-curvature="0"
             style="opacity:0.85199998;fill:#000000;fill-opacity:0.15686275;fill-rule:nonzero;stroke:none"
             d="m 326.14286,847.32589 c 0,1.94821 -1.58839,3.53125 -3.53125,3.53125 l -1.46875,0 0,-1 1.46875,0 c 1.40502,0 2.53125,-1.11588 2.53125,-2.53125 l 0,-1.46875 1,0 0,1.46875 z"
             id="path4185" />
        </g>
      </g>
      <rect
         y="851.85712"
         x="326.14285"
         height="2.0000634"
         width="1.9999973"
         id="rect4187"
         style="opacity:0.52100004;fill:#ffffff;fill-opacity:0;stroke:none" />
    </g>
    <path
       style="opacity:0.82272728;fill:#ffffff;fill-opacity:0.07843137;fill-rule:nonzero;stroke:none"
       d="m -167.00001,449.01572 0,48 48,0 0,-48 -48,0 z"
       id="normal-center"
       inkscape:connector-curvature="0" />
    <g
       id="normal-bottom"
       transform="matrix(0.36657704,0,0,1,-236.71202,-348.85718)">
      <g
         id="g4980">
        <path
           inkscape:connector-curvature="0"
           style="opacity:0.82272728;fill:#ffffff;fill-opacity:0.07843137;fill-rule:nonzero;stroke:none"
           d="m 190.12705,845.85714 0,4 130.9842,-0.0625 0,-3.9375 -130.9842,0 z"
           id="path4983" />
        <path
           inkscape:connector-curvature="0"
           id="path4985"
           d="m 190.14285,849.85714 0,1 131,0 0,-1 -131,0 z"
           style="opacity:0.85;fill:#000000;fill-opacity:0.15686275;fill-rule:nonzero;stroke:none" />
        <path
           style="fill:#ffffff;fill-opacity:0.15686275;fill-rule:nonzero;stroke:none"
           d="m 190.14285,848.85714 0,1 131,0 0,-1 z"
           id="path4987"
           inkscape:connector-curvature="0"
           sodipodi:nodetypes="ccccc" />
      </g>
      <rect
         style="opacity:0.52100004;fill:#ffffff;fill-opacity:0;stroke:none"
         id="rect4989"
         width="1"
         height="2.000037"
         x="547"
         y="869"
         transform="translate(-342.85715,-17.142857)" />
    </g>
    <g
       id="normal-bottomleft"
       transform="translate(-357.14286,-348.85718)">
      <g
         id="g4993">
        <path
           id="path4995"
           d="m 188.6741,850.85716 c -1.94821,0 -3.53125,-1.58839 -3.53125,-3.53125 l 0,-1.46875 1,0 0,1.46875 c 0,1.40502 1.11588,2.53125 2.53125,2.53125 l 1.46875,0 0,1 -1.46875,0 z"
           style="opacity:0.85;fill:#000000;fill-opacity:0.15686275;fill-rule:nonzero;stroke:none"
           inkscape:connector-curvature="0" />
        <path
           id="path4997"
           d="m 190.14285,849.8572 0,-4 -4,0 0,1.46875 c 0,1.40502 1.11588,2.53125 2.53125,2.53125 l 1.46875,0 z"
           style="opacity:0.82272728;fill:#ffffff;fill-opacity:0.07843137;fill-rule:nonzero;stroke:none"
           inkscape:connector-curvature="0" />
        <path
           style="fill:#ffffff;fill-opacity:0.15686275;stroke:none"
           d="m 188.74285,849.85718 c -1.66084,0 -2.6,-1.19855 -2.6,-2.7 l 0,-1.3 1,0 -0.021,1.29373 c -0.0208,1.28062 0.23073,1.70627 1.62099,1.70627 l 1.4,0 0,1 z"
           id="path4999"
           inkscape:connector-curvature="0"
           sodipodi:nodetypes="ccccscccc" />
      </g>
      <rect
         style="opacity:0.52100004;fill:#ffffff;fill-opacity:0;stroke:none"
         id="rect5001"
         width="2.0000029"
         height="2.0000634"
         x="183.14285"
         y="851.85712" />
    </g>
    <g
       id="normal-left"
       transform="matrix(1,0,0,3.0009825,-357.14286,-2041.3868)">
      <g
         id="g5005">
        <path
           id="path5007"
           d="m 186.14285,829.85712 0,16 4,0 0,-16 -4,0 z"
           style="opacity:0.82272728;fill:#ffffff;fill-opacity:0.07843137;fill-rule:nonzero;stroke:none"
           inkscape:connector-curvature="0" />
        <path
           style="opacity:0.85;fill:#000000;fill-opacity:0.15686275;fill-rule:nonzero;stroke:none"
           d="m 185.14285,829.85715 0,15.99999 1,0 0,-15.99999 -1,0 z"
           id="path5009"
           inkscape:connector-curvature="0" />
        <path
           inkscape:connector-curvature="0"
           id="path5011"
           d="m 186.14285,829.85715 0,15.99999 1,0 0,-15.99999 -1,0 z"
           style="fill:#ffffff;fill-opacity:0.15686275;fill-rule:nonzero;stroke:none" />
      </g>
      <rect
         style="opacity:0.52100004;fill:#ffffff;fill-opacity:0;stroke:none"
         id="rect5013"
         width="2.0000029"
         height="3"
         x="183.14285"
         y="834.85712" />
    </g>
    <g
       id="normal-topleft"
       transform="translate(-357.14286,-380.85718)">
      <g
         id="g5017">
        <path
           style="opacity:0.82272728;fill:#ffffff;fill-opacity:0.07843137;fill-rule:nonzero;stroke:none"
           d="m 186.14285,829.8571 4,0 0,-4 -1.46875,0 c -1.40502,0 -2.53125,1.11588 -2.53125,2.53125 l 0,1.46875 z"
           id="path5019"
           inkscape:connector-curvature="0" />
        <path
           inkscape:connector-curvature="0"
           style="opacity:0.85;fill:#000000;fill-opacity:0.15686275;fill-rule:nonzero;stroke:none"
           d="m 185.14285,828.3884 c 0,-1.94821 1.58839,-3.53125 3.53125,-3.53125 l 1.46875,0 0,1 -1.46875,0 c -1.40502,0 -2.53125,1.11588 -2.53125,2.53125 l 0,1.46875 -1,0 0,-1.46875 z"
           id="path5021" />
        <path
           id="path5023"
           d="m 186.14285,829.8571 1,0 0,-1 c 0,-1.41537 0.59498,-2 2,-2 l 1,0 0,-1 -1.46875,0 c -1.40502,0 -2.53125,1.11588 -2.53125,2.53125 l 0,1.46875 z"
           style="fill:#ffffff;fill-opacity:0.15686275;fill-rule:nonzero;stroke:none"
           inkscape:connector-curvature="0" />
      </g>
      <rect
         style="opacity:0.52100004;fill:#ffffff;fill-opacity:0;stroke:none"
         id="rect5025"
         width="2.0000029"
         height="1.9999441"
         x="183.14285"
         y="822.85718" />
    </g>
    <g
       id="normal-top"
       transform="matrix(0.36657704,0,0,1,-236.71202,-380.8414)">
      <g
         id="g5029">
        <path
           style="opacity:0.82272728;fill:#ffffff;fill-opacity:0.07843137;fill-rule:nonzero;stroke:none"
           d="m 190.14286,825.85714 0,4 131,0 0,-4 -131,0 z"
           id="path5031"
           inkscape:connector-curvature="0" />
        <path
           id="path5033"
           d="m 190.14285,824.85714 0,1 131,0 0,-1 -131,0 z"
           style="opacity:0.85;fill:#000000;fill-opacity:0.15686275;fill-rule:nonzero;stroke:none"
           inkscape:connector-curvature="0" />
        <path
           inkscape:connector-curvature="0"
           style="fill:#ffffff;fill-opacity:0.15686275;fill-rule:nonzero;stroke:none"
           d="m 190.14285,825.85714 0,1 131,0 0,-1 -131,0 z"
           id="path5035" />
      </g>
      <rect
         y="822.85718"
         x="200.14285"
         height="1.9999441"
         width="3"
         id="rect5037"
         style="opacity:0.52100004;fill:#ffffff;fill-opacity:0;stroke:none" />
    </g>
    <g
       id="normal-topright"
       transform="translate(-440.14286,-380.8414)">
      <g
         id="g5041">
        <path
           id="path5043"
           d="m 321.14285,825.85714 0,4 4,0 0,-1.46875 c 0,-1.40502 -1.11588,-2.53125 -2.53125,-2.53125 l -1.46875,0 z"
           style="opacity:0.82272728;fill:#ffffff;fill-opacity:0.07843137;fill-rule:nonzero;stroke:none"
           inkscape:connector-curvature="0" />
        <path
           id="path5045"
           d="m 322.6116,824.85714 c 1.94821,0 3.53125,1.58839 3.53125,3.53125 l 0,1.46875 -1,0 0,-1.46875 c 0,-1.40502 -1.11588,-2.53125 -2.53125,-2.53125 l -1.46875,0 0,-1 1.46875,0 z"
           style="opacity:0.85;fill:#000000;fill-opacity:0.15686275;fill-rule:nonzero;stroke:none"
           inkscape:connector-curvature="0" />
        <path
           style="fill:#ffffff;fill-opacity:0.15686275;fill-rule:nonzero;stroke:none"
           d="m 325.14285,829.8571 -1,0 0,-1 c 0,-1.41537 -0.59498,-2 -2,-2 l -1,0 0,-1 1.46875,0 c 1.40502,0 2.53125,1.11588 2.53125,2.53125 z"
           id="path5047"
           inkscape:connector-curvature="0"
           sodipodi:nodetypes="ccssccssc" />
      </g>
      <rect
         style="opacity:0.52100004;fill:#ffffff;fill-opacity:0;stroke:none"
         id="rect5049"
         width="1.9999973"
         height="1.9999441"
         x="326.14285"
         y="822.85718" />
    </g>
    <g
       id="normal-right"
       transform="matrix(1,0,0,3.0000017,-440.14286,-2040.557)">
      <g
         id="g5053">
        <path
           style="opacity:0.82272728;fill:#ffffff;fill-opacity:0.07843137;fill-rule:nonzero;stroke:none"
           d="m 325.14286,829.85712 0,16 -4,0 0,-16 4,0 z"
           id="path5055"
           inkscape:connector-curvature="0" />
        <path
           id="path5057"
           d="m 326.14286,829.85715 0,15.99999 -1,0 0,-15.99999 1,0 z"
           style="opacity:0.85;fill:#000000;fill-opacity:0.15686275;fill-rule:nonzero;stroke:none"
           inkscape:connector-curvature="0" />
        <path
           inkscape:connector-curvature="0"
           style="fill:#ffffff;fill-opacity:0.15686275;fill-rule:nonzero;stroke:none"
           d="m 325.14285,829.85714 0,15.99999 -1,0 0,-15.99999 1,0 z"
           id="path5059" />
      </g>
      <rect
         y="832.85712"
         x="326.14285"
         height="3"
         width="1.9999973"
         id="rect5061"
         style="opacity:0.52100004;fill:#ffffff;fill-opacity:0;stroke:none" />
    </g>
    <g
       id="normal-bottomright"
       transform="translate(-440.14286,-348.85718)">
      <g
         id="g5065">
        <g
           id="g5067">
          <path
             id="path5071"
             d="m 325.1429,845.85714 -4,0 0,4 1.46875,0 c 1.40502,0 2.53125,-1.11588 2.53125,-2.53125 l 0,-1.46875 z"
             style="opacity:0.82272728;fill:#ffffff;fill-opacity:0.07843137;fill-rule:nonzero;stroke:none"
             inkscape:connector-curvature="0" />
          <path
             style="fill:#ffffff;fill-opacity:0.15686275;stroke:none"
             d="m 322.14285,849.85714 c 1.59707,0 3,-0.57542 3,-2.99996 0,-0.94263 0,-1 0,-1 l -1,0 c 0,0.88676 0,0.28587 0,1 0,0.89359 -0.31679,1.99996 -2,1.99996 l -1,0 0,1 z"
             id="path5069"
             inkscape:connector-curvature="0"
             sodipodi:nodetypes="csccscccc" />
          <path
             id="path5073"
             d="m 326.14286,847.32589 c 0,1.94821 -1.58839,3.53125 -3.53125,3.53125 l -1.46875,0 0,-1 1.46875,0 c 1.40502,0 2.53125,-1.11588 2.53125,-2.53125 l 0,-1.46875 1,0 0,1.46875 z"
             style="opacity:0.85199998;fill:#000000;fill-opacity:0.15686275;fill-rule:nonzero;stroke:none"
             inkscape:connector-curvature="0" />
        </g>
      </g>
      <rect
         style="opacity:0.52100004;fill:#ffffff;fill-opacity:0;stroke:none"
         id="rect5075"
         width="1.9999973"
         height="2.0000634"
         x="326.14285"
         y="851.85712" />
    </g>
    <path
       style="opacity:0.82272727999999995;fill:#ffffff;fill-opacity:0.19607843;fill-rule:nonzero;stroke:none"
       d="m -250,529.01578 0,48 48,0 0,-48 -48,0 z"
       id="hover-center"
       inkscape:connector-curvature="0" />
    <g
       id="hover-bottom"
       transform="matrix(0.36657704,0,0,1,-319.71201,-268.85712)">
      <g
         id="g5081">
        <path
           inkscape:connector-curvature="0"
           style="opacity:0.82272727999999995;fill:#ffffff;fill-opacity:0.19607843;fill-rule:nonzero;stroke:none"
           d="m 190.12705,845.85714 0,4 130.9842,-0.0625 0,-3.9375 -130.9842,0 z"
           id="path5083" />
        <path
           inkscape:connector-curvature="0"
           id="path5085"
           d="m 190.14285,849.85714 0,1 131,0 0,-1 -131,0 z"
           style="opacity:0.84999999999999998;fill:#7de5fe;fill-opacity:0.74901962;fill-rule:nonzero;stroke:none" />
        <path
           style="fill:#ffffff;fill-opacity:0.31372549;fill-rule:nonzero;stroke:none"
           d="m 190.14285,848.85714 0,1 131,0 0,-1 z"
           id="path5087"
           inkscape:connector-curvature="0"
           sodipodi:nodetypes="ccccc" />
      </g>
      <rect
         style="opacity:0.52100004;fill:#ffffff;fill-opacity:0;stroke:none"
         id="rect5089"
         width="1"
         height="2.000037"
         x="547"
         y="869"
         transform="translate(-342.85715,-17.142857)" />
    </g>
    <g
       id="hover-bottomleft"
       transform="translate(-440.14285,-268.85712)">
      <g
         id="g5093">
        <path
           id="path5095"
           d="m 188.6741,850.85716 c -1.94821,0 -3.53125,-1.58839 -3.53125,-3.53125 l 0,-1.46875 1,0 0,1.46875 c 0,1.40502 1.11588,2.53125 2.53125,2.53125 l 1.46875,0 0,1 -1.46875,0 z"
           style="opacity:0.84999999999999998;fill:#7de5fe;fill-opacity:0.74901962;fill-rule:nonzero;stroke:none"
           inkscape:connector-curvature="0" />
        <path
           id="path5097"
           d="m 190.14285,849.8572 0,-4 -4,0 0,1.46875 c 0,1.40502 1.11588,2.53125 2.53125,2.53125 l 1.46875,0 z"
           style="opacity:0.82272727999999995;fill:#ffffff;fill-opacity:0.19607843;fill-rule:nonzero;stroke:none"
           inkscape:connector-curvature="0" />
        <path
           style="fill:#ffffff;fill-opacity:0.31372549;stroke:none"
           d="m 188.74285,849.85718 c -1.66084,0 -2.6,-1.19855 -2.6,-2.7 l 0,-1.3 1,0 -0.021,1.29373 c -0.0208,1.28062 0.23073,1.70627 1.62099,1.70627 l 1.4,0 0,1 z"
           id="path5099"
           inkscape:connector-curvature="0"
           sodipodi:nodetypes="ccccscccc" />
      </g>
      <rect
         style="opacity:0.52100004;fill:#ffffff;fill-opacity:0;stroke:none"
         id="rect5101"
         width="2.0000029"
         height="2.0000634"
         x="183.14285"
         y="851.85712" />
    </g>
    <g
       id="hover-left"
       transform="matrix(1,0,0,3.0009825,-440.14285,-1961.3867)">
      <g
         id="g5105">
        <path
           id="path5107"
           d="m 186.14285,829.85712 0,16 4,0 0,-16 -4,0 z"
           style="opacity:0.82272727999999995;fill:#ffffff;fill-opacity:0.19607843;fill-rule:nonzero;stroke:none"
           inkscape:connector-curvature="0" />
        <path
           style="opacity:0.84999999999999998;fill:#7de5fe;fill-opacity:0.74901962;fill-rule:nonzero;stroke:none"
           d="m 185.14285,829.85715 0,15.99999 1,0 0,-15.99999 -1,0 z"
           id="path5109"
           inkscape:connector-curvature="0" />
        <path
           inkscape:connector-curvature="0"
           id="path5111"
           d="m 186.14285,829.85715 0,15.99999 1,0 0,-15.99999 -1,0 z"
           style="fill:#ffffff;fill-opacity:0.31372549;fill-rule:nonzero;stroke:none" />
      </g>
      <rect
         style="opacity:0.52100004;fill:#ffffff;fill-opacity:0;stroke:none"
         id="rect5113"
         width="2.0000029"
         height="3"
         x="183.14285"
         y="834.85712" />
    </g>
    <g
       id="hover-topleft"
       transform="translate(-440.14285,-300.85712)">
      <g
         id="g5117">
        <path
           style="opacity:0.82272727999999995;fill:#ffffff;fill-opacity:0.19607843;fill-rule:nonzero;stroke:none"
           d="m 186.14285,829.8571 4,0 0,-4 -1.46875,0 c -1.40502,0 -2.53125,1.11588 -2.53125,2.53125 l 0,1.46875 z"
           id="path5119"
           inkscape:connector-curvature="0" />
        <path
           inkscape:connector-curvature="0"
           style="opacity:0.84999999999999998;fill:#7de5fe;fill-opacity:0.74901962;fill-rule:nonzero;stroke:none"
           d="m 185.14285,828.3884 c 0,-1.94821 1.58839,-3.53125 3.53125,-3.53125 l 1.46875,0 0,1 -1.46875,0 c -1.40502,0 -2.53125,1.11588 -2.53125,2.53125 l 0,1.46875 -1,0 0,-1.46875 z"
           id="path5121" />
        <path
           id="path5123"
           d="m 186.14285,829.8571 1,0 0,-1 c 0,-1.41537 0.59498,-2 2,-2 l 1,0 0,-1 -1.46875,0 c -1.40502,0 -2.53125,1.11588 -2.53125,2.53125 l 0,1.46875 z"
           style="fill:#ffffff;fill-opacity:0.31372549;fill-rule:nonzero;stroke:none"
           inkscape:connector-curvature="0" />
      </g>
      <rect
         style="opacity:0.52100004;fill:#ffffff;fill-opacity:0;stroke:none"
         id="rect5125"
         width="2.0000029"
         height="1.9999441"
         x="183.14285"
         y="822.85718" />
    </g>
    <g
       id="hover-top"
       transform="matrix(0.36657704,0,0,1,-319.71201,-300.84134)">
      <g
         id="g5129">
        <path
           style="opacity:0.82272727999999995;fill:#ffffff;fill-opacity:0.19607843;fill-rule:nonzero;stroke:none"
           d="m 190.14286,825.85714 0,4 131,0 0,-4 -131,0 z"
           id="path5131"
           inkscape:connector-curvature="0" />
        <path
           id="path5133"
           d="m 190.14285,824.85714 0,1 131,0 0,-1 -131,0 z"
           style="opacity:0.84999999999999998;fill:#7de5fe;fill-opacity:0.74901962;fill-rule:nonzero;stroke:none"
           inkscape:connector-curvature="0" />
        <path
           inkscape:connector-curvature="0"
           style="fill:#ffffff;fill-opacity:0.31372549;fill-rule:nonzero;stroke:none"
           d="m 190.14285,825.85714 0,1 131,0 0,-1 -131,0 z"
           id="path5135" />
      </g>
      <rect
         y="822.85718"
         x="200.14285"
         height="1.9999441"
         width="3"
         id="rect5137"
         style="opacity:0.52100004;fill:#ffffff;fill-opacity:0;stroke:none" />
    </g>
    <g
       id="hover-topright"
       transform="translate(-523.14285,-300.84134)">
      <g
         id="g5141">
        <path
           id="path5143"
           d="m 321.14285,825.85714 0,4 4,0 0,-1.46875 c 0,-1.40502 -1.11588,-2.53125 -2.53125,-2.53125 l -1.46875,0 z"
           style="opacity:0.82272727999999984;fill:#ffffff;fill-opacity:0.19607843000000000;fill-rule:nonzero;stroke:none;"
           inkscape:connector-curvature="0" />
        <path
           id="path5145"
           d="m 322.6116,824.85714 c 1.94821,0 3.53125,1.58839 3.53125,3.53125 l 0,1.46875 -1,0 0,-1.46875 c 0,-1.40502 -1.11588,-2.53125 -2.53125,-2.53125 l -1.46875,0 0,-1 1.46875,0 z"
           style="opacity:0.84999999999999998;fill:#7de5fe;fill-opacity:0.74901962;fill-rule:nonzero;stroke:none"
           inkscape:connector-curvature="0" />
        <path
           style="fill:#ffffff;fill-opacity:0.31372549;fill-rule:nonzero;stroke:none"
           d="m 325.14285,829.8571 -1,0 0,-1 c 0,-1.41537 -0.59498,-2 -2,-2 l -1,0 0,-1 1.46875,0 c 1.40502,0 2.53125,1.11588 2.53125,2.53125 z"
           id="path5147"
           inkscape:connector-curvature="0"
           sodipodi:nodetypes="ccssccssc" />
      </g>
      <rect
         style="opacity:0.52100004;fill:#ffffff;fill-opacity:0;stroke:none"
         id="rect5149"
         width="1.9999973"
         height="1.9999441"
         x="326.14285"
         y="822.85718" />
    </g>
    <g
       id="hover-right"
       transform="matrix(1,0,0,3.0000017,-523.14285,-1960.5569)">
      <g
         id="g5154">
        <path
           style="opacity:0.82272727999999995;fill:#ffffff;fill-opacity:0.19607843;fill-rule:nonzero;stroke:none"
           d="m 325.14286,829.85712 0,16 -4,0 0,-16 4,0 z"
           id="path5156"
           inkscape:connector-curvature="0" />
        <path
           id="path5158"
           d="m 326.14286,829.85715 0,15.99999 -1,0 0,-15.99999 1,0 z"
           style="opacity:0.84999999999999998;fill:#7de5fe;fill-opacity:0.74901962;fill-rule:nonzero;stroke:none"
           inkscape:connector-curvature="0" />
        <path
           inkscape:connector-curvature="0"
           style="fill:#ffffff;fill-opacity:0.31372549;fill-rule:nonzero;stroke:none"
           d="m 325.14285,829.85714 0,15.99999 -1,0 0,-15.99999 1,0 z"
           id="path5160" />
      </g>
      <rect
         y="832.85712"
         x="326.14285"
         height="3"
         width="1.9999973"
         id="rect5162"
         style="opacity:0.52100004;fill:#ffffff;fill-opacity:0;stroke:none" />
    </g>
    <g
       id="hover-bottomright"
       transform="translate(-523.14285,-268.85712)">
      <g
         id="g5166">
        <g
           id="g5168">
          <path
             style="fill:#ffffff;fill-opacity:0.31372549;stroke:none"
             d="m 322.14285,849.85714 c 1.59707,0 3,-0.57542 3,-2.99996 0,-0.94263 0,-1 0,-1 l -1,0 c 0,0.88676 0,0.28587 0,1 0,0.89359 -0.31679,1.99996 -2,1.99996 l -1,0 0,1 z"
             id="path5170"
             inkscape:connector-curvature="0"
             sodipodi:nodetypes="csccscccc" />
          <path
             id="path5172"
             d="m 325.1429,845.85714 -4,0 0,4 1.46875,0 c 1.40502,0 2.53125,-1.11588 2.53125,-2.53125 l 0,-1.46875 z"
             style="opacity:0.82272727999999995;fill:#ffffff;fill-opacity:0.19607843;fill-rule:nonzero;stroke:none"
             inkscape:connector-curvature="0" />
          <path
             id="path5174"
             d="m 326.14286,847.32589 c 0,1.94821 -1.58839,3.53125 -3.53125,3.53125 l -1.46875,0 0,-1 1.46875,0 c 1.40502,0 2.53125,-1.11588 2.53125,-2.53125 l 0,-1.46875 1,0 0,1.46875 z"
             style="opacity:0.85199997999999999;fill:#7de5fe;fill-opacity:0.74901962;fill-rule:nonzero;stroke:none"
             inkscape:connector-curvature="0" />
        </g>
      </g>
      <rect
         style="opacity:0.52100004;fill:#ffffff;fill-opacity:0;stroke:none"
         id="rect5176"
         width="1.9999973"
         height="2.0000634"
         x="326.14285"
         y="851.85712" />
    </g>
    <path
       inkscape:connector-curvature="0"
       id="selected+hover-center"
       d="m -165.00001,530.01576 0,48 48,0 0,-48 -48,0 z"
       style="opacity:0.82272728;fill:#ffffff;fill-opacity:0.31372549;fill-rule:nonzero;stroke:none" />
    <g
       transform="matrix(0.36657704,0,0,1,-234.71202,-267.85714)"
       id="selected+hover-bottom">
      <g
         id="g5182">
        <path
           id="path5184"
           d="m 190.12705,845.85714 0,4 130.9842,-0.0625 0,-3.9375 -130.9842,0 z"
           style="opacity:0.82272728;fill:#ffffff;fill-opacity:0.31372549;fill-rule:nonzero;stroke:none"
           inkscape:connector-curvature="0" />
        <path
           style="opacity:0.85;fill:#7de5fe;fill-opacity:0.74901961;fill-rule:nonzero;stroke:none"
           d="m 190.14285,849.85714 0,1 131,0 0,-1 -131,0 z"
           id="path5186"
           inkscape:connector-curvature="0" />
        <path
           sodipodi:nodetypes="ccccc"
           inkscape:connector-curvature="0"
           id="path5188"
           d="m 190.14285,848.85714 0,1 131,0 0,-1 z"
           style="fill:#ffffff;fill-opacity:0.31372549;fill-rule:nonzero;stroke:none" />
      </g>
      <rect
         transform="translate(-342.85715,-17.142857)"
         y="869"
         x="547"
         height="2.000037"
         width="1"
         id="rect5190"
         style="opacity:0.52100004;fill:#ffffff;fill-opacity:0;stroke:none" />
    </g>
    <g
       transform="translate(-355.14286,-267.85714)"
       id="selected+hover-bottomleft">
      <g
         id="g5194">
        <path
           inkscape:connector-curvature="0"
           style="opacity:0.85;fill:#7de5fe;fill-opacity:0.74901961;fill-rule:nonzero;stroke:none"
           d="m 188.6741,850.85716 c -1.94821,0 -3.53125,-1.58839 -3.53125,-3.53125 l 0,-1.46875 1,0 0,1.46875 c 0,1.40502 1.11588,2.53125 2.53125,2.53125 l 1.46875,0 0,1 -1.46875,0 z"
           id="path5196" />
        <path
           inkscape:connector-curvature="0"
           style="opacity:0.82272728;fill:#ffffff;fill-opacity:0.31372549;fill-rule:nonzero;stroke:none"
           d="m 190.14285,849.8572 0,-4 -4,0 0,1.46875 c 0,1.40502 1.11588,2.53125 2.53125,2.53125 l 1.46875,0 z"
           id="path5198" />
        <path
           sodipodi:nodetypes="ccccscccc"
           inkscape:connector-curvature="0"
           id="path5200"
           d="m 188.74285,849.85718 c -1.66084,0 -2.6,-1.19855 -2.6,-2.7 l 0,-1.3 1,0 -0.021,1.29373 c -0.0208,1.28062 0.23073,1.70627 1.62099,1.70627 l 1.4,0 0,1 z"
           style="fill:#ffffff;fill-opacity:0.31372549;stroke:none" />
      </g>
      <rect
         y="851.85712"
         x="183.14285"
         height="2.0000634"
         width="2.0000029"
         id="rect5202"
         style="opacity:0.52100004;fill:#ffffff;fill-opacity:0;stroke:none" />
    </g>
    <g
       transform="matrix(1,0,0,3.0009825,-355.14286,-1960.3868)"
       id="selected+hover-left">
      <g
         id="g5206">
        <path
           inkscape:connector-curvature="0"
           style="opacity:0.82272728;fill:#ffffff;fill-opacity:0.31372549;fill-rule:nonzero;stroke:none"
           d="m 186.14285,829.85712 0,16 4,0 0,-16 -4,0 z"
           id="path5208" />
        <path
           inkscape:connector-curvature="0"
           id="path5210"
           d="m 185.14285,829.85715 0,15.99999 1,0 0,-15.99999 -1,0 z"
           style="opacity:0.85;fill:#7de5fe;fill-opacity:0.74901961;fill-rule:nonzero;stroke:none" />
        <path
           style="fill:#ffffff;fill-opacity:0.31372549;fill-rule:nonzero;stroke:none"
           d="m 186.14285,829.85715 0,15.99999 1,0 0,-15.99999 -1,0 z"
           id="path5212"
           inkscape:connector-curvature="0" />
      </g>
      <rect
         y="834.85712"
         x="183.14285"
         height="3"
         width="2.0000029"
         id="rect5214"
         style="opacity:0.52100004;fill:#ffffff;fill-opacity:0;stroke:none" />
    </g>
    <g
       transform="translate(-355.14286,-299.85714)"
       id="selected+hover-topleft">
      <g
         id="g5218">
        <path
           inkscape:connector-curvature="0"
           id="path5220"
           d="m 186.14285,829.8571 4,0 0,-4 -1.46875,0 c -1.40502,0 -2.53125,1.11588 -2.53125,2.53125 l 0,1.46875 z"
           style="opacity:0.82272728;fill:#ffffff;fill-opacity:0.31372549;fill-rule:nonzero;stroke:none" />
        <path
           id="path5222"
           d="m 185.14285,828.3884 c 0,-1.94821 1.58839,-3.53125 3.53125,-3.53125 l 1.46875,0 0,1 -1.46875,0 c -1.40502,0 -2.53125,1.11588 -2.53125,2.53125 l 0,1.46875 -1,0 0,-1.46875 z"
           style="opacity:0.85;fill:#7de5fe;fill-opacity:0.74901961;fill-rule:nonzero;stroke:none"
           inkscape:connector-curvature="0" />
        <path
           inkscape:connector-curvature="0"
           style="fill:#ffffff;fill-opacity:0.31372549;fill-rule:nonzero;stroke:none"
           d="m 186.14285,829.8571 1,0 0,-1 c 0,-1.41537 0.59498,-2 2,-2 l 1,0 0,-1 -1.46875,0 c -1.40502,0 -2.53125,1.11588 -2.53125,2.53125 l 0,1.46875 z"
           id="path5224" />
      </g>
      <rect
         y="822.85718"
         x="183.14285"
         height="1.9999441"
         width="2.0000029"
         id="rect5226"
         style="opacity:0.52100004;fill:#ffffff;fill-opacity:0;stroke:none" />
    </g>
    <g
       transform="matrix(0.36657704,0,0,1,-234.71202,-299.84136)"
       id="selected+hover-top">
      <g
         id="g5230">
        <path
           inkscape:connector-curvature="0"
           id="path5232"
           d="m 190.14286,825.85714 0,4 131,0 0,-4 -131,0 z"
           style="opacity:0.82272728;fill:#ffffff;fill-opacity:0.31372549;fill-rule:nonzero;stroke:none" />
        <path
           inkscape:connector-curvature="0"
           style="opacity:0.85;fill:#7de5fe;fill-opacity:0.74901961;fill-rule:nonzero;stroke:none"
           d="m 190.14285,824.85714 0,1 131,0 0,-1 -131,0 z"
           id="path5234" />
        <path
           id="path5236"
           d="m 190.14285,825.85714 0,1 131,0 0,-1 -131,0 z"
           style="fill:#ffffff;fill-opacity:0.31372549;fill-rule:nonzero;stroke:none"
           inkscape:connector-curvature="0" />
      </g>
      <rect
         style="opacity:0.52100004;fill:#ffffff;fill-opacity:0;stroke:none"
         id="rect5238"
         width="3"
         height="1.9999441"
         x="200.14285"
         y="822.85718" />
    </g>
    <g
       transform="translate(-438.14286,-299.84136)"
       id="selected+hover-topright">
      <g
         id="g5242">
        <path
           inkscape:connector-curvature="0"
           style="opacity:0.82272728;fill:#ffffff;fill-opacity:0.31372549;fill-rule:nonzero;stroke:none"
           d="m 321.14285,825.85714 0,4 4,0 0,-1.46875 c 0,-1.40502 -1.11588,-2.53125 -2.53125,-2.53125 l -1.46875,0 z"
           id="path5244" />
        <path
           inkscape:connector-curvature="0"
           style="opacity:0.85;fill:#7de5fe;fill-opacity:0.74901961;fill-rule:nonzero;stroke:none"
           d="m 322.6116,824.85714 c 1.94821,0 3.53125,1.58839 3.53125,3.53125 l 0,1.46875 -1,0 0,-1.46875 c 0,-1.40502 -1.11588,-2.53125 -2.53125,-2.53125 l -1.46875,0 0,-1 1.46875,0 z"
           id="path5246" />
        <path
           sodipodi:nodetypes="ccssccssc"
           inkscape:connector-curvature="0"
           id="path5248"
           d="m 325.14285,829.8571 -1,0 0,-1 c 0,-1.41537 -0.59498,-2 -2,-2 l -1,0 0,-1 1.46875,0 c 1.40502,0 2.53125,1.11588 2.53125,2.53125 z"
           style="fill:#ffffff;fill-opacity:0.31372549;fill-rule:nonzero;stroke:none" />
      </g>
      <rect
         y="822.85718"
         x="326.14285"
         height="1.9999441"
         width="1.9999973"
         id="rect5250"
         style="opacity:0.52100004;fill:#ffffff;fill-opacity:0;stroke:none" />
    </g>
    <g
       transform="matrix(1,0,0,3.0000017,-438.14286,-1959.557)"
       id="selected+hover-right">
      <g
         id="g5254">
        <path
           inkscape:connector-curvature="0"
           id="path5256"
           d="m 325.14286,829.85712 0,16 -4,0 0,-16 4,0 z"
           style="opacity:0.82272728;fill:#ffffff;fill-opacity:0.31372549;fill-rule:nonzero;stroke:none" />
        <path
           inkscape:connector-curvature="0"
           style="opacity:0.85;fill:#7de5fe;fill-opacity:0.74901961;fill-rule:nonzero;stroke:none"
           d="m 326.14286,829.85715 0,15.99999 -1,0 0,-15.99999 1,0 z"
           id="path5258" />
        <path
           id="path5260"
           d="m 325.14285,829.85714 0,15.99999 -1,0 0,-15.99999 1,0 z"
           style="fill:#ffffff;fill-opacity:0.31372549;fill-rule:nonzero;stroke:none"
           inkscape:connector-curvature="0" />
      </g>
      <rect
         style="opacity:0.52100004;fill:#ffffff;fill-opacity:0;stroke:none"
         id="rect5262"
         width="1.9999973"
         height="3"
         x="326.14285"
         y="832.85712" />
    </g>
    <g
       transform="translate(-438.14286,-267.85714)"
       id="selected+hover-bottomright">
      <g
         id="g5266">
        <g
           id="g5268">
          <path
             sodipodi:nodetypes="csccscccc"
             inkscape:connector-curvature="0"
             id="path5270"
             d="m 322.14285,849.85714 c 1.59707,0 3,-0.57542 3,-2.99996 0,-0.94263 0,-1 0,-1 l -1,0 c 0,0.88676 0,0.28587 0,1 0,0.89359 -0.31679,1.99996 -2,1.99996 l -1,0 0,1 z"
             style="fill:#ffffff;fill-opacity:0.31372549;stroke:none" />
          <path
             inkscape:connector-curvature="0"
             style="opacity:0.82272728;fill:#ffffff;fill-opacity:0.31372549;fill-rule:nonzero;stroke:none"
             d="m 325.1429,845.85714 -4,0 0,4 1.46875,0 c 1.40502,0 2.53125,-1.11588 2.53125,-2.53125 l 0,-1.46875 z"
             id="path5272" />
          <path
             inkscape:connector-curvature="0"
             style="opacity:0.85199998;fill:#7de5fe;fill-opacity:0.74901961;fill-rule:nonzero;stroke:none"
             d="m 326.14286,847.32589 c 0,1.94821 -1.58839,3.53125 -3.53125,3.53125 l -1.46875,0 0,-1 1.46875,0 c 1.40502,0 2.53125,-1.11588 2.53125,-2.53125 l 0,-1.46875 1,0 0,1.46875 z"
             id="path5274" />
        </g>
      </g>
      <rect
         y="851.85712"
         x="326.14285"
         height="2.0000634"
         width="1.9999973"
         id="rect5276"
         style="opacity:0.52100004;fill:#ffffff;fill-opacity:0;stroke:none" />
    </g>
  </g>
</svg>
