<?xml version="1.0" encoding="UTF-8" standalone="no"?>
<!-- Created with Inkscape (http://www.inkscape.org/) -->
<svg
   xmlns:dc="http://purl.org/dc/elements/1.1/"
   xmlns:cc="http://web.resource.org/cc/"
   xmlns:rdf="http://www.w3.org/1999/02/22-rdf-syntax-ns#"
   xmlns:svg="http://www.w3.org/2000/svg"
   xmlns="http://www.w3.org/2000/svg"
   xmlns:sodipodi="http://sodipodi.sourceforge.net/DTD/sodipodi-0.dtd"
   xmlns:inkscape="http://www.inkscape.org/namespaces/inkscape"
   width="65"
   height="156"
   id="svg2318"
   sodipodi:version="0.32"
   inkscape:version="0.45.1"
   sodipodi:docbase="/home/diau/failed Graphics attempts/plasma background/41/widgets"
   sodipodi:docname="bar_meter_vertical2.svg"
   inkscape:output_extension="org.inkscape.output.svg.inkscape"
   version="1.0">
  <defs
     id="defs2320" />
  <sodipodi:namedview
     id="base"
     pagecolor="#000000"
     bordercolor="#666666"
     borderopacity="1.0"
     gridtolerance="10000"
     guidetolerance="10"
     objecttolerance="10"
     inkscape:pageopacity="0.50196078"
     inkscape:pageshadow="2"
     inkscape:zoom="3.0400235"
     inkscape:cx="75.204204"
     inkscape:cy="40.685017"
     inkscape:document-units="px"
     inkscape:current-layer="layer1"
     inkscape:window-width="1225"
     inkscape:window-height="971"
     inkscape:window-x="445"
     inkscape:window-y="12"
     width="65px"
     height="156px" />
  <metadata
     id="metadata2323">
    <rdf:RDF>
      <cc:Work
         rdf:about="">
        <dc:format>image/svg+xml</dc:format>
        <dc:type
           rdf:resource="http://purl.org/dc/dcmitype/StillImage" />
      </cc:Work>
    </rdf:RDF>
  </metadata>
  <g
     inkscape:label="Layer 1"
     inkscape:groupmode="layer"
     id="layer1">
    <path
       id="bar"
       style="fill:#cecece;fill-opacity:1;stroke:none;stroke-width:2;stroke-linecap:round;stroke-linejoin:round;stroke-miterlimit:4;stroke-dashoffset:1.08779998;stroke-opacity:1"
       d="M 39.999986,13.999986 L 39.999986,15.999986 C 39.999986,16.553986 39.553986,16.999986 38.999986,16.999986 L 26.999986,16.999986 C 26.445986,16.999986 25.999986,16.553986 25.999986,15.999986 L 25.999986,13.999986 C 25.999986,13.445986 26.445986,12.999986 26.999986,12.999986 L 38.999986,12.999986 C 39.553986,12.999986 39.999986,13.445986 39.999986,13.999986 z M 39.999986,19.999986 L 39.999986,21.999986 C 39.999986,22.553987 39.553986,22.999987 38.999986,22.999987 L 26.999986,22.999987 C 26.445986,22.999987 25.999986,22.553987 25.999986,21.999986 L 25.999986,19.999986 C 25.999986,19.445986 26.445986,18.999986 26.999986,18.999986 L 38.999986,18.999986 C 39.553986,18.999986 39.999986,19.445986 39.999986,19.999986 z M 39.999986,25.999987 L 39.999986,27.999987 C 39.999986,28.553987 39.553986,28.999987 38.999986,28.999987 L 26.999986,28.999987 C 26.445986,28.999987 25.999986,28.553987 25.999986,27.999987 L 25.999986,25.999987 C 25.999986,25.445987 26.445986,24.999987 26.999986,24.999987 L 38.999986,24.999987 C 39.553986,24.999987 39.999986,25.445987 39.999986,25.999987 z M 39.999986,31.999987 L 39.999986,33.999987 C 39.999986,34.553987 39.553986,34.999987 38.999986,34.999987 L 26.999986,34.999987 C 26.445986,34.999987 25.999986,34.553987 25.999986,33.999987 L 25.999986,31.999987 C 25.999986,31.445987 26.445986,30.999987 26.999986,30.999987 L 38.999986,30.999987 C 39.553986,30.999987 39.999986,31.445987 39.999986,31.999987 z M 39.999986,37.999987 L 39.999986,39.999987 C 39.999986,40.553987 39.553986,40.999987 38.999986,40.999987 L 26.999986,40.999987 C 26.445986,40.999987 25.999986,40.553987 25.999986,39.999987 L 25.999986,37.999987 C 25.999986,37.445987 26.445986,36.999987 26.999986,36.999987 L 38.999986,36.999987 C 39.553986,36.999987 39.999986,37.445987 39.999986,37.999987 z M 39.999986,43.999989 L 39.999986,45.999988 C 39.999986,46.553988 39.553986,46.999988 38.999986,46.999988 L 26.999986,46.999988 C 26.445986,46.999988 25.999986,46.553988 25.999986,45.999988 L 25.999986,43.999989 C 25.999986,43.445989 26.445986,42.999989 26.999986,42.999989 L 38.999986,42.999989 C 39.553986,42.999989 39.999986,43.445989 39.999986,43.999989 z M 39.999986,49.999986 L 39.999986,51.999986 C 39.999986,52.553986 39.553986,52.999986 38.999986,52.999986 L 26.999986,52.999986 C 26.445986,52.999986 25.999986,52.553986 25.999986,51.999986 L 25.999986,49.999986 C 25.999986,49.445986 26.445986,48.999986 26.999986,48.999986 L 38.999986,48.999986 C 39.553986,48.999986 39.999986,49.445986 39.999986,49.999986 z M 39.999986,55.999986 L 39.999986,57.999986 C 39.999986,58.553986 39.553986,58.999986 38.999986,58.999986 L 26.999986,58.999986 C 26.445986,58.999986 25.999986,58.553986 25.999986,57.999986 L 25.999986,55.999986 C 25.999986,55.445986 26.445986,54.999986 26.999986,54.999986 L 38.999986,54.999986 C 39.553986,54.999986 39.999986,55.445986 39.999986,55.999986 z M 39.999986,61.999986 L 39.999986,63.999986 C 39.999986,64.553986 39.553986,64.999986 38.999986,64.999986 L 26.999986,64.999986 C 26.445986,64.999986 25.999986,64.553986 25.999986,63.999986 L 25.999986,61.999986 C 25.999986,61.445986 26.445986,60.999986 26.999986,60.999986 L 38.999986,60.999986 C 39.553986,60.999986 39.999986,61.445986 39.999986,61.999986 z M 39.999986,67.999987 L 39.999986,69.999987 C 39.999986,70.553987 39.553986,70.999987 38.999986,70.999987 L 26.999986,70.999987 C 26.445986,70.999987 25.999986,70.553987 25.999986,69.999987 L 25.999986,67.999987 C 25.999986,67.445987 26.445986,66.999987 26.999986,66.999987 L 38.999986,66.999987 C 39.553986,66.999987 39.999986,67.445987 39.999986,67.999987 z M 39.999986,73.999987 L 39.999986,75.999987 C 39.999986,76.553987 39.553986,76.999987 38.999986,76.999987 L 26.999986,76.999987 C 26.445986,76.999987 25.999986,76.553987 25.999986,75.999987 L 25.999986,73.999987 C 25.999986,73.445987 26.445986,72.999987 26.999986,72.999987 L 38.999986,72.999987 C 39.553986,72.999987 39.999986,73.445987 39.999986,73.999987 z M 40.000013,79.999987 L 40.000013,81.999987 C 40.000013,82.553987 39.554013,82.999987 39.000013,82.999987 L 27.000013,82.999987 C 26.446013,82.999987 26.000013,82.553987 26.000013,81.999987 L 26.000013,79.999987 C 26.000013,79.445987 26.446013,78.999987 27.000013,78.999987 L 39.000013,78.999987 C 39.554013,78.999987 40.000013,79.445987 40.000013,79.999987 z M 40.000013,85.999987 L 40.000013,87.999987 C 40.000013,88.553987 39.554013,88.999987 39.000013,88.999987 L 27.000013,88.999987 C 26.446013,88.999987 26.000013,88.553987 26.000013,87.999987 L 26.000013,85.999987 C 26.000013,85.445987 26.446013,84.999987 27.000013,84.999987 L 39.000013,84.999987 C 39.554013,84.999987 40.000013,85.445987 40.000013,85.999987 z M 40.000013,91.999987 L 40.000013,93.999987 C 40.000013,94.553987 39.554013,94.999987 39.000013,94.999987 L 27.000013,94.999987 C 26.446013,94.999987 26.000013,94.553987 26.000013,93.999987 L 26.000013,91.999987 C 26.000013,91.445987 26.446013,90.999987 27.000013,90.999987 L 39.000013,90.999987 C 39.554013,90.999987 40.000013,91.445987 40.000013,91.999987 z M 40.000013,97.999987 L 40.000013,99.999991 C 40.000013,100.55399 39.554013,100.99999 39.000013,100.99999 L 27.000013,100.99999 C 26.446013,100.99999 26.000013,100.55399 26.000013,99.999991 L 26.000013,97.999987 C 26.000013,97.445987 26.446013,96.999987 27.000013,96.999987 L 39.000013,96.999987 C 39.554013,96.999987 40.000013,97.445987 40.000013,97.999987 z M 40.000013,103.99999 L 40.000013,105.99999 C 40.000013,106.55399 39.554013,106.99999 39.000013,106.99999 L 27.000013,106.99999 C 26.446013,106.99999 26.000013,106.55399 26.000013,105.99999 L 26.000013,103.99999 C 26.000013,103.44599 26.446013,102.99999 27.000013,102.99999 L 39.000013,102.99999 C 39.554013,102.99999 40.000013,103.44599 40.000013,103.99999 z M 40.000013,109.99999 L 40.000013,111.99999 C 40.000013,112.55398 39.554013,112.99998 39.000013,112.99998 L 27.000013,112.99998 C 26.446013,112.99998 26.000013,112.55398 26.000013,111.99999 L 26.000013,109.99999 C 26.000013,109.44599 26.446013,108.99999 27.000013,108.99999 L 39.000013,108.99999 C 39.554013,108.99999 40.000013,109.44599 40.000013,109.99999 z M 40.000013,115.99998 L 40.000013,117.99998 C 40.000013,118.55398 39.554013,118.99998 39.000013,118.99998 L 27.000013,118.99998 C 26.446013,118.99998 26.000013,118.55398 26.000013,117.99998 L 26.000013,115.99998 C 26.000013,115.44598 26.446013,114.99998 27.000013,114.99998 L 39.000013,114.99998 C 39.554013,114.99998 40.000013,115.44598 40.000013,115.99998 z M 40.000013,121.99998 L 40.000013,123.99998 C 40.000013,124.55398 39.554013,124.99998 39.000013,124.99998 L 27.000013,124.99998 C 26.446013,124.99998 26.000013,124.55398 26.000013,123.99998 L 26.000013,121.99998 C 26.000013,121.44598 26.446013,120.99998 27.000013,120.99998 L 39.000013,120.99998 C 39.554013,120.99998 40.000013,121.44598 40.000013,121.99998 z M 40.000013,127.99998 L 40.000013,129.99998 C 40.000013,130.55398 39.554013,130.99998 39.000013,130.99998 L 27.000013,130.99998 C 26.446013,130.99998 26.000013,130.55398 26.000013,129.99998 L 26.000013,127.99998 C 26.000013,127.44598 26.446013,126.99998 27.000013,126.99998 L 39.000013,126.99998 C 39.554013,126.99998 40.000013,127.44598 40.000013,127.99998 z M 40.000013,133.99998 L 40.000013,135.99998 C 40.000013,136.55398 39.554013,136.99998 39.000013,136.99998 L 27.000013,136.99998 C 26.446013,136.99998 26.000013,136.55398 26.000013,135.99998 L 26.000013,133.99998 C 26.000013,133.44598 26.446013,132.99998 27.000013,132.99998 L 39.000013,132.99998 C 39.554013,132.99998 40.000013,133.44598 40.000013,133.99998 z M 40.000013,139.99998 L 40.000013,141.99998 C 40.000013,142.55398 39.554013,142.99998 39.000013,142.99998 L 27.000013,142.99998 C 26.446013,142.99998 26.000013,142.55398 26.000013,141.99998 L 26.000013,139.99998 C 26.000013,139.44598 26.446013,138.99998 27.000013,138.99998 L 39.000013,138.99998 C 39.554013,138.99998 40.000013,139.44598 40.000013,139.99998 z " />
    <g
       id="background"
       transform="matrix(0,1,-1,0,57,12)">
      <rect
         inkscape:export-ydpi="90"
         inkscape:export-xdpi="90"
         inkscape:export-filename="/home/pinheiro/Documents/pics/estilo/plasma/rect2996.png"
         ry="1.4393399"
         rx="1.4393399"
         y="16"
         x="-4.7494506e-08"
         height="16"
         width="132"
         id="rect3611"
         style="opacity:0.19101126;fill:#cecece;fill-opacity:1;stroke:none;stroke-width:2;stroke-linecap:round;stroke-linejoin:round;stroke-miterlimit:4;stroke-dasharray:none;stroke-dashoffset:1.08779998;stroke-opacity:1" />
      <path
         d="M 67.999992,17 C 67.445992,17 66.999992,17.446 66.999992,18 L 66.999992,30 C 66.999992,30.554 67.445992,31 67.999992,31 L 69.999992,31 C 70.553992,31 70.999992,30.554 70.999992,30 L 70.999992,18 C 70.999992,17.446 70.553992,17 69.999992,17 L 67.999992,17 z M 73.999992,17 C 73.445992,17 72.999992,17.446 72.999992,18 L 72.999992,30 C 72.999992,30.554 73.445992,31 73.999992,31 L 75.999992,31 C 76.553992,31 76.999992,30.554 76.999992,30 L 76.999992,18 C 76.999992,17.446 76.553992,17 75.999992,17 L 73.999992,17 z M 79.999992,17 C 79.445992,17 78.999992,17.446 78.999992,18 L 78.999992,30 C 78.999992,30.554 79.445992,31 79.999992,31 L 81.999992,31 C 82.553992,31 82.999992,30.554 82.999992,30 L 82.999992,18 C 82.999992,17.446 82.553992,17 81.999992,17 L 79.999992,17 z M 85.999992,17 C 85.445992,17 84.999992,17.446 84.999992,18 L 84.999992,30 C 84.999992,30.554 85.445992,31 85.999992,31 L 87.999992,31 C 88.553992,31 88.999992,30.554 88.999992,30 L 88.999992,18 C 88.999992,17.446 88.553992,17 87.999992,17 L 85.999992,17 z M 91.999992,17 C 91.445992,17 90.999992,17.446 90.999992,18 L 90.999992,30 C 90.999992,30.554 91.445992,31 91.999992,31 L 93.999992,31 C 94.553992,31 94.999992,30.554 94.999992,30 L 94.999992,18 C 94.999992,17.446 94.553992,17 93.999992,17 L 91.999992,17 z M 97.999988,17 C 97.445988,17 96.999992,17.446 96.999992,18 L 96.999992,30 C 96.999992,30.554 97.445988,31 97.999988,31 L 99.999988,31 C 100.55399,31 100.99999,30.554 100.99999,30 L 100.99999,18 C 100.99999,17.446 100.55399,17 99.999988,17 L 97.999988,17 z M 103.99999,17 C 103.44599,17 102.99999,17.446 102.99999,18 L 102.99999,30 C 102.99999,30.554 103.44599,31 103.99999,31 L 105.99999,31 C 106.55399,31 106.99999,30.554 106.99999,30 L 106.99999,18 C 106.99999,17.446 106.55399,17 105.99999,17 L 103.99999,17 z M 109.99999,17 C 109.44599,17 108.99999,17.446 108.99999,18 L 108.99999,30 C 108.99999,30.554 109.44599,31 109.99999,31 L 111.99999,31 C 112.55399,31 112.99999,30.554 112.99999,30 L 112.99999,18 C 112.99999,17.446 112.55399,17 111.99999,17 L 109.99999,17 z M 115.99999,17 C 115.44599,17 114.99999,17.446 114.99999,18 L 114.99999,30 C 114.99999,30.554 115.44599,31 115.99999,31 L 117.99999,31 C 118.55399,31 118.99999,30.554 118.99999,30 L 118.99999,18 C 118.99999,17.446 118.55399,17 117.99999,17 L 115.99999,17 z M 121.99999,17 C 121.44599,17 120.99999,17.446 120.99999,18 L 120.99999,30 C 120.99999,30.554 121.44599,31 121.99999,31 L 123.99999,31 C 124.55399,31 124.99999,30.554 124.99999,30 L 124.99999,18 C 124.99999,17.446 124.55399,17 123.99999,17 L 121.99999,17 z M 127.99999,17 C 127.44599,17 126.99999,17.446 126.99999,18 L 126.99999,30 C 126.99999,30.554 127.44599,31 127.99999,31 L 129.99999,31 C 130.55399,31 130.99999,30.554 130.99999,30 L 130.99999,18 C 130.99999,17.446 130.55399,17 129.99999,17 L 127.99999,17 z M 2,17 C 1.446,17 1,17.446 1,18 L 1,30 C 1,30.554 1.446,31 2,31 L 4,31 C 4.554,31 5,30.554 5,30 L 5,18 C 5,17.446 4.554,17 4,17 L 2,17 z M 8,17 C 7.446,17 7,17.446 7,18 L 7,30 C 7,30.554 7.446,31 8,31 L 10,31 C 10.554,31 11,30.554 11,30 L 11,18 C 11,17.446 10.554,17 10,17 L 8,17 z M 14,17 C 13.446,17 13,17.446 13,18 L 13,30 C 13,30.554 13.446,31 14,31 L 16,31 C 16.554,31 17,30.554 17,30 L 17,18 C 17,17.446 16.554,17 16,17 L 14,17 z M 20,17 C 19.446,17 19,17.446 19,18 L 19,30 C 19,30.554 19.446,31 20,31 L 22,31 C 22.554,31 23,30.554 23,30 L 23,18 C 23,17.446 22.554,17 22,17 L 20,17 z M 26,17 C 25.446,17 25,17.446 25,18 L 25,30 C 25,30.554 25.446,31 26,31 L 28,31 C 28.554,31 29,30.554 29,30 L 29,18 C 29,17.446 28.554,17 28,17 L 26,17 z M 31.999996,17 C 31.445996,17 31,17.446 31,18 L 31,30 C 31,30.554 31.445996,31 31.999996,31 L 33.999996,31 C 34.553998,31 34.999998,30.554 34.999998,30 L 34.999998,18 C 34.999998,17.446 34.553998,17 33.999996,17 L 31.999996,17 z M 37.999998,17 C 37.445998,17 36.999998,17.446 36.999998,18 L 36.999998,30 C 36.999998,30.554 37.445998,31 37.999998,31 L 39.999998,31 C 40.553998,31 40.999998,30.554 40.999998,30 L 40.999998,18 C 40.999998,17.446 40.553998,17 39.999998,17 L 37.999998,17 z M 43.999998,17 C 43.445998,17 42.999998,17.446 42.999998,18 L 42.999998,30 C 42.999998,30.554 43.445998,31 43.999998,31 L 45.999998,31 C 46.553998,31 46.999998,30.554 46.999998,30 L 46.999998,18 C 46.999998,17.446 46.553998,17 45.999998,17 L 43.999998,17 z M 49.999998,17 C 49.445998,17 48.999998,17.446 48.999998,18 L 48.999998,30 C 48.999998,30.554 49.445998,31 49.999998,31 L 51.999998,31 C 52.553998,31 52.999998,30.554 52.999998,30 L 52.999998,18 C 52.999998,17.446 52.553998,17 51.999998,17 L 49.999998,17 z M 55.999998,17 C 55.445998,17 54.999998,17.446 54.999998,18 L 54.999998,30 C 54.999998,30.554 55.445998,31 55.999998,31 L 57.999998,31 C 58.553998,31 58.999998,30.554 58.999998,30 L 58.999998,18 C 58.999998,17.446 58.553998,17 57.999998,17 L 55.999998,17 z M 61.999998,17 C 61.445998,17 60.999998,17.446 60.999998,18 L 60.999998,30 C 60.999998,30.554 61.445998,31 61.999998,31 L 63.999998,31 C 64.553998,31 64.999998,30.554 64.999998,30 L 64.999998,18 C 64.999998,17.446 64.553998,17 63.999998,17 L 61.999998,17 z "
         style="opacity:0.08614233;fill:#000000;fill-opacity:1;stroke:none;stroke-width:2;stroke-linecap:round;stroke-linejoin:round;stroke-miterlimit:4;stroke-dashoffset:1.08779998;stroke-opacity:1"
         id="path3613" />
    </g>
    <rect
       style="opacity:1;fill:#0000ff;fill-opacity:0.50196078;fill-rule:evenodd;stroke:none;stroke-width:3.19400001;stroke-linecap:round;stroke-linejoin:round;stroke-miterlimit:4;stroke-dasharray:none;stroke-opacity:0.50196078"
       id="label0"
       width="65"
       height="12"
       x="0"
       y="0" />
    <rect
       y="144"
       x="0"
       height="12"
       width="65"
       id="label1"
       style="opacity:1;fill:#0000ff;fill-opacity:0.50196078;fill-rule:evenodd;stroke:none;stroke-width:3.19400001;stroke-linecap:round;stroke-linejoin:round;stroke-miterlimit:4;stroke-dasharray:none;stroke-opacity:0.50196078" />
    <rect
       y="-19.605326"
       x="45.460312"
       height="12"
       width="65"
       id="label2"
       style="opacity:1;fill:#0000ff;fill-opacity:0.50196078;fill-rule:evenodd;stroke:none;stroke-width:3.19400001;stroke-linecap:round;stroke-linejoin:round;stroke-miterlimit:4;stroke-dasharray:none;stroke-opacity:0.50196078"
       transform="matrix(0,1,-1,0,0,0)" />
  </g>
</svg>
