<?xml version="1.0" encoding="UTF-8" standalone="no"?>
<!-- Created with Inkscape (http://www.inkscape.org/) -->
<svg
   xmlns:dc="http://purl.org/dc/elements/1.1/"
   xmlns:cc="http://web.resource.org/cc/"
   xmlns:rdf="http://www.w3.org/1999/02/22-rdf-syntax-ns#"
   xmlns:svg="http://www.w3.org/2000/svg"
   xmlns="http://www.w3.org/2000/svg"
   xmlns:sodipodi="http://sodipodi.sourceforge.net/DTD/sodipodi-0.dtd"
   xmlns:inkscape="http://www.inkscape.org/namespaces/inkscape"
   width="132"
   height="32"
   id="svg2318"
   sodipodi:version="0.32"
   inkscape:version="0.45.1"
   sodipodi:docbase="/home/damu/Development/src/playground/applets/system-monitor"
   sodipodi:docname="hdd-bar.svg"
   inkscape:output_extension="org.inkscape.output.svg.inkscape"
   version="1.0">
  <defs
     id="defs2320" />
  <sodipodi:namedview
     id="base"
     pagecolor="#000000"
     bordercolor="#666666"
     borderopacity="1.0"
     gridtolerance="10000"
     guidetolerance="10"
     objecttolerance="10"
     inkscape:pageopacity="0.50196078"
     inkscape:pageshadow="2"
     inkscape:zoom="8.5984848"
     inkscape:cx="66"
     inkscape:cy="16"
     inkscape:document-units="px"
     inkscape:current-layer="layer1"
     inkscape:window-width="1225"
     inkscape:window-height="971"
     inkscape:window-x="1280"
     inkscape:window-y="0"
     width="132px"
     height="32px" />
  <metadata
     id="metadata2323">
    <rdf:RDF>
      <cc:Work
         rdf:about="">
        <dc:format>image/svg+xml</dc:format>
        <dc:type
           rdf:resource="http://purl.org/dc/dcmitype/StillImage" />
      </cc:Work>
    </rdf:RDF>
  </metadata>
  <g
     inkscape:label="Layer 1"
     inkscape:groupmode="layer"
     id="layer1">
    <path
       id="bar"
       style="fill:#cecece;fill-opacity:1;stroke:none;stroke-width:2;stroke-linecap:round;stroke-linejoin:round;stroke-miterlimit:4;stroke-dashoffset:1.08779998;stroke-opacity:1"
       d="M 1.9999999,16 L 3.9999999,16 C 4.5539999,16 4.9999999,16.446 4.9999999,17 L 4.9999999,29 C 4.9999999,29.554 4.5539999,30 3.9999999,30 L 1.9999999,30 C 1.4459999,30 0.99999994,29.554 0.99999994,29 L 0.99999994,17 C 0.99999994,16.446 1.4459999,16 1.9999999,16 z M 7.9999995,16 L 9.9999995,16 C 10.554,16 11,16.446 11,17 L 11,29 C 11,29.554 10.554,30 9.9999995,30 L 7.9999995,30 C 7.4459995,30 6.9999995,29.554 6.9999995,29 L 6.9999995,17 C 6.9999995,16.446 7.4459995,16 7.9999995,16 z M 14,16 L 16,16 C 16.554,16 17,16.446 17,17 L 17,29 C 17,29.554 16.554,30 16,30 L 14,30 C 13.446,30 13,29.554 13,29 L 13,17 C 13,16.446 13.446,16 14,16 z M 20,16 L 22,16 C 22.554,16 23,16.446 23,17 L 23,29 C 23,29.554 22.554,30 22,30 L 20,30 C 19.446,30 19,29.554 19,29 L 19,17 C 19,16.446 19.446,16 20,16 z M 26,16 L 28,16 C 28.554,16 29,16.446 29,17 L 29,29 C 29,29.554 28.554,30 28,30 L 26,30 C 25.446,30 25,29.554 25,29 L 25,17 C 25,16.446 25.446,16 26,16 z M 32.000002,16 L 34.000002,16 C 34.554002,16 35.000002,16.446 35.000002,17 L 35.000002,29 C 35.000002,29.554 34.554002,30 34.000002,30 L 32.000002,30 C 31.446002,30 31.000002,29.554 31.000002,29 L 31.000002,17 C 31.000002,16.446 31.446002,16 32.000002,16 z M 38,16 L 40,16 C 40.554,16 41,16.446 41,17 L 41,29 C 41,29.554 40.554,30 40,30 L 38,30 C 37.446,30 37,29.554 37,29 L 37,17 C 37,16.446 37.446,16 38,16 z M 44,16 L 46,16 C 46.554,16 47,16.446 47,17 L 47,29 C 47,29.554 46.554,30 46,30 L 44,30 C 43.446,30 43,29.554 43,29 L 43,17 C 43,16.446 43.446,16 44,16 z M 50,16 L 52,16 C 52.554,16 53,16.446 53,17 L 53,29 C 53,29.554 52.554,30 52,30 L 50,30 C 49.446,30 49,29.554 49,29 L 49,17 C 49,16.446 49.446,16 50,16 z M 56,16 L 58,16 C 58.554,16 59,16.446 59,17 L 59,29 C 59,29.554 58.554,30 58,30 L 56,30 C 55.446,30 55,29.554 55,29 L 55,17 C 55,16.446 55.446,16 56,16 z M 62,16 L 64,16 C 64.554,16 65,16.446 65,17 L 65,29 C 65,29.554 64.554,30 64,30 L 62,30 C 61.446,30 61,29.554 61,29 L 61,17 C 61,16.446 61.446,16 62,16 z M 68,15.999973 L 70,15.999973 C 70.554,15.999973 71,16.445973 71,16.999973 L 71,28.999973 C 71,29.553973 70.554,29.999973 70,29.999973 L 68,29.999973 C 67.446,29.999973 67,29.553973 67,28.999973 L 67,16.999973 C 67,16.445973 67.446,15.999973 68,15.999973 z M 74,15.999973 L 76,15.999973 C 76.554,15.999973 77,16.445973 77,16.999973 L 77,28.999973 C 77,29.553973 76.554,29.999973 76,29.999973 L 74,29.999973 C 73.446,29.999973 73,29.553973 73,28.999973 L 73,16.999973 C 73,16.445973 73.446,15.999973 74,15.999973 z M 80,15.999973 L 82,15.999973 C 82.554,15.999973 83,16.445973 83,16.999973 L 83,28.999973 C 83,29.553973 82.554,29.999973 82,29.999973 L 80,29.999973 C 79.446,29.999973 79,29.553973 79,28.999973 L 79,16.999973 C 79,16.445973 79.446,15.999973 80,15.999973 z M 86,15.999973 L 88,15.999973 C 88.554,15.999973 89,16.445973 89,16.999973 L 89,28.999973 C 89,29.553973 88.554,29.999973 88,29.999973 L 86,29.999973 C 85.446,29.999973 85,29.553973 85,28.999973 L 85,16.999973 C 85,16.445973 85.446,15.999973 86,15.999973 z M 92,15.999973 L 94,15.999973 C 94.554,15.999973 95,16.445973 95,16.999973 L 95,28.999973 C 95,29.553973 94.554,29.999973 94,29.999973 L 92,29.999973 C 91.446,29.999973 91,29.553973 91,28.999973 L 91,16.999973 C 91,16.445973 91.446,15.999973 92,15.999973 z M 98,15.999973 L 100,15.999973 C 100.554,15.999973 101,16.445973 101,16.999973 L 101,28.999973 C 101,29.553973 100.554,29.999973 100,29.999973 L 98,29.999973 C 97.446,29.999973 97,29.553973 97,28.999973 L 97,16.999973 C 97,16.445973 97.446,15.999973 98,15.999973 z M 104,15.999973 L 106,15.999973 C 106.554,15.999973 107,16.445973 107,16.999973 L 107,28.999973 C 107,29.553973 106.554,29.999973 106,29.999973 L 104,29.999973 C 103.446,29.999973 103,29.553973 103,28.999973 L 103,16.999973 C 103,16.445973 103.446,15.999973 104,15.999973 z M 110,15.999973 L 112,15.999973 C 112.554,15.999973 113,16.445973 113,16.999973 L 113,28.999973 C 113,29.553973 112.554,29.999973 112,29.999973 L 110,29.999973 C 109.446,29.999973 109,29.553973 109,28.999973 L 109,16.999973 C 109,16.445973 109.446,15.999973 110,15.999973 z M 116,15.999973 L 118,15.999973 C 118.554,15.999973 119,16.445973 119,16.999973 L 119,28.999973 C 119,29.553973 118.554,29.999973 118,29.999973 L 116,29.999973 C 115.446,29.999973 115,29.553973 115,28.999973 L 115,16.999973 C 115,16.445973 115.446,15.999973 116,15.999973 z M 122,15.999973 L 124,15.999973 C 124.554,15.999973 125,16.445973 125,16.999973 L 125,28.999973 C 125,29.553973 124.554,29.999973 124,29.999973 L 122,29.999973 C 121.446,29.999973 121,29.553973 121,28.999973 L 121,16.999973 C 121,16.445973 121.446,15.999973 122,15.999973 z M 128,15.999973 L 130,15.999973 C 130.554,15.999973 131,16.445973 131,16.999973 L 131,28.999973 C 131,29.553973 130.554,29.999973 130,29.999973 L 128,29.999973 C 127.446,29.999973 127,29.553973 127,28.999973 L 127,16.999973 C 127,16.445973 127.446,15.999973 128,15.999973 z " />
    <g
       id="background"
       transform="translate(0,-1)">
      <rect
         inkscape:export-ydpi="90"
         inkscape:export-xdpi="90"
         inkscape:export-filename="/home/pinheiro/Documents/pics/estilo/plasma/rect2996.png"
         ry="1.4393399"
         rx="1.4393399"
         y="16"
         x="-4.7494506e-08"
         height="16"
         width="132"
         id="rect3611"
         style="opacity:0.19101126;fill:#cecece;fill-opacity:1;stroke:none;stroke-width:2;stroke-linecap:round;stroke-linejoin:round;stroke-miterlimit:4;stroke-dasharray:none;stroke-dashoffset:1.08779998;stroke-opacity:1" />
      <path
         d="M 67.999992,17 C 67.445992,17 66.999992,17.446 66.999992,18 L 66.999992,30 C 66.999992,30.554 67.445992,31 67.999992,31 L 69.999992,31 C 70.553992,31 70.999992,30.554 70.999992,30 L 70.999992,18 C 70.999992,17.446 70.553992,17 69.999992,17 L 67.999992,17 z M 73.999992,17 C 73.445992,17 72.999992,17.446 72.999992,18 L 72.999992,30 C 72.999992,30.554 73.445992,31 73.999992,31 L 75.999992,31 C 76.553992,31 76.999992,30.554 76.999992,30 L 76.999992,18 C 76.999992,17.446 76.553992,17 75.999992,17 L 73.999992,17 z M 79.999992,17 C 79.445992,17 78.999992,17.446 78.999992,18 L 78.999992,30 C 78.999992,30.554 79.445992,31 79.999992,31 L 81.999992,31 C 82.553992,31 82.999992,30.554 82.999992,30 L 82.999992,18 C 82.999992,17.446 82.553992,17 81.999992,17 L 79.999992,17 z M 85.999992,17 C 85.445992,17 84.999992,17.446 84.999992,18 L 84.999992,30 C 84.999992,30.554 85.445992,31 85.999992,31 L 87.999992,31 C 88.553992,31 88.999992,30.554 88.999992,30 L 88.999992,18 C 88.999992,17.446 88.553992,17 87.999992,17 L 85.999992,17 z M 91.999992,17 C 91.445992,17 90.999992,17.446 90.999992,18 L 90.999992,30 C 90.999992,30.554 91.445992,31 91.999992,31 L 93.999992,31 C 94.553992,31 94.999992,30.554 94.999992,30 L 94.999992,18 C 94.999992,17.446 94.553992,17 93.999992,17 L 91.999992,17 z M 97.999988,17 C 97.445988,17 96.999992,17.446 96.999992,18 L 96.999992,30 C 96.999992,30.554 97.445988,31 97.999988,31 L 99.999988,31 C 100.55399,31 100.99999,30.554 100.99999,30 L 100.99999,18 C 100.99999,17.446 100.55399,17 99.999988,17 L 97.999988,17 z M 103.99999,17 C 103.44599,17 102.99999,17.446 102.99999,18 L 102.99999,30 C 102.99999,30.554 103.44599,31 103.99999,31 L 105.99999,31 C 106.55399,31 106.99999,30.554 106.99999,30 L 106.99999,18 C 106.99999,17.446 106.55399,17 105.99999,17 L 103.99999,17 z M 109.99999,17 C 109.44599,17 108.99999,17.446 108.99999,18 L 108.99999,30 C 108.99999,30.554 109.44599,31 109.99999,31 L 111.99999,31 C 112.55399,31 112.99999,30.554 112.99999,30 L 112.99999,18 C 112.99999,17.446 112.55399,17 111.99999,17 L 109.99999,17 z M 115.99999,17 C 115.44599,17 114.99999,17.446 114.99999,18 L 114.99999,30 C 114.99999,30.554 115.44599,31 115.99999,31 L 117.99999,31 C 118.55399,31 118.99999,30.554 118.99999,30 L 118.99999,18 C 118.99999,17.446 118.55399,17 117.99999,17 L 115.99999,17 z M 121.99999,17 C 121.44599,17 120.99999,17.446 120.99999,18 L 120.99999,30 C 120.99999,30.554 121.44599,31 121.99999,31 L 123.99999,31 C 124.55399,31 124.99999,30.554 124.99999,30 L 124.99999,18 C 124.99999,17.446 124.55399,17 123.99999,17 L 121.99999,17 z M 127.99999,17 C 127.44599,17 126.99999,17.446 126.99999,18 L 126.99999,30 C 126.99999,30.554 127.44599,31 127.99999,31 L 129.99999,31 C 130.55399,31 130.99999,30.554 130.99999,30 L 130.99999,18 C 130.99999,17.446 130.55399,17 129.99999,17 L 127.99999,17 z M 2,17 C 1.446,17 1,17.446 1,18 L 1,30 C 1,30.554 1.446,31 2,31 L 4,31 C 4.554,31 5,30.554 5,30 L 5,18 C 5,17.446 4.554,17 4,17 L 2,17 z M 8,17 C 7.446,17 7,17.446 7,18 L 7,30 C 7,30.554 7.446,31 8,31 L 10,31 C 10.554,31 11,30.554 11,30 L 11,18 C 11,17.446 10.554,17 10,17 L 8,17 z M 14,17 C 13.446,17 13,17.446 13,18 L 13,30 C 13,30.554 13.446,31 14,31 L 16,31 C 16.554,31 17,30.554 17,30 L 17,18 C 17,17.446 16.554,17 16,17 L 14,17 z M 20,17 C 19.446,17 19,17.446 19,18 L 19,30 C 19,30.554 19.446,31 20,31 L 22,31 C 22.554,31 23,30.554 23,30 L 23,18 C 23,17.446 22.554,17 22,17 L 20,17 z M 26,17 C 25.446,17 25,17.446 25,18 L 25,30 C 25,30.554 25.446,31 26,31 L 28,31 C 28.554,31 29,30.554 29,30 L 29,18 C 29,17.446 28.554,17 28,17 L 26,17 z M 31.999996,17 C 31.445996,17 31,17.446 31,18 L 31,30 C 31,30.554 31.445996,31 31.999996,31 L 33.999996,31 C 34.553998,31 34.999998,30.554 34.999998,30 L 34.999998,18 C 34.999998,17.446 34.553998,17 33.999996,17 L 31.999996,17 z M 37.999998,17 C 37.445998,17 36.999998,17.446 36.999998,18 L 36.999998,30 C 36.999998,30.554 37.445998,31 37.999998,31 L 39.999998,31 C 40.553998,31 40.999998,30.554 40.999998,30 L 40.999998,18 C 40.999998,17.446 40.553998,17 39.999998,17 L 37.999998,17 z M 43.999998,17 C 43.445998,17 42.999998,17.446 42.999998,18 L 42.999998,30 C 42.999998,30.554 43.445998,31 43.999998,31 L 45.999998,31 C 46.553998,31 46.999998,30.554 46.999998,30 L 46.999998,18 C 46.999998,17.446 46.553998,17 45.999998,17 L 43.999998,17 z M 49.999998,17 C 49.445998,17 48.999998,17.446 48.999998,18 L 48.999998,30 C 48.999998,30.554 49.445998,31 49.999998,31 L 51.999998,31 C 52.553998,31 52.999998,30.554 52.999998,30 L 52.999998,18 C 52.999998,17.446 52.553998,17 51.999998,17 L 49.999998,17 z M 55.999998,17 C 55.445998,17 54.999998,17.446 54.999998,18 L 54.999998,30 C 54.999998,30.554 55.445998,31 55.999998,31 L 57.999998,31 C 58.553998,31 58.999998,30.554 58.999998,30 L 58.999998,18 C 58.999998,17.446 58.553998,17 57.999998,17 L 55.999998,17 z M 61.999998,17 C 61.445998,17 60.999998,17.446 60.999998,18 L 60.999998,30 C 60.999998,30.554 61.445998,31 61.999998,31 L 63.999998,31 C 64.553998,31 64.999998,30.554 64.999998,30 L 64.999998,18 C 64.999998,17.446 64.553998,17 63.999998,17 L 61.999998,17 z "
         style="opacity:0.08614233;fill:#000000;fill-opacity:1;stroke:none;stroke-width:2;stroke-linecap:round;stroke-linejoin:round;stroke-miterlimit:4;stroke-dashoffset:1.08779998;stroke-opacity:1"
         id="path3613" />
    </g>
    <rect
       style="opacity:1;fill:#0000ff;fill-opacity:0.50196078;fill-rule:evenodd;stroke:none;stroke-width:3.19400001;stroke-linecap:round;stroke-linejoin:round;stroke-miterlimit:4;stroke-dasharray:none;stroke-opacity:0.50196078"
       id="label0"
       width="65"
       height="12"
       x="0"
       y="1" />
    <rect
       y="1"
       x="67"
       height="12"
       width="65"
       id="label1"
       style="opacity:1;fill:#0000ff;fill-opacity:0.50196078;fill-rule:evenodd;stroke:none;stroke-width:3.19400001;stroke-linecap:round;stroke-linejoin:round;stroke-miterlimit:4;stroke-dasharray:none;stroke-opacity:0.50196078" />
    <rect
       y="1"
       x="35"
       height="12"
       width="65"
       id="label2"
       style="opacity:1;fill:#0000ff;fill-opacity:0.50196078;fill-rule:evenodd;stroke:none;stroke-width:3.19400001;stroke-linecap:round;stroke-linejoin:round;stroke-miterlimit:4;stroke-dasharray:none;stroke-opacity:0.50196078" />
  </g>
</svg>
