<?xml version="1.0" encoding="UTF-8" standalone="no"?>
<!-- Created with Inkscape (http://www.inkscape.org/) -->
<svg
   xmlns:dc="http://purl.org/dc/elements/1.1/"
   xmlns:cc="http://web.resource.org/cc/"
   xmlns:rdf="http://www.w3.org/1999/02/22-rdf-syntax-ns#"
   xmlns:svg="http://www.w3.org/2000/svg"
   xmlns="http://www.w3.org/2000/svg"
   xmlns:xlink="http://www.w3.org/1999/xlink"
   xmlns:sodipodi="http://sodipodi.sourceforge.net/DTD/sodipodi-0.dtd"
   xmlns:inkscape="http://www.inkscape.org/namespaces/inkscape"
   width="800"
   height="600"
   id="svg2"
   sodipodi:version="0.32"
   inkscape:version="0.45.1"
   version="1.0"
   sodipodi:docbase="/home/kde4/kde4/kdebase/workspace/plasma/desktoptheme/widgets"
   sodipodi:docname="iconbutton.svg"
   inkscape:output_extension="org.inkscape.output.svg.inkscape">
  <defs
     id="defs4">
    <linearGradient
       id="linearGradient4144">
      <stop
         style="stop-color:#ffffff;stop-opacity:1;"
         offset="0"
         id="stop4146" />
      <stop
         style="stop-color:#ffffff;stop-opacity:0;"
         offset="1"
         id="stop4148" />
    </linearGradient>
    <mask
       maskUnits="userSpaceOnUse"
       id="mask4130">
      <rect
         ry="34.996651"
         y="17.142857"
         x="90"
         height="184.28572"
         width="128.57143"
         id="rect4132"
         style="opacity:0.47349411;fill:#00bf00;fill-opacity:1;stroke:none" />
    </mask>
    <linearGradient
       inkscape:collect="always"
       xlink:href="#linearGradient4144"
       id="linearGradient4368"
       gradientUnits="userSpaceOnUse"
       gradientTransform="matrix(0.6624804,0,0,0.6260877,174.83885,251.06758)"
       x1="608.01605"
       y1="286.34344"
       x2="650.11676"
       y2="500.62918" />
    <linearGradient
       inkscape:collect="always"
       xlink:href="#linearGradient4144"
       id="linearGradient4435"
       gradientUnits="userSpaceOnUse"
       gradientTransform="matrix(0.6615863,0,0,0.61613,175.49178,253.57608)"
       x1="608.01605"
       y1="286.34344"
       x2="650.11676"
       y2="500.62918" />
    <linearGradient
       inkscape:collect="always"
       xlink:href="#linearGradient4144"
       id="linearGradient4448"
       gradientUnits="userSpaceOnUse"
       gradientTransform="matrix(0.6615863,0,0,0.61613,175.49178,253.57608)"
       x1="608.01605"
       y1="286.34344"
       x2="650.11676"
       y2="500.62918" />
    <linearGradient
       inkscape:collect="always"
       xlink:href="#linearGradient4144"
       id="linearGradient4456"
       gradientUnits="userSpaceOnUse"
       gradientTransform="matrix(0.6615863,0,0,0.61613,175.49178,253.57608)"
       x1="608.01605"
       y1="286.34344"
       x2="650.11676"
       y2="500.62918" />
    <radialGradient
       inkscape:collect="always"
       xlink:href="#linearGradient4144"
       id="radialGradient5455"
       gradientUnits="userSpaceOnUse"
       cx="123.53555"
       cy="215.87373"
       fx="123.53555"
       fy="215.87373"
       r="70.5" />
    <radialGradient
       inkscape:collect="always"
       xlink:href="#linearGradient4144"
       id="radialGradient5463"
       gradientUnits="userSpaceOnUse"
       cx="123.53555"
       cy="215.78514"
       fx="123.53555"
       fy="215.78514"
       r="70.5" />
    <radialGradient
       inkscape:collect="always"
       xlink:href="#linearGradient4144"
       id="radialGradient5471"
       gradientUnits="userSpaceOnUse"
       cx="123.53555"
       cy="215.87373"
       fx="123.53555"
       fy="215.87373"
       r="70.5" />
    <linearGradient
       inkscape:collect="always"
       xlink:href="#linearGradient4144"
       id="linearGradient3170"
       gradientUnits="userSpaceOnUse"
       gradientTransform="matrix(0.6615863,0,0,0.61613,175.49178,253.57608)"
       x1="608.01605"
       y1="286.34344"
       x2="650.11676"
       y2="500.62918" />
    <linearGradient
       inkscape:collect="always"
       xlink:href="#linearGradient4144"
       id="linearGradient3182"
       gradientUnits="userSpaceOnUse"
       gradientTransform="matrix(0.6615863,0,0,0.61613,175.49178,253.57608)"
       x1="608.01605"
       y1="286.34344"
       x2="650.11676"
       y2="500.62918" />
    <linearGradient
       inkscape:collect="always"
       xlink:href="#linearGradient4144"
       id="linearGradient3190"
       gradientUnits="userSpaceOnUse"
       gradientTransform="matrix(0.6615863,0,0,0.61613,175.49178,253.57608)"
       x1="608.01605"
       y1="286.34344"
       x2="650.11676"
       y2="500.62918" />
  </defs>
  <sodipodi:namedview
     id="base"
     pagecolor="#ffffff"
     bordercolor="#666666"
     borderopacity="1.0"
     gridtolerance="10000"
     guidetolerance="10"
     objecttolerance="10"
     inkscape:pageopacity="0.0"
     inkscape:pageshadow="2"
     inkscape:zoom="0.50000001"
     inkscape:cx="410.21438"
     inkscape:cy="156.18076"
     inkscape:document-units="px"
     inkscape:current-layer="layer1"
     width="800px"
     height="600px"
     inkscape:window-width="1276"
     inkscape:window-height="972"
     inkscape:window-x="0"
     inkscape:window-y="0"
     showguides="true"
     inkscape:guide-bbox="true" />
  <metadata
     id="metadata7">
    <rdf:RDF>
      <cc:Work
         rdf:about="">
        <dc:format>image/svg+xml</dc:format>
        <dc:type
           rdf:resource="http://purl.org/dc/dcmitype/StillImage" />
      </cc:Work>
    </rdf:RDF>
  </metadata>
  <g
     inkscape:label="Layer 1"
     inkscape:groupmode="layer"
     id="layer1">
    <rect
       style="opacity:0.41000001;fill:#888a85;fill-opacity:0.69832405;stroke:#888a85;stroke-width:1;stroke-linecap:round;stroke-miterlimit:4;stroke-dasharray:none;stroke-opacity:1"
       id="rect3194"
       width="794"
       height="598"
       x="2"
       y="1.6438613e-05"
       ry="34.135437" />
    <g
       transform="translate(438.4062,-13.435025)"
       id="background-pressed"
       inkscape:label="#g5449">
      <rect
         ry="17.958969"
         inkscape:label="#rect8674"
         y="145.37373"
         x="53.035545"
         height="141"
         width="141"
         id="rect5451"
         style="opacity:1;fill:url(#radialGradient5455);fill-opacity:1;fill-rule:evenodd;stroke:none;stroke-width:1.35680544;stroke-linecap:square;stroke-linejoin:round;stroke-miterlimit:4;stroke-dasharray:none;stroke-dashoffset:0;stroke-opacity:1" />
    </g>
    <g
       transform="translate(-480.48716,0)"
       id="foreground"
       inkscape:label="#g4450">
      <path
         style="opacity:0.41000001;fill:#888a85;fill-opacity:1;fill-rule:evenodd;stroke:none;stroke-width:0.80000001;stroke-linecap:round;stroke-linejoin:round;stroke-miterlimit:4;stroke-dasharray:none;stroke-dashoffset:0;stroke-opacity:1"
         d="M 536.21875,443.25 C 526.10453,443.25 517.9375,451.41703 517.9375,461.53125 L 517.9375,566.09375 C 517.9375,576.20798 526.10454,584.34374 536.21875,584.34375 L 640.78125,584.34375 C 650.89547,584.34375 659.03122,576.20801 659.03125,566.09375 L 659.03125,461.53125 C 659.03125,451.41702 650.89549,443.25 640.78125,443.25 L 536.21875,443.25 z M 536.21875,444.0625 L 640.78125,444.0625 C 650.46613,444.0625 658.25,451.84638 658.25,461.53125 L 658.25,566.09375 C 658.24997,575.77865 650.46611,583.5625 640.78125,583.5625 L 536.21875,583.5625 C 526.5339,583.56249 518.75,575.77862 518.75,566.09375 L 518.75,461.53125 C 518.75,451.8464 526.53389,444.0625 536.21875,444.0625 z "
         id="path4452" />
      <path
         sodipodi:nodetypes="cccczccc"
         id="path4454"
         d="M 542.4422,443.93562 C 572.03406,443.51626 636.24159,443.93562 636.24159,443.93562 C 654.8305,443.64869 658.89087,453.55248 658.64087,465.49811 L 658.64087,490.44381 C 658.64087,500.62907 641.58677,518.1676 597.68263,518.1676 C 553.81276,518.1676 518.5349,509.79746 518.5349,490.44381 L 518.5349,465.49811 C 518.5349,454.30248 521.95428,443.56458 542.4422,443.93562 z "
         style="opacity:0.66292138;fill:url(#linearGradient4456);fill-opacity:1;fill-rule:evenodd;stroke:none;stroke-width:1;stroke-linecap:square;stroke-linejoin:round;stroke-miterlimit:4;stroke-dashoffset:0;stroke-opacity:1" />
    </g>
    <g
       id="background"
       transform="translate(23.334522,-16.970563)"
       inkscape:label="#g5457">
      <rect
         style="opacity:1;fill:url(#radialGradient5463);fill-opacity:1;fill-rule:evenodd;stroke:none;stroke-width:1.35680544;stroke-linecap:square;stroke-linejoin:round;stroke-miterlimit:4;stroke-dasharray:none;stroke-dashoffset:0;stroke-opacity:1"
         id="rect5459"
         width="141"
         height="141"
         x="53.035545"
         y="145.37373"
         inkscape:label="#rect8674"
         ry="17.958969" />
    </g>
    <g
       transform="translate(236.88077,-14.849243)"
       id="background-hover"
       inkscape:label="#g5465">
      <rect
         ry="17.958969"
         inkscape:label="#rect8674"
         y="145.37373"
         x="53.035545"
         height="141"
         width="141"
         id="rect5467"
         style="opacity:1;fill:url(#radialGradient5471);fill-opacity:1;fill-rule:evenodd;stroke:none;stroke-width:1.35680544;stroke-linecap:square;stroke-linejoin:round;stroke-miterlimit:4;stroke-dasharray:none;stroke-dashoffset:0;stroke-opacity:1" />
    </g>
    <g
       inkscape:label="#g4450"
       id="foreground-pressed"
       transform="translate(-41.373867,-2.1213204)">
      <path
         id="path3178"
         d="M 536.21875,443.25 C 526.10453,443.25 517.9375,451.41703 517.9375,461.53125 L 517.9375,566.09375 C 517.9375,576.20798 526.10454,584.34374 536.21875,584.34375 L 640.78125,584.34375 C 650.89547,584.34375 659.03122,576.20801 659.03125,566.09375 L 659.03125,461.53125 C 659.03125,451.41702 650.89549,443.25 640.78125,443.25 L 536.21875,443.25 z M 536.21875,444.0625 L 640.78125,444.0625 C 650.46613,444.0625 658.25,451.84638 658.25,461.53125 L 658.25,566.09375 C 658.24997,575.77865 650.46611,583.5625 640.78125,583.5625 L 536.21875,583.5625 C 526.5339,583.56249 518.75,575.77862 518.75,566.09375 L 518.75,461.53125 C 518.75,451.8464 526.53389,444.0625 536.21875,444.0625 z "
         style="opacity:0.41000001;fill:#888a85;fill-opacity:1;fill-rule:evenodd;stroke:none;stroke-width:0.80000001;stroke-linecap:round;stroke-linejoin:round;stroke-miterlimit:4;stroke-dasharray:none;stroke-dashoffset:0;stroke-opacity:1" />
      <path
         style="opacity:0.66292138;fill:url(#linearGradient3182);fill-opacity:1;fill-rule:evenodd;stroke:none;stroke-width:1;stroke-linecap:square;stroke-linejoin:round;stroke-miterlimit:4;stroke-dashoffset:0;stroke-opacity:1"
         d="M 542.4422,443.93562 C 572.03406,443.51626 636.24159,443.93562 636.24159,443.93562 C 654.8305,443.64869 658.89087,453.55248 658.64087,465.49811 L 658.64087,490.44381 C 658.64087,500.62907 641.58677,518.1676 597.68263,518.1676 C 553.81276,518.1676 518.5349,509.79746 518.5349,490.44381 L 518.5349,465.49811 C 518.5349,454.30248 521.95428,443.56458 542.4422,443.93562 z "
         id="path3180"
         sodipodi:nodetypes="cccczccc" />
    </g>
    <g
       transform="translate(-257.74853,-2.1213204)"
       id="g3184"
       inkscape:label="#g4450">
      <path
         style="opacity:0.41000001;fill:#888a85;fill-opacity:1;fill-rule:evenodd;stroke:none;stroke-width:0.80000001;stroke-linecap:round;stroke-linejoin:round;stroke-miterlimit:4;stroke-dasharray:none;stroke-dashoffset:0;stroke-opacity:1"
         d="M 536.21875,443.60355 C 526.10453,443.60355 517.9375,451.41703 517.9375,461.53125 L 517.9375,566.09375 C 517.9375,576.20798 526.10454,584.34374 536.21875,584.34375 L 640.78125,584.34375 C 650.89547,584.34375 659.03122,576.20801 659.03125,566.09375 L 659.03125,461.53125 C 659.03125,451.41702 650.63032,443.25 640.51608,443.25 L 536.21875,443.60355 z M 536.21875,444.41605 L 640.51608,444.0625 C 650.20096,444.0625 658.25,451.84638 658.25,461.53125 L 658.25,566.09375 C 658.24997,575.77865 650.46611,583.5625 640.78125,583.5625 L 536.21875,583.5625 C 526.5339,583.56249 518.75,575.77862 518.75,566.09375 L 518.75,461.53125 C 518.75,451.8464 526.53389,444.41605 536.21875,444.41605 z "
         id="path3186"
         sodipodi:nodetypes="cccccccccccccccccc" />
      <path
         id="path3192"
         d="M 536.21875,444.0625 L 640.78125,444.0625 C 650.46613,444.0625 658.25,451.84638 658.25,461.53125 L 658.25,566.09375 C 658.24997,575.77865 650.46611,583.5625 640.78125,583.5625 L 536.21875,583.5625 C 526.5339,583.56249 518.75,575.77862 518.75,566.09375 L 518.75,461.53125 C 518.75,451.8464 528.47843,443.79733 536.21875,444.0625 z "
         style="opacity:0.41000001;fill:#888a85;fill-opacity:0.69832402;fill-rule:evenodd;stroke:none;stroke-width:0.80000001;stroke-linecap:round;stroke-linejoin:round;stroke-miterlimit:4;stroke-dasharray:none;stroke-dashoffset:0;stroke-opacity:1"
         sodipodi:nodetypes="ccccccccc" />
      <path
         sodipodi:nodetypes="cccczccc"
         id="path3188"
         d="M 542.4422,443.93562 C 572.03406,443.51626 636.24159,443.93562 636.24159,443.93562 C 654.8305,443.64869 658.89087,453.55248 658.64087,465.49811 L 658.64087,490.44381 C 658.64087,500.62907 641.58677,518.1676 597.68263,518.1676 C 553.81276,518.1676 518.5349,509.79746 518.5349,490.44381 L 518.5349,465.49811 C 518.5349,454.30248 521.95428,443.56458 542.4422,443.93562 z "
         style="opacity:0.66292138;fill:url(#linearGradient3190);fill-opacity:1;fill-rule:evenodd;stroke:none;stroke-width:1;stroke-linecap:square;stroke-linejoin:round;stroke-miterlimit:4;stroke-dashoffset:0;stroke-opacity:1" />
    </g>
  </g>
</svg>
