<?xml version="1.0" encoding="UTF-8" standalone="no"?>
<!-- Created with Inkscape (http://www.inkscape.org/) -->
<svg
   xmlns:dc="http://purl.org/dc/elements/1.1/"
   xmlns:cc="http://web.resource.org/cc/"
   xmlns:rdf="http://www.w3.org/1999/02/22-rdf-syntax-ns#"
   xmlns:svg="http://www.w3.org/2000/svg"
   xmlns="http://www.w3.org/2000/svg"
   xmlns:xlink="http://www.w3.org/1999/xlink"
   xmlns:sodipodi="http://sodipodi.sourceforge.net/DTD/sodipodi-0.dtd"
   xmlns:inkscape="http://www.inkscape.org/namespaces/inkscape"
   version="1.0"
   width="20"
   height="20"
   id="svg2"
   sodipodi:version="0.32"
   inkscape:version="0.45.1"
   sodipodi:docname="panel-background_beta.svg"
   sodipodi:docbase="/home/diau/failed Graphics attempts/plasma background/archived"
   inkscape:output_extension="org.inkscape.output.svg.inkscape">
  <metadata
     id="metadata45">
    <rdf:RDF>
      <cc:Work
         rdf:about="">
        <dc:format>image/svg+xml</dc:format>
        <dc:type
           rdf:resource="http://purl.org/dc/dcmitype/StillImage" />
      </cc:Work>
    </rdf:RDF>
  </metadata>
  <sodipodi:namedview
     inkscape:window-height="588"
     inkscape:window-width="792"
     inkscape:pageshadow="2"
     inkscape:pageopacity="0.0"
     guidetolerance="10.0"
     gridtolerance="10.0"
     objecttolerance="10.0"
     borderopacity="1.0"
     bordercolor="#666666"
     pagecolor="#ffffff"
     id="base"
     inkscape:zoom="6.6821591"
     inkscape:cx="15.132199"
     inkscape:cy="21.039183"
     inkscape:window-x="878"
     inkscape:window-y="0"
     inkscape:current-layer="svg2" />
  <defs
     id="defs5">
    <linearGradient
       id="linearGradient3171">
      <stop
         style="stop-color:#121212;stop-opacity:1"
         offset="0"
         id="stop3173" />
      <stop
         style="stop-color:#919191;stop-opacity:1"
         offset="1"
         id="stop3175" />
    </linearGradient>
    <linearGradient
       id="linearGradient4134">
      <stop
         style="stop-color:#121212;stop-opacity:1"
         offset="0"
         id="stop4136" />
      <stop
         style="stop-color:#919191;stop-opacity:1"
         offset="1"
         id="stop4138" />
    </linearGradient>
    <linearGradient
       x1="0"
       y1="10"
       x2="7"
       y2="10"
       id="linearGradient6103"
       xlink:href="#linearGradient4134"
       gradientUnits="userSpaceOnUse"
       gradientTransform="matrix(-1,0,0,1,7,0)" />
    <linearGradient
       x1="13"
       y1="7"
       x2="13"
       y2="0"
       id="linearGradient2184"
       xlink:href="#linearGradient4134"
       gradientUnits="userSpaceOnUse" />
    <linearGradient
       x1="0"
       y1="10"
       x2="7"
       y2="10"
       id="linearGradient2192"
       xlink:href="#linearGradient4134"
       gradientUnits="userSpaceOnUse"
       gradientTransform="matrix(-1,0,0,1,7,0)" />
    <linearGradient
       x1="13"
       y1="7"
       x2="13"
       y2="0"
       id="linearGradient2185"
       xlink:href="#linearGradient4134"
       gradientUnits="userSpaceOnUse" />
    <radialGradient
       cx="0"
       cy="7"
       r="3.5"
       fx="0"
       fy="7"
       id="radialGradient3179"
       xlink:href="#linearGradient3171"
       gradientUnits="userSpaceOnUse"
       gradientTransform="matrix(0,-2,2,0,-7,7)" />
    <radialGradient
       cx="0"
       cy="7.0980854"
       r="3.5"
       fx="0"
       fy="7"
       id="radialGradient3191"
       xlink:href="#linearGradient3171"
       gradientUnits="userSpaceOnUse"
       gradientTransform="matrix(0,-2,2,0,-7,7)" />
    <radialGradient
       cx="0"
       cy="7"
       r="3.5"
       fx="0"
       fy="7"
       id="radialGradient3199"
       xlink:href="#linearGradient3171"
       gradientUnits="userSpaceOnUse"
       gradientTransform="matrix(0,-2,2,0,-7,7)" />
    <radialGradient
       cx="0"
       cy="7"
       r="3.5"
       fx="0"
       fy="7"
       id="radialGradient3207"
       xlink:href="#linearGradient3171"
       gradientUnits="userSpaceOnUse"
       gradientTransform="matrix(0,-2,2,0,-7,7)" />
    <linearGradient
       inkscape:collect="always"
       xlink:href="#linearGradient4134"
       id="linearGradient2205"
       gradientUnits="userSpaceOnUse"
       x1="13"
       y1="7"
       x2="13"
       y2="0"
       gradientTransform="matrix(1,0,0,0.5714286,0,0.142857)" />
    <linearGradient
       inkscape:collect="always"
       xlink:href="#linearGradient4134"
       id="linearGradient2215"
       gradientUnits="userSpaceOnUse"
       gradientTransform="matrix(1,0,0,0.5714286,0,0.142857)"
       x1="13"
       y1="7"
       x2="13"
       y2="0" />
    <linearGradient
       inkscape:collect="always"
       xlink:href="#linearGradient4134"
       id="linearGradient2225"
       gradientUnits="userSpaceOnUse"
       gradientTransform="matrix(1,0,0,0.5714286,0,0.142857)"
       x1="13"
       y1="7"
       x2="13"
       y2="0" />
    <linearGradient
       inkscape:collect="always"
       xlink:href="#linearGradient4134"
       id="linearGradient2235"
       gradientUnits="userSpaceOnUse"
       gradientTransform="matrix(1,0,0,0.5714286,0,0.142857)"
       x1="13"
       y1="7"
       x2="13"
       y2="0" />
  </defs>
  <path
     d="M 0,0 L 20,0 L 20,20 L 0,20 L 0,0 z "
     style="fill:#000000;fill-opacity:1;stroke:none;stroke-width:0;stroke-linecap:round;stroke-linejoin:round;stroke-miterlimit:4;stroke-dasharray:none;stroke-dashoffset:4.15;stroke-opacity:1"
     id="center" />
  <rect
     width="5"
     height="5"
     x="7.5"
     y="7.5"
     style="opacity:0.875;fill:#008000;fill-opacity:1;stroke:none;stroke-width:0;stroke-miterlimit:4;stroke-dasharray:none;stroke-opacity:1"
     id="hint-stretch-borders" />
  <g
     id="top">
    <path
       d="M 7,7 L 13,7 L 13,0 L 7,0 L 7,7 z "
       style="fill:url(#linearGradient2185);fill-opacity:1;stroke:none;stroke-width:0;stroke-linecap:round;stroke-linejoin:round;stroke-miterlimit:4;stroke-dashoffset:4.15;stroke-opacity:1"
       id="rect3090" />
    <rect
       width="6"
       height="1"
       x="7"
       y="0"
       style="fill:#dedede;fill-opacity:1;stroke:none;stroke-width:0;stroke-linecap:round;stroke-linejoin:round;stroke-miterlimit:4;stroke-dasharray:none;stroke-dashoffset:4.15;stroke-opacity:1"
       id="rect3152" />
  </g>
  <g
     id="left">
    <path
       d="M 0,13 L 0,7 L 7,7 L 7,13 L 0,13 z "
       style="fill:url(#linearGradient6103);fill-opacity:1;stroke:none;stroke-width:0;stroke-linecap:round;stroke-linejoin:round;stroke-miterlimit:4;stroke-dashoffset:4.15;stroke-opacity:1"
       id="path5118" />
    <rect
       width="6"
       height="1"
       x="-13"
       y="0"
       transform="matrix(0,-1,1,0,0,0)"
       style="fill:#dedede;fill-opacity:1;stroke:none;stroke-width:0;stroke-linecap:round;stroke-linejoin:round;stroke-miterlimit:4;stroke-dasharray:none;stroke-dashoffset:4.15;stroke-opacity:1"
       id="rect5120" />
  </g>
  <g
     transform="matrix(1,0,0,-1,0,20)"
     id="bottom">
    <path
       d="M 7,7 L 13,7 L 13,0 L 7,0 L 7,7 z "
       style="fill:url(#linearGradient2184);fill-opacity:1;stroke:none;stroke-width:0;stroke-linecap:round;stroke-linejoin:round;stroke-miterlimit:4;stroke-dashoffset:4.15;stroke-opacity:1"
       id="path2180" />
    <rect
       width="6"
       height="1"
       x="7"
       y="0"
       style="fill:#dedede;fill-opacity:1;stroke:none;stroke-width:0;stroke-linecap:round;stroke-linejoin:round;stroke-miterlimit:4;stroke-dasharray:none;stroke-dashoffset:4.15;stroke-opacity:1"
       id="rect2182" />
  </g>
  <g
     transform="matrix(-1,0,0,1,20,0)"
     id="right">
    <path
       d="M 0,13 L 0,7 L 7,7 L 7,13 L 0,13 z "
       style="fill:url(#linearGradient2192);fill-opacity:1;stroke:none;stroke-width:0;stroke-linecap:round;stroke-linejoin:round;stroke-miterlimit:4;stroke-dashoffset:4.15;stroke-opacity:1"
       id="path2188" />
    <rect
       width="6"
       height="1"
       x="-13"
       y="0"
       transform="matrix(0,-1,1,0,0,0)"
       style="fill:#dedede;fill-opacity:1;stroke:none;stroke-width:0;stroke-linecap:round;stroke-linejoin:round;stroke-miterlimit:4;stroke-dasharray:none;stroke-dashoffset:4.15;stroke-opacity:1"
       id="rect2190" />
  </g>
  <g
     id="topleft">
    <path
       d="M 7,0 C 3.136,0 0,3.136 0,7 L 7,7 L 7,0 z "
       style="fill:url(#radialGradient3179);fill-opacity:1;fill-rule:nonzero;stroke:none;stroke-width:0.625;stroke-linecap:round;stroke-miterlimit:4;stroke-opacity:1"
       id="path2182" />
    <path
       d="M 7,0 C 3.136,0 0,3.136 0,7 L 1,7 C 1,3.688 3.688,1 7,1 L 7,0 z "
       style="fill:#dedede;fill-opacity:1;fill-rule:nonzero;stroke:none;stroke-width:0.625;stroke-linecap:round;stroke-miterlimit:4;stroke-opacity:1"
       id="path3163" />
  </g>
  <g
     transform="matrix(0,1,-1,0,20,0)"
     id="topright">
    <path
       d="M 7,0 C 3.136,0 0,3.136 0,7 L 7,7 L 7,0 z "
       style="fill:url(#radialGradient3191);fill-opacity:1;fill-rule:nonzero;stroke:none;stroke-width:0.625;stroke-linecap:round;stroke-miterlimit:4;stroke-opacity:1"
       id="path3187" />
    <path
       d="M 7,0 C 3.136,0 0,3.136 0,7 L 1,7 C 1,3.688 3.688,1 7,1 L 7,0 z "
       style="fill:#dedede;fill-opacity:1;fill-rule:nonzero;stroke:none;stroke-width:0.625;stroke-linecap:round;stroke-miterlimit:4;stroke-opacity:1"
       id="path3189" />
  </g>
  <g
     transform="matrix(1,0,0,-1,0,20)"
     id="bottomleft">
    <path
       d="M 7,0 C 3.136,0 0,3.136 0,7 L 7,7 L 7,0 z "
       style="fill:url(#radialGradient3199);fill-opacity:1;fill-rule:nonzero;stroke:none;stroke-width:0.625;stroke-linecap:round;stroke-miterlimit:4;stroke-opacity:1"
       id="path3195" />
    <path
       d="M 7,0 C 3.136,0 0,3.136 0,7 L 1,7 C 1,3.688 3.688,1 7,1 L 7,0 z "
       style="fill:#dedede;fill-opacity:1;fill-rule:nonzero;stroke:none;stroke-width:0.625;stroke-linecap:round;stroke-miterlimit:4;stroke-opacity:1"
       id="path3197" />
  </g>
  <g
     transform="matrix(-1,0,0,-1,20,20)"
     id="bottomright">
    <path
       d="M 7,0 C 3.136,0 0,3.136 0,7 L 7,7 L 7,0 z "
       style="fill:url(#radialGradient3207);fill-opacity:1;fill-rule:nonzero;stroke:none;stroke-width:0.625;stroke-linecap:round;stroke-miterlimit:4;stroke-opacity:1"
       id="path3203" />
    <path
       d="M 7,0 C 3.136,0 0,3.136 0,7 L 1,7 C 1,3.688 3.688,1 7,1 L 7,0 z "
       style="fill:#dedede;fill-opacity:1;fill-rule:nonzero;stroke:none;stroke-width:0.625;stroke-linecap:round;stroke-miterlimit:4;stroke-opacity:1"
       id="path3205" />
  </g>
  <path
     id="south-center"
     style="fill:#000000;fill-opacity:1;stroke:none;stroke-width:0;stroke-linecap:round;stroke-linejoin:round;stroke-miterlimit:4;stroke-dasharray:none;stroke-dashoffset:4.15;stroke-opacity:1"
     d="M 7,28 L 13,28 L 13,35 L 7,35 L 7,28 z " />
  <g
     id="south-top"
     transform="translate(0,22.857143)">
    <path
       id="path2201"
       style="fill:url(#linearGradient2205);fill-opacity:1;stroke:none;stroke-width:0;stroke-linecap:round;stroke-linejoin:round;stroke-miterlimit:4;stroke-dashoffset:4.15;stroke-opacity:1"
       d="M 7,4.142857 L 13,4.142857 L 13,0.142857 L 7,0.142857 L 7,4.142857 z " />
    <rect
       id="rect2203"
       style="fill:#dedede;fill-opacity:1;stroke:none;stroke-width:0;stroke-linecap:round;stroke-linejoin:round;stroke-miterlimit:4;stroke-dasharray:none;stroke-dashoffset:4.15;stroke-opacity:1"
       y="0"
       x="7"
       height="1"
       width="6" />
  </g>
  <path
     d="M -8.9999997,6.9999995 L -8.9999997,13 L -16,13 L -16,6.9999995 L -8.9999997,6.9999995 z "
     style="fill:#000000;fill-opacity:1;stroke:none;stroke-width:0;stroke-linecap:round;stroke-linejoin:round;stroke-miterlimit:4;stroke-dasharray:none;stroke-dashoffset:4.15;stroke-opacity:1"
     id="west-center" />
  <g
     transform="matrix(0,1,-1,0,-3.857143,0)"
     id="west-right">
    <path
       d="M 7,4.142857 L 13,4.142857 L 13,0.142857 L 7,0.142857 L 7,4.142857 z "
       style="fill:url(#linearGradient2215);fill-opacity:1;stroke:none;stroke-width:0;stroke-linecap:round;stroke-linejoin:round;stroke-miterlimit:4;stroke-dashoffset:4.15;stroke-opacity:1"
       id="path2211" />
    <rect
       width="6"
       height="1"
       x="7"
       y="0"
       style="fill:#dedede;fill-opacity:1;stroke:none;stroke-width:0;stroke-linecap:round;stroke-linejoin:round;stroke-miterlimit:4;stroke-dasharray:none;stroke-dashoffset:4.15;stroke-opacity:1"
       id="rect2213" />
  </g>
  <path
     d="M 7,-8.142857 L 13,-8.142857 L 13,-15.142857 L 7,-15.142857 L 7,-8.142857 z "
     style="fill:#000000;fill-opacity:1;stroke:none;stroke-width:0;stroke-linecap:round;stroke-linejoin:round;stroke-miterlimit:4;stroke-dasharray:none;stroke-dashoffset:4.15;stroke-opacity:1"
     id="north-center" />
  <g
     transform="matrix(1,0,0,-1,0,-3)"
     id="north-bottom">
    <path
       d="M 7,4.142857 L 13,4.142857 L 13,0.142857 L 7,0.142857 L 7,4.142857 z "
       style="fill:url(#linearGradient2225);fill-opacity:1;stroke:none;stroke-width:0;stroke-linecap:round;stroke-linejoin:round;stroke-miterlimit:4;stroke-dashoffset:4.15;stroke-opacity:1"
       id="path2221" />
    <rect
       width="6"
       height="1"
       x="7"
       y="0"
       style="fill:#dedede;fill-opacity:1;stroke:none;stroke-width:0;stroke-linecap:round;stroke-linejoin:round;stroke-miterlimit:4;stroke-dasharray:none;stroke-dashoffset:4.15;stroke-opacity:1"
       id="rect2223" />
  </g>
  <path
     id="east-center"
     style="fill:#000000;fill-opacity:1;stroke:none;stroke-width:0;stroke-linecap:round;stroke-linejoin:round;stroke-miterlimit:4;stroke-dasharray:none;stroke-dashoffset:4.15;stroke-opacity:1"
     d="M 30.142857,6.9999995 L 30.142857,13 L 37.142857,13 L 37.142857,6.9999995 L 30.142857,6.9999995 z " />
  <g
     id="east-left"
     transform="matrix(0,1,1,0,25,0)">
    <path
       id="path2231"
       style="fill:url(#linearGradient2235);fill-opacity:1;stroke:none;stroke-width:0;stroke-linecap:round;stroke-linejoin:round;stroke-miterlimit:4;stroke-dashoffset:4.15;stroke-opacity:1"
       d="M 7,4.142857 L 13,4.142857 L 13,0.142857 L 7,0.142857 L 7,4.142857 z " />
    <rect
       id="rect2233"
       style="fill:#dedede;fill-opacity:1;stroke:none;stroke-width:0;stroke-linecap:round;stroke-linejoin:round;stroke-miterlimit:4;stroke-dasharray:none;stroke-dashoffset:4.15;stroke-opacity:1"
       y="0"
       x="7"
       height="1"
       width="6" />
  </g>
</svg>
