<?xml version="1.0" encoding="UTF-8" standalone="no"?>
<!-- Created with Inkscape (http://www.inkscape.org/) -->

<svg
   xmlns:dc="http://purl.org/dc/elements/1.1/"
   xmlns:cc="http://creativecommons.org/ns#"
   xmlns:rdf="http://www.w3.org/1999/02/22-rdf-syntax-ns#"
   xmlns:svg="http://www.w3.org/2000/svg"
   xmlns="http://www.w3.org/2000/svg"
   xmlns:sodipodi="http://sodipodi.sourceforge.net/DTD/sodipodi-0.dtd"
   xmlns:inkscape="http://www.inkscape.org/namespaces/inkscape"
   width="64"
   height="64"
   id="svg3642"
   sodipodi:version="0.32"
   inkscape:version="0.48.1 r9760"
   sodipodi:docname="extender-background.svgz"
   inkscape:output_extension="org.inkscape.output.svgz.inkscape"
   version="1.0"
   inkscape:export-filename="/home/diau/svn/playground-plasma/desktoptheme/air/widgets/background.png"
   inkscape:export-xdpi="90"
   inkscape:export-ydpi="90">
  <sodipodi:namedview
     id="base"
     pagecolor="#c1c1c1"
     bordercolor="#666666"
     borderopacity="1.0"
     inkscape:pageopacity="1"
     inkscape:pageshadow="2"
     inkscape:zoom="1.9999999"
     inkscape:cx="36.170652"
     inkscape:cy="9.1881878"
     inkscape:current-layer="layer1"
     showgrid="true"
     inkscape:grid-bbox="true"
     inkscape:document-units="px"
     inkscape:window-width="967"
     inkscape:window-height="754"
     inkscape:window-x="329"
     inkscape:window-y="94"
     width="48px"
     height="48px"
     showguides="true"
     inkscape:guide-bbox="true"
     objecttolerance="9"
     gridtolerance="13"
     inkscape:window-maximized="0">
    <inkscape:grid
       visible="true"
       enabled="true"
       id="grid2555"
       type="xygrid" />
  </sodipodi:namedview>
  <defs
     id="defs3644" />
  <metadata
     id="metadata3647">
    <rdf:RDF>
      <cc:Work
         rdf:about="">
        <dc:format>image/svg+xml</dc:format>
        <dc:type
           rdf:resource="http://purl.org/dc/dcmitype/StillImage" />
      </cc:Work>
      <cc:Work
         rdf:about="">
        <dc:format>image/svg+xml</dc:format>
        <dc:type
           rdf:resource="http://purl.org/dc/dcmitype/StillImage" />
      </cc:Work>
    </rdf:RDF>
  </metadata>
  <g
     inkscape:groupmode="layer"
     inkscape:label="Layer 1"
     id="layer1">
    <rect
       y="-23"
       x="-4"
       height="4.375"
       width="5"
       id="hint-stretch-borders"
       style="opacity:0.875;fill:#008000;fill-opacity:1;stroke:none;stroke-width:0;stroke-miterlimit:4;stroke-dasharray:none;stroke-opacity:1"
       inkscape:export-filename="/home/diau/svn/playground-plasma/desktoptheme/air/widgets/image2579.png"
       inkscape:export-xdpi="90"
       inkscape:export-ydpi="90" />
    <g
       id="top"
       transform="translate(7.0000004,8.998957)">
      <g
         id="g4106"
         transform="translate(0,1)">
        <path
           id="path2667"
           d="m 10,0 0,7 30,0 0,-7 z"
           style="opacity:0;fill:#000000;fill-opacity:1;fill-rule:nonzero;stroke:none"
           sodipodi:nodetypes="ccccc"
           inkscape:connector-curvature="0" />
        <path
           sodipodi:nodetypes="ccccc"
           style="fill:#ffffff;fill-opacity:1;fill-rule:nonzero;stroke:none"
           d="m 10,0 0,1 30,0 0,-1 z"
           id="path5283"
           inkscape:connector-curvature="0" />
        <path
           id="path2675"
           d="m 10,-1 0,1 30,0 0,-1 z"
           style="fill:#9f9f9f;fill-opacity:1;fill-rule:nonzero;stroke:none"
           sodipodi:nodetypes="ccccc"
           inkscape:connector-curvature="0" />
      </g>
    </g>
    <g
       transform="matrix(1,0,0,0.9998696,8.0000004,9.9998696)"
       id="topleft">
      <path
         style="fill:#ffffff;fill-opacity:1;fill-rule:nonzero;stroke:none"
         d="M 6,0 6,1 4,1 4,2 3,2 3,4 2,4 2,7 3,7 3,4 4,4 4,2 6,2 6,1 9,1 9,0 6,0 z"
         id="path5287"
         sodipodi:nodetypes="ccccccccccccccccc"
         inkscape:connector-curvature="0" />
      <path
         sodipodi:nodetypes="ccccccccccccccccccccc"
         id="path3447"
         d="M 6,-1 6,0 4,0 4,1 3,1 3,2 2,2 2,4 1,4 1,7 2,7 2,4 3,4 3.001,2 4,2 4,1 6,1 6,0 9,0 9,-1 6,-1 z"
         style="fill:#9f9f9f;fill-opacity:1;fill-rule:nonzero;stroke:none"
         inkscape:connector-curvature="0" />
    </g>
    <g
       id="center"
       inkscape:export-filename="/home/diau/svn/playground-plasma/desktoptheme/air/widgets/image2579.png"
       inkscape:export-xdpi="90"
       inkscape:export-ydpi="90"
       transform="translate(7,9)">
      <path
         id="path3642"
         d="M 10,8 10,38 40,38 40,8 10,8 z"
         style="fill:#f0f0f0;fill-opacity:0;stroke:none"
         inkscape:connector-curvature="0" />
    </g>
    <g
       id="bottom"
       transform="translate(14,-13)"
       inkscape:export-filename="/home/diau/svn/playground-plasma/desktoptheme/air/widgets/image2579.png"
       inkscape:export-xdpi="90"
       inkscape:export-ydpi="90">
      <path
         style="opacity:0;fill:#000000;fill-opacity:1;fill-rule:nonzero;stroke:none"
         d="m 3,60 0,7 30,0 0,-7 z"
         id="path2691"
         sodipodi:nodetypes="ccccc"
         inkscape:connector-curvature="0" />
      <path
         id="path5362"
         d="m 3,66 0,1 c 10,0 20,0 30,0 l 0,-1 -30,0 z"
         style="fill:#ffffff;fill-opacity:1;fill-rule:nonzero;stroke:none"
         sodipodi:nodetypes="ccccc"
         inkscape:connector-curvature="0" />
      <path
         style="fill:#9f9f9f;fill-opacity:1;fill-rule:nonzero;stroke:none"
         d="m 3,67 0,1 30,0 0,-1 z"
         id="path3498"
         sodipodi:nodetypes="ccccc"
         inkscape:connector-curvature="0" />
    </g>
    <g
       id="left"
       inkscape:export-filename="/home/diau/svn/playground-plasma/desktoptheme/air/widgets/image2579.png"
       inkscape:export-xdpi="90"
       inkscape:export-ydpi="90"
       transform="translate(7,9)">
      <path
         id="path10432"
         d="M 10,8 10,38 3,38 3,8 z"
         style="opacity:0;fill:#000000;fill-opacity:1;fill-rule:nonzero;stroke:none"
         inkscape:connector-curvature="0"
         sodipodi:nodetypes="ccccc" />
      <path
         style="fill:#ffffff;fill-opacity:1;fill-rule:nonzero;stroke:none"
         d="M 4,8 4,38 3,38 3,8 z"
         id="path10434"
         inkscape:connector-curvature="0"
         sodipodi:nodetypes="ccccc" />
      <path
         id="path3449"
         d="M 3,8 3,38 2,38 2,8 z"
         style="fill:#9f9f9f;fill-opacity:1;fill-rule:nonzero;stroke:none"
         inkscape:connector-curvature="0"
         sodipodi:nodetypes="ccccc" />
    </g>
    <g
       id="right"
       inkscape:export-filename="/home/diau/svn/playground-plasma/desktoptheme/air/widgets/image2579.png"
       inkscape:export-xdpi="90"
       inkscape:export-ydpi="90"
       transform="translate(7,9)">
      <path
         inkscape:connector-curvature="0"
         style="opacity:0;fill:#000000;fill-opacity:1;fill-rule:nonzero;stroke:none"
         d="m 40,8 0,30 7,0 0,-30 z"
         id="path2679"
         sodipodi:nodetypes="ccccc" />
      <path
         inkscape:connector-curvature="0"
         id="path5344"
         d="m 46,8 0,30 1,0 0,-30 z"
         style="fill:#ffffff;fill-opacity:1;fill-rule:nonzero;stroke:none"
         sodipodi:nodetypes="ccccc" />
      <path
         inkscape:connector-curvature="0"
         style="fill:#9f9f9f;fill-opacity:1;fill-rule:nonzero;stroke:none"
         d="m 47,8 0,30 1,0 0,-30 z"
         id="path3473"
         sodipodi:nodetypes="ccccc" />
    </g>
    <rect
       y="30"
       x="1"
       height="4"
       width="6"
       id="hint-left-margin"
       style="opacity:0.875;fill:#008000;fill-opacity:1;stroke:none;stroke-width:0;stroke-miterlimit:4;stroke-dasharray:none;stroke-opacity:1" />
    <rect
       style="opacity:0.875;fill:#008000;fill-opacity:1;stroke:none;stroke-width:0;stroke-miterlimit:4;stroke-dasharray:none;stroke-opacity:1"
       id="hint-top-margin"
       width="4"
       height="6"
       x="31"
       y="3" />
    <rect
       y="57"
       x="31"
       height="6"
       width="4"
       id="hint-bottom-margin"
       style="opacity:0.875;fill:#008000;fill-opacity:1;stroke:none;stroke-width:0;stroke-miterlimit:4;stroke-dasharray:none;stroke-opacity:1" />
    <rect
       style="opacity:0.875;fill:#008000;fill-opacity:1;stroke:none;stroke-width:0;stroke-miterlimit:4;stroke-dasharray:none;stroke-opacity:1"
       id="hint-right-margin"
       width="6"
       height="4"
       x="57.838837"
       y="30" />
    <g
       transform="matrix(-1,0,0,1,57,9)"
       id="topright">
      <g
         transform="translate(1,1)"
         id="g3455">
        <path
           style="fill:#ffffff;fill-opacity:1;fill-rule:nonzero;stroke:none"
           d="M 6,0 6,1 4,1 4,2 3,2 3,4 2,4 2,7 3,7 3,4 4,4 4,2 6,2 6,1 9,1 9,0 6,0 z"
           id="path3459"
           sodipodi:nodetypes="ccccccccccccccccc"
           inkscape:connector-curvature="0" />
        <path
           sodipodi:nodetypes="ccccccccccccccccccccc"
           id="path3465"
           d="M 6,-1 6,0 4,0 4,1 3,1 3,2 2,2 2,4 1,4 1,7 2,7 2,4 3,4 3,2 4,2 4,1 6,1 6,0 9,0 9,-1 6,-1 z"
           style="fill:#9f9f9f;fill-opacity:1;fill-rule:nonzero;stroke:none"
           inkscape:connector-curvature="0" />
      </g>
    </g>
    <g
       id="bottomright"
       transform="matrix(0,-1,-1,0,55,57)">
      <g
         id="g3806"
         transform="translate(1,1)">
        <path
           sodipodi:nodetypes="ccccccccccccccccc"
           id="path3808"
           d="M 6,0 6,1 4,1 4,2 3,2 3,4 2,4 2,7 3,7 3,4 4,4 4,2 6,2 6,1 9,1 9,0 6,0 z"
           style="fill:#ffffff;fill-opacity:1;fill-rule:nonzero;stroke:none"
           inkscape:connector-curvature="0" />
        <path
           style="fill:#9f9f9f;fill-opacity:1;fill-rule:nonzero;stroke:none"
           d="M 6,-1 6,0 4,0 4,1 3,1 3,2 2,2 2,4 1,4 1,7 2,7 2,4 3,4 3,2 4,2 4,1 6,1 6,0 9,0 9,-1 6,-1 z"
           id="path3810"
           sodipodi:nodetypes="ccccccccccccccccccccc"
           inkscape:connector-curvature="0" />
      </g>
    </g>
    <g
       id="bottomleft"
       transform="matrix(0,-1,0.9998696,0,9.99987,56)">
      <path
         sodipodi:nodetypes="ccccccccccccccccc"
         id="path3814"
         d="M 6,0 6,1 4,1 4,2 3,2 3,4 2,4 2,7 3,7 3,4 4,4 4,2 6,2 6,1 9,1 9,0 6,0 z"
         style="fill:#ffffff;fill-opacity:1;fill-rule:nonzero;stroke:none"
         inkscape:connector-curvature="0" />
      <path
         style="fill:#9f9f9f;fill-opacity:1;fill-rule:nonzero;stroke:none"
         d="M 6,-1 6,0 4,0 4,1 3,1 3,2 2,2 2,4 1,4 1,7 2,7 2,4 3,4 3,2 4,2 4,1 5.999,1 6,0 9,0 9,-1 6,-1 z"
         id="path3816"
         sodipodi:nodetypes="ccccccccccccccccccccc"
         inkscape:connector-curvature="0" />
    </g>
    <path
       sodipodi:nodetypes="cccccc"
       style="fill:#000000;fill-opacity:1;fill-rule:nonzero;stroke:none"
       d="m -80,66 0,8 30,0 0,-8 0,0 z"
       id="mask-top"
       inkscape:connector-curvature="0" />
    <path
       sodipodi:nodetypes="ccccccccccccc"
       style="fill:#000000;fill-opacity:1;fill-rule:nonzero;stroke:none"
       d="m -83,66 0,1 -2,0 0,1 -1,0 0,1 -1,0 0,2 -1,0 0,3 8,0 0,-8 z"
       id="mask-topleft"
       inkscape:connector-curvature="0" />
    <path
       inkscape:connector-curvature="0"
       id="mask-center"
       d="m -80,74 0,30 30,0 0,-30 -30,0 z"
       style="fill:#000000;fill-opacity:1;stroke:none"
       sodipodi:nodetypes="ccccc" />
    <path
       style="fill:#000000;fill-opacity:1;fill-rule:nonzero;stroke:none"
       d="m -80,104 0,8 0,0 30,0 0,-8 z"
       id="mask-bottom"
       sodipodi:nodetypes="cccccc"
       inkscape:connector-curvature="0" />
    <path
       id="mask-left"
       d="m -80,74 0,30 -8,0 0,0 0,-30 8,0 z"
       style="fill:#000000;fill-opacity:1;fill-rule:nonzero;stroke:none"
       sodipodi:nodetypes="ccccccc"
       inkscape:connector-curvature="0" />
    <path
       style="fill:#000000;fill-opacity:1;fill-rule:nonzero;stroke:none"
       d="m -50,74 0,30 8,0 0,-30 z"
       id="mask-right"
       inkscape:connector-curvature="0"
       sodipodi:nodetypes="ccccc" />
    <path
       id="mask-topright"
       d="m -47,66 0,1 2,0 0,1 1,0 0,1 1,0 0,2 1,0 0,3 -8,0 0,-8 z"
       style="fill:#000000;fill-opacity:1;fill-rule:nonzero;stroke:none"
       sodipodi:nodetypes="ccccccccccccc"
       inkscape:connector-curvature="0" />
    <path
       id="mask-bottomleft"
       d="m -83,112 0,-1 -2,0 0,-1 -1,0 0,-1 -1,0 0,-2 -1,0 0,-3 8,0 0,8 z"
       style="fill:#000000;fill-opacity:1;fill-rule:nonzero;stroke:none"
       sodipodi:nodetypes="ccccccccccccc"
       inkscape:connector-curvature="0" />
    <path
       sodipodi:nodetypes="ccccccccccccc"
       style="fill:#000000;fill-opacity:1;fill-rule:nonzero;stroke:none"
       d="m -47,112 0,-1 2,0 0,-1 1,0 0,-1 1,0 0,-2 1,0 0,-3 -8,0 0,8 z"
       id="mask-bottomright"
       inkscape:connector-curvature="0" />
  </g>
</svg>
