<?xml version="1.0" encoding="UTF-8" standalone="no"?>
<!-- Created with Inkscape (http://www.inkscape.org/) -->

<svg
   xmlns:dc="http://purl.org/dc/elements/1.1/"
   xmlns:cc="http://creativecommons.org/ns#"
   xmlns:rdf="http://www.w3.org/1999/02/22-rdf-syntax-ns#"
   xmlns:svg="http://www.w3.org/2000/svg"
   xmlns="http://www.w3.org/2000/svg"
   xmlns:xlink="http://www.w3.org/1999/xlink"
   xmlns:sodipodi="http://sodipodi.sourceforge.net/DTD/sodipodi-0.dtd"
   xmlns:inkscape="http://www.inkscape.org/namespaces/inkscape"
   width="100"
   height="80"
   id="svg7229"
   sodipodi:version="0.32"
   inkscape:version="0.47 r22583"
   version="1.0"
   sodipodi:docname="action-overlays.svgz"
   inkscape:output_extension="org.inkscape.output.svgz.inkscape">
  <defs
     id="defs7231">
    <linearGradient
       id="linearGradient3241">
      <stop
         id="stop3243"
         offset="0"
         style="stop-color:#000000;stop-opacity:1;" />
      <stop
         style="stop-color:#000000;stop-opacity:0.61864406;"
         offset="0.765625"
         id="stop3247" />
      <stop
         id="stop3263"
         offset="0.84985352"
         style="stop-color:#000000;stop-opacity:0.27966103;" />
      <stop
         style="stop-color:#000000;stop-opacity:0.08474576;"
         offset="0.92258072"
         id="stop3265" />
      <stop
         id="stop3245"
         offset="1"
         style="stop-color:#000000;stop-opacity:0;" />
    </linearGradient>
    <linearGradient
       id="linearGradient4158">
      <stop
         id="stop4160"
         offset="0"
         style="stop-color:#ffffff;stop-opacity:1;" />
      <stop
         id="stop4162"
         offset="1"
         style="stop-color:#2a2a2a;stop-opacity:1;" />
    </linearGradient>
    <radialGradient
       inkscape:collect="always"
       xlink:href="#linearGradient3241"
       id="radialGradient3274"
       gradientUnits="userSpaceOnUse"
       gradientTransform="matrix(1,0,0,1.1106665,2.4194079e-7,-7.7676053)"
       cx="67.159492"
       cy="70.287331"
       fx="67.159492"
       fy="70.287331"
       r="1.8405055" />
    <linearGradient
       inkscape:collect="always"
       xlink:href="#linearGradient4158"
       id="linearGradient3276"
       gradientUnits="userSpaceOnUse"
       x1="67.159492"
       y1="60.747875"
       x2="67.159492"
       y2="71.502914" />
    <radialGradient
       inkscape:collect="always"
       xlink:href="#linearGradient3241"
       id="radialGradient3290"
       gradientUnits="userSpaceOnUse"
       gradientTransform="matrix(1,0,0,1.1106665,2.4194079e-7,-7.7676053)"
       cx="67.159492"
       cy="70.287331"
       fx="67.159492"
       fy="70.287331"
       r="1.8405055" />
    <linearGradient
       inkscape:collect="always"
       xlink:href="#linearGradient4158"
       id="linearGradient3292"
       gradientUnits="userSpaceOnUse"
       x1="67.159492"
       y1="63.933434"
       x2="67.159492"
       y2="73.942444" />
    <linearGradient
       inkscape:collect="always"
       xlink:href="#linearGradient4158"
       id="linearGradient3321"
       gradientUnits="userSpaceOnUse"
       x1="66.896561"
       y1="85.827332"
       x2="66.896561"
       y2="68.625526" />
    <radialGradient
       inkscape:collect="always"
       xlink:href="#linearGradient3241"
       id="radialGradient3323"
       gradientUnits="userSpaceOnUse"
       gradientTransform="matrix(0.9090909,-9.8552402e-7,7.8190095e-7,1.0205548,6.1053557,-1.4265169)"
       cx="67.159492"
       cy="70.466034"
       fx="67.159492"
       fy="70.466034"
       r="1.8405055" />
    <radialGradient
       inkscape:collect="always"
       xlink:href="#linearGradient3241"
       id="radialGradient3361"
       gradientUnits="userSpaceOnUse"
       gradientTransform="matrix(1,0,0,1.1106665,2.4194079e-7,-7.7676053)"
       cx="67.159492"
       cy="70.287331"
       fx="67.159492"
       fy="70.287331"
       r="1.8405055" />
    <linearGradient
       inkscape:collect="always"
       xlink:href="#linearGradient4158"
       id="linearGradient3363"
       gradientUnits="userSpaceOnUse"
       x1="67.159492"
       y1="60.747875"
       x2="67.159492"
       y2="71.502914" />
    <radialGradient
       inkscape:collect="always"
       xlink:href="#linearGradient3241"
       id="radialGradient3365"
       gradientUnits="userSpaceOnUse"
       gradientTransform="matrix(1,0,0,1.1106665,2.4194079e-7,-7.7676053)"
       cx="67.159492"
       cy="70.287331"
       fx="67.159492"
       fy="70.287331"
       r="1.8405055" />
    <linearGradient
       inkscape:collect="always"
       xlink:href="#linearGradient4158"
       id="linearGradient3367"
       gradientUnits="userSpaceOnUse"
       x1="67.159492"
       y1="63.933434"
       x2="67.159492"
       y2="73.942444" />
    <radialGradient
       inkscape:collect="always"
       xlink:href="#linearGradient3241"
       id="radialGradient3369"
       gradientUnits="userSpaceOnUse"
       gradientTransform="matrix(0.9090909,-9.8552402e-7,7.8190095e-7,1.0205548,6.1053557,-1.4265169)"
       cx="67.159492"
       cy="70.466034"
       fx="67.159492"
       fy="70.466034"
       r="1.8405055" />
    <linearGradient
       inkscape:collect="always"
       xlink:href="#linearGradient4158"
       id="linearGradient3371"
       gradientUnits="userSpaceOnUse"
       x1="66.896561"
       y1="85.827332"
       x2="66.896561"
       y2="68.625526" />
    <linearGradient
       id="linearGradient3241-6">
      <stop
         id="stop3243-5"
         offset="0"
         style="stop-color:#000000;stop-opacity:1;" />
      <stop
         style="stop-color:#000000;stop-opacity:0.61864406;"
         offset="0.765625"
         id="stop3247-6" />
      <stop
         id="stop3263-3"
         offset="0.84985352"
         style="stop-color:#000000;stop-opacity:0.27966103;" />
      <stop
         style="stop-color:#000000;stop-opacity:0.08474576;"
         offset="0.92258072"
         id="stop3265-9" />
      <stop
         id="stop3245-4"
         offset="1"
         style="stop-color:#000000;stop-opacity:0;" />
    </linearGradient>
    <linearGradient
       id="linearGradient4158-1">
      <stop
         id="stop4160-2"
         offset="0"
         style="stop-color:#ffffff;stop-opacity:1;" />
      <stop
         id="stop4162-9"
         offset="1"
         style="stop-color:#2a2a2a;stop-opacity:1;" />
    </linearGradient>
    <linearGradient
       id="linearGradient3241-7">
      <stop
         id="stop3243-1"
         offset="0"
         style="stop-color:#000000;stop-opacity:1;" />
      <stop
         style="stop-color:#000000;stop-opacity:0.61864406;"
         offset="0.765625"
         id="stop3247-3" />
      <stop
         id="stop3263-8"
         offset="0.84985352"
         style="stop-color:#000000;stop-opacity:0.27966103;" />
      <stop
         style="stop-color:#000000;stop-opacity:0.08474576;"
         offset="0.92258072"
         id="stop3265-0" />
      <stop
         id="stop3245-9"
         offset="1"
         style="stop-color:#000000;stop-opacity:0;" />
    </linearGradient>
    <linearGradient
       id="linearGradient4158-9">
      <stop
         id="stop4160-9"
         offset="0"
         style="stop-color:#ffffff;stop-opacity:1;" />
      <stop
         id="stop4162-3"
         offset="1"
         style="stop-color:#2a2a2a;stop-opacity:1;" />
    </linearGradient>
    <linearGradient
       id="linearGradient3241-5">
      <stop
         id="stop3243-17"
         offset="0"
         style="stop-color:#000000;stop-opacity:1;" />
      <stop
         style="stop-color:#000000;stop-opacity:0.61864406;"
         offset="0.765625"
         id="stop3247-4" />
      <stop
         id="stop3263-1"
         offset="0.84985352"
         style="stop-color:#000000;stop-opacity:0.27966103;" />
      <stop
         style="stop-color:#000000;stop-opacity:0.08474576;"
         offset="0.92258072"
         id="stop3265-7" />
      <stop
         id="stop3245-1"
         offset="1"
         style="stop-color:#000000;stop-opacity:0;" />
    </linearGradient>
    <linearGradient
       id="linearGradient4158-17">
      <stop
         id="stop4160-0"
         offset="0"
         style="stop-color:#ffffff;stop-opacity:1;" />
      <stop
         id="stop4162-4"
         offset="1"
         style="stop-color:#2a2a2a;stop-opacity:1;" />
    </linearGradient>
    <radialGradient
       inkscape:collect="always"
       xlink:href="#linearGradient3241-6"
       id="radialGradient2994"
       gradientUnits="userSpaceOnUse"
       gradientTransform="matrix(1,0,0,1.1106665,2.4194081e-7,-7.7676053)"
       cx="67.159492"
       cy="70.287331"
       fx="67.159492"
       fy="70.287331"
       r="1.8405055" />
    <linearGradient
       inkscape:collect="always"
       xlink:href="#linearGradient4158-1"
       id="linearGradient2996"
       gradientUnits="userSpaceOnUse"
       x1="67.159492"
       y1="60.747875"
       x2="67.159492"
       y2="71.502914" />
    <radialGradient
       inkscape:collect="always"
       xlink:href="#linearGradient3241-7"
       id="radialGradient3001"
       gradientUnits="userSpaceOnUse"
       gradientTransform="matrix(1,0,0,1.1106665,2.4194081e-7,-7.7676053)"
       cx="67.159492"
       cy="70.287331"
       fx="67.159492"
       fy="70.287331"
       r="1.8405055" />
    <linearGradient
       inkscape:collect="always"
       xlink:href="#linearGradient4158-9"
       id="linearGradient3010"
       gradientUnits="userSpaceOnUse"
       x1="67.159492"
       y1="63.933434"
       x2="67.159492"
       y2="73.942444" />
    <radialGradient
       inkscape:collect="always"
       xlink:href="#linearGradient3241-5"
       id="radialGradient3015"
       gradientUnits="userSpaceOnUse"
       gradientTransform="matrix(0.9090909,-9.8552402e-7,7.8190095e-7,1.0205548,6.1053557,-1.4265169)"
       cx="67.159492"
       cy="70.466034"
       fx="67.159492"
       fy="70.466034"
       r="1.8405055" />
    <linearGradient
       inkscape:collect="always"
       xlink:href="#linearGradient4158-17"
       id="linearGradient3017"
       gradientUnits="userSpaceOnUse"
       x1="66.896561"
       y1="85.827332"
       x2="66.896561"
       y2="68.625526" />
  </defs>
  <sodipodi:namedview
     id="base"
     pagecolor="#aaaaaa"
     bordercolor="#666666"
     borderopacity="1.0"
     inkscape:pageopacity="1"
     inkscape:pageshadow="2"
     inkscape:zoom="5.6568543"
     inkscape:cx="45.940031"
     inkscape:cy="30.76294"
     inkscape:document-units="px"
     inkscape:current-layer="layer1"
     showgrid="true"
     inkscape:window-width="1126"
     inkscape:window-height="780"
     inkscape:window-x="482"
     inkscape:window-y="208"
     showguides="true"
     inkscape:guide-bbox="true"
     gridtolerance="6"
     inkscape:window-maximized="0">
    <inkscape:grid
       type="xygrid"
       id="grid7245"
       visible="true"
       enabled="true" />
  </sodipodi:namedview>
  <metadata
     id="metadata7234">
    <rdf:RDF>
      <cc:Work
         rdf:about="">
        <dc:format>image/svg+xml</dc:format>
        <dc:type
           rdf:resource="http://purl.org/dc/dcmitype/StillImage" />
      </cc:Work>
    </rdf:RDF>
  </metadata>
  <g
     inkscape:label="Camada 1"
     inkscape:groupmode="layer"
     id="layer1"
     transform="translate(-214.53572,-326.50504)">
    <g
       id="add-normal"
       transform="translate(-62,-60)">
      <path
         transform="matrix(5.976619,0,0,5.0243898,-110.85098,47.846513)"
         d="m 68.999998,70.189323 c 0,1.209129 -0.824022,2.189321 -1.840506,2.189321 -1.016483,0 -1.840505,-0.980192 -1.840505,-2.189321 0,-1.209128 0.824022,-2.18932 1.840505,-2.18932 1.016484,0 1.840506,0.980192 1.840506,2.18932 z"
         sodipodi:ry="2.1893206"
         sodipodi:rx="1.8405055"
         sodipodi:cy="70.189323"
         sodipodi:cx="67.159492"
         id="path3231"
         style="opacity:0.7;fill:url(#radialGradient3274);fill-opacity:1;stroke:none;stroke-width:20;stroke-linejoin:round;stroke-miterlimit:4;stroke-dasharray:none;stroke-dashoffset:0;stroke-opacity:1"
         sodipodi:type="arc" />
      <path
         sodipodi:type="arc"
         style="opacity:1;fill:#ffffff;fill-opacity:1;stroke:none;stroke-width:20;stroke-linejoin:round;stroke-miterlimit:4;stroke-dasharray:none;stroke-dashoffset:0;stroke-opacity:1"
         id="path3249"
         sodipodi:cx="67.159492"
         sodipodi:cy="70.189323"
         sodipodi:rx="1.8405055"
         sodipodi:ry="2.1893206"
         d="m 68.999998,70.189323 c 0,1.209129 -0.824022,2.189321 -1.840506,2.189321 -1.016483,0 -1.840505,-0.980192 -1.840505,-2.189321 0,-1.209128 0.824022,-2.18932 1.840505,-2.18932 1.016484,0 1.840506,0.980192 1.840506,2.18932 z"
         transform="matrix(4.346632,0,0,3.6541017,-1.3818786,144.02612)" />
      <path
         transform="matrix(3.8402282,0,0,3.1820406,32.627945,177.15977)"
         d="m 68.8521,70.189323 c 0,1.12816 -0.757806,2.042715 -1.692608,2.042715 -0.934801,0 -1.692607,-0.914555 -1.692607,-2.042715 0,-1.12816 0.757806,-2.042714 1.692607,-2.042714 0.934802,0 1.692608,0.914554 1.692608,2.042714 z"
         sodipodi:ry="2.0427144"
         sodipodi:rx="1.6926078"
         sodipodi:cy="70.189323"
         sodipodi:cx="67.159492"
         id="path3251"
         style="opacity:1;fill:url(#linearGradient3276);fill-opacity:1;stroke:none;stroke-width:20;stroke-linejoin:round;stroke-miterlimit:4;stroke-dasharray:none;stroke-dashoffset:0;stroke-opacity:1"
         sodipodi:type="arc" />
      <rect
         y="399.50504"
         x="286.53571"
         height="1.9999954"
         width="8"
         id="rect2459"
         style="opacity:1;fill:#ffffff;fill-opacity:1;stroke:none;stroke-width:20;stroke-linejoin:round;stroke-miterlimit:4;stroke-dasharray:none;stroke-dashoffset:0;stroke-opacity:1" />
      <rect
         transform="matrix(0,1,-1,0,0,0)"
         style="opacity:1;fill:#ffffff;fill-opacity:1;stroke:none;stroke-width:20;stroke-linejoin:round;stroke-miterlimit:4;stroke-dasharray:none;stroke-dashoffset:0;stroke-opacity:1"
         id="rect3261"
         width="8.0000048"
         height="1.9999954"
         x="396.50504"
         y="-291.53571" />
    </g>
    <g
       transform="translate(-38.000001,-59.000001)"
       id="add-hover">
      <path
         sodipodi:type="arc"
         style="opacity:0.7;fill:url(#radialGradient3290);fill-opacity:1;stroke:none;stroke-width:20;stroke-linejoin:round;stroke-miterlimit:4;stroke-dasharray:none;stroke-dashoffset:0;stroke-opacity:1"
         id="path3280"
         sodipodi:cx="67.159492"
         sodipodi:cy="70.189323"
         sodipodi:rx="1.8405055"
         sodipodi:ry="2.1893206"
         d="m 68.999998,70.189323 c 0,1.209129 -0.824022,2.189321 -1.840506,2.189321 -1.016483,0 -1.840505,-0.980192 -1.840505,-2.189321 0,-1.209128 0.824022,-2.18932 1.840505,-2.18932 1.016484,0 1.840506,0.980192 1.840506,2.18932 z"
         transform="matrix(5.976619,0,0,5.0243898,-110.85098,47.846513)" />
      <path
         transform="matrix(4.346632,0,0,3.6541017,-1.3818786,144.02612)"
         d="m 68.999998,70.189323 c 0,1.209129 -0.824022,2.189321 -1.840506,2.189321 -1.016483,0 -1.840505,-0.980192 -1.840505,-2.189321 0,-1.209128 0.824022,-2.18932 1.840505,-2.18932 1.016484,0 1.840506,0.980192 1.840506,2.18932 z"
         sodipodi:ry="2.1893206"
         sodipodi:rx="1.8405055"
         sodipodi:cy="70.189323"
         sodipodi:cx="67.159492"
         id="path3282"
         style="opacity:1;fill:#ffffff;fill-opacity:1;stroke:none;stroke-width:20;stroke-linejoin:round;stroke-miterlimit:4;stroke-dasharray:none;stroke-dashoffset:0;stroke-opacity:1"
         sodipodi:type="arc" />
      <path
         sodipodi:type="arc"
         style="opacity:1;fill:url(#linearGradient3292);fill-opacity:1;stroke:none;stroke-width:20;stroke-linejoin:round;stroke-miterlimit:4;stroke-dasharray:none;stroke-dashoffset:0;stroke-opacity:1"
         id="path3284"
         sodipodi:cx="67.159492"
         sodipodi:cy="70.189323"
         sodipodi:rx="1.5775762"
         sodipodi:ry="1.8765606"
         d="m 68.737069,70.189323 c 0,1.036396 -0.706305,1.876561 -1.577577,1.876561 -0.871271,0 -1.577576,-0.840165 -1.577576,-1.876561 0,-1.036395 0.706305,-1.87656 1.577576,-1.87656 0.871272,0 1.577577,0.840165 1.577577,1.87656 z"
         transform="matrix(4.1202448,0,0,3.4637837,13.82217,157.3844)" />
      <rect
         style="opacity:1;fill:#ffffff;fill-opacity:1;stroke:none;stroke-width:20;stroke-linejoin:round;stroke-miterlimit:4;stroke-dasharray:none;stroke-dashoffset:0;stroke-opacity:1"
         id="rect3286"
         width="8"
         height="1.9999954"
         x="286.53571"
         y="399.50504" />
      <rect
         y="-291.53571"
         x="396.50504"
         height="1.9999954"
         width="8.0000048"
         id="rect3288"
         style="opacity:1;fill:#ffffff;fill-opacity:1;stroke:none;stroke-width:20;stroke-linejoin:round;stroke-miterlimit:4;stroke-dasharray:none;stroke-dashoffset:0;stroke-opacity:1"
         transform="matrix(0,1,-1,0,0,0)" />
    </g>
    <g
       id="add-pressed">
      <path
         sodipodi:type="arc"
         style="fill:url(#radialGradient3323);fill-opacity:1;stroke:none;stroke-width:20;stroke-linejoin:round;stroke-miterlimit:4;stroke-dasharray:none;stroke-dashoffset:0;stroke-opacity:1;opacity:0.7"
         id="path3296"
         sodipodi:cx="67.159492"
         sodipodi:cy="70.189323"
         sodipodi:rx="1.8405055"
         sodipodi:ry="2.1893206"
         d="m 68.999998,70.189323 c 0,1.209129 -0.824022,2.189321 -1.840506,2.189321 -1.016483,0 -1.840505,-0.980192 -1.840505,-2.189321 0,-1.209128 0.824022,-2.18932 1.840505,-2.18932 1.016484,0 1.840506,0.980192 1.840506,2.18932 z"
         transform="matrix(5.976619,0,0,5.0243898,-120.85098,-12.153488)" />
      <g
         transform="translate(8.4644975e-7,0.999995)"
         id="g2449">
        <path
           sodipodi:type="arc"
           style="fill:#ffffff;fill-opacity:1;stroke:none;stroke-width:20;stroke-linejoin:round;stroke-miterlimit:4;stroke-dasharray:none;stroke-dashoffset:0;stroke-opacity:1"
           id="path3298"
           sodipodi:cx="67.159492"
           sodipodi:cy="70.189323"
           sodipodi:rx="1.8405055"
           sodipodi:ry="2.1893206"
           d="m 68.999998,70.189323 c 0,1.209129 -0.824022,2.189321 -1.840506,2.189321 -1.016483,0 -1.840505,-0.980192 -1.840505,-2.189321 0,-1.209128 0.824022,-2.18932 1.840505,-2.18932 1.016484,0 1.840506,0.980192 1.840506,2.18932 z"
           transform="matrix(4.346632,0,0,3.6541017,-11.38188,84.026119)" />
        <path
           transform="matrix(4.1202442,0,0,3.4637862,3.8222101,97.38424)"
           d="m 68.737069,70.189323 c 0,1.036395 -0.706305,1.87656 -1.577577,1.87656 -0.871271,0 -1.577576,-0.840165 -1.577576,-1.87656 0,-1.036395 0.706305,-1.876559 1.577576,-1.876559 0.871272,0 1.577577,0.840164 1.577577,1.876559 z"
           sodipodi:ry="1.8765593"
           sodipodi:rx="1.5775764"
           sodipodi:cy="70.189323"
           sodipodi:cx="67.159492"
           id="path3300"
           style="fill:url(#linearGradient3321);fill-opacity:1;stroke:none;stroke-width:20;stroke-linejoin:round;stroke-miterlimit:4;stroke-dasharray:none;stroke-dashoffset:0;stroke-opacity:1"
           sodipodi:type="arc" />
        <rect
           y="339.50504"
           x="276.53571"
           height="1.9999954"
           width="8"
           id="rect3302"
           style="fill:#ffffff;fill-opacity:1;stroke:none;stroke-width:20;stroke-linejoin:round;stroke-miterlimit:4;stroke-dasharray:none;stroke-dashoffset:0;stroke-opacity:1" />
        <rect
           transform="matrix(0,1,-1,0,0,0)"
           style="fill:#ffffff;fill-opacity:1;stroke:none;stroke-width:20;stroke-linejoin:round;stroke-miterlimit:4;stroke-dasharray:none;stroke-dashoffset:0;stroke-opacity:1"
           id="rect3304"
           width="8.0000048"
           height="1.9999954"
           x="336.50504"
           y="-281.53571" />
      </g>
    </g>
    <g
       transform="translate(-62.000001,-33.999991)"
       id="remove-normal">
      <path
         sodipodi:type="arc"
         style="opacity:0.7;fill:url(#radialGradient3361);fill-opacity:1;stroke:none;stroke-width:20;stroke-linejoin:round;stroke-miterlimit:4;stroke-dasharray:none;stroke-dashoffset:0;stroke-opacity:1"
         id="path3327"
         sodipodi:cx="67.159492"
         sodipodi:cy="70.189323"
         sodipodi:rx="1.8405055"
         sodipodi:ry="2.1893206"
         d="m 68.999998,70.189323 c 0,1.209129 -0.824022,2.189321 -1.840506,2.189321 -1.016483,0 -1.840505,-0.980192 -1.840505,-2.189321 0,-1.209128 0.824022,-2.18932 1.840505,-2.18932 1.016484,0 1.840506,0.980192 1.840506,2.18932 z"
         transform="matrix(5.976619,0,0,5.0243898,-110.85098,47.846513)" />
      <path
         transform="matrix(4.346632,0,0,3.6541017,-1.3818786,144.02612)"
         d="m 68.999998,70.189323 c 0,1.209129 -0.824022,2.189321 -1.840506,2.189321 -1.016483,0 -1.840505,-0.980192 -1.840505,-2.189321 0,-1.209128 0.824022,-2.18932 1.840505,-2.18932 1.016484,0 1.840506,0.980192 1.840506,2.18932 z"
         sodipodi:ry="2.1893206"
         sodipodi:rx="1.8405055"
         sodipodi:cy="70.189323"
         sodipodi:cx="67.159492"
         id="path3329"
         style="opacity:1;fill:#ffffff;fill-opacity:1;stroke:none;stroke-width:20;stroke-linejoin:round;stroke-miterlimit:4;stroke-dasharray:none;stroke-dashoffset:0;stroke-opacity:1"
         sodipodi:type="arc" />
      <path
         sodipodi:type="arc"
         style="opacity:1;fill:url(#linearGradient3363);fill-opacity:1;stroke:none;stroke-width:20;stroke-linejoin:round;stroke-miterlimit:4;stroke-dasharray:none;stroke-dashoffset:0;stroke-opacity:1"
         id="path3331"
         sodipodi:cx="67.159492"
         sodipodi:cy="70.189323"
         sodipodi:rx="1.5775762"
         sodipodi:ry="1.8765637"
         d="m 68.737069,70.189323 c 0,1.036398 -0.706305,1.876564 -1.577577,1.876564 -0.871271,0 -1.577576,-0.840166 -1.577576,-1.876564 0,-1.036397 0.706305,-1.876563 1.577576,-1.876563 0.871272,0 1.577577,0.840166 1.577577,1.876563 z"
         transform="matrix(4.1202448,0,0,3.463778,13.82217,157.3848)" />
      <rect
         style="opacity:1;fill:#ffffff;fill-opacity:1;stroke:none;stroke-width:20;stroke-linejoin:round;stroke-miterlimit:4;stroke-dasharray:none;stroke-dashoffset:0;stroke-opacity:1"
         id="rect3333"
         width="8"
         height="1.9999954"
         x="286.53571"
         y="399.50504" />
    </g>
    <g
       id="remove-hover"
       transform="translate(-38.000001,-32.999991)">
      <path
         transform="matrix(5.976619,0,0,5.0243898,-110.85098,47.846513)"
         d="m 68.999998,70.189323 c 0,1.209129 -0.824022,2.189321 -1.840506,2.189321 -1.016483,0 -1.840505,-0.980192 -1.840505,-2.189321 0,-1.209128 0.824022,-2.18932 1.840505,-2.18932 1.016484,0 1.840506,0.980192 1.840506,2.18932 z"
         sodipodi:ry="2.1893206"
         sodipodi:rx="1.8405055"
         sodipodi:cy="70.189323"
         sodipodi:cx="67.159492"
         id="path3339"
         style="opacity:0.7;fill:url(#radialGradient3365);fill-opacity:1;stroke:none;stroke-width:20;stroke-linejoin:round;stroke-miterlimit:4;stroke-dasharray:none;stroke-dashoffset:0;stroke-opacity:1"
         sodipodi:type="arc" />
      <path
         sodipodi:type="arc"
         style="opacity:1;fill:#ffffff;fill-opacity:1;stroke:none;stroke-width:20;stroke-linejoin:round;stroke-miterlimit:4;stroke-dasharray:none;stroke-dashoffset:0;stroke-opacity:1"
         id="path3341"
         sodipodi:cx="67.159492"
         sodipodi:cy="70.189323"
         sodipodi:rx="1.8405055"
         sodipodi:ry="2.1893206"
         d="m 68.999998,70.189323 c 0,1.209129 -0.824022,2.189321 -1.840506,2.189321 -1.016483,0 -1.840505,-0.980192 -1.840505,-2.189321 0,-1.209128 0.824022,-2.18932 1.840505,-2.18932 1.016484,0 1.840506,0.980192 1.840506,2.18932 z"
         transform="matrix(4.346632,0,0,3.6541017,-1.3818786,144.02612)" />
      <path
         transform="matrix(4.1202448,0,0,3.463778,13.82217,157.3848)"
         d="m 68.737069,70.189323 c 0,1.036398 -0.706305,1.876564 -1.577577,1.876564 -0.871271,0 -1.577576,-0.840166 -1.577576,-1.876564 0,-1.036397 0.706305,-1.876563 1.577576,-1.876563 0.871272,0 1.577577,0.840166 1.577577,1.876563 z"
         sodipodi:ry="1.8765637"
         sodipodi:rx="1.5775762"
         sodipodi:cy="70.189323"
         sodipodi:cx="67.159492"
         id="path3343"
         style="opacity:1;fill:url(#linearGradient3367);fill-opacity:1;stroke:none;stroke-width:20;stroke-linejoin:round;stroke-miterlimit:4;stroke-dasharray:none;stroke-dashoffset:0;stroke-opacity:1"
         sodipodi:type="arc" />
      <rect
         y="399.50504"
         x="286.53571"
         height="1.9999954"
         width="8"
         id="rect3345"
         style="opacity:1;fill:#ffffff;fill-opacity:1;stroke:none;stroke-width:20;stroke-linejoin:round;stroke-miterlimit:4;stroke-dasharray:none;stroke-dashoffset:0;stroke-opacity:1" />
    </g>
    <g
       id="remove-pressed">
      <path
         transform="matrix(5.976619,0,0,5.0243898,-120.85098,13.846522)"
         d="m 68.999998,70.189323 c 0,1.209129 -0.824022,2.189321 -1.840506,2.189321 -1.016483,0 -1.840505,-0.980192 -1.840505,-2.189321 0,-1.209128 0.824022,-2.18932 1.840505,-2.18932 1.016484,0 1.840506,0.980192 1.840506,2.18932 z"
         sodipodi:ry="2.1893206"
         sodipodi:rx="1.8405055"
         sodipodi:cy="70.189323"
         sodipodi:cx="67.159492"
         id="path3349"
         style="fill:url(#radialGradient3369);fill-opacity:1;stroke:none;stroke-width:20;stroke-linejoin:round;stroke-miterlimit:4;stroke-dasharray:none;stroke-dashoffset:0;stroke-opacity:1;opacity:0.7"
         sodipodi:type="arc" />
      <g
         id="g2451"
         transform="translate(8.4644975e-7,27.000005)">
        <path
           transform="matrix(4.346632,0,0,3.6541017,-11.38188,84.026119)"
           d="m 68.999998,70.189323 c 0,1.209129 -0.824022,2.189321 -1.840506,2.189321 -1.016483,0 -1.840505,-0.980192 -1.840505,-2.189321 0,-1.209128 0.824022,-2.18932 1.840505,-2.18932 1.016484,0 1.840506,0.980192 1.840506,2.18932 z"
           sodipodi:ry="2.1893206"
           sodipodi:rx="1.8405055"
           sodipodi:cy="70.189323"
           sodipodi:cx="67.159492"
           id="path3353"
           style="fill:#ffffff;fill-opacity:1;stroke:none;stroke-width:20;stroke-linejoin:round;stroke-miterlimit:4;stroke-dasharray:none;stroke-dashoffset:0;stroke-opacity:1"
           sodipodi:type="arc" />
        <path
           sodipodi:type="arc"
           style="fill:url(#linearGradient3371);fill-opacity:1;stroke:none;stroke-width:20;stroke-linejoin:round;stroke-miterlimit:4;stroke-dasharray:none;stroke-dashoffset:0;stroke-opacity:1"
           id="path3355"
           sodipodi:cx="67.159492"
           sodipodi:cy="70.189323"
           sodipodi:rx="1.5775764"
           sodipodi:ry="1.8765624"
           d="m 68.737069,70.189323 c 0,1.036397 -0.706305,1.876563 -1.577577,1.876563 -0.871271,0 -1.577576,-0.840166 -1.577576,-1.876563 0,-1.036396 0.706305,-1.876562 1.577576,-1.876562 0.871272,0 1.577577,0.840166 1.577577,1.876562 z"
           transform="matrix(4.1202442,0,0,3.4637804,3.8222101,97.384631)" />
        <rect
           style="fill:#ffffff;fill-opacity:1;stroke:none;stroke-width:20;stroke-linejoin:round;stroke-miterlimit:4;stroke-dasharray:none;stroke-dashoffset:0;stroke-opacity:1"
           id="rect3357"
           width="8"
           height="1.9999954"
           x="276.53571"
           y="339.50504" />
      </g>
    </g>
    <g
       id="open-normal">
      <g
         inkscape:label="#g2977"
         id="g2942">
        <path
           sodipodi:type="arc"
           style="opacity:0.7;fill:url(#radialGradient2994);fill-opacity:1;stroke:none"
           id="path3231-9"
           sodipodi:cx="67.159492"
           sodipodi:cy="70.189323"
           sodipodi:rx="1.8405055"
           sodipodi:ry="2.1893206"
           d="m 68.999998,70.189323 c 0,1.209129 -0.824022,2.189321 -1.840506,2.189321 -1.016483,0 -1.840505,-0.980192 -1.840505,-2.189321 0,-1.209128 0.824022,-2.18932 1.840505,-2.18932 1.016484,0 1.840506,0.980192 1.840506,2.18932 z"
           transform="matrix(5.976619,0,0,5.0243898,-172.85097,40.846518)" />
        <path
           transform="matrix(4.346632,0,0,3.6541017,-63.381865,137.02612)"
           d="m 68.999998,70.189323 c 0,1.209129 -0.824022,2.189321 -1.840506,2.189321 -1.016483,0 -1.840505,-0.980192 -1.840505,-2.189321 0,-1.209128 0.824022,-2.18932 1.840505,-2.18932 1.016484,0 1.840506,0.980192 1.840506,2.18932 z"
           sodipodi:ry="2.1893206"
           sodipodi:rx="1.8405055"
           sodipodi:cy="70.189323"
           sodipodi:cx="67.159492"
           id="path3249-0"
           style="fill:#ffffff;fill-opacity:1;stroke:none"
           sodipodi:type="arc" />
        <path
           sodipodi:type="arc"
           style="fill:url(#linearGradient2996);fill-opacity:1;stroke:none"
           id="path3251-8"
           sodipodi:cx="67.159492"
           sodipodi:cy="70.189323"
           sodipodi:rx="1.6926078"
           sodipodi:ry="2.0427144"
           d="m 68.8521,70.189323 c 0,1.12816 -0.757806,2.042715 -1.692608,2.042715 -0.934801,0 -1.692607,-0.914555 -1.692607,-2.042715 0,-1.12816 0.757806,-2.042714 1.692607,-2.042714 0.934802,0 1.692608,0.914554 1.692608,2.042714 z"
           transform="matrix(3.8402282,0,0,3.1820406,-29.372041,170.15977)" />
        <path
           style="fill:#ffffff;stroke:none"
           d="m 228.53572,389.50504 -4,4 3,0 0,3 2,0 0,-3 3,0 -4,-4 z"
           id="path2944"
           sodipodi:nodetypes="cccccccc" />
      </g>
    </g>
    <g
       id="open-hover"
       inkscape:label="#g3030">
      <path
         sodipodi:type="arc"
         style="opacity:0.7;fill:url(#radialGradient3001);fill-opacity:1;stroke:none"
         id="path3280-4"
         sodipodi:cx="67.159492"
         sodipodi:cy="70.189323"
         sodipodi:rx="1.8405055"
         sodipodi:ry="2.1893206"
         d="m 68.999998,70.189323 c 0,1.209129 -0.824022,2.189321 -1.840506,2.189321 -1.016483,0 -1.840505,-0.980192 -1.840505,-2.189321 0,-1.209128 0.824022,-2.18932 1.840505,-2.18932 1.016484,0 1.840506,0.980192 1.840506,2.18932 z"
         transform="matrix(5.976619,0,0,5.0243898,-147.85097,40.846518)" />
      <path
         transform="matrix(4.346632,0,0,3.6541017,-38.381865,137.02612)"
         d="m 68.999998,70.189323 c 0,1.209129 -0.824022,2.189321 -1.840506,2.189321 -1.016483,0 -1.840505,-0.980192 -1.840505,-2.189321 0,-1.209128 0.824022,-2.18932 1.840505,-2.18932 1.016484,0 1.840506,0.980192 1.840506,2.18932 z"
         sodipodi:ry="2.1893206"
         sodipodi:rx="1.8405055"
         sodipodi:cy="70.189323"
         sodipodi:cx="67.159492"
         id="path3282-3"
         style="fill:#ffffff;fill-opacity:1;stroke:none"
         sodipodi:type="arc" />
      <path
         sodipodi:type="arc"
         style="fill:url(#linearGradient3010);fill-opacity:1;stroke:none"
         id="path3284-7"
         sodipodi:cx="67.159492"
         sodipodi:cy="70.189323"
         sodipodi:rx="1.5775762"
         sodipodi:ry="1.8765606"
         d="m 68.737069,70.189323 c 0,1.036396 -0.706305,1.876561 -1.577577,1.876561 -0.871271,0 -1.577576,-0.840165 -1.577576,-1.876561 0,-1.036395 0.706305,-1.87656 1.577576,-1.87656 0.871272,0 1.577577,0.840165 1.577577,1.87656 z"
         transform="matrix(4.1202448,0,0,3.4637837,-23.177816,150.3844)" />
      <path
         sodipodi:nodetypes="cccccccc"
         id="path2944-6"
         d="m 253.53572,389.50504 -4,4 3,0 0,3 2,0 0,-3 3,0 -4,-4 z"
         style="fill:#ffffff;stroke:none" />
    </g>
    <g
       id="open-pressed"
       inkscape:label="#g3036">
      <path
         sodipodi:type="arc"
         style="opacity:0.7;fill:url(#radialGradient3015);fill-opacity:1;stroke:none"
         id="path3296-8"
         sodipodi:cx="67.159492"
         sodipodi:cy="70.189323"
         sodipodi:rx="1.8405055"
         sodipodi:ry="2.1893206"
         d="m 68.999998,70.189323 c 0,1.209129 -0.824022,2.189321 -1.840506,2.189321 -1.016483,0 -1.840505,-0.980192 -1.840505,-2.189321 0,-1.209128 0.824022,-2.18932 1.840505,-2.18932 1.016484,0 1.840506,0.980192 1.840506,2.18932 z"
         transform="matrix(5.976619,0,0,5.0243898,-120.85097,39.846526)" />
      <path
         transform="matrix(4.346632,0,0,3.6541017,-11.381866,137.02613)"
         d="m 68.999998,70.189323 c 0,1.209129 -0.824022,2.189321 -1.840506,2.189321 -1.016483,0 -1.840505,-0.980192 -1.840505,-2.189321 0,-1.209128 0.824022,-2.18932 1.840505,-2.18932 1.016484,0 1.840506,0.980192 1.840506,2.18932 z"
         sodipodi:ry="2.1893206"
         sodipodi:rx="1.8405055"
         sodipodi:cy="70.189323"
         sodipodi:cx="67.159492"
         id="path3298-1"
         style="fill:#ffffff;fill-opacity:1;stroke:none"
         sodipodi:type="arc" />
      <path
         sodipodi:type="arc"
         style="fill:url(#linearGradient3017);fill-opacity:1;stroke:none"
         id="path3300-6"
         sodipodi:cx="67.159492"
         sodipodi:cy="70.189323"
         sodipodi:rx="1.5775764"
         sodipodi:ry="1.8765593"
         d="m 68.737069,70.189323 c 0,1.036395 -0.706305,1.87656 -1.577577,1.87656 -0.871271,0 -1.577576,-0.840165 -1.577576,-1.87656 0,-1.036395 0.706305,-1.876559 1.577576,-1.876559 0.871272,0 1.577577,0.840164 1.577577,1.876559 z"
         transform="matrix(4.1202442,0,0,3.4637862,3.8222245,150.38425)" />
      <path
         sodipodi:nodetypes="cccccccc"
         id="path2944-5"
         d="m 280.53572,389.50504 -4,4 3,0 0,3 2,0 0,-3 3,0 -4,-4 z"
         style="fill:#ffffff;stroke:none" />
    </g>
  </g>
</svg>
