<?xml version="1.0" encoding="UTF-8" standalone="no"?>
<!-- Created with Inkscape (http://www.inkscape.org/) -->
<svg
   xmlns:dc="http://purl.org/dc/elements/1.1/"
   xmlns:cc="http://creativecommons.org/ns#"
   xmlns:rdf="http://www.w3.org/1999/02/22-rdf-syntax-ns#"
   xmlns:svg="http://www.w3.org/2000/svg"
   xmlns="http://www.w3.org/2000/svg"
   xmlns:xlink="http://www.w3.org/1999/xlink"
   xmlns:sodipodi="http://sodipodi.sourceforge.net/DTD/sodipodi-0.dtd"
   xmlns:inkscape="http://www.inkscape.org/namespaces/inkscape"
   width="65"
   height="156"
   id="svg2318"
   sodipodi:version="0.32"
   inkscape:version="0.46"
   sodipodi:docbase="/home/diau/failed Graphics attempts/plasma background/41/widgets"
   sodipodi:docname="bar_meter_vertical.svgz"
   inkscape:output_extension="org.inkscape.output.svgz.inkscape"
   version="1.0">
  <defs
     id="defs2320">
    <linearGradient
       inkscape:collect="always"
       xlink:href="#linearGradient4548"
       id="linearGradient3247"
       x1="107.75"
       y1="26.75"
       x2="107.75"
       y2="71.105026"
       gradientUnits="userSpaceOnUse" />
    <linearGradient
       inkscape:collect="always"
       xlink:href="#linearGradient3281"
       id="linearGradient3287"
       x1="106.5"
       y1="26.375"
       x2="106.5"
       y2="71.392357"
       gradientUnits="userSpaceOnUse" />
    <linearGradient
       inkscape:collect="always"
       xlink:href="#linearGradient4548"
       id="linearGradient3235"
       x1="109.25413"
       y1="26.478901"
       x2="109.25413"
       y2="71.294479"
       gradientUnits="userSpaceOnUse"
       gradientTransform="matrix(2.6703429,0,0,0.375,-78.187487,49)" />
    <linearGradient
       inkscape:collect="always"
       xlink:href="#linearGradient4548"
       id="linearGradient3263"
       x1="105.50379"
       y1="26.5"
       x2="105.50379"
       y2="71.451363"
       gradientUnits="userSpaceOnUse" />
    <linearGradient
       inkscape:collect="always"
       xlink:href="#linearGradient4548"
       id="linearGradient3349"
       gradientUnits="userSpaceOnUse"
       x1="105.50379"
       y1="26.5"
       x2="105.50379"
       y2="71.451363"
       gradientTransform="matrix(2,0,0,1,-48.007582,0)" />
    <linearGradient
       inkscape:collect="always"
       id="linearGradient3281">
      <stop
         style="stop-color:#f0f0f0;stop-opacity:1;"
         offset="0"
         id="stop3283" />
      <stop
         style="stop-color:#f0f0f0;stop-opacity:0;"
         offset="1"
         id="stop3285" />
    </linearGradient>
    <linearGradient
       inkscape:collect="always"
       xlink:href="#linearGradient3281"
       id="linearGradient3385"
       gradientUnits="userSpaceOnUse"
       x1="106.5"
       y1="26.375"
       x2="106.5"
       y2="71.392357" />
    <linearGradient
       inkscape:collect="always"
       xlink:href="#linearGradient4548"
       id="linearGradient3395"
       gradientUnits="userSpaceOnUse"
       x1="105.50379"
       y1="26.5"
       x2="105.50379"
       y2="71.451363" />
    <linearGradient
       inkscape:collect="always"
       xlink:href="#linearGradient4548"
       id="linearGradient3393"
       gradientUnits="userSpaceOnUse"
       gradientTransform="matrix(2,0,0,1,-48.007582,0)"
       x1="105.50379"
       y1="26.5"
       x2="105.50379"
       y2="71.451363" />
    <linearGradient
       inkscape:collect="always"
       xlink:href="#linearGradient4548"
       id="linearGradient3271"
       x1="107.50413"
       y1="26.625"
       x2="107.50413"
       y2="71.142441"
       gradientUnits="userSpaceOnUse" />
    <linearGradient
       inkscape:collect="always"
       id="linearGradient3297">
      <stop
         style="stop-color:#f0f0f0;stop-opacity:1;"
         offset="0"
         id="stop3299" />
      <stop
         style="stop-color:#f0f0f0;stop-opacity:0;"
         offset="1"
         id="stop3301" />
    </linearGradient>
    <linearGradient
       inkscape:collect="always"
       xlink:href="#linearGradient3297"
       id="linearGradient3303"
       x1="104.27944"
       y1="26.139458"
       x2="104.27944"
       y2="71.203651"
       gradientUnits="userSpaceOnUse" />
    <linearGradient
       inkscape:collect="always"
       id="linearGradient3289">
      <stop
         style="stop-color:#f0f0f0;stop-opacity:1;"
         offset="0"
         id="stop3291" />
      <stop
         style="stop-color:#f0f0f0;stop-opacity:0;"
         offset="1"
         id="stop3293" />
    </linearGradient>
    <linearGradient
       inkscape:collect="always"
       xlink:href="#linearGradient3289"
       id="linearGradient3295"
       x1="106.75379"
       y1="26.375"
       x2="106.75379"
       y2="71.271057"
       gradientUnits="userSpaceOnUse" />
    <linearGradient
       inkscape:collect="always"
       xlink:href="#linearGradient4548"
       id="linearGradient3521"
       gradientUnits="userSpaceOnUse"
       gradientTransform="matrix(2,0,0,1,-48.007582,0)"
       x1="105.50379"
       y1="26.5"
       x2="105.50379"
       y2="71.451363" />
    <linearGradient
       inkscape:collect="always"
       id="linearGradient4548">
      <stop
         style="stop-color:#f0f0f0;stop-opacity:1;"
         offset="0"
         id="stop4550" />
      <stop
         style="stop-color:#f0f0f0;stop-opacity:0;"
         offset="1"
         id="stop4552" />
    </linearGradient>
    <linearGradient
       inkscape:collect="always"
       xlink:href="#linearGradient4548"
       id="linearGradient3527"
       gradientUnits="userSpaceOnUse"
       gradientTransform="matrix(2,0,0,1,-48.007582,0)"
       x1="105.50379"
       y1="26.5"
       x2="105.50379"
       y2="71.451363" />
  </defs>
  <sodipodi:namedview
     id="base"
     pagecolor="#000000"
     bordercolor="#666666"
     borderopacity="1.0"
     gridtolerance="10000"
     guidetolerance="10"
     objecttolerance="10"
     inkscape:pageopacity="0.50196078"
     inkscape:pageshadow="2"
     inkscape:zoom="6.080047"
     inkscape:cx="58.482103"
     inkscape:cy="110.33278"
     inkscape:document-units="px"
     inkscape:current-layer="layer1"
     inkscape:window-width="1225"
     inkscape:window-height="971"
     inkscape:window-x="445"
     inkscape:window-y="7"
     width="65px"
     height="156px"
     showgrid="false" />
  <metadata
     id="metadata2323">
    <rdf:RDF>
      <cc:Work
         rdf:about="">
        <dc:format>image/svg+xml</dc:format>
        <dc:type
           rdf:resource="http://purl.org/dc/dcmitype/StillImage" />
      </cc:Work>
    </rdf:RDF>
  </metadata>
  <g
     inkscape:label="Layer 1"
     inkscape:groupmode="layer"
     id="layer1">
    <rect
       style="opacity:0.19101126;fill:#cecece;fill-opacity:1;stroke:none;stroke-width:2;stroke-linecap:round;stroke-linejoin:round;stroke-miterlimit:4;stroke-dasharray:none;stroke-dashoffset:1.08779998;stroke-opacity:1"
       id="background"
       width="132"
       height="16"
       x="12"
       y="-41"
       rx="1.4393399"
       ry="1.4393399"
       inkscape:export-filename="/home/pinheiro/Documents/pics/estilo/plasma/rect2996.png"
       inkscape:export-xdpi="90"
       inkscape:export-ydpi="90"
       transform="matrix(0,1,-1,0,0,0)" />
    <rect
       style="opacity:1;fill:#0000ff;fill-opacity:0.50196078;fill-rule:evenodd;stroke:none;stroke-width:3.19400001;stroke-linecap:round;stroke-linejoin:round;stroke-miterlimit:4;stroke-dasharray:none;stroke-opacity:0.50196078"
       id="label0"
       width="65"
       height="12"
       x="0"
       y="0" />
    <rect
       y="144"
       x="0"
       height="12"
       width="65"
       id="label1"
       style="opacity:1;fill:#0000ff;fill-opacity:0.50196078;fill-rule:evenodd;stroke:none;stroke-width:3.19400001;stroke-linecap:round;stroke-linejoin:round;stroke-miterlimit:4;stroke-dasharray:none;stroke-opacity:0.50196078" />
    <rect
       y="-19.605326"
       x="45.460312"
       height="12"
       width="65"
       id="label2"
       style="opacity:1;fill:#0000ff;fill-opacity:0.50196078;fill-rule:evenodd;stroke:none;stroke-width:3.19400001;stroke-linecap:round;stroke-linejoin:round;stroke-miterlimit:4;stroke-dasharray:none;stroke-opacity:0.50196078"
       transform="matrix(0,1,-1,0,0,0)" />
    <path
       style="fill:#f0f0f0;fill-opacity:0.1081081;stroke:none;stroke-width:0.30000001;stroke-linecap:round;stroke-linejoin:round;stroke-miterlimit:4;stroke-opacity:1"
       d="M 49,61 L 49,62 L 59,62 L 59,61 L 49,61 z"
       id="background-top" />
    <path
       style="fill:#f0f0f0;fill-opacity:0.1081081;stroke:none;stroke-width:0.30000001;stroke-linecap:round;stroke-linejoin:round;stroke-miterlimit:4;stroke-opacity:1"
       d="M 59,61 L 59,62 L 60,62 C 59.950411,61.46294 59.541663,61.03189 59,61 z"
       id="background-topright" />
    <path
       style="fill:#f0f0f0;fill-opacity:0.1081081;stroke:none;stroke-width:0.30000001;stroke-linecap:round;stroke-linejoin:round;stroke-miterlimit:4;stroke-opacity:1"
       d="M 49,61 C 48.461332,61.03172 48.053558,61.46713 48,62 L 49,62 L 49,61 z"
       id="background-topleft" />
    <path
       style="fill:#f0f0f0;fill-opacity:0.1081081;stroke:none;stroke-width:0.30000001;stroke-linecap:round;stroke-linejoin:round;stroke-miterlimit:4;stroke-opacity:1"
       d="M 49,62 L 49,65 L 59,65 L 59,62 L 49,62 z"
       id="background-center" />
    <path
       id="background-left"
       d="M 48,62 L 48,65 L 49,65 L 49,62 L 48,62 z"
       style="fill:#f0f0f0;fill-opacity:0.1081081;stroke:none;stroke-width:0.30000001;stroke-linecap:round;stroke-linejoin:round;stroke-miterlimit:4;stroke-opacity:1" />
    <path
       style="fill:#f0f0f0;fill-opacity:0.1081081;stroke:none;stroke-width:0.30000001;stroke-linecap:round;stroke-linejoin:round;stroke-miterlimit:4;stroke-opacity:1"
       d="M 59,62 L 59,65 L 60,65 L 60,62 L 59,62 z"
       id="background-right" />
    <path
       id="background-bottom"
       d="M 49,66 L 49,65 L 59,65 L 59,66 L 49,66 z"
       style="fill:#f0f0f0;fill-opacity:0.1081081;stroke:none;stroke-width:0.30000001;stroke-linecap:round;stroke-linejoin:round;stroke-miterlimit:4;stroke-opacity:1" />
    <path
       id="background-bottomright"
       d="M 59,66 L 59,65 L 60,65 C 59.950411,65.53707 59.541663,65.96811 59,66 z"
       style="fill:#f0f0f0;fill-opacity:0.1081081;stroke:none;stroke-width:0.30000001;stroke-linecap:round;stroke-linejoin:round;stroke-miterlimit:4;stroke-opacity:1" />
    <path
       id="background-bottomleft"
       d="M 49,66 C 48.461332,65.96829 48.053558,65.53288 48,65 L 49,65 L 49,66 z"
       style="fill:#f0f0f0;fill-opacity:0.1081081;stroke:none;stroke-width:0.30000001;stroke-linecap:round;stroke-linejoin:round;stroke-miterlimit:4;stroke-opacity:1" />
    <g
       id="bar-active-top"
       transform="matrix(2.6703428,0,0,1,-78.176455,14)">
      <path
         id="path3371"
         d="M 48,54 L 48,56 L 50.99587,56 L 50.99587,54 L 48,54 z"
         style="fill:none;fill-opacity:1;stroke:none;stroke-width:0.30000001;stroke-linecap:round;stroke-linejoin:round;stroke-miterlimit:4;stroke-opacity:1" />
      <path
         style="fill:url(#linearGradient3247);fill-opacity:1;stroke:none;stroke-width:0.30000001;stroke-linecap:round;stroke-linejoin:round;stroke-miterlimit:4;stroke-opacity:1"
         d="M 48,55 L 48,56 L 50.99587,56 L 50.99587,55 L 48,55 z"
         id="path3459" />
    </g>
    <g
       id="bar-active-topleft"
       transform="translate(2,14)">
      <path
         id="path3355"
         d="M 46,54 L 46,56 L 48,56 L 48,54 L 46,54 z"
         style="fill:none;fill-opacity:1;stroke:none;stroke-width:0.30000001;stroke-linecap:round;stroke-linejoin:round;stroke-miterlimit:4;stroke-opacity:1" />
      <path
         style="fill:url(#linearGradient3287);fill-opacity:1;stroke:none;stroke-width:0.30000001;stroke-linecap:round;stroke-linejoin:round;stroke-miterlimit:4;stroke-opacity:1"
         d="M 48,55 C 47.461332,55.031712 47.053558,55.467126 47,56 L 48,56 L 48,55 z"
         id="path3457" />
    </g>
    <path
       id="bar-active-center"
       d="M 50,70 L 50,73 L 58,73 L 58,70 L 50,70 z"
       style="fill:url(#linearGradient3235);fill-opacity:1;stroke:none;stroke-width:0.30000001;stroke-linecap:round;stroke-linejoin:round;stroke-miterlimit:4;stroke-opacity:1" />
    <g
       id="bar-active-left"
       transform="matrix(1.0001043,0,0,0.375,1.9952021,48.999997)">
      <path
         style="opacity:0;fill:url(#linearGradient3349);fill-opacity:1;stroke:none;stroke-width:0.30000001;stroke-linecap:round;stroke-linejoin:round;stroke-miterlimit:4;stroke-opacity:1"
         d="M 46,56 L 46,64 L 48,64 L 48,56 L 46,56 z"
         id="path3347" />
      <path
         id="path3455"
         d="M 47.003791,56 L 47.003791,64 L 48.003791,64 L 48.003791,56 L 47.003791,56 z"
         style="fill:url(#linearGradient3263);fill-opacity:1;stroke:none;stroke-width:0.30000001;stroke-linecap:round;stroke-linejoin:round;stroke-miterlimit:4;stroke-opacity:1" />
    </g>
    <g
       id="bar-active-topright"
       transform="matrix(-1,0,0,1,106,14)">
      <path
         style="fill:none;fill-opacity:1;stroke:none;stroke-width:0.30000001;stroke-linecap:round;stroke-linejoin:round;stroke-miterlimit:4;stroke-opacity:1"
         d="M 46,54 L 46,56 L 48,56 L 48,54 L 46,54 z"
         id="path3381" />
      <path
         id="path3383"
         d="M 48,55 C 47.461332,55.031712 47.053558,55.467126 47,56 L 48,56 L 48,55 z"
         style="fill:url(#linearGradient3385);fill-opacity:1;stroke:none;stroke-width:0.30000001;stroke-linecap:round;stroke-linejoin:round;stroke-miterlimit:4;stroke-opacity:1" />
    </g>
    <g
       id="bar-active-right"
       transform="matrix(-1,0,0,0.375,106.0038,49)">
      <path
         id="path3389"
         d="M 46,56 L 46,64 L 48,64 L 48,56 L 46,56 z"
         style="opacity:0;fill:url(#linearGradient3393);fill-opacity:1;stroke:none;stroke-width:0.30000001;stroke-linecap:round;stroke-linejoin:round;stroke-miterlimit:4;stroke-opacity:1" />
      <path
         style="fill:url(#linearGradient3395);fill-opacity:1;stroke:none;stroke-width:0.30000001;stroke-linecap:round;stroke-linejoin:round;stroke-miterlimit:4;stroke-opacity:1"
         d="M 47.003791,56 L 47.003791,64 L 48.003791,64 L 48.003791,56 L 47.003791,56 z"
         id="path3391" />
    </g>
    <g
       id="bar-active-bottom"
       transform="matrix(2.6666667,0,0,1,-78,9)">
      <path
         id="path3463"
         d="M 48.00413,65 L 48.00413,64 L 51,64 L 51,65 L 48.00413,65 z"
         style="fill:url(#linearGradient3271);fill-opacity:1;stroke:none;stroke-width:0.30000001;stroke-linecap:round;stroke-linejoin:round;stroke-miterlimit:4;stroke-opacity:1" />
      <path
         style="fill:none;fill-opacity:1;stroke:none;stroke-width:0.30000001;stroke-linecap:round;stroke-linejoin:round;stroke-miterlimit:4;stroke-opacity:1"
         d="M 48,66 L 48,64 L 50.99587,64 L 50.99587,66 L 48,66 z"
         id="path3399" />
    </g>
    <g
       id="bar-active-bottomleft"
       transform="translate(2,9)">
      <path
         id="mar-active-bottomleft"
         d="M 48.003791,65 C 47.465123,64.968288 47.057349,64.532874 47.003791,64 L 48.003791,64 L 48.003791,65 z"
         style="fill:url(#linearGradient3303);fill-opacity:1;stroke:none;stroke-width:0.30000001;stroke-linecap:round;stroke-linejoin:round;stroke-miterlimit:4;stroke-opacity:1" />
      <path
         style="fill:none;fill-opacity:1;stroke:none;stroke-width:0.30000001;stroke-linecap:round;stroke-linejoin:round;stroke-miterlimit:4;stroke-opacity:1"
         d="M 46,66 L 46,64 L 48,64 L 48,66 L 46,66 z"
         id="path3405" />
    </g>
    <g
       id="bar-active-bottomright"
       transform="translate(7.0000186,9)">
      <path
         id="path3461"
         d="M 51.003791,65 L 51.003791,64 L 52.003791,64 C 51.954202,64.537066 51.545454,64.96811 51.003791,65 z"
         style="fill:url(#linearGradient3295);fill-opacity:1;stroke:none;stroke-width:0.30000001;stroke-linecap:round;stroke-linejoin:round;stroke-miterlimit:4;stroke-opacity:1" />
      <path
         id="path3411"
         d="M 52.999995,66 L 52.999995,64 L 50.999995,64 L 50.999995,66 L 52.999995,66 z"
         style="fill:none;fill-opacity:1;stroke:none;stroke-width:0.30000001;stroke-linecap:round;stroke-linejoin:round;stroke-miterlimit:4;stroke-opacity:1" />
    </g>
    <rect
       style="opacity:1;fill:#3f8400;fill-opacity:0.62745098;fill-rule:nonzero;stroke:none;stroke-width:1.10000002;stroke-linecap:round;stroke-linejoin:miter;stroke-miterlimit:4;stroke-dasharray:none;stroke-dashoffset:0;stroke-opacity:1"
       id="hint-stretch-borders"
       width="3.4471455"
       height="3.5355339"
       x="47.497639"
       y="54.045017" />
    <g
       id="bar-inactive-top"
       transform="matrix(2.6666667,0,0,1,-78,22)">
      <path
         style="fill:none;fill-opacity:1;stroke:none;stroke-width:0.30000001;stroke-linecap:round;stroke-linejoin:round;stroke-miterlimit:4;stroke-opacity:1"
         d="M 48,54 L 48,56 L 50.99587,56 L 50.99587,54 L 48,54 z"
         id="path3467" />
      <path
         id="path3469"
         d="M 48,55 L 48,56 L 50.99587,56 L 50.99587,55 L 48,55 z"
         style="fill:#000000;fill-opacity:0.62745098;stroke:none;stroke-width:0.30000001;stroke-linecap:round;stroke-linejoin:round;stroke-miterlimit:4;stroke-opacity:1" />
    </g>
    <g
       id="bar-inactive-topleft"
       transform="translate(2,22)">
      <path
         style="fill:none;fill-opacity:1;stroke:none;stroke-width:0.30000001;stroke-linecap:round;stroke-linejoin:round;stroke-miterlimit:4;stroke-opacity:1"
         d="M 46,54 L 46,56 L 48,56 L 48,54 L 46,54 z"
         id="path3473" />
      <path
         id="path3475"
         d="M 48,55 C 47.461332,55.031712 47.053558,55.467126 47,56 L 48,56 L 48,55 z"
         style="fill:#000000;fill-opacity:0.62745098;stroke:none;stroke-width:0.30000001;stroke-linecap:round;stroke-linejoin:round;stroke-miterlimit:4;stroke-opacity:1" />
    </g>
    <path
       style="fill:#000000;fill-opacity:0.62745098;stroke:none;stroke-width:0.30000001;stroke-linecap:round;stroke-linejoin:round;stroke-miterlimit:4;stroke-opacity:1"
       d="M 50.01101,78 L 50.01101,80.999999 L 57.999999,80.999999 L 57.999999,78 L 50.01101,78 z"
       id="bar-inactive-center" />
    <g
       id="bar-inactive-left"
       transform="matrix(1,0,0,0.375,2,56.999999)">
      <path
         id="path3481"
         d="M 46,56 L 46,64 L 48,64 L 48,56 L 46,56 z"
         style="opacity:0;fill:url(#linearGradient3521);fill-opacity:1;stroke:none;stroke-width:0.30000001;stroke-linecap:round;stroke-linejoin:round;stroke-miterlimit:4;stroke-opacity:1" />
      <path
         style="fill:#000000;fill-opacity:0.62745098;stroke:none;stroke-width:0.30000001;stroke-linecap:round;stroke-linejoin:round;stroke-miterlimit:4;stroke-opacity:1"
         d="M 47.003791,56 L 47.003791,64 L 48.003791,64 L 48.003791,56 L 47.003791,56 z"
         id="path3483" />
    </g>
    <g
       transform="matrix(-1,0,0,1,106,22)"
       id="bar-inactive-topright">
      <path
         id="path3487"
         d="M 46,54 L 46,56 L 48,56 L 48,54 L 46,54 z"
         style="fill:none;fill-opacity:1;stroke:none;stroke-width:0.30000001;stroke-linecap:round;stroke-linejoin:round;stroke-miterlimit:4;stroke-opacity:1" />
      <path
         style="fill:#000000;fill-opacity:0.62745098;stroke:none;stroke-width:0.30000001;stroke-linecap:round;stroke-linejoin:round;stroke-miterlimit:4;stroke-opacity:1"
         d="M 48,55 C 47.461332,55.031712 47.053558,55.467126 47,56 L 48,56 L 48,55 z"
         id="path3489" />
    </g>
    <g
       transform="matrix(-1,0,0,0.375,106.0038,56.999999)"
       id="bar-inactive-right">
      <path
         style="opacity:0;fill:url(#linearGradient3527);fill-opacity:1;stroke:none;stroke-width:0.30000001;stroke-linecap:round;stroke-linejoin:round;stroke-miterlimit:4;stroke-opacity:1"
         d="M 46,56 L 46,64 L 48,64 L 48,56 L 46,56 z"
         id="path3493" />
      <path
         id="path3495"
         d="M 47.003791,56 L 47.003791,64 L 48.003791,64 L 48.003791,56 L 47.003791,56 z"
         style="fill:#000000;fill-opacity:0.62745098;stroke:none;stroke-width:0.30000001;stroke-linecap:round;stroke-linejoin:round;stroke-miterlimit:4;stroke-opacity:1" />
    </g>
    <g
       id="bar-inactive-bottom"
       transform="matrix(2.6666667,0,0,1,-78,17)">
      <path
         style="fill:#000000;fill-opacity:0.62745098;stroke:none;stroke-width:0.30000001;stroke-linecap:round;stroke-linejoin:round;stroke-miterlimit:4;stroke-opacity:1"
         d="M 48.00413,65 L 48.00413,64 L 51,64 L 51,65 L 48.00413,65 z"
         id="path3499" />
      <path
         id="path3501"
         d="M 48,66 L 48,64 L 50.99587,64 L 50.99587,66 L 48,66 z"
         style="fill:none;fill-opacity:1;stroke:none;stroke-width:0.30000001;stroke-linecap:round;stroke-linejoin:round;stroke-miterlimit:4;stroke-opacity:1" />
    </g>
    <g
       id="bar-inactive-bottomleft"
       transform="translate(2,17)">
      <path
         style="fill:#000000;fill-opacity:0.62745098;stroke:none;stroke-width:0.30000001;stroke-linecap:round;stroke-linejoin:round;stroke-miterlimit:4;stroke-opacity:1"
         d="M 48.003791,65 C 47.465123,64.968288 47.057349,64.532874 47.003791,64 L 48.003791,64 L 48.003791,65 z"
         id="path3505" />
      <path
         id="path3507"
         d="M 46,66 L 46,64 L 48,64 L 48,66 L 46,66 z"
         style="fill:none;fill-opacity:1;stroke:none;stroke-width:0.30000001;stroke-linecap:round;stroke-linejoin:round;stroke-miterlimit:4;stroke-opacity:1" />
    </g>
    <g
       id="bar-inactive-bottomright"
       transform="translate(7.0000119,17)">
      <path
         style="fill:#000000;fill-opacity:0.62745098;stroke:none;stroke-width:0.30000001;stroke-linecap:round;stroke-linejoin:round;stroke-miterlimit:4;stroke-opacity:1"
         d="M 51.003791,65 L 51.003791,64 L 52.003791,64 C 51.954202,64.537066 51.545454,64.96811 51.003791,65 z"
         id="path3511" />
      <path
         style="fill:none;fill-opacity:1;stroke:none;stroke-width:0.30000001;stroke-linecap:round;stroke-linejoin:round;stroke-miterlimit:4;stroke-opacity:1"
         d="M 52.999995,66 L 52.999995,64 L 50.999995,64 L 50.999995,66 L 52.999995,66 z"
         id="path3513" />
    </g>
  </g>
</svg>
